<?xml version="1.0" encoding="UTF-8" standalone="no"?>
<svg
   xmlns:dc="http://purl.org/dc/elements/1.1/"
   xmlns:cc="http://creativecommons.org/ns#"
   xmlns:rdf="http://www.w3.org/1999/02/22-rdf-syntax-ns#"
   xmlns:svg="http://www.w3.org/2000/svg"
   xmlns="http://www.w3.org/2000/svg"
   xmlns:sodipodi="http://sodipodi.sourceforge.net/DTD/sodipodi-0.dtd"
   xmlns:inkscape="http://www.inkscape.org/namespaces/inkscape"
   width="136"
   height="136"
   viewBox="0 0 35.983333 35.983334"
   id="svg2"
   version="1.1"
   inkscape:version="1.0.2 (e86c870879, 2021-01-15)"
   sodipodi:docname="busywidget.svg">
  <defs
     id="defs4">
    <style
       type="text/css"
       id="current-color-scheme" />
  </defs>
  <sodipodi:namedview
     id="base"
     pagecolor="#ffffff"
     bordercolor="#000000"
     borderopacity="1"
     inkscape:pageopacity="0"
     inkscape:pageshadow="2"
     inkscape:zoom="4"
     inkscape:cx="107.0136"
     inkscape:cy="88.258592"
     inkscape:document-units="px"
     inkscape:current-layer="layer1"
     showgrid="true"
     units="px"
     inkscape:showpageshadow="false"
     borderlayer="true"
     inkscape:window-width="1920"
     inkscape:window-height="1007"
     inkscape:window-x="0"
     inkscape:window-y="0"
     inkscape:window-maximized="1"
     fit-margin-top="0"
     fit-margin-left="0"
     fit-margin-right="0"
     fit-margin-bottom="0"
     inkscape:document-rotation="0"
     showguides="false">
    <inkscape:grid
       type="xygrid"
       id="grid4160"
       empspacing="2"
       originx="0"
       originy="0"
       visible="true"
       enabled="true"
       snapvisiblegridlinesonly="true"
       spacingx="1"
       spacingy="1" />
    <sodipodi:guide
       position="-5.8455811e-08,35.983344"
       orientation="136.00001,0"
       id="guide4155" />
    <sodipodi:guide
       position="-5.8455811e-08,6.6152344e-06"
       orientation="0,136"
       id="guide4157" />
    <sodipodi:guide
       position="35.983333,6.6152344e-06"
       orientation="-136.00001,0"
       id="guide4159" />
    <sodipodi:guide
       position="35.983333,35.983344"
       orientation="0,-136"
       id="guide4161" />
    <sodipodi:guide
       position="1.1488343e-09,17.991675"
       orientation="68.000007,0"
       id="guide4165" />
    <sodipodi:guide
       position="1.1488343e-09,6.6152344e-06"
       orientation="0,67.999998"
       id="guide4167" />
    <sodipodi:guide
       position="17.991666,6.6152344e-06"
       orientation="-68.000007,0"
       id="guide4169" />
    <sodipodi:guide
       position="17.991666,17.991675"
       orientation="0,-67.999998"
       id="guide4171" />
    <sodipodi:guide
       position="1.8520831,34.131232"
       orientation="122.00003,0"
       id="guide4199" />
    <sodipodi:guide
       position="1.8520831,1.8520574"
       orientation="0,121.99999"
       id="guide4201" />
    <sodipodi:guide
       position="34.131248,1.8520574"
       orientation="-122.00003,0"
       id="guide4203" />
    <sodipodi:guide
       position="34.131248,34.131232"
       orientation="0,-121.99999"
       id="guide4205" />
  </sodipodi:namedview>
  <metadata
     id="metadata7">
    <rdf:RDF>
      <cc:Work
         rdf:about="">
        <dc:format>image/svg+xml</dc:format>
        <dc:type
           rdf:resource="http://purl.org/dc/dcmitype/StillImage" />
        <dc:title />
      </cc:Work>
    </rdf:RDF>
  </metadata>
  <g
     inkscape:label="Capa 1"
     inkscape:groupmode="layer"
     id="layer1"
     transform="translate(0.52916664,-249.37498)">
    <g
       id="stopped">
      <rect
         style="opacity:1;fill:none;fill-opacity:1;stroke:none;stroke-width:0.0264583;stroke-linecap:square;stroke-linejoin:miter;stroke-miterlimit:4;stroke-dasharray:none;stroke-dashoffset:0;stroke-opacity:1"
         id="rect4234"
         width="35.983334"
         height="35.983334"
         x="-42.862503"
         y="249.37497" />
      <ellipse
         ry="1.3229166"
         rx="1.322917"
         cy="38.364582"
         cx="267.36664"
         id="ellipse4238"
         style="opacity:1;fill:#3b6ca7;fill-opacity:1;stroke:none;stroke-width:0.0132292;stroke-linecap:square;stroke-linejoin:miter;stroke-miterlimit:4;stroke-dasharray:none;stroke-dashoffset:0;stroke-opacity:1"
         transform="rotate(90)" />
      <ellipse
         transform="rotate(90)"
         style="opacity:1;fill:#3b6ca7;fill-opacity:1;stroke:none;stroke-width:0.0105833;stroke-linecap:square;stroke-linejoin:miter;stroke-miterlimit:4;stroke-dasharray:none;stroke-dashoffset:0;stroke-opacity:1"
         id="ellipse4261"
         cx="267.36664"
         cy="11.377067"
         rx="1.0583339"
         ry="1.0583336" />
      <ellipse
         ry="2.1166663"
         rx="2.116667"
         cy="24.870825"
         cx="267.36664"
         id="ellipse4263"
         style="opacity:1;fill:#3b6ca7;fill-opacity:1;stroke:none;stroke-width:0.0211667;stroke-linecap:square;stroke-linejoin:miter;stroke-miterlimit:4;stroke-dasharray:none;stroke-dashoffset:0;stroke-opacity:1"
         transform="rotate(90)" />
    </g>
    <rect
       style="opacity:0.01;fill:#00cccc;fill-opacity:1;fill-rule:nonzero;stroke:none;stroke-width:0.264583"
       id="hint-rotation-angle"
       width="3.7041671"
       height="3.7041693"
       x="-0.52916706"
       y="285.35831" />
    <g
       id="22-22-busywidget">
      <rect
         y="279.53748"
         x="51.329166"
         height="5.8208337"
         width="5.8208337"
         id="rect3007"
         style="fill:none;stroke:none" />
      <path
         sodipodi:nodetypes="sccccccccccccccccsssss"
         inkscape:connector-curvature="0"
         id="path3009"
         transform="matrix(0.26458334,0,0,0.26458334,-0.52916714,249.37498)"
         d="m 206.90625,115 c -5.68285,0 -9.90626,4.76331 -9.90625,10 0,5.11064 3.86041,9.24196 8.53125,9.90625 0.007,0.001 0.0245,-0.001 0.0313,0 0.1869,0.0265 0.37435,0.0459 0.5625,0.0625 0.0726,0.008 0.11478,-0.004 0.1875,0 h 0.0313 c 0.0253,0.002 0.0371,0 0.0625,0 0.16207,0.008 0.3377,0.0313 0.5,0.0313 0.0253,-1.1e-4 0.0373,0 0.0625,0 0.22673,-0.003 0.46154,-0.0123 0.6875,-0.0313 0.0336,-0.003 0.06,0.002 0.0937,0 2.08268,-0.2143 4.08105,-1.19024 5.5625,-2.6875 2.29078,-2.85585 2.42433,-5.2927 1.42433,-9.29269 1.22819,5.24703 -2.45297,9.87167 -7.86188,10.0102 -4.24948,0 -7.87455,-3.58819 -7.87457,-7.99871 0.0682,-4.85133 3.99957,-7.98861 7.93707,-8.00652 h 0.15625 c 0.16789,0 0.31534,-0.15426 0.3125,-0.32394 -0.006,-0.3677 -0.0216,-0.97956 -0.0313,-1.32579 C 207.36994,115.1624 207.24222,115 207.0625,115 Z"
         style="fill:#3b6ca7;fill-opacity:1;stroke:none"
         class="ColorScheme-ButtonFocus" />
    </g>
    <g
       id="16-16-busywidget">
      <rect
         style="fill:none;stroke:none"
         id="rect3792"
         width="4.2333336"
         height="4.2333336"
         x="58.472801"
         y="281.12497" />
      <path
         style="fill:#3b6ca7;fill-opacity:1;stroke:none"
         d="m 60.57642,281.3808 c -1.05492,0 -1.838921,0.88423 -1.838919,1.85633 0,0.9487 0.716617,1.71561 1.583674,1.83892 0.0013,1.8e-4 0.0045,-1.8e-4 0.0058,0 0.03469,0.005 0.06949,0.008 0.104418,0.0115 0.01348,9.5e-4 0.02132,-7.1e-4 0.03481,0 h 0.0058 c 0.0047,3.7e-4 0.0068,0 0.0116,0 0.03009,9.5e-4 0.06269,0.006 0.09281,0.006 0.0047,-10e-6 0.007,0 0.01161,0 0.04209,-5.5e-4 0.08568,-0.002 0.127622,-0.006 0.0062,-5.5e-4 0.01115,3.7e-4 0.01739,0 0.386612,-0.0397 0.757573,-0.22096 1.032578,-0.49889 0.425244,-0.53014 0.450034,-0.98249 0.264402,-1.72502 0.227992,0.97402 -0.455349,1.8325 -1.459418,1.85821 -0.788838,0 -1.461768,-0.66608 -1.461773,-1.48481 0.01267,-0.90056 0.74245,-1.48294 1.473376,-1.48626 h 0.029 c 0.03117,0 0.05855,-0.0288 0.05801,-0.0601 -0.0011,-0.0683 -0.0039,-0.18183 -0.0058,-0.2461 -9.11e-4,-0.0337 -0.02464,-0.0638 -0.058,-0.0638 z"
         id="path3794"
         inkscape:connector-curvature="0"
         sodipodi:nodetypes="sccccccccccccccccsssss"
         class="ColorScheme-ButtonFocus" />
    </g>
    <g
       id="busywidget">
      <rect
         style="fill:none;stroke:none"
         id="rect3016"
         width="35.983334"
         height="35.983334"
         x="-0.52916682"
         y="249.37498" />
      <circle
         cx="17.462765"
         cy="267.39337"
         r="5.3096585"
         id="circle2"
         style="fill:#3b6ca7;fill-opacity:1;stroke-width:0.431681" />
      <path
         d="m 14.546428,259.24737 0.969465,-0.36354 -1.211832,-3.39313 c -0.121183,-0.30296 -0.424141,-0.42415 -0.666507,-0.30296 -0.242367,0.12118 -0.424141,0.42414 -0.302958,0.66651 z"
         id="path4"
         style="fill:#d3dae3;fill-opacity:1;stroke-width:0.605916" />
      <path
         d="m 17.757783,252.03697 c 0,-0.30295 -0.242367,-0.54532 -0.545325,-0.54532 -0.302958,0 -0.484733,0.24237 -0.484733,0.54532 v 6.72567 h 1.090649 v -6.72567 z"
         id="path6-3"
         style="fill:#d3dae3;fill-opacity:1;stroke-width:0.605916" />
      <path
         d="m 17.212458,282.69632 c 0,0.30296 0.242367,0.54533 0.545325,0.54533 0.302958,0 0.545324,-0.24237 0.545324,-0.54533 v -6.72566 h -1.090649 z"
         id="path8-6"
         style="fill:#d3dae3;fill-opacity:1;stroke-width:0.605916" />
      <path
         d="m 20.484405,275.36474 -0.969466,0.36355 1.272424,3.39313 c 0.121183,0.30296 0.424141,0.42414 0.666507,0.30296 0.302958,-0.12119 0.424142,-0.42414 0.302958,-0.66651 z"
         id="path10-7"
         style="fill:#d3dae3;fill-opacity:1;stroke-width:0.605916" />
      <path
         d="m 10.85034,261.85281 0.666508,-0.78769 -2.7266222,-2.36307 c -0.2423664,-0.18177 -0.5453245,-0.18177 -0.7270993,0.0606 -0.1817748,0.24237 -0.1817748,0.54533 0.060592,0.7271 z"
         id="path12-5"
         style="fill:#d3dae3;fill-opacity:1;stroke-width:0.605916" />
      <path
         d="m 12.546905,260.33802 0.908874,-0.54532 -3.39313,-5.87739 c -0.1211828,-0.24236 -0.4847324,-0.36355 -0.7270988,-0.18177 -0.2423664,0.12118 -0.3635496,0.48473 -0.1817748,0.7271 z"
         id="path14-3"
         style="fill:#d3dae3;fill-opacity:1;stroke-width:0.605916" />
      <path
         d="m 22.483928,274.39527 -0.908874,0.54533 3.393129,5.81679 c 0.121183,0.24237 0.484733,0.36355 0.727099,0.18178 0.242367,-0.12119 0.36355,-0.48473 0.181775,-0.7271 z"
         id="path16-5"
         style="fill:#d3dae3;fill-opacity:1;stroke-width:0.605916" />
      <path
         d="m 24.059309,272.81989 -0.666507,0.78769 2.787213,2.36308 c 0.242367,0.18177 0.545325,0.18177 0.727099,-0.0606 0.181775,-0.24236 0.181775,-0.54532 -0.06059,-0.72709 z"
         id="path18-6"
         style="fill:#d3dae3;fill-opacity:1;stroke-width:0.605916" />
      <path
         d="m 5.5788709,264.21589 c -0.302958,-0.0606 -0.5453244,0.12118 -0.605916,0.42414 -0.060592,0.30296 0.1211832,0.54532 0.4241412,0.60591 l 3.5749045,0.60592 0.1817748,-1.03006 z"
         id="path20"
         style="fill:#d3dae3;fill-opacity:1;stroke-width:0.605916" />
      <path
         d="m 3.8217145,260.39862 5.8167937,3.39312 0.5453248,-0.90887 -5.8167941,-3.39313 c -0.2423664,-0.12118 -0.605916,-0.0606 -0.7270992,0.18178 -0.1817748,0.24236 -0.060592,0.54532 0.1817748,0.7271 z"
         id="path22"
         style="fill:#d3dae3;fill-opacity:1;stroke-width:0.605916" />
      <path
         d="m 31.209118,274.33468 -5.816794,-3.39313 -0.545324,0.90888 5.816794,3.39313 c 0.242366,0.12118 0.605916,0.0606 0.727099,-0.18178 0.121183,-0.24236 0.06059,-0.60591 -0.181775,-0.7271 z"
         id="path24"
         style="fill:#d3dae3;fill-opacity:1;stroke-width:0.605916" />
      <path
         d="m 29.330778,270.45682 c 0.302959,0.0606 0.545325,-0.12118 0.605917,-0.42414 0.06059,-0.30296 -0.121184,-0.54532 -0.424142,-0.60592 l -3.574904,-0.60591 -0.181775,1.03005 z"
         id="path26"
         style="fill:#d3dae3;fill-opacity:1;stroke-width:0.605916" />
      <path
         d="m 5.2759129,271.24451 c 0.1211832,0.30296 0.4241412,0.42414 0.6665076,0.30296 l 3.3931297,-1.27242 -0.3635496,-0.96947 -3.3931297,1.27242 c -0.2423664,0.12119 -0.3635496,0.42415 -0.302958,0.66651 z"
         id="path28"
         style="fill:#d3dae3;fill-opacity:1;stroke-width:0.605916" />
      <path
         d="M 8.911409,267.06369 H 2.1857412 c -0.302958,0 -0.5453244,0.24237 -0.5453244,0.54533 0,0.30295 0.2423664,0.54532 0.5453244,0.54532 H 8.911409 Z"
         id="path30"
         style="fill:#d3dae3;fill-opacity:1;stroke-width:0.605916" />
      <path
         d="m 32.845091,266.57896 h -6.725667 v 1.09065 h 6.725667 c 0.302958,0 0.545325,-0.24237 0.545325,-0.54533 0,-0.30296 -0.242367,-0.54532 -0.545325,-0.54532 z"
         id="path32"
         style="fill:#d3dae3;fill-opacity:1;stroke-width:0.605916" />
      <path
         d="m 29.633737,263.48879 c -0.121184,-0.30296 -0.424142,-0.42414 -0.666508,-0.30296 l -3.39313,1.27242 0.36355,0.96947 3.393129,-1.27243 c 0.242367,-0.12118 0.36355,-0.42414 0.302959,-0.6665 z"
         id="path34"
         style="fill:#d3dae3;fill-opacity:1;stroke-width:0.605916" />
      <path
         d="m 11.940989,273.97113 -0.787691,-0.6665 -2.3630722,2.78721 c -0.1817748,0.24237 -0.1817748,0.54532 0.060592,0.7271 0.2423664,0.18177 0.5453244,0.18177 0.7270992,-0.0606 z"
         id="path36"
         style="fill:#d3dae3;fill-opacity:1;stroke-width:0.605916" />
      <path
         d="m 9.9414662,271.42629 -5.8167937,3.39313 c -0.2423664,0.12118 -0.3635496,0.48473 -0.1817748,0.7271 0.1817748,0.24236 0.4847328,0.36354 0.7270992,0.18177 l 5.8167941,-3.39313 z"
         id="path38"
         style="fill:#d3dae3;fill-opacity:1;stroke-width:0.605916" />
      <path
         d="m 25.089366,263.30701 5.816794,-3.39313 c 0.242367,-0.12118 0.36355,-0.48473 0.181775,-0.7271 -0.181775,-0.24236 -0.484733,-0.36355 -0.727099,-0.18177 l -5.816794,3.39313 z"
         id="path40"
         style="fill:#d3dae3;fill-opacity:1;stroke-width:0.605916" />
      <path
         d="m 22.96866,260.76216 0.787691,0.66651 2.363073,-2.78721 c 0.181774,-0.24237 0.181774,-0.54533 -0.06059,-0.7271 -0.242366,-0.18178 -0.545324,-0.18178 -0.727099,0.0606 z"
         id="path42"
         style="fill:#d3dae3;fill-opacity:1;stroke-width:0.605916" />
      <path
         d="m 14.364653,279.2426 c -0.06059,0.30296 0.121183,0.54533 0.424141,0.60592 0.302958,0.0606 0.545325,-0.12118 0.605916,-0.42414 l 0.605916,-3.57491 -1.030057,-0.18177 z"
         id="path44"
         style="fill:#d3dae3;fill-opacity:1;stroke-width:0.605916" />
      <path
         d="m 9.5779166,280.51503 c -0.1211832,0.24236 -0.060592,0.60591 0.1817748,0.7271 0.2423666,0.12118 0.6059156,0.0606 0.7270996,-0.18178 l 3.393129,-5.81679 -0.908874,-0.54533 z"
         id="path46"
         style="fill:#d3dae3;fill-opacity:1;stroke-width:0.605916" />
      <path
         d="m 25.392324,254.21827 c 0.121184,-0.24236 0.06059,-0.60591 -0.181774,-0.7271 -0.242367,-0.12118 -0.605916,-0.0606 -0.7271,0.18178 l -3.393129,5.81679 0.908874,0.54533 z"
         id="path48"
         style="fill:#d3dae3;fill-opacity:1;stroke-width:0.605916" />
      <path
         d="m 20.605588,255.55129 c 0.06059,-0.30296 -0.121183,-0.54533 -0.424141,-0.60592 -0.302958,-0.0606 -0.545325,0.12118 -0.605916,0.42414 l -0.605916,3.57491 1.030057,0.18177 z"
         id="path50"
         style="fill:#d3dae3;fill-opacity:1;stroke-width:0.605916" />
      <circle
         style="color:#3daee9;fill:#d3dae3;fill-opacity:1;stroke:none;stroke-width:0.396875"
         id="path3872"
         class="ColorScheme-ButtonFocus"
         cx="17.441862"
         cy="267.38199"
         r="3.175" />
    </g>
  </g>
</svg>
