<?xml version="1.0" encoding="UTF-8" standalone="no"?>
<svg
   xmlns:dc="http://purl.org/dc/elements/1.1/"
   xmlns:cc="http://creativecommons.org/ns#"
   xmlns:rdf="http://www.w3.org/1999/02/22-rdf-syntax-ns#"
   xmlns:svg="http://www.w3.org/2000/svg"
   xmlns="http://www.w3.org/2000/svg"
   xmlns:xlink="http://www.w3.org/1999/xlink"
   xmlns:sodipodi="http://sodipodi.sourceforge.net/DTD/sodipodi-0.dtd"
   xmlns:inkscape="http://www.inkscape.org/namespaces/inkscape"
   version="1.1"
   id="svg2"
   viewBox="0 0 32 32"
   inkscape:version="1.0.2 (e86c870879, 2021-01-15)"
   sodipodi:docname="plasma.svg"
   width="32"
   height="32">
  <sodipodi:namedview
     pagecolor="#ffffff"
     bordercolor="#000000"
     borderopacity="1"
     objecttolerance="10"
     gridtolerance="10"
     guidetolerance="10"
     inkscape:pageopacity="1"
     inkscape:pageshadow="2"
     inkscape:window-width="1920"
     inkscape:window-height="1007"
     id="namedview12"
     showgrid="false"
     inkscape:zoom="6.2222222"
     inkscape:cx="41.559107"
     inkscape:cy="17.234658"
     inkscape:window-x="0"
     inkscape:window-y="0"
     inkscape:window-maximized="1"
     inkscape:current-layer="svg2"
     inkscape:document-rotation="0">
    <inkscape:grid
       type="xygrid"
       id="grid3388" />
  </sodipodi:namedview>
  <metadata
     id="metadata18">
    <rdf:RDF>
      <cc:Work
         rdf:about="">
        <dc:format>image/svg+xml</dc:format>
        <dc:type
           rdf:resource="http://purl.org/dc/dcmitype/StillImage" />
        <dc:title></dc:title>
      </cc:Work>
    </rdf:RDF>
  </metadata>
  <defs
     id="defs3051">
    <linearGradient
       inkscape:collect="always"
       id="linearGradient838">
      <stop
         style="stop-color:#317ace;stop-opacity:1"
         offset="0"
         id="stop834" />
      <stop
         style="stop-color:#99ddff;stop-opacity:1"
         offset="1"
         id="stop836" />
    </linearGradient>
    <style
       type="text/css"
       id="current-color-scheme">
      .ColorScheme-Text {
        color:#31363b;
      }
      .ColorScheme-Background {
        color:#eff0f1;
      }
      .ColorScheme-Highlight {
        color:#3daee9;
      }
      .ColorScheme-ViewText {
        color:#31363b;
      }
      .ColorScheme-ViewBackground {
        color:#fcfcfc;
      }
      .ColorScheme-ViewHover {
        color:#93cee9;
      }
      .ColorScheme-ViewFocus{
        color:#3daee9;
      }
      .ColorScheme-ButtonText {
        color:#31363b;
      }
      .ColorScheme-ButtonBackground {
        color:#eff0f1;
      }
      .ColorScheme-ButtonHover {
        color:#93cee9;
      }
      .ColorScheme-ButtonFocus{
        color:#3daee9;
      }
      </style>
    <style
       id="current-color-scheme-3"
       type="text/css">
      .ColorScheme-Text {
        color:#4d4d4d;
      }
      </style>
    <linearGradient
       inkscape:collect="always"
       xlink:href="#linearGradient838"
       id="linearGradient840"
       x1="424.71429"
       y1="536.79074"
       x2="440.71429"
       y2="536.79074"
       gradientUnits="userSpaceOnUse" />
  </defs>
  <g
     transform="matrix(2,0,0,2,-849.42858,-1057.5815)"
     id="start-here-kde">
    <path
       inkscape:connector-curvature="0"
       style="color:#4d4d4d;opacity:1;fill:url(#linearGradient840);fill-opacity:1;stroke:none"
       d="m 428.71429,528.79074 c -0.554,0 -1,0.446 -1,1 0,0.554 0.446,1 1,1 0.554,0 1,-0.446 1,-1 0,-0.554 -0.446,-1 -1,-1 z m 7,0 -2,2 3,3 -3,3 2,2 3,-3 2,-2 z m -9.5,6 c -0.831,0 -1.5,0.669 -1.5,1.5 0,0.831 0.669,1.5 1.5,1.5 0.831,0 1.5,-0.669 1.5,-1.5 0,-0.831 -0.669,-1.5 -1.5,-1.5 z m 4.5,6 c -1.108,0 -2,0.892 -2,2 0,1.108 0.892,2 2,2 1.108,0 2,-0.892 2,-2 0,-1.108 -0.892,-2 -2,-2 z"
       id="path3392"
       class="ColorScheme-Text" />
  </g>
</svg>
