<?xml version="1.0" encoding="UTF-8" standalone="no"?>
<svg
   width="31.999998"
   height="31.999998"
   viewBox="0 0 8.466666 8.4666664"
   version="1.1"
   id="svg847"
   inkscape:version="1.1 (c68e22c387, 2021-05-23)"
   sodipodi:docname="activities.svg"
   xmlns:inkscape="http://www.inkscape.org/namespaces/inkscape"
   xmlns:sodipodi="http://sodipodi.sourceforge.net/DTD/sodipodi-0.dtd"
   xmlns="http://www.w3.org/2000/svg"
   xmlns:svg="http://www.w3.org/2000/svg"
   xmlns:rdf="http://www.w3.org/1999/02/22-rdf-syntax-ns#"
   xmlns:cc="http://creativecommons.org/ns#"
   xmlns:dc="http://purl.org/dc/elements/1.1/">
  <defs
     id="defs841" />
  <sodipodi:namedview
     id="base"
     pagecolor="#ffffff"
     bordercolor="#000000"
     borderopacity="1"
     inkscape:pageopacity="0.0"
     inkscape:pageshadow="2"
     inkscape:zoom="11.313709"
     inkscape:cx="31.510445"
     inkscape:cy="15.46796"
     inkscape:document-units="px"
     inkscape:current-layer="layer1"
     inkscape:document-rotation="0"
     showgrid="false"
     units="px"
     inkscape:window-width="1920"
     inkscape:window-height="1007"
     inkscape:window-x="0"
     inkscape:window-y="0"
     inkscape:window-maximized="1"
     inkscape:snap-bbox="true"
     inkscape:bbox-nodes="true"
     inkscape:lockguides="true"
     inkscape:pagecheckerboard="0"
     inkscape:showpageshadow="false">
    <inkscape:grid
       type="xygrid"
       id="grid1410"
       originx="3.9999999e-07"
       originy="0" />
  </sodipodi:namedview>
  <metadata
     id="metadata844">
    <rdf:RDF>
      <cc:Work
         rdf:about="">
        <dc:format>image/svg+xml</dc:format>
        <dc:type
           rdf:resource="http://purl.org/dc/dcmitype/StillImage" />
      </cc:Work>
    </rdf:RDF>
    <style
       id="current-color-scheme" />
  </metadata>
  <g
     inkscape:label="Layer 1"
     inkscape:groupmode="layer"
     id="layer1">
    <g
       id="activities"
       style="fill:#d3dae3;fill-opacity:1">
      <rect
         y="0"
         x="0"
         height="8.4666662"
         width="8.4666662"
         id="rect1430"
         style="opacity:0.001;fill:#d3dae3;fill-opacity:0.01;stroke-width:0.529167" />
      <path
         stroke-width="0.198451"
         stroke-linecap="round"
         stroke-miterlimit="10"
         d="M 6.1846301,5.275129 V 3.1915441 c 0,-0.327423 -0.26789,-0.5953115 -0.59531,-0.5953115 H 2.9104236 c -0.3274214,0 -0.5953124,0.2678885 -0.5953124,0.5953115 V 5.275129 c 0,0.3274213 0.267891,0.5953105 0.5953124,0.5953105 h 2.6788965 c 0.32742,0 0.59531,-0.2678892 0.59531,-0.5953105 z M 3.0096419,5.5727848 c -0.2182803,0 -0.3968751,-0.1785935 -0.3968751,-0.3968737 V 3.290761 c 0,-0.2182797 0.1785948,-0.3968734 0.3968751,-0.3968734 h 2.48046 c 0.2182804,0 0.3968731,0.1785937 0.3968731,0.3968734 v 1.8851501 c 0,0.2182802 -0.1785927,0.3968737 -0.3968731,0.3968737 z"
         id="path10"
         style="fill:#d3dae3;fill-opacity:1;fill-rule:nonzero;stroke:#d3dae3;stroke-opacity:1" />
      <path
         stroke-width="0.198451"
         stroke-linecap="round"
         stroke-miterlimit="10"
         d="m 6.7138047,5.3147715 c 0.1190618,-0.014845 0.426639,-0.054569 0.5457011,-0.094259 0.1488278,-0.049606 0.1488278,-0.1488299 0.1488278,-0.1488299 0,0 0.049615,-0.3472641 0.049615,-0.8433544 0,-0.496093 -0.049615,-0.8433576 -0.049615,-0.8433576 0,0 0,-0.099212 -0.1488278,-0.1488293 C 7.1404487,3.1964596 6.8328666,3.1567536 6.7138047,3.1418756 Z"
         id="path12"
         style="fill:#d3dae3;fill-opacity:1;stroke:#d3dae3;stroke-opacity:1" />
      <path
         stroke-width="0.198451"
         stroke-linecap="round"
         stroke-miterlimit="10"
         d="M 1.7791975,5.3147569 C 1.6601394,5.2999029 1.352557,5.2601909 1.2334946,5.2205009 1.0846678,5.1708969 1.0846678,5.0716717 1.0846678,5.0716717 c 0,0 -0.049611,-0.3472646 -0.049611,-0.8433554 0,-0.4960928 0.049611,-0.8433575 0.049611,-0.8433575 0,0 0,-0.099212 0.1488268,-0.1488291 0.1190604,-0.039692 0.4266407,-0.07938 0.5457029,-0.094256 z"
         id="path14"
         style="fill:#d3dae3;fill-opacity:1;stroke:#d3dae3;stroke-opacity:1" />
    </g>
    <g
       id="22-22-activities"
       style="fill:#d3dae3;fill-opacity:1">
      <rect
         style="opacity:0.00100002;fill:#d3dae3;fill-opacity:0.01;stroke-width:0.363802"
         id="rect1430-3-7-5"
         width="5.8208323"
         height="5.8208323"
         x="8.4666681"
         y="2.6458333" />
      <path
         stroke-width="0.172369"
         stroke-linecap="round"
         stroke-miterlimit="10"
         d="M 13.05206,6.4611211 V 4.6513799 c 0,-0.2843905 -0.232688,-0.5170704 -0.517069,-0.5170704 h -2.326809 c -0.2843895,0 -0.5170739,0.2326799 -0.5170739,0.5170704 v 1.8097412 c 0,0.2843887 0.2326844,0.5170694 0.5170739,0.5170694 h 2.326809 c 0.284381,0 0.517069,-0.2326807 0.517069,-0.5170694 z m -2.7577,0.2585349 c -0.189591,0 -0.3447217,-0.1551208 -0.3447217,-0.3447128 V 4.737557 c 0,-0.1895919 0.1551307,-0.3447131 0.3447217,-0.3447131 h 2.154455 c 0.189592,0 0.34471,0.1551212 0.34471,0.3447131 v 1.6373862 c 0,0.189592 -0.155118,0.3447128 -0.34471,0.3447128 z"
         id="path10-3"
         style="fill:#d3dae3;fill-opacity:1;fill-rule:nonzero;stroke:#d3dae3;stroke-opacity:1" />
      <path
         stroke-width="0.172369"
         stroke-linecap="round"
         stroke-miterlimit="10"
         d="m 13.511684,6.4955534 c 0.103408,-0.012896 0.370569,-0.047396 0.473986,-0.081873 0.129267,-0.043086 0.129267,-0.1292695 0.129267,-0.1292695 0,0 0.04307,-0.3016229 0.04307,-0.7325128 0,-0.4308917 -0.04307,-0.7325158 -0.04307,-0.7325158 0,0 0,-0.086172 -0.129267,-0.129269 -0.103411,-0.034468 -0.370576,-0.068953 -0.473986,-0.081878 z"
         id="path12-6"
         style="fill:#d3dae3;fill-opacity:1;stroke:#d3dae3;stroke-opacity:1" />
      <path
         stroke-width="0.172369"
         stroke-linecap="round"
         stroke-miterlimit="10"
         d="M 9.2256233,6.4955406 C 9.1222169,6.4826397 8.8550613,6.4481453 8.7516499,6.4136747 8.6223829,6.3705905 8.6223829,6.2844055 8.6223829,6.2844055 c 0,0 -0.043072,-0.3016238 -0.043072,-0.7325135 0,-0.4308922 0.043072,-0.7325163 0.043072,-0.7325163 0,0 0,-0.086172 0.129267,-0.1292682 0.1034104,-0.034478 0.370565,-0.068946 0.4739734,-0.081869 z"
         id="path14-7"
         style="fill:#d3dae3;fill-opacity:1;stroke:#d3dae3;stroke-opacity:1" />
    </g>
  </g>
</svg>
