<?xml version="1.0" encoding="UTF-8" standalone="no"?>
<svg
   xmlns:dc="http://purl.org/dc/elements/1.1/"
   xmlns:cc="http://creativecommons.org/ns#"
   xmlns:rdf="http://www.w3.org/1999/02/22-rdf-syntax-ns#"
   xmlns:svg="http://www.w3.org/2000/svg"
   xmlns="http://www.w3.org/2000/svg"
   xmlns:sodipodi="http://sodipodi.sourceforge.net/DTD/sodipodi-0.dtd"
   xmlns:inkscape="http://www.inkscape.org/namespaces/inkscape"
   width="32"
   height="32"
   version="1.1"
   id="svg12"
   sodipodi:docname="akonadi.svg"
   inkscape:version="1.0.2 (e86c870879, 2021-01-15)">
  <metadata
     id="metadata18">
    <rdf:RDF>
      <cc:Work
         rdf:about="">
        <dc:format>image/svg+xml</dc:format>
        <dc:type
           rdf:resource="http://purl.org/dc/dcmitype/StillImage" />
      </cc:Work>
    </rdf:RDF>
  </metadata>
  <defs
     id="defs16" />
  <sodipodi:namedview
     pagecolor="#ffffff"
     bordercolor="#666666"
     borderopacity="1"
     objecttolerance="10"
     gridtolerance="10"
     guidetolerance="10"
     inkscape:pageopacity="0"
     inkscape:pageshadow="2"
     inkscape:window-width="1920"
     inkscape:window-height="1007"
     id="namedview14"
     showgrid="false"
     inkscape:zoom="9.8125"
     inkscape:cx="16.305206"
     inkscape:cy="11.784515"
     inkscape:window-x="0"
     inkscape:window-y="0"
     inkscape:window-maximized="1"
     inkscape:current-layer="svg12"
     inkscape:document-rotation="0"
     showguides="false">
    <inkscape:grid
       type="xygrid"
       id="grid894"
       originx="0"
       originy="-3.6363637e-07" />
  </sodipodi:namedview>
  <g
     id="akonadi">
    <path
       style="opacity:0.00100002"
       d="M 0,3.6363637e-7 H 32.000001 V 32.000001 H 0 Z"
       id="path7" />
    <path
       d="M 10.724698,6.618296 15.96129,3.9999996 21.197883,6.618296 15.96129,9.236592 Z m 6.967742,11.225808 5.236592,-2.618297 5.236593,2.618297 -5.236593,2.618296 z m 4.462399,-3.962349 -5.419355,2.709677 V 10.580645 L 22.154839,7.870967 Z M 15.187097,16.591432 9.767742,13.881755 V 7.870967 l 5.419355,2.709678 z m -5.419355,5.215021 5.419355,-2.709678 v 6.193549 l -5.419355,2.709677 z m -1.548387,0 v 6.193548 L 2.8,25.290324 v -6.193549 z m 15.483871,0 5.419355,-2.709678 v 6.193549 l -5.419355,2.709677 z m -1.548387,0 v 6.193548 L 16.735484,25.290324 V 19.096775 Z M 3.756956,17.844104 8.993548,15.225807 14.230141,17.844104 8.993548,20.4624 Z"
       id="path2-3"
       style="fill:#d3dae3;stroke-width:0.387097;fill-opacity:1" />
  </g>
  <g
     id="22-22-akonadi"
     transform="translate(32.000001,10.000001)">
    <path
       style="opacity:0.00100002"
       d="M 0,0 H 22 V 22 H 0 Z"
       id="path2" />
    <path
       d="M 7.583128,4.745526 11.074193,3 l 3.49106,1.745526 -3.49106,1.745539 z m 4.645165,7.483875 3.491058,-1.745528 3.49107,1.745528 -3.49107,1.745531 z m 2.974934,-2.641566 -3.612909,1.806453 V 7.3871 l 3.612909,-1.806453 z m -4.645168,1.806453 -3.6129,-1.806453 V 5.580647 l 3.6129,1.806453 z m -3.6129,3.47668 3.6129,-1.806449 v 4.12903 L 6.945159,19 Z m -1.03226,0 V 19 L 2.3,17.193549 v -4.12903 z m 10.322582,0 3.612908,-1.806449 v 4.12903 L 16.235481,19 Z m -1.032254,0 V 19 l -3.612909,-1.806451 v -4.12903 z M 2.937972,12.229401 6.429037,10.483873 9.920091,12.229401 6.429037,13.974932 Z"
       id="path2-3-3"
       style="fill:#d3dae3;stroke-width:0.258059;fill-opacity:1" />
  </g>
</svg>
