<?xml version="1.0" encoding="UTF-8" standalone="no"?>
<svg
   xmlns:dc="http://purl.org/dc/elements/1.1/"
   xmlns:cc="http://creativecommons.org/ns#"
   xmlns:rdf="http://www.w3.org/1999/02/22-rdf-syntax-ns#"
   xmlns:svg="http://www.w3.org/2000/svg"
   xmlns="http://www.w3.org/2000/svg"
   xmlns:xlink="http://www.w3.org/1999/xlink"
   xmlns:sodipodi="http://sodipodi.sourceforge.net/DTD/sodipodi-0.dtd"
   xmlns:inkscape="http://www.inkscape.org/namespaces/inkscape"
   width="32"
   height="32"
   version="1.1"
   id="svg12"
   sodipodi:docname="akregator.svg"
   inkscape:version="1.0.2 (e86c870879, 2021-01-15)">
  <metadata
     id="metadata18">
    <rdf:RDF>
      <cc:Work
         rdf:about="">
        <dc:format>image/svg+xml</dc:format>
        <dc:type
           rdf:resource="http://purl.org/dc/dcmitype/StillImage" />
      </cc:Work>
    </rdf:RDF>
  </metadata>
  <defs
     id="defs16">
    <linearGradient
       inkscape:collect="always"
       xlink:href="#linearGradient855"
       id="linearGradient873"
       x1="3.0619521"
       y1="16.631489"
       x2="8.1415768"
       y2="16.631489"
       gradientUnits="userSpaceOnUse"
       gradientTransform="matrix(1.3750003,0,0,1.3750003,-31.210187,-9.3848437)" />
    <linearGradient
       inkscape:collect="always"
       id="linearGradient855">
      <stop
         style="stop-color:#00cccc;stop-opacity:1"
         offset="0"
         id="stop851" />
      <stop
         style="stop-color:#008080;stop-opacity:1"
         offset="1"
         id="stop853" />
    </linearGradient>
  </defs>
  <sodipodi:namedview
     pagecolor="#ffffff"
     bordercolor="#666666"
     borderopacity="1"
     objecttolerance="10"
     gridtolerance="10"
     guidetolerance="10"
     inkscape:pageopacity="0"
     inkscape:pageshadow="2"
     inkscape:window-width="1920"
     inkscape:window-height="1007"
     id="namedview14"
     showgrid="false"
     inkscape:zoom="9.8125003"
     inkscape:cx="32.697145"
     inkscape:cy="12.273071"
     inkscape:window-x="0"
     inkscape:window-y="0"
     inkscape:window-maximized="1"
     inkscape:current-layer="svg12"
     inkscape:document-rotation="0">
    <inkscape:grid
       type="xygrid"
       id="grid894"
       originx="0"
       originy="-2.7795411e-07" />
  </sodipodi:namedview>
  <g
     id="akregator">
    <rect
       style="opacity:0.00100002"
       width="32"
       height="32"
       x="0"
       y="2.7795411e-07"
       id="rect7" />
    <path
       inkscape:connector-curvature="0"
       style="fill:#d3dae3;fill-opacity:1;stroke:none;stroke-width:1.375"
       d="M 6.375,5 C 5.615608,5 5,5.6156084 5,6.375 5,7.1343916 5.615608,7.75 6.375,7.75 16.247082,7.75 24.25,15.752918 24.25,25.625 24.25,26.384394 24.865606,27 25.625,27 26.384394,27 27,26.384394 27,25.625 27,14.234126 17.765874,5 6.375,5 Z m 0,5.5 C 5.615608,10.5 5,11.115608 5,11.875 c 0,0.759391 0.615608,1.375 1.375,1.375 6.834523,0 12.375,5.540477 12.375,12.375 0,0.759394 0.615606,1.375 1.375,1.375 C 20.884394,27 21.5,26.384394 21.5,25.625 21.5,17.27169 14.72831,10.5 6.375,10.5 Z m 0,5.5 C 5.615608,16 5,16.615606 5,17.375 c 0,0.759394 0.615608,1.375 1.375,1.375 3.796958,0 6.875,3.078036 6.875,6.875 0,0.759394 0.615606,1.375 1.375,1.375 C 15.384394,27 16,26.384394 16,25.625 16,20.309265 11.690741,16 6.375,16 Z M 7.75,21.5 C 6.231217,21.5 5,22.731213 5,24.25 5,25.768787 6.231217,27 7.75,27 9.268783,27 10.5,25.768787 10.5,24.25 10.5,22.731213 9.268783,21.5 7.75,21.5 Z"
       id="path2997" />
  </g>
  <g
     id="22-22-akregator"
     transform="translate(32,10.000006)">
    <rect
       style="opacity:0.00100002"
       width="22"
       height="22"
       x="0"
       y="-2.7795411e-07"
       id="rect2" />
    <path
       inkscape:connector-curvature="0"
       style="fill:#d3dae3;fill-opacity:1;stroke:none;stroke-width:1"
       d="m 4,2.999994 c -0.55228,0 -1,0.44772 -1,1 0,0.55228 0.44772,1 1,1 7.179702,0 13,5.820302 13,13 0,0.552286 0.447719,1 1,1 0.552281,0 1,-0.447714 1,-1 0,-8.284274 -6.715728,-15 -15,-15 z m 0,4 c -0.55228,0 -1,0.44772 -1,1 0,0.55228 0.44772,1 1,1 4.970563,0 9,4.029437 9,9 0,0.552286 0.447719,1 1,1 0.552281,0 1,-0.447714 1,-1 0,-6.075134 -4.924871,-11 -11,-11 z m 0,4 c -0.55228,0 -1,0.447716 -1,1 0,0.552286 0.44772,1 1,1 2.761418,0 5,2.238572 5,5 0,0.552286 0.447719,1 1,1 0.552281,0 1,-0.447714 1,-1 0,-3.865989 -3.134,-7 -7,-7 z m 1,4 c -1.104562,0 -2,0.895428 -2,2 0,1.104572 0.895438,2 2,2 1.104562,0 2,-0.895428 2,-2 0,-1.104572 -0.895438,-2 -2,-2 z"
       id="path2997-3" />
  </g>
</svg>
