<?xml version="1.0" encoding="UTF-8" standalone="no"?>
<svg
   xmlns:dc="http://purl.org/dc/elements/1.1/"
   xmlns:cc="http://creativecommons.org/ns#"
   xmlns:rdf="http://www.w3.org/1999/02/22-rdf-syntax-ns#"
   xmlns:svg="http://www.w3.org/2000/svg"
   xmlns="http://www.w3.org/2000/svg"
   xmlns:sodipodi="http://sodipodi.sourceforge.net/DTD/sodipodi-0.dtd"
   xmlns:inkscape="http://www.inkscape.org/namespaces/inkscape"
   width="32"
   height="32"
   version="1.1"
   id="svg12"
   sodipodi:docname="amarok.svg"
   inkscape:version="1.0.2 (e86c870879, 2021-01-15)">
  <metadata
     id="metadata18">
    <rdf:RDF>
      <cc:Work
         rdf:about="">
        <dc:format>image/svg+xml</dc:format>
        <dc:type
           rdf:resource="http://purl.org/dc/dcmitype/StillImage" />
      </cc:Work>
    </rdf:RDF>
  </metadata>
  <defs
     id="defs16" />
  <sodipodi:namedview
     pagecolor="#ffffff"
     bordercolor="#666666"
     borderopacity="1"
     objecttolerance="10"
     gridtolerance="10"
     guidetolerance="10"
     inkscape:pageopacity="0"
     inkscape:pageshadow="2"
     inkscape:window-width="1920"
     inkscape:window-height="1007"
     id="namedview14"
     showgrid="false"
     inkscape:zoom="9.8125"
     inkscape:cx="16.447243"
     inkscape:cy="10.834302"
     inkscape:window-x="0"
     inkscape:window-y="0"
     inkscape:window-maximized="1"
     inkscape:current-layer="svg12"
     inkscape:document-rotation="0"
     inkscape:lockguides="false">
    <inkscape:grid
       type="xygrid"
       id="grid889"
       originx="32"
       originy="10.000001" />
  </sodipodi:namedview>
  <g
     id="amarok"
     transform="translate(32,10.000001)">
    <path
       style="opacity:0.00100002"
       d="M -32,-10.000001 V 22 H 0 v -32.000001 z"
       id="path7" />
    <path
       d="m -15.701172,-5.998 c -6.627412,0 -12,5.372588 -12,12 0,6.627415 5.372588,12 12,12 6.627412,0 12,-5.372585 12,-12 0,-6.627412 -5.372588,-12 -12,-12 z m 0,1.2 c 5.964678,0 10.8,4.835322 10.8,10.8 0,4.761749 -3.072242,8.800837 -7.35,10.237501 -0.296925,-1.209735 -0.975018,-4.512564 -0.337495,-6.674996 0.557595,-1.891396 2.109086,-2.081291 3.262504,-2.887514 1.2314,-0.860728 1.452032,-1.712744 1.05,-2.137496 -0.502454,-0.530834 -0.776366,-0.02534 -1.35,0.112517 -0.573653,0.137923 -1.553006,0.273752 -1.687514,0.15 -0.800168,-0.736189 1.612505,-2.362499 1.612505,-3.562499 0,-1.2 0.0098,-1.98044 -0.787495,-2.137501 -0.797917,-0.157061 -3.834392,2.911259 -4.612505,3.412505 -1.024083,0.659674 -0.711619,-0.195225 -2.287495,0.187495 -1.919553,0.466176 -2.805307,1.616777 -4.237496,2.737501 -0.716102,0.560362 -1.436745,0.54346 -2.437514,0.825004 -0.569318,0.160155 -1.795419,0.795241 -1.837495,1.274996 -0.0731,0.833795 2.411195,1.343917 2.662505,2.512499 0.187766,0.873158 -0.706458,1.757139 -1.27501,2.212504 -1.257919,-1.765778 -1.987495,-3.929291 -1.987495,-6.262504 0,-5.964678 4.835323,-10.8 10.8,-10.8 z"
       id="path15048"
       style="display:inline;fill:#d3dae3;fill-opacity:1;stroke:none;stroke-width:1.2" />
    <path
       d="m -19.789843,6.995531 c -0.454714,-0.216965 0.188532,-1.845023 1.230009,-2.606088 1.041458,-0.761067 2.413304,-1.008242 2.603651,-0.721011 0.657357,0.991901 -0.465607,1.248687 -1.924992,2.101804 -1.491466,0.871864 -1.453978,1.44226 -1.908668,1.225295 z"
       id="path15823"
       style="display:inline;fill:#4b8bd4;fill-opacity:1;stroke:none;stroke-width:1.2" />
  </g>
  <g
     id="22-22-amarok"
     transform="translate(32,10.000001)">
    <path
       style="opacity:0.00100002"
       d="M 0,0 V 22 H 22 V 0 Z"
       id="path4" />
    <path
       d="m 10.957,3 c -4.418278,0 -8,3.581722 -8,8 0,4.418277 3.581722,8 8,8 4.418278,0 8,-3.581723 8,-8 0,-4.418278 -3.581722,-8 -8,-8 z m 0,0.8 c 3.976452,0 7.2,3.223548 7.2,7.2 0,3.174498 -2.048162,5.867224 -4.9,6.825001 -0.197951,-0.80649 -0.650007,-3.008376 -0.225001,-4.45 0.371739,-1.260931 1.406058,-1.387528 2.175001,-1.925002 0.820943,-0.573819 0.968023,-1.141832 0.7,-1.424998 -0.334965,-0.353889 -0.517575,-0.01692 -0.9,0.07499 -0.382426,0.09194 -1.035335,0.182499 -1.124999,0.1 C 13.348553,9.7091974 14.957,8.6249924 14.957,7.8249924 c 0,-0.8 0.007,-1.320288 -0.525001,-1.425001 C 13.90006,6.2952794 11.875745,8.3408304 11.357,8.6749904 10.674277,9.1147834 10.882583,8.5448504 9.831999,8.7999914 8.552297,9.1107814 7.961798,9.877838 7.007,10.624992 6.529601,10.998573 6.04918,10.987298 5.382001,11.174993 5.002457,11.281769 4.185054,11.705157 4.157,12.024993 4.10826,12.580859 5.764457,12.920936 5.931999,13.69999 6.057183,14.282097 5.461033,14.871417 5.082001,15.174994 4.24338,13.997811 3.757,12.555464 3.757,10.99999 c 0,-3.9764486 3.223549,-7.1999986 7.2,-7.1999996 z"
       id="path15048-3"
       style="display:inline;fill:#d3dae3;fill-opacity:1;stroke:none;stroke-width:0.8" />
    <path
       d="M 8.231217,11.662351 C 7.928081,11.517708 8.356913,10.43234 9.05122,9.924963 9.745534,9.41758 10.6601,9.252801 10.787,9.444286 c 0.438237,0.661267 -0.310407,0.832455 -1.283341,1.401207 -0.994302,0.581244 -0.969308,0.961502 -1.272442,0.816858 z"
       id="path15823-6"
       style="display:inline;fill:#4b8bd4;fill-opacity:1;stroke:none;stroke-width:0.8" />
  </g>
</svg>
