<?xml version="1.0" encoding="UTF-8" standalone="no"?>
<svg
   version="1.1"
   id="svg2"
   viewBox="0 0 32 32"
   inkscape:version="1.1 (c68e22c387, 2021-05-23)"
   sodipodi:docname="apport.svg"
   width="32"
   height="32"
   xmlns:inkscape="http://www.inkscape.org/namespaces/inkscape"
   xmlns:sodipodi="http://sodipodi.sourceforge.net/DTD/sodipodi-0.dtd"
   xmlns="http://www.w3.org/2000/svg"
   xmlns:svg="http://www.w3.org/2000/svg"
   xmlns:rdf="http://www.w3.org/1999/02/22-rdf-syntax-ns#"
   xmlns:cc="http://creativecommons.org/ns#"
   xmlns:dc="http://purl.org/dc/elements/1.1/">
  <sodipodi:namedview
     pagecolor="#ffffff"
     bordercolor="#000000"
     borderopacity="1"
     objecttolerance="10"
     gridtolerance="10"
     guidetolerance="10"
     inkscape:pageopacity="0"
     inkscape:pageshadow="2"
     inkscape:window-width="1920"
     inkscape:window-height="1007"
     id="namedview12"
     showgrid="false"
     inkscape:zoom="7.375"
     inkscape:cx="30.033898"
     inkscape:cy="19.389831"
     inkscape:window-x="0"
     inkscape:window-y="0"
     inkscape:window-maximized="1"
     inkscape:current-layer="svg2"
     inkscape:document-rotation="0"
     inkscape:lockguides="true"
     inkscape:pagecheckerboard="0"
     inkscape:showpageshadow="false">
    <inkscape:grid
       type="xygrid"
       id="grid851"
       originx="0"
       originy="0" />
  </sodipodi:namedview>
  <metadata
     id="metadata18">
    <rdf:RDF>
      <cc:Work
         rdf:about="">
        <dc:format>image/svg+xml</dc:format>
        <dc:type
           rdf:resource="http://purl.org/dc/dcmitype/StillImage" />
      </cc:Work>
    </rdf:RDF>
  </metadata>
  <defs
     id="defs3051">
    <style
       id="current-color-scheme"
       type="text/css" />
  </defs>
  <g
     id="apport"
     transform="translate(-22,10)">
    <path
       id="path14"
       d="M 22,-10 V 22 H 54 V -10 Z"
       style="fill:none" />
    <path
       d="m 42.498032,-3.4403361 a 5.1203596,5.1203596 0 0 0 -8.86826,2.3e-4 L 25.686115,10.319615 A 5.1200778,5.1200778 0 0 0 30.119776,18 h 15.888749 a 5.1203131,5.1203131 0 0 0 4.43414,-7.679906 z m 7.001127,18.3356581 a 3.9882769,3.9882769 0 0 1 -3.490634,2.015582 H 30.119776 a 4.0309406,4.0309406 0 0 1 -3.490631,-6.0465 L 34.57304,-2.8955671 a 4.0312689,4.0312689 0 0 1 6.981956,-1.07e-4 l 7.944392,13.7603081 a 3.9875971,3.9875971 0 0 1 -2.29e-4,4.030688 z"
       id="path4"
       style="fill:#d3dae3;fill-opacity:1;stroke-width:0.290506" />
    <path
       d="m 40.611882,-2.3510101 a 2.9419777,2.9419777 0 0 0 -5.095481,0 L 27.572088,11.409112 a 2.9419167,2.9419167 0 0 0 2.54774,4.412756 h 15.888627 a 2.9419167,2.9419167 0 0 0 2.547741,-4.412756 z m -2.54774,15.8174361 a 1.1620252,1.1620252 0 1 1 1.162025,-1.162026 1.1620252,1.1620252 0 0 1 -1.162025,1.162026 z m 1.162025,-5.288604 a 1.1620252,1.1620252 0 0 1 -2.32405,0 V 1.42355 a 1.1620252,1.1620252 0 0 1 2.32405,0 z"
       id="path6"
       style="fill:#d3dae3;fill-opacity:1;stroke-width:0.290506" />
  </g>
  <g
     id="22-22-apport"
     transform="translate(-22,10)">
    <path
       id="path9"
       d="M 0,0 V 22 H 22 V 0 Z"
       style="fill:none" />
    <path
       d="m 13.965358,4.7064453 a 3.4135723,3.4135723 0 0 0 -5.9121763,1.54e-4 L 2.7574097,13.879746 A 3.4133838,3.4133838 0 0 0 5.7131867,19 H 16.305678 a 3.4135418,3.4135418 0 0 0 2.956103,-5.119935 z m 4.667411,12.2237687 a 2.6588508,2.6588508 0 0 1 -2.327091,1.343729 H 5.7131867 a 2.6872931,2.6872931 0 0 1 -2.327083,-4.031004 l 5.29592,-9.1733137 a 2.6875118,2.6875118 0 0 1 4.6546403,-7.2e-5 l 5.296256,9.1735387 a 2.6583971,2.6583971 0 0 1 -1.51e-4,2.687122 z"
       id="path4-3"
       style="stroke-width:0.193675;fill:#d3dae3;fill-opacity:1" />
    <path
       d="m 12.707918,5.4326633 a 1.9613185,1.9613185 0 0 0 -3.3969853,0 l -5.296205,9.1734117 a 1.9612772,1.9612772 0 0 0 1.698488,2.941844 H 16.305635 a 1.9612772,1.9612772 0 0 0 1.698491,-2.941844 z M 11.009419,15.977621 a 0.77468339,0.77468339 0 1 1 0.774691,-0.774686 0.77468339,0.77468339 0 0 1 -0.774691,0.774686 z m 0.774691,-3.525738 a 0.77468339,0.77468339 0 0 1 -1.549366,0 V 7.9490353 a 0.77468339,0.77468339 0 0 1 1.549366,0 z"
       id="path6-6"
       style="fill:#d3dae3;stroke-width:0.193675;fill-opacity:1" />
  </g>
</svg>
