<?xml version="1.0" encoding="UTF-8" standalone="no"?>
<svg
   xmlns:dc="http://purl.org/dc/elements/1.1/"
   xmlns:cc="http://creativecommons.org/ns#"
   xmlns:rdf="http://www.w3.org/1999/02/22-rdf-syntax-ns#"
   xmlns:svg="http://www.w3.org/2000/svg"
   xmlns="http://www.w3.org/2000/svg"
   xmlns:sodipodi="http://sodipodi.sourceforge.net/DTD/sodipodi-0.dtd"
   xmlns:inkscape="http://www.inkscape.org/namespaces/inkscape"
   width="32"
   height="32"
   version="1.1"
   id="svg12"
   sodipodi:docname="audacious.svg"
   inkscape:version="1.0.2 (e86c870879, 2021-01-15)">
  <metadata
     id="metadata18">
    <rdf:RDF>
      <cc:Work
         rdf:about="">
        <dc:format>image/svg+xml</dc:format>
        <dc:type
           rdf:resource="http://purl.org/dc/dcmitype/StillImage" />
        <dc:title />
      </cc:Work>
    </rdf:RDF>
  </metadata>
  <defs
     id="defs16" />
  <sodipodi:namedview
     pagecolor="#ffffff"
     bordercolor="#000000"
     borderopacity="1"
     objecttolerance="10"
     gridtolerance="10"
     guidetolerance="10"
     inkscape:pageopacity="0"
     inkscape:pageshadow="2"
     inkscape:window-width="1920"
     inkscape:window-height="1007"
     id="namedview14"
     showgrid="false"
     inkscape:zoom="9.8125"
     inkscape:cx="27.133792"
     inkscape:cy="15.080187"
     inkscape:window-x="0"
     inkscape:window-y="0"
     inkscape:window-maximized="1"
     inkscape:current-layer="svg12"
     inkscape:lockguides="false"
     inkscape:document-rotation="0"
     inkscape:showpageshadow="false">
    <inkscape:grid
       type="xygrid"
       id="grid882"
       originx="-1.1457672e-06"
       originy="-3.8418579e-08" />
  </sodipodi:namedview>
  <g
     id="audacious">
    <rect
       style="opacity:0.00100002"
       width="32"
       height="32"
       x="0"
       y="0"
       id="rect7" />
    <path
       style="color:#31363b;fill:none;fill-opacity:1;stroke:#d3dae3;stroke-width:1.6038;stroke-linecap:round;stroke-miterlimit:4;stroke-dasharray:none;stroke-opacity:1;stop-color:#31363b"
       class="ColorScheme-Text"
       sodipodi:type="arc"
       sodipodi:cx="-15.999634"
       sodipodi:cy="-15.998841"
       sodipodi:rx="11.200035"
       sodipodi:ry="11.200035"
       sodipodi:start="4.2664334"
       sodipodi:end="3.7574109"
       sodipodi:open="true"
       sodipodi:arc-type="arc"
       transform="scale(-1)"
       d="M -20.830435,-26.103501 A 11.200035,11.200035 0 0 1 -6.5897701,-22.072987 11.200035,11.200035 0 0 1 -8.7803749,-7.4359512 11.200035,11.200035 0 0 1 -23.57707,-7.7512206 11.200035,11.200035 0 0 1 -25.142235,-22.46828"
       id="path7" />
    <path
       d="m 20.724999,9.7 v 2.1735 C 19.570531,10.552075 17.891581,9.7 15.999999,9.7 c -3.479168,0 -6.3000001,2.820825 -6.3000001,6.3 0,3.479175 2.8208321,6.3 6.3000001,6.3 1.891582,0 3.570532,-0.852075 4.725,-2.1735 V 22.3 h 1.575 V 9.7 Z m -4.725,9.45 c -1.7388,0 -3.15,-1.4112 -3.15,-3.15 0,-1.7388 1.4112,-3.15 3.15,-3.15 1.737232,0 3.15,1.4112 3.15,3.15 0,1.7388 -1.412768,3.15 -3.15,3.15 z"
       id="path4-3"
       style="fill:#d3dae3;fill-opacity:1;stroke-width:1.575" />
  </g>
  <g
     id="22-22-audacious"
     transform="translate(32,10.000001)">
    <rect
       style="opacity:0.00100002"
       width="22"
       height="22"
       x="0"
       y="0"
       id="rect2" />
    <path
       style="color:#31363b;fill:none;fill-opacity:1;stroke:#d3dae3;stroke-width:1.06921;stroke-linecap:round;stroke-miterlimit:4;stroke-dasharray:none;stroke-opacity:1;stop-color:#31363b"
       class="ColorScheme-Text"
       sodipodi:type="arc"
       sodipodi:cx="-10.999757"
       sodipodi:cy="-10.999228"
       sodipodi:rx="7.4666848"
       sodipodi:ry="7.4666848"
       sodipodi:start="4.2664334"
       sodipodi:end="3.7574109"
       sodipodi:open="true"
       sodipodi:arc-type="arc"
       transform="scale(-1)"
       d="m -14.220289,-17.735662 a 7.4666848,7.4666848 0 0 1 9.4937702,2.687007 7.4666848,7.4666848 0 0 1 -1.4604021,9.7580169 7.4666848,7.4666848 0 0 1 -9.8644561,-0.2101795 7.4666848,7.4666848 0 0 1 -1.043443,-9.8113664"
       id="path12" />
    <path
       d="M 14.150016,6.8000015 V 8.2490014 C 13.380375,7.368052 12.261071,6.8000015 11.000024,6.8000015 c -2.3194467,0 -4.1999997,1.88055 -4.1999997,4.1999985 0,2.319449 1.880553,4.199999 4.1999997,4.199999 1.261047,0 2.380351,-0.56805 3.149992,-1.448999 v 1.448999 h 1.050006 V 6.8000015 Z m -3.149992,6.2999975 c -1.1591997,0 -2.0999997,-0.9408 -2.0999997,-2.099999 0,-1.1591995 0.9408,-2.0999989 2.0999997,-2.0999989 1.15815,0 2.099997,0.9407994 2.099997,2.0999989 0,1.159199 -0.941847,2.099999 -2.099997,2.099999 z"
       id="path4-3-3"
       style="fill:#d3dae3;fill-opacity:1;stroke-width:1.05002" />
  </g>
</svg>
