<?xml version="1.0" encoding="UTF-8" standalone="no"?>
<svg
   xmlns:dc="http://purl.org/dc/elements/1.1/"
   xmlns:cc="http://creativecommons.org/ns#"
   xmlns:rdf="http://www.w3.org/1999/02/22-rdf-syntax-ns#"
   xmlns:svg="http://www.w3.org/2000/svg"
   xmlns="http://www.w3.org/2000/svg"
   xmlns:sodipodi="http://sodipodi.sourceforge.net/DTD/sodipodi-0.dtd"
   xmlns:inkscape="http://www.inkscape.org/namespaces/inkscape"
   id="svg50"
   width="32"
   height="32"
   version="1.1"
   sodipodi:docname="audio.svg"
   inkscape:version="1.0.2 (e86c870879, 2021-01-15)">
  <metadata
     id="metadata67">
    <rdf:RDF>
      <cc:Work
         rdf:about="">
        <dc:format>image/svg+xml</dc:format>
        <dc:type
           rdf:resource="http://purl.org/dc/dcmitype/StillImage" />
      </cc:Work>
    </rdf:RDF>
  </metadata>
  <defs
     id="defs65" />
  <sodipodi:namedview
     pagecolor="#ffffff"
     bordercolor="#666666"
     borderopacity="1"
     objecttolerance="10"
     gridtolerance="10"
     guidetolerance="10"
     inkscape:pageopacity="0"
     inkscape:pageshadow="2"
     inkscape:window-width="1920"
     inkscape:window-height="1007"
     id="namedview63"
     showgrid="false"
     inkscape:zoom="3.4692426"
     inkscape:cx="59.055092"
     inkscape:cy="3.5935953"
     inkscape:window-x="0"
     inkscape:window-y="0"
     inkscape:window-maximized="1"
     inkscape:current-layer="svg50"
     inkscape:document-rotation="0"
     inkscape:lockguides="false">
    <inkscape:grid
       type="xygrid"
       id="grid902"
       originx="96.000003"
       originy="0" />
  </sodipodi:namedview>
  <g
     id="audio-volume-high">
    <path
       style="opacity:0.00100002"
       d="M 0,0 H 32.000001 V 32.000001 H 0 Z"
       id="path2" />
    <path
       d="M 3.647137,22.09737 H 6.846689 V 10.40263 H 3.647137 A 2.1531435,2.1531435 0 0 0 1.494,12.55579 v 7.38842 a 2.1531435,2.1531435 0 0 0 2.153137,2.15316 z"
       id="path4-3"
       style="fill:#d3dae3;fill-opacity:1;stroke-width:0.324324" />
    <path
       d="m 8.166314,22.09737 8.919893,5.986845 A 0.97692815,0.97692815 0 0 0 17.630692,28.25 h 0.193336 a 0.78367981,0.78367981 0 0 0 0.78367,-0.78367 V 5.03367 A 0.78367981,0.78367981 0 0 0 17.824028,4.25 h -0.19332 A 0.97692815,0.97692815 0 0 0 17.086223,4.415785 L 8.166314,10.40263 Z"
       id="path6"
       style="fill:#d3dae3;fill-opacity:1;stroke-width:0.324324" />
    <path
       d="m 21.248293,20.429979 0.01437,0.01437 a 0.80575977,0.80575977 0 0 0 1.125235,0.01354 5.8000187,5.8000187 0 0 0 8.4e-5,-8.416637 0.80491329,0.80491329 0 0 0 -1.122355,0.01044 l -0.01745,0.01745 a 0.80253275,0.80253275 0 0 0 0.02856,1.154505 4.1751565,4.1751565 0 0 1 1.5e-4,6.051574 0.8027014,0.8027014 0 0 0 -0.02859,1.154755 z"
       id="path8"
       style="fill:#d3dae3;fill-opacity:1;stroke-width:0.324324" />
    <path
       d="m 23.550107,9.767182 -0.01273,0.01273 a 0.79285817,0.79285817 0 0 0 0.0023,1.131128 7.3952994,7.3952994 0 0 1 4.8e-4,10.678465 0.79284844,0.79284844 0 0 0 -0.0017,1.130612 l 0.01278,0.01278 a 0.79779438,0.79779438 0 0 0 1.11535,0.01739 9.0031638,9.0031638 0 0 0 -0.0016,-13.00098 0.79779763,0.79779763 0 0 0 -1.11486,0.01788 z"
       id="path10"
       style="fill:#d3dae3;fill-opacity:1;stroke-width:0.324324" />
    <path
       d="m 25.843258,7.474051 -0.01478,0.01478 a 0.80034681,0.80034681 0 0 0 0.01506,1.141944 10.633069,10.633069 0 0 1 0.0016,15.240407 0.8003014,0.8003014 0 0 0 -0.01434,1.141234 l 0.01483,0.01483 a 0.80215978,0.80215978 0 0 0 1.125537,0.0085 12.248931,12.248931 0 0 0 -0.003,-17.570751 0.80217924,0.80217924 0 0 0 -1.124936,0.0091 z"
       id="path12-6"
       style="fill:#d3dae3;fill-opacity:1;stroke-width:0.324324" />
  </g>
  <g
     id="audio-volume-medium">
    <g
       id="g1252">
      <path
         style="opacity:0.00100002"
         d="M 32.000001,0 H 64.000002 V 32.000001 H 32.000001 Z"
         id="path31" />
      <path
         d="M 35.747138,22.09737 H 38.94669 V 10.40263 h -3.199552 a 2.1531435,2.1531435 0 0 0 -2.153137,2.15316 v 7.38842 a 2.1531435,2.1531435 0 0 0 2.153137,2.15316 z"
         id="path4"
         style="fill:#d3dae3;fill-opacity:1;stroke-width:0.324324" />
      <path
         d="m 40.266315,22.09737 8.919893,5.986845 A 0.97692815,0.97692815 0 0 0 49.730693,28.25 h 0.193336 a 0.78367981,0.78367981 0 0 0 0.78367,-0.78367 V 5.03367 A 0.78367981,0.78367981 0 0 0 49.924029,4.25 h -0.19332 a 0.97692815,0.97692815 0 0 0 -0.544485,0.165785 l -8.919909,5.986845 z"
         id="path6-7"
         style="fill:#d3dae3;fill-opacity:1;stroke-width:0.324324" />
      <path
         d="m 53.348294,20.429979 0.01437,0.01437 a 0.80575977,0.80575977 0 0 0 1.125235,0.01354 5.8000187,5.8000187 0 0 0 8.4e-5,-8.416637 0.80491329,0.80491329 0 0 0 -1.122355,0.01044 l -0.01745,0.01745 a 0.80253275,0.80253275 0 0 0 0.02856,1.154505 4.1751565,4.1751565 0 0 1 1.5e-4,6.051574 0.8027014,0.8027014 0 0 0 -0.02859,1.154755 z"
         id="path8-5"
         style="fill:#d3dae3;fill-opacity:1;stroke-width:0.324324" />
      <path
         d="m 55.650108,9.767182 -0.01273,0.01273 a 0.79285817,0.79285817 0 0 0 0.0023,1.131128 7.3952994,7.3952994 0 0 1 4.8e-4,10.678465 0.79284844,0.79284844 0 0 0 -0.0017,1.130612 l 0.01278,0.01278 a 0.79779438,0.79779438 0 0 0 1.11535,0.01739 9.0031638,9.0031638 0 0 0 -0.0016,-13.00098 0.79779763,0.79779763 0 0 0 -1.11486,0.01788 z"
         id="path10-3"
         style="fill:#d3dae3;fill-opacity:1;stroke-width:0.324324" />
      <path
         d="m 57.943259,7.474051 -0.01478,0.01478 a 0.80034681,0.80034681 0 0 0 0.01506,1.141944 10.633069,10.633069 0 0 1 0.0016,15.240407 0.8003014,0.8003014 0 0 0 -0.01434,1.141234 l 0.01483,0.01483 a 0.80215978,0.80215978 0 0 0 1.125537,0.0085 12.248931,12.248931 0 0 0 -0.003,-17.570751 0.80217924,0.80217924 0 0 0 -1.124936,0.0091 z"
         id="path12-5"
         style="opacity:0.4;fill:#d3dae3;fill-opacity:1;stroke-width:0.324324" />
    </g>
  </g>
  <g
     id="audio-volume-low">
    <g
       id="g1270">
      <path
         style="opacity:0.00100002"
         d="M 64.000002,0 H 96.000003 V 32.000001 H 64.000002 Z"
         id="path38" />
      <path
         d="m 67.594139,22.09737 h 3.199552 V 10.40263 h -3.199552 a 2.1531435,2.1531435 0 0 0 -2.153137,2.15316 v 7.38842 a 2.1531435,2.1531435 0 0 0 2.153137,2.15316 z"
         id="path4-6"
         style="fill:#d3dae3;fill-opacity:1;stroke-width:0.324324" />
      <path
         d="m 72.113316,22.09737 8.919893,5.986845 A 0.97692815,0.97692815 0 0 0 81.577694,28.25 H 81.77103 A 0.78367981,0.78367981 0 0 0 82.5547,27.46633 V 5.03367 A 0.78367981,0.78367981 0 0 0 81.77103,4.25 h -0.19332 a 0.97692815,0.97692815 0 0 0 -0.544485,0.165785 l -8.919909,5.986845 z"
         id="path6-2"
         style="fill:#d3dae3;fill-opacity:1;stroke-width:0.324324" />
      <path
         d="m 85.195295,20.429979 0.01437,0.01437 a 0.80575977,0.80575977 0 0 0 1.125235,0.01354 5.8000187,5.8000187 0 0 0 8.4e-5,-8.416637 0.80491329,0.80491329 0 0 0 -1.122355,0.01044 l -0.01745,0.01745 a 0.80253275,0.80253275 0 0 0 0.02856,1.154505 4.1751565,4.1751565 0 0 1 1.5e-4,6.051574 0.8027014,0.8027014 0 0 0 -0.02859,1.154755 z"
         id="path8-9"
         style="opacity:0.4;fill:#d3dae3;fill-opacity:1;stroke-width:0.324324" />
      <path
         d="m 87.497109,9.767182 -0.01273,0.01273 a 0.79285817,0.79285817 0 0 0 0.0023,1.131128 7.3952994,7.3952994 0 0 1 4.8e-4,10.678465 0.79284844,0.79284844 0 0 0 -0.0017,1.130612 l 0.01278,0.01278 a 0.79779438,0.79779438 0 0 0 1.11535,0.01739 9.0031638,9.0031638 0 0 0 -0.0016,-13.00098 0.79779763,0.79779763 0 0 0 -1.11486,0.01788 z"
         id="path10-1"
         style="opacity:0.4;fill:#d3dae3;fill-opacity:1;stroke-width:0.324324" />
      <path
         d="m 89.79026,7.474051 -0.01478,0.01478 a 0.80034681,0.80034681 0 0 0 0.01506,1.141944 10.633069,10.633069 0 0 1 0.0016,15.240407 0.8003014,0.8003014 0 0 0 -0.01434,1.141234 l 0.01483,0.01483 a 0.80215978,0.80215978 0 0 0 1.125537,0.0085 12.248931,12.248931 0 0 0 -0.003,-17.570751 0.80217924,0.80217924 0 0 0 -1.124936,0.0091 z"
         id="path12-2"
         style="opacity:0.4;fill:#d3dae3;fill-opacity:1;stroke-width:0.324324" />
    </g>
  </g>
  <g
     id="22-22-audio-volume-high">
    <path
       style="opacity:0.00100002"
       d="M 0,-22 H 22 V 0 H 0 Z"
       id="path7" />
    <path
       d="m 2.73645,-7.10375 h 2.13297 v -7.796497 H 2.73645 a 1.4354288,1.4354288 0 0 0 -1.43545,1.43544 v 4.925602 a 1.4354288,1.4354288 0 0 0 1.43545,1.435455 z"
       id="path4-62"
       style="fill:#d3dae3;fill-opacity:1;stroke-width:0.216217" />
    <path
       d="m 5.74925,-7.10375 5.94659,3.991226 A 0.65128544,0.65128544 0 0 0 12.05881,-3.002 h 0.12886 a 0.52245316,0.52245316 0 0 0 0.5225,-0.522443 V -18.479554 A 0.52245316,0.52245316 0 0 0 12.18767,-19.002 h -0.12886 a 0.65128544,0.65128544 0 0 0 -0.36297,0.110524 l -5.94659,3.991229 z"
       id="path6-6"
       style="fill:#d3dae3;fill-opacity:1;stroke-width:0.216217" />
    <path
       d="m 14.4705,-8.21535 0.0111,0.0098 a 0.53717316,0.53717316 0 0 0 0.75018,0.0093 3.8666795,3.8666795 0 0 0 6e-5,-5.61109 0.53660875,0.53660875 0 0 0 -0.74823,0.0069 l -0.0121,0.01164 a 0.53502182,0.53502182 0 0 0 0.0189,0.76967 2.7834375,2.7834375 0 0 1 2.2e-4,4.034383 0.5351342,0.5351342 0 0 0 -0.019,0.769842 z"
       id="path8-1"
       style="fill:#d3dae3;fill-opacity:1;stroke-width:0.216217" />
    <path
       d="m 16.00511,-15.323879 -0.0111,0.0085 a 0.52857208,0.52857208 0 0 0 0.002,0.754085 4.9301995,4.9301995 0 0 1 3.8e-4,7.118968 0.52856555,0.52856555 0 0 0 -0.002,0.753748 l 0.0111,0.0077 a 0.53186291,0.53186291 0 0 0 0.74362,0.01159 6.0021094,6.0021094 0 0 0 -0.002,-8.667316 0.5318651,0.5318651 0 0 0 -0.74337,0.01191 z"
       id="path10-8"
       style="fill:#d3dae3;fill-opacity:1;stroke-width:0.216217" />
    <path
       d="m 17.53385,-16.852631 -0.0111,0.0099 a 0.53356455,0.53356455 0 0 0 0.0111,0.761296 7.0887154,7.0887154 0 0 1 0.002,10.160268 0.5335342,0.5335342 0 0 0 -0.0111,0.760831 l 0.0111,0.01015 a 0.53477316,0.53477316 0 0 0 0.75034,0.0058 8.1659555,8.1659555 0 0 0 -0.003,-11.713836 0.53478617,0.53478617 0 0 0 -0.75001,0.0061 z"
       id="path12-7"
       style="fill:#d3dae3;fill-opacity:1;stroke-width:0.216217" />
  </g>
  <g
     id="22-22-audio-volume-medium">
    <g
       id="g1309">
      <path
         style="opacity:0.00100002"
         d="m 32.000001,-22 h 22 V 0 h -22 z"
         id="path12" />
      <path
         d="m 34.738451,-7.09375 h 2.13297 v -7.796497 h -2.13297 a 1.4354288,1.4354288 0 0 0 -1.43545,1.43544 v 4.925602 a 1.4354288,1.4354288 0 0 0 1.43545,1.435455 z"
         id="path4-62-9"
         style="fill:#d3dae3;fill-opacity:1;stroke-width:0.216217" />
      <path
         d="m 37.751251,-7.09375 5.94659,3.991226 a 0.65128544,0.65128544 0 0 0 0.36297,0.110524 h 0.12886 a 0.52245316,0.52245316 0 0 0 0.5225,-0.522443 v -14.955111 a 0.52245316,0.52245316 0 0 0 -0.5225,-0.522446 h -0.12886 a 0.65128544,0.65128544 0 0 0 -0.36297,0.110524 l -5.94659,3.991229 z"
         id="path6-6-2"
         style="fill:#d3dae3;fill-opacity:1;stroke-width:0.216217" />
      <path
         d="m 46.472501,-8.20535 0.0111,0.0098 a 0.53717316,0.53717316 0 0 0 0.75018,0.0093 3.8666795,3.8666795 0 0 0 6e-5,-5.61109 0.53660875,0.53660875 0 0 0 -0.74823,0.0069 l -0.0121,0.01164 a 0.53502182,0.53502182 0 0 0 0.0189,0.76967 2.7834375,2.7834375 0 0 1 2.2e-4,4.034383 0.5351342,0.5351342 0 0 0 -0.019,0.769842 z"
         id="path8-1-0"
         style="fill:#d3dae3;fill-opacity:1;stroke-width:0.216217" />
      <path
         d="m 48.007111,-15.313879 -0.0111,0.0085 a 0.52857208,0.52857208 0 0 0 0.002,0.754085 4.9301995,4.9301995 0 0 1 3.8e-4,7.118968 0.52856555,0.52856555 0 0 0 -0.002,0.753748 l 0.0111,0.0077 a 0.53186291,0.53186291 0 0 0 0.74362,0.01159 6.0021094,6.0021094 0 0 0 -0.002,-8.667316 0.5318651,0.5318651 0 0 0 -0.74337,0.01191 z"
         id="path10-8-2"
         style="fill:#d3dae3;fill-opacity:1;stroke-width:0.216217" />
      <path
         d="m 49.535851,-16.842631 -0.0111,0.0099 a 0.53356455,0.53356455 0 0 0 0.0111,0.761295 7.0887154,7.0887154 0 0 1 0.002,10.160269 0.5335342,0.5335342 0 0 0 -0.0111,0.760831 l 0.0111,0.01015 a 0.53477316,0.53477316 0 0 0 0.75034,0.0058 8.1659555,8.1659555 0 0 0 -0.003,-11.713836 0.53478617,0.53478617 0 0 0 -0.75001,0.0061 z"
         id="path12-7-3"
         style="opacity:0.4;fill:#d3dae3;fill-opacity:1;stroke-width:0.216217" />
    </g>
  </g>
  <g
     id="22-22-audio-volume-low">
    <g
       id="g1327">
      <path
         style="opacity:0.00100002"
         d="m 64.000002,-22 h 22 V 0 h -22 z"
         id="path19" />
      <path
         d="m 66.696807,-6.89178 h 2.13297 v -7.796497 h -2.13297 a 1.4354288,1.4354288 0 0 0 -1.43545,1.43544 v 4.925602 a 1.4354288,1.4354288 0 0 0 1.43545,1.435455 z"
         id="path4-62-9-7"
         style="fill:#d3dae3;fill-opacity:1;stroke-width:0.216217" />
      <path
         d="m 69.709607,-6.89178 5.94659,3.991226 a 0.65128544,0.65128544 0 0 0 0.36297,0.110524 h 0.12886 a 0.52245316,0.52245316 0 0 0 0.5225,-0.522443 v -14.955111 a 0.52245316,0.52245316 0 0 0 -0.5225,-0.522446 h -0.12886 a 0.65128544,0.65128544 0 0 0 -0.36297,0.110524 l -5.94659,3.991229 z"
         id="path6-6-2-5"
         style="fill:#d3dae3;fill-opacity:1;stroke-width:0.216217" />
      <path
         d="m 78.430857,-8.00338 0.0111,0.0098 a 0.53717316,0.53717316 0 0 0 0.75018,0.0093 3.8666795,3.8666795 0 0 0 6e-5,-5.61109 0.53660875,0.53660875 0 0 0 -0.74823,0.007 l -0.0121,0.01164 a 0.53502182,0.53502182 0 0 0 0.0189,0.76967 2.7834375,2.7834375 0 0 1 2.2e-4,4.034383 0.5351342,0.5351342 0 0 0 -0.019,0.769842 z"
         id="path8-1-0-9"
         style="opacity:0.4;fill:#d3dae3;fill-opacity:1;stroke-width:0.216217" />
      <path
         d="m 79.965467,-15.111909 -0.0111,0.0085 a 0.52857208,0.52857208 0 0 0 0.002,0.754085 4.9301995,4.9301995 0 0 1 3.8e-4,7.118968 0.52856555,0.52856555 0 0 0 -0.002,0.753748 l 0.0111,0.0077 a 0.53186291,0.53186291 0 0 0 0.74362,0.01159 6.0021094,6.0021094 0 0 0 -0.002,-8.667316 0.5318651,0.5318651 0 0 0 -0.74337,0.01191 z"
         id="path10-8-2-2"
         style="opacity:0.4;fill:#d3dae3;fill-opacity:1;stroke-width:0.216217" />
      <path
         d="m 81.494207,-16.640661 -0.0111,0.0099 a 0.53356455,0.53356455 0 0 0 0.0111,0.761295 7.0887154,7.0887154 0 0 1 0.002,10.160269 0.5335342,0.5335342 0 0 0 -0.0111,0.760831 l 0.0111,0.01015 a 0.53477316,0.53477316 0 0 0 0.75034,0.0058 8.1659555,8.1659555 0 0 0 -0.003,-11.713836 0.53478617,0.53478617 0 0 0 -0.75001,0.0061 z"
         id="path12-7-3-2"
         style="opacity:0.4;fill:#d3dae3;fill-opacity:1;stroke-width:0.216217" />
    </g>
  </g>
  <g
     id="22-22-audio-volume-muted"
     transform="translate(96.000003)">
    <g
       id="g928">
      <path
         style="opacity:0.00100002"
         d="M 0,-22 H 21.999997 V 0 H 0 Z"
         id="path26" />
      <path
         d="m 3.4767,-7.11758 h 2.132967 v -7.796497 H 3.4767 a 1.4354288,1.4354288 0 0 0 -1.43545,1.43544 v 4.925602 A 1.4354288,1.4354288 0 0 0 3.4767,-7.11758 Z"
         id="path4-62-9-7-8"
         style="fill:#d3dae3;fill-opacity:1;stroke-width:0.216217" />
      <path
         d="m 6.489497,-7.11758 5.94659,3.991226 a 0.65128544,0.65128544 0 0 0 0.36297,0.110524 h 0.12886 a 0.52245316,0.52245316 0 0 0 0.5225,-0.522443 v -14.955111 a 0.52245316,0.52245316 0 0 0 -0.5225,-0.522446 h -0.12886 a 0.65128544,0.65128544 0 0 0 -0.36297,0.110523 l -5.94659,3.99123 z"
         id="path6-6-2-5-9"
         style="fill:#d3dae3;fill-opacity:1;stroke-width:0.216217" />
      <path
         d="m 21.490424,-11.280337 c -0.03503,-0.165827 -0.163545,-0.380873 -0.283281,-0.457051 C 21.1283,-11.79113 20.617336,-11.8 18.269792,-11.8 h -2.843781 l -0.125578,0.103 c -0.148941,0.120895 -0.262837,0.403262 -0.262837,0.658501 0,0.255407 0.113901,0.537693 0.262837,0.658501 l 0.125578,0.103 h 2.840978 c 1.932963,0 2.867261,-0.0134 2.922748,-0.04933 0.2424,-0.138791 0.376617,-0.559743 0.300687,-0.954056 z"
         id="path4-36"
         style="fill:#ff557f;fill-opacity:1;stroke-width:15.3704" />
    </g>
  </g>
  <g
     id="audio-volume-muted"
     transform="translate(96.000003)">
    <path
       style="opacity:0.00100002"
       d="M 0,0 H 31.999997 V 32.000001 H 0 Z"
       id="path45" />
    <path
       d="m 4.447137,22.00037 h 3.19955 V 10.30563 H 4.447137 A 2.1531435,2.1531435 0 0 0 2.294,12.45879 v 7.38842 a 2.1531435,2.1531435 0 0 0 2.153137,2.15316 z"
       id="path4-7"
       style="fill:#d3dae3;fill-opacity:1;stroke-width:0.324324" />
    <path
       d="m 8.966317,22.00037 8.91989,5.986845 a 0.97692815,0.97692815 0 0 0 0.54449,0.165785 h 0.19333 a 0.78367981,0.78367981 0 0 0 0.78367,-0.78367 V 4.93667 A 0.78367981,0.78367981 0 0 0 18.624027,4.153 h -0.19332 a 0.97692815,0.97692815 0 0 0 -0.54448,0.165785 l -8.91991,5.986845 z"
       id="path6-0"
       style="fill:#d3dae3;fill-opacity:1;stroke-width:0.324324" />
    <path
       d="m 30,15.480708 c -0.04726,-0.296579 -0.220569,-0.681325 -0.382046,-0.817587 -0.106338,-0.09618 -0.795439,-0.112196 -3.961447,-0.112196 h -3.835258 l -0.16936,0.184361 c -0.200867,0.216421 -0.354474,0.7214 -0.354474,1.177965 0,0.456882 0.153607,0.961869 0.354474,1.177965 l 0.16936,0.184363 h 3.831475 c 2.606882,0 3.866927,-0.02407 3.941761,-0.08814 C 29.921383,16.939279 30.102403,16.186133 30,15.480765 Z"
       id="path4-75"
       style="fill:#ff557f;fill-opacity:1;stroke-width:0.0022475" />
  </g>
</svg>
