<?xml version="1.0" encoding="UTF-8" standalone="no"?>
<svg
   xmlns:dc="http://purl.org/dc/elements/1.1/"
   xmlns:cc="http://creativecommons.org/ns#"
   xmlns:rdf="http://www.w3.org/1999/02/22-rdf-syntax-ns#"
   xmlns:svg="http://www.w3.org/2000/svg"
   xmlns="http://www.w3.org/2000/svg"
   xmlns:sodipodi="http://sodipodi.sourceforge.net/DTD/sodipodi-0.dtd"
   xmlns:inkscape="http://www.inkscape.org/namespaces/inkscape"
   width="32"
   height="32"
   version="1.1"
   id="svg12"
   sodipodi:docname="bookmarks.svg"
   inkscape:version="1.0.2 (e86c870879, 2021-01-15)">
  <metadata
     id="metadata18">
    <rdf:RDF>
      <cc:Work
         rdf:about="">
        <dc:format>image/svg+xml</dc:format>
        <dc:type
           rdf:resource="http://purl.org/dc/dcmitype/StillImage" />
      </cc:Work>
    </rdf:RDF>
  </metadata>
  <defs
     id="defs16" />
  <sodipodi:namedview
     pagecolor="#ffffff"
     bordercolor="#666666"
     borderopacity="1"
     objecttolerance="10"
     gridtolerance="10"
     guidetolerance="10"
     inkscape:pageopacity="0"
     inkscape:pageshadow="2"
     inkscape:window-width="1920"
     inkscape:window-height="1007"
     id="namedview14"
     showgrid="false"
     inkscape:zoom="6.9384853"
     inkscape:cx="32.163128"
     inkscape:cy="10.927212"
     inkscape:window-x="0"
     inkscape:window-y="0"
     inkscape:window-maximized="1"
     inkscape:current-layer="svg12"
     inkscape:document-rotation="0"
     inkscape:lockguides="false">
    <inkscape:grid
       type="xygrid"
       id="grid857"
       originx="0"
       originy="0" />
  </sodipodi:namedview>
  <g
     id="g997" />
  <g
     id="g999"
     transform="translate(32,10)" />
  <g
     id="bookmarks">
    <rect
       y="0"
       x="0"
       height="32"
       width="32"
       id="rect820"
       style="clip-rule:evenodd;fill:#2020ff;fill-opacity:0;fill-rule:evenodd;stroke-linejoin:round;stroke-miterlimit:1.41421" />
    <path
       d="M 22.1296,4 H 9.8208 C 8.927467,4 8.2,4.726933 8.2,5.6208 V 26.3792 C 8.2,27.273067 8.926933,28 9.8208,28 c 0.181333,0 0.36,-0.0304 0.531733,-0.0896 L 15.7936,26.021867 c 0.116267,-0.04053 0.2464,-0.04053 0.3632,0 L 21.5984,27.9104 C 21.7696,27.97067 21.9488,28 22.1296,28 v 0 c 0.689067,0 1.304533,-0.437333 1.530667,-1.088533 0.0592,-0.170667 0.0896,-0.350934 0.0896,-0.532267 V 5.6208 C 23.749867,4.7264 23.022933,4 22.1296,4 Z m 0.5536,22.3792 c 0,0.06133 -0.01067,0.122667 -0.03147,0.181333 -0.0976,0.281067 -0.419733,0.4416 -0.704,0.341867 l -5.4416,-1.889067 c -0.1712,-0.0592 -0.349866,-0.08853 -0.5312,-0.08853 -0.181333,0 -0.36,0.02933 -0.531733,0.08853 l -5.440533,1.888534 c -0.347734,0.121066 -0.736,-0.1552 -0.736,-0.522667 V 5.6208 c 0,-0.3056 0.248533,-0.554133 0.554133,-0.554133 h 12.3088 c 0.3056,0 0.554133,0.248533 0.554133,0.554133 z"
       id="path2"
       style="fill:#d3dae3;fill-opacity:1;stroke-width:0.533333" />
    <path
       d="m 20.490052,8.7759469 c 1.013863,1.0344997 1.01285,2.6993071 0,3.7348841 l -4.487208,4.589172 c -1.497454,-1.527981 -2.994936,-3.055923 -4.492376,-4.583864 -1.013957,-1.034481 -1.013957,-2.7003847 0,-3.7348844 1.013927,-1.0345959 2.646478,-1.0346151 3.660416,0 l 0.826764,0.8436151 0.831919,-0.8489228 c 1.013957,-1.0345959 2.646486,-1.0345959 3.660485,0 z"
       style="color:#000000;fill:#d3dae3;fill-opacity:1;stroke-width:0.175001;enable-background:accumulate"
       stroke="none"
       marker="none"
       visibility="visible"
       display="inline"
       overflow="visible"
       id="path2-3" />
  </g>
  <g
     id="22-22-bookmarks"
     transform="translate(32,10)">
    <rect
       y="0"
       x="0"
       height="22"
       width="22"
       id="rect820-6"
       style="clip-rule:evenodd;fill:#2020ff;fill-opacity:0;fill-rule:evenodd;stroke-width:0.6875;stroke-linejoin:round;stroke-miterlimit:1.41421" />
    <path
       d="M 15.6472,2 H 6.415604 C 5.745605,2 5.2,2.545195 5.2,3.215604 V 18.7844 C 5.2,19.454801 5.745195,20 6.415604,20 c 0.135991,0 0.27,-0.0228 0.398791,-0.0672 L 10.8952,18.5164 c 0.08722,-0.03039 0.184796,-0.03039 0.272404,0 l 4.081192,1.416401 c 0.128404,0.0452 0.2628,0.0672 0.398404,0.0672 v 0 c 0.516805,0 0.978391,-0.328 1.147995,-0.816399 0.04436,-0.128001 0.06724,-0.263201 0.06724,-0.399201 V 3.215604 C 16.862405,2.544796 16.317205,2 15.6472,2 Z m 0.415196,16.7844 c 0,0.046 -0.0085,0.092 -0.02365,0.136 -0.07316,0.2108 -0.314796,0.3312 -0.527993,0.2564 l -4.081164,-1.416801 c -0.128398,-0.0444 -0.262389,-0.06639 -0.398398,-0.06639 -0.135998,0 -0.27,0.022 -0.398798,0.06639 L 6.552007,19.176401 C 6.291206,19.267199 6.00001,19.06 6.00001,18.7844 V 3.215604 c 0,-0.229204 0.186391,-0.415595 0.415595,-0.415595 h 9.231596 c 0.229204,0 0.415595,0.186391 0.415595,0.415595 z"
       id="path2-36"
       style="fill:#d3dae3;fill-opacity:1;stroke-width:0.400005" />
    <path
       d="m 14.417529,5.581955 c 0.760406,0.775884 0.759646,2.024481 0,2.801167 l -3.365401,3.441881 C 9.929049,10.679016 8.805928,9.533062 7.682846,8.387101 c -0.760467,-0.775865 -0.760467,-2.025283 0,-2.801165 0.760453,-0.775937 1.984858,-0.775956 2.745322,0 L 11.04824,6.21865 11.672169,5.581955 c 0.760479,-0.775944 1.984862,-0.775944 2.74536,0 z"
       style="color:#000000;fill:#d3dae3;fill-opacity:1;stroke-width:0.131253;enable-background:accumulate"
       stroke="none"
       marker="none"
       visibility="visible"
       display="inline"
       overflow="visible"
       id="path2-3-7" />
  </g>
</svg>
