<?xml version="1.0" encoding="UTF-8" standalone="no"?>
<svg
   xmlns:dc="http://purl.org/dc/elements/1.1/"
   xmlns:cc="http://creativecommons.org/ns#"
   xmlns:rdf="http://www.w3.org/1999/02/22-rdf-syntax-ns#"
   xmlns:svg="http://www.w3.org/2000/svg"
   xmlns="http://www.w3.org/2000/svg"
   xmlns:sodipodi="http://sodipodi.sourceforge.net/DTD/sodipodi-0.dtd"
   xmlns:inkscape="http://www.inkscape.org/namespaces/inkscape"
   width="32"
   height="32"
   version="1.1"
   id="svg12"
   sodipodi:docname="choqok.svg"
   inkscape:version="1.0.2 (e86c870879, 2021-01-15)">
  <metadata
     id="metadata18">
    <rdf:RDF>
      <cc:Work
         rdf:about="">
        <dc:format>image/svg+xml</dc:format>
        <dc:type
           rdf:resource="http://purl.org/dc/dcmitype/StillImage" />
      </cc:Work>
    </rdf:RDF>
  </metadata>
  <defs
     id="defs16" />
  <sodipodi:namedview
     pagecolor="#ffffff"
     bordercolor="#666666"
     borderopacity="1"
     objecttolerance="10"
     gridtolerance="10"
     guidetolerance="10"
     inkscape:pageopacity="0"
     inkscape:pageshadow="2"
     inkscape:window-width="1920"
     inkscape:window-height="1007"
     id="namedview14"
     showgrid="false"
     inkscape:zoom="6.9384853"
     inkscape:cx="42.289957"
     inkscape:cy="28.681802"
     inkscape:window-x="0"
     inkscape:window-y="0"
     inkscape:window-maximized="1"
     inkscape:current-layer="svg12"
     inkscape:document-rotation="0"
     inkscape:lockguides="false">
    <inkscape:grid
       type="xygrid"
       id="grid941"
       originx="0"
       originy="0" />
  </sodipodi:namedview>
  <g
     id="choqok"
     transform="translate(32,10)">
    <rect
       style="opacity:0.00100002"
       width="32"
       height="32"
       x="-32"
       y="-10"
       id="rect7" />
    <path
       fill="none"
       stroke-width="1.04158"
       stroke-linecap="round"
       stroke-linejoin="round"
       stroke-miterlimit="10"
       d="M -3.887871,-3.8135568 V 10.125958 c 0,0.919917 -0.74574,1.665648 -1.665654,1.665648 h -11.560018 l -6.177896,5.687673 v -5.687673 h -3.12212 c -0.919911,0 -1.665651,-0.745731 -1.665651,-1.665648 V -3.8135568 c 0,-0.9199147 0.74574,-1.6656532 1.665651,-1.6656532 h 20.860034 c 0.919914,0 1.665654,0.7457385 1.665654,1.6656532 z"
       id="path2"
       style="stroke:#d3dae3;stroke-opacity:1" />
    <path
       d="m -22.048,0.16123628 c -0.578433,0 -1,0.42047931 -1,1.00000002 0,0.5795207 0.421567,1 1,1 0.578433,0 1,-0.4204793 1,-1 0,-0.57952071 -0.421567,-1.00000002 -1,-1.00000002 z"
       id="path6"
       style="fill:#d3dae3;fill-opacity:1;stroke:#d3dae3;stroke-width:0.0266828;stroke-opacity:1" />
    <path
       d="m -9.8669999,0.16123628 c -0.5784331,0 -1.0000001,0.4204793 -1.0000001,1.00000002 0,0.5795206 0.421567,1 1.0000001,1 0.5784315,0 0.9999999,-0.4204794 0.9999999,-1 0,-0.57952072 -0.4215684,-1.00000002 -0.9999999,-1.00000002 z"
       id="path8"
       style="fill:#d3dae3;fill-opacity:1;stroke-width:0.0266828" />
    <path
       d="m -11.763511,3.8111112 h -0.38382 c -0.102512,-0.9774322 -0.615067,-1.9548644 -1.466148,-2.7821058 -0.73665,-0.71519434 -1.644946,-1.23251822 -2.164654,-1.23251822 -0.519708,0 -1.428004,0.51970786 -2.164654,1.23251822 -0.853465,0.8272414 -1.363636,1.8046736 -1.466148,2.7821058 h -0.38382 c -0.202639,0 -0.364749,0.1644947 -0.364749,0.3647491 0,0.2002544 0.164494,0.3647491 0.364749,0.3647491 h 0.798633 c 0.545931,2.1908785 2.541323,2.1908785 3.215989,2.1908785 0.674666,0 2.670058,0 3.215989,-2.1908785 h 0.798633 c 0.202639,0 0.364749,-0.1644947 0.364749,-0.3647491 0,-0.2002544 -0.16211,-0.3647491 -0.364749,-0.3647491 z m -5.669104,-2.25763 c 0.703274,-0.68420257 1.439924,-1.02749583 1.654482,-1.02749583 0.214558,0 0.951208,0.34329326 1.654482,1.02749583 0.424349,0.4124287 1.106167,1.2205983 1.23967,2.25763 h -1.070407 c -0.829625,0 -1.189606,0.3099175 -1.451844,0.5340117 -0.169263,0.1454229 -0.23363,0.1954865 -0.374285,0.1954865 -0.140655,0 -0.205022,-0.050064 -0.374285,-0.1954865 -0.262238,-0.2264782 -0.622219,-0.5340117 -1.451844,-0.5340117 h -1.070407 c 0.138271,-1.0370317 0.820089,-1.8452013 1.244438,-2.25763 z m 1.654482,4.4485085 c -1.001272,0 -2.057375,-0.1835665 -2.457883,-1.4613803 h 0.634138 c 0.560236,0 0.762874,0.1740306 0.975048,0.3575971 0.193103,0.1668787 0.431501,0.3719011 0.848697,0.3719011 0.417197,0 0.655595,-0.2074064 0.848697,-0.3719011 0.214558,-0.1835665 0.417196,-0.3575971 0.975048,-0.3575971 h 0.634138 c -0.400508,1.2778138 -1.456611,1.4613803 -2.457883,1.4613803 z"
       id="path10"
       style="fill:#d3dae3;fill-opacity:1;stroke-width:0.0238398" />
  </g>
  <g
     id="22-22-choqok"
     transform="translate(32,10)">
    <rect
       style="opacity:0.00100002"
       width="22"
       height="22"
       x="0"
       y="0"
       id="rect2" />
    <path
       fill="none"
       stroke-width="0.69438"
       stroke-linecap="round"
       stroke-linejoin="round"
       stroke-miterlimit="10"
       d="m 19.074757,4.457634 v 9.293007 c 0,0.61328 -0.497172,1.11043 -1.110445,1.11043 H 10.257639 L 6.139037,18.652854 V 14.861071 H 4.0576238 c -0.6132737,0 -1.1104338,-0.49715 -1.1104338,-1.11043 V 4.457634 c 0,-0.613275 0.4971601,-1.110444 1.1104338,-1.110444 H 17.964312 c 0.613273,0 1.110445,0.497169 1.110445,1.110444 z"
       id="path2-6"
       style="stroke:#d3dae3;stroke-opacity:1" />
    <path
       d="m 6.8179999,7.1074818 c -0.4338235,0 -0.7499999,0.3153595 -0.7499999,0.75 0,0.4346404 0.3161764,0.75 0.7499999,0.75 0.4338237,0 0.7500001,-0.3153596 0.7500001,-0.75 0,-0.4346405 -0.3161764,-0.75 -0.7500001,-0.75 z"
       id="path6-3"
       style="fill:#d3dae3;fill-opacity:1;stroke-width:0.0200121" />
    <path
       d="m 15.204999,7.1074818 c -0.433825,0 -0.749999,0.3153595 -0.749999,0.75 0,0.4346404 0.316174,0.75 0.749999,0.75 0.433827,0 0.750001,-0.3153596 0.750001,-0.75 0,-0.4346405 -0.316174,-0.75 -0.750001,-0.75 z"
       id="path8-5"
       style="fill:#d3dae3;fill-opacity:1;stroke-width:0.0200121" />
    <path
       d="m 13.724316,9.5407292 h -0.25588 C 13.400095,8.8891084 13.058391,8.2374876 12.491004,7.6859939 11.999905,7.2091982 11.394374,6.864316 11.047903,6.864316 c -0.346472,0 -0.952002,0.3464715 -1.443102,0.8216779 C 9.0358248,8.2374876 8.6957106,8.8891084 8.6273699,9.5407292 H 8.3714895 c -0.1350921,0 -0.2431658,0.109663 -0.2431658,0.2431658 0,0.1335028 0.109663,0.243166 0.2431658,0.243166 h 0.5324219 c 0.363954,1.460584 1.6942136,1.460584 2.1439916,1.460584 0.449777,0 1.780037,0 2.143991,-1.460584 h 0.532422 c 0.135092,0 0.243166,-0.1096632 0.243166,-0.243166 0,-0.1335028 -0.108074,-0.2431658 -0.243166,-0.2431658 z M 9.9449153,8.0356441 C 10.413764,7.5795095 10.904864,7.3506476 11.047903,7.3506476 c 0.143038,0 0.634138,0.2288619 1.102987,0.6849965 0.282899,0.2749521 0.737444,0.8137313 0.826446,1.5050851 h -0.713604 c -0.553083,0 -0.79307,0.2066114 -0.967896,0.3560074 -0.112841,0.096948 -0.155753,0.1303244 -0.249523,0.1303244 -0.09377,0 -0.136681,-0.033376 -0.249523,-0.1303244 C 10.621965,9.7457513 10.381978,9.5407292 9.828895,9.5407292 H 9.1152908 c 0.09218,-0.6913538 0.5467257,-1.230133 0.8296245,-1.5050851 z m 1.1029877,2.9656689 c -0.667514,0 -1.3715826,-0.122377 -1.6385882,-0.974252 h 0.4227589 c 0.3734903,0 0.5085823,0.11602 0.6500313,0.238398 0.128735,0.111252 0.287667,0.247933 0.565798,0.247933 0.278131,0 0.437062,-0.13827 0.565797,-0.247933 0.143039,-0.122378 0.278131,-0.238398 0.650032,-0.238398 h 0.422759 c -0.267006,0.851875 -0.971074,0.974252 -1.638588,0.974252 z"
       id="path10-6"
       style="fill:#d3dae3;fill-opacity:1;stroke-width:0.0158932" />
  </g>
</svg>
