<?xml version="1.0" encoding="UTF-8" standalone="no"?>
<svg
   id="svg2"
   width="32"
   height="32"
   version="1.0"
   inkscape:version="1.1 (c68e22c387, 2021-05-23)"
   sodipodi:docname="computer.svg"
   xmlns:inkscape="http://www.inkscape.org/namespaces/inkscape"
   xmlns:sodipodi="http://sodipodi.sourceforge.net/DTD/sodipodi-0.dtd"
   xmlns="http://www.w3.org/2000/svg"
   xmlns:svg="http://www.w3.org/2000/svg"
   xmlns:rdf="http://www.w3.org/1999/02/22-rdf-syntax-ns#"
   xmlns:cc="http://creativecommons.org/ns#"
   xmlns:dc="http://purl.org/dc/elements/1.1/">
  <g
     id="computer">
    <rect
       y="2.3635315e-07"
       x="7.8195799e-06"
       height="32"
       width="32"
       id="rect820"
       style="clip-rule:evenodd;fill:#2020ff;fill-opacity:0;fill-rule:evenodd;stroke-linejoin:round;stroke-miterlimit:1.41421" />
    <path
       d="m 12.893643,24.604602 v 1.99958 h -2.005701 c -0.629684,0 -1.1402,0.624644 -1.1402,1.395818 h 12.407189 c 0,-0.771174 -0.510516,-1.395818 -1.1402,-1.395818 h -1.971858 v -1.99958 z"
       id="path2"
       style="fill:#d3dae3;fill-opacity:1;stroke-width:0.360025" />
    <path
       d="M 3.358375,18.409649 H 2.00036 v 1.358015 2.362845 c 0,0.908704 0.739492,1.648196 1.648195,1.648196 H 28.28832 c 0.908704,0 1.648196,-0.739492 1.648196,-1.648196 V 19.767664 18.409649 H 28.5785 Z m 25.219765,3.72122 c 0,0.159491 -0.129969,0.29018 -0.29018,0.29018 H 3.648195 c -0.159851,0 -0.28982,-0.130329 -0.28982,-0.29018 V 19.768024 H 28.57814 Z"
       id="path4"
       style="fill:#d3dae3;fill-opacity:1;stroke-width:0.360025" />
    <path
       d="M 28.28832,4 H 3.648195 C 2.739492,4 2,4.739492 2,5.647835 V 18.419369 H 3.358015 V 5.648195 c 0,-0.159851 0.129969,-0.29018 0.28982,-0.29018 H 28.28832 c 0.159851,0 0.29018,0.129969 0.29018,0.29018 v 12.771174 h 1.358016 V 5.648195 C 29.936156,4.739492 29.197024,4 28.28832,4 Z"
       id="path6"
       style="fill:#d3dae3;fill-opacity:1;stroke-width:0.360025" />
    <path
       inkscape:connector-curvature="0"
       id="path3825-5"
       style="color:#31363b;clip-rule:evenodd;fill:#d3dae3;fill-opacity:1;fill-rule:nonzero;stroke-width:0.532812;stroke-linejoin:round;stroke-miterlimit:1.41421"
       d="m 16.885165,6.5 -1.773507,0.170288 v 7.295886 l 1.754569,-0.264889 v -3.110593 l 2.36089,3.451169 L 21.076415,13.45531 18.658682,10.136597 21.095369,7.00708 19.208169,6.575685 16.866227,9.7052 Z M 12.86445,8.278563 c -0.02008,0.0021 -0.04172,0.0076 -0.0568,0.02267 l -0.697281,0.696286 c -0.02929,0.02938 -0.03288,0.07425 -0.0114,0.109748 l 0.814755,1.343378 c -0.144672,0.242847 -0.262145,0.503347 -0.344848,0.779532 L 11.072,11.540491 C 11.03035,11.549091 11,11.588681 11,11.631311 v 0.983888 c 0,0.0416 0.03167,0.07723 0.072,0.08704 l 1.451402,0.351927 c 0.07761,0.319743 0.19751,0.625718 0.356219,0.904415 l -0.841284,1.279048 c -0.02346,0.03568 -0.01892,0.08338 0.0114,0.113532 l 0.697275,0.696284 c 0.02943,0.02924 0.07443,0.03288 0.109897,0.01136 l 1.318769,-0.798456 c 0.258663,0.149131 0.538695,0.268591 0.833708,0.34815 l 0.306944,1.475828 c 0.0086,0.04172 0.04453,0.07193 0.08717,0.07193 h 0.985281 c 0.04136,0 0.07734,-0.02773 0.08716,-0.06812 l 0.363795,-1.483396 c 0.304255,-0.08192 0.591109,-0.20353 0.856441,-0.359497 l 1.29982,0.851436 c 0.03585,0.02329 0.0833,0.01881 0.113688,-0.01137 l 0.693489,-0.696287 c 0.02948,-0.02937 0.03673,-0.07433 0.01512,-0.10974 l -0.473696,-0.779539 -0.155373,0.0492 c -0.02246,0.0072 -0.04729,-0.0028 -0.06062,-0.02267 0,0 -0.299226,-0.439542 -0.6897,-1.010363 -0.466987,0.912496 -1.41936,1.536366 -2.516267,1.536366 -1.558678,0 -2.823216,-1.262743 -2.823216,-2.819209 0,-1.144902 0.685612,-2.128253 1.667412,-2.569453 V 8.937046 c -0.178693,0.06247 -0.351317,0.137803 -0.515388,0.227051 -2.06e-4,-1.33e-4 3.38e-4,-0.0033 0,-0.0036 L 12.9213,8.290156 c -0.0179,-0.01168 -0.03676,-0.01337 -0.05681,-0.01139 z"
       class="ColorScheme-Text" />
  </g>
  <sodipodi:namedview
     pagecolor="#ffffff"
     bordercolor="#000000"
     borderopacity="1"
     objecttolerance="10"
     gridtolerance="10"
     guidetolerance="10"
     inkscape:pageopacity="0"
     inkscape:pageshadow="2"
     inkscape:window-width="1920"
     inkscape:window-height="1007"
     id="namedview24"
     showgrid="false"
     inkscape:zoom="8.0751594"
     inkscape:cx="33.621627"
     inkscape:cy="11.516801"
     inkscape:window-x="0"
     inkscape:window-y="0"
     inkscape:window-maximized="1"
     inkscape:current-layer="svg2"
     inkscape:document-rotation="0"
     showguides="false"
     inkscape:pagecheckerboard="0"
     inkscape:showpageshadow="false">
    <inkscape:grid
       type="xygrid"
       id="grid889"
       originx="-7.8195799e-06"
       originy="-4.727063e-07" />
  </sodipodi:namedview>
  <metadata
     id="metadata7">
    <rdf:RDF>
      <cc:Work
         rdf:about="">
        <dc:format>image/svg+xml</dc:format>
        <dc:type
           rdf:resource="http://purl.org/dc/dcmitype/StillImage" />
      </cc:Work>
    </rdf:RDF>
  </metadata>
  <defs
     id="defs5">
    <style
       id="current-color-scheme"
       type="text/css" />
  </defs>
  <g
     style="fill:none;stroke:#ffffff"
     id="g4171"
     transform="translate(-102.11179,-18.990759)">
    <g
       transform="translate(-38.38147,-1006.1003)"
       style="stroke-width:0.5"
       id="g4173" />
    <g
       transform="translate(-39.59798,-1004.3622)"
       style="stroke-width:0.4"
       id="g4175" />
  </g>
  <g
     id="computer-laptop"
     transform="translate(32)">
    <rect
       y="-3.6468506e-09"
       x="-1.8041993e-07"
       height="32"
       width="32"
       id="rect820-3"
       style="clip-rule:evenodd;fill:#2020ff;fill-opacity:0;fill-rule:evenodd;stroke-linejoin:round;stroke-miterlimit:1.41421" />
    <path
       d="m 12.893643,24.604602 v 1.99958 h -2.005701 c -0.629684,0 -1.1402002,0.624644 -1.1402002,1.395818 H 22.154931 c 0,-0.771174 -0.510516,-1.395818 -1.1402,-1.395818 h -1.971858 v -1.99958 z"
       id="path2-3"
       style="fill:#d3dae3;fill-opacity:1;stroke-width:0.360025" />
    <path
       d="M 3.358375,18.409649 H 2.00036 v 1.358015 2.362845 c 0,0.908704 0.739492,1.648196 1.648195,1.648196 H 28.28832 c 0.908704,0 1.648196,-0.739492 1.648196,-1.648196 V 19.767664 18.409649 H 28.5785 Z m 25.219765,3.72122 c 0,0.159491 -0.129969,0.29018 -0.29018,0.29018 H 3.648195 c -0.159851,0 -0.28982,-0.130329 -0.28982,-0.29018 V 19.768024 H 28.57814 Z"
       id="path4-6"
       style="fill:#d3dae3;fill-opacity:1;stroke-width:0.360025" />
    <path
       d="M 28.28832,4 H 3.648195 C 2.739492,4 2,4.739492 2,5.647835 V 18.419369 H 3.358015 V 5.648195 c 0,-0.159851 0.129969,-0.29018 0.28982,-0.29018 H 28.28832 c 0.159851,0 0.29018,0.129969 0.29018,0.29018 v 12.771174 h 1.358016 V 5.648195 C 29.936156,4.739492 29.197024,4 28.28832,4 Z"
       id="path6-7"
       style="fill:#d3dae3;fill-opacity:1;stroke-width:0.360025" />
    <path
       inkscape:connector-curvature="0"
       id="path3825-5-5"
       style="color:#31363b;clip-rule:evenodd;fill:#d3dae3;fill-opacity:1;fill-rule:nonzero;stroke-width:0.532812;stroke-linejoin:round;stroke-miterlimit:1.41421"
       d="m 16.885165,6.5 -1.773507,0.170288 v 7.295886 l 1.754569,-0.264889 v -3.110593 l 2.36089,3.451169 L 21.076415,13.45531 18.658682,10.136597 21.095369,7.00708 19.208169,6.575685 16.866227,9.7052 Z M 12.86445,8.278563 c -0.02008,0.0021 -0.04172,0.0076 -0.0568,0.02267 l -0.697281,0.696286 c -0.02929,0.02938 -0.03288,0.07425 -0.0114,0.109748 l 0.814755,1.343378 c -0.144672,0.242847 -0.262145,0.503347 -0.344848,0.779532 L 11.072,11.540491 C 11.03035,11.549091 11,11.588681 11,11.631311 v 0.983888 c 0,0.0416 0.03167,0.07723 0.072,0.08704 l 1.451402,0.351927 c 0.07761,0.319743 0.19751,0.625718 0.356219,0.904415 l -0.841284,1.279048 c -0.02346,0.03568 -0.01892,0.08338 0.0114,0.113532 l 0.697275,0.696284 c 0.02943,0.02924 0.07443,0.03288 0.109897,0.01136 l 1.318769,-0.798456 c 0.258663,0.149131 0.538695,0.268591 0.833708,0.34815 l 0.306944,1.475828 c 0.0086,0.04172 0.04453,0.07193 0.08717,0.07193 h 0.985281 c 0.04136,0 0.07734,-0.02773 0.08716,-0.06812 l 0.363795,-1.483396 c 0.304255,-0.08192 0.591109,-0.20353 0.856441,-0.359497 l 1.29982,0.851436 c 0.03585,0.02329 0.0833,0.01881 0.113688,-0.01137 l 0.693489,-0.696287 c 0.02948,-0.02937 0.03673,-0.07433 0.01512,-0.10974 l -0.473696,-0.779539 -0.155373,0.0492 c -0.02246,0.0072 -0.04729,-0.0028 -0.06062,-0.02267 0,0 -0.299226,-0.439542 -0.6897,-1.010363 -0.466987,0.912496 -1.41936,1.536366 -2.516267,1.536366 -1.558678,0 -2.823216,-1.262743 -2.823216,-2.819209 0,-1.144902 0.685612,-2.128253 1.667412,-2.569453 V 8.937046 c -0.178693,0.06247 -0.351317,0.137803 -0.515388,0.227051 -2.06e-4,-1.33e-4 3.38e-4,-0.0033 0,-0.0036 L 12.9213,8.2901562 c -0.0179,-0.01168 -0.03676,-0.01337 -0.05681,-0.01139 z"
       class="ColorScheme-Text" />
  </g>
</svg>
