<?xml version="1.0" encoding="UTF-8" standalone="no"?>
<svg
   xmlns:dc="http://purl.org/dc/elements/1.1/"
   xmlns:cc="http://creativecommons.org/ns#"
   xmlns:rdf="http://www.w3.org/1999/02/22-rdf-syntax-ns#"
   xmlns:svg="http://www.w3.org/2000/svg"
   xmlns="http://www.w3.org/2000/svg"
   xmlns:sodipodi="http://sodipodi.sourceforge.net/DTD/sodipodi-0.dtd"
   xmlns:inkscape="http://www.inkscape.org/namespaces/inkscape"
   width="32"
   height="32"
   version="1.1"
   id="svg17"
   sodipodi:docname="configure.svg"
   inkscape:version="1.0.2 (e86c870879, 2021-01-15)">
  <metadata
     id="metadata23">
    <rdf:RDF>
      <cc:Work
         rdf:about="">
        <dc:format>image/svg+xml</dc:format>
        <dc:type
           rdf:resource="http://purl.org/dc/dcmitype/StillImage" />
      </cc:Work>
    </rdf:RDF>
  </metadata>
  <defs
     id="defs21" />
  <sodipodi:namedview
     pagecolor="#ffffff"
     bordercolor="#666666"
     borderopacity="1"
     objecttolerance="10"
     gridtolerance="10"
     guidetolerance="10"
     inkscape:pageopacity="0"
     inkscape:pageshadow="2"
     inkscape:window-width="1920"
     inkscape:window-height="1007"
     id="namedview19"
     showgrid="false"
     inkscape:zoom="6.9384853"
     inkscape:cx="23.928135"
     inkscape:cy="-7.0339559"
     inkscape:window-x="0"
     inkscape:window-y="0"
     inkscape:window-maximized="1"
     inkscape:current-layer="svg17"
     inkscape:document-rotation="0"
     inkscape:lockguides="false">
    <inkscape:grid
       type="xygrid"
       id="grid868"
       originx="0"
       originy="0" />
  </sodipodi:namedview>
  <g
     id="configure">
    <rect
       style="opacity:0.00100002"
       width="32"
       height="32"
       x="0"
       y="0"
       id="rect12" />
    <path
       d="m 7.48777,10.57214 a 3.2900292,3.2900292 0 0 0 3.237244,-2.7339296 h 16.566442 a 0.55370732,0.55370732 0 0 0 0,-1.1074146 H 10.725014 A 3.2860702,3.2860702 0 1 0 7.48777,10.57214 Z m 0,-5.4678595 A 2.1802226,2.1802226 0 1 1 5.3075475,7.2845031 2.1828638,2.1828638 0 0 1 7.48777,5.1042805 Z"
       id="path4"
       style="stroke-width:0.553707;fill:#d3dae3;fill-opacity:1" />
    <path
       d="m 24.557526,21.427827 a 3.2899185,3.2899185 0 0 0 -3.237283,2.73393 H 4.7538401 a 0.5537075,0.5537075 0 0 0 0,1.107415 H 21.320243 a 3.2860868,3.2860868 0 1 0 3.237283,-3.841345 z m 0,5.46786 a 2.1802226,2.1802226 0 1 1 2.180222,-2.180223 2.1828638,2.1828638 0 0 1 -2.180222,2.180223 z"
       id="path6"
       style="stroke-width:0.553707;fill:#d3dae3;fill-opacity:1" />
    <path
       d="m 27.291456,15.475208 h -7.754705 a 3.2835785,3.2835785 0 0 0 -6.474499,0 H 4.7538401 a 0.55384021,0.55384021 0 0 0 0,1.10768 h 8.3084449 a 3.2836505,3.2836505 0 0 0 6.474433,0 h 7.754738 a 0.55384021,0.55384021 0 0 0 0,-1.10768 z m -10.991954,2.733658 a 2.1800897,2.1800897 0 1 1 2.180222,-2.179946 2.1828084,2.1828084 0 0 1 -2.180222,2.179946 z"
       id="path8"
       style="fill:#d3dae3;stroke-width:0.553707;fill-opacity:1" />
  </g>
  <g
     id="22-22-configure">
    <rect
       style="opacity:0.00100002"
       width="22"
       height="22"
       x="0"
       y="-22"
       id="rect2" />
    <path
       d="m 5.2918467,-14.618573 a 2.1933528,2.1933528 0 0 0 2.1581629,-1.82262 H 18.494304 a 0.36913821,0.36913821 0 0 0 0,-0.738276 H 7.4500096 a 2.1907135,2.1907135 0 1 0 -2.1581629,2.560896 z m 0,-3.64524 a 1.4534817,1.4534817 0 1 1 -1.4534817,1.453482 1.4552425,1.4552425 0 0 1 1.4534817,-1.453482 z"
       id="path4-6"
       style="stroke-width:0.369138;fill:#d3dae3;fill-opacity:1" />
    <path
       d="m 16.671684,-7.3814488 a 2.193279,2.193279 0 0 0 -2.158189,1.82262 H 3.4692268 a 0.36913821,0.36913821 0 0 0 0,0.7382764 H 14.513495 a 2.1907245,2.1907245 0 1 0 2.158189,-2.5608964 z m 0,3.6452399 a 1.4534817,1.4534817 0 1 1 1.453481,-1.4534817 1.4552425,1.4552425 0 0 1 -1.453481,1.4534817 z"
       id="path6-7"
       style="stroke-width:0.369138;fill:#d3dae3;fill-opacity:1" />
    <path
       d="m 18.494304,-11.349862 h -5.169803 a 2.1890523,2.1890523 0 0 0 -4.3163332,0 h -5.538941 a 0.369227,0.369227 0 0 0 0,0.738454 h 5.5389631 a 2.1891003,2.1891003 0 0 0 4.3162891,0 h 5.169825 a 0.369227,0.369227 0 0 0 0,-0.738454 z m -7.32797,1.8224393 a 1.4533931,1.4533931 0 1 1 1.453482,-1.4532973 1.4552056,1.4552056 0 0 1 -1.453482,1.4532973 z"
       id="path8-5"
       style="fill:#d3dae3;stroke-width:0.369138;fill-opacity:1" />
  </g>
  <g
     id="16-16-configure">
    <rect
       style="opacity:0.00100002"
       width="16"
       height="16"
       x="0"
       y="-38"
       id="rect7" />
    <path
       d="m 3.693885,-32.71393 a 1.6450146,1.6450146 0 0 0 1.6186222,-1.366965 h 8.2832208 a 0.27685366,0.27685366 0 0 0 0,-0.553707 H 5.3125072 A 1.6430351,1.6430351 0 1 0 3.693885,-32.71393 Z m 0,-2.73393 a 1.0901113,1.0901113 0 1 1 -1.0901113,1.090112 1.0914319,1.0914319 0 0 1 1.0901113,-1.090112 z"
       id="path4-62"
       style="stroke-width:0.276854;fill:#d3dae3;fill-opacity:1" />
    <path
       d="m 12.228763,-27.286086 a 1.6449592,1.6449592 0 0 0 -1.618642,1.366964 H 2.3269201 a 0.276854,0.276854 0 0 0 0,0.553708 h 8.2832009 a 1.6430434,1.6430434 0 1 0 1.618642,-1.920672 z m 0,2.733929 a 1.0901113,1.0901113 0 1 1 1.090111,-1.090111 1.0914319,1.0914319 0 0 1 -1.090111,1.090111 z"
       id="path6-9"
       style="stroke-width:0.276854;fill:#d3dae3;fill-opacity:1" />
    <path
       d="M 13.595728,-30.262396 H 9.7183757 a 1.6417893,1.6417893 0 0 0 -3.2372499,0 H 2.3269201 a 0.2769201,0.2769201 0 0 0 0,0.55384 h 4.1542224 a 1.6418253,1.6418253 0 0 0 3.2372166,0 h 3.8773689 a 0.2769201,0.2769201 0 0 0 0,-0.55384 z m -5.4959772,1.366829 a 1.0900448,1.0900448 0 1 1 1.0901113,-1.089973 1.0914042,1.0914042 0 0 1 -1.0901113,1.089973 z"
       id="path8-1"
       style="fill:#d3dae3;stroke-width:0.276854;fill-opacity:1" />
  </g>
</svg>
