<?xml version="1.0" encoding="UTF-8" standalone="no"?>
<svg
   width="32"
   height="32"
   version="1.1"
   id="svg12"
   sodipodi:docname="device.svg"
   inkscape:version="1.1 (c68e22c387, 2021-05-23)"
   xmlns:inkscape="http://www.inkscape.org/namespaces/inkscape"
   xmlns:sodipodi="http://sodipodi.sourceforge.net/DTD/sodipodi-0.dtd"
   xmlns="http://www.w3.org/2000/svg"
   xmlns:svg="http://www.w3.org/2000/svg"
   xmlns:rdf="http://www.w3.org/1999/02/22-rdf-syntax-ns#"
   xmlns:cc="http://creativecommons.org/ns#"
   xmlns:dc="http://purl.org/dc/elements/1.1/">
  <metadata
     id="metadata18">
    <rdf:RDF>
      <cc:Work
         rdf:about="">
        <dc:format>image/svg+xml</dc:format>
        <dc:type
           rdf:resource="http://purl.org/dc/dcmitype/StillImage" />
      </cc:Work>
    </rdf:RDF>
  </metadata>
  <defs
     id="defs16" />
  <sodipodi:namedview
     pagecolor="#ffffff"
     bordercolor="#000000"
     borderopacity="1"
     objecttolerance="10"
     gridtolerance="10"
     guidetolerance="10"
     inkscape:pageopacity="0"
     inkscape:pageshadow="2"
     inkscape:window-width="1920"
     inkscape:window-height="1007"
     id="namedview14"
     showgrid="false"
     inkscape:zoom="13.876971"
     inkscape:cx="16.322006"
     inkscape:cy="11.890203"
     inkscape:window-x="0"
     inkscape:window-y="0"
     inkscape:window-maximized="1"
     inkscape:current-layer="svg12"
     inkscape:document-rotation="0"
     inkscape:pagecheckerboard="0"
     inkscape:showpageshadow="false"
     inkscape:lockguides="true">
    <inkscape:grid
       type="xygrid"
       id="grid865"
       originx="1e-06"
       originy="-2e-07" />
  </sodipodi:namedview>
  <g
     id="device-notifier">
    <rect
       style="opacity:0.00100002"
       width="32"
       height="32"
       x="0"
       y="0"
       id="rect7" />
    <rect
       x="14.324136"
       y="6.0689669"
       width="0.82758623"
       height="1.6551725"
       id="rect2-7"
       style="stroke-width:0.827586;fill:#d3dae3;fill-opacity:1" />
    <rect
       x="16.806896"
       y="6.0689669"
       width="0.82758623"
       height="1.6551725"
       id="rect4"
       style="stroke-width:0.827586;fill:#d3dae3;fill-opacity:1" />
    <path
       d="M 19.703448,8.9655172 V 4.413793 C 19.703448,4.185379 19.518069,4 19.289655,4 H 12.721103 C 12.492689,4 12.30731,4.185379 12.30731,4.413793 V 8.9655172 H 10.6 V 22.62069 c 0,2.962758 2.416551,5.379311 5.37931,5.379311 2.962759,0 5.37931,-2.416553 5.37931,-5.379311 V 8.9655172 Z m -6.206897,7.8620688 v -2.482758 c 0,-1.373794 1.108966,-2.48276 2.482759,-2.48276 0.686897,0 1.307586,0.28138 1.754483,0.728277 0.446896,0.446897 0.728276,1.067586 0.728276,1.754483 v 2.482758 c 0,1.373793 -1.108966,2.48276 -2.482759,2.48276 -1.373793,0 -2.482759,-1.108967 -2.482759,-2.48276 z m 4.965518,5.793104 v 0.827586 H 13.496551 V 22.62069 Z M 13.134896,4.827586 h 5.740966 v 4.1379312 h -5.740966 z"
       id="path6"
       style="fill:#d3dae3;stroke-width:0.827586;fill-opacity:1" />
  </g>
  <g
     id="22-22-device-notifier"
     transform="translate(32.000011,9.9978105)">
    <rect
       style="opacity:0.00100002"
       width="22"
       height="22"
       x="-9.9999997e-06"
       y="0.0021884663"
       id="rect2" />
    <rect
       x="9.8781233"
       y="5.071156"
       width="0.6110931"
       height="1.1034487"
       id="rect2-5"
       style="stroke-width:0.580651;fill:#d3dae3;fill-opacity:1" />
    <rect
       x="11.711409"
       y="5.071156"
       width="0.6110931"
       height="1.1034487"
       id="rect4-3"
       style="stroke-width:0.580651;fill:#d3dae3;fill-opacity:1" />
    <path
       d="m 13.850231,7.0021893 v -3.034482 c 0,-0.152276 -0.136888,-0.275862 -0.305553,-0.275862 H 8.6944315 c -0.1686541,0 -0.305542,0.123586 -0.305542,0.275862 v 3.034482 H 7.1282071 V 16.10564 c 0,1.975173 1.7843873,3.586205 3.9721019,3.586205 2.187714,0 3.972101,-1.611032 3.972101,-3.586205 V 7.0021893 Z M 9.2670282,12.24357 v -1.655169 c 0,-0.9158657 0.8188638,-1.6551767 1.8332808,-1.6551767 0.507207,0 0.965534,0.187587 1.295521,0.485518 0.329989,0.297932 0.537759,0.7117247 0.537759,1.1696587 v 1.655169 c 0,0.915864 -0.818871,1.655174 -1.83328,1.655174 -1.014417,0 -1.8332808,-0.73931 -1.8332808,-1.655174 z m 3.6665608,3.86207 v 0.551723 H 9.2670282 V 16.10564 Z M 8.99999,4.2435693 h 4.239144 v 2.75862 H 8.99999 Z"
       id="path6-5"
       style="fill:#d3dae3;stroke-width:0.580651;fill-opacity:1" />
  </g>
</svg>
