<?xml version="1.0" encoding="UTF-8" standalone="no"?>
<svg
   width="32"
   height="32"
   version="1.1"
   id="svg58"
   sodipodi:docname="disk.svg"
   inkscape:version="1.1.1 (3bf5ae0d25, 2021-09-20)"
   xmlns:inkscape="http://www.inkscape.org/namespaces/inkscape"
   xmlns:sodipodi="http://sodipodi.sourceforge.net/DTD/sodipodi-0.dtd"
   xmlns="http://www.w3.org/2000/svg"
   xmlns:svg="http://www.w3.org/2000/svg"
   xmlns:rdf="http://www.w3.org/1999/02/22-rdf-syntax-ns#"
   xmlns:cc="http://creativecommons.org/ns#"
   xmlns:dc="http://purl.org/dc/elements/1.1/">
  <metadata
     id="metadata64">
    <rdf:RDF>
      <cc:Work
         rdf:about="">
        <dc:format>image/svg+xml</dc:format>
        <dc:type
           rdf:resource="http://purl.org/dc/dcmitype/StillImage" />
      </cc:Work>
    </rdf:RDF>
  </metadata>
  <defs
     id="defs62" />
  <sodipodi:namedview
     pagecolor="#ffffff"
     bordercolor="#000000"
     borderopacity="1"
     objecttolerance="10"
     gridtolerance="10"
     guidetolerance="10"
     inkscape:pageopacity="0"
     inkscape:pageshadow="2"
     inkscape:window-width="1920"
     inkscape:window-height="1007"
     id="namedview60"
     showgrid="false"
     inkscape:zoom="3.4692427"
     inkscape:cx="63.270292"
     inkscape:cy="15.853604"
     inkscape:window-x="0"
     inkscape:window-y="0"
     inkscape:window-maximized="1"
     inkscape:current-layer="svg58"
     inkscape:document-rotation="0"
     inkscape:lockguides="false"
     inkscape:pagecheckerboard="0"
     inkscape:showpageshadow="false">
    <inkscape:grid
       type="xygrid"
       id="grid890"
       originx="0"
       originy="0" />
  </sodipodi:namedview>
  <g
     id="disk-quota">
    <rect
       style="opacity:0.00100002"
       width="32"
       height="32"
       x="0"
       y="0"
       id="rect35" />
    <g
       transform="matrix(0.00244893,0,0,-0.00244893,3.818432,16.294084)"
       id="g8">
      <path
         d="m 1843.2,4991 c -459.5,-99.5 -825.1,-463.3 -920.8,-918.9 -42.1,-199.1 -42.1,-7703.5 0,-7904.5 97.6,-463.3 461.4,-819.4 934.2,-917 128.3,-26.8 497.7,-30.6 3143.4,-30.6 3288.9,0 3149.1,-3.8 3407.6,113 338.9,157 593.5,472.8 670,836.6 42.1,199.1 42.1,7703.5 0,7902.6 -99.6,470.9 -497.7,853.8 -968.7,928.5 -82.3,13.4 -1119.9,21.1 -3128.1,19.2 -2578.6,-2.1 -3024.7,-5.9 -3137.6,-28.9 z m 145.5,-582 c 95.7,-26.8 185.7,-105.3 227.8,-201 120.6,-264.2 -120.6,-559 -400.1,-488.2 -116.8,28.7 -187.6,82.3 -235.5,178 -78.5,151.2 -38.3,348.4 90,446.1 103.4,80.4 195.3,97.7 317.8,65.1 z m 3895.7,-30.6 c 28.7,-21.1 72.7,-68.9 97.6,-103.4 40.2,-59.3 42.1,-82.3 42.1,-392.4 0,-310.1 -1.9,-333.1 -44,-392.4 -23,-36.4 -72.7,-82.3 -109.1,-103.4 -65.1,-40.2 -93.8,-40.2 -1349.6,-44 -809.8,-3.8 -1319,1.9 -1380.3,15.3 -70.8,13.4 -114.9,36.4 -162.7,86.1 l -65.1,67 v 371.4 371.4 l 67,68.9 c 36.4,36.4 91.9,76.6 124.4,86.1 30.6,7.7 652.8,15.3 1391.7,13.4 1321,-3.8 1334.4,-3.8 1388,-44 z m 2345.1,30.6 c 95.7,-26.8 185.7,-105.3 227.8,-201 120.6,-264.2 -120.6,-559 -400.1,-488.2 -116.8,28.7 -187.6,82.3 -235.5,178 -101.5,197.2 0,448 208.7,511.1 72.8,23.1 116.8,21.2 199.1,0.1 z M 5570.5,2056.3 C 6778.4,1815 7714.6,877 7961.5,-344.4 c 61.3,-302.5 61.3,-867.2 0,-1156.3 -126.4,-582 -381,-1074 -771.5,-1487.5 -432.7,-455.6 -922.7,-737 -1548.7,-886.4 -248.9,-57.4 -771.5,-80.4 -1043.3,-45.9 -1016.5,134 -1901,779.1 -2343.2,1705.7 -111,233.6 -174.2,419.2 -235.5,693 -38.3,172.3 -44,248.9 -44,608.8 0,449.9 17.2,566.7 128.3,918.9 354.2,1114.2 1326.7,1924 2504,2086.7 210.5,28.7 729.3,9.6 962.9,-36.3 z M 1975.3,-3495.4 c 97.6,-44 174.2,-134 202.9,-235.5 78.5,-292.9 -239.3,-541.8 -513.1,-400.1 -199.1,99.5 -250.8,367.5 -107.2,539.8 63.2,72.8 181.9,132.1 273.8,132.1 36.4,0 101.5,-17.2 143.6,-36.3 z m 6240.8,0 c 210.6,-93.8 277.6,-348.4 143.6,-534.1 -199.1,-275.7 -643.2,-126.4 -639.4,216.3 3.8,260.3 260.4,425 495.8,317.8 z"
         id="path4-3"
         style="fill:#d3dae3;fill-opacity:1" />
      <path
         d="m 4760.7,1372.8 c -26.8,-3.8 -107.2,-17.2 -181.9,-28.7 C 4128.9,1271.4 3663.7,1018.7 3323,662.6 2911.4,231.9 2693.2,-317.6 2693.2,-922.5 c 0,-1412.8 1269.2,-2486.8 2670.5,-2259 706.4,113 1332.4,570.5 1659.8,1208 195.3,379.1 254.6,633.7 252.7,1079.7 -1.9,287.2 -7.7,335 -61.3,539.9 -107.2,409.6 -308.2,761.9 -606.8,1058.6 -421.2,423.1 -951.5,652.8 -1541.1,670 -141.7,3.9 -279.5,3.9 -306.3,-1.9 z M 5166.5,-53.4 c 170.4,-36.4 302.5,-111 438.4,-246.9 210.6,-208.7 298.7,-470.9 250.8,-750.4 -99.6,-593.5 -721.7,-913.2 -1265.4,-650.9 -137.8,67 -321.6,250.8 -388.6,388.6 -214.4,442.2 -36.4,972.5 400.1,1192.6 153.2,76.6 384.8,105.3 564.7,67 z"
         id="path6"
         style="fill:#d3dae3;fill-opacity:1" />
    </g>
  </g>
  <g
     id="disk-quota-low"
     transform="translate(0,-22)">
    <rect
       style="opacity:0.00100002"
       width="32"
       height="32"
       x="32"
       y="22"
       id="rect40" />
    <path
       d="m 40.3323,26.071474 c -1.125284,0.243669 -2.020612,1.13459 -2.254975,2.250322 -0.1031,0.487582 -0.1031,18.865332 0,19.357567 0.239016,1.13459 1.129936,2.006654 2.28779,2.245669 0.314198,0.06563 1.218833,0.07494 7.697967,0.07494 8.054286,0 7.711925,0.0093 8.344974,-0.276729 0.829942,-0.384482 1.45344,-1.157854 1.640783,-2.048775 0.1031,-0.487581 0.1031,-18.865332 0,-19.352914 -0.243913,-1.153201 -1.218832,-2.090896 -2.372279,-2.273831 -0.201546,-0.03282 -2.742556,-0.05167 -7.660497,-0.04702 -6.314811,0.0051 -7.407279,0.01445 -7.683763,0.07077 z m 0.356319,1.425278 c 0.234363,0.06563 0.454766,0.257872 0.557866,0.492235 0.295341,0.647007 -0.295341,1.368951 -0.979817,1.195567 -0.286035,-0.07028 -0.459419,-0.201547 -0.576723,-0.435909 -0.192241,-0.370279 -0.09379,-0.853208 0.220404,-1.092468 0.253219,-0.196894 0.478276,-0.23926 0.77827,-0.159425 z m 9.540297,0.07494 c 0.07028,0.05167 0.178037,0.168731 0.239015,0.253219 0.09845,0.145222 0.1031,0.201547 0.1031,0.96096 0,0.759414 -0.0047,0.815739 -0.107753,0.960961 -0.05633,0.08914 -0.178037,0.201546 -0.267178,0.253219 -0.159425,0.09845 -0.22971,0.09845 -3.305076,0.107753 -1.983143,0.0093 -3.230139,-0.0047 -3.380258,-0.03747 -0.173384,-0.03281 -0.281382,-0.08914 -0.398441,-0.210853 L 42.9529,29.695401 v -0.909533 -0.909532 l 0.164078,-0.168731 c 0.08914,-0.08914 0.225057,-0.187589 0.304647,-0.210853 0.07494,-0.01886 1.598661,-0.03747 3.408176,-0.03282 3.235036,0.0093 3.267852,0.0093 3.399115,0.107753 z m 5.742985,-0.07494 c 0.234363,0.06563 0.454767,0.257872 0.557867,0.492235 0.295341,0.647007 -0.295341,1.368951 -0.979817,1.195567 -0.286035,-0.07028 -0.459419,-0.201547 -0.576723,-0.435909 -0.248567,-0.482929 0,-1.097121 0.511091,-1.251648 0.178283,-0.05657 0.286035,-0.05192 0.487582,-2.45e-4 z m -6.511704,5.761597 c 2.958062,0.590927 5.25075,2.888023 5.855391,5.879146 0.15012,0.740802 0.15012,2.123713 0,2.831698 -0.309545,1.425278 -0.933042,2.630151 -1.889349,3.642784 -1.059652,1.115732 -2.259628,1.804861 -3.792658,2.170731 -0.609539,0.140569 -1.88935,0.196894 -2.554969,0.112406 -2.489337,-0.328157 -4.655416,-1.907961 -5.738333,-4.17714 -0.271831,-0.57207 -0.426603,-1.026591 -0.576723,-1.697108 -0.09379,-0.421951 -0.107753,-0.609539 -0.107753,-1.490909 0,-1.101774 0.04212,-1.387809 0.314198,-2.250322 0.867411,-2.728597 3.248996,-4.711741 6.132121,-5.110182 0.5155,-0.07028 1.786005,-0.02351 2.358075,0.0889 z m -8.804394,13.595725 c 0.239016,0.107753 0.426604,0.328157 0.496888,0.576723 0.192241,0.717292 -0.586029,1.32683 -1.256546,0.979817 -0.487582,-0.243669 -0.614191,-0.899982 -0.262525,-1.321933 0.154772,-0.178282 0.44546,-0.323503 0.670517,-0.323503 0.08914,0 0.248566,0.04212 0.351666,0.0889 z m 15.283283,0 c 0.515744,0.22971 0.679823,0.853207 0.351666,1.307973 -0.487582,0.67517 -1.575152,0.309545 -1.565846,-0.529703 0.0093,-0.637457 0.637702,-1.040795 1.21418,-0.77827 z"
       id="path4-3-5"
       style="fill:#d3dae3;fill-opacity:1;stroke-width:0.00244893" />
    <path
       d="m 47.477053,34.932193 c -0.06563,0.0093 -0.262525,0.04212 -0.44546,0.07028 -1.101774,0.178037 -2.241016,0.796882 -3.075367,1.668946 -1.007979,1.054754 -1.542336,2.400441 -1.542336,3.881799 0,3.459848 3.108182,6.089999 6.539868,5.532133 1.729924,-0.276729 3.262954,-1.397115 4.064734,-2.958308 0.478276,-0.928389 0.623497,-1.551887 0.618844,-2.644109 -0.0047,-0.703333 -0.01886,-0.820392 -0.150119,-1.322178 -0.262525,-1.003081 -0.75476,-1.865839 -1.486011,-2.592437 -1.031489,-1.036142 -2.330157,-1.598661 -3.774046,-1.640783 -0.347013,-0.0096 -0.684476,-0.0096 -0.750107,0.0047 z m 0.993776,3.492664 c 0.417298,0.08914 0.740801,0.271831 1.073611,0.604641 0.515744,0.511091 0.731495,1.153201 0.614191,1.837677 -0.243913,1.45344 -1.767392,2.236363 -3.098876,1.594008 -0.337462,-0.164078 -0.787576,-0.614191 -0.951654,-0.951654 -0.52505,-1.082917 -0.08914,-2.381584 0.979817,-2.920594 0.375176,-0.187588 0.942348,-0.257872 1.382911,-0.164078 z"
       id="path6-3"
       style="fill:#00a9ff;stroke-width:0.00244893;fill-opacity:1" />
  </g>
  <g
     id="disk-quota-high"
     transform="translate(0,-22)">
    <rect
       style="opacity:0.00100002"
       width="32"
       height="32"
       x="64"
       y="22"
       id="rect49" />
    <path
       d="m 72.3323,26.071474 c -1.125284,0.243669 -2.020612,1.13459 -2.254975,2.250322 -0.1031,0.487582 -0.1031,18.865332 0,19.357567 0.239016,1.13459 1.129936,2.006654 2.28779,2.245669 0.314198,0.06563 1.218833,0.07494 7.697967,0.07494 8.054286,0 7.711925,0.0093 8.344974,-0.276729 0.829942,-0.384482 1.45344,-1.157854 1.640783,-2.048775 0.1031,-0.487581 0.1031,-18.865332 0,-19.352914 -0.243913,-1.153201 -1.218832,-2.090896 -2.372279,-2.273831 -0.201546,-0.03282 -2.742556,-0.05167 -7.660497,-0.04702 -6.314811,0.0051 -7.407279,0.01445 -7.683763,0.07077 z m 0.356319,1.425278 c 0.234363,0.06563 0.454766,0.257872 0.557866,0.492235 0.295341,0.647007 -0.295341,1.368951 -0.979817,1.195567 -0.286035,-0.07028 -0.459419,-0.201547 -0.576723,-0.435909 -0.192241,-0.370279 -0.09379,-0.853208 0.220404,-1.092468 0.253219,-0.196894 0.478276,-0.23926 0.77827,-0.159425 z m 9.540297,0.07494 c 0.07028,0.05167 0.178037,0.168731 0.239015,0.253219 0.09845,0.145222 0.1031,0.201547 0.1031,0.96096 0,0.759414 -0.0047,0.815739 -0.107753,0.960961 -0.05633,0.08914 -0.178037,0.201546 -0.267178,0.253219 -0.159425,0.09845 -0.22971,0.09845 -3.305076,0.107753 -1.983143,0.0093 -3.230139,-0.0047 -3.380258,-0.03747 -0.173384,-0.03281 -0.281382,-0.08914 -0.398441,-0.210853 L 74.9529,29.695401 v -0.909533 -0.909532 l 0.164078,-0.168731 c 0.08914,-0.08914 0.225057,-0.187589 0.304647,-0.210853 0.07494,-0.01886 1.598661,-0.03747 3.408176,-0.03282 3.235036,0.0093 3.267852,0.0093 3.399115,0.107753 z m 5.742985,-0.07494 c 0.234363,0.06563 0.454767,0.257872 0.557867,0.492235 0.295341,0.647007 -0.295341,1.368951 -0.979817,1.195567 -0.286035,-0.07028 -0.459419,-0.201547 -0.576723,-0.435909 -0.248567,-0.482929 0,-1.097121 0.511091,-1.251648 0.178283,-0.05657 0.286035,-0.05192 0.487582,-2.45e-4 z m -6.511704,5.761597 c 2.958062,0.590927 5.25075,2.888023 5.855391,5.879146 0.15012,0.740802 0.15012,2.123713 0,2.831698 -0.309545,1.425278 -0.933042,2.630151 -1.889349,3.642784 -1.059652,1.115732 -2.259628,1.804861 -3.792658,2.170731 -0.609539,0.140569 -1.88935,0.196894 -2.554969,0.112406 -2.489337,-0.328157 -4.655416,-1.907961 -5.738333,-4.17714 -0.271831,-0.57207 -0.426603,-1.026591 -0.576723,-1.697108 -0.09379,-0.421951 -0.107753,-0.609539 -0.107753,-1.490909 0,-1.101774 0.04212,-1.387809 0.314198,-2.250322 0.867411,-2.728597 3.248996,-4.711741 6.132121,-5.110182 0.5155,-0.07028 1.786005,-0.02351 2.358075,0.0889 z m -8.804394,13.595725 c 0.239016,0.107753 0.426604,0.328157 0.496888,0.576723 0.192241,0.717292 -0.586029,1.32683 -1.256546,0.979817 -0.487582,-0.243669 -0.614191,-0.899982 -0.262525,-1.321933 0.154772,-0.178282 0.44546,-0.323503 0.670517,-0.323503 0.08914,0 0.248566,0.04212 0.351666,0.0889 z m 15.283283,0 c 0.515744,0.22971 0.679823,0.853207 0.351666,1.307973 -0.487582,0.67517 -1.575152,0.309545 -1.565846,-0.529703 0.0093,-0.637457 0.637702,-1.040795 1.21418,-0.77827 z"
       id="path4-3-2"
       style="fill:#d3dae3;fill-opacity:1;stroke-width:0.00244893" />
    <path
       d="m 79.477053,34.932193 c -0.06563,0.0093 -0.262525,0.04212 -0.44546,0.07028 -1.101774,0.178037 -2.241016,0.796882 -3.075367,1.668946 -1.007979,1.054754 -1.542336,2.400441 -1.542336,3.881799 0,3.459848 3.108182,6.089999 6.539868,5.532133 1.729924,-0.276729 3.262954,-1.397115 4.064734,-2.958308 0.478276,-0.928389 0.623497,-1.551887 0.618844,-2.644109 -0.0047,-0.703333 -0.01886,-0.820392 -0.150119,-1.322178 -0.262525,-1.003081 -0.75476,-1.865839 -1.486011,-2.592437 -1.031489,-1.036142 -2.330157,-1.598661 -3.774046,-1.640783 -0.347013,-0.0096 -0.684476,-0.0096 -0.750107,0.0047 z m 0.993776,3.492664 c 0.417298,0.08914 0.740801,0.271831 1.073611,0.604641 0.515744,0.511091 0.731495,1.153201 0.614191,1.837677 -0.243913,1.45344 -1.767392,2.236363 -3.098876,1.594008 -0.337462,-0.164078 -0.787576,-0.614191 -0.951654,-0.951654 -0.52505,-1.082917 -0.08914,-2.381584 0.979817,-2.920594 0.375176,-0.187588 0.942348,-0.257872 1.382911,-0.164078 z"
       id="path6-9"
       style="fill:#ff6600;stroke-width:0.00244893" />
  </g>
  <g
     id="disk-quota-critical"
     transform="translate(0,-22)">
    <rect
       style="opacity:0.00100002"
       width="32"
       height="32"
       x="96"
       y="22"
       id="rect2" />
    <path
       d="m 104.3323,26.071474 c -1.12528,0.243669 -2.02061,1.13459 -2.25497,2.250322 -0.1031,0.487582 -0.1031,18.865332 0,19.357567 0.23901,1.13459 1.12993,2.006654 2.28779,2.245669 0.31419,0.06563 1.21883,0.07494 7.69796,0.07494 8.05429,0 7.71193,0.0093 8.34498,-0.276729 0.82994,-0.384482 1.45344,-1.157854 1.64078,-2.048775 0.1031,-0.487581 0.1031,-18.865332 0,-19.352914 -0.24391,-1.153201 -1.21883,-2.090896 -2.37228,-2.273831 -0.20155,-0.03282 -2.74256,-0.05167 -7.6605,-0.04702 -6.31481,0.0051 -7.40728,0.01445 -7.68376,0.07077 z m 0.35632,1.425278 c 0.23436,0.06563 0.45477,0.257872 0.55787,0.492235 0.29534,0.647007 -0.29535,1.368951 -0.97982,1.195567 -0.28604,-0.07028 -0.45942,-0.201547 -0.57672,-0.435909 -0.19225,-0.370279 -0.0938,-0.853208 0.2204,-1.092468 0.25322,-0.196894 0.47828,-0.23926 0.77827,-0.159425 z m 9.5403,0.07494 c 0.0703,0.05167 0.17803,0.168731 0.23901,0.253219 0.0984,0.145222 0.1031,0.201547 0.1031,0.96096 0,0.759414 -0.005,0.815739 -0.10775,0.960961 -0.0563,0.08914 -0.17804,0.201546 -0.26718,0.253219 -0.15943,0.09845 -0.22971,0.09845 -3.30508,0.107753 -1.98314,0.0093 -3.23013,-0.0047 -3.38025,-0.03747 -0.17339,-0.03281 -0.28139,-0.08914 -0.39844,-0.210853 L 106.9529,29.695403 V 28.78587 27.876338 l 0.16408,-0.168731 c 0.0891,-0.08914 0.22505,-0.187589 0.30464,-0.210853 0.0749,-0.01886 1.59867,-0.03747 3.40818,-0.03282 3.23504,0.0093 3.26785,0.0093 3.39912,0.107753 z m 5.74298,-0.07494 c 0.23436,0.06563 0.45477,0.257872 0.55787,0.492235 0.29534,0.647007 -0.29534,1.368951 -0.97982,1.195567 -0.28603,-0.07028 -0.45942,-0.201547 -0.57672,-0.435909 -0.24857,-0.482929 0,-1.097121 0.51109,-1.251648 0.17828,-0.05657 0.28603,-0.05192 0.48758,-2.45e-4 z m -6.5117,5.761597 c 2.95806,0.590927 5.25075,2.888023 5.85539,5.879146 0.15012,0.740802 0.15012,2.123713 0,2.831698 -0.30955,1.425278 -0.93304,2.630151 -1.88935,3.642784 -1.05965,1.115732 -2.25963,1.804861 -3.79266,2.170731 -0.60954,0.140569 -1.88935,0.196894 -2.55497,0.112406 -2.48934,-0.328157 -4.65541,-1.907961 -5.73833,-4.17714 -0.27183,-0.57207 -0.4266,-1.026591 -0.57672,-1.697108 -0.0938,-0.421951 -0.10776,-0.609539 -0.10776,-1.490909 0,-1.101774 0.0421,-1.387809 0.3142,-2.250322 0.86741,-2.728597 3.249,-4.711741 6.13212,-5.110182 0.5155,-0.07028 1.78601,-0.02351 2.35808,0.0889 z m -8.8044,13.595725 c 0.23902,0.107753 0.42661,0.328157 0.49689,0.576723 0.19224,0.717292 -0.58603,1.32683 -1.25654,0.979817 -0.48759,-0.243669 -0.6142,-0.899982 -0.26253,-1.321933 0.15477,-0.178282 0.44546,-0.323503 0.67052,-0.323503 0.0891,0 0.24856,0.04212 0.35166,0.0889 z m 15.28329,0 c 0.51574,0.22971 0.67982,0.853207 0.35166,1.307973 -0.48758,0.67517 -1.57515,0.309545 -1.56584,-0.529703 0.009,-0.637457 0.6377,-1.040795 1.21418,-0.77827 z"
       id="path4-3-7"
       style="fill:#d3dae3;fill-opacity:1;stroke-width:0.00244893" />
    <path
       d="m 111.47705,34.932193 c -0.0656,0.0093 -0.26252,0.04212 -0.44546,0.07028 -1.10177,0.178037 -2.24101,0.796882 -3.07536,1.668946 -1.00798,1.054754 -1.54234,2.400441 -1.54234,3.881799 0,3.459848 3.10818,6.089999 6.53987,5.532133 1.72992,-0.276729 3.26295,-1.397115 4.06473,-2.958308 0.47828,-0.928389 0.6235,-1.551887 0.61885,-2.644109 -0.005,-0.703333 -0.0189,-0.820392 -0.15012,-1.322178 -0.26253,-1.003081 -0.75476,-1.865839 -1.48601,-2.592437 -1.03149,-1.036142 -2.33016,-1.598661 -3.77405,-1.640783 -0.34701,-0.0096 -0.68448,-0.0096 -0.75011,0.0047 z m 0.99378,3.492664 c 0.4173,0.08914 0.7408,0.271831 1.07361,0.604641 0.51574,0.511091 0.7315,1.153201 0.61419,1.837677 -0.24391,1.45344 -1.76739,2.236363 -3.09887,1.594008 -0.33747,-0.164078 -0.78758,-0.614191 -0.95166,-0.951654 -0.52505,-1.082917 -0.0891,-2.381584 0.97982,-2.920594 0.37517,-0.187588 0.94235,-0.257872 1.38291,-0.164078 z"
       id="path6-0"
       style="fill:#ff0066;stroke-width:0.00244893;fill-opacity:1" />
  </g>
  <g
     id="22-22-disk-quota-low"
     transform="translate(0,-22)">
    <rect
       style="opacity:0.00100002"
       width="22"
       height="22"
       x="32"
       y="0"
       id="rect17" />
    <path
       d="m 37.854866,3.0476496 c -0.750189,0.1624457 -1.347075,0.7563928 -1.503316,1.5002145 -0.06873,0.3250546 -0.06873,12.5768879 0,12.9050449 0.159343,0.756393 0.753291,1.337769 1.525193,1.497112 0.209465,0.04376 0.812555,0.04996 5.131978,0.04996 5.369524,0 5.141284,0.0062 5.563316,-0.184486 0.553295,-0.256322 0.96896,-0.771903 1.093855,-1.36585 0.06873,-0.325055 0.06873,-12.5768885 0,-12.9019432 -0.162609,-0.7688007 -0.812555,-1.3939309 -1.581519,-1.5158876 -0.134364,-0.021877 -1.828371,-0.034448 -5.106998,-0.031346 -4.209874,0.00343 -4.938186,0.00963 -5.122509,0.047183 z m 0.237546,0.9501848 c 0.156242,0.043754 0.303178,0.1719149 0.371911,0.3281566 0.196894,0.4313382 -0.196894,0.9126346 -0.653211,0.7970451 C 37.620422,5.0761799 37.504832,4.9886715 37.42663,4.8324298 37.298469,4.5855776 37.364101,4.263625 37.573566,4.104118 37.742379,3.9728553 37.892416,3.944611 38.092412,3.9978344 Z m 6.360198,0.049958 c 0.04686,0.034448 0.118692,0.1124875 0.159344,0.1688129 0.06563,0.096814 0.06873,0.1343646 0.06873,0.6406401 0,0.5062754 -0.0031,0.5438257 -0.07184,0.6406401 -0.03755,0.059427 -0.118692,0.1343646 -0.178119,0.1688129 -0.106284,0.065631 -0.15314,0.065631 -2.203384,0.071835 -1.322096,0.0062 -2.153426,-0.0031 -2.253505,-0.024979 -0.11559,-0.021877 -0.187588,-0.059427 -0.265628,-0.1405686 L 39.601933,5.4636007 V 4.8572456 4.2508905 L 39.711318,4.138403 c 0.05943,-0.059427 0.150038,-0.1250587 0.203098,-0.1405686 0.04996,-0.012571 1.065775,-0.024979 2.272118,-0.021877 2.156691,0.0062 2.178568,0.0062 2.266076,0.071835 z m 3.828657,-0.049958 c 0.156242,0.043754 0.303178,0.1719149 0.371911,0.3281566 0.196894,0.4313382 -0.196894,0.9126346 -0.653211,0.7970451 -0.19069,-0.046856 -0.30628,-0.1343646 -0.384482,-0.2906063 -0.165711,-0.3219527 0,-0.7314138 0.340728,-0.8344321 0.118854,-0.037714 0.19069,-0.034612 0.325054,-1.633e-4 z m -4.341136,3.8410651 c 1.972041,0.3939512 3.5005,1.9253488 3.903594,3.9194305 0.10008,0.493868 0.10008,1.415808 0,1.887799 -0.206363,0.950185 -0.622028,1.753434 -1.259566,2.428522 -0.706435,0.743822 -1.506419,1.203241 -2.528439,1.447154 -0.406359,0.09371 -1.259566,0.131263 -1.703312,0.07494 -1.659558,-0.218771 -3.103611,-1.271975 -3.825555,-2.78476 -0.181221,-0.38138 -0.284403,-0.684395 -0.384482,-1.131406 -0.06253,-0.2813 -0.07184,-0.406359 -0.07184,-0.993939 0,-0.734516 0.02808,-0.925206 0.209465,-1.500214 0.578274,-1.8190657 2.165997,-3.1411613 4.088081,-3.4067886 0.343666,-0.046856 1.19067,-0.015673 1.57205,0.059264 z m -5.869596,9.0638165 c 0.159344,0.07184 0.284403,0.218771 0.331259,0.384482 0.128161,0.478194 -0.390686,0.884553 -0.837697,0.653211 -0.325055,-0.162445 -0.409462,-0.599988 -0.175017,-0.881288 0.103181,-0.118855 0.296973,-0.215669 0.447011,-0.215669 0.05943,0 0.165711,0.02808 0.234444,0.05926 z m 10.188855,0 c 0.34383,0.15314 0.453215,0.568805 0.234444,0.871982 -0.325054,0.450114 -1.050101,0.206363 -1.043897,-0.353135 0.0062,-0.424971 0.425134,-0.693864 0.809453,-0.518847 z"
       id="path4-3-6-1"
       style="fill:#d3dae3;fill-opacity:1;stroke-width:0.00163262" />
    <path
       d="m 42.618035,8.9547953 c -0.04375,0.0062 -0.175017,0.028081 -0.296974,0.046856 -0.734515,0.1186914 -1.49401,0.5312545 -2.050244,1.1126307 -0.671986,0.703169 -1.028224,1.600294 -1.028224,2.587866 0,2.306565 2.072121,4.059999 4.359912,3.688089 1.153283,-0.184487 2.175303,-0.93141 2.709823,-1.972205 0.31885,-0.618927 0.415665,-1.034592 0.412563,-1.76274 -0.0031,-0.468889 -0.01257,-0.546928 -0.10008,-0.881452 -0.175017,-0.668721 -0.503173,-1.243893 -0.990674,-1.728291 -0.687659,-0.690762 -1.553438,-1.0657748 -2.51603,-1.0938559 -0.231343,-0.00637 -0.456318,-0.00637 -0.500072,0.0031 z m 0.662517,2.3284427 c 0.278199,0.05943 0.493868,0.181221 0.715741,0.403094 0.34383,0.340728 0.487663,0.768801 0.409461,1.225118 -0.162609,0.96896 -1.178262,1.490908 -2.065917,1.062672 -0.224975,-0.109385 -0.525051,-0.409461 -0.634437,-0.634436 -0.350033,-0.721945 -0.05943,-1.587723 0.653212,-1.947063 0.250117,-0.125058 0.628232,-0.171914 0.92194,-0.109385 z"
       id="path6-06-8"
       style="fill:#00a9ff;stroke-width:0.00163262;fill-opacity:1" />
  </g>
  <g
     id="22-22-disk-quota-critical"
     transform="translate(64,-22)">
    <rect
       style="opacity:0.00100002"
       width="22"
       height="22"
       x="32"
       y="0"
       id="rect7" />
    <path
       d="m 37.85487,3.0476496 c -0.75019,0.1624457 -1.34708,0.7563928 -1.50332,1.5002145 -0.0687,0.3250546 -0.0687,12.5768879 0,12.9050449 0.15934,0.756393 0.75329,1.337769 1.52519,1.497112 0.20947,0.04376 0.81256,0.04996 5.13198,0.04996 5.36952,0 5.14128,0.0062 5.56332,-0.184486 0.55329,-0.256322 0.96896,-0.771903 1.09385,-1.36585 0.0687,-0.325055 0.0687,-12.5768885 0,-12.9019432 -0.16261,-0.7688007 -0.81255,-1.3939309 -1.58152,-1.5158876 -0.13436,-0.021877 -1.82837,-0.034448 -5.107,-0.031346 -4.20987,0.00343 -4.93818,0.00963 -5.1225,0.047183 z m 0.23754,0.9501848 c 0.15624,0.043754 0.30318,0.1719149 0.37191,0.3281566 0.1969,0.4313382 -0.19689,0.9126346 -0.65321,0.7970451 C 37.62042,5.0761801 37.50483,4.9886715 37.42663,4.8324298 37.29847,4.5855776 37.36413,4.263625 37.57357,4.104118 37.74238,3.9728553 37.89242,3.944611 38.09241,3.9978344 Z m 6.3602,0.049958 c 0.0469,0.034448 0.11869,0.1124875 0.15934,0.1688129 0.0656,0.096814 0.0687,0.1343646 0.0687,0.6406401 0,0.5062754 -0.003,0.5438257 -0.0718,0.6406401 -0.0376,0.059427 -0.11869,0.1343646 -0.17812,0.1688129 -0.10628,0.065631 -0.15314,0.065631 -2.20338,0.071835 -1.3221,0.0062 -2.15343,-0.0031 -2.25351,-0.024979 -0.11559,-0.021877 -0.18758,-0.059427 -0.26562,-0.1405686 L 39.60193,5.4636007 V 4.8572456 4.2508905 L 39.71132,4.138403 c 0.0594,-0.059427 0.15004,-0.1250587 0.2031,-0.1405686 0.0499,-0.012571 1.06577,-0.024979 2.27211,-0.021877 2.15669,0.0062 2.17857,0.0062 2.26608,0.071835 z m 3.82866,-0.049958 c 0.15624,0.043754 0.30317,0.1719149 0.37191,0.3281566 0.19689,0.4313382 -0.1969,0.9126346 -0.65321,0.7970451 -0.19069,-0.046856 -0.30628,-0.1343646 -0.38449,-0.2906063 -0.16571,-0.3219527 0,-0.7314138 0.34073,-0.8344321 0.11886,-0.037714 0.19069,-0.034612 0.32506,-1.633e-4 z m -4.34114,3.8410651 c 1.97204,0.3939512 3.5005,1.9253488 3.9036,3.9194305 0.10007,0.493868 0.10007,1.415808 0,1.887799 -0.20637,0.950185 -0.62203,1.753434 -1.25957,2.428522 -0.70644,0.743822 -1.50642,1.203241 -2.52844,1.447154 -0.40636,0.09371 -1.25957,0.131263 -1.70331,0.07494 -1.65956,-0.218771 -3.10361,-1.271975 -3.82556,-2.78476 -0.18122,-0.38138 -0.2844,-0.684395 -0.38448,-1.131406 -0.0625,-0.2813 -0.0718,-0.406359 -0.0718,-0.993939 0,-0.734516 0.0281,-0.925206 0.20946,-1.500214 0.57827,-1.8190657 2.166,-3.1411613 4.08808,-3.4067886 0.34367,-0.046856 1.19067,-0.015673 1.57205,0.059264 z m -5.86959,9.0638165 c 0.15934,0.07184 0.2844,0.218771 0.33125,0.384482 0.12816,0.478194 -0.39068,0.884553 -0.83769,0.653211 -0.32506,-0.162445 -0.40946,-0.599988 -0.17502,-0.881288 0.10318,-0.118855 0.29697,-0.215669 0.44701,-0.215669 0.0594,0 0.16571,0.02808 0.23445,0.05926 z m 10.18885,0 c 0.34383,0.15314 0.45322,0.568805 0.23444,0.871982 -0.32505,0.450114 -1.0501,0.206363 -1.04389,-0.353135 0.006,-0.424971 0.42513,-0.693864 0.80945,-0.518847 z"
       id="path4-3-6-1-7"
       style="fill:#d3dae3;fill-opacity:1;stroke-width:0.00163262" />
    <path
       d="m 42.61804,8.9547953 c -0.0438,0.0062 -0.17502,0.028081 -0.29698,0.046856 -0.73451,0.1186914 -1.49401,0.5312545 -2.05024,1.1126307 -0.67199,0.703169 -1.02823,1.600294 -1.02823,2.587866 0,2.306565 2.07212,4.059999 4.35991,3.688089 1.15329,-0.184487 2.17531,-0.93141 2.70983,-1.972205 0.31885,-0.618927 0.41566,-1.034592 0.41256,-1.76274 -0.003,-0.468889 -0.0126,-0.546928 -0.10008,-0.881452 -0.17502,-0.668721 -0.50317,-1.243893 -0.99067,-1.728291 -0.68766,-0.690762 -1.55344,-1.0657748 -2.51603,-1.0938559 -0.23135,-0.00637 -0.45632,-0.00637 -0.50007,0.0031 z m 0.66251,2.3284427 c 0.2782,0.05943 0.49387,0.181221 0.71574,0.403094 0.34383,0.340728 0.48767,0.768801 0.40946,1.225118 -0.16261,0.96896 -1.17826,1.490908 -2.06591,1.062672 -0.22498,-0.109385 -0.52505,-0.409461 -0.63444,-0.634436 -0.35003,-0.721945 -0.0594,-1.587723 0.65321,-1.947063 0.25012,-0.125058 0.62823,-0.171914 0.92194,-0.109385 z"
       id="path6-06-8-5"
       style="fill:#ff0066;stroke-width:0.00163262" />
  </g>
  <g
     id="22-22-disk-quota"
     transform="translate(0,-22)">
    <rect
       style="opacity:0.00100002"
       width="22"
       height="22"
       x="0"
       y="0"
       id="rect12" />
    <path
       d="M 5.8548665,3.0476496 C 5.1046776,3.2100953 4.5077917,3.8040424 4.35155,4.5478641 c -0.068733,0.3250546 -0.068733,12.5768879 0,12.9050449 0.1593437,0.756393 0.7532909,1.337769 1.5251936,1.497112 0.2094651,0.04376 0.812555,0.04996 5.1319774,0.04996 5.369524,0 5.141284,0.0062 5.563316,-0.184486 0.553295,-0.256322 0.96896,-0.771903 1.093856,-1.36585 0.06873,-0.325055 0.06873,-12.5768885 0,-12.9019432 -0.162609,-0.7688007 -0.812555,-1.3939309 -1.581519,-1.5158876 -0.134365,-0.021877 -1.828372,-0.034448 -5.106999,-0.031346 -4.2098739,0.00343 -4.9381857,0.00963 -5.1225085,0.047183 z M 6.0924127,3.9978344 C 6.2486544,4.0415886 6.3955902,4.1697493 6.4643235,4.325991 6.6612175,4.7573292 6.2674296,5.2386256 5.8111123,5.1230361 5.6204223,5.0761799 5.5048328,4.9886715 5.4266303,4.8324298 5.2984696,4.5855776 5.3641009,4.263625 5.5735661,4.104118 5.742379,3.9728553 5.8924167,3.944611 6.0924127,3.9978344 Z m 6.3601973,0.049958 c 0.04686,0.034448 0.118692,0.1124875 0.159344,0.1688129 0.06563,0.096814 0.06873,0.1343646 0.06873,0.6406401 0,0.5062754 -0.0031,0.5438257 -0.07184,0.6406401 -0.03755,0.059427 -0.118691,0.1343646 -0.178119,0.1688129 -0.106283,0.065631 -0.153139,0.065631 -2.203384,0.071835 -1.3220953,0.0062 -2.1534254,-0.0031 -2.253505,-0.024979 C 7.8582545,5.6916777 7.7862559,5.6541274 7.7082167,5.5729862 L 7.6019331,5.4636007 V 4.8572456 4.2508905 L 7.7113187,4.138403 c 0.059427,-0.059427 0.1500378,-0.1250587 0.2030979,-0.1405686 0.049958,-0.012571 1.0657743,-0.024979 2.2721174,-0.021877 2.156691,0.0062 2.178568,0.0062 2.266076,0.071835 z m 3.828658,-0.049958 c 0.156241,0.043754 0.303177,0.1719149 0.37191,0.3281566 0.196894,0.4313382 -0.196894,0.9126346 -0.653211,0.7970451 -0.19069,-0.046856 -0.306279,-0.1343646 -0.384482,-0.2906063 -0.165711,-0.3219527 0,-0.7314138 0.340728,-0.8344321 0.118855,-0.037714 0.19069,-0.034612 0.325055,-1.633e-4 z m -4.341137,3.8410651 c 1.972042,0.3939512 3.500501,1.9253488 3.903594,3.9194305 0.10008,0.493868 0.10008,1.415808 0,1.887799 -0.206363,0.950185 -0.622028,1.753434 -1.259566,2.428522 -0.706435,0.743822 -1.506418,1.203241 -2.528438,1.447154 -0.40636,0.09371 -1.259567,0.131263 -1.703313,0.07494 C 8.6928498,17.377974 7.2487974,16.32477 6.5268529,14.811985 6.3456321,14.430605 6.2424505,14.12759 6.1423709,13.680579 c -0.062529,-0.2813 -0.071835,-0.406359 -0.071835,-0.993939 0,-0.734516 0.028081,-0.925206 0.2094651,-1.500214 0.578274,-1.8190657 2.165997,-3.1411613 4.08808,-3.4067886 0.343667,-0.046856 1.19067,-0.015673 1.57205,0.059264 z M 6.0705356,16.902716 c 0.1593437,0.07184 0.2844024,0.218771 0.3312586,0.384482 0.1281607,0.478194 -0.390686,0.884553 -0.8376973,0.653211 C 5.2390422,17.777964 5.1546358,17.340421 5.38908,17.059121 c 0.1031816,-0.118855 0.2969736,-0.215669 0.4470114,-0.215669 0.059427,0 0.1657109,0.02808 0.2344442,0.05926 z m 10.1888544,0 c 0.34383,0.15314 0.453216,0.568805 0.234445,0.871982 -0.325055,0.450114 -1.050101,0.206363 -1.043898,-0.353135 0.0062,-0.424971 0.425135,-0.693864 0.809453,-0.518847 z"
       id="path4-3-6-1-7-2"
       style="fill:#d3dae3;fill-opacity:1;stroke-width:0.00163262" />
    <path
       d="m 10.618035,8.9547953 c -0.04375,0.0062 -0.175017,0.028081 -0.296973,0.046856 -0.734516,0.1186914 -1.4940108,0.5312545 -2.0502444,1.1126307 -0.6719864,0.703169 -1.0282241,1.600294 -1.0282241,2.587866 0,2.306565 2.0721213,4.059999 4.3599115,3.688089 1.153283,-0.184487 2.175303,-0.93141 2.709823,-1.972205 0.318851,-0.618927 0.415665,-1.034592 0.412563,-1.76274 -0.0031,-0.468889 -0.01257,-0.546928 -0.10008,-0.881452 -0.175017,-0.668721 -0.503173,-1.243893 -0.990673,-1.728291 -0.68766,-0.690762 -1.553438,-1.0657748 -2.516031,-1.0938559 -0.231342,-0.00637 -0.456317,-0.00637 -0.500072,0.0031 z m 0.662518,2.3284427 c 0.278198,0.05943 0.493867,0.181221 0.71574,0.403094 0.34383,0.340728 0.487664,0.768801 0.409461,1.225118 -0.162609,0.96896 -1.178262,1.490908 -2.065917,1.062672 -0.224975,-0.109385 -0.5250507,-0.409461 -0.6344362,-0.634436 -0.3500338,-0.721945 -0.059427,-1.587723 0.6532112,-1.947063 0.250117,-0.125058 0.628232,-0.171914 0.921941,-0.109385 z"
       id="path6-06-8-5-2"
       style="fill:#d3dae3;stroke-width:0.00163262;fill-opacity:1" />
  </g>
  <g
     id="22-22-disk-quota-high"
     transform="translate(64,-22)">
    <rect
       style="opacity:0.00100002"
       width="22"
       height="22"
       x="0"
       y="-5.9604645e-07"
       id="rect26" />
    <path
       d="m 5.854845,3.0476523 c -0.75019,0.162445 -1.34708,0.756392 -1.50332,1.500214 -0.0687,0.325055 -0.0687,12.5768877 0,12.9050447 0.15934,0.756393 0.75329,1.337769 1.52519,1.497112 0.20947,0.04376 0.81256,0.04996 5.13198,0.04996 5.36952,0 5.14128,0.0062 5.56332,-0.184486 0.55329,-0.256322 0.96896,-0.771903 1.09385,-1.36585 0.0687,-0.325055 0.0687,-12.5768887 0,-12.9019427 -0.16261,-0.768801 -0.81255,-1.393931 -1.58152,-1.515888 -0.13436,-0.02188 -1.82837,-0.03445 -5.107,-0.03135 -4.20987,0.0034 -4.93818,0.0096 -5.1225,0.04718 z m 0.23754,0.950184 c 0.15624,0.04375 0.30318,0.171915 0.37191,0.328157 0.1969,0.431338 -0.19689,0.912635 -0.65321,0.797045 -0.19069,-0.04686 -0.30628,-0.134365 -0.38448,-0.290606 -0.12816,-0.246852 -0.0625,-0.568805 0.14694,-0.728312 0.16881,-0.131263 0.31885,-0.159507 0.51884,-0.106284 z m 6.3602,0.04996 c 0.0469,0.03445 0.11869,0.112488 0.15934,0.168813 0.0656,0.09681 0.0687,0.134365 0.0687,0.64064 0,0.506276 -0.003,0.543826 -0.0718,0.64064 -0.0376,0.05943 -0.11869,0.134365 -0.17812,0.168813 -0.10628,0.06563 -0.15314,0.06563 -2.20338,0.07184 -1.3221,0.0062 -2.15343,-0.0031 -2.25351,-0.02498 -0.11559,-0.02188 -0.18758,-0.05943 -0.26562,-0.140568 l -0.10629,-0.109385 v -0.606355 -0.606355 l 0.10939,-0.112488 c 0.0594,-0.05943 0.15004,-0.125059 0.2031,-0.140569 0.0499,-0.01257 1.06577,-0.02498 2.27211,-0.02188 2.15669,0.0062 2.17857,0.0062 2.26608,0.07183 z m 3.82866,-0.04996 c 0.15624,0.04375 0.30317,0.171915 0.37191,0.328157 0.19689,0.431338 -0.1969,0.912635 -0.65321,0.797045 -0.19069,-0.04686 -0.30628,-0.134364 -0.38449,-0.290606 -0.16571,-0.321953 0,-0.731414 0.34073,-0.834432 0.11886,-0.03771 0.19069,-0.03461 0.32506,-1.64e-4 z m -4.34114,3.841065 c 1.97204,0.393952 3.5005,1.925349 3.9036,3.9194307 0.10007,0.493868 0.10007,1.415808 0,1.887799 -0.20637,0.950185 -0.62203,1.753434 -1.25957,2.428522 -0.70644,0.743822 -1.50642,1.203241 -2.52844,1.447154 -0.40636,0.09371 -1.25957,0.131263 -1.70331,0.07494 -1.65956,-0.218771 -3.10361,-1.271975 -3.82556,-2.78476 -0.18122,-0.38138 -0.2844,-0.684395 -0.38448,-1.131406 -0.0625,-0.2813 -0.0718,-0.406359 -0.0718,-0.993939 0,-0.734516 0.0281,-0.925206 0.20946,-1.500214 0.57827,-1.8190657 2.166,-3.1411607 4.08808,-3.4067887 0.34367,-0.04686 1.19067,-0.01567 1.57205,0.05926 z m -5.86959,9.0638167 c 0.15934,0.07184 0.2844,0.218771 0.33125,0.384482 0.12816,0.478194 -0.39068,0.884553 -0.83769,0.653211 -0.32506,-0.162445 -0.40946,-0.599988 -0.17502,-0.881288 0.10318,-0.118855 0.29697,-0.215669 0.44701,-0.215669 0.0594,0 0.16571,0.02808 0.23445,0.05926 z m 10.18885,0 c 0.34383,0.15314 0.45322,0.568805 0.23444,0.871982 -0.32505,0.450114 -1.0501,0.206363 -1.04389,-0.353135 0.006,-0.424971 0.42513,-0.693864 0.80945,-0.518847 z"
       id="path4-3-6-1-7-8"
       style="fill:#d3dae3;fill-opacity:1;stroke-width:0.00163262" />
    <path
       d="m 10.618015,8.9547973 c -0.0438,0.0062 -0.17502,0.02808 -0.29698,0.04686 -0.73451,0.118692 -1.49401,0.531255 -2.05024,1.1126307 -0.67199,0.703169 -1.02823,1.600294 -1.02823,2.587866 0,2.306565 2.07212,4.059999 4.35991,3.688089 1.15329,-0.184487 2.17531,-0.93141 2.70983,-1.972205 0.31885,-0.618927 0.41566,-1.034592 0.41256,-1.76274 -0.003,-0.468889 -0.0126,-0.546928 -0.10008,-0.881452 -0.17502,-0.668721 -0.50317,-1.243893 -0.99067,-1.728291 -0.68766,-0.6907617 -1.55344,-1.0657747 -2.51603,-1.0938557 -0.23135,-0.0064 -0.45632,-0.0064 -0.50007,0.0031 z m 0.66251,2.3284427 c 0.2782,0.05943 0.49387,0.181221 0.71574,0.403094 0.34383,0.340728 0.48767,0.768801 0.40946,1.225118 -0.16261,0.96896 -1.17826,1.490908 -2.06591,1.062672 -0.22498,-0.109385 -0.52505,-0.409461 -0.63444,-0.634436 -0.35003,-0.721945 -0.0594,-1.587723 0.65321,-1.947063 0.25012,-0.125058 0.62823,-0.171914 0.92194,-0.109385 z"
       id="path6-06-8-5-9"
       style="fill:#ff6600;stroke-width:0.00163262" />
  </g>
</svg>
