<?xml version="1.0" encoding="UTF-8" standalone="no"?>
<svg
   version="1.1"
   viewBox="0 0 22 22"
   id="svg7"
   sodipodi:docname="distribute.svg"
   inkscape:version="1.1.1 (3bf5ae0d25, 2021-09-20)"
   xmlns:inkscape="http://www.inkscape.org/namespaces/inkscape"
   xmlns:sodipodi="http://sodipodi.sourceforge.net/DTD/sodipodi-0.dtd"
   xmlns="http://www.w3.org/2000/svg"
   xmlns:svg="http://www.w3.org/2000/svg"
   xmlns:rdf="http://www.w3.org/1999/02/22-rdf-syntax-ns#"
   xmlns:cc="http://creativecommons.org/ns#"
   xmlns:dc="http://purl.org/dc/elements/1.1/">
  <g
     id="distribute-horizontal-x">
    <path
       style="opacity:0.00100002"
       d="m 0,-2e-5 h 22 v 22 H 0 Z"
       id="path2" />
    <path
       class="fil0"
       d="M 5.2999184,8.9000001 H 16.83685 c 0.679668,0 1.219916,0.557677 1.219916,1.2199169 v 1.742739 c 0,0.679669 -0.540248,1.237345 -1.219916,1.237345 H 5.2999184 c -0.662241,0 -1.219917,-0.557676 -1.219917,-1.237345 v -1.742739 c 0,-0.6622399 0.557676,-1.2199169 1.219917,-1.2199169 z m 0,0.609959 H 16.83685 c 0.331119,0 0.609959,0.278838 0.609959,0.6099579 v 1.742739 c 0,0.348548 -0.27884,0.609959 -0.609959,0.609959 H 5.2999184 c -0.3311211,0 -0.6099591,-0.261411 -0.6099591,-0.609959 v -1.742739 c 0,-0.3311199 0.278838,-0.6099579 0.6099591,-0.6099579 z"
       id="path6-3"
       style="fill:#d3dae3;fill-rule:evenodd;stroke-width:0.0174274;image-rendering:optimizeQuality;shape-rendering:geometricPrecision;text-rendering:geometricPrecision;fill-opacity:1" />
    <rect
       x="5.8000002"
       y="-20"
       width="0.82000005"
       height="18"
       rx="0.41000003"
       ry="0.45375058"
       transform="rotate(90)"
       id="rect4"
       style="stroke-width:0.247945;fill:#d3dae3;fill-opacity:1" />
    <rect
       x="15.380001"
       y="-20"
       width="0.82000005"
       height="18"
       rx="0.41000003"
       ry="0.45375058"
       transform="rotate(90)"
       id="rect4-6"
       style="stroke-width:0.247945;fill:#d3dae3;fill-opacity:1" />
  </g>
  <metadata
     id="metadata13">
    <rdf:RDF>
      <cc:Work
         rdf:about="">
        <dc:format>image/svg+xml</dc:format>
        <dc:type
           rdf:resource="http://purl.org/dc/dcmitype/StillImage" />
      </cc:Work>
    </rdf:RDF>
  </metadata>
  <defs
     id="defs11" />
  <sodipodi:namedview
     pagecolor="#ffffff"
     bordercolor="#000000"
     borderopacity="1"
     objecttolerance="10"
     gridtolerance="10"
     guidetolerance="10"
     inkscape:pageopacity="0"
     inkscape:pageshadow="2"
     inkscape:window-width="1920"
     inkscape:window-height="1007"
     id="namedview9"
     showgrid="false"
     inkscape:zoom="10.092342"
     inkscape:cx="31.954922"
     inkscape:cy="11.295693"
     inkscape:window-x="0"
     inkscape:window-y="0"
     inkscape:window-maximized="1"
     inkscape:current-layer="svg7"
     inkscape:document-rotation="0"
     inkscape:lockguides="true"
     inkscape:pagecheckerboard="0"
     inkscape:showpageshadow="false">
    <inkscape:grid
       type="xygrid"
       id="grid867" />
  </sodipodi:namedview>
  <g
     id="g12"
     transform="matrix(0.01895663,0,0,0.01895663,34.521686,2.71277)">
    <g
       transform="matrix(0.1,0,0,-0.1,0,511)"
       id="g10" />
  </g>
</svg>
