<?xml version="1.0" encoding="UTF-8" standalone="no"?>
<svg
   xmlns:dc="http://purl.org/dc/elements/1.1/"
   xmlns:cc="http://creativecommons.org/ns#"
   xmlns:rdf="http://www.w3.org/1999/02/22-rdf-syntax-ns#"
   xmlns:svg="http://www.w3.org/2000/svg"
   xmlns="http://www.w3.org/2000/svg"
   xmlns:sodipodi="http://sodipodi.sourceforge.net/DTD/sodipodi-0.dtd"
   xmlns:inkscape="http://www.inkscape.org/namespaces/inkscape"
   width="32"
   height="32"
   version="1.1"
   id="svg32"
   sodipodi:docname="document.svg"
   inkscape:version="1.0.2 (e86c870879, 2021-01-15)">
  <metadata
     id="metadata38">
    <rdf:RDF>
      <cc:Work
         rdf:about="">
        <dc:format>image/svg+xml</dc:format>
        <dc:type
           rdf:resource="http://purl.org/dc/dcmitype/StillImage" />
      </cc:Work>
    </rdf:RDF>
  </metadata>
  <defs
     id="defs36" />
  <sodipodi:namedview
     pagecolor="#ffffff"
     bordercolor="#666666"
     borderopacity="1"
     objecttolerance="10"
     gridtolerance="10"
     guidetolerance="10"
     inkscape:pageopacity="0"
     inkscape:pageshadow="2"
     inkscape:window-width="1920"
     inkscape:window-height="1007"
     id="namedview34"
     showgrid="false"
     inkscape:zoom="3.4692427"
     inkscape:cx="62.131814"
     inkscape:cy="3.8288086"
     inkscape:window-x="0"
     inkscape:window-y="0"
     inkscape:window-maximized="1"
     inkscape:current-layer="svg32"
     inkscape:document-rotation="0"
     inkscape:lockguides="false">
    <inkscape:grid
       type="xygrid"
       id="grid886"
       originx="-32"
       originy="0" />
  </sodipodi:namedview>
  <g
     id="document-open-recent"
     transform="translate(-32)">
    <rect
       style="opacity:0.00100002"
       width="32"
       height="32"
       x="0"
       y="0"
       id="rect17" />
    <path
       class="fil0"
       d="m 7.124655,4 h 15.02805 c 1.21849,0 1.624654,0.811921 1.624654,1.624654 V 18.215317 L 22.998286,17.931003 22.152705,17.809154 V 5.624654 H 7.124655 v 20.71434 H 17.238126 C 17.680937,26.934621 18.468121,27.647345 19.337585,28 L 7.124655,27.96365 C 5.906169,27.960033 5.5,27.151321 5.5,26.338994 V 5.624654 C 5.5,4.811921 5.906164,4 7.124655,4 Z M 25.78887,23.710509 v 0 l 6.09e-4,6.5e-4 v 0 l -6.09e-4,-6.5e-4 6.09e-4,6.5e-4 0.0012,-0.0022 v 0 l -0.0012,0.0022 v 0 l -6.09e-4,-6.5e-4 6.09e-4,6.5e-4 0.0012,-0.0022 v 0 l -0.0012,0.0022 z M 9.347994,8.968192 c -0.224203,0 -0.406164,-0.181961 -0.406164,-0.406163 0,-0.224203 0.181961,-0.406164 0.406164,-0.406164 h 10.600867 c 0.224203,0 0.406164,0.181961 0.406164,0.406164 0,0.224202 -0.181961,0.406163 -0.406164,0.406163 z m 0,14.621887 c -0.224203,0 -0.406164,-0.181961 -0.406164,-0.406163 0,-0.224202 0.181961,-0.406164 0.406164,-0.406164 h 6.538826 c 0.224608,0 0.40657,0.181962 0.40657,0.406164 0,0.224202 -0.181962,0.406163 -0.40657,0.406163 z m 0,-2.924377 c -0.224203,0 -0.406164,-0.181961 -0.406164,-0.406164 0,-0.224202 0.181961,-0.406163 0.406164,-0.406163 h 7.351559 c 0.224202,0 0.406164,0.181961 0.406164,0.406163 0,0.224203 -0.181961,0.406164 -0.406164,0.406164 z m 0,-2.924377 c -0.224203,0 -0.406164,-0.181962 -0.406164,-0.406164 0,-0.224202 0.181961,-0.406164 0.406164,-0.406164 h 10.600867 c 0.224203,0 0.406164,0.181962 0.406164,0.406164 0,0.224202 -0.181961,0.406164 -0.406164,0.406164 z m 0,-2.924378 c -0.224203,0 -0.406164,-0.181961 -0.406164,-0.406163 0,-0.224203 0.181961,-0.406164 0.406164,-0.406164 h 10.600867 c 0.224203,0 0.406164,0.181961 0.406164,0.406164 0,0.224202 -0.181961,0.406163 -0.406164,0.406163 z m 0,-2.924377 c -0.224203,0 -0.406164,-0.181962 -0.406164,-0.406164 0,-0.224202 0.181961,-0.406163 0.406164,-0.406163 h 10.600867 c 0.224203,0 0.406164,0.181961 0.406164,0.406163 0,0.224202 -0.181961,0.406164 -0.406164,0.406164 z"
       id="path6"
       sodipodi:nodetypes="sssccccccccsssssccccccscccscccssssscsssssssssssssssssssssssssssssssssssss"
       style="fill:#d3dae3;fill-opacity:1;stroke-width:0.406164;image-rendering:optimizeQuality;shape-rendering:geometricPrecision;text-rendering:geometricPrecision" />
    <path
       d="m 21.644343,27.936842 a 4.8654329,4.8654329 0 1 0 -4.865433,-4.865433 4.8722565,4.8722565 0 0 0 4.865433,4.865433 z m 0,-8.756415 a 3.8909816,3.8909816 0 1 1 -3.890981,3.890982 3.8955296,3.8955296 0 0 1 3.890981,-3.890982 z"
       id="path12"
       style="fill:#d3dae3;fill-opacity:1;stroke-width:0.324817;image-rendering:optimizeQuality;shape-rendering:geometricPrecision;text-rendering:geometricPrecision" />
    <path
       d="m 21.928658,23.816058 h 1.759212 a 0.515697,0.515697 0 0 0 0,-1.031394 h -1.243515 v -2.082039 a 0.515697,0.515697 0 1 0 -1.031393,0 v 2.597736 a 0.5156969,0.5156969 0 0 0 0.515696,0.515697 z"
       id="path14-3"
       style="fill:#d3dae3;fill-opacity:1;stroke-width:0.343798;image-rendering:optimizeQuality;shape-rendering:geometricPrecision;text-rendering:geometricPrecision" />
  </g>
  <g
     id="22-22-document-open-recent"
     transform="translate(-32)">
    <rect
       style="opacity:0.00100002"
       width="22"
       height="22"
       x="-5e-07"
       y="-22"
       id="rect7" />
    <path
       class="fil0"
       d="M 5.0831105,-19 H 15.101804 c 0.812329,0 1.083096,0.541281 1.083096,1.083102 v 8.393778 l -0.519379,-0.189546 -0.563717,-0.08123 v -8.123002 H 5.0831105 V -4.107332 H 11.825412 C 12.12062,-3.710259 12.645413,-3.235112 13.22505,-3 L 5.0831105,-3.0243 C 4.2707855,-3.0266 3.9999995,-3.565789 3.9999995,-4.107332 V -17.916898 C 3.9999995,-18.458719 4.2707805,-19 5.0831105,-19 Z M 17.525909,-5.859652 v 0 l 4.1e-4,4.21e-4 v 0 l -4.1e-4,-4.21e-4 4.1e-4,4.21e-4 0.0012,-0.0021 v 0 l -0.0012,0.0021 v 0 l -4.1e-4,-4.21e-4 4.1e-4,4.21e-4 0.0012,-0.0021 v 0 l -0.0012,0.0021 z m -10.9605785,-9.82822 c -0.149463,0 -0.270781,-0.121307 -0.270781,-0.270776 0,-0.149468 0.121318,-0.270775 0.270781,-0.270775 h 7.0672345 c 0.149475,0 0.270781,0.121307 0.270781,0.270775 0,0.149469 -0.121306,0.270776 -0.270781,0.270776 z m 0,9.747929 c -0.149463,0 -0.270781,-0.121309 -0.270781,-0.270781 0,-0.149471 0.121318,-0.270778 0.270781,-0.270778 h 4.3592285 c 0.149729,0 0.271041,0.121307 0.271041,0.270778 0,0.149472 -0.121314,0.270781 -0.271041,0.270781 z m 0,-1.949584 c -0.149463,0 -0.270781,-0.121313 -0.270781,-0.270778 0,-0.149474 0.121318,-0.270778 0.270781,-0.270778 h 4.9010335 c 0.149471,0 0.270785,0.121304 0.270785,0.270778 0,0.149465 -0.121314,0.270778 -0.270785,0.270778 z m 0,-1.949592 c -0.149463,0 -0.270781,-0.121304 -0.270781,-0.270773 0,-0.149469 0.121318,-0.270776 0.270781,-0.270776 h 7.0672345 c 0.149475,0 0.270781,0.121307 0.270781,0.270776 0,0.149469 -0.121306,0.270773 -0.270781,0.270773 z m 0,-1.949582 c -0.149463,0 -0.270781,-0.121307 -0.270781,-0.270777 0,-0.149469 0.121318,-0.270775 0.270781,-0.270775 h 7.0672345 c 0.149475,0 0.270781,0.121306 0.270781,0.270775 0,0.14947 -0.121306,0.270777 -0.270781,0.270777 z m 0,-1.949585 c -0.149463,0 -0.270781,-0.121308 -0.270781,-0.270778 0,-0.149467 0.121318,-0.270773 0.270781,-0.270773 h 7.0672345 c 0.149475,0 0.270781,0.121306 0.270781,0.270773 0,0.14947 -0.121306,0.270778 -0.270781,0.270778 z"
       id="path6-6"
       sodipodi:nodetypes="sssccccccccsssssccccccscccscccssssscsssssssssssssssssssssssssssssssssssss"
       style="fill:#d3dae3;fill-opacity:1;stroke-width:0.270782;image-rendering:optimizeQuality;shape-rendering:geometricPrecision;text-rendering:geometricPrecision" />
    <path
       d="m 14.762903,-3.042108 a 3.2436226,3.2436226 0 1 0 -3.243623,-3.243613 3.2481707,3.2481707 0 0 0 3.243623,3.243613 z m 0,-5.837611 a 2.5939881,2.5939881 0 1 1 -2.593998,2.593998 2.5970198,2.5970198 0 0 1 2.593998,-2.593998 z"
       id="path12-7"
       style="fill:#d3dae3;fill-opacity:1;stroke-width:0.216554;image-rendering:optimizeQuality;shape-rendering:geometricPrecision;text-rendering:geometricPrecision" />
    <path
       d="m 14.95244,-5.789301 h 1.172799 a 0.34379799,0.34379799 0 0 0 0,-0.687581 h -0.829 v -1.388036 a 0.34379976,0.34379976 0 1 0 -0.687597,0 v 1.731829 a 0.34379792,0.34379792 0 0 0 0.343798,0.343788 z"
       id="path14-3-5"
       style="fill:#d3dae3;fill-opacity:1;stroke-width:0.2292;image-rendering:optimizeQuality;shape-rendering:geometricPrecision;text-rendering:geometricPrecision" />
  </g>
  <g
     id="document-encrypt"
     transform="translate(-32)">
    <rect
       style="opacity:0.00100002"
       width="32"
       height="32"
       x="32"
       y="0"
       id="rect22" />
    <path
       d="M 56.203733,12.8872 H 55.9832 C 55.956,7.651467 52.660267,4 47.947467,4 43.2352,4 39.9392,7.651467 39.912,12.8872 H 39.690933 C 38.485867,12.8872 37.5,13.8728 37.5,15.078667 v 10.7304 C 37.5,27.014667 38.485867,28 39.690933,28 h 16.5128 c 1.205334,0 2.1912,-0.985333 2.1912,-2.190933 v -10.7304 c 0,-1.205867 -0.986133,-2.191467 -2.1912,-2.191467 z m -7.343466,7.602667 -0.0064,1.973066 c -0.0011,0.602667 -0.421867,1.095734 -0.9352,1.095734 -0.513067,0 -0.932267,-0.4936 -0.931467,-1.095734 l 0.004,-1.997333 c -0.6008,-0.336 -1.006933,-0.977333 -1.006933,-1.715733 0,-1.084 0.8792,-1.962934 1.963466,-1.962934 1.084267,0 1.962934,0.878934 1.962934,1.962934 -2.67e-4,0.755733 -0.4256,1.4112 -1.0504,1.74 z m -5.8768,-7.602667 c 0.02,-3.603733 2.0544,-6.117067 4.964,-6.117067 2.909333,0 4.944,2.513334 4.963466,6.117067 z"
       id="path2"
       style="fill:#d3dae3;fill-opacity:1;stroke-width:0.266667" />
  </g>
  <g
     id="document-decrypt"
     transform="translate(-32)">
    <rect
       style="opacity:0.00100002"
       width="32"
       height="32"
       x="64"
       y="0"
       id="rect27" />
    <path
       d="M 87.836838,12.752 H 76.00964 c -0.0072,-0.119713 -0.01476,-0.639139 -0.01476,-0.761 0,-2.702676 1.78201,-5.202008 3.972819,-5.202008 1.368115,0 2.766023,0.965759 3.495577,2.379773 0,5.36e-4 0.148579,0.454807 0.148579,0.454807 0,0 0.487507,-0.0048 1.104594,0 0.800147,0.0056 1.776388,0 1.776388,0 0,0 -0.186828,-0.836075 -0.315311,-1.079411 C 85.093217,5.904385 82.555405,3.978353 79.967703,4.000184 75.678861,4.036364 73.140451,7.83018 73.103678,12.090473 V 12.79 l -0.890864,0.019 C 70.722851,12.840777 69.7,13.571464 69.7,14.953 V 25.498367 C 69.699995,26.879902 70.820094,28 72.201628,28 h 15.635211 c 1.381267,0 2.501633,-1.120098 2.501633,-2.501633 V 14.553451 c 0,-1.381267 -1.120098,-1.801451 -2.501634,-1.801451 z M 80.944,20.488 v 2.164892 c 0,0.562331 -0.357068,1.019108 -0.919936,1.019108 -0.563136,0 -0.919064,-0.456777 -0.919064,-1.019108 V 20.488 C 78.547008,20 78.073,19.559109 78.073,18.683 c 0,-1.243301 0.706698,-1.951 1.95,-1.951 1.243301,0 1.952,0.707699 1.952,1.951 0,0.875571 -0.363862,1.317 -1.031,1.805 z"
       id="path2-3"
       style="fill:#d3dae3;fill-opacity:1;stroke-width:0.268415"
       sodipodi:nodetypes="scsscccccsccsscssssscssscsssc" />
  </g>
  <g
     id="22-22-document-encrypt"
     transform="translate(-32)">
    <rect
       style="opacity:0.00100002"
       width="22"
       height="22"
       x="32"
       y="-22"
       id="rect2" />
    <path
       d="M 48.469161,-13.0752 H 48.322138 C 48.304,-16.565685 46.106839,-19 42.964983,-19 c -3.141521,0 -5.338845,2.434315 -5.356983,5.9248 H 37.460617 C 36.657239,-13.0752 36,-12.418138 36,-11.614217 v 7.1536 C 36,-3.65688 36.657239,-3 37.460617,-3 h 11.008544 c 0.803559,0 1.4608,-0.65688 1.4608,-1.460617 v -7.1536 c 0,-0.803921 -0.657423,-1.460983 -1.4608,-1.460983 z m -4.895641,5.068439 -0.0042,1.315378 c -0.0011,0.401783 -0.281244,0.730503 -0.623464,0.730503 -0.342044,0 -0.621511,-0.329081 -0.62098,-0.730503 l 0.0029,-1.331555 c -0.400525,-0.224 -0.671284,-0.651542 -0.671284,-1.143823 0,-0.722656 0.586136,-1.308622 1.308979,-1.308622 0.722844,0 1.308621,0.585966 1.308621,1.308622 -1.77e-4,0.503823 -0.283738,0.9408 -0.700264,1.16 z M 39.655639,-13.0752 c 0.01338,-2.40248 1.3696,-4.078044 3.309344,-4.078044 1.939555,0 3.296,1.675564 3.308978,4.078044 z"
       id="path2-5"
       style="fill:#d3dae3;fill-opacity:1;stroke-width:0.177783" />
  </g>
  <g
     id="22-22-document-decrypt"
     transform="translate(-32)">
    <rect
       style="opacity:0.00100002"
       width="22"
       height="22"
       x="64"
       y="-22"
       id="rect12" />
    <path
       d="M 80.091226,-13.165334 H 72.20643 c -0.0051,-0.07981 -0.0098,-0.426094 -0.0098,-0.507334 0,-1.801783 1.188008,-3.468004 2.648551,-3.468004 0.912076,0 1.844022,0.643839 2.330382,1.586516 0,3.56e-4 0.09905,0.303204 0.09905,0.303204 0,0 0.325012,-0.0032 0.736397,0 0.533433,0.0038 1.184265,0 1.184265,0 0,0 -0.124561,-0.557383 -0.21021,-0.719607 -0.722944,-1.759851 -2.414812,-3.043872 -4.13995,-3.029318 -2.859237,0.02412 -4.551499,2.55333 -4.576025,5.393526 V -13.14 l -0.5939,0.01263 C 68.681895,-13.106152 68,-12.619019 68,-11.698 v 7.03024 C 67.999995,-3.746736 68.746734,-3 69.667757,-3 h 10.423469 c 0.920849,0 1.667752,-0.746736 1.667752,-1.66776 v -7.296607 c 0,-0.920841 -0.746736,-1.200967 -1.667752,-1.200967 z M 75.496,-8.007999 v 1.443261 c 0,0.374891 -0.238038,0.679738 -0.613296,0.679738 -0.375425,0 -0.579704,-0.304847 -0.579704,-0.679738 v -1.443261 c -0.371998,-0.325336 -0.721001,-0.619263 -0.721001,-1.203331 0,-0.828871 0.471139,-1.30067 1.3,-1.30067 0.828862,0 1.301331,0.471799 1.301331,1.30067 0,0.583711 -0.242572,0.877995 -0.68733,1.203331 z"
       id="path2-3-6"
       style="fill:#d3dae3;fill-opacity:1;stroke-width:0.17895"
       sodipodi:nodetypes="scsscccccsccsscssssscssscsssc" />
  </g>
</svg>
