<?xml version="1.0" encoding="UTF-8" standalone="no"?>
<svg
   xmlns:dc="http://purl.org/dc/elements/1.1/"
   xmlns:cc="http://creativecommons.org/ns#"
   xmlns:rdf="http://www.w3.org/1999/02/22-rdf-syntax-ns#"
   xmlns:svg="http://www.w3.org/2000/svg"
   xmlns="http://www.w3.org/2000/svg"
   xmlns:sodipodi="http://sodipodi.sourceforge.net/DTD/sodipodi-0.dtd"
   xmlns:inkscape="http://www.inkscape.org/namespaces/inkscape"
   width="32"
   height="32"
   version="1.1"
   id="svg12"
   sodipodi:docname="drive.svg"
   inkscape:version="1.0.2 (e86c870879, 2021-01-15)">
  <metadata
     id="metadata18">
    <rdf:RDF>
      <cc:Work
         rdf:about="">
        <dc:format>image/svg+xml</dc:format>
        <dc:type
           rdf:resource="http://purl.org/dc/dcmitype/StillImage" />
      </cc:Work>
    </rdf:RDF>
  </metadata>
  <defs
     id="defs16" />
  <sodipodi:namedview
     pagecolor="#ffffff"
     bordercolor="#666666"
     borderopacity="1"
     objecttolerance="10"
     gridtolerance="10"
     guidetolerance="10"
     inkscape:pageopacity="0"
     inkscape:pageshadow="2"
     inkscape:window-width="1920"
     inkscape:window-height="1007"
     id="namedview14"
     showgrid="false"
     inkscape:zoom="9.8125"
     inkscape:cx="43.598793"
     inkscape:cy="17.422204"
     inkscape:window-x="0"
     inkscape:window-y="0"
     inkscape:window-maximized="1"
     inkscape:current-layer="svg12"
     inkscape:document-rotation="0"
     inkscape:lockguides="false">
    <inkscape:grid
       type="xygrid"
       id="grid867"
       originx="-1e-06"
       originy="-4.6325683e-08" />
  </sodipodi:namedview>
  <g
     id="drive-harddisk"
     transform="translate(32,10.000001)">
    <rect
       style="opacity:0.00100002"
       width="32"
       height="32"
       x="-32"
       y="-10.000001"
       id="rect7" />
    <circle
       cx="-15.971419"
       cy="2.7971616"
       r="1.7142857"
       id="circle2"
       style="fill:#d3dae3;fill-opacity:1;stroke-width:0.428571" />
    <path
       d="m -15.500001,17.999999 v 0 0 l 5.5612951,-0.02223 c 1.4784907,-0.0059 2.8174133,-1.565436 2.7950402,-3.005829 l -0.050188,-3.231129 -3.0475683,-0.0494 c -0.359964,-0.0058 -0.711444,-0.15428 -0.951442,-0.424282 l -2.764291,-3.0642957 c -0.612855,0.2357348 -1.277135,0.3685911 -1.971419,0.3685911 -3.07285,0 -5.571428,-2.4985787 -5.571428,-5.5714286 0,-3.072876 2.498578,-5.5714286 5.571428,-5.5714286 3.07285,0 5.571429,2.4985526 5.571429,5.5714286 0,1.4399936 -0.552848,2.7514213 -1.457153,3.74142 L -9.6250022,8.999995 H -7.190442 L -7.21415,-2.9765224 c -0.0029,-1.4669122 -1.1811461,-3.0551804 -2.839094,-3.0523321 l -11.414056,0.019609 c -1.532701,0.00263 -3.036121,1.5257233 -3.040756,2.9961175 l -0.057,18.08319 c -0.0042,1.321244 1.197242,2.891397 2.994631,2.901278 L -16.357157,18 v 0 0 0 0 z m 5.142857,-4.714286 c 0,-0.235709 0.192862,-0.428571 0.4285714,-0.428571 0.2357091,0 0.4285714,0.192862 0.4285714,0.428571 v 1.714286 c 0,0.239999 -0.1928623,0.428571 -0.4285714,0.428571 -0.2357094,0 -0.4285714,-0.188572 -0.4285714,-0.428571 z m -1.714286,0 c 0,-0.235709 0.192862,-0.428571 0.428572,-0.428571 0.235709,0 0.428571,0.192862 0.428571,0.428571 v 1.714286 c 0,0.239999 -0.192862,0.428571 -0.428571,0.428571 -0.23571,0 -0.428572,-0.188572 -0.428572,-0.428571 z m -1.714286,0 c 0,-0.235709 0.192863,-0.428571 0.428572,-0.428571 0.235709,0 0.428571,0.192862 0.428571,0.428571 v 1.714286 c 0,0.239999 -0.192862,0.428571 -0.428571,0.428571 -0.235709,0 -0.428572,-0.188572 -0.428572,-0.428571 z m -1.714285,0 c 0,-0.235709 0.192862,-0.428571 0.428571,-0.428571 0.235709,0 0.428572,0.192862 0.428572,0.428571 v 1.714286 c 0,0.239999 -0.192863,0.428571 -0.428572,0.428571 -0.235709,0 -0.428571,-0.188572 -0.428571,-0.428571 z m -6,1.714286 c 0,0.239999 -0.192863,0.428571 -0.428572,0.428571 -0.235709,0 -0.428571,-0.188572 -0.428571,-0.428571 v -1.714286 c 0,-0.235709 0.192862,-0.428571 0.428571,-0.428571 0.235709,0 0.428572,0.192862 0.428572,0.428571 z m 1.714285,0 c 0,0.239999 -0.192862,0.428571 -0.428571,0.428571 -0.235709,0 -0.428571,-0.188572 -0.428571,-0.428571 v -1.714286 c 0,-0.235709 0.192862,-0.428571 0.428571,-0.428571 0.235709,0 0.428571,0.192862 0.428571,0.428571 z m 1.714286,0 c 0,0.239999 -0.192862,0.428571 -0.428571,0.428571 -0.235709,0 -0.428572,-0.188572 -0.428572,-0.428571 v -1.714286 c 0,-0.235709 0.192863,-0.428571 0.428572,-0.428571 0.235709,0 0.428571,0.192862 0.428571,0.428571 z m 1.714286,0 c 0,0.239999 -0.192862,0.428571 -0.428572,0.428571 -0.235709,0 -0.428571,-0.188572 -0.428571,-0.428571 v -1.714286 c 0,-0.235709 0.192862,-0.428571 0.428571,-0.428571 0.23571,0 0.428572,0.192862 0.428572,0.428571 z"
       id="path4-3"
       sodipodi:nodetypes="cccsscsccsssscccssssssccccccscssssssssssssssssssssssssssssssssssssssssssssssssssssss"
       style="fill:#d3dae3;fill-opacity:1;stroke-width:0.428571" />
  </g>
  <g
     id="22-22-drive-harddisk"
     transform="translate(32,10.000001)">
    <rect
       style="opacity:0.00100002"
       width="22"
       height="22"
       x="0"
       y="0"
       id="rect2" />
    <path
       d="m 11.3,18.999999 v 0 0 h 5.142853 c 0.157142,0 0.285713,-0.125716 0.285713,-0.285716 v -3.920008 h -1.922844 c -0.240009,0 -0.474295,-0.102853 -0.634294,-0.282854 l -1.842866,-2.042864 c -0.40857,0.157157 -0.851416,0.245727 -1.314279,0.245727 C 8.965722,12.714284 7.3,11.048565 7.3,8.999999 c 0,-2.048584 1.665722,-3.714285 3.714283,-3.714285 2.048568,0 3.714283,1.665701 3.714283,3.714285 0,0.959996 -0.368557,1.83428 -0.971423,2.49428 l 1.431419,1.585711 h 1.540004 V 3.285714 c 0,-0.157141 -0.128571,-0.285715 -0.285713,-0.285715 H 5.585716 C 5.428571,2.999999 5.3,3.128573 5.3,3.285714 v 15.428569 c 0,0.16 0.128571,0.285716 0.285716,0.285716 h 5.14285 v 0 0 0 0 z m 3.428566,-3.142857 c 0,-0.157139 0.128581,-0.285715 0.285717,-0.285715 0.157146,0 0.285717,0.128576 0.285717,0.285715 v 1.142857 c 0,0.159999 -0.128571,0.285714 -0.285717,0.285714 -0.157136,0 -0.285717,-0.125715 -0.285717,-0.285714 z m -1.14285,0 c 0,-0.157139 0.128572,-0.285715 0.285718,-0.285715 0.157124,0 0.285713,0.128576 0.285713,0.285715 v 1.142857 c 0,0.159999 -0.128589,0.285714 -0.285713,0.285714 -0.157146,0 -0.285718,-0.125715 -0.285718,-0.285714 z m -1.142863,0 c 0,-0.157139 0.128585,-0.285715 0.285713,-0.285715 0.157145,0 0.285717,0.128576 0.285717,0.285715 v 1.142857 c 0,0.159999 -0.128572,0.285714 -0.285717,0.285714 -0.157128,0 -0.285713,-0.125715 -0.285713,-0.285714 z m -1.142853,0 c 0,-0.157139 0.128571,-0.285715 0.285716,-0.285715 0.157137,0 0.285718,0.128576 0.285718,0.285715 v 1.142857 c 0,0.159999 -0.128581,0.285714 -0.285718,0.285714 -0.157145,0 -0.285716,-0.125715 -0.285716,-0.285714 z m -4,1.142857 c 0,0.159999 -0.128572,0.285714 -0.285717,0.285714 -0.157136,0 -0.285717,-0.125715 -0.285717,-0.285714 v -1.142857 c 0,-0.157139 0.128581,-0.285715 0.285717,-0.285715 0.157145,0 0.285717,0.128576 0.285717,0.285715 z m 1.142853,0 c 0,0.159999 -0.128574,0.285714 -0.285706,0.285714 -0.157142,0 -0.285713,-0.125715 -0.285713,-0.285714 v -1.142857 c 0,-0.157139 0.128571,-0.285715 0.285713,-0.285715 0.157132,0 0.285706,0.128576 0.285706,0.285715 z m 1.142863,0 c 0,0.159999 -0.128571,0.285714 -0.285716,0.285714 -0.157145,0 -0.285717,-0.125715 -0.285717,-0.285714 v -1.142857 c 0,-0.157139 0.128572,-0.285715 0.285717,-0.285715 0.157145,0 0.285716,0.128576 0.285716,0.285715 z m 1.14285,0 c 0,0.159999 -0.128571,0.285714 -0.285713,0.285714 -0.157132,0 -0.285706,-0.125715 -0.285706,-0.285714 v -1.142857 c 0,-0.157139 0.128574,-0.285715 0.285706,-0.285715 0.157142,0 0.285713,0.128576 0.285713,0.285715 z"
       id="path4-3-6"
       sodipodi:nodetypes="cccsscsccsssscccssssssccccccccssssssssssssssssssssssssssssssssssssssssssssssssssssssss"
       style="fill:#d3dae3;stroke-width:0.285716;fill-opacity:1" />
    <ellipse
       cx="11.014501"
       cy="9.1145"
       id="circle2-7"
       style="stroke-width:0.278625;fill:#d3dae3;fill-opacity:1"
       rx="1.1145003"
       ry="1.1145" />
  </g>
</svg>
