<?xml version="1.0" encoding="UTF-8" standalone="no"?>
<svg
   xmlns:dc="http://purl.org/dc/elements/1.1/"
   xmlns:cc="http://creativecommons.org/ns#"
   xmlns:rdf="http://www.w3.org/1999/02/22-rdf-syntax-ns#"
   xmlns:svg="http://www.w3.org/2000/svg"
   xmlns="http://www.w3.org/2000/svg"
   xmlns:sodipodi="http://sodipodi.sourceforge.net/DTD/sodipodi-0.dtd"
   xmlns:inkscape="http://www.inkscape.org/namespaces/inkscape"
   width="32"
   height="32"
   version="1.1"
   id="svg16"
   sodipodi:docname="dropbox.svg"
   inkscape:version="1.0.2 (e86c870879, 2021-01-15)">
  <metadata
     id="metadata22">
    <rdf:RDF>
      <cc:Work
         rdf:about="">
        <dc:format>image/svg+xml</dc:format>
        <dc:type
           rdf:resource="http://purl.org/dc/dcmitype/StillImage" />
        <dc:title />
      </cc:Work>
    </rdf:RDF>
  </metadata>
  <defs
     id="defs20">
    <linearGradient
       id="oomox"
       x1="131.53468"
       x2="131.53468"
       y1="146.39674"
       y2="160.8511"
       gradientTransform="scale(1.0377491,0.96362406)"
       gradientUnits="userSpaceOnUse">
      <stop
         offset="0%"
         style="stop-color:#303b3d; stop-opacity:1"
         id="stop18" />
      <stop
         offset="100%"
         style="stop-color:#bc985d; stop-opacity:1"
         id="stop20" />
    </linearGradient>
  </defs>
  <sodipodi:namedview
     pagecolor="#ffffff"
     bordercolor="#666666"
     borderopacity="1"
     objecttolerance="10"
     gridtolerance="10"
     guidetolerance="10"
     inkscape:pageopacity="0"
     inkscape:pageshadow="2"
     inkscape:window-width="1920"
     inkscape:window-height="1007"
     id="namedview18"
     showgrid="false"
     inkscape:zoom="6.9384853"
     inkscape:cx="17.940192"
     inkscape:cy="23.366667"
     inkscape:window-x="0"
     inkscape:window-y="0"
     inkscape:window-maximized="1"
     inkscape:current-layer="svg16"
     inkscape:document-rotation="0">
    <inkscape:grid
       type="xygrid"
       id="grid876"
       originx="0"
       originy="0" />
  </sodipodi:namedview>
  <g
     id="dropbox">
    <rect
       style="opacity:0.00100002"
       width="32"
       height="32"
       x="0"
       y="0"
       id="rect9" />
    <path
       d="M 10.384613,4.0000005 3.0000041,8.6153831 8.5384736,12.307696 15.923082,7.6923135 Z m 5.538469,3.692313 7.384609,4.6153825 5.53847,-3.6923129 -7.384609,-4.6153826 z m 7.384609,4.6153825 -7.384609,4.615383 5.53847,3.692313 7.384609,-4.6154 z m -7.384609,4.615383 -7.3846084,-4.615383 -5.5384695,3.692296 7.3846089,4.6154 z m 0,2.217548 -5.506006,3.670671 -1.8786024,-1.175483 v 0.266836 1.662252 L 15.937505,28 23.307691,23.579326 v -1.658652 -0.284859 l -1.878602,1.175483 z"
       style="fill:#d3dae3;stroke-width:1.72308;fill-opacity:1"
       class="ColorScheme-Text"
       id="path58" />
  </g>
  <g
     id="22-22-dropbox">
    <rect
       style="opacity:0.00100002"
       width="22"
       height="22"
       x="32"
       y="10"
       id="rect2" />
    <path
       d="M 39.323074,13 34.4,16.076922 l 3.692313,2.46154 4.92307,-3.076919 z m 3.692309,2.461543 4.923074,3.076919 3.692312,-2.46154 L 46.707697,13 Z m 4.923074,3.076919 -4.923074,3.076921 3.692314,2.461546 4.923072,-3.076937 z m -4.923074,3.076921 -4.92307,-3.076921 -3.692313,2.46153 4.923074,3.076937 z m 0,1.478364 -3.670664,2.447117 -1.252406,-0.783655 v 0.177888 1.108172 L 43.024998,29 47.938457,26.052876 v -1.105752 -0.189915 l -1.2524,0.783655 z"
       style="fill:#d3dae3;stroke-width:1.14868;enable-background:new;fill-opacity:1"
       class="ColorScheme-Text"
       id="path58-7" />
  </g>
</svg>
