<?xml version="1.0" encoding="UTF-8" standalone="no"?>
<svg
   xmlns:osb="http://www.openswatchbook.org/uri/2009/osb"
   xmlns:dc="http://purl.org/dc/elements/1.1/"
   xmlns:cc="http://creativecommons.org/ns#"
   xmlns:rdf="http://www.w3.org/1999/02/22-rdf-syntax-ns#"
   xmlns:svg="http://www.w3.org/2000/svg"
   xmlns="http://www.w3.org/2000/svg"
   xmlns:sodipodi="http://sodipodi.sourceforge.net/DTD/sodipodi-0.dtd"
   xmlns:inkscape="http://www.inkscape.org/namespaces/inkscape"
   inkscape:version="1.0.2 (e86c870879, 2021-01-15)"
   sodipodi:docname="edit.svg"
   viewBox="0 0 32 32"
   version="1.1"
   height="32"
   width="32"
   id="svg">
  <metadata
     id="metadata60">
    <rdf:RDF>
      <cc:Work
         rdf:about="">
        <dc:format>image/svg+xml</dc:format>
        <dc:type
           rdf:resource="http://purl.org/dc/dcmitype/StillImage" />
        <dc:title />
      </cc:Work>
    </rdf:RDF>
  </metadata>
  <sodipodi:namedview
     inkscape:document-rotation="0"
     inkscape:lockguides="true"
     inkscape:current-layer="svg"
     inkscape:window-maximized="1"
     inkscape:window-y="0"
     inkscape:window-x="0"
     inkscape:cy="11.474641"
     inkscape:cx="-13.432999"
     inkscape:zoom="5.2149125"
     showgrid="false"
     id="namedview58"
     inkscape:window-height="1007"
     inkscape:window-width="1920"
     inkscape:pageshadow="2"
     inkscape:pageopacity="0"
     guidetolerance="10"
     gridtolerance="10"
     objecttolerance="10"
     borderopacity="1"
     bordercolor="#666666"
     pagecolor="#ffffff">
    <inkscape:grid
       id="grid834"
       type="xygrid" />
  </sodipodi:namedview>
  <defs
     id="defs4">
    <linearGradient
       osb:paint="solid"
       id="linearGradient5606">
      <stop
         style="stop-color:#000000"
         offset="0"
         id="stop5608" />
    </linearGradient>
  </defs>
  <rect
     id="rect16"
     y="13.77"
     x="-38.33"
     height="22"
     width="22"
     style="fill:#d3dae3;fill-opacity:0" />
  <g
     transform="translate(32,10)"
     id="16-16-edit-delete">
    <rect
       id="rect18"
       y="0"
       x="0"
       height="22"
       width="22"
       style="opacity:0.00100002" />
    <g
       id="g24"
       transform="matrix(1.7493122,0,0,1.7499488,-107.95048,-909.47286)"
       style="fill:#ffffff">
      <g
         id="g22"
         transform="translate(19,-242)"
         style="fill:#ffffff">
        <path
           id="path20"
           d="m 45.571203,764.57141 h 0.857142 c 0.0089,-1.1e-4 0.01782,-4e-4 0.02679,0 0.21853,0.01 0.437032,0.11021 0.589286,0.26785 l 1.955357,1.95536 1.982143,-1.95536 c 0.227678,-0.19757 0.382861,-0.26185 0.589285,-0.26785 h 0.857143 v 0.85714 c 0,0.24555 -0.02943,0.47199 -0.214285,0.64286 l -1.955357,1.95535 1.928571,1.92858 c 0.161304,0.16128 0.241064,0.38867 0.241071,0.61607 v 0.85714 h -0.857143 c -0.2274,-10e-6 -0.454788,-0.0798 -0.616071,-0.24107 l -1.955357,-1.95536 -1.955357,1.95536 c -0.161288,0.1613 -0.388684,0.24107 -0.616076,0.24107 h -0.857142 v -0.85714 c -3e-6,-0.22739 0.07977,-0.45479 0.241071,-0.61607 l 1.955357,-1.92858 -1.955357,-1.95535 c -0.180636,-0.16683 -0.259851,-0.40222 -0.241071,-0.64286 z"
           style="fill:#d3dae3;fill-opacity:1" />
      </g>
    </g>
  </g>
  <g
     transform="translate(54,32)"
     id="22-22-edit-delete">
    <rect
       id="rect27"
       y="-22"
       x="0"
       height="22"
       width="22"
       style="opacity:0.00100002;stroke-width:1.375" />
    <g
       id="g33"
       transform="matrix(1.2495087,0,0,1.2499635,-76.964626,-665.48065)"
       style="fill:#ffffff">
      <g
         id="g31"
         transform="translate(19,-242)"
         style="fill:#ffffff">
        <path
           inkscape:connector-curvature="0"
           id="path29"
           d="m 46.761389,760.87988 h 1.200009 c 0.0123,-1.1e-4 0.02503,-4.1e-4 0.03742,0 0.305929,0.009 0.611856,0.15442 0.825005,0.37516 l 2.737526,2.73747 2.775023,-2.73747 c 0.31875,-0.27676 0.535993,-0.36676 0.825006,-0.37516 h 1.200007 v 1.20001 c 0,0.34364 -0.0411,0.66088 -0.300001,0.90002 l -2.737529,2.73741 2.700018,2.70003 c 0.225831,0.22577 0.337501,0.54431 0.337512,0.8626 v 1.2 h -1.200003 c -0.318365,-10e-6 -0.636708,-0.11119 -0.862518,-0.3374 l -2.737511,-2.73748 -2.737528,2.73748 c -0.225807,0.22575 -0.544165,0.3374 -0.86252,0.3374 h -1.199986 v -1.2 c -3e-6,-0.31827 0.111663,-0.63683 0.33752,-0.8626 l 2.737527,-2.70003 -2.737527,-2.73741 c -0.25288,-0.23366 -0.363808,-0.56303 -0.33752,-0.90002 z"
           style="fill:#d3dae3;fill-opacity:1;stroke-width:1.50001" />
      </g>
    </g>
  </g>
  <g
     id="edit-delete">
    <rect
       id="rect36"
       style="opacity:0.00100002"
       y="0"
       x="0"
       height="32"
       width="32" />
    <g
       id="g46"
       transform="matrix(1.7493122,0,0,1.7499488,-102.95048,-903.47286)"
       style="opacity:0.2">
      <g
         id="g44"
         transform="translate(19,-242)" />
    </g>
    <g
       id="g52"
       style="fill:#ffffff"
       transform="matrix(1.7493122,0,0,1.7499488,-102.95048,-904.47286)">
      <g
         id="g50"
         style="fill:#ffffff"
         transform="translate(19,-242)">
        <path
           id="path48"
           style="fill:#d3dae3;fill-opacity:1"
           d="m 45.571203,764.57141 h 0.857142 c 0.0089,-1.1e-4 0.01782,-4e-4 0.02679,0 0.21853,0.01 0.437032,0.11021 0.589286,0.26785 l 1.955357,1.95536 1.982143,-1.95536 c 0.227678,-0.19757 0.382861,-0.26185 0.589285,-0.26785 h 0.857143 v 0.85714 c 0,0.24555 -0.02943,0.47199 -0.214285,0.64286 l -1.955357,1.95535 1.928571,1.92858 c 0.161304,0.16128 0.241064,0.38867 0.241071,0.61607 v 0.85714 h -0.857143 c -0.2274,-10e-6 -0.454788,-0.0798 -0.616071,-0.24107 l -1.955357,-1.95536 -1.955357,1.95536 c -0.161288,0.1613 -0.388684,0.24107 -0.616076,0.24107 h -0.857142 v -0.85714 c -3e-6,-0.22739 0.07977,-0.45479 0.241071,-0.61607 l 1.955357,-1.92858 -1.955357,-1.95535 c -0.180636,-0.16683 -0.259851,-0.40222 -0.241071,-0.64286 z" />
      </g>
    </g>
  </g>
</svg>
