<?xml version="1.0" encoding="UTF-8" standalone="no"?>
<svg
   xmlns:dc="http://purl.org/dc/elements/1.1/"
   xmlns:cc="http://creativecommons.org/ns#"
   xmlns:rdf="http://www.w3.org/1999/02/22-rdf-syntax-ns#"
   xmlns:svg="http://www.w3.org/2000/svg"
   xmlns="http://www.w3.org/2000/svg"
   xmlns:sodipodi="http://sodipodi.sourceforge.net/DTD/sodipodi-0.dtd"
   xmlns:inkscape="http://www.inkscape.org/namespaces/inkscape"
   width="32"
   height="32"
   version="1.1"
   id="svg12"
   sodipodi:docname="emblem.svg"
   inkscape:version="1.0.2 (e86c870879, 2021-01-15)">
  <metadata
     id="metadata18">
    <rdf:RDF>
      <cc:Work
         rdf:about="">
        <dc:format>image/svg+xml</dc:format>
        <dc:type
           rdf:resource="http://purl.org/dc/dcmitype/StillImage" />
      </cc:Work>
    </rdf:RDF>
  </metadata>
  <defs
     id="defs16" />
  <sodipodi:namedview
     pagecolor="#ffffff"
     bordercolor="#666666"
     borderopacity="1"
     objecttolerance="10"
     gridtolerance="10"
     guidetolerance="10"
     inkscape:pageopacity="0"
     inkscape:pageshadow="2"
     inkscape:window-width="1920"
     inkscape:window-height="1004"
     id="namedview14"
     showgrid="false"
     inkscape:lockguides="false"
     inkscape:zoom="9.8125"
     inkscape:cx="30.587363"
     inkscape:cy="19.939999"
     inkscape:window-x="0"
     inkscape:window-y="0"
     inkscape:window-maximized="1"
     inkscape:current-layer="svg12" />
  <g
     id="22-22-emblem-shared-symbolic"
     transform="translate(32.000001,10.000001)">
    <rect
       style="opacity:0.00100002"
       width="22"
       height="22"
       x="0"
       y="0"
       id="rect2" />
    <path
       style="opacity:1;fill:#d3dae3;fill-opacity:1"
       d="m 15,3 a 3,3 0 0 0 -3,3 3,3 0 0 0 0.228516,1.1425781 L 9.2402344,9.0097656 A 3,3 0 0 0 7,8 3,3 0 0 0 4,11 3,3 0 0 0 7,14 3,3 0 0 0 9.2421875,12.990234 l 2.9843745,1.867188 A 3,3 0 0 0 12,16 a 3,3 0 0 0 3,3 3,3 0 0 0 3,-3 3,3 0 0 0 -3,-3 3,3 0 0 0 -2.242188,1.009766 L 9.7734375,12.142578 A 3,3 0 0 0 10,11 3,3 0 0 0 9.7714844,9.8574219 L 12.759766,7.9902344 A 3,3 0 0 0 15,9 3,3 0 0 0 18,6 3,3 0 0 0 15,3 Z"
       id="path4" />
  </g>
  <g
     id="emblem-shared-symbolic">
    <rect
       style="opacity:0.00100002"
       width="32"
       height="32"
       x="0"
       y="0"
       id="rect7" />
    <path
       style="opacity:1;fill:#d3dae3;fill-opacity:1"
       d="m 22.5,4 a 4.5,4.5 0 0 0 -4.5,4.5 4.5,4.5 0 0 0 0.390625,1.818359 l -4.283203,2.498047 A 4.5,4.5 0 0 0 10.5,11 4.5,4.5 0 0 0 6,15.5 4.5,4.5 0 0 0 10.5,20 4.5,4.5 0 0 0 14.107422,18.181641 l 4.28125,2.498047 A 4.5,4.5 0 0 0 18,22.5 4.5,4.5 0 0 0 22.5,27 4.5,4.5 0 0 0 27,22.5 4.5,4.5 0 0 0 22.5,18 4.5,4.5 0 0 0 18.892578,19.818359 l -4.28125,-2.498047 A 4.5,4.5 0 0 0 15,15.5 4.5,4.5 0 0 0 14.609375,13.681641 l 4.283203,-2.498047 A 4.5,4.5 0 0 0 22.5,13 4.5,4.5 0 0 0 27,8.5 4.5,4.5 0 0 0 22.5,4 Z"
       id="path9" />
  </g>
</svg>
