<?xml version="1.0" encoding="UTF-8" standalone="no"?>
<svg
   xmlns:dc="http://purl.org/dc/elements/1.1/"
   xmlns:cc="http://creativecommons.org/ns#"
   xmlns:rdf="http://www.w3.org/1999/02/22-rdf-syntax-ns#"
   xmlns:svg="http://www.w3.org/2000/svg"
   xmlns="http://www.w3.org/2000/svg"
   xmlns:sodipodi="http://sodipodi.sourceforge.net/DTD/sodipodi-0.dtd"
   xmlns:inkscape="http://www.inkscape.org/namespaces/inkscape"
   viewBox="0 0 22 22.000001"
   version="1.1"
   id="svg3869"
   height="22"
   width="22"
   inkscape:version="1.0.2 (e86c870879, 2021-01-15)"
   sodipodi:docname="ime.svg">
  <sodipodi:namedview
     pagecolor="#ffffff"
     bordercolor="#000000"
     borderopacity="1"
     objecttolerance="10"
     gridtolerance="10"
     guidetolerance="10"
     inkscape:pageopacity="0"
     inkscape:pageshadow="2"
     inkscape:window-width="1920"
     inkscape:window-height="1007"
     id="namedview119"
     showgrid="false"
     inkscape:zoom="2.4049586"
     inkscape:cx="-12.066388"
     inkscape:cy="11.141419"
     inkscape:window-x="0"
     inkscape:window-y="0"
     inkscape:window-maximized="1"
     inkscape:current-layer="svg3869"
     inkscape:document-rotation="0"
     showguides="false"
     inkscape:lockguides="false">
    <inkscape:grid
       type="xygrid"
       id="grid979"
       originx="22"
       originy="3.0964847e-05" />
  </sodipodi:namedview>
  <metadata
     id="metadata25">
    <rdf:RDF>
      <cc:Work
         rdf:about="">
        <dc:format>image/svg+xml</dc:format>
        <dc:type
           rdf:resource="http://purl.org/dc/dcmitype/StillImage" />
        <dc:title />
      </cc:Work>
    </rdf:RDF>
  </metadata>
  <defs
     id="defs3871">
    <style
       id="current-color-scheme"
       type="text/css" />
  </defs>
  <g
     style="fill:#cccccc"
     transform="translate(-132,-66.000031)"
     id="ime-libpinyin-bopomofo">
    <rect
       style="fill:none;fill-rule:evenodd;stroke:none;stroke-width:1px;stroke-linecap:butt;stroke-linejoin:miter;stroke-opacity:1"
       id="rect4147"
       width="22"
       height="22"
       x="0"
       y="0" />
    <path
       style="color:#31363b;fill:#d3dae3;fill-opacity:1;stroke:none"
       d="m 69,-107 v 16 h 16 v -16 z m 8.300781,1.59961 2,1.5 -0.601562,0.80078 -2,-1.5 z m -5.947265,0.0469 2,2 -0.707032,0.70704 -2,-2 z M 74,-103 h 9 v 1 h -4 v 3 h 3 v 1 h -3 v 4 h 4 v 1 h -9 v -1 h 4 v -4 h -3 v -1 h 3 v -3 h -4 z m -2.646484,0.64648 2,2 -0.707032,0.707036 -2,-1.999996 z m 1.171875,3.195317 0.949218,0.316406 -2,6 -0.949218,-0.316406 z"
       transform="translate(-66,110.00002)"
       id="path4274" />
  </g>
  <g
     transform="translate(-198,-88.000021)"
     id="ime-pinyin">
    <path
       style="color:#31363b;fill:#d3dae3;fill-opacity:1;stroke:none"
       d="M 3,3.0019531 V 19 H 19 V 3.0019531 Z M 4,4 H 18 V 18 H 4 Z M 10.900391,4.7011719 10.099609,5.3007812 11.375,7 H 10 v 1 h 1 v 3 H 9.1171875 L 9.2226562,10.94727 8.7773438,10.052734 8,10.441406 V 8 H 9 V 7 H 8 V 5 H 7 V 7 H 5 v 1 h 2 v 2.941406 L 4.7773438,12.052734 5.2226562,12.947266 7,12.058594 V 16 H 5 v 1 h 3 v -5.441406 l 1,-0.5 V 12 h 1.960938 c -0.08868,0.895032 -0.391653,1.61152 -0.792969,2.306641 -0.4973153,0.8613 -1.5097659,1.830078 -1.5097659,1.830078 l 0.6835938,0.728515 c 0,0 1.0706891,-0.983593 1.6914061,-2.058593 C 11.481893,14.02943 11.862844,13.118701 11.958984,12 H 14 v 5 h 1 v -5 h 2 V 11 H 15 V 8 h 2 V 7 h -2.375 l 1.275391,-1.6992188 -0.800782,-0.5996093 -1.5,2 L 13.998047,7 H 12.001953 L 12.400391,6.7011719 Z M 12,8 h 2 v 3 h -2 z"
       class="ColorScheme-Text"
       id="path6"
       inkscape:connector-curvature="0" />
    <rect
       style="fill:none;fill-opacity:1;stroke:none"
       id="rect4138"
       width="22"
       height="22"
       x="0"
       y="0" />
  </g>
  <g
     transform="translate(-154,-88.000021)"
     id="ime-shuangpin">
    <path
       style="color:#31363b;fill:#d3dae3;fill-opacity:1;stroke:none"
       d="M 3,3.0019531 V 19 H 19 V 3.0019531 Z M 4,4 H 18 V 18 H 4 Z M 5,5 V 6 H 9.4277344 C 9.3567399,6.6433848 9.1095505,8.7368774 8.5585938,10.642578 7.8640436,9.6798255 7.0718951,8.6616876 5.890625,7.1875 l -0.78125,0.6269531 c 1.4174333,1.768857 2.2870807,2.8838839 3.0527344,3.9902349 -1.2932813,3.342269 -3.2636719,4.656249 -3.2636719,4.65625 l 0.5566406,0.832031 c 0,0 1.9707929,-1.362982 3.3652344,-4.488281 0.4371629,0.686564 0.8829906,1.421585 1.4218755,2.375 l 0.86914,-0.490235 C 10.412442,13.452965 9.856111,12.550817 9.2734375,11.677734 10.169908,9.0698901 10.498047,5.5488281 10.498047,5.5488281 L 10.548828,5 Z m 6,0 v 1 h 0.589844 c 0.101934,0.5915985 0.552462,3.1367245 1.310547,5.09375 0.265281,0.684811 0.549026,1.343749 0.886718,1.992188 -1.288059,2.041728 -3.068359,3.142578 -3.068359,3.142578 l 0.517578,0.855468 c 0,0 1.710317,-1.050173 3.103516,-3.037109 0.655672,1.023639 1.52165,2.030149 2.802734,3.064453 l 0.626953,-0.779297 c -1.383561,-1.117032 -2.21998,-2.147051 -2.84375,-3.230469 0.12558,-0.227385 0.256224,-0.447093 0.367188,-0.693359 C 16.167139,10.468103 17,7.6466006 17,5.5 V 5 Z m 1.607422,1 h 3.316406 c -0.108623,1.8531004 -0.786023,4.318047 -1.542969,5.998047 -0.0025,0.0055 -0.0053,0.01017 -0.0078,0.01563 -0.18806,-0.413838 -0.365555,-0.833366 -0.539063,-1.28125 C 13.175782,9.0332602 12.746688,6.7654286 12.607422,6 Z"
       class="ColorScheme-Text"
       id="path6-1"
       inkscape:connector-curvature="0" />
    <rect
       style="fill:none;fill-opacity:1;stroke:none"
       id="rect4138-4"
       width="22"
       height="22"
       x="0"
       y="0" />
  </g>
  <g
     transform="translate(-44,-88.000021)"
     id="ime-wubi">
    <path
       style="color:#31363b;fill:#d3dae3;fill-opacity:1;stroke:none"
       d="M 3,3.0019531 V 19 H 19 V 3.0019531 Z M 4,4 H 18 V 18 H 4 Z M 6,6 V 7 H 9.8769531 L 9.2109375,10 H 7 v 1 H 8.9882812 L 8.0996094,15 H 6 v 1 H 16 V 15 H 14 V 10 H 10.236328 L 10.902344,7 H 15 V 6 Z m 4.013672,5 H 13 v 4 H 9.1230469 Z"
       class="ColorScheme-Text"
       id="path6-6"
       inkscape:connector-curvature="0" />
    <rect
       style="fill:none;fill-opacity:1;stroke:none"
       id="rect4138-8"
       width="22"
       height="22"
       x="0"
       y="0" />
  </g>
  <g
     transform="translate(-198,-44.000018)"
     id="ime-googlepinyin">
    <path
       style="color:#31363b;fill:#d3dae3;fill-opacity:1;stroke:none"
       d="M 3,3.0019531 V 19 H 19 V 3.0019531 Z M 4,4 H 18 V 18 H 4 Z m 6.898438,1.5039062 C 9.6042556,5.5279065 8.3182667,6.0036341 7.3007812,6.9277344 5.2658109,8.775735 4.9123412,11.865153 6.4746094,14.126953 8.0368776,16.388753 11.051478,17.149791 13.5,15.900391 15.689334,14.783333 16.832231,12.354748 16.398438,10 h -2.056641 c 7.82e-4,0.0026 0.0012,0.0052 0.002,0.0078 h -3.34375 v 2 h 3.335938 c -0.262982,0.884961 -0.864025,1.661241 -1.746094,2.111329 -1.569389,0.8008 -3.4693016,0.320896 -4.4707034,-1.128907 C 7.1177389,11.540434 7.3421217,9.5928037 8.6464844,8.4082031 9.9508467,7.2237028 11.909227,7.1880182 13.255859,8.3242188 L 14.546875,6.7949219 C 13.496412,5.9086216 12.192617,5.4804062 10.898438,5.5039062 Z"
       class="ColorScheme-Text"
       id="path6-12"
       inkscape:connector-curvature="0" />
    <rect
       style="fill:none;fill-opacity:1;stroke:none"
       id="rect4147-4"
       width="22"
       height="22"
       x="0"
       y="0" />
  </g>
  <g
     transform="translate(-198,-66.000021)"
     id="ime-libpinyin-pinyin">
    <path
       style="color:#31363b;fill:#d3dae3;fill-opacity:1;stroke:none"
       d="M 3,3 V 19 H 19 V 3 Z m 7.900391,1.7011719 1.5,2 L 12.001953,7 h 1.996094 l -0.398438,-0.2988281 1.5,-2 0.800782,0.5996093 L 14.625,7 H 17 v 1 h -2 v 3 h 2 v 1 h -2 v 5 h -1 v -5 h -2.041016 c -0.09614,1.118701 -0.477091,2.02943 -0.925781,2.806641 -0.620717,1.075 -1.6914061,2.058593 -1.6914061,2.058593 L 8.6582031,16.136719 c 0,0 1.0124506,-0.968778 1.5097659,-1.830078 C 10.569285,13.61152 10.872261,12.895032 10.960938,12 H 9 v -0.941406 l -1,0.5 V 17 H 5 V 16 H 7 V 12.058594 L 5.2226562,12.947266 4.7773438,12.052734 7,10.941406 V 8 H 5 V 7 H 7 V 5 H 8 V 7 H 9 V 8 H 8 v 2.441406 L 8.7773438,10.052734 9.2226562,10.947266 9.1171875,11 H 11 V 8 H 10 V 7 h 1.375 L 10.099609,5.3007812 Z M 12,8 v 3 h 2 V 8 Z"
       class="ColorScheme-Text"
       id="path6-4"
       inkscape:connector-curvature="0" />
    <rect
       style="fill:none;fill-opacity:1;stroke:none"
       id="rect4138-2"
       width="22"
       height="22"
       x="0"
       y="0" />
  </g>
  <g
     transform="translate(-154,-66.000021)"
     id="ime-libpinyin-shuangpin">
    <path
       style="color:#31363b;fill:#d3dae3;fill-opacity:1;stroke:none"
       d="M 3,3 V 19 H 19 V 3 Z m 2,2 h 5.548828 l -0.05078,0.5488281 c 0,0 -0.328139,3.521106 -1.2246095,6.1289059 0.5826734,0.8731 1.1390045,1.775219 1.8378905,3.011719 l -0.86914,0.490235 c -0.5388845,-0.953401 -0.9847126,-1.6884 -1.4218755,-2.375 -1.3944413,3.1253 -3.3652344,4.488281 -3.3652344,4.488281 L 4.8984375,16.460938 c 0,0 1.9703908,-1.31395 3.2636719,-4.65625 C 7.3964558,10.698287 6.5268081,9.5832533 5.109375,7.8144531 L 5.890625,7.1875 C 7.0718949,8.6617002 7.8640436,9.679778 8.5585938,10.642578 9.1095504,8.7368779 9.3567404,6.6434001 9.4277344,6 H 5 Z m 6,0 h 6 v 0.5 c 0,2.1466003 -0.832862,4.968103 -1.707031,6.908203 -0.110964,0.2463 -0.241608,0.465959 -0.367188,0.693359 0.62377,1.083401 1.46019,2.113469 2.84375,3.230469 l -0.626953,0.779297 c -1.281085,-1.0343 -2.147062,-2.040853 -2.802734,-3.064453 -1.393199,1.9869 -3.103516,3.037109 -3.103516,3.037109 L 10.71875,16.228516 c 0,0 1.7803,-1.100778 3.068359,-3.142578 C 13.449417,12.437537 13.165672,11.77865 12.900391,11.09375 12.142306,9.1367498 11.691778,6.5916001 11.589844,6 H 11 Z m 1.607422,1 c 0.139266,0.7654001 0.568348,3.0333217 1.226562,4.732422 0.173508,0.4479 0.351003,0.86735 0.539063,1.28125 0.0025,-0.006 0.0053,-0.0056 0.0078,-0.01563 0.756947,-1.68 1.434346,-4.1449468 1.542969,-5.998047 H 12.60741 Z"
       class="ColorScheme-Text"
       id="path6-3"
       inkscape:connector-curvature="0" />
    <rect
       style="fill:none;fill-opacity:1;stroke:none"
       id="rect4138-44"
       width="22"
       height="22"
       x="0"
       y="0" />
  </g>
  <g
     transform="translate(-176,-44.000018)"
     id="ime-sunpinyin">
    <path
       style="color:#31363b;fill:#d3dae3;fill-opacity:1;stroke:none"
       d="m 11,1.5136719 c -0.255619,0 -0.511163,0.099053 -0.707031,0.2949219 L 8.1015625,4 H 5 C 4.4459998,4 4,4.4459998 4,5 V 8.0996094 L 1.8066406,10.292969 c -0.3917372,0.391737 -0.3917372,1.022325 0,1.414062 L 4,13.900391 V 17 c 0,0.554 0.4459998,1 1,1 h 3.0996094 l 2.1933596,2.193359 c 0.391737,0.391738 1.022325,0.391738 1.414062,0 L 13.900391,18 H 17 c 0.554,0 1,-0.446 1,-1 v -3.101562 l 2.191406,-2.191407 c 0.391737,-0.391737 0.391737,-1.022325 0,-1.414062 L 18,8.1015625 V 5 C 18,4.4459998 17.554,4 17,4 H 13.898438 L 11.707031,1.8085938 C 11.511163,1.612725 11.255619,1.5136719 11,1.5136719 Z m -0.09961,3.1875 1.5,2 L 12.001953,7 h 1.996094 l -0.398438,-0.2988281 1.5,-2 0.800782,0.5996093 L 14.625,7 H 17 v 1 h -2 v 3 h 2 v 1 h -2 v 5 h -1 v -5 h -2.041016 c -0.09614,1.118701 -0.477091,2.02943 -0.925781,2.806641 -0.620717,1.075 -1.6914061,2.058593 -1.6914061,2.058593 L 8.6582031,16.136719 c 0,0 1.0124506,-0.968778 1.5097659,-1.830078 C 10.569285,13.61152 10.872261,12.895032 10.960938,12 H 9 v -0.941406 l -1,0.5 V 17 H 5 V 16 H 7 V 12.058594 L 5.2226562,12.947266 4.7773438,12.052734 7,10.941406 V 8 H 5 V 7 H 7 V 5 H 8 V 7 H 9 V 8 H 8 v 2.441406 L 8.7773438,10.052734 9.2226562,10.947266 9.1171875,11 H 11 V 8 H 10 V 7 h 1.375 L 10.099609,5.3007812 10.900391,4.7011719 Z M 12,8 v 3 h 2 V 8 Z"
       class="ColorScheme-Text"
       id="path6-8"
       inkscape:connector-curvature="0" />
    <rect
       style="fill:none;fill-opacity:1;stroke:none"
       id="rect4138-6"
       width="22"
       height="22"
       x="0"
       y="0" />
  </g>
  <g
     transform="translate(-198,-126.00002)"
     id="ime-emoji">
    <rect
       y="170"
       x="-2.4709701e-09"
       height="22"
       width="22"
       id="rect4372"
       style="fill:none;fill-opacity:1;stroke:none" />
    <path
       id="path4549"
       transform="translate(0,26)"
       d="m 3.2226562,150.05273 -0.4453124,0.89454 4,2 0.4453124,-0.89454 z m 15.5546878,0 -4,2 0.445312,0.89454 4,-2 z M 4,153 a 1,1 0 0 0 -1,1 1,1 0 0 0 1,1 1,1 0 0 0 1,-1 1,1 0 0 0 -1,-1 z m 14,0 a 1,1 0 0 0 -1,1 1,1 0 0 0 1,1 1,1 0 0 0 1,-1 1,1 0 0 0 -1,-1 z m -9.9003906,1.69922 c -0.81,1.08 -1.2349527,2.28879 -1.1601563,3.33594 0.037398,0.52357 0.2100311,1.02143 0.5683594,1.39062 C 7.8661408,159.79497 8.3958333,160 9,160 c 0.9612309,0 1.638831,-0.68084 2,-1.45703 0.361169,0.77619 1.038769,1.45703 2,1.45703 0.604167,0 1.133858,-0.20503 1.492188,-0.57422 0.358328,-0.36919 0.530961,-0.86705 0.568359,-1.39062 0.0748,-1.04715 -0.350156,-2.25594 -1.160156,-3.33594 l -0.800782,0.60156 c 0.69,0.92 1.015048,1.96121 0.964844,2.66406 -0.0251,0.35143 -0.13372,0.60357 -0.291015,0.76563 C 13.616141,158.89253 13.395833,159 13,159 12.472222,159 12.15973,158.6932 11.892578,158.10547 11.625426,157.51773 11.5,156.69444 11.5,156 h -1 c 0,0.69444 -0.125426,1.51773 -0.392578,2.10547 C 9.84027,158.6932 9.5277778,159 9,159 c -0.3958333,0 -0.6161408,-0.10747 -0.7734375,-0.26953 -0.1572967,-0.16206 -0.2659138,-0.4142 -0.2910156,-0.76563 -0.050204,-0.70285 0.2748437,-1.74406 0.9648437,-2.66406 z"
       style="color:#31363b;fill:#d3dae3;fill-opacity:1;stroke:none"
       class="ColorScheme-Text"
       inkscape:connector-curvature="0" />
  </g>
  <g
     transform="translate(-66,-88.000021)"
     id="ime-erbi">
    <path
       style="color:#31363b;fill:#d3dae3;fill-opacity:1;stroke:none"
       class="ColorScheme-Text"
       d="M 3,3 V 3.5 19 H 19 V 3 Z M 4,4 H 18 V 18 H 4 Z M 6,7 V 8 H 16 V 7 Z m -1,7 v 1 h 12 v -1 z"
       id="rect4205"
       inkscape:connector-curvature="0" />
    <rect
       style="fill:none;fill-opacity:1;stroke:none;stroke-linejoin:miter"
       id="rect4219"
       width="22"
       height="22"
       x="0"
       y="0" />
  </g>
  <g
     transform="translate(0,-88.000021)"
     id="ime-ziranma">
    <path
       id="path4227"
       d="M 3,3 V 19 H 19 V 3 Z M 4,4 H 18 V 18 H 4 Z M 9.6796875,4.6152344 6.8183594,7 H 6 V 17 H 7 15.5 16 V 7 H 8.3828125 L 10.320312,5.3847656 Z M 7,8 h 8 v 8 H 7 v -2 h 6 V 13 H 7 v -2 h 6 V 10 H 7 Z"
       style="color:#31363b;fill:#d3dae3;fill-opacity:1;stroke:none"
       class="ColorScheme-Text"
       inkscape:connector-curvature="0" />
    <rect
       y="0"
       x="0"
       height="22"
       width="22"
       id="rect4229"
       style="fill:none;fill-opacity:1;stroke:none;stroke-linejoin:miter" />
  </g>
  <g
     transform="translate(-176,-88.000021)"
     id="ime-quanpin">
    <path
       id="path4261"
       d="M 3,3 V 19 H 19 V 3 Z M 4,4 H 18 V 18 H 4 Z m 6.509766,0.9023438 C 10.323881,5.8317693 8.9615007,6.9634215 7.5664062,7.7519531 6.1713119,8.5404847 4.8300781,9.0292969 4.8300781,9.0292969 l 0.3398438,0.9414062 c 0,0 0.8013817,-0.2932064 1.8300781,-0.7949219 L 7,10 h 3.5 v 2 H 8 v 1 h 2.5 v 3 H 6 v 1 H 16 V 16 H 11.5 V 13 H 14 V 12 H 11.5 V 10 H 15 V 9.1308594 C 16.015788,9.6469945 16.824219,9.96875 16.824219,9.96875 l 0.351562,-0.9375 c 0,0 -3.856017,-1.4980606 -5.732422,-3.7871094 0.01285,-0.049766 0.03674,-0.095781 0.04687,-0.1464844 z M 11,6.2324219 C 12.116196,7.4472455 13.543014,8.3695184 14.734375,9 H 7.3378906 C 7.5754268,8.8790495 7.8107881,8.7631109 8.0585938,8.6230469 9.1538606,8.0039829 10.332412,7.2293319 11,6.2324219 Z"
       style="color:#31363b;fill:#d3dae3;fill-opacity:1;stroke:none"
       class="ColorScheme-Text"
       inkscape:connector-curvature="0" />
    <rect
       style="fill:none;fill-opacity:1;stroke:none;stroke-linejoin:miter"
       id="rect4263"
       width="22"
       height="22"
       x="0"
       y="0" />
  </g>
  <g
     transform="translate(22,-88.000021)"
     id="ime-cangjie">
    <path
       id="path4280"
       transform="translate(-176,-12)"
       d="m 179,15 v 16 h 16 V 15 Z m 1,1 h 14 v 14 h -14 z m 6.58398,0.722656 c -1.84354,2.765319 -5.64648,3.28125 -5.64648,3.28125 l 0.125,0.992188 c 0,0 0.83386,-0.123824 1.9375,-0.535156 V 24.5 c 0,0.833333 -0.45395,1.912573 -0.93359,2.751953 -0.47965,0.83938 -0.95704,1.435547 -0.95703,1.435547 l 0.78124,0.625 c 0,0 0.52262,-0.653833 1.04297,-1.564453 0.0223,-0.03907 0.044,-0.08499 0.0664,-0.125 L 183,29 h 0.5 7.5 v -3 h -7.27539 c 0.107,-0.326656 0.17843,-0.661039 0.2207,-1 H 191 v -4.539062 c 1.10364,0.411332 1.9375,0.535156 1.9375,0.535156 l 0.125,-0.992188 c 0,0 -3.80294,-0.515931 -5.64648,-3.28125 z M 187,17.703125 c 0.85882,1.069604 1.93347,1.798543 2.93359,2.296875 H 187.5 l 0.27734,-0.416016 -1.5,-1 -0.55468,0.832032 0.875,0.583984 h -2.53125 C 185.06653,19.501668 186.14118,18.772729 187,17.703125 Z M 184,21 h 6 v 3 h -6 v -1 h 5 v -1 h -5 z m 0,6 h 6 v 1 h -6 z"
       style="color:#31363b;fill:#d3dae3;fill-opacity:1;stroke:none"
       class="ColorScheme-Text"
       inkscape:connector-curvature="0" />
    <rect
       y="0"
       x="0"
       height="22"
       width="22"
       id="rect4282"
       style="fill:none;fill-opacity:1;stroke:none;stroke-linejoin:miter" />
  </g>
  <g
     transform="translate(-176,-66.000021)"
     id="ime-libpinyin-quanpin">
    <path
       id="path4202"
       transform="translate(25.5,18)"
       d="M -22.5,-15 V 1 h 16 v -16 z m 7.509766,1.902344 0.980468,0.195312 c -0.01013,0.0507 -0.03402,0.09672 -0.04687,0.146485 1.876405,2.289048 5.7324222,3.787109 5.7324222,3.787109 l -0.3515624,0.9375 c -1e-7,0 -0.8084308,-0.3217555 -1.8242188,-0.8378906 L -10.5,-8 H -14 v 2 h 2.5 v 1 H -14 v 3 h 4.5 v 1 h -10 v -1 h 4.5 v -3 h -2.5 v -1 h 2.5 v -2 h -3.5 v -0.8242188 c -1.028696,0.5017155 -1.830078,0.7949219 -1.830078,0.7949219 l -0.339844,-0.9414062 c 0,0 1.341234,-0.4888121 2.736328,-1.2773439 1.395095,-0.788531 2.757475,-1.920184 2.94336,-2.849609 z M -14.5,-11.767578 c -0.667588,0.99691 -1.846139,1.7715609 -2.941406,2.3906249 -0.247806,0.140064 -0.483167,0.2560026 -0.720703,0.3769531 h 7.396484 c -1.191361,-0.6304816 -2.618179,-1.552755 -3.734375,-2.767578 z"
       style="color:#31363b;fill:#d3dae3;fill-opacity:1;stroke:none"
       class="ColorScheme-Text"
       inkscape:connector-curvature="0" />
    <rect
       y="0"
       x="0"
       height="22"
       width="22"
       id="rect4196"
       style="fill:none;fill-opacity:1;stroke:none;stroke-linejoin:miter" />
  </g>
  <g
     id="ime-bopomofo"
     transform="translate(-132,-88.000031)"
     style="fill:#cccccc">
    <rect
       y="0"
       x="0"
       height="22"
       width="22"
       id="rect4212"
       style="fill:none;fill-rule:evenodd;stroke:none;stroke-width:1px;stroke-linecap:butt;stroke-linejoin:miter;stroke-opacity:1" />
    <path
       id="path4214"
       transform="translate(-88,-33.999992)"
       d="m 91,37 v 16 h 16 V 37 Z m 1,1 h 14 V 52 H 92 Z m 7.300781,0.599609 -0.601562,0.800782 2.000001,1.5 0.60156,-0.800782 z m -5.947265,0.04687 -0.707032,0.707032 2,2 0.707032,-0.707032 z M 96,41 v 1 h 4 v 3 h -3 v 1 h 3 v 4 h -4 v 1 h 9 v -1 h -4 v -4 h 3 v -1 h -3 v -3 h 4 v -1 z m -2.646484,0.646484 -0.707032,0.707032 2,2 0.707032,-0.707032 z m 1.171875,3.195313 -2,6 0.949218,0.316406 2,-6 z"
       style="color:#31363b;fill:#d3dae3;fill-opacity:1;stroke:none"
       class="ColorScheme-Text"
       inkscape:connector-curvature="0" />
  </g>
  <g
     id="ime-chewing"
     transform="translate(-110,-88.000021)">
    <path
       transform="translate(-88,-34)"
       id="path4265"
       d="M 91,37 V 37.5 53 h 16 V 37 Z m 1,1 h 14 V 52 H 92 Z m 1,1 v 1 h 1 v 3 h -1 v 8 h 1 4.5 0.5 V 43 H 98.5 97 v -3 h 2 v -1 z m 6,4 0.400391,0.300781 c 0,0 0.398251,-0.511169 0.796879,-1.300781 H 102 v 2 h -2 v 1 h 5 v -1 h -2 v -2 h 2 v -1 h -2 v -2 h -1 v 2 h -1.38281 C 100.83463,40.388658 101,39.708749 101,39 h -1 c 0,1.75 -1.400391,3.699219 -1.400391,3.699219 z m -4,-3 h 1 v 3 h -1 z m 0,4 h 1 v 3 h 1 v -3 h 1 v 6 h -4 v -1 h 3 v -1 h -3 v -1 h 1 z m 5,2 v 0.5 4.5 h 5 v -5 z m 1,1 h 3 v 3 h -3 z"
       style="color:#31363b;fill:#d3dae3;fill-opacity:1;stroke:none"
       class="ColorScheme-Text"
       inkscape:connector-curvature="0" />
    <rect
       y="0"
       x="0"
       height="22"
       width="22"
       id="rect4267"
       style="fill:none;fill-opacity:1;stroke:none;stroke-linejoin:miter" />
  </g>
  <g
     transform="translate(-110,-66.000021)"
     id="ime-libpinyin-chewing">
    <path
       id="path4360"
       transform="translate(-88,-34)"
       d="M 91,37 V 37.5 53 h 16 V 37 Z m 2,2 h 6 v 1 h -2 v 3 H 98.5 99 L 98.599609,42.699219 C 98.599609,42.699219 100,40.75 100,39 h 1 c 0,0.708749 -0.16537,1.388658 -0.38281,2 H 102 v -2 h 1 v 2 h 2 v 1 h -2 v 2 h 2 v 1 h -5 v -1 h 2 v -2 h -1.80273 c -0.398628,0.789612 -0.796879,1.300781 -0.796879,1.300781 L 99,43 v 8 H 98.5 94 93 v -8 h 1 v -3 h -1 z m 2,1 v 3 h 1 v -3 z m 0,4 v 3 h -1 v 1 h 3 v 1 h -3 v 1 h 4 v -6 h -1 v 3 h -1 v -3 z m 5,2 h 5 v 5 h -5 v -4.5 z m 1,1 v 3 h 3 v -3 z"
       style="color:#31363b;fill:#d3dae3;fill-opacity:1;stroke:none"
       class="ColorScheme-Text"
       inkscape:connector-curvature="0" />
    <rect
       style="fill:none;fill-opacity:1;stroke:none;stroke-linejoin:miter"
       id="rect4353"
       width="22"
       height="22"
       x="0"
       y="0" />
  </g>
  <g
     id="ime-rime"
     transform="translate(-88,-88.000021)">
    <path
       id="path4365"
       transform="translate(-110,-12)"
       d="m 113,15 v 16 h 16 V 15 Z m 1,1 h 14 v 14 h -14 z m 6,1 v 6.982422 c -1.81096,-0.08165 -2.72052,-0.606587 -3.26172,-1.492188 C 116.14843,21.525025 116,19.979167 116,18 h -1 c 0,2.020833 0.10157,3.724975 0.88672,5.009766 0.72658,1.188957 2.06293,1.873963 4.11328,1.970703 V 28 h -5 v 1 h 11 v -1 h -5 v -3.019531 c 2.05035,-0.09674 3.3867,-0.781746 4.11328,-1.970703 C 125.89843,21.724975 126,20.020833 126,18 h -1 c 0,1.979167 -0.14843,3.525025 -0.73828,4.490234 -0.5412,0.885601 -1.45076,1.410542 -3.26172,1.492188 V 17 Z"
       style="color:#31363b;fill:#d3dae3;fill-opacity:1;stroke:none"
       class="ColorScheme-Text"
       inkscape:connector-curvature="0" />
    <rect
       y="0"
       x="0"
       height="22"
       width="22"
       id="rect4367"
       style="fill:none;fill-opacity:1;stroke:none;stroke-linejoin:miter" />
  </g>
  <g
     id="ime-unikey"
     transform="translate(-198,-148.00002)">
    <rect
       style="fill:none;fill-opacity:1;stroke:none"
       id="rect4386"
       width="22"
       height="22"
       x="-2.4709701e-09"
       y="170" />
    <path
       id="rect4402"
       transform="translate(0,48)"
       d="m 4,126 v 0.5 7.5 h 3 v 7 h 8 v -7 h 3 v -8 h -6 -1 z m 1,1 h 6 v 6 H 5 Z m 7,0 h 5 v 6 h -2 -3 z m -6,1 v 1.5 c 0,0.80556 0.1226409,1.42283 0.484375,1.875 C 6.8461091,131.82717 7.4166667,132 8,132 8.5833333,132 9.1538909,131.82717 9.515625,131.375 9.8773591,130.92283 10,130.30556 10,129.5 V 128 H 9 v 1.5 c 0,0.69444 -0.1273591,1.07717 -0.265625,1.25 C 8.5961091,130.92283 8.4166667,131 8,131 7.5833333,131 7.4038909,130.92283 7.265625,130.75 7.1273591,130.57717 7,130.19444 7,129.5 V 128 Z m 8,0 v 4 h 1 v -4 z m -6,6 h 3 1 2 v 6 H 8 Z m 2,1 H 9 v 4 h 1 v -2.49805 L 12,139 h 1 v -4 h -1 v 2.49805 z"
       style="color:#31363b;fill:#d3dae3;fill-opacity:1;stroke:none"
       class="ColorScheme-Text"
       inkscape:connector-curvature="0" />
  </g>
  <g
     transform="translate(-198,-192.00002)"
     id="ime-anthy">
    <rect
       y="170"
       x="-2.4709701e-09"
       height="22"
       width="22"
       id="rect4431"
       style="fill:none;fill-opacity:1;stroke:none" />
    <path
       id="circle4437"
       d="m 11,173 c -1.0986472,0 -2,0.90135 -2,2 v 0.002 c 0.00127,0.60896 0.3333856,1.12216 0.7949219,1.4961 -0.1451277,0.97576 -0.372921,2.23303 -0.7695313,3.25586 -0.211868,0.54639 -0.4670557,1.01446 -0.734375,1.3164 C 8.0236963,181.37225 7.783792,181.5 7.5,181.5 7.2018151,181.5 6.9605212,181.38854 6.7070312,181.15234 6.4535413,180.91615 6.211675,180.55139 6.0058594,180.11523 5.6264439,179.3112 5.398232,178.29965 5.2441406,177.4707 5.6835044,177.09584 5.9995503,176.5918 6,176 c 0,-1.09865 -0.9013528,-2 -2,-2 -1.0986472,0 -2,0.90135 -2,2 9.876e-4,0.82143 0.564308,1.45548 1.2988281,1.75781 L 5.0800781,188 H 16.919922 l 1.78125,-10.24023 C 19.436582,177.45711 20.000082,176.82244 20,176 c 0,-1.09865 -0.901353,-2 -2,-2 -1.098647,0 -2,0.90135 -2,2 4.5e-4,0.5918 0.316496,1.09584 0.755859,1.4707 -0.154091,0.82895 -0.382303,1.8405 -0.761718,2.64453 -0.205816,0.43616 -0.447682,0.80092 -0.701172,1.03711 C 15.039479,181.38854 14.798185,181.5 14.5,181.5 c -0.283716,0 -0.52375,-0.12794 -0.791016,-0.42969 -0.267266,-0.30174 -0.522495,-0.77029 -0.734375,-1.3164 C 12.577992,178.73163 12.3503,177.47582 12.205078,176.5 12.667324,176.12551 12.999524,175.6099 13,175 c 0,-1.09865 -0.901353,-2 -2,-2 z m 0,1 c 0.558207,0 1,0.44179 1,1 -3e-4,0.3835 -0.21765,0.73066 -0.5625,0.89844 l -0.326172,0.1582 0.04883,0.36133 c 0.145112,1.03434 0.406928,2.47067 0.882813,3.69726 0.237942,0.6133 0.527371,1.17816 0.917969,1.61914 0.390597,0.44099 0.920669,0.76563 1.539062,0.76563 0.575171,0 1.084763,-0.25198 1.474609,-0.61523 0.389847,-0.36326 0.683068,-0.83355 0.923829,-1.34375 0.403261,-0.85457 0.595886,-1.78757 0.759765,-2.61524 L 16.080078,187 H 5.9199219 L 4.34375,177.92773 c 0.1638928,0.82721 0.3549092,1.75948 0.7578125,2.61329 0.2407609,0.5102 0.5339819,0.98049 0.9238281,1.34375 C 6.4152368,182.24802 6.9248292,182.5 7.5,182.5 c 0.6185835,0 1.1503906,-0.32637 1.5410156,-0.76758 0.390625,-0.44121 0.6800565,-1.00363 0.9179688,-1.61719 0.4758246,-1.22711 0.7358526,-2.66508 0.8808596,-3.69921 l 0.04883,-0.36133 -0.326172,-0.15821 C 10.218615,175.72917 10.001472,175.38231 10,175 v -0.002 C 10.001,174.44077 10.442451,174 11,174 Z m -7,1 c 0.5582071,0 1,0.44179 1,1 -2.85e-4,0.375 -0.2077182,0.71484 -0.5410156,0.88672 l -0.2929688,0.15234 -0.328125,-0.0547 C 3.3513935,176.90478 3.0005927,176.49296 3,176 c 0,-0.55821 0.4417929,-1 1,-1 z m 14,0 c 0.558207,0 1,0.44179 1,1 4.9e-5,0.49347 -0.350892,0.90665 -0.837891,0.98633 l -0.326171,0.0547 -0.294922,-0.1543 C 17.207718,176.71484 17.000285,176.375 17,176 c 0,-0.55821 0.441793,-1 1,-1 z"
       style="color:#31363b;fill:#d3dae3;fill-opacity:1;stroke:none"
       class="ColorScheme-Text"
       inkscape:connector-curvature="0" />
  </g>
  <g
     id="ime-libkkc"
     transform="translate(-176,-192.00002)">
    <rect
       style="fill:none;fill-opacity:1;stroke:none"
       id="rect4452"
       width="22"
       height="22"
       x="-2.4709701e-09"
       y="170" />
    <path
       id="rect4456"
       transform="translate(-22,92)"
       d="M 25,81 V 81.5 97 H 41 V 81 Z m 1,1 H 40 V 96 H 26 Z m 1,3 v 8 h 1 V 90.707031 L 30.292969,93 H 31 31.707031 32 V 90.707031 L 34.292969,93 h 1.414062 l -3,-3 3,-3 H 34.292969 L 32,89.292969 V 85 h -1 v 2 H 30.292969 L 28,89.292969 V 85 Z m 10,2 c -0.583333,0 -1.110664,0.153634 -1.478516,0.521484 C 35.153633,87.889344 35,88.41667 35,89 v 2 c 0,0.58333 0.153633,1.110656 0.521484,1.478516 C 35.889336,92.846366 36.416667,93 37,93 37.583333,93 38.110664,92.846366 38.478516,92.478516 38.846367,92.110656 39,91.58333 39,91 h -1 c 0,0.41667 -0.09637,0.639344 -0.228516,0.771484 C 37.639336,91.903634 37.416667,92 37,92 36.583333,92 36.360664,91.903604 36.228516,91.771484 36.096367,91.639344 36,91.41667 36,91 v -2 c 0,-0.41667 0.09637,-0.639344 0.228516,-0.771484 C 36.360664,88.096366 36.583333,88 37,88 c 0.416667,0 0.639336,0.0964 0.771484,0.228516 C 37.903633,88.360656 38,88.58333 38,89 h 1 C 39,88.41667 38.846367,87.889344 38.478516,87.521484 38.110664,87.153634 37.583333,87 37,87 Z m -6,0.707031 v 4.585938 L 28.707031,90 Z"
       style="color:#31363b;fill:#d3dae3;fill-opacity:1;stroke:none"
       class="ColorScheme-Text"
       inkscape:connector-curvature="0" />
  </g>
  <g
     transform="translate(-153.97852,-191.97854)"
     id="ime-libskk">
    <rect
       y="170"
       x="-2.4709701e-09"
       height="22"
       width="22"
       id="rect4493"
       style="fill:none;fill-opacity:1;stroke:none" />
    <path
       id="path4495"
       transform="translate(-44.021484,91.978516)"
       d="m 47.021484,81.021484 v 0.5 15.5 h 16 v -16 z m 1,1 h 14 v 14 h -14 z M 53,85 v 3 3 2 h 1 V 90.707031 L 56.292969,93 H 57 57.707031 58 V 90.707031 L 60.292969,93 h 1.414062 l -3,-3 3,-3 H 60.292969 L 58,89.292969 V 85 h -1 v 2 H 56.292969 L 54,89.292969 V 85 Z m 0,6 C 53,90.41666 52.846367,89.889334 52.478516,89.521484 52.110665,89.153634 51.583333,89 51,89 50.583333,89 50.360665,88.903604 50.228516,88.771484 50.096367,88.639334 50,88.41666 50,88 50,87.58333 50.096367,87.360666 50.228516,87.228516 50.360665,87.096366 50.583333,87 51,87 c 0.416667,0 0.639335,0.09641 0.771484,0.228516 C 51.903633,87.360666 52,87.58333 52,88 h 1 C 53,87.41666 52.846367,86.889334 52.478516,86.521484 52.110665,86.153634 51.583333,86 51,86 50.416667,86 49.889335,86.153634 49.521484,86.521484 49.153633,86.889334 49,87.41666 49,88 c 0,0.58333 0.153633,1.110666 0.521484,1.478516 C 49.889335,89.846366 50.416667,90 51,90 c 0.416667,0 0.639335,0.09641 0.771484,0.228516 C 51.903633,90.360666 52,90.58333 52,91 52,91.41666 51.90363,91.639334 51.771484,91.771484 51.639335,91.903634 51.416667,92 51,92 50.583333,92 50.360665,91.903604 50.228516,91.771484 50.096367,91.639334 50,91.41666 50,91 h -1 c 0,0.58333 0.153633,1.110666 0.521484,1.478516 C 49.889335,92.846366 50.416667,93 51,93 51.583333,93 52.110665,92.846366 52.478516,92.478516 52.846367,92.110666 53,91.58333 53,91 Z m 4,-3.292969 v 4.585938 L 54.707031,90 Z"
       style="color:#31363b;fill:#d3dae3;fill-opacity:1;stroke:none"
       class="ColorScheme-Text"
       inkscape:connector-curvature="0" />
  </g>
  <g
     transform="translate(-198,-170.00002)"
     id="ime-hangul">
    <rect
       y="170"
       x="-2.4709701e-09"
       height="22"
       width="22"
       id="rect4504"
       style="fill:none;fill-opacity:1;stroke:none" />
    <path
       id="path4506"
       transform="translate(0,70)"
       d="m 3,103 v 0.5 15.5 h 16 v -16 z m 1,1 h 14 v 14 H 4 Z m 4,1 v 1 h 2 v -1 z m 6,1 v 8 h 1 v -4 h 2 v -1 h -2 v -3 z m -8,1 v 1 h 6 v -1 z m 3,2 c -1.5968879,0 -3,1.05766 -3,2.5 0,1.44234 1.4031121,2.5 3,2.5 1.596888,0 3,-1.05766 3,-2.5 0,-1.44234 -1.403112,-2.5 -3,-2.5 z m 0,1 c 1.164536,0 2,0.73321 2,1.5 0,0.76679 -0.835464,1.5 -2,1.5 -1.1645358,0 -2,-0.73321 -2,-1.5 0,-0.76679 0.8354642,-1.5 2,-1.5 z m -1,5 v 2 h 8 v -1 H 9 v -1 z"
       style="color:#31363b;fill:#d3dae3;fill-opacity:1;stroke:none"
       class="ColorScheme-Text"
       inkscape:connector-curvature="0" />
  </g>
  <g
     transform="translate(-66,-170)"
     id="ime-fullwidth">
    <rect
       y="170"
       x="-2.4709701e-09"
       height="22"
       width="22"
       id="rect4214"
       style="fill:none;fill-opacity:1;stroke:none" />
    <ellipse
       ry="7.9999995"
       rx="8"
       cy="181"
       cx="11"
       id="path4218"
       style="color:#31363b;fill:#d3dae3;fill-opacity:1;stroke:none"
       class="ColorScheme-Text" />
  </g>
  <g
     id="ime-halfwidth"
     transform="translate(-44,-170)">
    <rect
       style="fill:none;fill-opacity:1;stroke:none"
       id="rect4222"
       width="22"
       height="22"
       x="-2.4709701e-09"
       y="170" />
    <path
       id="ellipse4224"
       transform="translate(-154,81.999973)"
       d="M 167.56641,91.431641 A 8,7.9999995 0 0 1 168,94 a 8,7.9999995 0 0 1 -8,8 8,7.9999995 0 0 1 -2.56641,-0.43164 A 8,7.9999995 0 0 0 165,107 a 8,7.9999995 0 0 0 8,-8 8,7.9999995 0 0 0 -5.43359,-7.568359 z"
       style="color:#31363b;fill:#d3dae3;fill-opacity:1;stroke:none"
       class="ColorScheme-Text"
       inkscape:connector-curvature="0" />
  </g>
  <g
     id="ime-punctuation-halfwidth"
     transform="translate(-44,-148)">
    <rect
       style="fill:none;fill-opacity:1;stroke:none"
       id="rect4231"
       width="22"
       height="22"
       x="-2.4709701e-09"
       y="170" />
    <circle
       r="1.5"
       style="color:#31363b;fill:#d3dae3;fill-opacity:1;stroke:none"
       class="ColorScheme-Text"
       id="ellipse4233"
       cx="7.5"
       cy="180.5" />
    <path
       id="circle4235"
       d="m 14.5,178.99997 a 1.5,1.5 0 0 0 -1.5,1.5 1.5,1.5 0 0 0 1.5,1.5 1.5,1.5 0 0 0 0.04688,-0.002 c -0.53325,0.93921 -1.34766,1.60156 -1.34766,1.60156 l 0.60156,0.80078 c 0,0 1.96734,-1.42635 2.16211,-3.57226 A 1.5,1.5 0 0 0 16,180.49997 a 1.5,1.5 0 0 0 -1.5,-1.5 z"
       style="color:#31363b;fill:#d3dae3;fill-opacity:1;stroke:none"
       class="ColorScheme-Text"
       inkscape:connector-curvature="0" />
  </g>
  <g
     transform="translate(-66,-148)"
     id="ime-punctuation-fullwidth">
    <path
       id="path4251"
       d="m 7.5,178 c -1.3747895,0 -2.5,1.12521 -2.5,2.5 0,1.37479 1.1252105,2.5 2.5,2.5 1.3747895,0 2.5,-1.12521 2.5,-2.5 0,-1.37479 -1.1252105,-2.5 -2.5,-2.5 z m 0,1 C 8.3343495,179 9,179.66565 9,180.5 9,181.33435 8.3343495,182 7.5,182 6.6656505,182 6,181.33435 6,180.5 6,179.66565 6.6656505,179 7.5,179 Z"
       style="color:#000000;font-style:normal;font-variant:normal;font-weight:normal;font-stretch:normal;font-size:medium;line-height:normal;font-family:sans-serif;text-indent:0;text-align:start;text-decoration:none;text-decoration-line:none;text-decoration-style:solid;text-decoration-color:#000000;letter-spacing:normal;word-spacing:normal;text-transform:none;writing-mode:lr-tb;direction:ltr;baseline-shift:baseline;text-anchor:start;white-space:normal;clip-rule:nonzero;display:inline;overflow:visible;visibility:visible;opacity:1;isolation:auto;mix-blend-mode:normal;color-interpolation:sRGB;color-interpolation-filters:linearRGB;solid-color:#000000;solid-opacity:1;fill:#d3dae3;fill-opacity:1;fill-rule:nonzero;stroke:none;stroke-width:1;stroke-linecap:butt;stroke-linejoin:bevel;stroke-miterlimit:4;stroke-dasharray:none;stroke-dashoffset:0;stroke-opacity:1;color-rendering:auto;image-rendering:auto;shape-rendering:auto;text-rendering:auto;enable-background:accumulate"
       inkscape:connector-curvature="0" />
    <rect
       y="170"
       x="-2.4709701e-09"
       height="22"
       width="22"
       id="rect4245"
       style="fill:none;fill-opacity:1;stroke:none" />
    <path
       id="path4255"
       transform="translate(-198,81.999973)"
       d="m 212.5,96 c -1.37479,0 -2.5,1.12521 -2.5,2.5 0,1.37479 1.12521,2.5 2.5,2.5 0.36519,0 0.70988,-0.0842 1.02344,-0.22656 -0.34093,0.6932 -0.81988,1.1673 -1.30664,1.50195 -0.89509,0.61537 -1.7793,0.72852 -1.7793,0.72852 l 0.125,0.99218 c 0,0 1.11579,-0.13685 2.2207,-0.89648 C 213.88812,102.33998 215,100.89815 215,98.5 215,97.12521 213.87479,96 212.5,96 Z m 0,1 c 0.83435,0 1.5,0.66565 1.5,1.5 0,0.83435 -0.66565,1.5 -1.5,1.5 -0.83435,0 -1.5,-0.66565 -1.5,-1.5 0,-0.83435 0.66565,-1.5 1.5,-1.5 z"
       style="color:#000000;font-style:normal;font-variant:normal;font-weight:normal;font-stretch:normal;font-size:medium;line-height:normal;font-family:sans-serif;text-indent:0;text-align:start;text-decoration:none;text-decoration-line:none;text-decoration-style:solid;text-decoration-color:#000000;letter-spacing:normal;word-spacing:normal;text-transform:none;writing-mode:lr-tb;direction:ltr;baseline-shift:baseline;text-anchor:start;white-space:normal;clip-rule:nonzero;display:inline;overflow:visible;visibility:visible;opacity:1;isolation:auto;mix-blend-mode:normal;color-interpolation:sRGB;color-interpolation-filters:linearRGB;solid-color:#000000;solid-opacity:1;fill:#d3dae3;fill-opacity:1;fill-rule:nonzero;stroke:none;stroke-width:1;stroke-linecap:butt;stroke-linejoin:bevel;stroke-miterlimit:4;stroke-dasharray:none;stroke-dashoffset:0;stroke-opacity:1;color-rendering:auto;image-rendering:auto;shape-rendering:auto;text-rendering:auto;enable-background:accumulate"
       inkscape:connector-curvature="0" />
  </g>
  <g
     id="ime-chinese-simplified"
     transform="translate(-66,-126)">
    <rect
       style="fill:none;fill-opacity:1;stroke:none"
       id="rect4264"
       width="22"
       height="22"
       x="-2.4709701e-09"
       y="170" />
    <path
       id="path4368"
       transform="translate(-132,59.999974)"
       d="m 138.81055,113.40625 c -0.50782,1.36719 -1.34766,2.59765 -2.51953,3.69141 l 0.99609,0.76172 c 0.19531,-0.0391 0.74219,-0.72266 1.64062,-2.05079 h 0.76172 c 0.42969,0.625 0.80078,1.26953 1.11328,1.9336 l 1.17188,-0.64453 -0.9375,-1.28907 h 2.05078 v -1.11328 h -3.63281 l 0.46875,-0.9375 z m 6.03515,0 c -0.46875,1.32813 -1.26953,2.53907 -2.40234,3.63281 l 0.99609,0.76172 c 0.66407,-0.625 1.17188,-1.28906 1.52344,-1.99219 h 0.99609 c 0.42969,0.58594 0.80079,1.21094 1.11329,1.875 l 1.05468,-0.64453 c -0.27343,-0.42968 -0.5664,-0.83984 -0.8789,-1.23047 h 2.46093 v -1.11328 h -4.16015 c 0.15625,-0.3125 0.29297,-0.625 0.41015,-0.9375 z m -5.44922,4.10156 -0.99609,0.58594 c 0.54688,0.54687 0.95703,1.09375 1.23047,1.64063 l 1.11328,-0.58594 c -0.35156,-0.58594 -0.80078,-1.13281 -1.34766,-1.64063 z m 1.99219,0.52735 v 0.99609 h 6.38672 v 6.03516 c 0,0.54687 -0.13672,0.82031 -0.41016,0.82031 -0.39062,0 -0.89843,-0.0195 -1.52343,-0.0586 l 0.29297,1.11329 c 0.54687,0.0391 1.01562,0.0586 1.40625,0.0586 0.46875,0 0.82031,-0.13672 1.05468,-0.41016 0.23438,-0.27343 0.35157,-0.66406 0.35157,-1.17187 v -7.38281 h -7.5586 z m -3.98437,1.58203 V 127 h 1.17187 v -7.38281 z m 2.87109,0.64453 v 5.03906 h 5.39063 v -5.03906 z m 1.11328,0.99609 h 3.16406 v 0.9961 h -3.16406 z m 0,1.9336 h 3.16406 v 1.11328 h -3.16406 z M 135,128 v 1 h 16 v -1 z"
       style="color:#31363b;fill:#d3dae3;fill-opacity:1;stroke:none"
       class="ColorScheme-Text"
       inkscape:connector-curvature="0" />
  </g>
  <g
     transform="translate(-44,-126)"
     id="ime-chinese-traditional">
    <rect
       y="170"
       x="-2.4709701e-09"
       height="22"
       width="22"
       id="rect4343"
       style="fill:none;fill-opacity:1;stroke:none" />
    <path
       id="path4357"
       transform="translate(-154,59.999974)"
       d="m 160.01953,113.46484 c -0.3125,0.70313 -0.89844,1.38672 -1.75781,2.05078 l 0.82031,0.64454 c 0.39063,-0.27344 0.76172,-0.64453 1.11328,-1.11328 h 5.44922 v -0.87891 h -4.86328 c 0.0391,-0.11719 0.0977,-0.2539 0.17578,-0.41016 z m 7.14844,0 c -0.39063,1.25 -1.01563,2.36328 -1.875,3.33985 l 0.70312,0.76172 0.58594,-0.70313 c 0.35156,0.58594 0.76172,1.09375 1.23047,1.52344 -0.625,0.50781 -1.36719,0.95704 -2.22656,1.34766 l 0.82031,0.8789 c 0.85938,-0.46875 1.60156,-0.95703 2.22656,-1.46484 0.70313,0.54687 1.48438,1.03515 2.34375,1.46484 l 0.76172,-0.9375 c -0.9375,-0.39063 -1.73828,-0.82031 -2.40234,-1.28906 0.66406,-0.74219 1.13281,-1.58203 1.40625,-2.51953 h 0.82031 v -0.9961 h -3.86719 l 0.46875,-1.11328 z m -7.26563,2.28516 -0.35156,1.69922 h -1.17187 v 0.9375 h 0.99609 l -0.35156,1.75781 h 4.39453 v 0.35156 h 0.99609 l 0.0586,-0.35156 H 165 v -0.87891 h -0.46875 l 0.11719,-0.8789 h 0.9375 v -0.9375 h -0.82032 L 165,115.75 Z m 7.32422,0.11719 h 2.40235 c -0.19532,0.66406 -0.54688,1.28906 -1.05469,1.875 -0.50781,-0.50782 -0.97656,-1.09375 -1.40625,-1.75781 0.0391,-0.0391 0.0586,-0.0781 0.0586,-0.11719 z m -6.44531,0.70312 h 0.76172 c 0.19531,0.23438 0.39062,0.52734 0.58594,0.87891 h -1.52344 z m 1.69922,0 h 1.46484 l -0.11719,0.87891 h -0.76171 z m -1.99219,1.81641 H 161.25 c 0.19531,0.23437 0.41016,0.52735 0.64453,0.8789 h -1.58203 z m 1.75781,0 h 1.46485 l -0.17578,0.8789 h -0.76172 c -0.15625,-0.3125 -0.33203,-0.60547 -0.52735,-0.8789 z m 5.6836,1.93359 c -1.25,0.74219 -2.10938,1.15234 -2.57813,1.23047 -0.70312,0.11719 -1.95312,0.19531 -3.75,0.23438 0.625,-0.19532 1.25,-0.48828 1.875,-0.87891 l -0.76172,-0.52734 c -0.78125,0.54687 -1.75781,0.97656 -2.92968,1.28906 l 0.11718,0.82031 c 1.17188,0 2.36328,-0.0391 3.57422,-0.11719 -1.25,0.46876 -2.77344,0.87891 -4.57031,1.23047 l 0.17578,0.9375 c 1.75781,0 3.53516,-0.0586 5.33203,-0.17578 v 1.23047 c 0,0.3125 -0.11718,0.46875 -0.35156,0.46875 -0.42969,0 -0.85937,-0.0586 -1.28906,-0.17578 l 0.17578,1.05469 c 0.35156,0.0781 0.72265,0.11718 1.11328,0.11718 0.625,0 1.03516,-0.0977 1.23047,-0.29297 0.19531,-0.1953 0.29297,-0.52734 0.29297,-0.99609 v -1.52344 c 1.32812,-0.11718 2.65625,-0.27343 3.98437,-0.46875 0.3125,0.3125 0.58594,0.64453 0.82031,0.9961 l 1.11329,-0.52735 c -0.78125,-0.9375 -1.71875,-1.79687 -2.8125,-2.57812 l -1.05469,0.46875 c 0.42969,0.27343 0.82031,0.58593 1.17187,0.9375 -1.5625,0.3125 -3.96484,0.52734 -7.20703,0.64453 2.61719,-0.58594 5.03906,-1.50391 7.26563,-2.75391 z m -0.87891,4.27735 -0.46875,0.9375 c 1.28906,0.3125 2.57813,0.74219 3.86719,1.28906 l 0.46875,-0.9961 c -1.21094,-0.46874 -2.5,-0.8789 -3.86719,-1.23046 z m -4.6875,0.11718 c -1.13281,0.46876 -2.38281,0.83985 -3.75,1.11328 l 0.70313,0.9961 c 1.48437,-0.39063 2.7539,-0.89844 3.80859,-1.52344 z M 157,128 v 1 h 16 v -1 z"
       style="color:#31363b;fill:#d3dae3;fill-opacity:1;stroke:none"
       class="ColorScheme-Text"
       inkscape:connector-curvature="0" />
  </g>
  <g
     transform="translate(-176,-88.000031)"
     id="ime-handwriting-off">
    <path
       id="path4564"
       transform="translate(-22)"
       d="m 235.13672,112.56836 -3.27149,12.20703 1.07032,3.73828 2.79492,-2.70312 3.26953,-12.20703 -0.48242,-0.13086 z m 0.70703,1.22266 1.93164,0.51757 -0.25977,0.96875 -1.93164,-0.51953 z m -0.51758,1.93359 1.93164,0.51758 -2.42187,9.04297 -1.39649,1.35156 -0.53515,-1.86914 z m -11.0039,3.72656 c -0.19319,0.004 -0.40565,0.0236 -0.64454,0.0566 a 0.50078273,0.50078273 0 0 0 0.11524,0.99414 0.50078273,0.50078273 0 0 0 0.0215,-0.002 c 0.41874,-0.0578 0.71009,-0.056 0.8711,-0.0293 0.161,0.0267 0.16413,0.0574 0.15234,0.041 -0.0118,-0.0164 0.006,-0.009 -0.006,0.0918 -0.0114,0.10109 -0.0582,0.26431 -0.125,0.45117 -0.13364,0.37372 -0.35128,0.82336 -0.41015,1.32617 -0.0294,0.25141 -0.0149,0.53952 0.13281,0.80664 0.14773,0.26712 0.41956,0.46728 0.73828,0.57422 0.15253,0.0511 0.21329,0.0406 0.30859,0.0449 0.0953,0.004 0.20075,0.006 0.31641,0.006 0.23131,7e-5 0.50355,-0.003 0.75781,0.004 0.032,8.8e-4 0.0467,0.006 0.0781,0.008 -0.0907,0.0554 -0.14559,0.0982 -0.25196,0.1582 -0.53281,0.30067 -1.21797,0.64435 -1.78125,1.02149 -0.28163,0.18856 -0.53612,0.38276 -0.73632,0.62109 -0.20021,0.23833 -0.36943,0.5761 -0.28711,0.94922 0.0823,0.37312 0.37008,0.63181 0.73046,0.82617 0.36039,0.19436 0.83345,0.35158 1.48047,0.49805 1.05119,0.23796 2.36032,0.16845 3.54297,0.2207 1.18266,0.0523 2.16839,0.26022 2.55274,0.70313 a 0.50005,0.50005 0 1 0 0.7539,-0.65625 c -0.75608,-0.87128 -2.01587,-0.99183 -3.26172,-1.04688 -1.24584,-0.0551 -2.54984,-0.0103 -3.36718,-0.19531 -0.59572,-0.13486 -0.99936,-0.27981 -1.22657,-0.40235 -0.22721,-0.12254 -0.23579,-0.19509 -0.22851,-0.1621 0.007,0.033 -0.0185,0.0229 0.0762,-0.0898 0.0947,-0.11274 0.28674,-0.2725 0.52734,-0.43359 0.48121,-0.32219 1.15138,-0.66336 1.7168,-0.98242 0.28271,-0.15954 0.5384,-0.31224 0.75195,-0.47852 0.21356,-0.16628 0.46591,-0.33012 0.47657,-0.75195 0.006,-0.24594 -0.16427,-0.47043 -0.30469,-0.56446 -0.14042,-0.094 -0.26745,-0.13056 -0.39649,-0.16015 -0.25808,-0.0592 -0.53621,-0.0742 -0.81836,-0.082 -0.28212,-0.008 -0.56257,-0.004 -0.7832,-0.004 -0.11031,-3e-5 -0.20637,-8.4e-4 -0.27148,-0.004 -0.0275,-0.001 -0.0496,-0.005 -0.0645,-0.008 0.012,0.005 0.0131,0.007 0.0274,0.0117 -0.0504,-0.0169 -0.0476,-0.0156 -0.0274,-0.0117 -0.11428,-0.0431 -0.14247,-0.0763 -0.15429,-0.0977 -0.0131,-0.0236 -0.0302,-0.0805 -0.0156,-0.20507 0.0292,-0.24917 0.2055,-0.67516 0.35938,-1.10547 0.0769,-0.21516 0.14852,-0.43604 0.17578,-0.67774 0.0273,-0.2417 0.006,-0.53533 -0.17578,-0.78711 -0.18155,-0.25177 -0.47836,-0.39019 -0.79883,-0.44335 -0.16024,-0.0266 -0.33415,-0.0375 -0.52734,-0.0332 z"
       style="color:#31363b;fill:#d3dae3;fill-opacity:1;stroke:none"
       class="ColorScheme-Text"
       inkscape:connector-curvature="0" />
    <rect
       y="110.00002"
       x="198"
       height="22"
       width="22"
       id="rect4570"
       style="fill:none;fill-opacity:1;stroke:none;stroke-linecap:round;stroke-linejoin:miter" />
    <rect
       style="fill:none;fill-opacity:1;stroke:none;stroke-linecap:round;stroke-linejoin:miter"
       id="rect4576"
       width="22"
       height="22"
       x="198"
       y="110.00002" />
  </g>
  <g
     id="ime-handwriting-on"
     transform="translate(-198,-88.000031)">
    <path
       id="path4530"
       d="m 213.13672,112.56836 -3.27149,12.20703 1.07032,3.73828 2.79492,-2.70312 3.26953,-12.20703 -0.48242,-0.13086 z m 0.70703,1.22266 1.93164,0.51757 -0.25977,0.96875 -1.93164,-0.51953 z m -0.51758,1.93359 1.93164,0.51758 -2.42187,9.04297 -1.39649,1.35156 -0.53515,-1.86914 z m -11.0039,3.72656 c -0.19319,0.004 -0.40565,0.0236 -0.64454,0.0566 a 0.50078273,0.50078273 0 1 0 0.13672,0.99219 c 0.41874,-0.0578 0.71009,-0.056 0.8711,-0.0293 0.161,0.0267 0.16413,0.0574 0.15234,0.041 -0.0118,-0.0164 0.006,-0.009 -0.006,0.0918 -0.0114,0.10109 -0.0582,0.26431 -0.125,0.45117 -0.13364,0.37372 -0.35128,0.82336 -0.41015,1.32617 -0.0294,0.25141 -0.0149,0.53952 0.13281,0.80664 0.14773,0.26712 0.41956,0.46728 0.73828,0.57422 0.15253,0.0511 0.21329,0.0406 0.30859,0.0449 0.0953,0.004 0.20075,0.006 0.31641,0.006 0.23131,7e-5 0.50355,-0.003 0.75781,0.004 0.032,8.8e-4 0.0467,0.006 0.0781,0.008 -0.0907,0.0554 -0.14559,0.0982 -0.25196,0.1582 -0.53281,0.30067 -1.21797,0.64435 -1.78125,1.02149 -0.28163,0.18856 -0.53612,0.38276 -0.73632,0.62109 -0.20021,0.23833 -0.36943,0.5761 -0.28711,0.94922 0.0823,0.37312 0.37008,0.63181 0.73046,0.82617 0.36039,0.19436 0.83345,0.35158 1.48047,0.49805 1.05119,0.23796 2.36032,0.16845 3.54297,0.2207 1.18266,0.0523 2.16839,0.26022 2.55274,0.70313 a 0.50005,0.50005 0 1 0 0.7539,-0.65625 c -0.75608,-0.87128 -2.01587,-0.99183 -3.26172,-1.04688 -1.24584,-0.0551 -2.54984,-0.0103 -3.36718,-0.19531 -0.59572,-0.13486 -0.99936,-0.27981 -1.22657,-0.40235 -0.22721,-0.12254 -0.23579,-0.19509 -0.22851,-0.1621 0.007,0.033 -0.0185,0.0229 0.0762,-0.0898 0.0947,-0.11274 0.28674,-0.2725 0.52734,-0.43359 0.48121,-0.32219 1.15138,-0.66336 1.7168,-0.98242 0.28271,-0.15954 0.5384,-0.31224 0.75195,-0.47852 0.21356,-0.16628 0.46591,-0.33012 0.47657,-0.75195 0.006,-0.24594 -0.16427,-0.47043 -0.30469,-0.56446 -0.14042,-0.094 -0.26745,-0.13056 -0.39649,-0.16015 -0.25808,-0.0592 -0.53621,-0.0742 -0.81836,-0.082 -0.28212,-0.008 -0.56257,-0.004 -0.7832,-0.004 -0.11031,-3e-5 -0.20637,-8.4e-4 -0.27148,-0.004 -0.0275,-0.001 -0.0496,-0.005 -0.0645,-0.008 0.012,0.005 0.0131,0.007 0.0274,0.0117 -0.0504,-0.0169 -0.0476,-0.0156 -0.0274,-0.0117 -0.11428,-0.0431 -0.14247,-0.0763 -0.15429,-0.0977 -0.0131,-0.0236 -0.0302,-0.0805 -0.0156,-0.20507 0.0292,-0.24917 0.2055,-0.67516 0.35938,-1.10547 0.0769,-0.21516 0.14852,-0.43604 0.17578,-0.67774 0.0273,-0.2417 0.006,-0.53533 -0.17578,-0.78711 -0.18155,-0.25177 -0.47836,-0.39019 -0.79883,-0.44335 -0.16024,-0.0266 -0.33415,-0.0375 -0.52734,-0.0332 z"
       style="color:#31363b;fill:#d3dae3;fill-opacity:1;stroke:none"
       class="ColorScheme-Text"
       inkscape:connector-curvature="0" />
    <rect
       style="fill:none;fill-opacity:1;stroke:none;stroke-linecap:round;stroke-linejoin:miter"
       id="rect4532"
       width="22"
       height="22"
       x="198"
       y="110.00002" />
    <rect
       y="110.00002"
       x="198"
       height="22"
       width="22"
       id="rect4545"
       style="fill:none;fill-opacity:1;stroke:none;stroke-linecap:round;stroke-linejoin:miter" />
    <ellipse
       ry="2.5000026"
       rx="2.5"
       cy="114.50002"
       cx="202.5"
       id="path4601"
       style="fill:#4b8bd4;fill-opacity:1;stroke:none;stroke-linecap:round;stroke-linejoin:miter" />
  </g>
  <g
     inkscape:label="#ime-wubipinyin"
     id="ime-wubipinyin"
     transform="translate(-22,-88.000021)">
    <path
       style="color:#31363b;fill:#d3dae3;fill-opacity:1;stroke:none"
       d="M 28,98.001953 V 114 h 9 v 1 h 8 V 105 H 44 V 98.001953 Z M 29,99 h 14 v 6 h -3.5 -4.263672 l 0.666016,-3 H 40 v -1 h -9 v 1 h 3.876953 l -0.666015,3 H 32 v 1 h 1.988281 l -0.888672,4 H 31 v 1 h 6 v 2 h -8 z m 6.013672,7 H 37 v 4 H 34.123047 Z M 39,107 h 0.5 c 0.75,0 1.531712,-0.0168 2.220703,0.21289 0.344496,0.11483 0.676391,0.30519 0.916016,0.61328 C 42.876343,108.13426 43,108.54167 43,109 c 0,0.45833 -0.123657,0.86574 -0.363281,1.17383 -0.239625,0.30809 -0.57152,0.49845 -0.916016,0.61328 -0.533836,0.17794 -1.133444,0.15946 -1.720703,0.16406 V 113 h -1 z m 1,1.04297 v 1.91406 c 0.528068,-0.0121 1.082776,-0.012 1.404297,-0.11914 0.218004,-0.0727 0.354859,-0.16356 0.443359,-0.27734 C 41.93616,109.44676 42,109.29167 42,109 c 0,-0.29167 -0.06384,-0.44676 -0.152344,-0.56055 -0.0885,-0.11378 -0.225355,-0.20467 -0.443359,-0.27734 C 41.082776,108.05494 40.528068,108.05507 40,108.04297 Z"
       transform="translate(-25,-95)"
       class="ColorScheme-Text"
       id="path114"
       inkscape:connector-curvature="0" />
    <rect
       style="fill:none;fill-opacity:1;stroke:none"
       id="rect4314"
       width="22"
       height="22"
       x="0"
       y="0" />
  </g>
  <g
     id="ime-remind-off">
    <rect
       y="2.9517578e-05"
       x="22"
       height="22"
       width="22"
       id="rect4483"
       style="fill:none;fill-opacity:1;stroke:none;stroke-linejoin:miter" />
    <path
       d="m 35.27431,4.7884865 v 6.3507915 c 0.21086,-0.05981 0.42889,-0.102318 0.65388,-0.122923 V 4.7884865 c 0,-0.180139 -0.14685,-0.326922 -0.32699,-0.326922 -0.18014,0 -0.32689,0.146783 -0.32689,0.326922 z"
       id="path12-0-2"
       style="fill:#b2bacd;fill-opacity:1;stroke-width:0.326922" />
    <path
       d="m 31.3512,16.884612 c -0.11112,0 -0.21967,-0.01078 -0.32689,-0.02612 v 1.333845 h 3.26922 v 0.653844 h -3.26922 v 0.326923 c 0,0.180137 0.14675,0.326922 0.32689,0.326922 h 3.26922 c 0.18014,0 0.327,-0.146785 0.327,-0.326922 v -2.314612 c -0.10726,0.01536 -0.21578,0.02612 -0.327,0.02612 z"
       id="path14-6-0"
       style="fill:#d3dae3;fill-opacity:1;stroke-width:0.326922" />
    <path
       d="m 35.6012,3.8077195 c 0.54072,0 0.98078,0.440034 0.98078,0.980767 v 6.2115245 h 0.65388 V 4.7884865 c 0,-0.901328 -0.73323,-1.634612 -1.63466,-1.634612 -0.17451,0 -0.34584,0.03103 -0.51,0.08469 0.085,0.19844 0.14163,0.411595 0.16713,0.634234 0.10726,-0.04025 0.22192,-0.06503 0.34287,-0.06503 z"
       id="path16-2-2"
       style="fill:#b2bacd;fill-opacity:1;stroke-width:0.326922" />
    <path
       d="m 32.00509,4.1346415 c 0,-0.540733 0.44005,-0.980767 0.98077,-0.980767 0.54072,0 0.98078,0.440034 0.98078,0.980767 v 7.6895425 c 0.20041,-0.16575 0.42039,-0.307638 0.65378,-0.427291 V 4.1346415 c 0,-0.901327 -0.73325,-1.634611 -1.63456,-1.634611 -0.90131,0 -1.63466,0.733284 -1.63466,1.634611 v 7.2622505 c 0.23349,0.119653 0.45347,0.261541 0.65388,0.427291 z"
       id="path18-6-3"
       style="fill:#b2bacd;fill-opacity:1;stroke-width:0.326922" />
    <path
       d="m 33.31275,14.596157 v 0.326923 h -0.65378 v -0.326923 c 0,-1.62219 -1.32016,-2.942301 -2.94233,-2.942301 H 28.1 c 0.163139,1.469189 1.41233,2.615379 2.92431,2.615379 h 0.98078 v 0.653844 h -0.98078 c -0.45869,0 -0.89578,-0.08961 -1.29948,-0.246828 0.0423,0.863405 0.75252,1.554518 1.62637,1.554518 h 1.30777 v -0.653845 h 0.65378 v 0.653845 h 1.30767 c 0.87387,0 1.58367,-0.691112 1.62648,-1.554517 -0.40371,0.157249 -0.84078,0.246828 -1.29948,0.246828 h -0.98078 v -0.653844 h 0.98078 c 1.51198,0 2.76117,-1.14619 2.9243,-2.61538 h -1.61664 c -1.62216,0 -2.94233,1.320112 -2.94233,2.942301 z"
       id="path20-1-7"
       style="fill:#d3dae3;fill-opacity:1;stroke-width:0.326922" />
    <path
       d="m 30.04353,4.7884865 v 6.2281955 c 0.22499,0.02028 0.44302,0.06278 0.65389,0.122923 V 4.7884865 c 0,-0.180139 -0.14686,-0.326922 -0.3269,-0.326922 -0.18014,0 -0.32699,0.146783 -0.32699,0.326922 z"
       id="path22-8-5"
       style="fill:#b2bacd;fill-opacity:1;stroke-width:0.326922" />
    <path
       d="m 32.65897,4.1346415 v 8.4002635 c 0.12586,0.179157 0.23503,0.370734 0.32689,0.571796 0.0915,-0.201062 0.20103,-0.39264 0.32689,-0.571796 V 4.1346415 c 0,-0.180138 -0.14675,-0.326922 -0.32689,-0.326922 -0.18014,0 -0.32689,0.146784 -0.32689,0.326922 z"
       id="path24-3-9"
       style="fill:#b2b9cd;fill-opacity:1;stroke-width:0.326922" />
    <path
       d="m 29.38975,4.7884865 c 0,-0.540733 0.43995,-0.980767 0.98077,-0.980767 0.12095,0 0.23565,0.02488 0.34287,0.06537 0.0256,-0.222636 0.0822,-0.435792 0.16714,-0.634232 -0.16417,-0.05397 -0.3355,-0.085 -0.51001,-0.085 -0.9014,0 -1.634658,0.733284 -1.634658,1.634612 v 6.2115225 h 0.653888 z"
       id="path26-7-2"
       style="fill:#b2bacd;fill-opacity:1;stroke-width:0.326922" />
  </g>
  <g
     id="g1082">
    <g
       id="g1069">
      <g
         id="ime-remind-on">
        <rect
           style="fill:none;fill-opacity:1;stroke:none;stroke-linejoin:miter"
           id="rect4473"
           width="22"
           height="22"
           x="0"
           y="-4.8242191e-07" />
        <path
           d="m 13.252295,5.153845 v 5.977213 c 0.198456,-0.05627 0.403692,-0.09627 0.615383,-0.115691 V 5.153845 c 0,-0.16954 -0.138151,-0.307698 -0.307691,-0.307698 -0.169539,0 -0.307692,0.138158 -0.307692,0.307698 z"
           id="path12-6"
           style="fill:#4b8bd4;fill-opacity:1;stroke-width:0.307691" />
        <path
           d="m 9.559995,16.538432 c -0.104587,0 -0.206768,-0.01044 -0.307691,-0.02458 v 1.255381 h 3.076917 v 0.615386 H 9.252304 v 0.30769 C 9.252304,18.861851 9.390456,19 9.559995,19 h 3.076917 c 0.169537,0 0.307694,-0.138149 0.307694,-0.307691 v -2.178456 c -0.100906,0.01446 -0.203077,0.02458 -0.307694,0.02458 z"
           id="path14-2"
           style="fill:#d3dae3;fill-opacity:1;stroke-width:0.307691" />
        <path
           d="m 13.559987,4.230766 c 0.508923,0 0.923073,0.414156 0.923073,0.923079 v 5.84614 h 0.615385 v -5.84614 c 0,-0.848308 -0.69015,-1.538464 -1.538458,-1.538464 -0.164309,0 -0.325538,0.02921 -0.479998,0.07973 0.08,0.186771 0.133231,0.38738 0.157231,0.596922 0.100908,-0.03787 0.208919,-0.06122 0.322767,-0.06122 z"
           id="path16-9"
           style="fill:#4b8bd4;fill-opacity:1;stroke-width:0.307691" />
        <path
           d="m 10.175376,4.538457 c 0,-0.50892 0.414158,-0.923076 0.923075,-0.923076 0.508923,0 0.923079,0.414156 0.923079,0.923076 v 7.237218 c 0.188612,-0.156 0.395691,-0.28954 0.615382,-0.402151 V 4.538457 C 12.636912,3.690149 11.946758,3 11.098451,3 10.250143,3 9.559995,3.690149 9.559995,4.538457 v 6.835067 c 0.21969,0.112611 0.426766,0.246151 0.615381,0.402151 z"
           id="path18-1"
           style="fill:#4b8bd4;fill-opacity:1;stroke-width:0.307691" />
        <path
           d="m 11.406142,14.384595 v 0.307693 H 10.79076 v -0.307693 c 0,-1.526769 -1.242457,-2.769229 -2.769223,-2.769229 H 6.5 c 0.153541,1.382766 1.329229,2.461536 2.752304,2.461536 h 0.923072 v 0.615386 H 9.252304 c -0.431691,0 -0.843075,-0.08433 -1.223075,-0.232309 0.04028,0.812613 0.708307,1.463072 1.530766,1.463072 h 1.230765 v -0.615382 h 0.615382 v 0.615382 h 1.23077 c 0.822458,0 1.490457,-0.650459 1.530765,-1.463072 -0.379999,0.147999 -0.79138,0.232309 -1.223071,0.232309 H 12.02153 v -0.615386 h 0.923076 c 1.423071,0 2.598761,-1.07877 2.752299,-2.461536 h -1.521536 c -1.526762,0 -2.769227,1.24246 -2.769227,2.769229 z"
           id="path20-2"
           style="fill:#d3dae3;fill-opacity:1;stroke-width:0.307691" />
        <path
           d="m 8.329229,5.153845 v 5.861831 c 0.211692,0.01909 0.416918,0.05909 0.615383,0.115691 V 5.153845 c 0,-0.16954 -0.138156,-0.307698 -0.307691,-0.307698 -0.169541,0 -0.307692,0.138158 -0.307692,0.307698 z"
           id="path22-7"
           style="fill:#4b8bd4;fill-opacity:1;stroke-width:0.307691" />
        <path
           d="m 10.79076,4.538457 v 7.906142 c 0.118466,0.168614 0.221233,0.348923 0.307691,0.538148 0.08646,-0.189225 0.189232,-0.369534 0.307691,-0.538148 V 4.538457 c 0,-0.169534 -0.138149,-0.307691 -0.307691,-0.307691 -0.169534,0 -0.307691,0.138157 -0.307691,0.307691 z"
           id="path24-0"
           style="fill:#4b8bd4;fill-opacity:1;stroke-width:0.307691" />
        <path
           d="m 7.713847,5.153845 c 0,-0.508923 0.414152,-0.923079 0.923074,-0.923079 0.113844,0 0.221844,0.02342 0.322766,0.06156 0.024,-0.209541 0.07719,-0.410152 0.157234,-0.596922 -0.154465,-0.05081 -0.315693,-0.08 -0.48,-0.08 -0.848305,0 -1.538462,0.690156 -1.538462,1.538463 v 5.846142 h 0.615388 z"
           id="path26-9"
           style="fill:#4b8bd4;fill-opacity:1;stroke-width:0.307691" />
      </g>
    </g>
  </g>
</svg>
