<?xml version="1.0" encoding="UTF-8" standalone="no"?>
<svg
   xmlns:dc="http://purl.org/dc/elements/1.1/"
   xmlns:cc="http://creativecommons.org/ns#"
   xmlns:rdf="http://www.w3.org/1999/02/22-rdf-syntax-ns#"
   xmlns:svg="http://www.w3.org/2000/svg"
   xmlns="http://www.w3.org/2000/svg"
   xmlns:sodipodi="http://sodipodi.sourceforge.net/DTD/sodipodi-0.dtd"
   xmlns:inkscape="http://www.inkscape.org/namespaces/inkscape"
   width="32"
   height="32"
   id="svg3869"
   version="1.1"
   viewBox="0 0 32 32.000001"
   sodipodi:docname="input.svg"
   inkscape:version="1.0.2 (e86c870879, 2021-01-15)">
  <sodipodi:namedview
     pagecolor="#ffffff"
     bordercolor="#000000"
     borderopacity="1"
     objecttolerance="10"
     gridtolerance="10"
     guidetolerance="10"
     inkscape:pageopacity="0"
     inkscape:pageshadow="2"
     inkscape:window-width="1920"
     inkscape:window-height="1007"
     id="namedview49"
     showgrid="false"
     inkscape:zoom="2.32"
     inkscape:cx="25.657345"
     inkscape:cy="-88.731817"
     inkscape:window-x="0"
     inkscape:window-y="0"
     inkscape:window-maximized="1"
     inkscape:current-layer="svg3869"
     inkscape:document-rotation="0"
     inkscape:lockguides="false">
    <inkscape:grid
       type="xygrid"
       id="grid874"
       originx="-38"
       originy="-224" />
  </sodipodi:namedview>
  <metadata
     id="metadata25">
    <rdf:RDF>
      <cc:Work
         rdf:about="">
        <dc:format>image/svg+xml</dc:format>
        <dc:type
           rdf:resource="http://purl.org/dc/dcmitype/StillImage" />
        <dc:title />
      </cc:Work>
    </rdf:RDF>
  </metadata>
  <defs
     id="defs3871">
    <style
       type="text/css"
       id="current-color-scheme" />
  </defs>
  <g
     transform="translate(-370,-620.36216)"
     id="22-22-input-keyboard-battery">
    <rect
       style="opacity:1;fill:none"
       width="22"
       height="22"
       x="348"
       y="534.36218"
       ry="0"
       id="rect15" />
    <path
       style="fill:#d3dae3;fill-opacity:1;stroke:none"
       d="m 20,141 v 14 l 7,2 7,-2 v -5 h -1 v 2 H 21 v -10 h 8 v -1 z m 12,0 -2,5 h 2 v 3 l 2,-5 H 32 Z M 26.4375,144 24,150 h 1.074219 l 0.40625,-1 h 3.039062 l 0.40625,1 H 30 l -2.439453,-6 H 27.023438 L 27,144.00977 26.976562,144 Z M 27,145.25781 28.113281,148 H 25.886719 Z M 21,153 h 12 v 1 H 21 Z"
       transform="translate(332,396.36218)"
       id="path17" />
  </g>
  <g
     transform="translate(-392,-652.36216)"
     id="22-22-input-keyboard-brightness">
    <rect
       ry="0"
       y="534.36218"
       x="370"
       height="22"
       width="22"
       style="opacity:1;fill:none"
       id="rect20" />
    <path
       style="fill:#d3dae3;fill-opacity:1;stroke:none"
       d="m 20,109 v 14 l 7,2 7,-2 v -9 h -1 v 6 H 21 v -10 h 8 v -1 z m 12,0 c -1.10457,0 -2,0.89543 -2,2 0,1.10457 0.89543,2 2,2 1.10457,0 2,-0.89543 2,-2 0,-1.10457 -0.89543,-2 -2,-2 z m 0,1 v 2 c -0.55228,0 -1,-0.44771 -1,-1 0,-0.55228 0.44772,-1 1,-1 z M 26.4375,112 24,118 h 1.074219 l 0.40625,-1 h 3.039062 l 0.40625,1 H 30 l -2.439453,-6 H 27.023438 L 27,112.00977 26.976562,112 Z M 27,113.25781 28.113281,116 H 25.886719 Z M 21,121 h 12 v 1 H 21 Z"
       transform="translate(354,428.36218)"
       id="path4344" />
  </g>
  <g
     id="input-keyboard-battery"
     transform="translate(-370,-652.36235)">
    <rect
       style="opacity:1;fill:none"
       id="rect4378"
       width="32"
       height="32"
       x="370"
       y="556.36237"
       ry="0" />
    <path
       style="fill:#d3dae3;fill-opacity:1;stroke:none"
       d="m 44,132 v 20 l 10,4 10,-4 v -11 h -1 v 8 H 45 v -16 h 14 v -1 z m 18,0 -2,5 h 2 v 3 l 2,-5 H 62 Z M 53.40625,136 49,146 h 1.300781 l 1.322266,-3 h 4.722656 l 1.349609,3 H 59 l -4.5,-10 z m 0.552734,1.69531 1.9375,4.30469 H 52.0625 Z M 45,150 h 18 v 1 H 45 Z"
       transform="translate(332,428.36237)"
       id="rect4223" />
  </g>
  <g
     id="input-keyboard-brightness"
     transform="translate(-402,-684.36235)">
    <rect
       ry="0"
       y="556.36237"
       x="402"
       height="32"
       width="32"
       id="rect4266"
       style="opacity:1;fill:none" />
    <path
       style="fill:#d3dae3;fill-opacity:1;stroke:none"
       d="m 44,100 v 20 l 10,4 10,-4 v -10 h -1 v 7 H 45 v -16 h 12 v -1 z m 9.40625,4 L 49,114 h 1.300781 l 1.322266,-3 h 4.722656 l 1.349609,3 H 59 l -4.5,-10 z m 0.552734,1.69531 1.9375,4.30469 H 52.0625 Z M 45,118 h 18 v 1 H 45 Z"
       transform="translate(364,460.36237)"
       id="path4270" />
    <path
       style="fill:#4b8bd4;fill-opacity:1;stroke:none"
       d="m 100,25 c -0.277,0 -0.5,0.223 -0.5,0.5 v 1 c 0,0.277 0.223,0.5 0.5,0.5 0.277,0 0.5,-0.223 0.5,-0.5 v -1 c 0,-0.277 -0.223,-0.5 -0.5,-0.5 z m -3.181641,1.318359 c -0.127809,0 -0.255581,0.04855 -0.353515,0.146485 -0.195869,0.195868 -0.195869,0.511162 0,0.707031 l 0.707031,0.707031 c 0.195869,0.195869 0.511163,0.195869 0.707031,0 0.195869,-0.195868 0.195869,-0.511162 0,-0.707031 l -0.707031,-0.707031 c -0.09793,-0.09793 -0.225706,-0.146485 -0.353516,-0.146485 z m 6.363281,0 c -0.12781,0 -0.25558,0.04855 -0.35352,0.146485 l -0.70703,0.707031 c -0.19586,0.195869 -0.19586,0.511163 0,0.707031 0.19587,0.195869 0.51117,0.195869 0.70703,0 l 0.70704,-0.707031 c 0.19586,-0.195869 0.19586,-0.511163 0,-0.707031 -0.0979,-0.09793 -0.22571,-0.146485 -0.35352,-0.146485 z M 100,28 c -1.104569,0 -2,0.895431 -2,2 0,1.104569 0.895431,2 2,2 1.10457,0 2,-0.895431 2,-2 0,-1.104569 -0.89543,-2 -2,-2 z m 0,1 v 2 c -0.552285,0 -1,-0.447715 -1,-1 0,-0.552285 0.447715,-1 1,-1 z m -4.5,0.5 c -0.277,0 -0.5,0.223 -0.5,0.5 0,0.277 0.223,0.5 0.5,0.5 h 1 c 0.277,0 0.5,-0.223 0.5,-0.5 0,-0.277 -0.223,-0.5 -0.5,-0.5 z m 8,0 c -0.277,0 -0.5,0.223 -0.5,0.5 0,0.277 0.223,0.5 0.5,0.5 h 1 c 0.277,0 0.5,-0.223 0.5,-0.5 0,-0.277 -0.223,-0.5 -0.5,-0.5 z m -5.974609,2.474609 c -0.12781,0 -0.255582,0.04855 -0.353516,0.146485 l -0.707031,0.707031 c -0.195869,0.195869 -0.195869,0.511163 0,0.707031 0.195868,0.195869 0.511162,0.195869 0.707031,0 l 0.707031,-0.707031 c 0.195869,-0.195869 0.195869,-0.511163 0,-0.707031 -0.09793,-0.09793 -0.225706,-0.146485 -0.353515,-0.146485 z m 4.949219,0 c -0.12781,0 -0.25558,0.04855 -0.35352,0.146485 -0.19586,0.195868 -0.19586,0.511162 0,0.707031 l 0.70703,0.707031 c 0.19587,0.195869 0.51117,0.195869 0.70704,0 0.19586,-0.195868 0.19586,-0.511162 0,-0.707031 l -0.70704,-0.707031 c -0.0979,-0.09793 -0.2257,-0.146485 -0.35351,-0.146485 z M 100,33 c -0.277,0 -0.5,0.223 -0.5,0.5 v 1 c 0,0.277 0.223,0.5 0.5,0.5 0.277,0 0.5,-0.223 0.5,-0.5 v -1 c 0,-0.277 -0.223,-0.5 -0.5,-0.5 z"
       transform="translate(326,534.3622)"
       id="path4274"
       inkscape:connector-curvature="0" />
  </g>
  <g
     id="16-16-input-mouse-battery"
     transform="translate(-341,-521.36216)">
    <path
       id="path4196"
       transform="translate(319,457.36217)"
       d="m -8,82 a 4,4 0 0 0 -4,4 v 4 a 4,4 0 0 0 4,4 4,4 0 0 0 4,-4 v -4 a 4,4 0 0 0 -4,-4 z m 0,1 a 3,3 0 0 1 3,3 v 4 a 3,3 0 0 1 -3,3 3,3 0 0 1 -3,-3 v -4 a 3,3 0 0 1 3,-3 z m 0,1 -2,5 h 2 v 3 l 2,-5 h -2 z"
       style="fill:#d3dae3;fill-opacity:1;stroke:none"
       inkscape:connector-curvature="0" />
    <rect
       style="opacity:1;fill:none"
       id="rect4442"
       width="16"
       height="16"
       x="303"
       y="537.36218" />
  </g>
  <g
     id="22-22-input-keyboard"
     transform="translate(-22,-213.99997)">
    <rect
       y="0"
       x="0"
       height="22"
       width="22"
       id="rect4147"
       style="fill:none;fill-rule:evenodd;stroke:none;stroke-width:1px;stroke-linecap:butt;stroke-linejoin:miter;stroke-opacity:1" />
    <path
       id="path6"
       transform="translate(0,-1030.3622)"
       d="m 13,1033.3622 v 1 1 c 0,0.554 -0.446,1 -1,1 -1.108,0 -2,0.892 -2,2 H 2 v 11 h 18 v -11 h -9 c 0,-0.554 0.446,-1 1,-1 1.108,0 2,-0.892 2,-2 v -1 -1 z m -10,6 h 7 1 8 v 1 H 3 Z m 0,2 h 16 v 7 H 15 7 3 Z m 1,1 v 1 h 2 v -1 z m 3,0 v 1 h 2 v -1 z m 3,0 v 1 h 2 v -1 z m 3,0 v 1 h 2 v -1 z m 3,0 v 1 h 2 v -1 z m -12,2 v 1 h 2 v -1 z m 3,0 v 1 h 2 v -1 z m 3,0 v 1 h 2 v -1 z m 3,0 v 1 h 2 v -1 z m 3,0 v 1 h 2 v -1 z m -12,2 v 1 h 2 v -1 z m 3,0 v 1 h 8 v -1 z m 9,0 v 1 h 2 v -1 z"
       style="fill:#d3dae3;fill-opacity:1;stroke:none"
       inkscape:connector-curvature="0" />
  </g>
  <g
     transform="matrix(1.4545455,0,0,1.4545455,0,-223.99998)"
     id="input-keyboard">
    <rect
       style="fill:none;fill-rule:evenodd;stroke:none;stroke-width:1px;stroke-linecap:butt;stroke-linejoin:miter;stroke-opacity:1"
       id="rect4196"
       width="22"
       height="22"
       x="0"
       y="0" />
    <path
       style="fill:#d3dae3;fill-opacity:1;stroke:none"
       d="m 47,-28 c 0,0.839286 -0.09344,1.439871 -0.248047,1.845703 -0.154602,0.405832 -0.347892,0.621232 -0.628906,0.785156 C 45.561021,-25.041291 44.5,-25 43,-25 c -1.5,0 -2.935631,-0.0273 -4.099609,0.554688 -0.58199,0.290994 -1.080576,0.752947 -1.408203,1.408203 C 37.21931,-22.491354 37.067093,-21.815455 37.021484,-21 H 25 V -4 H 25.5 51 V -21 H 38.021484 c 0.04382,-0.685454 0.170932,-1.207097 0.361328,-1.587891 0.234873,-0.469744 0.548787,-0.757791 0.966797,-0.966797 C 40.185631,-23.972698 41.5,-24 43,-24 c 1.5,0 2.688979,0.04129 3.626953,-0.505859 0.468986,-0.273576 0.838197,-0.714426 1.058594,-1.292969 C 47.905944,-26.377371 48,-27.089286 48,-28 Z m -21,8 h 24 v 2 H 26 Z m 0,3 H 50 V -5 H 26 Z m 1,2 v 2 h 1 v -2 z m 2,0 v 2 h 2 v -2 z m 3,0 v 2 h 2 v -2 z m 3,0 v 2 h 2 v -2 z m 3,0 v 2 h 2 v -2 z m 3,0 v 2 h 2 v -2 z m 3,0 v 2 h 2 v -2 z m 3,0 v 2 h 2 v -2 z m -20,3 v 2 h 3 v -2 z m 4,0 v 2 h 2 v -2 z m 3,0 v 2 h 2 v -2 z m 3,0 v 2 h 2 v -2 z m 3,0 v 2 h 2 v -2 z m 3,0 v 2 h 2 v -2 z m 3,0 v 2 h 3 v -2 z m -19,3 v 2 h 2 v -2 z m 3,0 v 2 h 2 v -2 z m 3,0 v 2 h 10 v -2 z m 11,0 v 2 h 2 v -2 z m 3,0 v 2 h 2 v -2 z"
       transform="matrix(0.68749998,0,0,0.68749998,-15.124999,22.000003)"
       id="path4285"
       inkscape:connector-curvature="0" />
  </g>
  <g
     id="22-22-input-keyboard-virtual-on"
     transform="translate(-22,-181.99997)">
    <path
       id="path6-6"
       transform="translate(0,-1030.3622)"
       d="m 2,1038.3622 v 11 h 18 v -11 z m 1,1 h 7 1 8 v 1 H 3 Z m 0,2 h 16 v 7 H 15 7 3 Z m 1,1 v 1 h 2 v -1 z m 3,0 v 1 h 2 v -1 z m 3,0 v 1 h 2 v -1 z m 3,0 v 1 h 2 v -1 z m 3,0 v 1 h 2 v -1 z m -12,2 v 1 h 2 v -1 z m 3,0 v 1 h 2 v -1 z m 3,0 v 1 h 2 v -1 z m 3,0 v 1 h 2 v -1 z m 3,0 v 1 h 2 v -1 z m -12,2 v 1 h 2 v -1 z m 3,0 v 1 h 8 v -1 z m 9,0 v 1 h 2 v -1 z"
       style="fill:#d3dae3;fill-opacity:1;stroke:none"
       inkscape:connector-curvature="0" />
    <path
       id="path8"
       d="M 4.5,2 A 2.4999997,2.4999855 0 0 0 2,4.5 2.4999997,2.4999855 0 0 0 4.5,7 2.4999997,2.4999855 0 0 0 7,4.5 2.4999997,2.4999855 0 0 0 4.5,2 Z"
       style="fill:#4b8bd4;fill-opacity:1;stroke:none"
       inkscape:connector-curvature="0" />
    <rect
       y="0"
       x="0"
       height="22"
       width="22"
       id="rect4140"
       style="fill:none;fill-opacity:1;stroke:none;stroke-linejoin:bevel" />
  </g>
  <g
     transform="matrix(1.4545455,0,0,1.4545455,0,-191.99997)"
     id="input-keyboard-virtual-on">
    <rect
       style="fill:none;fill-rule:evenodd;stroke:none;stroke-width:1px;stroke-linecap:butt;stroke-linejoin:miter;stroke-opacity:1"
       id="rect4192"
       width="22"
       height="22"
       x="0"
       y="0" />
    <path
       transform="matrix(0.68749998,0,0,0.68749998,-15.124999,22.000003)"
       style="fill:#d3dae3;fill-opacity:1;stroke:none"
       d="M 25,-21 V -4 H 25.5 51 v -17 z m 1,1 h 24 v 2 H 26 Z m 0,3 H 50 V -5 H 26 Z m 1,2 v 2 h 1 v -2 z m 2,0 v 2 h 2 v -2 z m 3,0 v 2 h 2 v -2 z m 3,0 v 2 h 2 v -2 z m 3,0 v 2 h 2 v -2 z m 3,0 v 2 h 2 v -2 z m 3,0 v 2 h 2 v -2 z m 3,0 v 2 h 2 v -2 z m -20,3 v 2 h 3 v -2 z m 4,0 v 2 h 2 v -2 z m 3,0 v 2 h 2 v -2 z m 3,0 v 2 h 2 v -2 z m 3,0 v 2 h 2 v -2 z m 3,0 v 2 h 2 v -2 z m 3,0 v 2 h 3 v -2 z m -19,3 v 2 h 2 v -2 z m 3,0 v 2 h 2 v -2 z m 3,0 v 2 h 10 v -2 z m 11,0 v 2 h 2 v -2 z m 3,0 v 2 h 2 v -2 z"
       id="path4194"
       inkscape:connector-curvature="0" />
    <path
       id="path8-9"
       d="m 3.7812499,2.7500013 a 1.7187497,1.71874 0 0 0 -1.71875,1.7187499 1.7187497,1.71874 0 0 0 1.71875,1.71875 1.7187497,1.71874 0 0 0 1.71875,-1.71875 1.7187497,1.71874 0 0 0 -1.71875,-1.7187499 z"
       style="fill:#4b8bd4;fill-opacity:1;stroke:none"
       inkscape:connector-curvature="0" />
  </g>
  <g
     transform="translate(-22,-149.99997)"
     id="22-22-input-keyboard-virtual-off">
    <path
       style="fill:#d3dae3;fill-opacity:1;stroke:none"
       d="m 2,1038.3622 v 11 h 18 v -11 z m 1,1 h 7 1 8 v 1 H 3 Z m 0,2 h 16 v 7 H 15 7 3 Z m 1,1 v 1 h 2 v -1 z m 3,0 v 1 h 2 v -1 z m 3,0 v 1 h 2 v -1 z m 3,0 v 1 h 2 v -1 z m 3,0 v 1 h 2 v -1 z m -12,2 v 1 h 2 v -1 z m 3,0 v 1 h 2 v -1 z m 3,0 v 1 h 2 v -1 z m 3,0 v 1 h 2 v -1 z m 3,0 v 1 h 2 v -1 z m -12,2 v 1 h 2 v -1 z m 3,0 v 1 h 8 v -1 z m 9,0 v 1 h 2 v -1 z"
       transform="translate(0,-1030.3622)"
       id="path4170"
       inkscape:connector-curvature="0" />
    <rect
       style="fill:none;fill-opacity:1;stroke:none;stroke-linejoin:bevel"
       id="rect4172"
       width="22"
       height="22"
       x="0"
       y="0" />
  </g>
  <g
     transform="matrix(1.4545455,0,0,1.4545455,0,-159.99997)"
     id="input-keyboard-virtual-off">
    <rect
       style="fill:none;fill-rule:evenodd;stroke:none;stroke-width:1px;stroke-linecap:butt;stroke-linejoin:miter;stroke-opacity:1"
       id="rect4176"
       width="22"
       height="22"
       x="0"
       y="0" />
    <path
       transform="matrix(0.68749998,0,0,0.68749998,-15.124999,22.000003)"
       style="fill:#d3dae3;fill-opacity:1;stroke:none"
       d="M 25,-21 V -4 H 25.5 51 v -17 z m 1,1 h 24 v 2 H 26 Z m 0,3 H 50 V -5 H 26 Z m 1,2 v 2 h 1 v -2 z m 2,0 v 2 h 2 v -2 z m 3,0 v 2 h 2 v -2 z m 3,0 v 2 h 2 v -2 z m 3,0 v 2 h 2 v -2 z m 3,0 v 2 h 2 v -2 z m 3,0 v 2 h 2 v -2 z m 3,0 v 2 h 2 v -2 z m -20,3 v 2 h 3 v -2 z m 4,0 v 2 h 2 v -2 z m 3,0 v 2 h 2 v -2 z m 3,0 v 2 h 2 v -2 z m 3,0 v 2 h 2 v -2 z m 3,0 v 2 h 2 v -2 z m 3,0 v 2 h 3 v -2 z m -19,3 v 2 h 2 v -2 z m 3,0 v 2 h 2 v -2 z m 3,0 v 2 h 10 v -2 z m 11,0 v 2 h 2 v -2 z m 3,0 v 2 h 2 v -2 z"
       id="path4178"
       inkscape:connector-curvature="0" />
  </g>
  <g
     id="22-22-input-caps-on"
     transform="translate(21.241379,-200.74137)">
    <rect
       y="146.74138"
       x="-43.241379"
       height="22"
       width="22"
       id="rect964"
       style="opacity:0.00100002;fill-opacity:1;stroke:none;stroke-width:0.49066;stroke-linecap:round;stroke-linejoin:round;stroke-miterlimit:4;stroke-dasharray:none;stroke-opacity:1" />
    <path
       inkscape:connector-curvature="0"
       id="path870"
       d="m -39.241379,149.74138 v 14 l 7,2 7,-2 v -14 z m 1,1 h 12 v 10 h -12 z m 5.4375,2 -2.4375,6 h 1.07422 l 0.40625,-1 h 3.03906 l 0.40625,1 h 1.07422 l -2.43945,-6 h -0.53711 l -0.0234,0.01 -0.0234,-0.01 z m 0.5625,1.25781 1.11328,2.74219 h -2.22656 z m -6,7.74219 h 12 v 1 h -12 z"
       style="fill:#d3dae3;fill-opacity:1;stroke:none" />
  </g>
  <g
     id="22-22-input-num-on"
     transform="translate(-46,-138.99999)">
    <rect
       style="opacity:0.00100002;fill-opacity:1;stroke:none;stroke-width:0.49066;stroke-linecap:round;stroke-linejoin:round;stroke-miterlimit:4;stroke-dasharray:none;stroke-opacity:1"
       id="rect972"
       width="22"
       height="22"
       x="24"
       y="117" />
    <path
       inkscape:connector-curvature="0"
       id="path879"
       d="m 28,120 v 14 l 7,2 7,-2 v -14 z m 1,1 h 12 v 10 H 29 Z m 6,2 v 1 h -1 v 1 h 1 v 3 h -1 v 1 h 1 1 1 v -1 h -1 v -5 z m -6,9 h 12 v 1 H 29 Z"
       style="fill:#d3dae3;fill-opacity:1;stroke:none" />
  </g>
  <g
     id="input-caps-on"
     transform="translate(-19,-175.99997)">
    <rect
       y="112"
       x="19"
       height="32"
       width="32"
       id="rect978"
       style="opacity:0.00100002;fill-opacity:1;stroke:none;stroke-width:0.713687;stroke-linecap:round;stroke-linejoin:round;stroke-miterlimit:4;stroke-dasharray:none;stroke-opacity:1" />
    <path
       inkscape:connector-curvature="0"
       id="path880"
       d="m 25,116 v 20 l 10,4 10,-4 v -19 -1 h -1 z m 1,1 h 18 v 16 H 26 Z m 8.40625,3 L 30,130 h 1.30078 l 1.32227,-3 h 4.72265 l 1.34961,3 H 40 l -4.5,-10 z m 0.55273,1.69531 L 36.89648,126 H 33.0625 Z M 26,134 h 18 v 1 H 26 Z"
       style="fill:#d3dae3;fill-opacity:1;stroke:none" />
  </g>
  <g
     id="input-num-on"
     transform="translate(-19,-143.99999)">
    <rect
       style="opacity:0.00100002;fill-opacity:1;stroke:none;stroke-width:0.713687;stroke-linecap:round;stroke-linejoin:round;stroke-miterlimit:4;stroke-dasharray:none;stroke-opacity:1"
       id="rect984"
       width="32"
       height="32"
       x="19"
       y="112" />
    <path
       inkscape:connector-curvature="0"
       id="path896"
       d="m 25,116 v 20 l 10,4 10,-4 v -19 -1 h -1 z m 1,1 h 18 v 16 H 26 Z m 9,3 v 2 h -2 v 1 h 2 v 6 h -2 v 1 h 5 v -1 h -2 v -9 z m -9,14 h 18 v 1 H 26 Z"
       style="fill:#d3dae3;fill-opacity:1;stroke:none" />
  </g>
  <g
     id="input-mouse-battery">
    <g
       id="g907">
      <rect
         style="fill:none"
         id="rect4378-6"
         width="32"
         height="32"
         x="0"
         y="-4.2773436e-06"
         ry="0" />
      <path
         d="m 16.005654,11.773125 a 0.629736,0.629736 0 0 0 0.67282,-0.572904 V 8.77338 a 0.68164542,0.68164542 0 0 0 -1.34582,0 v 2.426841 a 0.629736,0.629736 0 0 0 0.673,0.572904 z"
         id="path4"
         style="fill:#d3dae3;fill-opacity:1;stroke-width:0.266658" />
      <path
         d="M 9.935964,25.15677 C 11.060194,27.228743 12.824934,28 16.005654,28 c 3.18056,0 4.94517,-0.771257 6.06965,-2.84323 1.54293,-2.843229 -0.1407,-7.079235 0.66042,-10.996855 C 23.506164,10.390323 25.341244,4 16.005654,4 6.6701637,4 8.5052837,10.390323 9.2756737,14.159915 c 0.8004903,3.91762 -0.88263,8.153626 0.6602903,10.996855 z m 4.59675,-16.38339 a 1.3929171,1.3929171 0 0 1 1.07287,-1.320088 v -2.17288 a 0.40000507,0.40000507 0 1 1 0.79995,0 v 2.17288 a 1.3929171,1.3929171 0 0 1 1.07293,1.320088 v 2.426841 a 1.3929171,1.3929171 0 0 1 -1.07293,1.320087 v 3.987987 a 0.40000507,0.40000507 0 0 1 -0.79995,0 v -3.987987 a 1.3929171,1.3929171 0 0 1 -1.07287,-1.320087 z M 9.970294,7.060342 c -0.28889,1.271489 0.92896,4.514606 1.14391,5.647161 a 18.30022,18.30022 0 0 1 0.28498,4.600782 c -0.11894,1.807296 -0.055,3.438246 0.65006,4.450001 0.82507,1.183332 1.85,1.85 3.9564,1.85 2.10618,0 3.13112,-0.666668 3.95611,-1.85 0.70547,-1.011755 0.76877,-2.642705 0.65013,-4.450001 a 18.300321,18.300321 0 0 1 0.28518,-4.600782 c 0.21476,-1.132555 1.43291,-4.375672 1.14372,-5.647161 0.73213,1.464613 -0.20181,5.108527 -0.35742,5.793002 -0.40669,1.790691 -0.1684,2.950522 -0.0724,4.409105 0.12575,1.917185 0.24506,3.727866 -0.4802,5.198701 -0.93855,1.903916 -2.42342,2.680469 -5.12491,2.680469 -2.7017,0 -4.18662,-0.776563 -5.12512,-2.680469 -0.72531,-1.470835 -0.60618,-3.281516 -0.48022,-5.198701 0.0959,-1.458583 0.33417,-2.618402 -0.0724,-4.409105 -0.15561,-0.684475 -1.0895403,-4.328389 -0.35747,-5.793002 z"
         id="path6-3"
         style="fill:#d3dae3;fill-opacity:1;fill-rule:nonzero;stroke-width:0.266658" />
    </g>
  </g>
  <g
     id="22-22-input-mouse-battery"
     transform="translate(-22,10.000014)">
    <g
       id="g920">
      <rect
         style="fill:none"
         width="22"
         height="22"
         x="0"
         y="2.6171874e-06"
         ry="0"
         id="rect8" />
      <path
         style="fill:#4b8bd4;fill-opacity:1;stroke:none"
         d="m 5,3.00002 -2,5 h 2 v 3 l 2,-5 H 5 Z"
         id="path12"
         inkscape:connector-curvature="0" />
      <path
         d="m 12.937158,8.1820856 a 0.419824,0.419824 0 0 0 0.44861,-0.3819447 V 6.1822602 a 0.45443022,0.45443022 0 0 0 -0.89723,0 V 7.800141 a 0.419824,0.419824 0 0 0 0.44862,0.3819446 z"
         id="path4-3"
         style="fill:#d3dae3;fill-opacity:1;stroke-width:0.177778" />
      <path
         d="M 8.8906683,17.104514 C 9.640278,18.485829 10.816758,19 12.937158,19 c 2.12035,0 3.29683,-0.514171 4.04644,-1.895486 1.0286,-1.895486 -0.0936,-4.719488 0.44023,-7.3312385 C 17.937458,7.2602227 19.160808,3 12.937158,3 6.7134583,3 7.9368483,7.2602227 8.4504383,9.7732755 c 0.53382,2.6117505 -0.58837,5.4357525 0.44023,7.3312385 z M 11.955208,6.1822602 a 0.92861156,0.92861156 0 0 1 0.71527,-0.8800676 V 3.8536124 a 0.26667,0.26667 0 1 1 0.53334,0 v 1.4485802 a 0.92861156,0.92861156 0 0 1 0.71527,0.8800676 V 7.800141 a 0.92861156,0.92861156 0 0 1 -0.71527,0.8800676 v 2.6586484 a 0.26667,0.26667 0 0 1 -0.53334,0 V 8.6802086 A 0.92861156,0.92861156 0 0 1 11.955208,7.800141 Z M 8.9135883,5.0402353 C 8.7209683,5.8878904 9.532948,8.0499686 9.676168,8.8050036 a 12.20014,12.20014 0 0 1 0.1901,3.0671864 c -0.0792,1.204861 -0.0369,2.292166 0.43334,2.966667 0.55,0.788889 1.23333,1.233333 2.63754,1.233333 1.40417,0 2.0875,-0.444444 2.6375,-1.233333 0.47027,-0.674501 0.5125,-1.761806 0.43333,-2.966667 a 12.20022,12.20022 0 0 1 0.19011,-3.0671864 c 0.14323,-0.755035 0.95525,-2.9171132 0.76258,-3.7647683 0.48807,0.9764 -0.13459,3.4056743 -0.23828,3.8619893 -0.27122,1.1938034 -0.11232,1.9670144 -0.0484,2.9394094 0.084,1.278126 0.16338,2.485242 -0.32014,3.465799 -0.62569,1.269278 -1.61562,1.786979 -3.41666,1.786979 -1.80108,0 -2.79101,-0.517708 -3.41671,-1.786979 -0.48351,-0.980557 -0.40417,-2.187673 -0.32014,-3.465799 0.0639,-0.972395 0.22283,-1.7456 -0.0484,-2.9394094 -0.10368,-0.456315 -0.72634,-2.8855893 -0.23828,-3.8619893 z"
         id="path6-67"
         style="fill:#d3dae3;fill-opacity:1;stroke-width:0.177778" />
    </g>
  </g>
</svg>
