<?xml version="1.0" encoding="UTF-8" standalone="no"?>
<svg
   xmlns:dc="http://purl.org/dc/elements/1.1/"
   xmlns:cc="http://creativecommons.org/ns#"
   xmlns:rdf="http://www.w3.org/1999/02/22-rdf-syntax-ns#"
   xmlns:svg="http://www.w3.org/2000/svg"
   xmlns="http://www.w3.org/2000/svg"
   xmlns:sodipodi="http://sodipodi.sourceforge.net/DTD/sodipodi-0.dtd"
   xmlns:inkscape="http://www.inkscape.org/namespaces/inkscape"
   width="32"
   height="32"
   version="1.1"
   id="svg32"
   sodipodi:docname="kalarm.svg"
   inkscape:version="1.0.2 (e86c870879, 2021-01-15)">
  <metadata
     id="metadata38">
    <rdf:RDF>
      <cc:Work
         rdf:about="">
        <dc:format>image/svg+xml</dc:format>
        <dc:type
           rdf:resource="http://purl.org/dc/dcmitype/StillImage" />
      </cc:Work>
    </rdf:RDF>
  </metadata>
  <defs
     id="defs36" />
  <sodipodi:namedview
     pagecolor="#ffffff"
     bordercolor="#666666"
     borderopacity="1"
     objecttolerance="10"
     gridtolerance="10"
     guidetolerance="10"
     inkscape:pageopacity="0"
     inkscape:pageshadow="2"
     inkscape:window-width="1920"
     inkscape:window-height="1013"
     id="namedview34"
     showgrid="false"
     inkscape:zoom="4.9062502"
     inkscape:cx="19.218212"
     inkscape:cy="-0.48081904"
     inkscape:window-x="0"
     inkscape:window-y="0"
     inkscape:window-maximized="1"
     inkscape:current-layer="svg32"
     inkscape:document-rotation="0"
     inkscape:lockguides="false"
     showguides="false">
    <inkscape:grid
       type="xygrid"
       id="grid883"
       originx="-32"
       originy="0" />
  </sodipodi:namedview>
  <g
     id="kalarm-disabled"
     transform="translate(-32,-22)">
    <rect
       style="opacity:0.00100002"
       width="32"
       height="32"
       x="32"
       y="22"
       id="rect22" />
    <path
       d="M 45.870435,43.266801 C 45.036658,43.265801 44.360998,42.59014 44.36,41.756363 v -6.645925 c 0,-2.013916 3.020875,-2.013916 3.020875,0 v 6.645925 c -9.99e-4,0.833779 -0.676661,1.509441 -1.51044,1.510438 z m 0,-9.062625 z"
       id="path8-5"
       style="fill:#ff557f;fill-opacity:1;stroke-width:0.302089"
       sodipodi:nodetypes="ccsscccccccc" />
    <path
       d="m 50.09966,43.266801 c -0.833776,-10e-4 -1.509434,-0.676662 -1.510432,-1.510438 v -6.645925 c 0.0023,-2.011598 3.018558,-2.011598 3.020873,0 v 6.645925 c -9.99e-4,0.833779 -0.676662,1.509441 -1.510441,1.510438 z m 0,-9.062625 z"
       id="path10"
       style="fill:#ff557f;fill-opacity:1;stroke-width:0.302089"
       sodipodi:nodetypes="cccccccccccc" />
    <path
       d="M 58.414834,45.714009 C 56.782552,44.487833 55.8472,42.617128 55.8472,40.576121 v -4.278518 c 0,-3.584207 -2.415672,-6.615588 -5.706436,-7.54832 v -1.008714 c 0,-1.179016 -0.958933,-2.140569 -2.140569,-2.140569 -1.179016,0 -2.140569,0.958933 -2.140569,2.140569 v 1.008714 c -3.290764,0.932732 -5.706436,3.964113 -5.706436,7.54832 v 4.278518 c 0,2.038387 -0.935352,3.909092 -2.567634,5.137888 -0.246283,0.183403 -0.345845,0.503047 -0.248903,0.796491 0.09694,0.290824 0.369424,0.487326 0.675969,0.487326 h 6.489826 v 0 l 5.517794,-0.0026 v 0 0 l 7.959666,0.0026 c 0.306544,1.05e-4 0.579028,-0.196502 0.675969,-0.487326 0.104802,-0.290824 0.0026,-0.613088 -0.241043,-0.796491 z M 47.290165,27.740569 c 0,-0.393005 0.319645,-0.712649 0.71265,-0.712649 0.393005,0 0.71265,0.319644 0.71265,0.712649 v 0.74671 c -0.235804,-0.02096 -0.471607,-0.03406 -0.71265,-0.03406 -0.241043,0 -0.476846,0.01048 -0.71265,0.03406 z m 2.730077,19.254637 z M 39.791625,45.569907 c 0.364185,-0.440166 0.681209,-0.922252 0.940593,-1.427919 0.568547,-1.110895 0.854131,-2.308251 0.854131,-3.565867 v -4.278518 c 0,-3.539667 2.879419,-6.419085 6.419086,-6.419085 3.537047,0 6.419086,2.879418 6.419086,6.419085 v 4.278518 c 0,1.254996 0.288204,2.454972 0.854131,3.563247 0.259384,0.508287 0.576408,0.987753 0.937973,1.427919 h -16.425 z"
       id="path4"
       sodipodi:nodetypes="csscssscssccscccccsccssscsccsccccccccssssscccc"
       style="fill:#d3dae3;fill-opacity:1;stroke-width:0.0262004" />
    <path
       d="M 47.286632,46.930143 C 47.139912,46.767701 46.927682,46.676 46.710222,46.676 h -5.418227 c -0.217463,0 -0.429685,0.0917 -0.576407,0.254143 -0.146722,0.162442 -0.220083,0.379905 -0.199123,0.602608 0.08384,0.861992 0.482086,1.661103 1.123995,2.247991 0.644529,0.592128 1.48556,0.919632 2.363272,0.919632 0.877712,0 1.716123,-0.324884 2.36327,-0.919632 0.64191,-0.586888 1.04015,-1.385999 1.12399,-2.247991 0.0131,-0.220083 -0.0576,-0.437546 -0.20436,-0.602608 z M 45.557,48.91 c -0.455886,0.413966 -0.94018,0.642 -1.558508,0.642 -0.618329,0 -1.105225,-0.228034 -1.558492,-0.642 -0.377285,-0.345844 -0.736659,-1.399054 -0.844081,-1.889 h 4.799903 c -0.10218,0.495187 -0.461534,1.545776 -0.838822,1.889 z"
       id="path10-3"
       style="fill:#d3dae3;fill-opacity:1;stroke-width:0.0262004"
       sodipodi:nodetypes="csssccsccccscccc" />
  </g>
  <g
     id="kalarm-partdisabled"
     transform="translate(-32,-22)">
    <rect
       style="opacity:0.00100002"
       width="32"
       height="32"
       x="64"
       y="22"
       id="rect27" />
    <path
       d="m 83.393881,43.067 h -6.820762 c -0.565054,2e-6 -1.023121,-0.458065 -1.023119,-1.023119 v -6.820762 c -2e-6,-0.565054 0.458065,-1.023121 1.023119,-1.023119 h 6.820762 c 0.565054,-2e-6 1.023121,0.458065 1.023119,1.023119 v 6.820762 c 2e-6,0.565054 -0.458065,1.023121 -1.023119,1.023119 z m -6.820762,-8.18492 c -0.18835,10e-7 -0.341037,0.152689 -0.341037,0.341039 v 6.820762 c 0,0.18835 0.152687,0.341037 0.341037,0.341038 h 6.820762 c 0.18835,0 0.341038,-0.152688 0.341038,-0.341038 z"
       id="path8"
       style="fill:#ff557f;fill-opacity:1;stroke-width:0.341042"
       sodipodi:nodetypes="ccccccccccscccsccc" />
    <path
       d="M 90.414834,45.714009 C 88.782552,44.487833 87.8472,42.617128 87.8472,40.576121 v -4.278518 c 0,-3.584207 -2.415672,-6.615588 -5.706436,-7.54832 v -1.008714 c 0,-1.179016 -0.958933,-2.140569 -2.140569,-2.140569 -1.179016,0 -2.140569,0.958933 -2.140569,2.140569 v 1.008714 c -3.290764,0.932732 -5.706436,3.964113 -5.706436,7.54832 v 4.278518 c 0,2.038387 -0.935352,3.909092 -2.567634,5.137888 -0.246283,0.183403 -0.345845,0.503047 -0.248903,0.796491 0.09694,0.290824 0.369424,0.487326 0.675969,0.487326 h 6.489826 v 0 l 5.517794,-0.0026 v 0 0 l 7.959666,0.0026 c 0.306544,1.05e-4 0.579028,-0.196502 0.675969,-0.487326 0.104802,-0.290824 0.0026,-0.613088 -0.241043,-0.796491 z M 79.290165,27.740569 c 0,-0.393005 0.319645,-0.712649 0.71265,-0.712649 0.393005,0 0.71265,0.319644 0.71265,0.712649 v 0.74671 c -0.235804,-0.02096 -0.471607,-0.03406 -0.71265,-0.03406 -0.241043,0 -0.476846,0.01048 -0.71265,0.03406 z m 2.730077,19.254637 z M 71.791625,45.569907 c 0.364185,-0.440166 0.681209,-0.922252 0.940593,-1.427919 0.568547,-1.110895 0.854131,-2.308251 0.854131,-3.565867 v -4.278518 c 0,-3.539667 2.879419,-6.419085 6.419086,-6.419085 3.537047,0 6.419086,2.879418 6.419086,6.419085 v 4.278518 c 0,1.254996 0.288204,2.454972 0.854131,3.563247 0.259384,0.508287 0.576408,0.987753 0.937973,1.427919 h -16.425 z"
       id="path4-35"
       sodipodi:nodetypes="csscssscssccscccccsccssscsccsccccccccssssscccc"
       style="fill:#d3dae3;fill-opacity:1;stroke-width:0.0262004" />
    <path
       d="M 79.286631,46.930143 C 79.139911,46.767701 78.927681,46.676 78.710221,46.676 H 73.292 c -0.21747,0 -0.42969,0.0917 -0.57641,0.254143 -0.14672,0.162442 -0.22009,0.379905 -0.19913,0.602608 0.0838,0.861992 0.48209,1.661103 1.124,2.247991 0.644531,0.592128 1.485561,0.919632 2.363271,0.919632 0.87771,0 1.71612,-0.324884 2.36327,-0.919632 0.64191,-0.586888 1.04015,-1.385999 1.12399,-2.247991 0.0131,-0.220083 -0.0576,-0.437546 -0.20436,-0.602608 z m -1.62966,2.080308 c -0.45588,0.413966 -1.04015,0.641909 -1.65848,0.641909 -0.61833,0 -1.20521,-0.227943 -1.65848,-0.641909 C 73.962721,48.664607 73.70334,47.410946 73.59592,46.921 h 4.799901 c -0.10218,0.495187 -0.36156,1.746227 -0.73885,2.089451 z"
       id="path10-3-6"
       style="fill:#d3dae3;fill-opacity:1;stroke-width:0.0262004"
       sodipodi:nodetypes="csssccsccccscccc" />
  </g>
  <g
     id="kalarm"
     transform="translate(-32,-22)">
    <rect
       style="opacity:0.00100002"
       width="32"
       height="32"
       x="0"
       y="22"
       id="rect17" />
    <path
       d="M 26.415028,45.714008 C 24.78273,44.487832 23.84737,42.617127 23.84737,40.57612 v -4.278518 c 0,-3.584207 -2.415695,-6.615588 -5.706488,-7.54832 V 27.740568 C 18.140882,26.561553 17.18194,25.6 16.000293,25.6 c -1.179027,0 -2.140588,0.958933 -2.140588,2.140568 v 1.008714 c -3.290795,0.932732 -5.7064888,3.964113 -5.7064888,7.54832 v 4.278518 c 0,2.038387 -0.9353606,3.909092 -2.5676576,5.137888 -0.2462853,0.183403 -0.3458482,0.503047 -0.2489053,0.796491 0.096941,0.290824 0.3694274,0.487326 0.6759753,0.487326 h 6.4898854 v 0 l 5.517844,-0.0026 v 0 0 l 7.959739,0.0026 c 0.306547,1.05e-4 0.579033,-0.196502 0.675975,-0.487326 0.104803,-0.290824 0.0026,-0.613088 -0.241044,-0.796491 z M 15.290256,27.740568 c 0,-0.393005 0.319648,-0.712649 0.712657,-0.712649 0.393009,0 0.712656,0.319644 0.712656,0.712649 v 0.74671 c -0.235806,-0.02096 -0.471611,-0.03406 -0.712656,-0.03406 -0.241046,0 -0.476851,0.01048 -0.712657,0.03406 z m 2.730102,19.254637 z M 7.7916478,45.569906 C 8.1558362,45.12974 8.472863,44.647654 8.7322494,44.141987 9.3008027,43.031092 9.5863883,41.833736 9.5863883,40.57612 v -4.278518 c 0,-3.539667 2.8794457,-6.419085 6.4191447,-6.419085 3.537079,0 6.419145,2.879418 6.419145,6.419085 v 4.278518 c 0,1.254996 0.288207,2.454972 0.854139,3.563247 0.259386,0.508287 0.576414,0.987753 0.937981,1.427919 H 7.7916478 Z"
       id="path4-2"
       sodipodi:nodetypes="csscssscssccscccccsccssscsccsccccccccssssscccc"
       style="fill:#d3dae3;fill-opacity:1;stroke-width:0.0262005" />
    <path
       d="M 15.286632,46.942143 C 15.139912,46.779701 14.927682,46.688 14.710222,46.688 H 9.291995 c -0.217463,0 -0.429685,0.0917 -0.576407,0.254143 -0.146722,0.162442 -0.220083,0.379905 -0.199123,0.602608 0.08384,0.861992 0.482086,1.661103 1.123995,2.247991 0.644529,0.592128 1.48556,0.919632 2.363272,0.919632 0.877712,0 1.716123,-0.324884 2.36327,-0.919632 0.64191,-0.586888 1.04015,-1.385999 1.12399,-2.247991 0.0131,-0.220083 -0.0576,-0.437546 -0.20436,-0.602608 z M 13.557,48.922 c -0.455886,0.413966 -0.94018,0.642 -1.558508,0.642 -0.618329,0 -1.105225,-0.228034 -1.558492,-0.642 -0.377285,-0.345844 -0.736659,-1.299054 -0.844081,-1.789 h 4.799903 c -0.10218,0.495187 -0.461534,1.445776 -0.838822,1.789 z"
       id="path10-3-7"
       style="fill:#d3dae3;fill-opacity:1;stroke-width:0.0262004"
       sodipodi:nodetypes="csssccsccccscccc" />
  </g>
  <g
     id="22-22-kalarm"
     transform="translate(-32,-22)">
    <rect
       style="opacity:0.00100002"
       width="22"
       height="22"
       x="0"
       y="0"
       id="rect2" />
    <path
       d="M 17.929868,16.012483 C 16.841416,15.194839 16.217709,13.947415 16.217709,12.586425 V 9.733411 c 0,-2.390044 -1.610825,-4.411436 -3.805194,-5.033397 V 4.02739 C 12.412515,3.241194 11.77309,2.6 10.985146,2.6 10.198954,2.6 9.5577571,3.239439 9.5577571,4.02739 v 0.672624 c -2.194351,0.621961 -3.805174,2.643353 -3.805174,5.033397 v 2.853014 c 0,1.359238 -0.623725,2.606662 -1.712158,3.426058 -0.164241,0.122292 -0.230626,0.335445 -0.165984,0.531118 0.06471,0.193931 0.246354,0.324952 0.450755,0.324952 h 4.327563 v 0 l 3.6793929,-0.0023 v 0 0 l 5.307683,0.0023 c 0.204413,8.1e-5 0.386116,-0.131021 0.450756,-0.324952 0.06984,-0.193928 0.0024,-0.408826 -0.160723,-0.531118 z M 10.511678,4.02739 c 0,-0.262077 0.213154,-0.475229 0.475217,-0.475229 0.26205,0 0.475199,0.213152 0.475199,0.475229 v 0.49792 c -0.15724,-0.01397 -0.314479,-0.02278 -0.475199,-0.02278 -0.16074,0 -0.317979,0.0078 -0.475217,0.02278 z m 1.820474,12.839421 z M 5.5114851,15.916394 c 0.242847,-0.293518 0.454245,-0.614978 0.627191,-0.952168 0.379133,-0.740769 0.569558,-1.539202 0.569558,-2.377801 V 9.733411 c 0,-2.360329 1.920069,-4.280401 4.2804009,-4.280401 2.35859,0 4.280402,1.920072 4.280402,4.280401 v 2.853014 c 0,0.836847 0.192165,1.637032 0.569548,2.37604 0.172955,0.338951 0.384353,0.65867 0.625454,0.952184 H 5.5114851 Z"
       id="path4-2-8"
       sodipodi:nodetypes="csscssscssccscccccsccssscsccsccccccccssssscccc"
       style="fill:#d3dae3;fill-opacity:1;stroke-width:0.0174717" />
    <path
       d="M 10.509311,16.897458 C 10.411481,16.789144 10.26996,16.728 10.124962,16.728 H 6.5119551 c -0.144998,0 -0.286515,0.06118 -0.384354,0.169458 -0.09784,0.108326 -0.146764,0.253329 -0.132779,0.401842 0.05584,0.574795 0.32146,1.107659 0.749497,1.499011 0.429799,0.394843 0.990602,0.613227 1.575885,0.613227 0.585289,0 1.144348,-0.216639 1.575885,-0.613227 0.4280389,-0.391352 0.6936019,-0.924216 0.7494959,-1.499011 0.0084,-0.146766 -0.0384,-0.291768 -0.136274,-0.401842 z m -1.0866909,1.387203 c -0.303986,0.276041 -0.693587,0.428033 -1.105905,0.428033 -0.41232,0 -0.803674,-0.151992 -1.105913,-0.428033 C 6.9592181,18.054043 6.7862491,17.151714 6.7146271,16.825 h 3.200678 c -0.06809,0.330207 -0.241092,1.230786 -0.492685,1.459661 z"
       id="path10-3-7-7"
       style="fill:#d3dae3;fill-opacity:1;stroke-width:0.0174717"
       sodipodi:nodetypes="csscccsccccscccc" />
  </g>
  <g
     id="22-22-kalarm-disabled"
     transform="translate(-32,-22)">
    <rect
       style="opacity:0.00100002"
       width="22"
       height="22"
       x="32"
       y="0"
       id="rect7" />
    <path
       d="M 41.835366,13.965027 C 41.346634,13.964441 40.950585,13.568392 40.95,13.07966 V 9.184049 c 0.0018,-1.1787317 1.768977,-1.1787317 1.770731,0 v 3.895611 c -5.85e-4,0.488731 -0.396634,0.884781 -0.885365,0.885367 z m 0,-5.312199 z"
       id="path8-5-9"
       style="fill:#ff557f;fill-opacity:1;stroke-width:0.177075"
       sodipodi:nodetypes="cccccccccccc" />
    <path
       d="M 44.314363,13.965027 C 43.825632,13.96444 43.429585,13.568391 43.429,13.07966 V 9.184049 c 0.0018,-1.1787317 1.768977,-1.1787317 1.770731,0 v 3.895611 c -5.85e-4,0.488732 -0.396635,0.884782 -0.885368,0.885367 z m 0,-5.312199 z"
       id="path10-1"
       style="fill:#ff557f;fill-opacity:1;stroke-width:0.177075"
       sodipodi:nodetypes="cccccccccccc" />
    <path
       d="M 49.929868,16.012483 C 48.841416,15.194839 48.217709,13.947415 48.217709,12.586425 V 9.733411 c 0,-2.390044 -1.610825,-4.411436 -3.805194,-5.033397 V 4.02739 C 44.412515,3.241194 43.77309,2.6 42.985146,2.6 c -0.786192,0 -1.427389,0.639439 -1.427389,1.42739 v 0.672624 c -2.194351,0.621961 -3.805174,2.643353 -3.805174,5.033397 v 2.853014 c 0,1.359238 -0.623725,2.606662 -1.712158,3.426058 -0.164241,0.122292 -0.230626,0.335445 -0.165984,0.531118 0.06471,0.193931 0.246354,0.324952 0.450755,0.324952 h 4.327563 v 0 l 3.679393,-0.0023 v 0 0 l 5.307683,0.0023 c 0.204413,8.1e-5 0.386116,-0.131021 0.450756,-0.324952 0.06984,-0.193928 0.0024,-0.408826 -0.160723,-0.531118 z M 42.511678,4.02739 c 0,-0.262077 0.213154,-0.475229 0.475217,-0.475229 0.26205,0 0.475199,0.213152 0.475199,0.475229 v 0.49792 c -0.15724,-0.01397 -0.314479,-0.02278 -0.475199,-0.02278 -0.16074,0 -0.317979,0.0078 -0.475217,0.02278 z m 1.820474,12.839421 z m -6.820667,-0.950417 c 0.242847,-0.293518 0.454245,-0.614978 0.627191,-0.952168 0.379133,-0.740769 0.569558,-1.539202 0.569558,-2.377801 V 9.733411 c 0,-2.360329 1.920069,-4.280401 4.280401,-4.280401 2.35859,0 4.280402,1.920072 4.280402,4.280401 v 2.853014 c 0,0.836847 0.192165,1.637032 0.569548,2.37604 0.172955,0.338951 0.384353,0.65867 0.625454,0.952184 H 37.511485 Z"
       id="path4-2-8-2"
       sodipodi:nodetypes="csscssscssccscccccsccssscsccsccccccccssssscccc"
       style="fill:#d3dae3;fill-opacity:1;stroke-width:0.0174717" />
    <path
       d="M 42.509311,16.897458 C 42.411481,16.789144 42.26996,16.728 42.124962,16.728 h -3.613007 c -0.144998,0 -0.286515,0.06118 -0.384354,0.169458 -0.09784,0.108326 -0.146764,0.253329 -0.132779,0.401842 0.05584,0.574795 0.32146,1.107659 0.749497,1.499011 0.429799,0.394843 0.990602,0.613227 1.575885,0.613227 0.585289,0 1.144348,-0.216639 1.575885,-0.613227 0.428039,-0.391352 0.693602,-0.924216 0.749496,-1.499011 0.0084,-0.146766 -0.0384,-0.291768 -0.136274,-0.401842 z m -1.086691,1.387203 c -0.303986,0.276041 -0.693587,0.428033 -1.105905,0.428033 -0.41232,0 -0.803674,-0.151992 -1.105913,-0.428033 C 38.959218,18.054043 38.786249,17.251714 38.714627,16.925 h 3.200678 c -0.06809,0.330207 -0.241092,1.130786 -0.492685,1.359661 z"
       id="path10-3-7-7-0"
       style="fill:#d3dae3;fill-opacity:1;stroke-width:0.0174717"
       sodipodi:nodetypes="csscccsccccscccc" />
  </g>
  <g
     id="22-22-klarm-partdisabled"
     transform="translate(-32,-22)">
    <rect
       style="opacity:0.00100002"
       width="22"
       height="22"
       x="64"
       y="0"
       id="rect12" />
    <path
       d="M 77.261344,13.865 H 72.903656 C 72.542651,13.865001 72.249999,13.572349 72.25,13.211344 V 8.853653 C 72.25,8.4926494 72.542652,8.1999986 72.903656,8.2 h 4.357688 C 77.622348,8.1999986 77.915,8.4926494 77.915,8.853653 v 4.357691 c 10e-7,0.361005 -0.292651,0.653657 -0.653656,0.653656 z M 72.903656,8.63577 c -0.120332,2.6e-6 -0.217879,0.097551 -0.21788,0.217883 v 4.357691 c 10e-7,0.120332 0.09755,0.21788 0.21788,0.217883 h 4.357688 c 0.120331,-4e-6 0.217877,-0.09755 0.217878,-0.217883 z"
       id="path8-0"
       style="fill:#ff557f;fill-opacity:1;stroke-width:0.217892"
       sodipodi:nodetypes="cccsccsccccccccccc" />
    <path
       d="M 81.929902,16.012483 C 80.841446,15.194839 80.217738,13.947415 80.217738,12.586425 V 9.733411 c 0,-2.390044 -1.610828,-4.411436 -3.805202,-5.033397 V 4.02739 C 76.412536,3.241194 75.773109,2.6 74.985163,2.6 74.198969,2.6 73.55777,3.239439 73.55777,4.02739 v 0.672624 c -2.194355,0.621961 -3.805183,2.643353 -3.805183,5.033397 v 2.853014 c 0,1.359238 -0.623726,2.606662 -1.712161,3.426058 -0.164241,0.122292 -0.230627,0.335445 -0.165985,0.531118 0.06471,0.193931 0.246355,0.324952 0.450756,0.324952 h 4.327574 v 0 l 3.679402,-0.0023 v 0 0 l 5.307695,0.0023 c 0.204414,8.1e-5 0.386117,-0.131021 0.450757,-0.324952 0.06984,-0.193928 0.0024,-0.408826 -0.160723,-0.531118 z M 74.511694,4.02739 c 0,-0.262077 0.213154,-0.475229 0.475218,-0.475229 0.26205,0 0.4752,0.213152 0.4752,0.475229 v 0.49792 c -0.15724,-0.01397 -0.31448,-0.02278 -0.4752,-0.02278 -0.16074,0 -0.31798,0.0078 -0.475218,0.02278 z m 1.820479,12.839421 z m -6.820684,-0.950417 c 0.242848,-0.293518 0.454245,-0.614978 0.627192,-0.952168 0.379134,-0.740769 0.56956,-1.539202 0.56956,-2.377801 V 9.733411 c 0,-2.360329 1.920073,-4.280401 4.280411,-4.280401 2.358596,0 4.280412,1.920072 4.280412,4.280401 v 2.853014 c 0,0.836847 0.192166,1.637032 0.56955,2.37604 0.172955,0.338951 0.384354,0.65867 0.625456,0.952184 H 69.511489 Z"
       id="path4-2-8-23"
       sodipodi:nodetypes="csscssscssccscccccsccssscsccsccccccccssssscccc"
       style="fill:#d3dae3;fill-opacity:1;stroke-width:0.0174717" />
    <path
       d="M 74.509237,16.897458 C 74.411407,16.789144 74.26989,16.728 74.124896,16.728 h -3.612949 c -0.144995,0 -0.28651,0.06118 -0.384348,0.169458 -0.09784,0.108326 -0.146762,0.253329 -0.132777,0.401842 0.05584,0.574795 0.321455,1.107659 0.749484,1.499011 0.429792,0.394843 0.990587,0.613227 1.575861,0.613227 0.585279,0 1.144328,-0.216639 1.575859,-0.613227 0.428031,-0.391352 0.693591,-0.924216 0.749484,-1.499011 0.0084,-0.146766 -0.0384,-0.291768 -0.136273,-0.401842 z m -1.086673,1.387203 c -0.303981,0.276041 -0.693575,0.428033 -1.105886,0.428033 -0.412314,0 -0.803661,-0.151992 -1.105895,-0.428033 C 70.959202,18.054043 70.786236,17.151714 70.714615,16.825 h 3.200627 c -0.06809,0.330207 -0.241089,1.230786 -0.492678,1.459661 z"
       id="path10-3-7-7-7"
       style="fill:#d3dae3;fill-opacity:1;stroke-width:0.0174715"
       sodipodi:nodetypes="csscccsccccscccc" />
  </g>
</svg>
