<?xml version="1.0" encoding="UTF-8" standalone="no"?>
<svg
   xmlns:dc="http://purl.org/dc/elements/1.1/"
   xmlns:cc="http://creativecommons.org/ns#"
   xmlns:rdf="http://www.w3.org/1999/02/22-rdf-syntax-ns#"
   xmlns:svg="http://www.w3.org/2000/svg"
   xmlns="http://www.w3.org/2000/svg"
   xmlns:sodipodi="http://sodipodi.sourceforge.net/DTD/sodipodi-0.dtd"
   xmlns:inkscape="http://www.inkscape.org/namespaces/inkscape"
   sodipodi:docname="kdeconnect.svg"
   height="100%"
   width="100%"
   inkscape:version="1.0.2 (e86c870879, 2021-01-15)"
   version="1.1"
   id="svg"
   viewBox="0 0 32.000014 31.999972">
  <defs
     id="defs81">
    <style
       type="text/css"
       id="current-color-scheme" />
    <style
       id="current-color-scheme-9"
       type="text/css" />
  </defs>
  <metadata
     id="metadata34">
    <rdf:RDF>
      <cc:Work
         rdf:about="">
        <dc:format>image/svg+xml</dc:format>
        <dc:type
           rdf:resource="http://purl.org/dc/dcmitype/StillImage" />
        <dc:title />
      </cc:Work>
    </rdf:RDF>
  </metadata>
  <sodipodi:namedview
     inkscape:document-rotation="0"
     fit-margin-bottom="0"
     fit-margin-right="0"
     fit-margin-left="0"
     fit-margin-top="0"
     inkscape:snap-bbox-midpoints="true"
     inkscape:snap-bbox="true"
     inkscape:guide-bbox="true"
     showguides="false"
     borderlayer="true"
     inkscape:current-layer="svg"
     inkscape:window-maximized="1"
     inkscape:window-y="0"
     inkscape:window-x="0"
     inkscape:cy="52.910003"
     inkscape:cx="69.149236"
     inkscape:zoom="5.6568541"
     showgrid="true"
     id="namedview32"
     inkscape:window-height="1007"
     inkscape:window-width="1920"
     inkscape:pageshadow="2"
     inkscape:pageopacity="0.11372549"
     guidetolerance="10"
     gridtolerance="10"
     objecttolerance="10"
     borderopacity="1"
     bordercolor="#000000"
     pagecolor="#ffffff">
    <inkscape:grid
       spacingy="1.0666667"
       spacingx="1.0666666"
       originy="-31.76665"
       originx="-51.666691"
       snapvisiblegridlinesonly="true"
       enabled="true"
       visible="true"
       empspacing="5"
       id="grid3046"
       type="xygrid" />
  </sodipodi:namedview>
  <g
     transform="translate(7.5625007,73.281246)"
     id="16-16-kdeconnect">
    <path
       style="fill:#d3dae3;fill-opacity:1;stroke:none"
       d="M 2.8994993,1.4999625 V 14.499963 h 2 1 4 0.9999997 2 V 1.4999625 Z m 1,1 H 11.899499 V 11.499963 H 3.8994993 Z m 2,10.0000005 h 4 v 1 h -4 z"
       id="rect3878"
       inkscape:connector-curvature="0" />
    <rect
       style="fill:#566060;fill-opacity:0;stroke:none"
       id="rect3889"
       width="16"
       height="16"
       x="-2.6000002e-05"
       y="-3.7329864e-05"
       ry="2.9278411e-07" />
  </g>
  <g
     id="kdeconnect">
    <rect
       width="32.000015"
       height="31.999973"
       rx="0"
       ry="0"
       x="-2.9711913e-07"
       y="-3.8330079e-08"
       id="rect3860"
       style="opacity:0.01;fill:#eff0f1;fill-opacity:0;stroke:none" />
    <path
       inkscape:connector-curvature="0"
       style="fill:#d3dae3;fill-opacity:1"
       d="m 11.500007,3.999987 c -1.10801,0 -2,0.892 -2,2 v 3 h -0.375 c -0.347428,0 -0.625,0.277572 -0.625,0.625 v 0.75 c 0,0.347428 0.277572,0.625 0.625,0.625 h 0.375 v 1 c -0.554,0 -1,0.446 -1,1 v 2 c 0,0.554 0.446,1 1,1 v 10 c 0,1.108 0.89199,2 2,2 h 10 c 1.10801,0 2,-0.892 2,-2 v -20 c 0,-1.108 -0.89199,-2 -2,-2 z m 9.5,1 c 0.276142,0 0.5,0.223858 0.5,0.5 0,0.276142 -0.223858,0.5 -0.5,0.5 -0.276142,0 -0.5,-0.223858 -0.5,-0.5 0,-0.276142 0.223858,-0.5 0.5,-0.5 z m -9.5,2 h 10 c 0.554,0 1,0.446 1,1 v 15 c 0,0.554 -0.446,1 -1,1 h -10 c -0.554,0 -1,-0.446 -1,-1 v -8 -2 -2.625 -0.75 -1.625 c 0,-0.554 0.446,-1 1,-1 z m 3.5,18 h 3 c 0.554,0 1,0.446 1,1 0,0.554 -0.446,1 -1,1 h -3 c -0.554,0 -1,-0.446 -1,-1 0,-0.554 0.446,-1 1,-1 z"
       id="path2990-1" />
    <path
       d="m 20.339637,14.581818 h 1.527273 v 1.909091 A 1.909091,1.9090909 0 0 1 19.957819,18.4 H 13.085091 A 1.909091,1.9090909 0 0 1 11.176,16.490909 v -1.909091 h 1.527273 a 0.38181821,0.38181818 0 0 0 0.271091,-0.110727 l 0.763637,-0.763636 0.908727,1.817454 a 0.35127275,0.35127273 0 0 0 0.347455,0.202364 0.38181821,0.38181818 0 0 0 0.339818,-0.225273 l 1.145454,-2.539091 1.214182,3.650182 a 0.38181821,0.38181818 0 0 0 0.725455,0 l 0.950727,-2.852182 0.706364,0.710182 a 0.38181821,0.38181818 0 0 0 0.263454,0.110727 z m -6.762,-1.798363 a 0.38181821,0.38181818 0 0 1 0.332182,-0.110728 0.38181821,0.38181818 0 0 1 0.278727,0.206182 l 0.805637,1.573091 1.198909,-2.699455 a 0.38181821,0.38181818 0 0 1 0.381818,-0.225272 0.38181821,0.38181818 0 0 1 0.343636,0.259636 l 1.130182,3.497455 0.782728,-2.352 a 0.38181821,0.38181818 0 0 1 0.274909,-0.248182 0.38181821,0.38181818 0 0 1 0.358909,0.09927 l 1.030909,1.034727 H 21.86691 V 11.909091 A 1.909091,1.9090909 0 0 0 19.957819,10 H 13.085091 A 1.909091,1.9090909 0 0 0 11.176,11.909091 v 1.909091 h 1.370728 z"
       id="path4"
       style="fill:#d3dae3;stroke-width:0.381818;fill-opacity:1" />
  </g>
  <g
     id="22-22-kdeconnect">
    <path
       inkscape:connector-curvature="0"
       style="fill:#d3dae3;fill-opacity:1;stroke:none"
       d="m 10.562474,41.781208 c -0.554,0 -1.0000003,0.446 -1.0000003,1 v 14 c 0,0.554 0.4460003,1 1.0000003,1 h 10 c 0.554,0 1,-0.446 1,-1 v -14 c 0,-0.554 -0.446,-1 -1,-1 z m 0,1 h 10 v 12 h -10 z m 3.5,13 h 3 c 0.277,0 0.5,0.223 0.5,0.5 0,0.277 -0.223,0.5 -0.5,0.5 h -3 c -0.277,0 -0.5,-0.223 -0.5,-0.5 0,-0.277 0.223,-0.5 0.5,-0.5 z"
       id="rect3881" />
    <rect
       style="fill:#000000;fill-opacity:0;stroke:none"
       id="rect3841"
       width="22"
       height="22"
       x="4.5624738"
       y="38.781208" />
    <path
       d="m 18.227266,48.451619 h 1.054544 v 1.31818 a 1.3181803,1.3181803 0 0 1 -1.318179,1.31818 H 13.21818 A 1.3181803,1.3181803 0 0 1 11.9,49.769799 v -1.31818 h 1.054542 a 0.26363609,0.26363606 0 0 0 0.187185,-0.07645 l 0.527273,-0.527274 0.627452,1.254909 a 0.24254519,0.24254517 0 0 0 0.239909,0.139726 0.26363609,0.26363606 0 0 0 0.234638,-0.155541 l 0.790908,-1.75318 0.838362,2.52036 a 0.26363609,0.26363606 0 0 0 0.500909,0 l 0.656453,-1.969361 0.487724,0.490363 a 0.26363609,0.26363606 0 0 0 0.181911,0.07645 z m -4.668995,-1.241725 a 0.26363609,0.26363606 0 0 1 0.229365,-0.07645 0.26363609,0.26363606 0 0 1 0.192453,0.142363 l 0.556272,1.086184 0.827819,-1.86391 a 0.26363609,0.26363606 0 0 1 0.263631,-0.155542 0.26363609,0.26363606 0 0 1 0.237274,0.179272 l 0.780365,2.414908 0.540457,-1.623999 a 0.26363609,0.26363606 0 0 1 0.189816,-0.171365 0.26363609,0.26363606 0 0 1 0.247817,0.06857 l 0.711815,0.714451 H 19.28181 V 46.606189 A 1.3181803,1.3181803 0 0 0 17.963631,45.288 H 13.21818 A 1.3181803,1.3181803 0 0 0 11.9,46.60618 v 1.31818 h 0.946454 z"
       id="path4-3"
       style="fill:#d3dae3;stroke-width:0.263638;fill-opacity:1" />
  </g>
</svg>
