<?xml version="1.0" encoding="UTF-8" standalone="no"?>
<svg
   xmlns:dc="http://purl.org/dc/elements/1.1/"
   xmlns:cc="http://creativecommons.org/ns#"
   xmlns:rdf="http://www.w3.org/1999/02/22-rdf-syntax-ns#"
   xmlns:svg="http://www.w3.org/2000/svg"
   xmlns="http://www.w3.org/2000/svg"
   xmlns:sodipodi="http://sodipodi.sourceforge.net/DTD/sodipodi-0.dtd"
   xmlns:inkscape="http://www.inkscape.org/namespaces/inkscape"
   width="32"
   height="32"
   version="1.1"
   id="svg12"
   sodipodi:docname="kdf.svg"
   inkscape:version="1.0.2 (e86c870879, 2021-01-15)">
  <metadata
     id="metadata18">
    <rdf:RDF>
      <cc:Work
         rdf:about="">
        <dc:format>image/svg+xml</dc:format>
        <dc:type
           rdf:resource="http://purl.org/dc/dcmitype/StillImage" />
      </cc:Work>
    </rdf:RDF>
  </metadata>
  <defs
     id="defs16" />
  <sodipodi:namedview
     pagecolor="#ffffff"
     bordercolor="#666666"
     borderopacity="1"
     objecttolerance="10"
     gridtolerance="10"
     guidetolerance="10"
     inkscape:pageopacity="0"
     inkscape:pageshadow="2"
     inkscape:window-width="1920"
     inkscape:window-height="1007"
     id="namedview14"
     showgrid="false"
     inkscape:zoom="9.8125"
     inkscape:cx="55.339077"
     inkscape:cy="21.817337"
     inkscape:window-x="0"
     inkscape:window-y="0"
     inkscape:window-maximized="1"
     inkscape:current-layer="svg12"
     inkscape:document-rotation="0">
    <inkscape:grid
       type="xygrid"
       id="grid898"
       originx="0"
       originy="0" />
  </sodipodi:namedview>
  <g
     id="kdf">
    <rect
       style="opacity:0.00100002"
       width="32"
       height="32"
       x="-32"
       y="0"
       ry="0"
       transform="scale(-1,1)"
       id="rect7" />
    <path
       d="m 16.031251,8.81285 c -3.389319,0 -6.136642,2.692039 -6.136642,6.08137 0,1.096929 0.289273,2.255734 0.79354,2.961815 h -0.0022 l 0.07233,0.176844 c 0.01278,0.02042 0.02418,0.06876 0.03659,0.08889 l 2.722301,5.190992 2.514452,-2.627876 c 0.384091,0.07532 -0.40617,0 0,0 3.389309,0 6.136648,-2.348041 6.136648,-5.737224 0,-3.389329 -2.747339,-6.1349 -6.136648,-6.1349 z m 0,9.036433 c -1.601588,0 -2.899568,-1.298233 -2.899568,-2.899775 0,-1.601109 1.29798,-2.899323 2.899568,-2.899323 1.601317,0 2.899562,1.298214 2.899562,2.899323 0,1.601542 -1.298245,2.899775 -2.899562,2.899775 z"
       id="path2-36"
       style="fill:#d3dae3;fill-opacity:1;stroke-width:0.0271585"
       sodipodi:nodetypes="csccccccssccsssss" />
    <path
       class="ColorScheme-Text"
       d="M 9.153229,4 C 7.129021,4 5.5,5.857681 5.5,8.166016 V 23.833984 C 5.5,26.142317 7.129021,28 9.153229,28 h 13.739428 c 2.024206,0 3.653229,-1.857683 3.653229,-4.166016 V 8.166016 C 26.545886,5.857681 24.916863,4 22.892657,4 Z m 0.52838,2.193945 h 12.703 c 1.041502,0 1.979271,1.257035 1.979271,2.444728 v 14.738279 c 0,1.187691 -0.936769,2.444993 -1.978271,2.444993 H 9.6819 c -1.0415,0 -1.981055,-1.257302 -1.981055,-2.444993 V 8.638673 c 0,-1.187693 0.939266,-2.444728 1.980764,-2.444728 z"
       stroke-opacity="0"
       stroke-width="0.936436"
       id="path5"
       style="color:#232629;fill:#d3dae3;fill-opacity:1"
       sodipodi:nodetypes="ssssssssssssssssss" />
  </g>
  <g
     id="22-22-kdf">
    <rect
       style="opacity:0.00100002"
       width="22"
       height="22"
       x="-54"
       y="10"
       ry="0"
       id="rect2"
       transform="scale(-1,1)" />
    <path
       d="m 43.020839,16.208557 c -2.259547,0 -4.091104,1.794705 -4.091104,4.054252 0,0.731294 0.192855,1.503828 0.529031,1.974554 h -0.0022 l 0.04826,0.117893 c 0.0083,0.01355 0.01618,0.04579 0.02438,0.05929 l 1.814868,3.460654 1.676301,-1.751911 c 0.256062,0.05024 -0.270775,0 0,0 2.259539,0 4.0911,-1.565366 4.0911,-3.824807 0,-2.259562 -1.831561,-4.089939 -4.0911,-4.089939 z m 0,6.024303 c -1.067736,0 -1.933053,-0.86549 -1.933053,-1.933192 0,-1.067406 0.865317,-1.932872 1.933053,-1.932872 1.067543,0 1.933037,0.865466 1.933037,1.932872 0,1.067702 -0.865494,1.933192 -1.933037,1.933192 z"
       id="path2-36-3"
       style="fill:#d3dae3;fill-opacity:1;stroke-width:0.0181054"
       sodipodi:nodetypes="csccccccssccsssss" />
    <path
       class="ColorScheme-Text"
       d="M 38.435481,13 C 37.08601,13 36,14.238458 36,15.777347 V 26.222653 C 36,27.76154 37.08601,29 38.435481,29 h 9.159627 c 1.349464,0 2.435486,-1.23846 2.435486,-2.777347 V 15.777347 C 50.030594,14.238458 48.944572,13 47.595108,13 Z m 0.352261,1.462636 h 8.468655 c 0.694348,0 1.31952,0.838024 1.31952,1.629809 v 9.825524 c 0,0.791794 -0.624509,1.629992 -1.318845,1.629992 h -8.469143 c -0.694329,0 -1.320696,-0.838198 -1.320696,-1.629992 v -9.825524 c 0,-0.791785 0.62617,-1.629809 1.320509,-1.629809 z"
       stroke-opacity="0"
       stroke-width="0.624288"
       id="path5-6"
       style="color:#232629;fill:#d3dae3;fill-opacity:1"
       sodipodi:nodetypes="ssssssssssssssssss" />
  </g>
</svg>
