<?xml version="1.0" encoding="UTF-8" standalone="no"?>
<svg
   xmlns:dc="http://purl.org/dc/elements/1.1/"
   xmlns:cc="http://creativecommons.org/ns#"
   xmlns:rdf="http://www.w3.org/1999/02/22-rdf-syntax-ns#"
   xmlns:svg="http://www.w3.org/2000/svg"
   xmlns="http://www.w3.org/2000/svg"
   xmlns:sodipodi="http://sodipodi.sourceforge.net/DTD/sodipodi-0.dtd"
   xmlns:inkscape="http://www.inkscape.org/namespaces/inkscape"
   width="32"
   height="32"
   version="1.1"
   id="svg12"
   sodipodi:docname="keyboard.svg"
   inkscape:version="1.0.2 (e86c870879, 2021-01-15)">
  <metadata
     id="metadata18">
    <rdf:RDF>
      <cc:Work
         rdf:about="">
        <dc:format>image/svg+xml</dc:format>
        <dc:type
           rdf:resource="http://purl.org/dc/dcmitype/StillImage" />
      </cc:Work>
    </rdf:RDF>
  </metadata>
  <defs
     id="defs16" />
  <sodipodi:namedview
     pagecolor="#ffffff"
     bordercolor="#666666"
     borderopacity="1"
     objecttolerance="10"
     gridtolerance="10"
     guidetolerance="10"
     inkscape:pageopacity="0"
     inkscape:pageshadow="2"
     inkscape:window-width="1920"
     inkscape:window-height="1007"
     id="namedview14"
     showgrid="false"
     inkscape:zoom="9.8125"
     inkscape:cx="27.117621"
     inkscape:cy="17.255125"
     inkscape:window-x="0"
     inkscape:window-y="0"
     inkscape:window-maximized="1"
     inkscape:current-layer="svg12"
     inkscape:document-rotation="0">
    <inkscape:grid
       type="xygrid"
       id="grid875"
       originx="0"
       originy="0" />
  </sodipodi:namedview>
  <g
     id="keyboard-layout"
     transform="translate(32,10)">
    <rect
       style="opacity:0.00100002"
       width="32"
       height="32"
       x="-32"
       y="-10"
       id="rect7" />
    <path
       d="m -5.25,2.4634554 h -9.8 v -0.8 c 0,-0.15 -0.1,-0.25 -0.25,-0.25 h -1.5 c -0.15,0 -0.25,0.1 -0.25,0.25 v 0.8 h -9.7 c -0.7,0 -1.25,0.55 -1.25,1.25 v 9.2999996 c 0,0.7 0.55,1.25 1.25,1.25 h 21.5 c 0.7,0 1.25,-0.55 1.25,-1.25 V 3.7134554 c 0,-0.7 -0.55,-1.25 -1.25,-1.25 z m -14.05,2 c 0,-0.15 0.15,-0.3 0.3,-0.3 h 1 c 0.15,0 0.3,0.15 0.3,0.3 v 1 c 0,0.15 -0.15,0.3 -0.3,0.3 h -1 c -0.15,0 -0.3,-0.15 -0.3,-0.3 z m 0,2.25 c 0,-0.15 0.15,-0.3 0.3,-0.3 h 1 c 0.15,0 0.3,0.15 0.3,0.3 v 1 c 0,0.15 -0.15,0.3 -0.3,0.3 h -1 c -0.15,0 -0.3,-0.15 -0.3,-0.3 z m 0,2.3 c 0,-0.15 0.15,-0.3 0.3,-0.3 h 1 c 0.15,0 0.3,0.15 0.3,0.3 v 0.9999996 c 0,0.15 -0.15,0.3 -0.3,0.3 h -1 c -0.15,0 -0.3,-0.15 -0.3,-0.3 z m -2.45,-4.55 c 0,-0.15 0.15,-0.3 0.3,-0.3 h 1 c 0.15,0 0.3,0.15 0.3,0.3 v 1 c 0,0.15 -0.15,0.3 -0.3,0.3 h -1 c -0.15,0 -0.3,-0.15 -0.3,-0.3 z m 0,2.25 c 0,-0.15 0.15,-0.3 0.3,-0.3 h 1 c 0.15,0 0.3,0.15 0.3,0.3 v 1 c 0,0.15 -0.15,0.3 -0.3,0.3 h -1 c -0.15,0 -0.3,-0.15 -0.3,-0.3 z m 0,2.3 c 0,-0.15 0.15,-0.3 0.3,-0.3 h 1 c 0.15,0 0.3,0.15 0.3,0.3 v 0.9999996 c 0,0.15 -0.15,0.3 -0.3,0.3 h -1 c -0.15,0 -0.3,-0.15 -0.3,-0.3 z m -3.4,3.1999996 c 0,0.15 -0.15,0.3 -0.3,0.3 h -1 c -0.15,0 -0.3,-0.15 -0.3,-0.3 v -1 c 0,-0.15 0.15,-0.3 0.3,-0.3 h 1 c 0.15,0 0.3,0.15 0.3,0.3 z m 0,-2.2499996 c 0,0.1499996 -0.15,0.2999996 -0.3,0.2999996 h -1 c -0.15,0 -0.3,-0.15 -0.3,-0.2999996 v -1 c 0,-0.15 0.15,-0.3 0.3,-0.3 h 1 c 0.15,0 0.3,0.15 0.3,0.3 z m 0,-2.25 c 0,0.15 -0.15,0.3 -0.3,0.3 h -1 c -0.15,0 -0.3,-0.15 -0.3,-0.3 v -1 c 0,-0.15 0.15,-0.3 0.3,-0.3 h 1 c 0.15,0 0.3,0.15 0.3,0.3 z m 0,-2.25 c 0,0.15 -0.15,0.3 -0.3,0.3 h -1 c -0.15,0 -0.3,-0.15 -0.3,-0.3 v -1 c 0,-0.15 0.15,-0.3 0.3,-0.3 h 1 c 0.15,0 0.3,0.15 0.3,0.3 z m 2.5,6.7499996 c 0,0.15 -0.15,0.3 -0.3,0.3 h -1 c -0.15,0 -0.3,-0.15 -0.3,-0.3 v -1 c 0,-0.15 0.15,-0.3 0.3,-0.3 h 1 c 0.15,0 0.3,0.15 0.3,0.3 z m 0,-2.2499996 c 0,0.1499996 -0.15,0.2999996 -0.3,0.2999996 h -1 c -0.15,0 -0.3,-0.15 -0.3,-0.2999996 v -1 c 0,-0.15 0.15,-0.3 0.3,-0.3 h 1 c 0.15,0 0.3,0.15 0.3,0.3 z m 0,-2.25 c 0,0.15 -0.15,0.3 -0.3,0.3 h -1 c -0.15,0 -0.3,-0.15 -0.3,-0.3 v -1 c 0,-0.15 0.15,-0.3 0.3,-0.3 h 1 c 0.15,0 0.3,0.15 0.3,0.3 z m 0,-2.25 c 0,0.15 -0.15,0.3 -0.3,0.3 h -1 c -0.15,0 -0.3,-0.15 -0.3,-0.3 v -1 c 0,-0.15 0.15,-0.3 0.3,-0.3 h 1 c 0.15,0 0.3,0.15 0.3,0.3 z m 7.45,6.7499996 c 0,0.15 -0.15,0.3 -0.3,0.3 h -5.95 c -0.15,0 -0.3,-0.15 -0.3,-0.3 v -1 c 0,-0.15 0.15,-0.3 0.3,-0.3 h 5.95 c 0.15,0 0.3,0.15 0.3,0.3 z m 0,-2.2499996 c 0,0.1499996 -0.15,0.2999996 -0.3,0.2999996 h -1 c -0.15,0 -0.3,-0.15 -0.3,-0.2999996 v -1 c 0,-0.15 0.15,-0.3 0.3,-0.3 h 1 c 0.15,0 0.3,0.15 0.3,0.3 z m 0,-2.25 c 0,0.15 -0.15,0.3 -0.3,0.3 h -1 c -0.15,0 -0.3,-0.15 -0.3,-0.3 v -1 c 0,-0.15 0.15,-0.3 0.3,-0.3 h 1 c 0.15,0 0.3,0.15 0.3,0.3 z m 0,-2.25 c 0,0.15 -0.15,0.3 -0.3,0.3 h -1 c -0.15,0 -0.3,-0.15 -0.3,-0.3 v -1 c 0,-0.15 0.15,-0.3 0.3,-0.3 h 1 c 0.15,0 0.3,0.15 0.3,0.3 z m 8.35,-1 c 0,-0.15 0.15,-0.3 0.3,-0.3 h 1 c 0.15,0 0.3,0.15 0.3,0.3 v 1 c 0,0.15 -0.15,0.3 -0.3,0.3 h -1 c -0.15,0 -0.3,-0.15 -0.3,-0.3 z m 0,2.25 c 0,-0.15 0.15,-0.3 0.3,-0.3 h 1 c 0.15,0 0.3,0.15 0.3,0.3 v 1 c 0,0.15 -0.15,0.3 -0.3,0.3 h -1 c -0.15,0 -0.3,-0.15 -0.3,-0.3 z m -5.85,5.4999996 c 0,0.15 -0.15,0.3 -0.3,0.3 h -1 c -0.15,0 -0.3,-0.15 -0.3,-0.3 v -1 c 0,-0.15 0.15,-0.3 0.3,-0.3 h 1 c 0.15,0 0.3,0.15 0.3,0.3 z m 0,-2.2499996 c 0,0.1499996 -0.15,0.2999996 -0.3,0.2999996 h -1 c -0.15,0 -0.3,-0.15 -0.3,-0.2999996 v -1 c 0,-0.15 0.15,-0.3 0.3,-0.3 h 1 c 0.15,0 0.3,0.15 0.3,0.3 z m 0,-2.25 c 0,0.15 -0.15,0.3 -0.3,0.3 h -1 c -0.15,0 -0.3,-0.15 -0.3,-0.3 v -1 c 0,-0.15 0.15,-0.3 0.3,-0.3 h 1 c 0.15,0 0.3,0.15 0.3,0.3 z m 0,-2.25 c 0,0.15 -0.15,0.3 -0.3,0.3 h -1 c -0.15,0 -0.3,-0.15 -0.3,-0.3 v -1 c 0,-0.15 0.15,-0.3 0.3,-0.3 h 1 c 0.15,0 0.3,0.15 0.3,0.3 z m 2.45,6.7499996 c 0,0.15 -0.15,0.3 -0.3,0.3 h -1 c -0.15,0 -0.3,-0.15 -0.3,-0.3 v -1 c 0,-0.15 0.15,-0.3 0.3,-0.3 h 1 c 0.15,0 0.3,0.15 0.3,0.3 z m 0,-2.2499996 c 0,0.1499996 -0.15,0.2999996 -0.3,0.2999996 h -1 c -0.15,0 -0.3,-0.15 -0.3,-0.2999996 v -1 c 0,-0.15 0.15,-0.3 0.3,-0.3 h 1 c 0.15,0 0.3,0.15 0.3,0.3 z m 0,-2.25 c 0,0.15 -0.15,0.3 -0.3,0.3 h -1 c -0.15,0 -0.3,-0.15 -0.3,-0.3 v -1 c 0,-0.15 0.15,-0.3 0.3,-0.3 h 1 c 0.15,0 0.3,0.15 0.3,0.3 z m 0,-2.25 c 0,0.15 -0.15,0.3 -0.3,0.3 h -1 c -0.15,0 -0.3,-0.15 -0.3,-0.3 v -1 c 0,-0.15 0.15,-0.3 0.3,-0.3 h 1 c 0.15,0 0.3,0.15 0.3,0.3 z m 2.5,6.7499996 c 0,0.15 -0.15,0.3 -0.3,0.3 h -1 c -0.15,0 -0.3,-0.15 -0.3,-0.3 v -1 c 0,-0.15 0.15,-0.3 0.3,-0.3 h 1 c 0.15,0 0.3,0.15 0.3,0.3 z m 0,-2.2499996 c 0,0.1499996 -0.15,0.2999996 -0.3,0.2999996 h -1 c -0.15,0 -0.3,-0.15 -0.3,-0.2999996 v -1 c 0,-0.15 0.15,-0.3 0.3,-0.3 h 1 c 0.15,0 0.3,0.15 0.3,0.3 z m 0,-2.25 c 0,0.15 -0.15,0.3 -0.3,0.3 h -1 c -0.15,0 -0.3,-0.15 -0.3,-0.3 v -1 c 0,-0.15 0.15,-0.3 0.3,-0.3 h 1 c 0.15,0 0.3,0.15 0.3,0.3 z m 0,-2.25 c 0,0.15 -0.15,0.3 -0.3,0.3 h -1 c -0.15,0 -0.3,-0.15 -0.3,-0.3 v -1 c 0,-0.15 0.15,-0.3 0.3,-0.3 h 1 c 0.15,0 0.3,0.15 0.3,0.3 z m 2.5,6.7499996 c 0,0.15 -0.15,0.3 -0.3,0.3 h -1 c -0.15,0 -0.3,-0.15 -0.3,-0.3 V 8.9634554 c 0,-0.15 0.15,-0.3 0.3,-0.3 h 1 c 0.15,0 0.3,0.15 0.3,0.3 z"
       id="path4-3"
       style="fill:#d3dae3;fill-opacity:1;stroke-width:0.5" />
    <path
       d="m -16.606355,-2.3331771 c -0.681749,0.071889 -1.211184,0.2273171 -1.78232,0.5225731 -0.90258,0.4696444 -1.523364,1.2045248 -1.877644,2.219454 -0.04945,0.143975 -0.0838,0.26899 -0.07626,0.276494 0.0038,0.0075 0.06097,-0.05688 0.11816,-0.140222 0.156089,-0.227317 0.609266,-0.63633 0.933162,-0.8484404 0.529433,-0.348382 1.083369,-0.6337061 1.79986,-0.7923058 0.343108,-0.063461 0.584181,-0.140455 1.361254,-0.140455 0.784617,0 1.051951,0.081442 1.387166,0.1572851 1.230053,0.2689889 2.006294,0.7869301 2.657464,1.5595331 0.09909,0.121261 0.182896,0.21211 0.182896,0.204605 0,-0.04918 -0.197989,-0.575699 -0.281795,-0.74989 -0.647395,-1.3635093 -2.007122,-2.1929904 -3.736023,-2.2800859 -0.209907,-0.011257 -0.518511,-0.00355 -0.685921,0.011455 z"
       id="path4-6"
       style="fill:#d3dae3;fill-opacity:1;stroke-width:0.0019804"
       inkscape:connector-curvature="0"
       sodipodi:nodetypes="sccccccsccsccss" />
    <path
       d="m -16.388195,-0.174317 c -0.37679,0.05606 -0.676092,0.143532 -0.996506,0.297656 -0.633867,0.304596 -1.11991,0.850969 -1.362841,1.537406 l -0.05288,0.150654 0.18308,-0.175127 c 0.404886,-0.378186 0.75182,-0.679825 1.375213,-0.841071 0.278183,-0.07359 0.582738,-0.16228 1.153248,-0.16228 0.570511,0 0.802919,0.08661 1.081102,0.160018 0.609254,0.157591 1.042288,0.464963 1.412101,0.808274 0.112732,0.108652 0.183058,0.154121 0.183058,0.119062 0,-0.02794 -0.08098,-0.210187 -0.176085,-0.402658 -0.373306,-0.739029 -1.014144,-1.23975 -1.827586,-1.421813 -0.260557,-0.05953 -0.788833,-0.09806 -0.971903,-0.07012 z"
       id="path6"
       style="fill:#d3dae3;fill-opacity:1;stroke-width:0.00183119"
       inkscape:connector-curvature="0"
       sodipodi:nodetypes="scccccsccsccss" />
  </g>
  <g
     id="22-22-keyboard-layout"
     transform="translate(32,10)">
    <rect
       style="opacity:0.00100002"
       width="22"
       height="22"
       x="0"
       y="0"
       id="rect2" />
    <path
       d="M 18.166667,8.6089784 H 11.633333 V 8.0756451 c 0,-0.1 -0.06667,-0.1666666 -0.166666,-0.1666666 h -1 c -0.1,0 -0.166667,0.066667 -0.166667,0.1666666 V 8.6089784 H 3.8333334 C 3.3666667,8.6089784 3,8.9756451 3,9.4423118 v 6.2000002 c 0,0.466666 0.3666667,0.833333 0.8333334,0.833333 H 18.166667 C 18.633333,16.475645 19,16.108978 19,15.642312 V 9.4423118 C 19,8.9756451 18.633333,8.6089784 18.166667,8.6089784 Z M 8.8,9.9423118 c 0,-0.1 0.1,-0.2 0.2,-0.2 h 0.6666666 c 0.1,0 0.2,0.1 0.2,0.2 v 0.6666662 c 0,0.1 -0.1,0.2 -0.2,0.2 H 9 c -0.1,0 -0.2,-0.1 -0.2,-0.2 z m 0,1.5000002 c 0,-0.1 0.1,-0.2 0.2,-0.2 h 0.6666666 c 0.1,0 0.2,0.1 0.2,0.2 v 0.666666 c 0,0.1 -0.1,0.2 -0.2,0.2 H 9 c -0.1,0 -0.2,-0.1 -0.2,-0.2 z m 0,1.533333 c 0,-0.1 0.1,-0.2 0.2,-0.2 h 0.6666666 c 0.1,0 0.2,0.1 0.2,0.2 v 0.666667 c 0,0.1 -0.1,0.2 -0.2,0.2 H 9 c -0.1,0 -0.2,-0.1 -0.2,-0.2 z M 7.1666667,9.9423118 c 0,-0.1 0.1,-0.2 0.2,-0.2 h 0.6666666 c 0.1,0 0.2,0.1 0.2,0.2 v 0.6666662 c 0,0.1 -0.1,0.2 -0.2,0.2 H 7.3666667 c -0.1,0 -0.2,-0.1 -0.2,-0.2 z m 0,1.5000002 c 0,-0.1 0.1,-0.2 0.2,-0.2 h 0.6666666 c 0.1,0 0.2,0.1 0.2,0.2 v 0.666666 c 0,0.1 -0.1,0.2 -0.2,0.2 H 7.3666667 c -0.1,0 -0.2,-0.1 -0.2,-0.2 z m 0,1.533333 c 0,-0.1 0.1,-0.2 0.2,-0.2 h 0.6666666 c 0.1,0 0.2,0.1 0.2,0.2 v 0.666667 c 0,0.1 -0.1,0.2 -0.2,0.2 H 7.3666667 c -0.1,0 -0.2,-0.1 -0.2,-0.2 z M 4.9,15.108978 c 0,0.1 -0.1,0.2 -0.2,0.2 H 4.0333334 c -0.1,0 -0.2,-0.1 -0.2,-0.2 v -0.666666 c 0,-0.1 0.1,-0.2 0.2,-0.2 H 4.7 c 0.1,0 0.2,0.1 0.2,0.2 z m 0,-1.5 c 0,0.1 -0.1,0.2 -0.2,0.2 H 4.0333334 c -0.1,0 -0.2,-0.1 -0.2,-0.2 v -0.666666 c 0,-0.1 0.1,-0.2 0.2,-0.2 H 4.7 c 0.1,0 0.2,0.1 0.2,0.2 z m 0,-1.5 c 0,0.1 -0.1,0.2 -0.2,0.2 H 4.0333334 c -0.1,0 -0.2,-0.1 -0.2,-0.2 v -0.666666 c 0,-0.1 0.1,-0.2 0.2,-0.2 H 4.7 c 0.1,0 0.2,0.1 0.2,0.2 z m 0,-1.5 c 0,0.1 -0.1,0.2 -0.2,0.2 H 4.0333334 c -0.1,0 -0.2,-0.1 -0.2,-0.2 V 9.9423118 c 0,-0.1 0.1,-0.2 0.2,-0.2 H 4.7 c 0.1,0 0.2,0.1 0.2,0.2 z m 1.6666667,4.5 c 0,0.1 -0.1,0.2 -0.2,0.2 H 5.7 c -0.1,0 -0.2,-0.1 -0.2,-0.2 v -0.666666 c 0,-0.1 0.1,-0.2 0.2,-0.2 h 0.6666667 c 0.1,0 0.2,0.1 0.2,0.2 z m 0,-1.5 c 0,0.1 -0.1,0.2 -0.2,0.2 H 5.7 c -0.1,0 -0.2,-0.1 -0.2,-0.2 v -0.666666 c 0,-0.1 0.1,-0.2 0.2,-0.2 h 0.6666667 c 0.1,0 0.2,0.1 0.2,0.2 z m 0,-1.5 c 0,0.1 -0.1,0.2 -0.2,0.2 H 5.7 c -0.1,0 -0.2,-0.1 -0.2,-0.2 v -0.666666 c 0,-0.1 0.1,-0.2 0.2,-0.2 h 0.6666667 c 0.1,0 0.2,0.1 0.2,0.2 z m 0,-1.5 c 0,0.1 -0.1,0.2 -0.2,0.2 H 5.7 c -0.1,0 -0.2,-0.1 -0.2,-0.2 V 9.9423118 c 0,-0.1 0.1,-0.2 0.2,-0.2 h 0.6666667 c 0.1,0 0.2,0.1 0.2,0.2 z m 4.9666663,4.5 c 0,0.1 -0.1,0.2 -0.2,0.2 H 7.3666667 c -0.1,0 -0.2,-0.1 -0.2,-0.2 v -0.666666 c 0,-0.1 0.1,-0.2 0.2,-0.2 h 3.9666663 c 0.1,0 0.2,0.1 0.2,0.2 z m 0,-1.5 c 0,0.1 -0.1,0.2 -0.2,0.2 h -0.666666 c -0.1,0 -0.2,-0.1 -0.2,-0.2 v -0.666666 c 0,-0.1 0.1,-0.2 0.2,-0.2 h 0.666666 c 0.1,0 0.2,0.1 0.2,0.2 z m 0,-1.5 c 0,0.1 -0.1,0.2 -0.2,0.2 h -0.666666 c -0.1,0 -0.2,-0.1 -0.2,-0.2 v -0.666666 c 0,-0.1 0.1,-0.2 0.2,-0.2 h 0.666666 c 0.1,0 0.2,0.1 0.2,0.2 z m 0,-1.5 c 0,0.1 -0.1,0.2 -0.2,0.2 h -0.666666 c -0.1,0 -0.2,-0.1 -0.2,-0.2 V 9.9423118 c 0,-0.1 0.1,-0.2 0.2,-0.2 h 0.666666 c 0.1,0 0.2,0.1 0.2,0.2 z M 17.1,9.9423118 c 0,-0.1 0.1,-0.2 0.2,-0.2 h 0.666667 c 0.1,0 0.2,0.1 0.2,0.2 v 0.6666662 c 0,0.1 -0.1,0.2 -0.2,0.2 H 17.3 c -0.1,0 -0.2,-0.1 -0.2,-0.2 z m 0,1.5000002 c 0,-0.1 0.1,-0.2 0.2,-0.2 h 0.666667 c 0.1,0 0.2,0.1 0.2,0.2 v 0.666666 c 0,0.1 -0.1,0.2 -0.2,0.2 H 17.3 c -0.1,0 -0.2,-0.1 -0.2,-0.2 z m -3.9,3.666666 c 0,0.1 -0.1,0.2 -0.2,0.2 h -0.666667 c -0.1,0 -0.2,-0.1 -0.2,-0.2 v -0.666666 c 0,-0.1 0.1,-0.2 0.2,-0.2 H 13 c 0.1,0 0.2,0.1 0.2,0.2 z m 0,-1.5 c 0,0.1 -0.1,0.2 -0.2,0.2 h -0.666667 c -0.1,0 -0.2,-0.1 -0.2,-0.2 v -0.666666 c 0,-0.1 0.1,-0.2 0.2,-0.2 H 13 c 0.1,0 0.2,0.1 0.2,0.2 z m 0,-1.5 c 0,0.1 -0.1,0.2 -0.2,0.2 h -0.666667 c -0.1,0 -0.2,-0.1 -0.2,-0.2 v -0.666666 c 0,-0.1 0.1,-0.2 0.2,-0.2 H 13 c 0.1,0 0.2,0.1 0.2,0.2 z m 0,-1.5 c 0,0.1 -0.1,0.2 -0.2,0.2 h -0.666667 c -0.1,0 -0.2,-0.1 -0.2,-0.2 V 9.9423118 c 0,-0.1 0.1,-0.2 0.2,-0.2 H 13 c 0.1,0 0.2,0.1 0.2,0.2 z m 1.633333,4.5 c 0,0.1 -0.1,0.2 -0.2,0.2 h -0.666666 c -0.1,0 -0.2,-0.1 -0.2,-0.2 v -0.666666 c 0,-0.1 0.1,-0.2 0.2,-0.2 h 0.666666 c 0.1,0 0.2,0.1 0.2,0.2 z m 0,-1.5 c 0,0.1 -0.1,0.2 -0.2,0.2 h -0.666666 c -0.1,0 -0.2,-0.1 -0.2,-0.2 v -0.666666 c 0,-0.1 0.1,-0.2 0.2,-0.2 h 0.666666 c 0.1,0 0.2,0.1 0.2,0.2 z m 0,-1.5 c 0,0.1 -0.1,0.2 -0.2,0.2 h -0.666666 c -0.1,0 -0.2,-0.1 -0.2,-0.2 v -0.666666 c 0,-0.1 0.1,-0.2 0.2,-0.2 h 0.666666 c 0.1,0 0.2,0.1 0.2,0.2 z m 0,-1.5 c 0,0.1 -0.1,0.2 -0.2,0.2 h -0.666666 c -0.1,0 -0.2,-0.1 -0.2,-0.2 V 9.9423118 c 0,-0.1 0.1,-0.2 0.2,-0.2 h 0.666666 c 0.1,0 0.2,0.1 0.2,0.2 z m 1.666667,4.5 c 0,0.1 -0.1,0.2 -0.2,0.2 h -0.666667 c -0.1,0 -0.2,-0.1 -0.2,-0.2 v -0.666666 c 0,-0.1 0.1,-0.2 0.2,-0.2 H 16.3 c 0.1,0 0.2,0.1 0.2,0.2 z m 0,-1.5 c 0,0.1 -0.1,0.2 -0.2,0.2 h -0.666667 c -0.1,0 -0.2,-0.1 -0.2,-0.2 v -0.666666 c 0,-0.1 0.1,-0.2 0.2,-0.2 H 16.3 c 0.1,0 0.2,0.1 0.2,0.2 z m 0,-1.5 c 0,0.1 -0.1,0.2 -0.2,0.2 h -0.666667 c -0.1,0 -0.2,-0.1 -0.2,-0.2 v -0.666666 c 0,-0.1 0.1,-0.2 0.2,-0.2 H 16.3 c 0.1,0 0.2,0.1 0.2,0.2 z m 0,-1.5 c 0,0.1 -0.1,0.2 -0.2,0.2 h -0.666667 c -0.1,0 -0.2,-0.1 -0.2,-0.2 V 9.9423118 c 0,-0.1 0.1,-0.2 0.2,-0.2 H 16.3 c 0.1,0 0.2,0.1 0.2,0.2 z m 1.666667,4.5 c 0,0.1 -0.1,0.2 -0.2,0.2 H 17.3 c -0.1,0 -0.2,-0.1 -0.2,-0.2 v -2.166666 c 0,-0.1 0.1,-0.2 0.2,-0.2 h 0.666667 c 0.1,0 0.2,0.1 0.2,0.2 z"
       id="path4-3-5"
       style="fill:#d3dae3;fill-opacity:1;stroke-width:0.333333" />
    <path
       d="m 10.595759,5.4112207 c -0.454498,0.04792 -0.8074553,0.151545 -1.1882093,0.348383 -0.601716,0.313096 -1.015573,0.803016 -1.251763,1.479636 -0.03297,0.09598 -0.05584,0.179326 -0.05086,0.184329 0.0024,0.005 0.04065,-0.03792 0.07877,-0.09348 0.104062,-0.151545 0.40618,-0.42422 0.622115,-0.565627 0.352956,-0.232255 0.722243,-0.422471 1.1999013,-0.528204 0.228742,-0.04231 0.389458,-0.09364 0.907503,-0.09364 0.523082,0 0.7013,0.0543 0.924777,0.104856 0.820037,0.179326 1.337537,0.52462 1.771648,1.039689 0.06606,0.08084 0.121931,0.141407 0.121931,0.136403 0,-0.03278 -0.131996,-0.383799 -0.187869,-0.499926 -0.431595,-0.909006 -1.338082,-1.461994 -2.490684,-1.520058 -0.139934,-0.0075 -0.345668,-0.0024 -0.45728,0.0077 z"
       id="path4-6-3"
       style="fill:#d3dae3;fill-opacity:1;stroke-width:0.00132024"
       inkscape:connector-curvature="0"
       sodipodi:nodetypes="sccccccsccsccss" />
    <path
       d="m 10.741199,6.8504607 c -0.251192,0.03737 -0.45072,0.09569 -0.664331,0.198438 -0.4225813,0.203064 -0.7466083,0.567313 -0.9085653,1.024937 l -0.03528,0.100436 0.122062,-0.116751 c 0.269922,-0.252124 0.501208,-0.453217 0.9168053,-0.560714 0.185451,-0.04906 0.38849,-0.108186 0.76883,-0.108186 0.38034,0 0.535288,0.05774 0.720734,0.106678 0.406171,0.105061 0.694866,0.309976 0.941402,0.538849 0.07514,0.07243 0.12204,0.102747 0.12204,0.07938 0,-0.01863 -0.054,-0.140124 -0.11739,-0.268438 -0.248872,-0.492687 -0.676096,-0.8265 -1.218386,-0.947875 -0.173709,-0.03969 -0.525895,-0.06537 -0.647943,-0.04675 z"
       id="path6-5"
       style="fill:#d3dae3;fill-opacity:1;stroke-width:0.00122079"
       inkscape:connector-curvature="0"
       sodipodi:nodetypes="scccccsccsccss" />
  </g>
</svg>
