<?xml version="1.0" encoding="UTF-8" standalone="no"?>
<svg
   xmlns:dc="http://purl.org/dc/elements/1.1/"
   xmlns:cc="http://creativecommons.org/ns#"
   xmlns:rdf="http://www.w3.org/1999/02/22-rdf-syntax-ns#"
   xmlns:svg="http://www.w3.org/2000/svg"
   xmlns="http://www.w3.org/2000/svg"
   xmlns:sodipodi="http://sodipodi.sourceforge.net/DTD/sodipodi-0.dtd"
   xmlns:inkscape="http://www.inkscape.org/namespaces/inkscape"
   width="32"
   height="32"
   version="1.1"
   id="svg12"
   sodipodi:docname="kget.svg"
   inkscape:version="1.0.2 (e86c870879, 2021-01-15)">
  <metadata
     id="metadata18">
    <rdf:RDF>
      <cc:Work
         rdf:about="">
        <dc:format>image/svg+xml</dc:format>
        <dc:type
           rdf:resource="http://purl.org/dc/dcmitype/StillImage" />
      </cc:Work>
    </rdf:RDF>
  </metadata>
  <defs
     id="defs16" />
  <sodipodi:namedview
     pagecolor="#ffffff"
     bordercolor="#666666"
     borderopacity="1"
     objecttolerance="10"
     gridtolerance="10"
     guidetolerance="10"
     inkscape:pageopacity="0"
     inkscape:pageshadow="2"
     inkscape:window-width="1920"
     inkscape:window-height="1007"
     id="namedview14"
     showgrid="false"
     inkscape:zoom="6.9384853"
     inkscape:cx="43.54376"
     inkscape:cy="14.819959"
     inkscape:window-x="0"
     inkscape:window-y="0"
     inkscape:window-maximized="1"
     inkscape:current-layer="svg12"
     inkscape:document-rotation="0"
     showguides="false"
     inkscape:lockguides="false">
    <inkscape:grid
       type="xygrid"
       id="grid849"
       originx="0"
       originy="0" />
  </sodipodi:namedview>
  <g
     id="kget">
    <rect
       style="opacity:0.00100002"
       width="32"
       height="32"
       x="0"
       y="0"
       id="rect7" />
    <path
       d="M 27.09,28 H 4.862118 C 3.725646,28 2.8,27.074358 2.8,25.937052 V 24.024 c 0,-0.45459 0.368941,-0.824 0.823529,-0.824 0.454589,0 0.82353,0.36941 0.82353,0.824 v 1.913052 c 0,0.228948 0.186118,0.415896 0.415059,0.415896 H 27.09 c 0.228948,0 0.415872,-0.186948 0.415872,-0.415896 V 24.024 c 0,-0.45459 0.368128,-0.824 0.823538,-0.824 0.45541,0 0.823538,0.36941 0.823538,0.824 v 1.913052 C 29.152948,27.074358 28.22729,28 27.09,28 Z"
       id="path2"
       style="fill:#d3dae3;fill-opacity:1;stroke-width:0.823538"
       sodipodi:nodetypes="sssssssssssssss" />
    <path
       style="color:#000000;fill:#d3dae3;fill-opacity:1;stroke-width:0.406347;enable-background:accumulate"
       d="m 12.688543,3 h 6.418658 v 13.484634 h 3.588561 L 15.897871,24.5 9.1,16.484634 h 3.588543 z"
       fill-opacity="1"
       fill-rule="nonzero"
       stroke="none"
       marker="none"
       visibility="visible"
       display="inline"
       overflow="visible"
       id="path10-3"
       sodipodi:nodetypes="cccccccc" />
  </g>
  <g
     id="22-22-kget">
    <rect
       style="opacity:0.00100002"
       width="22"
       height="22"
       x="32"
       y="9.9978008"
       id="rect2" />
    <path
       d="M 50.39334,28.997801 H 35.574749 C 34.817091,28.997801 34.2,28.38071 34.2,27.622508 v -1.275367 c 0,-0.303061 0.245961,-0.54934 0.549025,-0.54934 0.303055,0 0.549014,0.246279 0.549014,0.54934 v 1.275367 c 0,0.152633 0.124082,0.277261 0.27671,0.277261 H 50.39334 c 0.152628,0 0.277247,-0.124628 0.277247,-0.277261 v -1.275367 c 0,-0.303061 0.245413,-0.54934 0.549013,-0.54934 0.30362,0 0.549028,0.246279 0.549028,0.54934 v 1.275367 c 0,0.758202 -0.617098,1.375293 -1.375288,1.375293 z"
       id="path2-3"
       style="fill:#d3dae3;fill-opacity:1;stroke-width:0.549033"
       sodipodi:nodetypes="sssssssssssssss" />
    <path
       style="color:#000000;fill:#d3dae3;fill-opacity:1;stroke-width:0.270903;enable-background:accumulate"
       d="m 40.792363,12.997801 h 4.279098 v 8.32309 h 2.392381 L 42.93192,26.664461 38.4,21.320891 h 2.392363 z"
       fill-opacity="1"
       fill-rule="nonzero"
       stroke="none"
       marker="none"
       visibility="visible"
       display="inline"
       overflow="visible"
       id="path10-3-5"
       sodipodi:nodetypes="cccccccc" />
  </g>
</svg>
