<?xml version="1.0" encoding="UTF-8" standalone="no"?>
<svg
   xmlns:dc="http://purl.org/dc/elements/1.1/"
   xmlns:cc="http://creativecommons.org/ns#"
   xmlns:rdf="http://www.w3.org/1999/02/22-rdf-syntax-ns#"
   xmlns:svg="http://www.w3.org/2000/svg"
   xmlns="http://www.w3.org/2000/svg"
   xmlns:sodipodi="http://sodipodi.sourceforge.net/DTD/sodipodi-0.dtd"
   xmlns:inkscape="http://www.inkscape.org/namespaces/inkscape"
   id="svg4153"
   version="1.1"
   inkscape:version="1.0.2 (e86c870879, 2021-01-15)"
   width="32.000004"
   height="32"
   sodipodi:docname="klipper.svg"
   viewBox="0 0 32.000004 32">
  <metadata
     id="metadata4159">
    <rdf:RDF>
      <cc:Work
         rdf:about="">
        <dc:format>image/svg+xml</dc:format>
        <dc:type
           rdf:resource="http://purl.org/dc/dcmitype/StillImage" />
        <dc:title />
      </cc:Work>
    </rdf:RDF>
  </metadata>
  <defs
     id="defs4157">
    <style
       type="text/css"
       id="current-color-scheme" />
  </defs>
  <sodipodi:namedview
     pagecolor="#ffffff"
     bordercolor="#000000"
     borderopacity="1"
     objecttolerance="10"
     gridtolerance="10000"
     guidetolerance="10"
     inkscape:pageopacity="0"
     inkscape:pageshadow="2"
     inkscape:window-width="1920"
     inkscape:window-height="1007"
     id="namedview4155"
     inkscape:document-units="px"
     showgrid="false"
     inkscape:showpageshadow="false"
     borderlayer="true"
     inkscape:zoom="5.6568545"
     inkscape:cx="60.265233"
     inkscape:cy="-7.1721904"
     inkscape:window-x="0"
     inkscape:window-y="0"
     inkscape:window-maximized="1"
     inkscape:current-layer="svg4153"
     fit-margin-top="0"
     fit-margin-left="0"
     fit-margin-right="0"
     fit-margin-bottom="0"
     inkscape:snap-bbox="true"
     inkscape:bbox-nodes="true"
     inkscape:document-rotation="0"
     showguides="false">
    <inkscape:grid
       type="xygrid"
       id="grid4140"
       originx="5"
       originy="5.000002" />
    <sodipodi:guide
       position="2,29.999999"
       orientation="28,0"
       id="guide4186" />
    <sodipodi:guide
       position="2,1.999999"
       orientation="0,28.000004"
       id="guide4188" />
    <sodipodi:guide
       position="30.000004,1.999999"
       orientation="-28,0"
       id="guide4190" />
    <sodipodi:guide
       position="30.000004,29.999999"
       orientation="0,-28.000004"
       id="guide4192" />
    <sodipodi:guide
       position="0,31.999999"
       orientation="32,0"
       id="guide4194" />
    <sodipodi:guide
       position="0,-1e-06"
       orientation="0,32.000004"
       id="guide4196" />
    <sodipodi:guide
       position="32.000004,-1e-06"
       orientation="-32,0"
       id="guide4198" />
    <sodipodi:guide
       position="32.000004,31.999999"
       orientation="0,-32.000004"
       id="guide4200" />
  </sodipodi:namedview>
  <inkscape:clipboard
     style="opacity:0.01000001;fill:#00000f;fill-opacity:0;stroke-width:1;stroke-linecap:butt;stroke-linejoin:miter;stroke-miterlimit:4;stroke-dasharray:none;stroke-dashoffset:0;stroke-opacity:1;stroke:none"
     min="0,0"
     max="22,22" />
  <g
     id="22-22-klipper"
     transform="translate(49,5)">
    <path
       d="m 8.14,11.06 c -0.1,-0.1 -0.28,-0.1 -0.38,0 L 6.8,12.02 6.42,11.64 c -0.1,-0.1 -0.28,-0.1 -0.38,0 -0.1,0.1 -0.1,0.28 0,0.38 l 0.58,0.58 c 0.1,0.1 0.28,0.1 0.38,0 l 1.14,-1.14 c 0.1,-0.12 0.1,-0.28 0,-0.4 z"
       id="path2-6"
       style="fill:#d3dae3;fill-opacity:1;stroke-width:0.2" />
    <path
       d="m 6.02,8.42 c -0.1,0.1 -0.1,0.28 0,0.38 L 6.6,9.38 c 0.1,0.1 0.28,0.1 0.38,0 L 8.12,8.24 c 0.1,-0.1 0.1,-0.28 0,-0.38 -0.1,-0.1 -0.28,-0.1 -0.38,0 L 6.8,8.8 6.42,8.42 c -0.12,-0.1 -0.28,-0.1 -0.4,0 z"
       id="path4-7"
       style="fill:#d3dae3;fill-opacity:1;stroke-width:0.2" />
    <path
       d="m 9.2,8.62 c 0,0.14 0.12,0.26 0.28,0.26 h 4.34 c 0.14,0 0.28,-0.12 0.28,-0.26 0,-0.14 -0.12,-0.26 -0.28,-0.26 H 9.46 C 9.32,8.36 9.2,8.48 9.2,8.62 Z"
       id="path6-5"
       style="fill:#d3dae3;fill-opacity:1;stroke-width:0.2" />
    <path
       d="M 7.74,14.28 6.78,15.24 6.4,14.86 c -0.1,-0.1 -0.28,-0.1 -0.38,0 -0.1,0.1 -0.1,0.28 0,0.38 l 0.58,0.58 c 0.1,0.1 0.28,0.1 0.38,0 l 1.14,-1.14 c 0.1,-0.1 0.1,-0.28 0,-0.38 -0.1,-0.12 -0.26,-0.12 -0.38,-0.02 z"
       id="path8-3"
       style="fill:#d3dae3;fill-opacity:1;stroke-width:0.2" />
    <path
       d="m 14.08,15.06 c 0,-0.14 -0.12,-0.26 -0.26,-0.26 H 9.46 c -0.14,0 -0.26,0.12 -0.26,0.26 v 0 c 0,0.14 0.12,0.26 0.26,0.26 h 4.36 c 0.14,0 0.26,-0.12 0.26,-0.26 z"
       id="path10-5"
       style="fill:#d3dae3;fill-opacity:1;stroke-width:0.2" />
    <path
       d="m 11.42,12.56 -0.72,1.78 1.78,-0.74 4.2,-4.2 -1.06,-1.06 z m -0.08,1.36 -0.22,-0.22 0.36,-0.88 0.74,0.74 z"
       id="path12-6"
       style="fill:#d3dae3;fill-opacity:1;stroke-width:0.2" />
    <path
       d="M 17.32,8.12 16.9,7.7 c -0.18,-0.18 -0.46,-0.18 -0.64,0 l -0.52,0.52 1.06,1.06 0.52,-0.52 c 0.18,-0.18 0.18,-0.46 0,-0.64 z"
       id="path14-2"
       style="fill:#d3dae3;fill-opacity:1;stroke-width:0.2" />
    <path
       d="M 11.84,11.56 H 9.46 c -0.14,0 -0.28,0.14 -0.28,0.28 0,0.14 0.12,0.28 0.28,0.28 h 1.84 z"
       id="path16-9"
       style="fill:#d3dae3;fill-opacity:1;stroke-width:0.2" />
    <path
       d="m 14.62,17.56 c 0,0.32 -0.26,0.6 -0.56,0.6 h -8.1 c -0.3,0 -0.54,-0.26 -0.54,-0.6 V 6.1 c 0,-0.32 0.24,-0.58 0.54,-0.58 h 0.28 c 0,-0.02 0,-0.88 0,-0.88 H 5.44 C 4.98,4.64 4.6,5.04 4.6,5.54 V 18.12 C 4.6,18.6 4.98,19 5.44,19 h 9.16 c 0.46,0 0.84,-0.4 0.84,-0.88 v -6.88 l -0.8,0.82 v 5.5 z"
       id="path18-1"
       style="fill:#d3dae3;fill-opacity:1;stroke-width:0.2" />
    <path
       d="m 13.82,5.52 h 0.24 c 0.3,0 0.56,0.26 0.56,0.58 v 2.7 l 0.8,-0.82 V 5.54 c 0,-0.48 -0.36,-0.9 -0.84,-0.9 H 13.8 c 0,0 0.02,0.86 0.02,0.88 z"
       id="path20-2"
       style="fill:#d3dae3;fill-opacity:1;stroke-width:0.2" />
    <path
       d="m 6.94,5.76 h 6.18 c 0.16,0 0.3,-0.14 0.3,-0.3 L 13.4,4.52 C 13.4,4.44 13.36,4.36 13.3,4.3 12.46,3.52 11.28,3 10.02,3 V 3 C 8.74,3 7.58,3.52 6.72,4.32 6.66,4.38 6.62,4.46 6.62,4.54 V 5.48 C 6.64,5.64 6.78,5.76 6.94,5.76 Z M 10.02,3.4 c 0.38,0 0.68,0.3 0.68,0.68 0,0.38 -0.3,0.68 -0.68,0.68 -0.38,0 -0.68,-0.3 -0.68,-0.68 0,-0.38 0.3,-0.68 0.68,-0.68 z"
       id="path22-7"
       style="fill:#d3dae3;fill-opacity:1;stroke-width:0.2" />
    <rect
       style="fill:none;fill-opacity:1;stroke:none;stroke-width:0.1;stroke-linecap:square;stroke-linejoin:miter;stroke-miterlimit:4;stroke-dasharray:none;stroke-dashoffset:0;stroke-opacity:1"
       id="rect4148"
       width="22"
       height="22"
       x="0"
       y="0" />
  </g>
  <g
     id="klipper"
     transform="translate(49,5)">
    <rect
       y="-5"
       x="-49"
       height="32"
       width="32.000004"
       id="rect4230"
       style="fill:none;fill-opacity:1;stroke:none" />
    <path
       d="m -37.39,11.268164 c -0.15,-0.15 -0.42,-0.15 -0.57,0 l -1.44,1.44 -0.57,-0.57 c -0.15,-0.15 -0.42,-0.15 -0.57,0 -0.15,0.15 -0.15,0.42 0,0.57 l 0.87,0.87 c 0.15,0.15 0.42,0.15 0.57,0 l 1.71,-1.71 c 0.15,-0.18 0.15,-0.42 0,-0.6 z"
       id="path2"
       style="fill:#d3dae3;fill-opacity:1;stroke-width:0.3" />
    <path
       d="m -40.57,7.3081643 c -0.15,0.15 -0.15,0.42 0,0.57 l 0.87,0.87 c 0.15,0.15 0.42,0.15 0.57,0 l 1.71,-1.71 c 0.15,-0.15 0.15,-0.42 0,-0.57 -0.15,-0.15 -0.42,-0.15 -0.57,0 l -1.41,1.41 -0.57,-0.57 c -0.18,-0.15 -0.42,-0.15 -0.6,0 z"
       id="path4"
       style="fill:#d3dae3;fill-opacity:1;stroke-width:0.3" />
    <path
       d="m -35.8,7.6081643 c 0,0.21 0.18,0.39 0.42,0.39 h 6.51 c 0.21,0 0.42,-0.18 0.42,-0.39 0,-0.21 -0.18,-0.39 -0.42,-0.39 h -6.54 c -0.21,0 -0.39,0.18 -0.39,0.39 z"
       id="path6"
       style="fill:#d3dae3;fill-opacity:1;stroke-width:0.3" />
    <path
       d="m -37.99,16.098164 -1.44,1.44 -0.57,-0.57 c -0.15,-0.15 -0.42,-0.15 -0.57,0 -0.15,0.15 -0.15,0.42 0,0.57 l 0.87,0.87 c 0.15,0.15 0.42,0.15 0.57,0 l 1.71,-1.71 c 0.15,-0.15 0.15,-0.42 0,-0.57 -0.15,-0.18 -0.39,-0.18 -0.57,-0.03 z"
       id="path8"
       style="fill:#d3dae3;fill-opacity:1;stroke-width:0.3" />
    <path
       d="m -28.48,17.268164 c 0,-0.21 -0.18,-0.39 -0.39,-0.39 h -6.54 c -0.21,0 -0.39,0.18 -0.39,0.39 v 0 c 0,0.21 0.18,0.39 0.39,0.39 h 6.54 c 0.21,0 0.39,-0.18 0.39,-0.39 z"
       id="path10"
       style="fill:#d3dae3;fill-opacity:1;stroke-width:0.3" />
    <path
       d="m -32.47,13.518164 -1.08,2.67 2.67,-1.11 6.3,-6.2999997 -1.59,-1.59 z m -0.12,2.04 -0.33,-0.33 0.54,-1.32 1.11,1.11 z"
       id="path12"
       style="fill:#d3dae3;fill-opacity:1;stroke-width:0.3" />
    <path
       d="m -23.62,6.8581643 -0.63,-0.63 c -0.27,-0.27 -0.69,-0.27 -0.96,0 l -0.78,0.78 1.59,1.59 0.78,-0.78 c 0.27,-0.27 0.27,-0.69 0,-0.96 z"
       id="path14"
       style="fill:#d3dae3;fill-opacity:1;stroke-width:0.3" />
    <path
       d="m -31.84,12.018164 h -3.57 c -0.21,0 -0.42,0.21 -0.42,0.42 0,0.21 0.18,0.42 0.42,0.42 h 2.76 z"
       id="path16"
       style="fill:#d3dae3;fill-opacity:1;stroke-width:0.3" />
    <path
       d="m -27.67,21.018164 c 0,0.48 -0.39,0.9 -0.84,0.9 h -12.15 c -0.45,0 -0.81,-0.39 -0.81,-0.9 V 3.8281643 c 0,-0.48 0.36,-0.87 0.81,-0.87 h 0.42 c 0,-0.03 0,-1.32 0,-1.32 h -1.2 c -0.69,0 -1.26,0.6 -1.26,1.35 V 21.858164 c 0,0.72 0.57,1.32 1.26,1.32 h 13.74 c 0.69,0 1.26,-0.6 1.26,-1.32 v -10.32 l -1.2,1.23 v 8.25 z"
       id="path18"
       style="fill:#d3dae3;fill-opacity:1;stroke-width:0.3" />
    <path
       d="m -28.87,2.9581643 h 0.36 c 0.45,0 0.84,0.39 0.84,0.87 v 4.05 l 1.2,-1.23 v -3.66 c 0,-0.72 -0.54,-1.35 -1.26,-1.35 h -1.17 c 0,0 0.03,1.29 0.03,1.32 z"
       id="path20"
       style="fill:#d3dae3;fill-opacity:1;stroke-width:0.3" />
    <path
       d="m -39.19,3.3181643 h 9.27 c 0.24,0 0.45,-0.21 0.45,-0.45 l -0.03,-1.41 c 0,-0.12 -0.06,-0.24 -0.15,-0.33 -1.26,-1.17 -3.03,-1.95 -4.92,-1.95 v 0 c -1.92,0 -3.66,0.78 -4.95,1.98 -0.09,0.09 -0.15,0.21 -0.15,0.33 v 1.41 c 0.03,0.24 0.24,0.42 0.48,0.42 z m 4.62,-3.54 c 0.57,0 1.02,0.45 1.02,1.02 0,0.57 -0.45,1.02 -1.02,1.02 -0.57,0 -1.02,-0.45 -1.02,-1.02 0,-0.57 0.45,-1.02 1.02,-1.02 z"
       id="path22"
       style="fill:#d3dae3;fill-opacity:1;stroke-width:0.3" />
  </g>
</svg>
