<?xml version="1.0" encoding="UTF-8" standalone="no"?>
<svg
   xmlns:dc="http://purl.org/dc/elements/1.1/"
   xmlns:cc="http://creativecommons.org/ns#"
   xmlns:rdf="http://www.w3.org/1999/02/22-rdf-syntax-ns#"
   xmlns:svg="http://www.w3.org/2000/svg"
   xmlns="http://www.w3.org/2000/svg"
   xmlns:sodipodi="http://sodipodi.sourceforge.net/DTD/sodipodi-0.dtd"
   xmlns:inkscape="http://www.inkscape.org/namespaces/inkscape"
   width="32"
   height="32"
   version="1.1"
   id="svg12"
   sodipodi:docname="kmail.svg"
   inkscape:version="1.0.2 (e86c870879, 2021-01-15)">
  <metadata
     id="metadata18">
    <rdf:RDF>
      <cc:Work
         rdf:about="">
        <dc:format>image/svg+xml</dc:format>
        <dc:type
           rdf:resource="http://purl.org/dc/dcmitype/StillImage" />
      </cc:Work>
    </rdf:RDF>
  </metadata>
  <defs
     id="defs16" />
  <sodipodi:namedview
     pagecolor="#ffffff"
     bordercolor="#666666"
     borderopacity="1"
     objecttolerance="10"
     gridtolerance="10"
     guidetolerance="10"
     inkscape:pageopacity="0"
     inkscape:pageshadow="2"
     inkscape:window-width="1920"
     inkscape:window-height="1007"
     id="namedview14"
     showgrid="false"
     inkscape:zoom="13.876971"
     inkscape:cx="19.147124"
     inkscape:cy="14.315435"
     inkscape:window-x="0"
     inkscape:window-y="0"
     inkscape:window-maximized="1"
     inkscape:current-layer="svg12"
     inkscape:document-rotation="0" />
  <g
     id="kmail">
    <rect
       style="opacity:0.00100002"
       width="32"
       height="32"
       x="0"
       y="0"
       id="rect7" />
    <path
       d="M 29.516209,6.125 H 2.483792 c -0.672175,0 -1.218815,0.546639 -1.218815,1.218814 v 17.562371 c 0,0.672176 0.54664,1.218815 1.218815,1.218815 h 27.032417 c 0.672175,0 1.218814,-0.546639 1.218814,-1.218815 V 7.343814 C 30.735023,6.671639 30.188384,6.125 29.516209,6.125 Z m 0.405212,18.781185 c 0,0.223264 -0.181948,0.405212 -0.405212,0.405212 H 2.483792 c -0.223264,0 -0.405212,-0.181948 -0.405212,-0.405212 V 10.269908 L 16,16.571528 29.921421,10.269908 Z m 0,-15.529358 L 16,15.678472 2.07858,9.376827 V 7.343814 c 0,-0.223264 0.181948,-0.405212 0.405212,-0.405212 h 27.032417 c 0.223264,0 0.405212,0.181948 0.405212,0.405212 z"
       id="path2"
       style="fill:#d3dae3;fill-opacity:1;stroke-width:0.406801" />
    <path
       inkscape:connector-curvature="0"
       id="path4252-3"
       style="font-style:normal;font-variant:normal;font-weight:normal;font-stretch:normal;font-size:18.5263px;line-height:125%;font-family:'Product Sans';-inkscape-font-specification:'Product Sans';letter-spacing:0px;word-spacing:0px;fill:#d3dae3;fill-opacity:1;stroke:none;stroke-width:0.300006;stroke-linecap:butt;stroke-linejoin:miter;stroke-miterlimit:4;stroke-dasharray:none;stroke-opacity:0.85"
       d="m 23.707392,14.481 q 2.021311,0 3.401753,1.405148 1.380388,1.40524 1.380388,3.394808 0,1.119238 -0.480648,1.852883 -0.468348,0.7337 -1.368104,0.7337 -0.924442,0 -1.380433,-0.907774 -0.603958,0.907774 -1.725534,0.907774 -1.010718,0 -1.700863,-0.708798 -0.690253,-0.721281 -0.690253,-1.827969 0,-1.094296 0.690253,-1.81563 0.690145,-0.721194 1.651548,-0.721194 0.949065,0 1.577647,0.733719 h 0.04943 v -0.559582 h 0.887412 v 3.245575 q 0,0.323307 0.172543,0.584411 0.184849,0.261102 0.554674,0.261102 0.875064,0 0.875064,-1.778217 0,-1.641416 -1.133926,-2.773028 -1.133953,-1.131588 -2.760842,-1.131588 -1.626911,0 -2.760916,1.131588 -1.133862,1.131612 -1.133862,2.773028 0,1.641511 1.133862,2.773114 1.134005,1.131533 2.760916,1.131533 0.875063,0 1.565247,-0.348146 l 0.345153,0.845581 q -0.862809,0.397962 -1.9104,0.397962 -2.045972,0 -3.438777,-1.392778 Q 18.876,21.283069 18.876,19.280956 q 0,-1.989568 1.392724,-3.394808 Q 21.673798,14.481 23.707506,14.481 Z m -1.146268,6.006227 q 0.443731,0.43524 1.059961,0.43524 0.616266,0 1.047653,-0.43524 0.443728,-0.435264 0.443728,-1.156455 0,-0.721324 -0.443728,-1.156502 -0.431387,-0.435236 -1.047653,-0.435236 -0.61623,0 -1.059961,0.435236 -0.431399,0.435178 -0.431399,1.156502 0,0.721191 0.431399,1.156455 z" />
  </g>
  <g
     id="22-22-kmail">
    <g
       id="g992"
       transform="translate(32,10)">
      <rect
         style="opacity:0.00100002"
         width="22"
         height="22"
         x="0"
         y="0"
         id="rect2" />
    </g>
    <path
       d="M 52.461344,14.082 H 33.538647 c -0.470523,0 -0.85317,0.382653 -0.85317,0.853174 v 12.293651 c 0,0.470522 0.382647,0.853175 0.85317,0.853175 h 18.922697 c 0.47052,0 0.85317,-0.382653 0.85317,-0.853175 V 14.935174 c 0,-0.470521 -0.38265,-0.853174 -0.85317,-0.853174 z m 0.28365,13.146825 c 0,0.156291 -0.127367,0.283652 -0.28365,0.283652 H 33.538647 c -0.156285,0 -0.283648,-0.127361 -0.283648,-0.283652 V 16.98343 L 43,21.394564 52.744994,16.98343 Z m 0,-10.870538 L 43,20.769436 33.254999,16.358287 v -1.423113 c 0,-0.156291 0.127363,-0.283652 0.283648,-0.283652 h 18.922697 c 0.156283,0 0.28365,0.127361 0.28365,0.283652 z"
       id="path2-6"
       style="fill:#d3dae3;fill-opacity:1;stroke-width:0.284761" />
    <path
       inkscape:connector-curvature="0"
       id="path4252-3-6"
       style="font-style:normal;font-variant:normal;font-weight:normal;font-stretch:normal;font-size:18.5263px;line-height:125%;font-family:'Product Sans';-inkscape-font-specification:'Product Sans';letter-spacing:0px;word-spacing:0px;fill:#d3dae3;fill-opacity:1;stroke:none;stroke-width:0.218756;stroke-linecap:butt;stroke-linejoin:miter;stroke-miterlimit:4;stroke-dasharray:none;stroke-opacity:0.85"
       d="m 48.601868,19.77 q 1.473872,0 2.480443,1.024586 1.006534,1.024655 1.006534,2.475373 0,0.816114 -0.350465,1.351082 -0.341519,0.534977 -0.997576,0.534977 -0.674084,0 -1.006581,-0.661918 -0.440377,0.661918 -1.258193,0.661918 -0.736982,0 -1.240213,-0.51683 -0.50331,-0.525927 -0.50331,-1.332899 0,-0.797918 0.50331,-1.323894 0.503231,-0.525873 1.204245,-0.525873 0.69203,0 1.150376,0.535006 h 0.03605 V 21.5835 h 0.647072 v 2.366562 q 0,0.235747 0.125822,0.426136 0.134797,0.190387 0.40446,0.190387 0.638064,0 0.638064,-1.296614 0,-1.19686 -0.826824,-2.022003 -0.826841,-0.825107 -2.013111,-0.825107 -1.186289,0 -2.01317,0.825107 -0.82677,0.825143 -0.82677,2.022003 0,1.196932 0.82677,2.02206 0.826881,0.825075 2.01317,0.825075 0.638068,0 1.141327,-0.253858 l 0.251673,0.616573 q -0.62913,0.290179 -1.393,0.290179 -1.491857,0 -2.50744,-1.015569 Q 45.079,24.729841 45.079,23.269959 q 0,-1.450718 1.015531,-2.475373 Q 47.119059,19.77 48.601971,19.77 Z m -0.835826,4.37954 q 0.323556,0.317363 0.772892,0.317363 0.449362,0 0.763916,-0.317363 0.323557,-0.31738 0.323557,-0.843251 0,-0.525961 -0.323557,-0.84329 -0.314554,-0.31735 -0.763916,-0.31735 -0.449336,0 -0.772892,0.31735 -0.314558,0.317329 -0.314558,0.84329 0,0.525871 0.314558,0.843251 z" />
  </g>
</svg>
