<?xml version="1.0" encoding="UTF-8" standalone="no"?>
<svg
   xmlns:dc="http://purl.org/dc/elements/1.1/"
   xmlns:cc="http://creativecommons.org/ns#"
   xmlns:rdf="http://www.w3.org/1999/02/22-rdf-syntax-ns#"
   xmlns:svg="http://www.w3.org/2000/svg"
   xmlns="http://www.w3.org/2000/svg"
   xmlns:sodipodi="http://sodipodi.sourceforge.net/DTD/sodipodi-0.dtd"
   xmlns:inkscape="http://www.inkscape.org/namespaces/inkscape"
   width="32"
   height="32"
   version="1.1"
   id="svg12"
   sodipodi:docname="kopete.svg"
   inkscape:version="1.0.2 (e86c870879, 2021-01-15)">
  <metadata
     id="metadata18">
    <rdf:RDF>
      <cc:Work
         rdf:about="">
        <dc:format>image/svg+xml</dc:format>
        <dc:type
           rdf:resource="http://purl.org/dc/dcmitype/StillImage" />
      </cc:Work>
    </rdf:RDF>
  </metadata>
  <defs
     id="defs16" />
  <sodipodi:namedview
     pagecolor="#ffffff"
     bordercolor="#666666"
     borderopacity="1"
     objecttolerance="10"
     gridtolerance="10"
     guidetolerance="10"
     inkscape:pageopacity="0"
     inkscape:pageshadow="2"
     inkscape:window-width="1920"
     inkscape:window-height="1007"
     id="namedview14"
     showgrid="false"
     inkscape:zoom="9.8125"
     inkscape:cx="24.525102"
     inkscape:cy="15.747905"
     inkscape:window-x="0"
     inkscape:window-y="0"
     inkscape:window-maximized="1"
     inkscape:current-layer="svg12"
     inkscape:document-rotation="0">
    <inkscape:grid
       type="xygrid"
       id="grid843"
       originx="0"
       originy="0" />
  </sodipodi:namedview>
  <g
     id="kopete">
    <g
       id="g908">
      <rect
         style="opacity:0.00100002"
         width="32"
         height="32"
         x="0"
         y="0"
         id="rect7" />
      <path
         d="m 29.961163,15.184466 c 0,-6.174757 -6.23301,-11.1844657 -13.980579,-11.1844657 -7.7475741,0 -13.9805837,5.0097087 -13.9805837,11.1844657 0,6.174758 6.2330096,11.184466 13.9805837,11.184466 2.271845,0 4.427181,-0.466019 6.349511,-1.223301 1.572815,1.572816 4.194175,2.504855 7.572815,2.854369 -1.514563,-2.213592 -2.330097,-4.427184 -2.388349,-6.524272 1.572815,-1.747572 2.446602,-3.961165 2.446602,-6.291262 z M 11.844661,10.873787 c 1.048544,0 1.92233,0.873786 1.92233,1.92233 0,1.048543 -0.873786,1.92233 -1.92233,1.92233 -1.048544,0 -1.9223301,-0.873787 -1.9223301,-1.92233 0,-1.048544 0.8737861,-1.92233 1.9223301,-1.92233 z m 9.844657,8.796116 C 20.116503,21.242719 18.077671,22 15.980584,22 c -2.038836,0 -4.135923,-0.757281 -5.708739,-2.330097 -0.3495141,-0.349514 -0.3495141,-0.873786 0,-1.223301 0.349515,-0.349514 0.873787,-0.349514 1.223301,0 2.446602,2.446602 6.46602,2.446602 8.912619,0 0.349514,-0.349514 0.873786,-0.349514 1.223301,0 0.349514,0.349515 0.407767,0.873787 0.05825,1.223301 z m -1.572815,-4.951456 c -1.04854,0 -1.922327,-0.873787 -1.922327,-1.92233 0,-1.048544 0.873787,-1.92233 1.922327,-1.92233 1.048543,0 1.92233,0.873786 1.92233,1.92233 0,1.048543 -0.873787,1.92233 -1.92233,1.92233 z"
         id="path2"
         style="fill:#d3dae3;stroke-width:0.582524;fill-opacity:1" />
    </g>
  </g>
  <g
     id="22-22-kopete">
    <rect
       style="opacity:0.00100002"
       width="22"
       height="22"
       x="32"
       y="10"
       id="rect2" />
    <path
       d="M 52.340767,20.456309 C 52.340767,16.339799 48.185433,13 43.0204,13 37.855331,13 33.7,16.339799 33.7,20.456309 c 0,4.116506 4.155331,7.456312 9.3204,7.456312 1.51456,0 2.951445,-0.310679 4.232996,-0.815534 C 48.301949,28.145631 50.04952,28.76699 52.301949,29 51.29224,27.524272 50.74855,26.048544 50.709702,24.650486 c 1.048554,-1.16505 1.631065,-2.640778 1.631065,-4.194177 z M 40.263118,17.582518 c 0.699026,0 1.281552,0.582522 1.281552,1.281562 0,0.699036 -0.582526,1.281558 -1.281552,1.281558 -0.699038,0 -1.281566,-0.582522 -1.281566,-1.281558 0,-0.69904 0.582528,-1.281562 1.281566,-1.281562 z m 6.563087,5.864083 C 45.77768,24.495145 44.41845,25 43.0204,25 c -1.359233,0 -2.757282,-0.504855 -3.805835,-1.553399 -0.233013,-0.233009 -0.233013,-0.582524 0,-0.815533 0.233014,-0.23301 0.582514,-0.23301 0.81554,0 1.631062,1.631068 4.310662,1.631068 5.94174,0 0.233013,-0.23301 0.582514,-0.23301 0.81554,0 0.233012,0.233009 0.271847,0.582524 0.03884,0.815533 z M 45.77768,20.145638 c -0.69904,0 -1.281563,-0.582522 -1.281563,-1.281558 0,-0.69904 0.582523,-1.281562 1.281563,-1.281562 0.699024,0 1.281552,0.582522 1.281552,1.281562 0,0.699036 -0.582528,1.281558 -1.281552,1.281558 z"
       id="path2-3"
       style="fill:#d3dae3;stroke-width:0.388357;fill-opacity:1" />
  </g>
</svg>
