<?xml version="1.0" encoding="UTF-8" standalone="no"?>
<svg
   xmlns:dc="http://purl.org/dc/elements/1.1/"
   xmlns:cc="http://creativecommons.org/ns#"
   xmlns:rdf="http://www.w3.org/1999/02/22-rdf-syntax-ns#"
   xmlns:svg="http://www.w3.org/2000/svg"
   xmlns="http://www.w3.org/2000/svg"
   xmlns:sodipodi="http://sodipodi.sourceforge.net/DTD/sodipodi-0.dtd"
   xmlns:inkscape="http://www.inkscape.org/namespaces/inkscape"
   width="32"
   height="32"
   version="1.1"
   id="svg12"
   sodipodi:docname="korgac.svg"
   inkscape:version="1.0.1 (3bc2e813f5, 2020-09-07)">
  <metadata
     id="metadata18">
    <rdf:RDF>
      <cc:Work
         rdf:about="">
        <dc:format>image/svg+xml</dc:format>
        <dc:type
           rdf:resource="http://purl.org/dc/dcmitype/StillImage" />
      </cc:Work>
    </rdf:RDF>
  </metadata>
  <defs
     id="defs16" />
  <sodipodi:namedview
     pagecolor="#ffffff"
     bordercolor="#666666"
     borderopacity="1"
     objecttolerance="10"
     gridtolerance="10"
     guidetolerance="10"
     inkscape:pageopacity="0"
     inkscape:pageshadow="2"
     inkscape:window-width="1920"
     inkscape:window-height="1007"
     id="namedview14"
     showgrid="false"
     inkscape:zoom="9.8125"
     inkscape:cx="30.595387"
     inkscape:cy="11.048559"
     inkscape:window-x="0"
     inkscape:window-y="0"
     inkscape:window-maximized="1"
     inkscape:current-layer="svg12">
    <inkscape:grid
       type="xygrid"
       id="grid858"
       originx="0"
       originy="0" />
  </sodipodi:namedview>
  <g
     id="g892">
    <rect
       style="opacity:0.00100002"
       width="32"
       height="32"
       x="0"
       y="0"
       id="rect7" />
    <path
       id="rect4120-4-7"
       style="fill:#d3dae3;fill-opacity:1;stroke:none;stroke-width:1.5"
       d="m 15.924647,4 c -1.661577,0 -2.999245,1.3322421 -2.999245,2.9870861 0,0.1452923 0.0176,0.2868126 0.03815,0.4258915 C 8.600165,8.6809872 5.427343,12.67583 5.427343,17.441882 c 0,5.79196 4.681828,10.454805 10.497375,10.454805 5.815548,0 10.497373,-4.662845 10.497373,-10.454805 0,-2.369208 -0.790797,-4.542638 -2.114696,-6.29213 9.72e-4,-9.65e-4 -2.066022,-2.0564955 -2.064924,-2.0565391 C 21.246499,8.3456224 20.115705,7.7703649 18.88589,7.4129776 18.90646,7.2739043 18.92404,7.1323831 18.92404,6.9870861 18.92404,5.3322421 17.58637,4 15.924793,4 Z m 0,1.4935431 c 0.830808,0 1.49962,0.6661143 1.49962,1.493543 0,0.040375 -0.02023,0.074214 -0.02347,0.113764 -0.483682,-0.067455 -0.973253,-0.113764 -1.476189,-0.113764 -0.502939,0 -0.992507,0.046309 -1.476191,0.113764 -0.002,-0.03955 -0.02346,-0.073388 -0.02346,-0.113764 0,-0.8274287 0.668829,-1.493543 1.499632,-1.493543 z m 0,2.9870851 c 0.389275,0 0.770376,0.028854 1.145225,0.078758 0.05212,0.00654 0.103325,0.015903 0.155238,0.023335 0.363046,0.054768 0.720645,0.1276719 1.069061,0.2216978 3.825454,1.0323799 6.628234,4.492008 6.628234,8.637459 0,4.964534 -4.012989,8.961254 -8.997758,8.961254 -4.984745,0 -8.997745,-3.99672 -8.997745,-8.961254 0,-4.145451 2.802767,-7.6050791 6.628223,-8.6374584 0.348424,-0.094033 0.706021,-0.1669304 1.069059,-0.221698 0.05182,-0.00735 0.103154,-0.01679 0.155251,-0.023335 0.374856,-0.049911 0.755937,-0.078755 1.145212,-0.078758 z M 16.000037,10 v 5.974171 c 0.830797,0 1.5,0.698408 1.5,1.525829 h 5.998498 c 0,-4.137111 -3.34454,-7.5 -7.498498,-7.5 z M 9.813292,4.1060943 C 7.317558,5.3846772 5.283779,7.4101993 4,9.895813 v 0.183755 l 1.382302,0.457931 C 6.513805,8.3722705 8.283556,6.6096895 10.457601,5.4827923 L 9.997819,4.1060943 Z m 12.188906,0 -0.4598,1.376698 c 2.174046,1.1269085 3.94379,2.889487 5.075294,5.0547067 l 1.382312,-0.457931 V 9.895813 C 26.716223,7.4102088 24.682439,5.3846659 22.18671,4.1060943 Z M 15.99562,7.0928317 c -5.814881,0 -10.496158,4.6623013 -10.496158,10.4535823 0,5.791283 4.681277,10.453587 10.496158,10.453587 5.814847,0 10.496151,-4.662304 10.496151,-10.453587 0,-5.791281 -4.681304,-10.4535823 -10.496151,-10.4535823 z m 0,1.4933623 c 4.984152,0 8.996697,3.996263 8.996697,8.96022 0,4.963948 -4.012545,8.960207 -8.996697,8.960207 -4.984178,0 -8.996716,-3.996259 -8.996716,-8.960207 0,-4.963957 4.012538,-8.96022 8.996716,-8.96022 z"
       class="ColorScheme-Text" />
  </g>
  <g
     id="g887"
     transform="translate(32.000001,10.000001)">
    <rect
       style="opacity:0.00100002"
       width="22"
       height="22"
       x="0"
       y="0"
       id="rect2" />
    <path
       id="rect4120-4-7-3"
       style="fill:#d3dae3;fill-opacity:1;stroke:none;stroke-width:1"
       d="m 10.949736,3 c -1.107717,0 -1.99949,0.888162 -1.99949,1.991392 0,0.09685 0.01178,0.191209 0.0254,0.283926 -2.908919,0.845342 -5.024132,3.508572 -5.024132,6.685937 0,3.861306 3.121209,6.969869 6.99825,6.969869 3.877024,0 6.998244,-3.108563 6.998244,-6.969869 0,-1.579472 -0.527199,-3.028425 -1.4098,-4.194758 C 16.538859,7.765857 15.160862,6.3955 15.1616,6.395473 14.497613,5.897079 13.743748,5.513574 12.923875,5.275318 12.937535,5.182608 12.949285,5.088251 12.949285,4.991392 12.949339,3.888162 12.057552,3 10.949831,3 Z m 0,0.9957 c 0.553871,0 0.999754,0.444065 0.999754,0.995692 0,0.02692 -0.01355,0.04942 -0.01563,0.07586 -0.322449,-0.04501 -0.64883,-0.07586 -0.984126,-0.07586 -0.335289,0 -0.661665,0.0309 -0.984121,0.07586 -0.0018,-0.02637 -0.01561,-0.04891 -0.01561,-0.07586 0,-0.551627 0.44588,-0.995692 0.999749,-0.995692 z m 0,1.991388 c 0.259515,0 0.513584,0.01925 0.763484,0.0525 0.03471,0.0045 0.06892,0.01056 0.103491,0.01553 0.242034,0.03651 0.480433,0.08513 0.712709,0.147809 2.550309,0.688249 4.41882,2.99467 4.41882,5.758304 0,3.309689 -2.675323,5.974169 -5.998504,5.974169 -3.323158,0 -5.998489,-2.66448 -5.998489,-5.974169 0,-2.763634 1.868504,-5.070055 4.418808,-5.758303 0.232284,-0.0627 0.470681,-0.111292 0.712713,-0.147809 0.0345,-0.0052 0.06875,-0.01119 0.103496,-0.01554 0.249907,-0.03325 0.503957,-0.05249 0.763472,-0.0525 z M 11.000026,7 v 3.98278 c 0.553865,0 1,0.465606 1,1.017219 h 3.99899 C 15.999003,9.241927 13.769311,7 11.000008,7 Z M 6.875536,3.070734 C 5.211706,3.92312 3.855857,5.273466 3,6.93054 v 0.1225 L 3.92153,7.358327 C 4.675871,5.914844 5.855706,4.73979 7.305063,3.98853 L 6.99854,3.070734 Z m 8.125931,0 -0.306528,0.917796 c 1.449356,0.751269 2.629186,1.926323 3.383528,3.369797 L 19.000007,7.05304 V 6.93054 C 18.144146,5.273475 16.788294,3.923118 15.124473,3.070734 Z m -4.004388,1.991152 c -3.876579,0 -6.997437,3.108205 -6.997437,6.969056 C 3.999637,15.891798 7.120494,19 10.997075,19 c 3.876569,0 6.997433,-3.108202 6.997433,-6.969058 0,-3.860851 -3.120864,-6.969056 -6.997433,-6.969056 z m 0,0.99558 c 3.322776,0 5.997801,2.664174 5.997801,5.973476 0,3.309299 -2.675025,5.973471 -5.997801,5.973471 -3.322776,0 -5.9978,-2.664172 -5.9978,-5.973471 0,-3.309302 2.675024,-5.973476 5.9978,-5.973476 z"
       class="ColorScheme-Text" />
  </g>
</svg>
