<?xml version="1.0" encoding="UTF-8" standalone="no"?>
<svg
   xmlns:dc="http://purl.org/dc/elements/1.1/"
   xmlns:cc="http://creativecommons.org/ns#"
   xmlns:rdf="http://www.w3.org/1999/02/22-rdf-syntax-ns#"
   xmlns:svg="http://www.w3.org/2000/svg"
   xmlns="http://www.w3.org/2000/svg"
   xmlns:sodipodi="http://sodipodi.sourceforge.net/DTD/sodipodi-0.dtd"
   xmlns:inkscape="http://www.inkscape.org/namespaces/inkscape"
   width="32"
   height="32"
   version="1"
   id="svg12"
   sodipodi:docname="kup.svg"
   inkscape:version="1.0.2 (e86c870879, 2021-01-15)">
  <metadata
     id="metadata18">
    <rdf:RDF>
      <cc:Work
         rdf:about="">
        <dc:format>image/svg+xml</dc:format>
        <dc:type
           rdf:resource="http://purl.org/dc/dcmitype/StillImage" />
        <dc:title></dc:title>
      </cc:Work>
    </rdf:RDF>
  </metadata>
  <defs
     id="defs16" />
  <sodipodi:namedview
     pagecolor="#ffffff"
     bordercolor="#000000"
     borderopacity="1"
     objecttolerance="10"
     gridtolerance="10"
     guidetolerance="10"
     inkscape:pageopacity="0"
     inkscape:pageshadow="2"
     inkscape:window-width="1920"
     inkscape:window-height="1007"
     id="namedview14"
     showgrid="false"
     units="in"
     inkscape:zoom="6.9384853"
     inkscape:cx="25.983013"
     inkscape:cy="5.3515088"
     inkscape:window-x="0"
     inkscape:window-y="0"
     inkscape:window-maximized="1"
     inkscape:current-layer="svg12">
    <inkscape:grid
       type="xygrid"
       id="grid843" />
  </sodipodi:namedview>
  <g
     id="22-22-kup"
     transform="translate(32.000001,10.000001)">
    <rect
       style="opacity:0.00100002"
       width="22"
       height="22"
       x="0"
       y="0"
       id="rect2" />
    <path
       style="fill:#d3dae3;fill-opacity:1"
       d="M 4.002905,3.0004358 A 0.99829173,0.99855868 0 0 0 3.3069001,4.7145867 l 2.1036114,2.1041741 a 6.987343,6.9892116 0 0 0 -1.3978586,4.1790962 6.987343,6.9892116 0 0 0 1.3978586,4.179096 l -2.1036114,2.104174 a 0.99829173,0.99855868 0 1 0 1.4115056,1.411883 l 2.1036115,-2.104174 a 6.987343,6.9892116 0 0 0 4.1779788,1.398233 6.987343,6.9892116 0 0 0 4.177979,-1.398233 l 2.103612,2.104174 a 0.99829173,0.99855868 0 1 0 1.411505,-1.411883 L 16.58948,15.176953 A 6.987343,6.9892116 0 0 0 17.987339,10.997857 6.987343,6.9892116 0 0 0 16.58948,6.8187608 L 18.693092,4.7145867 A 0.99829173,0.99855868 0 0 0 17.967844,3.0004358 0.99829173,0.99855868 0 0 0 17.281587,3.3027036 l -2.103612,2.104174 A 6.987343,6.9892116 0 0 0 10.999996,4.0086452 6.987343,6.9892116 0 0 0 6.8220172,5.4068776 L 4.7184057,3.3027036 A 0.99829173,0.99855868 0 0 0 4.002905,3.0004358 Z m 6.997091,3.0051271 a 4.9909592,4.9922939 0 0 1 2.748927,0.8307489 L 10.999996,9.5859738 8.2510694,6.8363118 A 4.9909592,4.9922939 0 0 1 10.999996,6.0055629 Z m -4.1604325,2.2426322 2.748927,2.7496619 -2.748927,2.749661 A 4.9909592,4.9922939 0 0 1 6.0090367,10.997857 4.9909592,4.9922939 0 0 1 6.8395635,8.2481951 Z m 8.3208655,0 a 4.9909592,4.9922939 0 0 1 0.830527,2.7496619 4.9909592,4.9922939 0 0 1 -0.830527,2.749661 l -2.748928,-2.749661 z m -4.160433,4.1615439 2.748927,2.749663 a 4.9909592,4.9922939 0 0 1 -2.748927,0.830749 4.9909592,4.9922939 0 0 1 -2.7489266,-0.830749 z"
       id="path4" />
  </g>
  <g
     id="kup">
    <rect
       style="opacity:0.00100002"
       width="32"
       height="32"
       x="0"
       y="0"
       id="rect7" />
    <path
       style="fill:#d3dae3;fill-opacity:1;stroke-width:0.998319"
       d="M 5.5033849,4 A 1.4974388,1.4978195 0 0 0 4.4603517,6.5721697 l 2.7957192,2.7964301 a 10.980119,10.982911 0 0 0 -2.2361855,6.6283582 10.980119,10.982911 0 0 0 2.2400847,6.624459 l -2.7996184,2.80033 a 1.4974388,1.4978195 0 1 0 2.1172601,2.117798 l 2.7957193,-2.796429 a 10.980119,10.982911 0 0 0 6.6266739,2.236753 10.980119,10.982911 0 0 0 6.622774,-2.240654 l 2.799618,2.80033 a 1.4974388,1.4978195 0 1 0 2.117261,-2.117798 l -2.795719,-2.79643 A 10.980119,10.982911 0 0 0 26.980124,15.996958 10.980119,10.982911 0 0 0 24.740039,9.3725 L 27.539658,6.5721697 A 1.4974388,1.4978195 0 0 0 26.451783,4.0019501 1.4974388,1.4978195 0 0 0 25.422397,4.4543711 L 22.626678,7.2508013 A 10.980119,10.982911 0 0 0 16.000005,5.0140472 10.980119,10.982911 0 0 0 9.3772304,7.2547014 L 6.5776118,4.4543711 A 1.4974388,1.4978195 0 0 0 5.5033849,4 Z M 16.000005,8.0093866 a 7.9855413,7.9875717 0 0 1 4.487968,1.3806642 L 16.000005,13.879159 11.517886,9.3959011 a 7.9855413,7.9875717 0 0 1 4.482119,-1.3865145 z m -6.6052284,3.4984624 4.4879674,4.489109 -4.4821186,4.483258 a 7.9855413,7.9875717 0 0 1 -1.386162,-4.483258 7.9855413,7.9875717 0 0 1 1.3803132,-4.489109 z m 13.2046074,0.0059 a 7.9855413,7.9875717 0 0 1 1.386161,4.483218 7.9855413,7.9875717 0 0 1 -1.380312,4.489109 l -4.487967,-4.489109 z m -6.599379,6.601017 4.482118,4.483258 a 7.9855413,7.9875717 0 0 1 -4.482118,1.386515 7.9855413,7.9875717 0 0 1 -4.487968,-1.380664 z"
       id="path9" />
  </g>
</svg>
