<?xml version="1.0" encoding="UTF-8" standalone="no"?>
<svg
   xmlns:dc="http://purl.org/dc/elements/1.1/"
   xmlns:cc="http://creativecommons.org/ns#"
   xmlns:rdf="http://www.w3.org/1999/02/22-rdf-syntax-ns#"
   xmlns:svg="http://www.w3.org/2000/svg"
   xmlns="http://www.w3.org/2000/svg"
   xmlns:sodipodi="http://sodipodi.sourceforge.net/DTD/sodipodi-0.dtd"
   xmlns:inkscape="http://www.inkscape.org/namespaces/inkscape"
   version="1.1"
   x="0px"
   y="0px"
   viewBox="0 0 22 22"
   enable-background="new 0 0 1000 1000"
   xml:space="preserve"
   id="svg12"
   sodipodi:docname="nepomuk.svg"
   width="22"
   height="22"
   inkscape:version="1.0.2 (e86c870879, 2021-01-15)"><metadata
   id="metadata13"><rdf:RDF><cc:Work
       rdf:about=""><dc:format>image/svg+xml</dc:format><dc:type
         rdf:resource="http://purl.org/dc/dcmitype/StillImage" /></cc:Work></rdf:RDF></metadata><defs
   id="defs16" /><sodipodi:namedview
   pagecolor="#ffffff"
   bordercolor="#666666"
   borderopacity="1"
   objecttolerance="10"
   gridtolerance="10"
   guidetolerance="10"
   inkscape:pageopacity="0"
   inkscape:pageshadow="2"
   inkscape:window-width="1920"
   inkscape:window-height="1007"
   id="namedview14"
   showgrid="false"
   inkscape:zoom="21.54884"
   inkscape:cx="-6.7134687"
   inkscape:cy="6.9337557"
   inkscape:window-x="0"
   inkscape:window-y="0"
   inkscape:window-maximized="1"
   inkscape:current-layer="svg12"
   inkscape:document-rotation="0" />
<g
   id="nepomuk"
   transform="matrix(0.01836828,0,0,0.01836828,1.777858,1.818862)"><path
     d="M 543.9,101.6 C 421.8,-20.5 223.8,-20.5 101.6,101.6 -20.5,223.7 -20.5,421.7 101.6,543.9 223.7,666 421.7,666 543.9,543.9 666,421.7 666,223.7 543.9,101.6 Z M 146,499.4 C 48.4,401.8 48.4,243.6 146,146 c 97.6,-97.6 255.8,-97.6 353.4,0 97.6,97.6 97.6,255.8 0,353.4 -97.6,97.6 -255.8,97.6 -353.4,0 z"
     id="path4"
     inkscape:connector-curvature="0"
     style="fill:#d3dae3;fill-opacity:1" /><path
     d="m 632.8,562.1 -44.6,-44.6 c -9.7,13.4 -20.5,26.1 -32.5,38.2 -12,12 -24.8,22.9 -38.2,32.5 l 44.6,44.6 c 13,-10.2 25.5,-21.2 37.5,-33.2 11.9,-12 23,-24.5 33.2,-37.5 z"
     id="path6"
     inkscape:connector-curvature="0"
     style="fill:#4b8bd4;fill-opacity:1" /><path
     d="M 985.1,914.4 647,576.4 c -9.7,13.4 -20.5,26.1 -32.5,38.2 -12,12 -24.8,22.9 -38.2,32.5 l 338,338 c 6.5,6.5 17.1,6.5 23.6,0 L 985,938 c 6.6,-6.5 6.6,-17.1 0.1,-23.6 z"
     id="path8"
     inkscape:connector-curvature="0"
     style="fill:#d3dae3;fill-opacity:1" /></g>
<g
   id="g10"
   transform="matrix(-1,0,0,1,23,-1)"><g
     id="g3761"><rect
       y="1"
       x="1"
       height="22"
       width="22"
       id="rect3009"
       style="fill:#ffffff;fill-opacity:0;stroke:none" /></g></g></svg>
