<?xml version="1.0" encoding="UTF-8" standalone="no"?>
<svg
   xmlns:dc="http://purl.org/dc/elements/1.1/"
   xmlns:cc="http://creativecommons.org/ns#"
   xmlns:rdf="http://www.w3.org/1999/02/22-rdf-syntax-ns#"
   xmlns:svg="http://www.w3.org/2000/svg"
   xmlns="http://www.w3.org/2000/svg"
   xmlns:sodipodi="http://sodipodi.sourceforge.net/DTD/sodipodi-0.dtd"
   xmlns:inkscape="http://www.inkscape.org/namespaces/inkscape"
   width="32"
   height="32"
   viewBox="0 0 8.4666662 8.4666666"
   version="1.1"
   id="svg830"
   inkscape:version="1.0.2 (e86c870879, 2021-01-15)"
   sodipodi:docname="notifications.svg">
  <defs
     id="defs824" />
  <sodipodi:namedview
     id="base"
     pagecolor="#ffffff"
     bordercolor="#666666"
     borderopacity="1.0"
     inkscape:pageopacity="0.0"
     inkscape:pageshadow="2"
     inkscape:zoom="4"
     inkscape:cx="44.934631"
     inkscape:cy="30.224235"
     inkscape:document-units="px"
     inkscape:current-layer="layer1"
     showgrid="false"
     units="px"
     inkscape:snap-intersection-paths="true"
     inkscape:object-paths="true"
     inkscape:snap-smooth-nodes="true"
     inkscape:object-nodes="true"
     inkscape:window-width="1920"
     inkscape:window-height="1007"
     inkscape:window-x="0"
     inkscape:window-y="0"
     inkscape:window-maximized="1"
     inkscape:snap-global="true"
     showguides="true"
     inkscape:document-rotation="0"
     inkscape:lockguides="false">
    <inkscape:grid
       type="xygrid"
       id="grid1375"
       originx="-2.1166657"
       originy="8.4666482" />
  </sodipodi:namedview>
  <metadata
     id="metadata827">
    <rdf:RDF>
      <cc:Work
         rdf:about="">
        <dc:format>image/svg+xml</dc:format>
        <dc:type
           rdf:resource="http://purl.org/dc/dcmitype/StillImage" />
        <dc:title />
      </cc:Work>
    </rdf:RDF>
  </metadata>
  <style
     type="text/css"
     id="current-color-scheme" />
  <g
     inkscape:label="Layer 1"
     inkscape:groupmode="layer"
     id="layer1"
     transform="translate(-2.1166666,-282.71249)">
    <g
       id="notifications-disabled">
      <rect
         ry="1.2988289e-06"
         y="274.2334"
         x="2.1166668"
         height="8.4666662"
         width="8.4666662"
         id="rect891-7-2"
         style="opacity:0.003;fill:#050505;fill-opacity:1;stroke:none;stroke-width:0.10795;stroke-miterlimit:4;stroke-dasharray:none;stroke-opacity:1" />
      <path
         d="m 8.9819354,280.31684 c -0.412086,-0.30961 -0.648231,-0.78178 -0.648231,-1.2973 v -1.08006 c 0,-0.90482 -0.609843,-1.67004 -1.440634,-1.90544 v -0.2547 c 0,-0.29782 -0.242083,-0.54052 -0.540413,-0.54052 -0.297654,0 -0.540392,0.24222 -0.540392,0.54052 v 0.2547 c -0.830781,0.2354 -1.440654,1.00062 -1.440654,1.90544 v 1.08006 c 0,0.51459 -0.236129,0.987 -0.648214,1.2973 -0.06207,0.0471 -0.0874,0.12652 -0.06292,0.20103 0.02449,0.0734 0.09322,0.12304 0.17064,0.12304 h 1.638426 c -0.01065,0.0576 -0.01866,0.11947 -0.01866,0.17983 0,0.49622 0.404152,0.90037 0.90024,0.90037 0.496087,0 0.90023,-0.40415 0.90023,-0.90037 0,-0.0587 -0.0044,-0.12122 -0.01777,-0.17983 h 1.638419 c 0.07751,0 0.146177,-0.0494 0.170651,-0.12304 0.02659,-0.0734 7.4e-4,-0.15469 -0.06097,-0.20103 z m -2.808517,-4.5375 c 0,-0.0989 0.08074,-0.18012 0.179912,-0.18012 0.09924,0 0.179907,0.0802 0.179907,0.18012 v 0.18855 c -0.05942,-0.004 -0.119125,-0.006 -0.179907,-0.006 -0.06097,0 -0.120339,0.002 -0.179912,0.006 z m 0.720319,5.04075 c 0,0.29778 -0.242089,0.54047 -0.540407,0.54047 -0.297658,0 -0.540418,-0.24201 -0.540418,-0.54047 0,-0.0606 0.0092,-0.12238 0.03114,-0.17983 h 1.018649 c 0.02042,0.0567 0.03114,0.11906 0.03114,0.17983 z m -2.613396,-0.53956 c 0.09192,-0.11227 0.171977,-0.23281 0.237462,-0.36057 0.143541,-0.28063 0.215622,-0.58266 0.215622,-0.90042 v -1.08006 c 0,-0.89346 0.726933,-1.62044 1.620568,-1.62044 0.892951,0 1.620546,0.72698 1.620546,1.62044 v 1.08006 c 0,0.31708 0.0729,0.61979 0.215631,0.89965 0.06556,0.12798 0.145521,0.24932 0.236816,0.36066 h -4.146645 z"
         id="path4-3-3"
         style="fill:#ff557f;fill-opacity:1;stroke-width:0.00661461" />
    </g>
    <g
       id="22-22-notifications-disabled">
      <rect
         ry="1.2988282e-06"
         y="291.17917"
         x="2.0799481e-08"
         height="5.8208332"
         width="5.8208332"
         id="rect1383"
         style="opacity:0.003;fill:#ff1f1f;fill-opacity:1;stroke:none;stroke-width:0.10795;stroke-miterlimit:4;stroke-dasharray:none;stroke-opacity:1" />
      <path
         d="m 4.7290093,295.33757 c -0.285929,-0.21479 -0.449781,-0.54244 -0.449781,-0.90012 v -0.74939 c 0,-0.62783 -0.423147,-1.1588 -0.999598,-1.32214 v -0.17669 c 0,-0.20661 -0.167973,-0.37506 -0.374967,-0.37506 -0.206526,0 -0.374955,0.16805 -0.374955,0.37506 v 0.17669 c -0.576447,0.16334 -0.999611,0.69431 -0.999611,1.32214 v 0.74939 c 0,0.35705 -0.163842,0.68485 -0.449771,0.90012 -0.04308,0.0323 -0.06063,0.0877 -0.04366,0.13954 0.01699,0.0509 0.06472,0.0854 0.118404,0.0854 h 1.136836 c -0.0074,0.0402 -0.01296,0.083 -0.01296,0.12484 0,0.34429 0.280426,0.62474 0.62464,0.62474 0.344212,0 0.624634,-0.28045 0.624634,-0.62474 0,-0.0407 -0.0029,-0.084 -0.01234,-0.12484 h 1.13684 c 0.05377,0 0.101429,-0.0344 0.118408,-0.0854 0.01846,-0.0509 5.14e-4,-0.10738 -0.04229,-0.13954 z m -1.948714,-3.14834 c 0,-0.0689 0.05599,-0.12497 0.124832,-0.12497 0.06885,0 0.124837,0.0556 0.124837,0.12497 v 0.13079 c -0.04125,-0.004 -0.08265,-0.006 -0.124837,-0.006 -0.04229,0 -0.08348,0.002 -0.124832,0.006 z m 0.499797,3.49761 c 0,0.20657 -0.16797,0.37493 -0.374965,0.37493 -0.206531,0 -0.374974,-0.16789 -0.374974,-0.37493 0,-0.0423 0.0063,-0.0849 0.0216,-0.12485 h 0.706792 c 0.01418,0.0393 0.02161,0.0829 0.02161,0.12485 z m -1.813329,-0.37443 c 0.0638,-0.0779 0.119329,-0.16153 0.164767,-0.25021 0.0996,-0.19468 0.149608,-0.40427 0.149608,-0.62475 v -0.74939 c 0,-0.61994 0.504392,-1.1244 1.124449,-1.1244 0.619584,0 1.124432,0.50446 1.124432,1.1244 v 0.74939 c 0,0.21999 0.05057,0.43007 0.149621,0.62427 0.04549,0.0887 0.100975,0.17299 0.164313,0.25018 h -2.87719 z"
         id="path4-3-3-3"
         style="fill:#ff557f;fill-opacity:1;stroke-width:0.00458961" />
    </g>
    <g
       id="22-22-notifications">
      <rect
         ry="1.2988282e-06"
         y="297.10815"
         x="0.036665861"
         height="5.8208332"
         width="5.8208332"
         id="rect1383-2"
         style="opacity:0.003;fill:#ff1f1f;fill-opacity:1;stroke:none;stroke-width:0.10795;stroke-miterlimit:4;stroke-dasharray:none;stroke-opacity:1" />
      <path
         d="m 4.7408227,301.37238 c -0.285929,-0.21479 -0.449781,-0.54244 -0.449781,-0.90012 v -0.74939 c 0,-0.62783 -0.423147,-1.1588 -0.999598,-1.32214 v -0.17669 c 0,-0.20661 -0.167973,-0.37506 -0.374967,-0.37506 -0.206526,0 -0.374955,0.16805 -0.374955,0.37506 v 0.17669 c -0.576447,0.16334 -0.999611,0.69431 -0.999611,1.32214 v 0.74939 c 0,0.35705 -0.163842,0.68485 -0.449771,0.90012 -0.04308,0.0323 -0.06063,0.0877 -0.04366,0.13954 0.01699,0.0509 0.06472,0.0854 0.118404,0.0854 h 1.136836 c -0.0074,0.0402 -0.01296,0.083 -0.01296,0.12484 0,0.34429 0.280426,0.62474 0.62464,0.62474 0.344212,0 0.624634,-0.28045 0.624634,-0.62474 0,-0.0407 -0.0029,-0.084 -0.01234,-0.12484 h 1.13684 c 0.05377,0 0.101429,-0.0344 0.118408,-0.0854 0.01846,-0.0509 5.15e-4,-0.10738 -0.04229,-0.13954 z m -1.948714,-3.14834 c 0,-0.0689 0.05599,-0.12497 0.124833,-0.12497 0.06885,0 0.124836,0.0556 0.124836,0.12497 v 0.13079 c -0.04125,-0.004 -0.08265,-0.006 -0.124836,-0.006 -0.04229,0 -0.08348,0.002 -0.124833,0.006 z m 0.499797,3.49761 c 0,0.20657 -0.16797,0.37493 -0.374964,0.37493 -0.206532,0 -0.374975,-0.16789 -0.374975,-0.37493 0,-0.0423 0.0063,-0.0849 0.0216,-0.12485 h 0.706792 c 0.01418,0.0393 0.02161,0.0829 0.02161,0.12485 z m -1.813328,-0.37443 c 0.0638,-0.0779 0.119328,-0.16153 0.164766,-0.25021 0.0996,-0.19468 0.149608,-0.40427 0.149608,-0.62475 v -0.74939 c 0,-0.61994 0.504392,-1.1244 1.124449,-1.1244 0.619585,0 1.124432,0.50446 1.124432,1.1244 v 0.74939 c 0,0.21999 0.05057,0.43007 0.149621,0.62427 0.04549,0.0887 0.100975,0.17299 0.164313,0.25018 h -2.877189 z"
         id="path4-3-3-3-7-3"
         style="fill:#d3dae3;fill-opacity:1;stroke-width:0.00458961" />
    </g>
    <g
       id="notifications">
      <rect
         ry="1.2988289e-06"
         y="282.71249"
         x="2.1166666"
         height="8.4666662"
         width="8.4666662"
         id="rect891-7"
         style="opacity:0.003;fill:#050505;fill-opacity:1;stroke:none;stroke-width:0.10795;stroke-miterlimit:4;stroke-dasharray:none;stroke-opacity:1" />
      <path
         d="m 8.9819352,288.90176 c -0.412086,-0.30961 -0.648231,-0.78178 -0.648231,-1.2973 v -1.08006 c 0,-0.90482 -0.609843,-1.67004 -1.440634,-1.90544 v -0.2547 c 0,-0.29782 -0.242083,-0.54052 -0.540413,-0.54052 -0.297654,0 -0.540392,0.24222 -0.540392,0.54052 v 0.2547 c -0.830781,0.2354 -1.440654,1.00062 -1.440654,1.90544 v 1.08006 c 0,0.51459 -0.236129,0.987 -0.648214,1.2973 -0.06207,0.0471 -0.0874,0.12652 -0.06292,0.20103 0.02449,0.0734 0.09322,0.12304 0.17064,0.12304 h 1.638426 c -0.01065,0.0576 -0.01866,0.11947 -0.01866,0.17983 0,0.49622 0.404152,0.90037 0.90024,0.90037 0.496087,0 0.90023,-0.40415 0.90023,-0.90037 0,-0.0587 -0.0044,-0.12122 -0.01777,-0.17983 h 1.638419 c 0.07751,0 0.146177,-0.0494 0.170651,-0.12304 0.02659,-0.0734 7.4e-4,-0.15469 -0.06097,-0.20103 z m -2.808517,-4.5375 c 0,-0.0989 0.08074,-0.18012 0.179912,-0.18012 0.09924,0 0.179907,0.0802 0.179907,0.18012 v 0.18855 c -0.05942,-0.004 -0.119125,-0.006 -0.179907,-0.006 -0.06097,0 -0.120339,0.002 -0.179912,0.006 z m 0.720319,5.04075 c 0,0.29778 -0.242089,0.54047 -0.540407,0.54047 -0.297658,0 -0.540418,-0.24201 -0.540418,-0.54047 0,-0.0606 0.0092,-0.12238 0.03114,-0.17983 h 1.018649 c 0.02042,0.0567 0.03114,0.11906 0.03114,0.17983 z m -2.613396,-0.53956 c 0.09192,-0.11227 0.171977,-0.23281 0.237462,-0.36057 0.143541,-0.28063 0.215622,-0.58266 0.215622,-0.90042 v -1.08006 c 0,-0.89346 0.726933,-1.62044 1.620568,-1.62044 0.892951,0 1.620546,0.72698 1.620546,1.62044 v 1.08006 c 0,0.31708 0.0729,0.61979 0.215631,0.89965 0.06556,0.12798 0.145521,0.24932 0.236816,0.36066 h -4.146645 z"
         id="path4-3-3-5"
         style="fill:#d3dae3;fill-opacity:1;stroke-width:0.00661461" />
    </g>
  </g>
</svg>
