<?xml version="1.0" encoding="UTF-8" standalone="no"?>
<svg
   xmlns:dc="http://purl.org/dc/elements/1.1/"
   xmlns:cc="http://creativecommons.org/ns#"
   xmlns:rdf="http://www.w3.org/1999/02/22-rdf-syntax-ns#"
   xmlns:svg="http://www.w3.org/2000/svg"
   xmlns="http://www.w3.org/2000/svg"
   xmlns:sodipodi="http://sodipodi.sourceforge.net/DTD/sodipodi-0.dtd"
   xmlns:inkscape="http://www.inkscape.org/namespaces/inkscape"
   id="svg4153"
   version="1.1"
   width="22"
   height="22"
   viewBox="0 0 22 22"
   sodipodi:docname="pamac.svg"
   inkscape:version="1.0.2 (e86c870879, 2021-01-15)">
  <sodipodi:namedview
     pagecolor="#ffffff"
     bordercolor="#666666"
     borderopacity="1"
     objecttolerance="10"
     gridtolerance="10"
     guidetolerance="10"
     inkscape:pageopacity="0"
     inkscape:pageshadow="2"
     inkscape:window-width="1920"
     inkscape:window-height="1007"
     id="namedview9"
     showgrid="false"
     inkscape:zoom="10.727273"
     inkscape:cx="22.318268"
     inkscape:cy="14.773911"
     inkscape:window-x="0"
     inkscape:window-y="0"
     inkscape:window-maximized="1"
     inkscape:current-layer="svg4153"
     inkscape:document-rotation="0">
    <inkscape:grid
       type="xygrid"
       id="grid887"
       originx="0"
       originy="0" />
  </sodipodi:namedview>
  <metadata
     id="metadata4159">
    <rdf:RDF>
      <cc:Work
         rdf:about="">
        <dc:format>image/svg+xml</dc:format>
        <dc:type
           rdf:resource="http://purl.org/dc/dcmitype/StillImage" />
        <dc:title />
      </cc:Work>
    </rdf:RDF>
  </metadata>
  <defs
     id="defs4157">
    <style
       type="text/css"
       id="current-color-scheme" />
  </defs>
  <g
     id="pamac-tray-update"
     transform="translate(22)">
    <rect
       y="0"
       x="-22"
       height="22"
       width="22"
       id="rect4183"
       style="fill:none;fill-opacity:1;stroke:none;stroke-width:0.1;stroke-linecap:square;stroke-linejoin:miter;stroke-miterlimit:4;stroke-dasharray:none;stroke-dashoffset:0;stroke-opacity:1" />
    <path
       d="m -7.730327,10.33384 -3.333543,-3.3352 c -0.03128,-0.0312 -0.07367,-0.04866 -0.117968,-0.04866 -0.04429,0 -0.08664,0.01766 -0.117952,0.04882 l -3.323553,3.334879 c -0.04765,0.04759 -0.06169,0.119184 -0.03601,0.181674 0.02602,0.06222 0.08664,0.102553 0.153941,0.102553 h 1.832711 v 4.165263 c 0,0.09197 0.07461,0.166551 0.166624,0.166551 h 2.665776 c 0.09197,0 0.166614,-0.07458 0.166614,-0.166551 v -4.16527 h 1.825712 c 0.06735,0 0.127957,-0.04062 0.153957,-0.103053 0.02602,-0.06221 0.01136,-0.133545 -0.03631,-0.181173 z"
       id="path2-3"
       style="fill:#ff557f;fill-opacity:1;stroke-width:0.01562" />
    <path
       d="M -6.046977,5.766812 -2.805103,7.4156 -3.784658,7.8962022 c 0.403748,0.95363 0.630325,2.001657 0.630325,3.1038778 0,4.417029 -3.580893,7.99992 -7.999931,7.99992 -1.415654,0 -2.74443,-0.371679 -3.897744,-1.017247 l 0.809196,-0.808996 c 0.930143,0.466646 1.976131,0.73595 3.088548,0.73595 3.815982,0 6.907944,-3.093695 6.907944,-6.90809 0,-1.0236188 -0.2368,-1.9881358 -0.637124,-2.8618398 z m -5.216837,1.697311 z m 0,0 z m 0.111264,-3.373909 c -3.815974,0 -6.907939,3.093952 -6.907939,6.909866 0,1.023646 0.2368,1.987979 0.637138,2.861677 l 1.16523,2.371428 L -19.5,14.584177 -18.520452,14.103672 C -18.924201,13.149771 -19.150776,12.101986 -19.150776,11.00008 -19.152776,6.582441 -15.569879,3 -11.15255,3 c 1.41567,0 2.744448,0.371254 3.89775,1.016876 l -0.809183,0.809338 c -0.930154,-0.466746 -1.977843,-0.736 -3.088567,-0.736 z"
       id="path4-9-3-36"
       sodipodi:nodetypes="cccssccsscccccccccccccccccccccccccccsscccccscc"
       style="fill:#d3dae3;fill-opacity:1;stroke-width:0.0170352" />
  </g>
  <g
     id="pamac-tray-no-update"
     transform="translate(22)">
    <rect
       style="fill:none;fill-opacity:1;stroke:none;stroke-width:0.1;stroke-linecap:square;stroke-linejoin:miter;stroke-miterlimit:4;stroke-dasharray:none;stroke-dashoffset:0;stroke-opacity:1"
       id="rect855"
       width="22"
       height="22"
       x="0"
       y="0" />
    <path
       d="M 14.269673,10.33384 10.93613,6.99864 c -0.03128,-0.0312 -0.07367,-0.04866 -0.117968,-0.04866 -0.04429,0 -0.08664,0.01766 -0.117952,0.04882 l -3.323553,3.334879 c -0.04765,0.04759 -0.06169,0.119184 -0.03601,0.181674 0.02602,0.06222 0.08664,0.102553 0.153941,0.102553 h 1.832711 v 4.165263 c 0,0.09197 0.07461,0.166551 0.166624,0.166551 h 2.665776 c 0.09197,0 0.166614,-0.07458 0.166614,-0.166551 v -4.16527 h 1.825712 c 0.06735,0 0.127957,-0.04062 0.153957,-0.103053 0.02602,-0.06221 0.01136,-0.133545 -0.03631,-0.181173 z"
       id="path2-3-3"
       style="fill:#d3dae3;fill-opacity:1;stroke-width:0.01562" />
    <path
       d="M 15.953023,5.766812 19.194897,7.4156 18.215342,7.8962022 C 18.61909,8.849832 18.845667,9.897859 18.845667,11.00008 18.845667,15.417109 15.264774,19 10.845736,19 9.430082,19 8.101306,18.628321 6.947992,17.982753 l 0.809196,-0.808996 c 0.930143,0.466646 1.976131,0.73595 3.088548,0.73595 3.815982,0 6.907944,-3.093695 6.907944,-6.90809 0,-1.023619 -0.2368,-1.988136 -0.637124,-2.86184 z m -5.216837,1.697311 z m 0,0 z M 10.84745,4.090214 c -3.815974,0 -6.907939,3.093952 -6.907939,6.909866 0,1.023646 0.2368,1.987979 0.637138,2.861677 L 5.741879,16.233185 2.5,14.584177 3.479548,14.103672 C 3.075799,13.149771 2.849224,12.101986 2.849224,11.00008 2.847224,6.582441 6.430121,3 10.84745,3 c 1.41567,0 2.744448,0.371254 3.89775,1.016876 l -0.809183,0.809338 c -0.930154,-0.466746 -1.977843,-0.736 -3.088567,-0.736 z"
       id="path4-9-3-36-6"
       sodipodi:nodetypes="cccssccsscccccccccccccccccccccccccccsscccccscc"
       style="fill:#d3dae3;fill-opacity:1;stroke-width:0.0170352" />
  </g>
</svg>
