<?xml version="1.0" encoding="UTF-8" standalone="no"?>
<svg
   sodipodi:docname="phone.svg"
   inkscape:version="1.1 (c68e22c387, 2021-05-23)"
   id="svg"
   viewBox="0 0 32.000015 31.999973"
   height="31.999973"
   width="32.000015"
   version="1.1"
   xmlns:inkscape="http://www.inkscape.org/namespaces/inkscape"
   xmlns:sodipodi="http://sodipodi.sourceforge.net/DTD/sodipodi-0.dtd"
   xmlns="http://www.w3.org/2000/svg"
   xmlns:svg="http://www.w3.org/2000/svg"
   xmlns:rdf="http://www.w3.org/1999/02/22-rdf-syntax-ns#"
   xmlns:cc="http://creativecommons.org/ns#"
   xmlns:dc="http://purl.org/dc/elements/1.1/">
  <sodipodi:namedview
     inkscape:document-rotation="0"
     fit-margin-bottom="0"
     fit-margin-right="0"
     fit-margin-left="0"
     fit-margin-top="0"
     inkscape:snap-bbox-midpoints="true"
     inkscape:snap-bbox="true"
     inkscape:current-layer="svg"
     inkscape:window-maximized="1"
     inkscape:window-y="0"
     inkscape:window-x="0"
     inkscape:cy="45.5"
     inkscape:cx="71.875"
     inkscape:zoom="4"
     showgrid="false"
     id="namedview10"
     inkscape:window-height="1015"
     inkscape:window-width="1920"
     inkscape:pageshadow="2"
     inkscape:pageopacity="0"
     guidetolerance="10"
     gridtolerance="10"
     objecttolerance="10"
     borderopacity="1"
     bordercolor="#030303"
     pagecolor="#ffffff"
     showguides="true"
     inkscape:lockguides="true"
     inkscape:pagecheckerboard="0"
     inkscape:showpageshadow="false">
    <inkscape:grid
       spacingy="1.0666667"
       spacingx="1.0666667"
       originy="-27.733351"
       originx="-52.266646"
       empopacity="0.07843137"
       empcolor="#0000ff"
       opacity="0.03921569"
       color="#0000ff"
       snapvisiblegridlinesonly="true"
       enabled="true"
       visible="true"
       empspacing="4"
       id="grid2987"
       type="xygrid" />
  </sodipodi:namedview>
  <defs
     id="defs81">
    <style
       id="current-color-scheme"
       type="text/css" />
  </defs>
  <metadata
     id="metadata34">
    <rdf:RDF>
      <cc:Work
         rdf:about="">
        <dc:format>image/svg+xml</dc:format>
        <dc:type
           rdf:resource="http://purl.org/dc/dcmitype/StillImage" />
      </cc:Work>
    </rdf:RDF>
  </metadata>
  <g
     id="phone">
    <rect
       width="32.000015"
       height="31.999973"
       rx="0"
       ry="0"
       x="-2.9711913e-07"
       y="-3.8330079e-08"
       id="rect3860"
       style="opacity:0.01;fill:#eff0f1;fill-opacity:0;stroke:none" />
    <path
       d="m 8.5231726,10.676504 c -0.227608,0 -0.4046364,0.177029 -0.4046364,0.404637 v 8.396207 c 0,0.202318 0.1517387,0.354056 0.3287671,0.404636 0.02529,0 0.05058,0 0.075869,0 0.2276081,0 0.4046365,-0.177028 0.4046365,-0.404636 v -8.396207 c 0,-0.227608 -0.2023182,-0.404637 -0.4046362,-0.404637 z"
       id="path2"
       style="fill:#d3dae3;fill-opacity:1;stroke-width:0.252898" />
    <path
       d="m 6.9046268,12.118022 c -0.227608,0 -0.4046365,0.177028 -0.4046365,0.404636 v 5.538462 c 0,0.202318 0.1517387,0.354057 0.3287672,0.404636 0.02529,0 0.050579,0 0.075869,0 0.227608,0 0.4046365,-0.177028 0.4046365,-0.404636 v -5.538462 c 0,-0.227608 -0.2023183,-0.429926 -0.4046362,-0.404636 z"
       id="path4"
       style="fill:#d3dae3;fill-opacity:1;stroke-width:0.252898" />
    <path
       d="m 23.595881,10.676504 c -0.227608,0 -0.404637,0.177029 -0.404637,0.404637 v 8.396207 c 0,0.202318 0.151739,0.354056 0.328768,0.404636 0.02529,0 0.05058,0 0.07587,0 0.227608,0 0.404636,-0.177028 0.404636,-0.404636 v -8.396207 c 0,-0.227608 -0.177028,-0.404637 -0.404637,-0.404637 z"
       id="path6"
       style="fill:#d3dae3;fill-opacity:1;stroke-width:0.252898" />
    <path
       d="m 25.619063,12.497369 c 0,-0.227609 -0.177028,-0.404637 -0.404636,-0.404637 -0.227608,0 -0.404637,0.177028 -0.404637,0.404637 v 5.538461 c 0,0.202318 0.151739,0.354057 0.328767,0.404637 0.02529,0 0.05058,0 0.07587,0 0.227608,0 0.404636,-0.177029 0.404636,-0.404637 z"
       id="path8"
       style="fill:#d3dae3;fill-opacity:1;stroke-width:0.252898" />
    <path
       d="m 20.633884,4.0000028 h -9.1549 c -0.961012,0 -1.7449949,0.7839831 -1.7449949,1.7449947 V 26.255008 c 0,0.961012 0.7839829,1.744995 1.7449949,1.744995 h 9.1549 c 0.961011,0 1.744995,-0.783983 1.744995,-1.744995 V 5.7449975 c 0,-0.9610116 -0.783984,-1.7449947 -1.744995,-1.7449947 z m -6.90411,1.3909378 h 4.60274 c 0.177028,0 0.303477,0.1264489 0.303477,0.3034774 0,0.1770284 -0.126449,0.3034773 -0.303477,0.3034773 h -4.60274 c -0.177028,0 -0.303477,-0.1264489 -0.303477,-0.3034773 0,-0.1517387 0.126449,-0.3034774 0.303477,-0.3034774 z m 2.30137,21.0916754 c -0.505796,0 -0.910432,-0.404636 -0.910432,-0.910432 0,-0.505795 0.404636,-0.910432 0.910432,-0.910432 0.505796,0 0.910432,0.404637 0.910432,0.910432 -0.02529,0.505796 -0.429926,0.910432 -0.910432,0.910432 z m 5.513172,-3.338251 H 10.568552 V 7.3888332 h 10.975764 z"
       id="path10"
       style="fill:#d3dae3;fill-opacity:1;stroke-width:0.252898" />
  </g>
  <g
     id="phone-battery"
     transform="translate(59.562473,73.281209)">
    <rect
       style="opacity:0.01;fill:#eff0f1;fill-opacity:0;stroke:none"
       id="rect3038"
       y="-73.281212"
       x="-7.5624723"
       ry="0"
       rx="0"
       height="31.999973"
       width="32.000015" />
    <path
       sodipodi:nodetypes="ccccccc"
       inkscape:connector-curvature="0"
       id="path4444"
       d="m 9.651087,-63.931209 -4.363559,6.5454 h 2.181719 v 5.4546 l 4.36356,-6.54552 h -2.18172 z"
       style="color:#7b7c7e;fill:#ff557f;fill-opacity:1;fill-rule:evenodd;stroke:none"
       class="ColorScheme-Text" />
    <path
       d="m 0.96070265,-62.604706 c -0.22760801,0 -0.40463647,0.177029 -0.40463647,0.404637 v 8.396207 c 0,0.202318 0.15173868,0.354056 0.32876713,0.404636 0.0252898,0 0.0505796,0 0.0758693,0 0.22760809,0 0.40463649,-0.177028 0.40463649,-0.404636 v -8.396207 c 0,-0.227608 -0.2023182,-0.404637 -0.40463645,-0.404637 z"
       id="path2-5"
       style="fill:#d3dae3;fill-opacity:1;stroke-width:0.252898" />
    <path
       d="m -0.65784321,-61.163188 c -0.22760801,0 -0.40463649,0.177028 -0.40463649,0.404636 v 5.538462 c 0,0.202318 0.1517387,0.354057 0.32876715,0.404636 0.0252898,0 0.0505796,0 0.0758693,0 0.22760801,0 0.40463647,-0.177028 0.40463647,-0.404636 v -5.538462 c 0,-0.227608 -0.20231824,-0.429926 -0.40463643,-0.404636 z"
       id="path4-3"
       style="fill:#d3dae3;fill-opacity:1;stroke-width:0.252898" />
    <path
       d="m 16.033411,-62.604706 c -0.227608,0 -0.404637,0.177029 -0.404637,0.404637 v 8.396207 c 0,0.202318 0.151739,0.354056 0.328768,0.404636 0.02529,0 0.05058,0 0.07587,0 0.227608,0 0.404636,-0.177028 0.404636,-0.404636 v -8.396207 c 0,-0.227608 -0.177028,-0.404637 -0.404636,-0.404637 z"
       id="path6-5"
       style="fill:#d3dae3;fill-opacity:1;stroke-width:0.252898" />
    <path
       d="m 18.056593,-60.783841 c 0,-0.227609 -0.177028,-0.404637 -0.404636,-0.404637 -0.227608,0 -0.404637,0.177028 -0.404637,0.404637 v 5.538461 c 0,0.202318 0.151739,0.354057 0.328767,0.404637 0.02529,0 0.05058,0 0.07587,0 0.227608,0 0.404636,-0.177029 0.404636,-0.404637 z"
       id="path8-6"
       style="fill:#d3dae3;fill-opacity:1;stroke-width:0.252898" />
    <path
       d="M 13.071414,-69.281207 H 3.9165139 c -0.9610117,0 -1.7449948,0.783983 -1.7449948,1.744995 v 20.51001 c 0,0.961012 0.7839831,1.744995 1.7449948,1.744995 h 9.1549001 c 0.961011,0 1.744995,-0.783983 1.744995,-1.744995 v -20.51001 c 0,-0.961012 -0.783984,-1.744995 -1.744995,-1.744995 z m -6.9041098,1.390938 h 4.6027398 c 0.177028,0 0.303477,0.126449 0.303477,0.303477 0,0.177028 -0.126449,0.303477 -0.303477,0.303477 H 6.1673042 c -0.1770285,0 -0.3034774,-0.126449 -0.3034774,-0.303477 0,-0.151739 0.1264489,-0.303477 0.3034774,-0.303477 z m 2.3013699,21.091675 c -0.5057956,0 -0.9104321,-0.404636 -0.9104321,-0.910432 0,-0.505795 0.4046365,-0.910432 0.9104321,-0.910432 0.5057956,0 0.910432,0.404637 0.910432,0.910432 -0.02529,0.505796 -0.4299262,0.910432 -0.910432,0.910432 z m 5.5131719,-3.338251 H 3.0060818 V -65.892377 H 13.981846 Z"
       id="path10-2"
       style="fill:#d3dae3;fill-opacity:1;stroke-width:0.252898" />
  </g>
  <g
     id="22-22-phone-battery"
     transform="translate(59.562473,73.281209)">
    <rect
       y="-34.5"
       x="-2.999994"
       height="22"
       width="22"
       id="rect3054"
       style="fill:#000000;fill-opacity:0;stroke:none" />
    <path
       class="ColorScheme-Text"
       style="color:#7b7c7e;fill:#ff557f;fill-opacity:1;fill-rule:evenodd;stroke:none;stroke-width:0.71"
       d="m 8.654779,-27.200001 -2.581773,3.872694 h 1.29085 v 3.227306 L 9.94563,-23.972767 H 8.654779 Z"
       id="path3072"
       inkscape:connector-curvature="0"
       sodipodi:nodetypes="ccccccc" />
    <path
       d="m 2.9487846,-26.649 c -0.1517386,0 -0.2697576,0.118019 -0.2697576,0.269757 v 5.597471 c 0,0.134879 0.1011591,0.236038 0.2191781,0.269758 0.01686,0 0.03372,0 0.050579,0 0.1517387,0 0.2697577,-0.118019 0.2697577,-0.269758 v -5.597471 c 0,-0.151738 -0.1348789,-0.269757 -0.2697572,-0.269757 z"
       id="path2-5-7"
       style="fill:#d3dae3;fill-opacity:1;stroke-width:0.168599" />
    <path
       d="m 1.8697541,-25.687989 c -0.1517387,0 -0.2697576,0.118019 -0.2697576,0.269758 v 3.692308 c 0,0.134878 0.1011591,0.236037 0.219178,0.269757 0.01686,0 0.03372,0 0.05058,0 0.1517387,0 0.2697576,-0.118019 0.2697576,-0.269757 v -3.692308 c 0,-0.151739 -0.1348788,-0.286618 -0.269758,-0.269758 z"
       id="path4-3-0"
       style="fill:#d3dae3;fill-opacity:1;stroke-width:0.168599" />
    <path
       d="m 12.997256,-26.649 c -0.151738,0 -0.269757,0.118019 -0.269757,0.269757 v 5.597471 c 0,0.134879 0.101159,0.236038 0.219178,0.269758 0.01686,0 0.03372,0 0.05058,0 0.151739,0 0.269758,-0.118019 0.269758,-0.269758 v -5.597471 c 0,-0.151738 -0.118019,-0.269757 -0.269759,-0.269757 z"
       id="path6-5-9"
       style="fill:#d3dae3;fill-opacity:1;stroke-width:0.168599" />
    <path
       d="m 14.346045,-25.435091 c 0,-0.151739 -0.118019,-0.269758 -0.269758,-0.269758 -0.151739,0 -0.269758,0.118019 -0.269758,0.269758 v 3.692308 c 0,0.134878 0.101159,0.236038 0.219178,0.269757 0.01686,0 0.03372,0 0.05058,0 0.151739,0 0.269758,-0.118019 0.269758,-0.269757 z"
       id="path8-6-3"
       style="fill:#d3dae3;fill-opacity:1;stroke-width:0.168599" />
    <path
       d="M 11.022592,-31.100001 H 4.9193253 c -0.6406743,0 -1.1633297,0.522655 -1.1633297,1.16333 v 13.67334 c 0,0.640674 0.5226554,1.163329 1.1633297,1.163329 h 6.1032667 c 0.640674,0 1.16333,-0.522655 1.16333,-1.163329 v -13.67334 c 0,-0.640675 -0.522656,-1.16333 -1.16333,-1.16333 z m -4.6027398,0.927292 h 3.068493 c 0.118019,0 0.2023183,0.0843 0.2023183,0.202318 0,0.118019 -0.084299,0.202318 -0.2023183,0.202318 h -3.068493 c -0.118019,0 -0.2023182,-0.0843 -0.2023182,-0.202318 0,-0.101159 0.084299,-0.202318 0.2023182,-0.202318 z m 1.5342465,14.061116 c -0.337197,0 -0.6069547,-0.269757 -0.6069547,-0.606954 0,-0.337197 0.2697577,-0.606955 0.6069547,-0.606955 0.337197,0 0.6069547,0.269758 0.6069547,0.606955 -0.01686,0.337197 -0.2866175,0.606954 -0.6069547,0.606954 z m 3.6754473,-2.2255 H 4.3123707 v -10.503688 h 7.3171753 z"
       id="path10-2-6"
       style="fill:#d3dae3;fill-opacity:1;stroke-width:0.168599" />
  </g>
  <g
     id="22-22-phone"
     transform="translate(59.562473,73.281209)">
    <rect
       style="fill:#000000;fill-opacity:0;stroke:none"
       id="rect3841"
       width="22"
       height="22"
       x="-54.999996"
       y="-34.5" />
    <path
       d="m -49.051215,-26.649 c -0.151739,0 -0.269758,0.118019 -0.269758,0.269757 v 5.597471 c 0,0.134879 0.101159,0.236038 0.219178,0.269758 0.01686,0 0.03372,0 0.05058,0 0.151738,0 0.269757,-0.118019 0.269757,-0.269758 v -5.597471 c 0,-0.151738 -0.134879,-0.269757 -0.269757,-0.269757 z"
       id="path2-5-7-6"
       style="fill:#d3dae3;fill-opacity:1;stroke-width:0.168599" />
    <path
       d="m -50.130246,-25.687989 c -0.151739,0 -0.269758,0.118019 -0.269758,0.269758 v 3.692308 c 0,0.134878 0.10116,0.236037 0.219179,0.269757 0.01686,0 0.03372,0 0.05058,0 0.151739,0 0.269758,-0.118019 0.269758,-0.269757 v -3.692308 c 0,-0.151739 -0.134879,-0.286618 -0.269759,-0.269758 z"
       id="path4-3-0-1"
       style="fill:#d3dae3;fill-opacity:1;stroke-width:0.168599" />
    <path
       d="m -39.002744,-26.649 c -0.151738,0 -0.269757,0.118019 -0.269757,0.269757 v 5.597471 c 0,0.134879 0.101159,0.236038 0.219178,0.269758 0.01686,0 0.03372,0 0.05058,0 0.151739,0 0.269758,-0.118019 0.269758,-0.269758 v -5.597471 c 0,-0.151738 -0.118019,-0.269757 -0.269759,-0.269757 z"
       id="path6-5-9-8"
       style="fill:#d3dae3;fill-opacity:1;stroke-width:0.168599" />
    <path
       d="m -37.653955,-25.435091 c 0,-0.151739 -0.118019,-0.269758 -0.269758,-0.269758 -0.151739,0 -0.269758,0.118019 -0.269758,0.269758 v 3.692308 c 0,0.134878 0.101159,0.236038 0.219178,0.269757 0.01686,0 0.03372,0 0.05058,0 0.151739,0 0.269758,-0.118019 0.269758,-0.269757 z"
       id="path8-6-3-7"
       style="fill:#d3dae3;fill-opacity:1;stroke-width:0.168599" />
    <path
       d="m -40.977408,-31.100001 h -6.103267 c -0.640674,0 -1.163329,0.522655 -1.163329,1.16333 v 13.67334 c 0,0.640674 0.522655,1.163329 1.163329,1.163329 h 6.103267 c 0.640674,0 1.16333,-0.522655 1.16333,-1.163329 v -13.67334 c 0,-0.640675 -0.522656,-1.16333 -1.16333,-1.16333 z m -4.60274,0.927292 h 3.068493 c 0.118019,0 0.202318,0.0843 0.202318,0.202318 0,0.118019 -0.0843,0.202318 -0.202318,0.202318 h -3.068493 c -0.118019,0 -0.202318,-0.0843 -0.202318,-0.202318 0,-0.101159 0.0843,-0.202318 0.202318,-0.202318 z m 1.534247,14.061116 c -0.337197,0 -0.606955,-0.269757 -0.606955,-0.606954 0,-0.337197 0.269758,-0.606955 0.606955,-0.606955 0.337197,0 0.606954,0.269758 0.606954,0.606955 -0.01686,0.337197 -0.286617,0.606954 -0.606954,0.606954 z m 3.675447,-2.2255 h -7.317175 v -10.503688 h 7.317175 z"
       id="path10-2-6-9"
       style="fill:#d3dae3;fill-opacity:1;stroke-width:0.168599" />
  </g>
  <g
     id="16-16-phone"
     transform="translate(59.562473,73.281209)">
    <rect
       style="fill:#566060;fill-opacity:0;stroke:none"
       id="rect3889"
       width="16"
       height="16"
       x="-51.999996"
       y="-4.2628317e-13"
       ry="2.9278411e-07" />
    <g
       id="g16-7-2-2-2"
       transform="matrix(0.12644889,0,0,0.12644889,69.557324,-118.26902)">
      <path
         d="m -928.8,979.9 c -0.9,0 -1.6,0.7 -1.6,1.6 v 33.2 c 0,0.8 0.6,1.4 1.3,1.6 0.1,0 0.2,0 0.3,0 0.9,0 1.6,-0.7 1.6,-1.6 v -33.2 c 0,-0.9 -0.8,-1.6 -1.6,-1.6 z"
         id="path2-5-7-6-3"
         style="fill:#d3dae3;fill-opacity:1" />
      <path
         d="m -935.2,985.6 c -0.9,0 -1.6,0.7 -1.6,1.6 v 21.9 c 0,0.8 0.6,1.4 1.3,1.6 0.1,0 0.2,0 0.3,0 0.9,0 1.6,-0.7 1.6,-1.6 v -21.9 c 0,-0.9 -0.8,-1.7 -1.6,-1.6 z"
         id="path4-3-0-1-7"
         style="fill:#d3dae3;fill-opacity:1" />
      <path
         d="m -869.2,979.9 c -0.9,0 -1.6,0.7 -1.6,1.6 v 33.2 c 0,0.8 0.6,1.4 1.3,1.6 0.1,0 0.2,0 0.3,0 0.9,0 1.6,-0.7 1.6,-1.6 v -33.2 c 0,-0.9 -0.7,-1.6 -1.6,-1.6 z"
         id="path6-5-9-8-5"
         style="fill:#d3dae3;fill-opacity:1" />
      <path
         d="m -861.2,987.1 c 0,-0.9 -0.7,-1.6 -1.6,-1.6 -0.9,0 -1.6,0.7 -1.6,1.6 v 21.9 c 0,0.8 0.6,1.4 1.3,1.6 0.1,0 0.2,0 0.3,0 0.9,0 1.6,-0.7 1.6,-1.6 z"
         id="path8-6-3-7-9"
         style="fill:#d3dae3;fill-opacity:1" />
      <path
         d="m -880.91223,953.5 h -36.2 c -3.8,0 -6.9,3.1 -6.9,6.9 v 81.1 c 0,3.8 3.1,6.9 6.9,6.9 h 36.2 c 3.8,0 6.9,-3.1 6.9,-6.9 v -81.1 c 0,-3.8 -3.1,-6.9 -6.9,-6.9 z m -27.3,5.5 h 18.2 c 0.7,0 1.2,0.5 1.2,1.2 0,0.7 -0.5,1.2 -1.2,1.2 h -18.2 c -0.7,0 -1.2,-0.5 -1.2,-1.2 0,-0.6 0.5,-1.2 1.2,-1.2 z m 9.1,83.4 c -2,0 -3.6,-1.6 -3.6,-3.6 0,-2 1.6,-3.6 3.6,-3.6 2,0 3.6,1.6 3.6,3.6 -0.1,2 -1.7,3.6 -3.6,3.6 z m 21.8,-13.2 h -43.4 v -62.3 h 43.4 z"
         id="path10-2-6-9-2"
         style="fill:#d3dae3;fill-opacity:1" />
    </g>
  </g>
  <g
     id="16-16-phone-battery"
     transform="translate(59.562473,73.281209)">
    <rect
       ry="2.9278411e-07"
       y="-4.2628317e-13"
       x="4.7402793e-13"
       height="16"
       width="16"
       id="rect3060"
       style="fill:#566060;fill-opacity:0;stroke:none" />
    <path
       sodipodi:nodetypes="ccccccc"
       inkscape:connector-curvature="0"
       id="path3863"
       d="M 8.4181432,4.9 6.2,8.227244 H 7.3090402 V 11 l 2.218144,-3.3273057 h -1.109041 z"
       style="color:#7b7c7e;fill:#ff557f;fill-opacity:1;fill-rule:evenodd;stroke:none;stroke-width:0.7625"
       class="ColorScheme-Text" />
    <g
       id="g16-7-2-2-2-9"
       transform="matrix(0.12644889,0,0,0.12644889,121.55732,-118.26902)">
      <path
         d="m -928.8,979.9 c -0.9,0 -1.6,0.7 -1.6,1.6 v 33.2 c 0,0.8 0.6,1.4 1.3,1.6 0.1,0 0.2,0 0.3,0 0.9,0 1.6,-0.7 1.6,-1.6 v -33.2 c 0,-0.9 -0.8,-1.6 -1.6,-1.6 z"
         id="path2-5-7-6-3-7"
         style="fill:#d3dae3;fill-opacity:1" />
      <path
         d="m -935.2,985.6 c -0.9,0 -1.6,0.7 -1.6,1.6 v 21.9 c 0,0.8 0.6,1.4 1.3,1.6 0.1,0 0.2,0 0.3,0 0.9,0 1.6,-0.7 1.6,-1.6 v -21.9 c 0,-0.9 -0.8,-1.7 -1.6,-1.6 z"
         id="path4-3-0-1-7-3"
         style="fill:#d3dae3;fill-opacity:1" />
      <path
         d="m -869.2,979.9 c -0.9,0 -1.6,0.7 -1.6,1.6 v 33.2 c 0,0.8 0.6,1.4 1.3,1.6 0.1,0 0.2,0 0.3,0 0.9,0 1.6,-0.7 1.6,-1.6 v -33.2 c 0,-0.9 -0.7,-1.6 -1.6,-1.6 z"
         id="path6-5-9-8-5-6"
         style="fill:#d3dae3;fill-opacity:1" />
      <path
         d="m -861.2,987.1 c 0,-0.9 -0.7,-1.6 -1.6,-1.6 -0.9,0 -1.6,0.7 -1.6,1.6 v 21.9 c 0,0.8 0.6,1.4 1.3,1.6 0.1,0 0.2,0 0.3,0 0.9,0 1.6,-0.7 1.6,-1.6 z"
         id="path8-6-3-7-9-1"
         style="fill:#d3dae3;fill-opacity:1" />
      <path
         d="m -880.91223,953.5 h -36.2 c -3.8,0 -6.9,3.1 -6.9,6.9 v 81.1 c 0,3.8 3.1,6.9 6.9,6.9 h 36.2 c 3.8,0 6.9,-3.1 6.9,-6.9 v -81.1 c 0,-3.8 -3.1,-6.9 -6.9,-6.9 z m -27.3,5.5 h 18.2 c 0.7,0 1.2,0.5 1.2,1.2 0,0.7 -0.5,1.2 -1.2,1.2 h -18.2 c -0.7,0 -1.2,-0.5 -1.2,-1.2 0,-0.6 0.5,-1.2 1.2,-1.2 z m 9.1,83.4 c -2,0 -3.6,-1.6 -3.6,-3.6 0,-2 1.6,-3.6 3.6,-3.6 2,0 3.6,1.6 3.6,3.6 -0.1,2 -1.7,3.6 -3.6,3.6 z m 21.8,-13.2 h -43.4 v -62.3 h 43.4 z"
         id="path10-2-6-9-2-2"
         style="fill:#d3dae3;fill-opacity:1" />
    </g>
  </g>
</svg>
