<?xml version="1.0" encoding="UTF-8" standalone="no"?>
<svg
   xmlns:dc="http://purl.org/dc/elements/1.1/"
   xmlns:cc="http://creativecommons.org/ns#"
   xmlns:rdf="http://www.w3.org/1999/02/22-rdf-syntax-ns#"
   xmlns:svg="http://www.w3.org/2000/svg"
   xmlns="http://www.w3.org/2000/svg"
   xmlns:sodipodi="http://sodipodi.sourceforge.net/DTD/sodipodi-0.dtd"
   xmlns:inkscape="http://www.inkscape.org/namespaces/inkscape"
   width="32"
   height="32"
   version="1.1"
   id="svg12"
   sodipodi:docname="plasmavault_error.svg"
   inkscape:version="1.0.2 (e86c870879, 2021-01-15)">
  <metadata
     id="metadata18">
    <rdf:RDF>
      <cc:Work
         rdf:about="">
        <dc:format>image/svg+xml</dc:format>
        <dc:type
           rdf:resource="http://purl.org/dc/dcmitype/StillImage" />
      </cc:Work>
    </rdf:RDF>
  </metadata>
  <defs
     id="defs16" />
  <sodipodi:namedview
     pagecolor="#ffffff"
     bordercolor="#666666"
     borderopacity="1"
     objecttolerance="10"
     gridtolerance="10"
     guidetolerance="10"
     inkscape:pageopacity="0"
     inkscape:pageshadow="2"
     inkscape:window-width="1920"
     inkscape:window-height="1007"
     id="namedview14"
     showgrid="false"
     inkscape:zoom="9.8125"
     inkscape:cx="27.332344"
     inkscape:cy="8.6062402"
     inkscape:window-x="0"
     inkscape:window-y="0"
     inkscape:window-maximized="1"
     inkscape:current-layer="svg12"
     inkscape:document-rotation="0"
     inkscape:lockguides="true">
    <inkscape:grid
       type="xygrid"
       id="grid868"
       originx="0"
       originy="0" />
  </sodipodi:namedview>
  <g
     id="g847">
    <g
       id="g841">
      <rect
         style="opacity:0.00100002"
         width="32"
         height="32"
         x="0"
         y="0"
         id="rect7" />
      <path
         style="color:#000000;font-style:normal;font-variant:normal;font-weight:normal;font-stretch:normal;font-size:medium;line-height:normal;font-family:Sans;-inkscape-font-specification:Sans;text-indent:0;text-align:start;text-decoration:none;text-decoration-line:none;letter-spacing:normal;word-spacing:normal;text-transform:none;writing-mode:lr-tb;direction:ltr;baseline-shift:baseline;text-anchor:start;display:inline;overflow:visible;visibility:visible;fill:#ff557f;fill-opacity:1;fill-rule:nonzero;stroke:none;stroke-width:1.10299;marker:none;enable-background:accumulate"
         d="m 6.044371,6.2000779 c -1.1121203,0 -2.0623712,0.7973968 -2.0623712,1.8558749 V 23.674302 c 0,0.659374 0.2332194,1.083036 0.6860092,1.467441 0.4527894,0.384405 0.9227054,0.575506 1.5223209,0.575506 H 25.253292 c 0.457664,0.0081 0.444648,-0.62034 1.08e-4,-0.627003 L 6.1639586,25.079093 c -0.5899712,0 -1.080181,-0.416246 -1.080181,-0.416246 0,0 -0.4517288,-0.339181 -0.4517288,-0.988601 V 8.055897 c 0,-0.729424 0.4960599,-1.1974126 1.3625637,-1.187891 l 6.7101625,-0.00337 3.199778,2.8525421 c 0.09669,0.087242 0.22048,0.211622 0.349405,0.2144102 l 9.304184,-0.00335 c 0.474407,-0.00279 0.459415,-0.6536583 -0.015,-0.66127 H 16.449958 L 13.058122,6.3306952 C 12.960233,6.2466124 12.836563,6.2003539 12.708715,6.1999998 Z m 10.82319,0.8103116 c -0.432935,-0.00112 -0.4338,0.7446976 0.01082,0.7510518 l 8.298316,-0.011376 c 0.840856,-0.00112 1.205136,0.2713334 1.48511,0.5325207 0.279977,0.2611873 0.705429,0.900626 0.705429,1.559526 v 15.317503 c 0.0025,0.518349 0.612945,0.535412 0.614766,0.01785 L 27.980327,9.8420287 C 27.980241,8.9469122 27.687586,8.1974775 27.162195,7.7073425 26.636809,7.2172075 25.921513,7.0103002 25.176525,7.0103002 h -8.25801 c -0.01704,-8.364e-4 -0.03409,-8.364e-4 -0.05113,0 z"
         id="path2-3"
         sodipodi:nodetypes="sssssccscsssccccccccsccsssccssscc" />
      <path
         d="M 19.329334,16.299667 H 19 l -0.0013,-1.641333 c -0.0013,-1.788 -1.456,-3.242666 -3.244,-3.241333 -1.788,0.0013 -3.242666,1.456 -3.241333,3.244 l 0.0027,1.641333 h -0.117333 c -0.614667,0.0013 -1.113334,0.5 -1.112,1.114667 v 4.886666 c 0,0.614667 0.5,1.113333 1.114666,1.113333 l 6.930666,-0.004 c 0.614667,0 1.113334,-0.498666 1.112,-1.113333 v -4.888 c 0,-0.614666 -0.5,-1.112 -1.114666,-1.112 z m -5.618667,0.0027 -0.0027,-1.641333 c 0,-1.129333 0.917333,-2.048 2.046666,-2.049333 1.129334,0 2.048,0.918666 2.048,2.046666 l 0.0027,1.641334 z"
         id="path2"
         style="fill:#ff557f;fill-opacity:1;stroke-width:0.133333" />
    </g>
  </g>
  <g
     id="g917"
     transform="translate(32,10)">
    <g
       id="g911">
      <rect
         style="opacity:0.00100002"
         width="22"
         height="22"
         x="0"
         y="0"
         id="rect2" />
      <path
         style="color:#000000;font-style:normal;font-variant:normal;font-weight:normal;font-stretch:normal;font-size:medium;line-height:normal;font-family:Sans;-inkscape-font-specification:Sans;text-indent:0;text-align:start;text-decoration:none;text-decoration-line:none;letter-spacing:normal;word-spacing:normal;text-transform:none;writing-mode:lr-tb;direction:ltr;baseline-shift:baseline;text-anchor:start;display:inline;overflow:visible;visibility:visible;fill:#ff557f;fill-opacity:1;fill-rule:nonzero;stroke:none;stroke-width:0.735326;marker:none;enable-background:accumulate"
         d="m 4.3749141,4.500052 c -0.7414135,0 -1.374914,0.5315978 -1.374914,1.2372499 V 16.149534 c 0,0.439583 0.1554796,0.722024 0.4573394,0.978294 0.3018596,0.25627 0.6151369,0.383671 1.0148806,0.383671 H 17.180861 c 0.305109,0.0054 0.296432,-0.41356 7.2e-5,-0.418002 l -12.7262938,-0.0074 c -0.3933141,0 -0.7201206,-0.277498 -0.7201206,-0.277498 0,0 -0.3011525,-0.22612 -0.3011525,-0.659067 V 5.7372647 c 0,-0.4862826 0.3307065,-0.798275 0.9083757,-0.7919273 l 4.4734416,-0.00225 2.1331856,1.9016947 c 0.06446,0.058161 0.146986,0.1410813 0.232936,0.1429401 l 6.202789,-0.00223 c 0.316271,-0.00186 0.306277,-0.4357722 -0.01,-0.4408467 H 11.311972 L 9.0507483,4.5871302 C 8.9854884,4.531075 8.9030423,4.500236 8.8178098,4.4999999 Z m 7.2154599,0.5402077 c -0.288624,-7.435e-4 -0.2892,0.496465 0.0072,0.5007012 l 5.53221,-0.00758 c 0.560571,-7.435e-4 0.803424,0.1808889 0.990074,0.3550138 0.186651,0.1741249 0.470286,0.6004173 0.470286,1.039684 V 17.139743 c 0.0017,0.345566 0.40863,0.356941 0.409844,0.0119 L 18.998884,6.9280191 C 18.998827,6.3312748 18.803724,5.8316517 18.453463,5.504895 18.103206,5.1781384 17.626341,5.0402002 17.129683,5.0402002 h -5.50534 c -0.01136,-5.576e-4 -0.02273,-5.576e-4 -0.03409,0 z"
         id="path2-3-6"
         sodipodi:nodetypes="sssssccscsssccccccccsccsssccssscc" />
      <path
         d="m 13.231562,11.23312 h -0.219556 l -0.0011,-1.094222 c -0.0012,-1.1919985 -0.970719,-2.1617785 -2.16272,-2.1608915 -1.1919992,0.0011 -2.1617774,0.97067 -2.1608884,2.1626695 l 0.00181,1.094222 h -0.078109 c -0.4097785,8.31e-4 -0.7422228,0.333334 -0.7413333,0.743111 v 3.257778 c 0,0.409778 0.3333332,0.742222 0.7431106,0.742222 l 4.6204451,-0.0026 c 0.409777,0 0.74222,-0.332444 0.741333,-0.742222 v -3.258668 c 0,-0.409777 -0.333332,-0.741334 -0.743113,-0.741334 z m -3.7457796,0.0018 -0.00181,-1.094222 c 0,-0.7528883 0.6115556,-1.3653315 1.3644426,-1.3662235 0.752894,0 1.365336,0.6124459 1.365336,1.3644455 l 0.0021,1.094223 z"
         id="path2-7"
         style="fill:#ff557f;stroke-width:0.0888862;fill-opacity:1" />
    </g>
  </g>
</svg>
