<?xml version="1.0" encoding="UTF-8" standalone="no"?>
<svg
   width="32"
   height="32"
   version="1.1"
   id="svg12"
   sodipodi:docname="printer.svg"
   inkscape:version="1.1 (c68e22c387, 2021-05-23)"
   xmlns:inkscape="http://www.inkscape.org/namespaces/inkscape"
   xmlns:sodipodi="http://sodipodi.sourceforge.net/DTD/sodipodi-0.dtd"
   xmlns:xlink="http://www.w3.org/1999/xlink"
   xmlns="http://www.w3.org/2000/svg"
   xmlns:svg="http://www.w3.org/2000/svg"
   xmlns:rdf="http://www.w3.org/1999/02/22-rdf-syntax-ns#"
   xmlns:cc="http://creativecommons.org/ns#"
   xmlns:dc="http://purl.org/dc/elements/1.1/">
  <metadata
     id="metadata18">
    <rdf:RDF>
      <cc:Work
         rdf:about="">
        <dc:format>image/svg+xml</dc:format>
        <dc:type
           rdf:resource="http://purl.org/dc/dcmitype/StillImage" />
      </cc:Work>
    </rdf:RDF>
  </metadata>
  <defs
     id="defs16">
    <linearGradient
       inkscape:collect="always"
       id="linearGradient889">
      <stop
         style="stop-color:#4b8bd4;stop-opacity:1"
         id="stop885" />
      <stop
         offset="1"
         style="stop-color:#252c2f;stop-opacity:1"
         id="stop887" />
    </linearGradient>
    <linearGradient
       inkscape:collect="always"
       id="linearGradient4617"
       xlink:href="#linearGradient4303"
       y1="531.79797"
       y2="501.69922"
       gradientUnits="userSpaceOnUse"
       x2="0"
       gradientTransform="matrix(0.49999917,0,0,0.53846193,-225.94372,-275.75539)" />
    <linearGradient
       inkscape:collect="always"
       id="linearGradient4303">
      <stop
         style="stop-color:#c6cdd1"
         id="stop4305" />
      <stop
         offset="1"
         style="stop-color:#e0e5e7"
         id="stop4307" />
    </linearGradient>
    <linearGradient
       inkscape:collect="always"
       id="linearGradient4930"
       xlink:href="#linearGradient4191"
       y1="533.79797"
       y2="537.79797"
       gradientUnits="userSpaceOnUse"
       x2="0"
       gradientTransform="matrix(0.51281992,0,0,0.46153843,-231.18191,-236.69382)" />
    <linearGradient
       inkscape:collect="always"
       id="linearGradient4386"
       xlink:href="#linearGradient4903"
       y1="505.798"
       y2="503.798"
       gradientUnits="userSpaceOnUse"
       x2="0"
       gradientTransform="matrix(0.46153843,0,0,0.46153843,-210.22976,-242.23228)" />
    <linearGradient
       inkscape:collect="always"
       id="linearGradient4402"
       xlink:href="#linearGradient4903"
       y1="507.798"
       y2="505.798"
       gradientUnits="userSpaceOnUse"
       x2="0"
       gradientTransform="matrix(0.46153843,0,0,0.46153843,-210.22976,-242.23228)" />
    <linearGradient
       inkscape:collect="always"
       id="linearGradient4617-3"
       xlink:href="#linearGradient4303"
       y1="531.79797"
       y2="501.69922"
       gradientUnits="userSpaceOnUse"
       x2="0"
       gradientTransform="matrix(0.33333277,0,0,0.35897461,-128.86247,-175.89625)" />
    <linearGradient
       inkscape:collect="always"
       id="linearGradient4930-5"
       xlink:href="#linearGradient4191"
       y1="533.79797"
       y2="537.79797"
       gradientUnits="userSpaceOnUse"
       x2="0"
       gradientTransform="matrix(0.34187994,0,0,0.30769228,-132.3546,-149.85521)" />
    <linearGradient
       inkscape:collect="always"
       id="linearGradient4386-3"
       xlink:href="#linearGradient4903"
       y1="505.798"
       y2="503.798"
       gradientUnits="userSpaceOnUse"
       x2="0"
       gradientTransform="matrix(0.30769228,0,0,0.30769228,-118.3865,-153.54752)" />
    <linearGradient
       inkscape:collect="always"
       id="linearGradient4402-6"
       xlink:href="#linearGradient4903"
       y1="507.798"
       y2="505.798"
       gradientUnits="userSpaceOnUse"
       x2="0"
       gradientTransform="matrix(0.30769228,0,0,0.30769228,-118.3865,-153.54752)" />
    <linearGradient
       inkscape:collect="always"
       xlink:href="#linearGradient889"
       id="linearGradient887"
       x1="-23.453617"
       y1="15.307763"
       x2="-8.6844177"
       y2="15.307763"
       gradientUnits="userSpaceOnUse" />
    <linearGradient
       inkscape:collect="always"
       xlink:href="#linearGradient889"
       id="linearGradient895"
       x1="6.1309228"
       y1="18.145844"
       x2="15.977055"
       y2="18.145844"
       gradientUnits="userSpaceOnUse" />
  </defs>
  <sodipodi:namedview
     pagecolor="#ffffff"
     bordercolor="#000000"
     borderopacity="1"
     objecttolerance="10"
     gridtolerance="10"
     guidetolerance="10"
     inkscape:pageopacity="0"
     inkscape:pageshadow="2"
     inkscape:window-width="1920"
     inkscape:window-height="1015"
     id="namedview14"
     showgrid="false"
     inkscape:zoom="6.9384855"
     inkscape:cx="46.047513"
     inkscape:cy="20.897932"
     inkscape:window-x="0"
     inkscape:window-y="0"
     inkscape:window-maximized="1"
     inkscape:current-layer="svg12"
     inkscape:document-rotation="0"
     inkscape:lockguides="true"
     inkscape:pagecheckerboard="0"
     inkscape:showpageshadow="false">
    <inkscape:grid
       type="xygrid"
       id="grid908"
       originx="-1e-06"
       originy="-4.6325683e-08" />
  </sodipodi:namedview>
  <g
     id="printer"
     transform="translate(32,10.000001)">
    <rect
       style="opacity:0.00100002"
       width="32"
       height="32"
       x="-32"
       y="-10.000001"
       id="rect7" />
    <rect
       width="23.999989"
       x="-28.068987"
       y="1.4616135"
       rx="0"
       height="12.923076"
       style="fill:url(#linearGradient4617);stroke-width:0.923077;stroke-linecap:round;stroke-linejoin:round"
       id="rect4288" />
    <rect
       width="24.000004"
       x="-28.069"
       y="14.384704"
       height="0.92306489"
       style="fill:#737b81;stroke-width:0.923077;stroke-linecap:round;stroke-linejoin:round"
       id="rect4290" />
    <rect
       width="18.461515"
       x="-25.29977"
       y="13.461602"
       height="3.2307689"
       style="fill:url(#linearGradient4930);stroke-width:0.230769;stroke-linejoin:round"
       id="rect4868" />
    <rect
       width="16.615362"
       x="-24.376694"
       y="13.461602"
       height="4.6153603"
       style="fill:#eff0f1;stroke-width:0.230769;stroke-linejoin:round"
       id="rect4299" />
    <rect
       width="16.615383"
       x="-24.376694"
       y="-6.0133252"
       height="9.3210926"
       style="fill:#abb4ba;fill-opacity:1;stroke-width:0.259267;stroke-linejoin:round"
       id="rect4868-5" />
    <rect
       width="14.76923"
       x="-23.453617"
       y="-5.9230013"
       height="7.384613"
       style="fill:url(#linearGradient4386);stroke-width:0.230769;stroke-linejoin:round"
       id="rect4299-2" />
    <rect
       width="14.769199"
       x="-23.453617"
       y="13.461602"
       height="3.6923211"
       style="opacity:1;fill:url(#linearGradient887);fill-opacity:1;stroke-width:0.230769;stroke-linejoin:round"
       id="rect4299-3" />
    <path
       inkscape:connector-curvature="0"
       style="opacity:0.2;fill:url(#linearGradient4950);fill-rule:evenodd;stroke-width:0.461538"
       id="path4942"
       d="m -25.299775,13.461614 4.615384,4.615385 h 11.0769222 v -1.384616 h 0.9230769 v -3.230769 z" />
    <rect
       width="14.76923"
       x="-23.453617"
       y="-4.9999247"
       height="5.5384612"
       style="fill:url(#linearGradient4402);stroke-width:0.230769;stroke-linejoin:round"
       id="rect4299-2-2-8" />
    <rect
       width="14.76923"
       x="-23.453617"
       y="-4.0768476"
       height="7.3846149"
       style="fill:url(#linearGradient4394);stroke-width:0.230769;stroke-linejoin:round"
       id="rect4299-2-2" />
    <path
       inkscape:connector-curvature="0"
       style="fill:url(#linearGradient4545);stroke-width:0.923077;stroke-linecap:round;stroke-linejoin:round"
       id="rect4512"
       d="M -28.068997,2.3847037 V 12.538551 h 0.923077 c 0.511394,0 0.923077,-0.411683 0.923077,-0.923076 V 3.3077805 c 0,-0.5113938 -0.461538,-0.9230768 -0.923077,-0.9230768 z" />
    <path
       inkscape:connector-curvature="0"
       style="fill:url(#linearGradient4545-5);stroke-width:0.923077;stroke-linecap:round;stroke-linejoin:round"
       id="rect4512-0"
       d="M -4.0689984,2.3847037 V 12.538551 h -0.9230768 c -0.5113938,0 -0.9230769,-0.411683 -0.9230769,-0.923076 V 3.3077805 c 0,-0.5113938 0.4615384,-0.9230768 0.9230769,-0.9230768 z" />
    <circle
       cx="-4.9920793"
       cy="11.615448"
       style="fill:#e50060;fill-opacity:1;stroke-width:0.923077;stroke-linecap:round;stroke-linejoin:round"
       r="0.46153843"
       id="path4292" />
    <rect
       width="20.307692"
       x="-26.222847"
       y="10.692371"
       height="0.46153843"
       style="fill:#99a1a7;stroke-width:0.923077;stroke-linecap:round;stroke-linejoin:bevel"
       id="rect4826" />
    <path
       inkscape:connector-curvature="0"
       style="fill:url(#linearGradient4852);stroke-width:0.923077;stroke-linecap:round;stroke-linejoin:bevel"
       id="rect4841"
       d="m -24.37668,3.3077575 v 4.6153866 c 0,0.5113845 0.411692,0.9230768 0.923077,0.9230768 h 14.7692296 c 0.5113845,0 0.9230768,-0.4116923 0.9230768,-0.9230768 V 3.3077575 Z" />
    <path
       inkscape:connector-curvature="0"
       style="opacity:0.2;fill:url(#linearGradient4950-6);fill-rule:evenodd;stroke-width:0.461538"
       id="path4942-8"
       d="M -24.376699,3.3077667 -17.91516,9.769307 H -7.761315 V 3.3077667 Z" />
    <path
       inkscape:connector-curvature="0"
       style="fill:#4b8bd4;fill-opacity:1;stroke-width:0.461538"
       id="rect4119"
       d="m -16.530527,5.1538789 c -0.06392,0 -0.115384,0.051462 -0.115384,0.1153846 0,0.063923 0.05146,0.1153846 0.115384,0.1153846 0.06392,0 0.115385,-0.051461 0.115385,-0.1153846 0,-0.063923 -0.05146,-0.1153846 -0.115385,-0.1153846 z m 0.807693,0 -0.23077,0.2307692 0.346154,0.3461538 -0.115384,0.1153846 -0.115385,0.1153846 -0.115385,0.1153846 0.23077,0.2307692 0.115384,-0.1153846 0.115385,-0.1153846 0.115384,-0.1153846 0.23077,-0.2307692 z m -1.096154,0.6923076 c -0.09588,0 -0.173077,0.077192 -0.173077,0.1730769 0,0.095885 0.07719,0.1730769 0.173077,0.1730769 0.09588,0 0.173077,-0.077192 0.173077,-0.1730769 0,-0.095885 -0.07719,-0.1730769 -0.173077,-0.1730769 z m 0.51923,0.6923077 c -0.127846,0 -0.230769,0.102923 -0.230769,0.2307692 0,0.1278461 0.102923,0.2307692 0.230769,0.2307692 0.127847,0 0.23077,-0.1029231 0.23077,-0.2307692 0,-0.1278462 -0.102923,-0.2307692 -0.23077,-0.2307692 z" />
  </g>
  <g
     id="22-22-printer"
     transform="translate(32,10.000001)">
    <rect
       style="opacity:0.00100002"
       width="22"
       height="22"
       x="0"
       y="0"
       id="rect2" />
    <rect
       width="15.999991"
       x="3.0540094"
       y="8.9150763"
       rx="0"
       height="8.6153841"
       style="fill:url(#linearGradient4617-3);stroke-width:0.615385;stroke-linecap:round;stroke-linejoin:round"
       id="rect4288-9" />
    <rect
       width="16.000002"
       x="3.0539999"
       y="17.53047"
       height="0.61537659"
       style="fill:#737b81;stroke-width:0.615385;stroke-linecap:round;stroke-linejoin:round"
       id="rect4290-1" />
    <rect
       width="12.307677"
       x="4.9001536"
       y="16.91507"
       height="2.153846"
       style="fill:url(#linearGradient4930-5);stroke-width:0.153846;stroke-linejoin:round"
       id="rect4868-2" />
    <rect
       width="11.076908"
       x="5.5155382"
       y="16.91507"
       height="3.0769067"
       style="fill:#eff0f1;stroke-width:0.153846;stroke-linejoin:round"
       id="rect4299-7" />
    <rect
       width="11.076922"
       x="5.5155382"
       y="4.1844049"
       height="5.9614406"
       style="fill:#a9b2bc;fill-opacity:1;stroke-width:0.169295;stroke-linejoin:round"
       id="rect4868-5-0" />
    <rect
       width="9.8461533"
       x="6.1309228"
       y="3.9920001"
       height="4.9230752"
       style="fill:url(#linearGradient4386-3);stroke-width:0.153846;stroke-linejoin:round"
       id="rect4299-2-9" />
    <rect
       width="9.8461323"
       x="6.1309228"
       y="16.91507"
       height="2.4615474"
       style="opacity:1;fill:url(#linearGradient895);fill-opacity:1.0;stroke-width:0.153846;stroke-linejoin:round"
       id="rect4299-3-3" />
    <path
       inkscape:connector-curvature="0"
       style="opacity:0.2;fill:url(#linearGradient4950);fill-rule:evenodd;stroke-width:0.307692"
       id="path4942-6"
       d="M 4.9001502,16.915077 7.977073,19.992 h 7.384615 v -0.923077 h 0.615384 v -2.153846 z" />
    <rect
       width="9.8461533"
       x="6.1309228"
       y="4.6073847"
       height="3.6923075"
       style="fill:url(#linearGradient4402-6);stroke-width:0.153846;stroke-linejoin:round"
       id="rect4299-2-2-8-0" />
    <rect
       width="9.8461533"
       x="6.1309228"
       y="5.2227693"
       height="4.9230766"
       style="fill:url(#linearGradient4394);stroke-width:0.153846;stroke-linejoin:round"
       id="rect4299-2-2-6" />
    <path
       inkscape:connector-curvature="0"
       style="fill:url(#linearGradient4545);stroke-width:0.615385;stroke-linecap:round;stroke-linejoin:round"
       id="rect4512-2"
       d="m 3.0540026,9.5304699 v 6.7692321 h 0.6153846 c 0.3409292,0 0.6153845,-0.274456 0.6153845,-0.615385 v -5.538463 c 0,-0.3409287 -0.3076922,-0.6153841 -0.6153845,-0.6153841 z" />
    <path
       inkscape:connector-curvature="0"
       style="fill:url(#linearGradient4545-5);stroke-width:0.615385;stroke-linecap:round;stroke-linejoin:round"
       id="rect4512-0-6"
       d="m 19.054001,9.5304699 v 6.7692321 h -0.615384 c -0.34093,0 -0.615385,-0.274456 -0.615385,-0.615385 v -5.538463 c 0,-0.3409287 0.307692,-0.6153841 0.615385,-0.6153841 z" />
    <circle
       cx="18.438614"
       cy="15.684299"
       style="fill:#e50060;fill-opacity:1;stroke-width:0.615385;stroke-linecap:round;stroke-linejoin:round"
       r="0.30769229"
       id="path4292-1" />
    <rect
       width="13.538461"
       x="4.2847691"
       y="15.068915"
       height="0.30769229"
       style="fill:#99a1a7;stroke-width:0.615385;stroke-linecap:round;stroke-linejoin:bevel"
       id="rect4826-8" />
    <path
       inkscape:connector-curvature="0"
       style="fill:url(#linearGradient4852);stroke-width:0.615385;stroke-linecap:round;stroke-linejoin:bevel"
       id="rect4841-7"
       d="m 5.515547,10.145839 v 3.076924 c 0,0.340923 0.2744615,0.615385 0.6153846,0.615385 h 9.8461534 c 0.340923,0 0.615384,-0.274462 0.615384,-0.615385 v -3.076924 z" />
    <path
       inkscape:connector-curvature="0"
       style="opacity:0.2;fill:url(#linearGradient4950-6);fill-rule:evenodd;stroke-width:0.307692"
       id="path4942-8-9"
       d="m 5.5155347,10.145845 4.3076919,4.307694 h 6.7692304 v -4.307694 z" />
    <path
       inkscape:connector-curvature="0"
       style="fill:#4b8bd4;fill-opacity:1;stroke-width:0.307692"
       id="rect4119-2"
       d="m 10.746316,11.376587 c -0.04262,0 -0.07692,0.03431 -0.07692,0.07692 0,0.04261 0.03431,0.07692 0.07692,0.07692 0.04261,0 0.07692,-0.03431 0.07692,-0.07692 0,-0.04262 -0.03431,-0.07692 -0.07692,-0.07692 z m 0.538461,0 -0.153846,0.153846 0.230769,0.230769 -0.07692,0.07692 -0.07692,0.07692 -0.07692,0.07692 0.153846,0.153846 0.07692,-0.07692 0.07692,-0.07692 0.07692,-0.07692 0.153847,-0.153846 z m -0.730769,0.461538 c -0.06392,0 -0.115384,0.05146 -0.115384,0.115385 0,0.06392 0.05146,0.115384 0.115384,0.115384 0.06392,0 0.115385,-0.05146 0.115385,-0.115384 0,-0.06392 -0.05146,-0.115385 -0.115385,-0.115385 z m 0.346154,0.461539 c -0.08523,0 -0.153846,0.06861 -0.153846,0.153846 0,0.08523 0.06861,0.153846 0.153846,0.153846 0.08523,0 0.153846,-0.06862 0.153846,-0.153846 0,-0.08523 -0.06861,-0.153846 -0.153846,-0.153846 z" />
  </g>
</svg>
