<?xml version="1.0" encoding="UTF-8" standalone="no"?>
<svg
   xmlns:osb="http://www.openswatchbook.org/uri/2009/osb"
   xmlns:dc="http://purl.org/dc/elements/1.1/"
   xmlns:cc="http://creativecommons.org/ns#"
   xmlns:rdf="http://www.w3.org/1999/02/22-rdf-syntax-ns#"
   xmlns:svg="http://www.w3.org/2000/svg"
   xmlns="http://www.w3.org/2000/svg"
   xmlns:sodipodi="http://sodipodi.sourceforge.net/DTD/sodipodi-0.dtd"
   xmlns:inkscape="http://www.inkscape.org/namespaces/inkscape"
   style="enable-background:new"
   width="32"
   height="32"
   version="1.1"
   id="svg36"
   sodipodi:docname="qbittorrent.svg"
   inkscape:version="1.0.2 (e86c870879, 2021-01-15)">
  <metadata
     id="metadata40">
    <rdf:RDF>
      <cc:Work
         rdf:about="">
        <dc:format>image/svg+xml</dc:format>
        <dc:type
           rdf:resource="http://purl.org/dc/dcmitype/StillImage" />
      </cc:Work>
    </rdf:RDF>
  </metadata>
  <sodipodi:namedview
     pagecolor="#ffffff"
     bordercolor="#666666"
     borderopacity="1"
     objecttolerance="10"
     gridtolerance="10"
     guidetolerance="10"
     inkscape:pageopacity="0"
     inkscape:pageshadow="2"
     inkscape:window-width="1920"
     inkscape:window-height="1007"
     id="namedview38"
     showgrid="false"
     inkscape:zoom="7.375"
     inkscape:cx="-24.108607"
     inkscape:cy="9.3453903"
     inkscape:window-x="0"
     inkscape:window-y="0"
     inkscape:window-maximized="1"
     inkscape:current-layer="svg36"
     inkscape:lockguides="true"
     inkscape:document-rotation="0" />
  <defs
     id="defs4">
    <linearGradient
       id="linearGradient5606"
       osb:paint="solid">
      <stop
         id="stop5608"
         offset="0"
         style="stop-color:#000000" />
    </linearGradient>
  </defs>
  <g
     id="22-22-qbittorrent"
     transform="translate(32,10)">
    <path
       style="opacity:0"
       d="M 0,0 H 22 V 22 H 0 Z"
       id="path6" />
    <path
       style="fill:#d3dae3;fill-opacity:1"
       d="m 13,3 a 1,1 0 0 0 -1,1 v 11 h 2 V 14.458984 C 14.607485,14.81219 15.297298,14.998156 16,15 18.209139,15 20,13.209139 20,11 20,8.7908608 18.209139,7 16,7 15.29748,7.00125 14.607679,7.1865555 14,7.5390625 V 4 A 1,1 0 0 0 13,3 Z m 3,6 c 1.104569,0 2,0.8954308 2,2 0,1.104569 -0.895431,2 -2,2 -1.104569,0 -2,-0.895431 -2,-2 0,-1.1045692 0.895431,-2 2,-2 z"
       id="path8" />
    <path
       style="opacity:1;fill:#4b8bd4;fill-opacity:1"
       d="m 6,7 c -2.209139,0 -4,1.7908608 -4,4 0,2.209139 1.790861,4 4,4 0.702523,-0.0013 1.392325,-0.188495 2,-0.541016 V 18 a 1,1 0 0 0 1,1 1,1 0 0 0 1,-1 V 7 H 8 V 7.5410156 C 7.392515,7.1878093 6.702702,7.0018543 6,7 Z M 6,9 C 7.10457,9 8,9.8954308 8,11 8,12.104569 7.10457,13 6,13 4.895431,13 4,12.104569 4,11 4,9.8954308 4.895431,9 6,9 Z"
       id="path10" />
  </g>
  <g
     id="qbittorrent">
    <rect
       width="32"
       height="32"
       x="0"
       y="0"
       style="opacity:0.00100002"
       id="rect13" />
    <g
       id="g33">
      <path
         style="fill:#4b8bd4;fill-opacity:1"
         d="M 9.5,11 C 6.4624339,11 4,13.462434 4,16.5 4,19.537566 6.4624339,22 9.5,22 10.369602,21.9981 11.226371,21.789703 12,21.392578 V 25.5 A 1.5,1.5 0 0 0 13.5,27 1.5,1.5 0 0 0 15,25.5 v -9 -5.5 h -3 v 0.601562 C 11.225942,11.20617 10.369195,11.000303 9.5,11 Z m 0,3 C 10.880712,14 12,15.119288 12,16.5 12,17.880712 10.880712,19 9.5,19 8.1192881,19 7,17.880712 7,16.5 7,15.119288 8.1192881,14 9.5,14 Z"
         id="path25"
         inkscape:connector-curvature="0" />
      <path
         style="fill:#d3dae3;fill-opacity:1"
         d="M 18.5,6 A 1.5,1.5 0 0 0 17,7.5 v 9 5.5 h 3 V 21.398438 C 20.774058,21.79383 21.630805,21.999697 22.5,22 25.537566,22 28,19.537566 28,16.5 28,13.462434 25.537566,11 22.5,11 21.630398,11.0019 20.773629,11.210297 20,11.607422 V 7.5 A 1.5,1.5 0 0 0 18.5,6 Z m 4,8 C 23.880712,14 25,15.119288 25,16.5 25,17.880712 23.880712,19 22.5,19 21.119288,19 20,17.880712 20,16.5 20,15.119288 21.119288,14 22.5,14 Z"
         id="path29"
         inkscape:connector-curvature="0" />
    </g>
  </g>
</svg>
