<?xml version="1.0" encoding="UTF-8" standalone="no"?>
<svg
   xmlns:dc="http://purl.org/dc/elements/1.1/"
   xmlns:cc="http://creativecommons.org/ns#"
   xmlns:rdf="http://www.w3.org/1999/02/22-rdf-syntax-ns#"
   xmlns:svg="http://www.w3.org/2000/svg"
   xmlns="http://www.w3.org/2000/svg"
   xmlns:sodipodi="http://sodipodi.sourceforge.net/DTD/sodipodi-0.dtd"
   xmlns:inkscape="http://www.inkscape.org/namespaces/inkscape"
   width="32"
   height="32"
   viewBox="0 0 32 32"
   version="1.1"
   id="svg867"
   inkscape:version="1.0.2 (e86c870879, 2021-01-15)"
   sodipodi:docname="redshift.svg">
  <defs
     id="defs3871">
    <style
       type="text/css"
       id="current-color-scheme">
      .ColorScheme-Text {
        color:#31363b;
      }
      </style>
  </defs>
  <sodipodi:namedview
     inkscape:object-paths="true"
     guideopacity="0.62745098"
     guidecolor="#0000ff"
     inkscape:bbox-nodes="true"
     inkscape:snap-intersection-paths="true"
     inkscape:snap-bbox="true"
     id="base"
     pagecolor="#ffffff"
     bordercolor="#666666"
     borderopacity="1.0"
     inkscape:pageopacity="0.0"
     inkscape:pageshadow="2"
     inkscape:zoom="5.6"
     inkscape:cx="21.677702"
     inkscape:cy="15.666437"
     inkscape:document-units="px"
     inkscape:current-layer="layer1"
     inkscape:document-rotation="0"
     showgrid="false"
     inkscape:window-width="1920"
     inkscape:window-height="1007"
     inkscape:window-x="0"
     inkscape:window-y="0"
     inkscape:window-maximized="1"
     units="px"
     inkscape:snap-bbox-edge-midpoints="false"
     inkscape:lockguides="false">
    <inkscape:grid
       opacity="0.41960784"
       color="#3f3fff"
       type="xygrid"
       id="grid1448"
       originx="-3.5527137e-15"
       originy="0" />
  </sodipodi:namedview>
  <metadata
     id="metadata864">
    <rdf:RDF>
      <cc:Work
         rdf:about="">
        <dc:format>image/svg+xml</dc:format>
        <dc:type
           rdf:resource="http://purl.org/dc/dcmitype/StillImage" />
        <dc:title />
      </cc:Work>
    </rdf:RDF>
  </metadata>
  <g
     inkscape:label="Layer 1"
     inkscape:groupmode="layer"
     id="layer1">
    <g
       id="redshift-status-on">
      <rect
         y="0"
         x="3.5527137e-15"
         height="32"
         width="32"
         id="rect910"
         style="opacity:0.003;fill:#000000;stroke-width:1" />
      <path
         d="m 13.662132,24.80401 c -0.157314,0 -0.310927,-0.01526 -0.462689,-0.03701 v 1.887776 h 4.626904 v 0.925382 h -4.626904 v 0.462691 c 0,0.254942 0.207746,0.462691 0.462689,0.462691 h 4.626907 c 0.254942,0 0.46269,-0.207749 0.46269,-0.462691 v -3.275848 c -0.151762,0.02174 -0.305376,0.03701 -0.46269,0.03701 z"
         id="path14"
         style="fill:#d3dae3;fill-opacity:1;stroke-width:0.46269" />
      <path
         d="M 23.825621,8.52158 C 22.420033,5.4689546 19.368672,3.5112985 16.007972,3.506 11.2464,3.51346 7.3925125,7.3795508 7.4000109,12.141064 c 0.00524,3.360687 1.9629786,6.412014 5.0156391,7.81758 v 2.227211 c 0,0.396807 0.321649,0.718452 0.718463,0.718452 h 5.747712 c 0.396814,0 0.718463,-0.321645 0.718463,-0.718452 v -2.227211 c 4.325061,-1.99147 6.216823,-7.112057 4.225333,-11.437064 z m -1.128077,6.213218 c -0.730139,1.87122 -2.210311,3.351375 -4.081552,4.081503 h 0.0075 c -0.276374,0.106645 -0.459001,0.371939 -0.459854,0.668167 v 1.98293 h -4.311016 v -1.98293 C 13.851764,19.18824 13.66914,18.922946 13.392799,18.816301 9.6962219,17.373955 7.8688536,13.20811 9.3112152,9.511614 10.753574,5.8151147 14.919452,3.9877689 18.615992,5.4301126 22.312534,6.8724563 24.1399,11.03828 22.697544,14.734798 Z"
         id="path2"
         style="fill:#d3dae3;fill-opacity:1;stroke-width:0.0449037" />
      <circle
         cx="16.021469"
         cy="12.32989"
         r="2.3531883"
         id="circle2"
         style="fill:#d3dae3;fill-opacity:1;stroke-width:0.191316" />
      <path
         d="M 15.08402,9.7662548 15.390127,9.6514649 15.007495,8.5800948 c -0.03827,-0.095658 -0.133922,-0.1339214 -0.210448,-0.095658 -0.07653,0.038265 -0.133922,0.1339215 -0.09566,0.2104479 z"
         id="path4"
         style="fill:#d3dae3;fill-opacity:1;stroke-width:0.191316" />
      <path
         d="m 16.097996,7.4895932 c 0,-0.095659 -0.07653,-0.1721848 -0.172184,-0.1721848 -0.09566,0 -0.153054,0.07653 -0.153054,0.1721848 v 2.1236084 h 0.34437 V 7.4895932 Z"
         id="path6"
         style="fill:#d3dae3;fill-opacity:1;stroke-width:0.191316" />
      <path
         d="m 15.925812,17.170189 c 0,0.09566 0.07653,0.172184 0.172184,0.172184 0.09566,0 0.172185,-0.07653 0.172185,-0.172184 v -2.123608 h -0.344369 z"
         id="path8"
         style="fill:#d3dae3;fill-opacity:1;stroke-width:0.191316" />
      <path
         d="m 16.958918,14.855264 -0.306105,0.114789 0.401764,1.07137 c 0.03827,0.09566 0.133922,0.133922 0.210448,0.09566 0.09566,-0.03827 0.133921,-0.133922 0.09566,-0.210448 z"
         id="path10"
         style="fill:#d3dae3;fill-opacity:1;stroke-width:0.191316" />
      <path
         d="m 13.916993,10.588915 0.210448,-0.248712 -0.860923,-0.7461325 c -0.07653,-0.057395 -0.172184,-0.057395 -0.22958,0.019131 -0.05739,0.07653 -0.05739,0.1721848 0.01913,0.2295797 z"
         id="path12"
         style="fill:#d3dae3;fill-opacity:1;stroke-width:0.191316" />
      <path
         d="m 14.452678,10.110624 0.286974,-0.1721845 -1.07137,-1.8557664 c -0.03827,-0.07653 -0.153053,-0.1147898 -0.22958,-0.057393 -0.07653,0.038265 -0.11479,0.1530531 -0.05739,0.2295797 z"
         id="path14-3"
         style="fill:#d3dae3;fill-opacity:1;stroke-width:0.191316" />
      <path
         d="m 17.590262,14.549158 -0.286974,0.172185 1.071371,1.836634 c 0.03827,0.07653 0.153052,0.11479 0.229579,0.05739 0.07653,-0.03827 0.11479,-0.153053 0.05739,-0.22958 z"
         id="path16"
         style="fill:#d3dae3;fill-opacity:1;stroke-width:0.191316" />
      <path
         d="m 18.087685,14.051736 -0.210448,0.248711 0.880053,0.746134 c 0.07653,0.05739 0.172185,0.05739 0.22958,-0.01913 0.05739,-0.07653 0.05739,-0.172185 -0.01913,-0.22958 z"
         id="path18"
         style="fill:#d3dae3;fill-opacity:1;stroke-width:0.191316" />
      <path
         d="m 12.252542,11.335047 c -0.09566,-0.01913 -0.172184,0.03827 -0.191316,0.133921 -0.01913,0.09566 0.03827,0.172185 0.133921,0.191317 l 1.128765,0.191316 0.05739,-0.325238 z"
         id="path20"
         style="fill:#d3dae3;fill-opacity:1;stroke-width:0.191316" />
      <path
         d="m 11.697726,10.129756 1.836634,1.07137 0.172185,-0.286974 -1.836634,-1.0713707 c -0.07653,-0.038265 -0.191318,-0.019128 -0.229581,0.057393 -0.05739,0.076531 -0.01913,0.1721847 0.05739,0.2295797 z"
         id="path22"
         style="fill:#d3dae3;fill-opacity:1;stroke-width:0.191316" />
      <path
         d="M 20.345214,14.530027 18.508579,13.458655 18.336395,13.74563 20.17303,14.817 c 0.07653,0.03827 0.191316,0.01913 0.229579,-0.05739 0.03827,-0.07653 0.01913,-0.191317 -0.0574,-0.229579 z"
         id="path24"
         style="fill:#d3dae3;fill-opacity:1;stroke-width:0.191316" />
      <path
         d="m 19.752135,13.305603 c 0.09566,0.01913 0.172185,-0.03827 0.191316,-0.13392 0.01913,-0.09566 -0.03827,-0.172185 -0.133922,-0.191317 l -1.128765,-0.191317 -0.05739,0.325238 z"
         id="path26"
         style="fill:#d3dae3;fill-opacity:1;stroke-width:0.191316" />
      <path
         d="m 12.156884,13.554314 c 0.03827,0.09566 0.133921,0.133922 0.210448,0.09566 l 1.07137,-0.401764 -0.11479,-0.306107 -1.07137,0.401764 c -0.07653,0.03827 -0.11479,0.133922 -0.09566,0.210448 z"
         id="path28"
         style="fill:#d3dae3;fill-opacity:1;stroke-width:0.191316" />
      <path
         d="m 13.304781,12.234232 h -2.123608 c -0.09566,0 -0.172185,0.07653 -0.172185,0.172185 0,0.09566 0.07653,0.172185 0.172185,0.172185 h 2.123608 z"
         id="path30"
         style="fill:#d3dae3;fill-opacity:1;stroke-width:0.191316" />
      <path
         d="M 20.861768,12.081179 H 18.73816 v 0.34437 h 2.123608 c 0.09566,0 0.172184,-0.07653 0.172184,-0.172185 0,-0.09566 -0.07653,-0.172185 -0.172184,-0.172185 z"
         id="path32"
         style="fill:#d3dae3;fill-opacity:1;stroke-width:0.191316" />
      <path
         d="m 19.847793,11.105468 c -0.03827,-0.09566 -0.133922,-0.133922 -0.210448,-0.09566 l -1.07137,0.401765 0.114789,0.306105 1.071371,-0.401763 c 0.07653,-0.03827 0.114789,-0.133922 0.09566,-0.210448 z"
         id="path34"
         style="fill:#d3dae3;fill-opacity:1;stroke-width:0.191316" />
      <path
         d="m 14.261362,14.415237 -0.248712,-0.210448 -0.746132,0.880055 c -0.05739,0.07653 -0.05739,0.172183 0.01913,0.229578 0.07653,0.05739 0.172185,0.05739 0.22958,-0.01913 z"
         id="path36"
         style="fill:#d3dae3;fill-opacity:1;stroke-width:0.191316" />
      <path
         d="m 13.630019,13.611709 -1.836635,1.071371 c -0.07653,0.03827 -0.114791,0.153052 -0.05739,0.229579 0.05739,0.07653 0.153053,0.11479 0.229578,0.05739 l 1.836634,-1.071367 z"
         id="path38"
         style="fill:#d3dae3;fill-opacity:1;stroke-width:0.191316" />
      <path
         d="m 18.412922,11.048072 1.836634,-1.0713692 c 0.07653,-0.038265 0.11479,-0.1530531 0.0574,-0.2295798 -0.0574,-0.07653 -0.153053,-0.1147898 -0.22958,-0.057393 l -1.836634,1.071372 z"
         id="path40"
         style="fill:#d3dae3;fill-opacity:1;stroke-width:0.191316" />
      <path
         d="m 17.743315,10.244545 0.248711,0.210448 0.746134,-0.8800543 c 0.05739,-0.076526 0.05739,-0.1721844 -0.01913,-0.2295792 -0.07653,-0.057395 -0.172185,-0.057395 -0.22958,0.019131 z"
         id="path42"
         style="fill:#d3dae3;fill-opacity:1;stroke-width:0.191316" />
      <path
         d="m 15.026627,16.079687 c -0.01913,0.09566 0.03827,0.172185 0.13392,0.191317 0.09566,0.01913 0.172185,-0.03827 0.191317,-0.133922 l 0.191316,-1.128765 -0.325238,-0.05739 z"
         id="path44"
         style="fill:#d3dae3;fill-opacity:1;stroke-width:0.191316" />
      <path
         d="m 13.515229,16.48145 c -0.03827,0.07653 -0.01913,0.191317 0.05739,0.22958 0.07653,0.03827 0.191316,0.01913 0.229579,-0.05739 l 1.07137,-1.836635 -0.286975,-0.172185 z"
         id="path46"
         style="fill:#d3dae3;fill-opacity:1;stroke-width:0.191316" />
      <path
         d="m 18.508579,8.1783313 c 0.03827,-0.07653 0.01913,-0.1913164 -0.05739,-0.2295797 -0.07653,-0.038265 -0.191317,-0.019127 -0.22958,0.057393 l -1.07137,1.8366348 0.286975,0.1721846 z"
         id="path48"
         style="fill:#d3dae3;fill-opacity:1;stroke-width:0.191316" />
      <path
         d="M 16.997181,8.5992265 C 17.01631,8.503568 16.958915,8.4270416 16.863262,8.40791 16.767602,8.388782 16.691077,8.446175 16.671945,8.5418315 l -0.191317,1.128765 0.325238,0.057393 z"
         id="path50"
         style="fill:#d3dae3;fill-opacity:1;stroke-width:0.191316" />
    </g>
    <g
       id="22-22-redshift-status-on">
      <g
         id="g1561">
        <rect
           y="10"
           x="-44"
           height="22"
           width="22"
           id="rect1467-9-7-9-9-4"
           style="opacity:0.003;fill-opacity:1" />
        <path
           d="m -34.525244,27.032674 c -0.104877,0 -0.207286,-0.01018 -0.308461,-0.02467 v 1.258517 h 3.084604 v 0.616922 h -3.084604 v 0.30846 c 0,0.169962 0.138499,0.308461 0.308461,0.308461 h 3.084604 c 0.169962,0 0.30846,-0.138499 0.30846,-0.308461 V 27.008 c -0.101174,0.0145 -0.203584,0.02467 -0.30846,0.02467 z"
           id="path14-7"
           style="fill:#d3dae3;fill-opacity:1;stroke-width:0.30846" />
        <path
           d="m -27.749719,15.843721 c -0.937047,-2.035085 -2.971263,-3.340189 -5.211703,-3.343721 -3.174343,0.0049 -5.74357,2.582368 -5.738571,5.75671 0.0035,2.240458 1.308637,4.274676 3.34372,5.211721 v 1.484807 c 0,0.264539 0.21443,0.478969 0.478968,0.478969 h 3.831762 c 0.26454,0 0.478969,-0.21443 0.478969,-0.478969 v -1.484807 c 2.88334,-1.327647 4.144499,-4.741372 2.816855,-7.62471 z m -0.752042,4.142145 c -0.486753,1.24748 -1.473523,2.23425 -2.721002,2.721003 h 0.005 c -0.184247,0.0711 -0.305996,0.247959 -0.306565,0.445444 v 1.321954 h -2.873968 v -1.321954 c -5.92e-4,-0.197485 -0.12234,-0.374348 -0.306564,-0.445444 -2.464356,-0.961564 -3.682587,-3.738795 -2.721024,-6.203125 0.961561,-2.464334 3.738779,-3.682565 6.203109,-2.721002 2.464332,0.961563 3.682562,3.738779 2.721002,6.203124 z"
           id="path2-5"
           style="fill:#d3dae3;fill-opacity:1;stroke-width:0.0299356" />
        <circle
           cx="-32.952358"
           cy="18.549261"
           r="1.5687925"
           id="circle2-3"
           style="fill:#d3dae3;fill-opacity:1;stroke-width:0.127544" />
        <path
           d="m -33.577319,16.84017 0.204071,-0.07653 -0.255088,-0.714247 c -0.02551,-0.06377 -0.08928,-0.08928 -0.140299,-0.06377 -0.05102,0.02551 -0.08928,0.08928 -0.06377,0.140299 z"
           id="path4-5"
           style="fill:#d3dae3;fill-opacity:1;stroke-width:0.127544" />
        <path
           d="m -32.901335,15.322396 c 0,-0.06377 -0.05102,-0.11479 -0.11479,-0.11479 -0.06377,0 -0.102035,0.05102 -0.102035,0.11479 v 1.415739 h 0.22958 v -1.415739 z"
           id="path6-6"
           style="fill:#d3dae3;fill-opacity:1;stroke-width:0.127544" />
        <path
           d="m -33.016125,21.776127 c 0,0.06377 0.05102,0.11479 0.11479,0.11479 0.06377,0 0.11479,-0.05102 0.11479,-0.11479 v -1.415739 h -0.22958 z"
           id="path8-2"
           style="fill:#d3dae3;fill-opacity:1;stroke-width:0.127544" />
        <path
           d="m -32.327387,20.232843 -0.20407,0.07653 0.267842,0.714247 c 0.02551,0.06377 0.08928,0.08928 0.140299,0.06377 0.06377,-0.02551 0.08928,-0.08928 0.06377,-0.140299 z"
           id="path10-9"
           style="fill:#d3dae3;fill-opacity:1;stroke-width:0.127544" />
        <path
           d="m -34.355338,17.38861 0.140299,-0.165807 -0.573949,-0.497422 c -0.05102,-0.03826 -0.114789,-0.03826 -0.153052,0.01275 -0.03826,0.05102 -0.03826,0.11479 0.01275,0.153054 z"
           id="path12-1"
           style="fill:#d3dae3;fill-opacity:1;stroke-width:0.127544" />
        <path
           d="m -33.998215,17.06975 0.191317,-0.11479 -0.714247,-1.237178 c -0.02551,-0.05102 -0.102035,-0.07653 -0.153053,-0.03826 -0.05102,0.02551 -0.07653,0.102036 -0.03826,0.153054 z"
           id="path14-3-2"
           style="fill:#d3dae3;fill-opacity:1;stroke-width:0.127544" />
        <path
           d="m -31.906491,20.028773 -0.191316,0.114789 0.714247,1.224424 c 0.02551,0.05102 0.102035,0.07653 0.153053,0.03826 0.05102,-0.02551 0.07653,-0.102036 0.03826,-0.153053 z"
           id="path16-7"
           style="fill:#d3dae3;fill-opacity:1;stroke-width:0.127544" />
        <path
           d="m -31.574876,19.697158 -0.140299,0.165808 0.586703,0.497422 c 0.05102,0.03826 0.11479,0.03826 0.153053,-0.01275 0.03826,-0.05102 0.03826,-0.11479 -0.01275,-0.153053 z"
           id="path18-0"
           style="fill:#d3dae3;fill-opacity:1;stroke-width:0.127544" />
        <path
           d="m -35.464971,17.886032 c -0.06377,-0.01275 -0.11479,0.02551 -0.127545,0.08928 -0.01275,0.06377 0.02551,0.114789 0.08928,0.127544 l 0.75251,0.127544 0.03826,-0.216825 z"
           id="path20-9"
           style="fill:#d3dae3;fill-opacity:1;stroke-width:0.127544" />
        <path
           d="m -35.834849,17.082504 1.224423,0.714247 0.11479,-0.191316 -1.224423,-0.714247 c -0.05102,-0.02551 -0.127545,-0.01275 -0.153054,0.03826 -0.03826,0.05102 -0.01275,0.11479 0.03826,0.153053 z"
           id="path22-3"
           style="fill:#d3dae3;fill-opacity:1;stroke-width:0.127544" />
        <path
           d="m -30.069856,20.016019 -1.224423,-0.714248 -0.11479,0.191317 1.224423,0.714247 c 0.05102,0.02551 0.127544,0.01275 0.153053,-0.03826 0.02551,-0.05102 0.01275,-0.127545 -0.03826,-0.153053 z"
           id="path24-6"
           style="fill:#d3dae3;fill-opacity:1;stroke-width:0.127544" />
        <path
           d="m -30.465243,19.199736 c 0.06377,0.01275 0.11479,-0.02551 0.127545,-0.08928 0.01275,-0.06377 -0.02551,-0.11479 -0.08928,-0.127545 l -0.75251,-0.127544 -0.03826,0.216825 z"
           id="path26-0"
           style="fill:#d3dae3;fill-opacity:1;stroke-width:0.127544" />
        <path
           d="m -35.528744,19.365544 c 0.02551,0.06377 0.08928,0.08928 0.140299,0.06377 l 0.714247,-0.267843 -0.07653,-0.204071 -0.714246,0.267843 c -0.05102,0.02551 -0.07653,0.08928 -0.06377,0.140299 z"
           id="path28-6"
           style="fill:#d3dae3;fill-opacity:1;stroke-width:0.127544" />
        <path
           d="m -34.763479,18.485489 h -1.415739 c -0.06377,0 -0.11479,0.05102 -0.11479,0.11479 0,0.06377 0.05102,0.11479 0.11479,0.11479 h 1.415739 z"
           id="path30-2"
           style="fill:#d3dae3;fill-opacity:1;stroke-width:0.127544" />
        <path
           d="m -29.725487,18.383454 h -1.415739 v 0.229579 h 1.415739 c 0.06377,0 0.11479,-0.05102 0.11479,-0.114789 0,-0.06377 -0.05102,-0.11479 -0.11479,-0.11479 z"
           id="path32-6"
           style="fill:#d3dae3;fill-opacity:1;stroke-width:0.127544" />
        <path
           d="m -30.401471,17.732979 c -0.02551,-0.06377 -0.08928,-0.08928 -0.140298,-0.06377 l -0.714247,0.267843 0.07653,0.20407 0.714246,-0.267842 c 0.05102,-0.02551 0.07653,-0.08928 0.06377,-0.140299 z"
           id="path34-1"
           style="fill:#d3dae3;fill-opacity:1;stroke-width:0.127544" />
        <path
           d="m -34.125758,19.939492 -0.165808,-0.140299 -0.497422,0.586704 c -0.03826,0.05102 -0.03826,0.114789 0.01275,0.153052 0.05102,0.03826 0.11479,0.03826 0.153053,-0.01275 z"
           id="path36-8"
           style="fill:#d3dae3;fill-opacity:1;stroke-width:0.127544" />
        <path
           d="m -34.546654,19.403807 -1.224423,0.714247 c -0.05102,0.02551 -0.07653,0.102035 -0.03826,0.153053 0.03826,0.05102 0.102035,0.07653 0.153052,0.03826 l 1.224423,-0.714246 z"
           id="path38-7"
           style="fill:#d3dae3;fill-opacity:1;stroke-width:0.127544" />
        <path
           d="m -31.358051,17.694716 1.224423,-0.714247 c 0.05102,-0.02551 0.07653,-0.102035 0.03826,-0.153053 -0.03826,-0.05102 -0.102036,-0.07653 -0.153053,-0.03826 l -1.224424,0.714247 z"
           id="path40-9"
           style="fill:#d3dae3;fill-opacity:1;stroke-width:0.127544" />
        <path
           d="m -31.804456,17.15903 0.165808,0.140299 0.497422,-0.586702 c 0.03826,-0.05102 0.03826,-0.11479 -0.01275,-0.153054 -0.05102,-0.03826 -0.11479,-0.03826 -0.153053,0.01275 z"
           id="path42-2"
           style="fill:#d3dae3;fill-opacity:1;stroke-width:0.127544" />
        <path
           d="m -33.615582,21.049126 c -0.01275,0.06377 0.02551,0.11479 0.08928,0.127544 0.06377,0.01275 0.11479,-0.02551 0.127544,-0.08928 l 0.127544,-0.75251 -0.216825,-0.03826 z"
           id="path44-0"
           style="fill:#d3dae3;fill-opacity:1;stroke-width:0.127544" />
        <path
           d="m -34.62318,21.316968 c -0.02551,0.05102 -0.01275,0.127544 0.03826,0.153053 0.05102,0.02551 0.127544,0.01275 0.153053,-0.03826 l 0.714247,-1.224423 -0.191317,-0.11479 z"
           id="path46-2"
           style="fill:#d3dae3;fill-opacity:1;stroke-width:0.127544" />
        <path
           d="m -31.294279,15.781555 c 0.02551,-0.05102 0.01275,-0.127545 -0.03826,-0.153054 -0.05102,-0.02551 -0.127545,-0.01275 -0.153053,0.03826 l -0.714247,1.224424 0.191316,0.11479 z"
           id="path48-3"
           style="fill:#d3dae3;fill-opacity:1;stroke-width:0.127544" />
        <path
           d="m -32.301878,16.062151 c 0.01275,-0.06377 -0.02551,-0.11479 -0.08928,-0.127544 -0.06377,-0.01275 -0.11479,0.02551 -0.127545,0.08928 l -0.127544,0.75251 0.216825,0.03826 z"
           id="path50-7"
           style="fill:#d3dae3;fill-opacity:1;stroke-width:0.127544" />
      </g>
    </g>
    <g
       id="22-22-redshift-status-off">
      <rect
         style="opacity:0.003;fill-opacity:1"
         id="rect1467-9-7-9-9-4-67"
         width="22"
         height="22"
         x="-22"
         y="10" />
      <path
         d="m -12.525244,27.032674 c -0.104877,0 -0.207286,-0.01018 -0.308461,-0.02467 v 1.258517 h 3.0846043 v 0.616922 h -3.0846043 v 0.30846 c 0,0.169962 0.138499,0.308461 0.308461,0.308461 h 3.0846043 c 0.169962,0 0.30846,-0.138499 0.30846,-0.308461 V 27.008 c -0.101174,0.0145 -0.203584,0.02467 -0.30846,0.02467 z"
         id="path14-7-5"
         style="fill:#d3dae3;fill-opacity:1;stroke-width:0.30846" />
      <path
         d="M -5.7497187,15.843721 C -6.6867657,13.808636 -8.7209817,12.503532 -10.961422,12.5 c -3.174343,0.0049 -5.74357,2.582368 -5.738571,5.75671 0.0035,2.240458 1.308637,4.274676 3.34372,5.211721 v 1.484807 c 0,0.264539 0.21443,0.478969 0.478968,0.478969 h 3.8317623 c 0.26454,0 0.478969,-0.21443 0.478969,-0.478969 v -1.484807 c 2.88334,-1.327647 4.144499,-4.741372 2.816855,-7.62471 z m -0.752042,4.142145 c -0.486753,1.24748 -1.473523,2.23425 -2.721002,2.721003 h 0.005 c -0.184247,0.0711 -0.305996,0.247959 -0.306565,0.445444 v 1.321954 h -2.8739683 v -1.321954 c -5.92e-4,-0.197485 -0.12234,-0.374348 -0.306564,-0.445444 -2.464356,-0.961564 -3.682587,-3.738795 -2.721024,-6.203125 0.961561,-2.464334 3.738779,-3.682565 6.2031093,-2.721002 2.464332,0.961563 3.682562,3.738779 2.721002,6.203124 z"
         id="path2-5-9"
         style="fill:#d3dae3;fill-opacity:1;stroke-width:0.0299356" />
    </g>
    <g
       id="redshift-status-off">
      <rect
         style="opacity:0.003;fill:#000000;stroke-width:1"
         id="rect1033"
         width="32"
         height="32"
         x="32"
         y="0" />
      <path
         d="m 45.662132,24.79801 c -0.157314,0 -0.310927,-0.01526 -0.462689,-0.03701 v 1.887776 h 4.626904 v 0.925382 h -4.626904 v 0.462691 c 0,0.254942 0.207746,0.462691 0.462689,0.462691 h 4.626907 c 0.254942,0 0.46269,-0.207749 0.46269,-0.462691 v -3.275848 c -0.151762,0.02174 -0.305376,0.03701 -0.46269,0.03701 z"
         id="path14-2"
         style="fill:#d3dae3;fill-opacity:1;stroke-width:0.46269" />
      <path
         d="M 55.825419,8.51558 C 54.419849,5.462955 51.368526,3.505299 48.007866,3.5 c -4.761513,0.0075 -8.615353,3.873551 -8.607855,8.635064 0.0052,3.360687 1.962954,6.412014 5.015578,7.81758 v 2.227211 c 0,0.396807 0.321645,0.718452 0.718454,0.718452 h 5.747641 c 0.39681,0 0.718454,-0.321645 0.718454,-0.718452 v -2.227211 c 4.325008,-1.99147 6.216747,-7.112057 4.225281,-11.437064 z m -1.128063,6.213218 c -0.730129,1.87122 -2.210284,3.351375 -4.081502,4.081503 h 0.0075 c -0.276371,0.106645 -0.458995,0.371939 -0.459848,0.668167 v 1.98293 h -4.310919 v -1.98293 C 45.851685,19.18224 45.669063,18.916946 45.392726,18.810301 41.696194,17.367955 39.868848,13.20211 41.311192,9.505614 42.753533,5.809115 46.91936,3.981769 50.615854,5.424113 c 3.696497,1.442343 5.523841,5.608167 4.081502,9.304685 z"
         id="path2-0"
         style="fill:#d3dae3;fill-opacity:1;stroke-width:0.0449034" />
    </g>
  </g>
</svg>
