<?xml version="1.0" encoding="UTF-8" standalone="no"?>
<svg
   xmlns:dc="http://purl.org/dc/elements/1.1/"
   xmlns:cc="http://creativecommons.org/ns#"
   xmlns:rdf="http://www.w3.org/1999/02/22-rdf-syntax-ns#"
   xmlns:svg="http://www.w3.org/2000/svg"
   xmlns="http://www.w3.org/2000/svg"
   xmlns:xlink="http://www.w3.org/1999/xlink"
   xmlns:sodipodi="http://sodipodi.sourceforge.net/DTD/sodipodi-0.dtd"
   xmlns:inkscape="http://www.inkscape.org/namespaces/inkscape"
   version="1.1"
   width="24"
   height="24"
   id="svg3013"
   inkscape:version="1.0.2 (e86c870879, 2021-01-15)"
   sodipodi:docname="skype.svg">
  <sodipodi:namedview
     pagecolor="#ffffff"
     bordercolor="#666666"
     borderopacity="1"
     objecttolerance="10"
     gridtolerance="10"
     guidetolerance="10"
     inkscape:pageopacity="0"
     inkscape:pageshadow="2"
     inkscape:window-width="1920"
     inkscape:window-height="1007"
     id="namedview66"
     showgrid="false"
     inkscape:zoom="9.8333333"
     inkscape:cx="-6.2542373"
     inkscape:cy="16.067797"
     inkscape:window-x="0"
     inkscape:window-y="0"
     inkscape:window-maximized="1"
     inkscape:current-layer="layer1"
     inkscape:lockguides="true"
     inkscape:document-rotation="0" />
  <defs
     id="defs3015">
    <linearGradient
       id="linearGradient5009">
      <stop
         id="stop5011"
         style="stop-color:#000000;stop-opacity:1"
         offset="0" />
      <stop
         id="stop5013"
         style="stop-color:#000000;stop-opacity:0"
         offset="1" />
    </linearGradient>
    <linearGradient
       id="linearGradient4249">
      <stop
         id="stop4251"
         style="stop-color:#ffffff;stop-opacity:1"
         offset="0" />
      <stop
         id="stop4253"
         style="stop-color:#ffffff;stop-opacity:0.78431374"
         offset="0.47000003" />
      <stop
         id="stop4255"
         style="stop-color:#ffffff;stop-opacity:0.51724136"
         offset="0.75125003" />
      <stop
         id="stop4257"
         style="stop-color:#ffffff;stop-opacity:1"
         offset="1" />
    </linearGradient>
    <linearGradient
       id="linearGradient3289">
      <stop
         id="stop3291"
         style="stop-color:#ffffff;stop-opacity:1"
         offset="0" />
      <stop
         id="stop3294"
         style="stop-color:#ffffff;stop-opacity:1"
         offset="1" />
    </linearGradient>
    <linearGradient
       id="linearGradient2916">
      <stop
         id="stop2918"
         style="stop-color:#ffffff;stop-opacity:1"
         offset="0" />
      <stop
         id="stop2920"
         style="stop-color:#ffffff;stop-opacity:0"
         offset="1" />
    </linearGradient>
    <linearGradient
       id="linearGradient3140">
      <stop
         id="stop3142"
         style="stop-color:#ffffff;stop-opacity:1"
         offset="0" />
      <stop
         id="stop3144"
         style="stop-color:#ffffff;stop-opacity:0"
         offset="1" />
    </linearGradient>
    <linearGradient
       id="linearGradient2895">
      <stop
         id="stop2897"
         style="stop-color:#ffffff;stop-opacity:1"
         offset="0" />
      <stop
         id="stop2899"
         style="stop-color:#ffffff;stop-opacity:0"
         offset="1" />
    </linearGradient>
    <linearGradient
       x1="38.875084"
       y1="67.528122"
       x2="90.409752"
       y2="67.528122"
       id="linearGradient6228"
       xlink:href="#linearGradient2916"
       gradientUnits="userSpaceOnUse"
       gradientTransform="matrix(0.511504,0,0,1.80649,68.030435,-6.0981568)" />
    <linearGradient
       x1="38.875084"
       y1="67.528122"
       x2="90.409752"
       y2="67.528122"
       id="linearGradient6233"
       xlink:href="#linearGradient2916"
       gradientUnits="userSpaceOnUse"
       gradientTransform="matrix(0.511504,0,0,0.96108,67.773305,4.8320565)" />
    <linearGradient
       x1="11.543377"
       y1="3.4375"
       x2="10.88339"
       y2="5.9006019"
       id="linearGradient6238"
       xlink:href="#linearGradient2895"
       gradientUnits="userSpaceOnUse"
       gradientTransform="matrix(5.467529,0,0,5.820575,24.290213,-2.0656323)" />
    <linearGradient
       x1="38.875084"
       y1="67.528122"
       x2="90.409752"
       y2="67.528122"
       id="linearGradient6243"
       xlink:href="#linearGradient2916"
       gradientUnits="userSpaceOnUse"
       gradientTransform="matrix(0.511504,0,0,0.77135,67.773305,6.6291413)" />
    <radialGradient
       cx="68.000046"
       cy="-117.34602"
       r="27.999956"
       fx="68.000046"
       fy="-117.34602"
       id="radialGradient9168"
       xlink:href="#linearGradient3140"
       gradientUnits="userSpaceOnUse"
       gradientTransform="matrix(0.990365,0,0,1.664158,16.251985,75.514833)" />
    <linearGradient
       x1="18.01074"
       y1="65.760353"
       x2="72.498932"
       y2="65.760353"
       id="linearGradient2867"
       xlink:href="#linearGradient3289"
       gradientUnits="userSpaceOnUse"
       gradientTransform="matrix(1.017716,0,0,0.960169,5.524222,-18.774756)" />
    <linearGradient
       id="linearGradient4046-1-38">
      <stop
         id="stop4048-6-5"
         style="stop-color:#ffffff;stop-opacity:0"
         offset="0" />
      <stop
         id="stop4051-4-0"
         style="stop-color:#ffffff;stop-opacity:0.72661871"
         offset="1" />
    </linearGradient>
    <linearGradient
       id="linearGradient16006-3-9">
      <stop
         id="stop16008-5-6"
         style="stop-color:#ffffff;stop-opacity:0.58823532"
         offset="0" />
      <stop
         id="stop16016-1-7"
         style="stop-color:#ffffff;stop-opacity:0.8705036"
         offset="0.25" />
      <stop
         id="stop16014-1-2"
         style="stop-color:#ffffff;stop-opacity:0.58823532"
         offset="0.5" />
      <stop
         id="stop3998"
         style="stop-color:#ffffff;stop-opacity:0.8561151"
         offset="0.75" />
      <stop
         id="stop16010-4-1"
         style="stop-color:#ffffff;stop-opacity:0.58823532"
         offset="1" />
    </linearGradient>
    <linearGradient
       id="linearGradient4124">
      <stop
         id="stop4126"
         style="stop-color:#ffffff;stop-opacity:0.70503598"
         offset="0" />
      <stop
         id="stop4128"
         style="stop-color:#ffffff;stop-opacity:0.6978417"
         offset="0.185378" />
      <stop
         id="stop4130"
         style="stop-color:#ffffff;stop-opacity:0.80575538"
         offset="0.44680852" />
      <stop
         id="stop4132"
         style="stop-color:#ffffff;stop-opacity:0.77697843"
         offset="0.76861703" />
      <stop
         id="stop4134"
         style="stop-color:#ffffff;stop-opacity:0.74100721"
         offset="1" />
    </linearGradient>
    <linearGradient
       x1="3.0267859"
       y1="1040.4602"
       x2="21.776787"
       y2="1040.4602"
       id="linearGradient4717"
       xlink:href="#linearGradient4124"
       gradientUnits="userSpaceOnUse" />
    <linearGradient
       x1="12.580358"
       y1="1031.4336"
       x2="12.580358"
       y2="1049.4011"
       id="linearGradient4727"
       xlink:href="#linearGradient4124"
       gradientUnits="userSpaceOnUse" />
    <linearGradient
       x1="12"
       y1="1031.3356"
       x2="12.178572"
       y2="1049.2603"
       id="linearGradient4929"
       xlink:href="#linearGradient4249"
       gradientUnits="userSpaceOnUse" />
    <linearGradient
       x1="12"
       y1="1031.3356"
       x2="12.178572"
       y2="1049.2603"
       id="linearGradient4991"
       xlink:href="#linearGradient4249"
       gradientUnits="userSpaceOnUse"
       gradientTransform="translate(24,0)" />
    <linearGradient
       x1="12"
       y1="1031.3356"
       x2="12.178572"
       y2="1049.2603"
       id="linearGradient4993"
       xlink:href="#linearGradient4249"
       gradientUnits="userSpaceOnUse"
       gradientTransform="translate(24,0)" />
    <linearGradient
       x1="12"
       y1="1031.3356"
       x2="12.178572"
       y2="1049.2603"
       id="linearGradient4995"
       xlink:href="#linearGradient4249"
       gradientUnits="userSpaceOnUse"
       gradientTransform="translate(24,0)" />
    <linearGradient
       x1="12"
       y1="1031.3356"
       x2="12.178572"
       y2="1049.2603"
       id="linearGradient4997"
       xlink:href="#linearGradient4249"
       gradientUnits="userSpaceOnUse"
       gradientTransform="translate(24,0)" />
    <linearGradient
       x1="12"
       y1="1031.3356"
       x2="12.178572"
       y2="1049.2603"
       id="linearGradient4999"
       xlink:href="#linearGradient4249"
       gradientUnits="userSpaceOnUse"
       gradientTransform="translate(24,0)" />
    <linearGradient
       x1="12"
       y1="1031.3356"
       x2="12.178572"
       y2="1049.2603"
       id="linearGradient5001"
       xlink:href="#linearGradient4249"
       gradientUnits="userSpaceOnUse"
       gradientTransform="translate(24,0)" />
    <linearGradient
       x1="12"
       y1="1031.3356"
       x2="12.178572"
       y2="1049.2603"
       id="linearGradient5003"
       xlink:href="#linearGradient4249"
       gradientUnits="userSpaceOnUse"
       gradientTransform="translate(24,0)" />
    <linearGradient
       x1="12"
       y1="1031.3356"
       x2="12.178572"
       y2="1049.2603"
       id="linearGradient5005"
       xlink:href="#linearGradient4249"
       gradientUnits="userSpaceOnUse"
       gradientTransform="translate(24,0)" />
    <linearGradient
       x1="4.2426405"
       y1="11.71402"
       x2="19.975765"
       y2="11.71402"
       id="linearGradient5015"
       xlink:href="#linearGradient5009"
       gradientUnits="userSpaceOnUse"
       gradientTransform="translate(0,1028.3622)" />
    <radialGradient
       cx="12.00001"
       cy="11.987168"
       r="9.5000095"
       fx="12.00001"
       fy="11.987168"
       id="radialGradient3937"
       xlink:href="#linearGradient2895"
       gradientUnits="userSpaceOnUse"
       gradientTransform="matrix(2.4034553,0,0,2.408755,-16.841477,-16.886983)" />
  </defs>
  <metadata
     id="metadata3018">
    <rdf:RDF>
      <cc:Work
         rdf:about="">
        <dc:format>image/svg+xml</dc:format>
        <dc:type
           rdf:resource="http://purl.org/dc/dcmitype/StillImage" />
        <dc:title />
      </cc:Work>
    </rdf:RDF>
  </metadata>
  <g
     transform="translate(0,-1028.3622)"
     id="layer1">
    <g
       id="skype">
      <rect
         width="24"
         height="24"
         x="0"
         y="1028.3622"
         id="rect5017"
         style="opacity:0;fill:#000000;fill-opacity:0.392157;stroke:none" />
      <g
         id="g3939">
        <path
           d="M 7.375,1.5 C 7.134457,1.51 6.8893289,1.5165 6.625,1.5625 3.7297907,2.0594 1.5323278,4.6016 1.53125,7.5 1.5309918,8.1943 1.6516262,8.87875 1.90625,9.65625 V 9.6875 l 0.15625,0.5 v 1.40625 c 0.00322,1.3493 0.043361,1.76265 0.125,2.15625 0.9497979,4.5799 4.4711139,7.82555 9.03125,8.21875 0.487699,0.047 0.93428,0.042 1.6875,0 l 0.8125,-0.0625 0.3125,0.125 c 0.644325,0.2292 1.025485,0.34595 1.375,0.40625 0.555433,0.091 1.211845,0.069 1.78125,0 1.317493,-0.1611 2.590477,-0.7778 3.5625,-1.75 0.830808,-0.831 1.367726,-1.8681 1.625,-3.0625 0.08499,-0.3946 0.0942,-0.7682 0.09375,-1.25 -7.06e-4,-0.7793 -0.100615,-1.2844 -0.40625,-2.1875 h 0.03125 l -0.15625,-0.46875 0.03125,-1.0625 C 22.00249,11.22705 21.93319,10.5508 21.6875,9.5625 20.82849,6.1074 18.189979,3.40325 14.71875,2.40625 c -0.899728,-0.2582 -1.149936,-0.2796 -3,-0.3125 l -1.625,-0.03125 -0.375,-0.125 C 8.8984916,1.6504 8.1595455,1.4713 7.375,1.5 Z m 0.03125,0.96875 c 0.6246949,-0.023 1.2396148,0.1089 2,0.375 l 0.53125,0.1875 1.75,0.03125 c 1.852971,0.033 1.856184,0.02495 2.75,0.28125 3.148962,0.9045 5.5377,3.35235 6.3125,6.46875 0.235154,0.9459 0.283094,1.4106 0.25,2.8125 l -0.03125,1.25 0.1875,0.59375 c 0.306163,0.8973 0.343063,1.14755 0.34375,1.90625 4.42e-4,0.4722 -0.0062,0.77005 -0.0625,1.03125 -0.223451,1.0374 -0.677082,1.89565 -1.375,2.59375 -0.808864,0.809 -1.910732,1.33555 -3,1.46875 -0.435691,0.053 -1.182104,0.052 -1.5,0 -0.307316,-0.053 -0.603978,-0.12505 -1.21875,-0.34375 L 13.8125,20.9375 12.84375,21 C 12.107196,21.041 11.747737,21.042 11.3125,21 7.1530155,20.6414 3.997984,17.772 3.125,13.5625 3.0595,13.2467 3.03444,12.93135 3.03125,11.59375 V 10 L 2.84375,9.375 C 2.602238,8.6451 2.49978,8.0915 2.5,7.5 2.500891,5.1039 4.356945,2.94735 6.78125,2.53125 c 0.2165975,-0.037 0.4167684,-0.0545 0.625,-0.0625 z"
           transform="translate(0,1028.3622)"
           id="path3872"
           style="fill:#d3dae3;fill-opacity:1;stroke:none"
           inkscape:connector-curvature="0" />
        <path
           d="m 11.96875,1033.7997 c -3.137973,0.01 -5.065179,1.5664 -4.90625,3.9688 0.08465,1.2795 0.659245,2.1186 1.875,2.6875 0.32685,0.153 1.530099,0.5273 2.65625,0.8125 1.126151,0.2852 2.185027,0.5895 2.34375,0.6875 0.358097,0.2201 0.5,0.5573 0.5,1.0937 0,0.3336 -0.06709,0.4705 -0.3125,0.75 -0.553223,0.6302 -1.610715,0.9033 -2.65625,0.6875 -0.822798,-0.1698 -1.163825,-0.392 -1.875,-1.1875 -0.847672,-0.9482 -1.287963,-1.1207 -1.9375,-0.8125 -0.393265,0.1866 -0.62755,0.5586 -0.625,1.0625 0.0071,1.4107 1.660436,2.6814 3.9375,3 0.779642,0.109 2.406593,0.02 3.15625,-0.1562 1.324395,-0.312 2.367535,-1.063 2.875,-2.0938 0.282467,-0.5738 0.281718,-0.6602 0.28125,-1.5312 -4.38e-4,-0.8189 -0.0028,-1.0072 -0.21875,-1.4688 -0.570121,-1.2185 -1.519753,-1.7648 -4.09375,-2.3437 -0.928119,-0.2087 -1.813467,-0.4158 -2,-0.4688 -0.523959,-0.1481 -0.951453,-0.4698 -1.09375,-0.8437 -0.116807,-0.3069 -0.11096,-0.3892 0.0625,-0.7813 0.267933,-0.6057 0.857357,-0.9062 1.875,-0.9062 1.096854,0 1.576849,0.1951 2.4375,1 0.768449,0.7191 1.024471,0.837 1.5625,0.75 0.998935,-0.1621 1.311057,-1.1081 0.6875,-2.0313 -0.751586,-1.1127 -2.595384,-1.875 -4.53125,-1.875 z"
           id="rect3906"
           style="fill:#d3dae3;fill-opacity:1;stroke:none"
           inkscape:connector-curvature="0" />
        <path
           d="M 7.40625,2.46875 C 7.1980184,2.4763641 6.9978475,2.494075 6.78125,2.53125 4.356945,2.94735 2.500891,5.1039 2.5,7.5 2.49978,8.0915 2.602238,8.6451 2.84375,9.375 L 3.03125,10 v 1.59375 C 3.03444,12.93135 3.0595,13.2467 3.125,13.5625 3.997984,17.772 7.1530155,20.6414 11.3125,21 c 0.435237,0.042 0.794696,0.041 1.53125,0 l 0.96875,-0.0625 0.53125,0.1875 c 0.614772,0.2187 0.911434,0.29075 1.21875,0.34375 0.317896,0.052 1.064309,0.053 1.5,0 1.089268,-0.1332 2.191136,-0.65975 3,-1.46875 0.697918,-0.6981 1.151549,-1.55635 1.375,-2.59375 0.05626,-0.2612 0.06294,-0.55905 0.0625,-1.03125 -6.87e-4,-0.7587 -0.03759,-1.00895 -0.34375,-1.90625 L 20.96875,13.875 21,12.625 C 21.033094,11.2231 20.985154,10.7584 20.75,9.8125 19.9752,6.6961 17.586462,4.24825 14.4375,3.34375 13.543684,3.08725 13.540471,3.0955 11.6875,3.0625 L 9.9375,3.03125 9.40625,2.84375 c -0.7603852,-0.2661 -1.3753051,-0.3978422 -2,-0.375 z m 4.5625,2.96875 c 1.935866,0 3.779664,0.7623 4.53125,1.875 0.623557,0.9232 0.311435,1.86915 -0.6875,2.03125 -0.538029,0.087 -0.794051,-0.0309 -1.5625,-0.75 -0.860651,-0.8049 -1.340646,-1.0014 -2.4375,-1 -1.017643,0 -1.607067,0.30055 -1.875,0.90625 -0.1734598,0.3921 -0.1793071,0.47435 -0.0625,0.78125 0.142297,0.3739 0.569791,0.69565 1.09375,0.84375 0.186533,0.053 1.071881,0.26005 2,0.46875 2.573997,0.5789 3.523629,1.12525 4.09375,2.34375 0.215953,0.4616 0.218312,0.64985 0.21875,1.46875 4.68e-4,0.871 0.0012,0.95745 -0.28125,1.53125 -0.507465,1.0308 -1.550605,1.78175 -2.875,2.09375 -0.749657,0.1766 -2.376608,0.26525 -3.15625,0.15625 -2.2770643,-0.3186 -3.9303707,-1.5893 -3.9375,-3 -0.00255,-0.5039 0.2317348,-0.8759 0.625,-1.0625 0.6495374,-0.3082 1.0898276,-0.1357 1.9375,0.8125 0.711175,0.7955 1.052202,1.0177 1.875,1.1875 1.045535,0.2158 2.103027,-0.0573 2.65625,-0.6875 0.24541,-0.2795 0.3125,-0.4164 0.3125,-0.75 0,-0.5364 -0.141903,-0.87365 -0.5,-1.09375 -0.158723,-0.098 -1.217599,-0.4023 -2.34375,-0.6875 -1.126151,-0.2852 -2.3293997,-0.6595 -2.65625,-0.8125 -1.2157547,-0.5689 -1.7903528,-1.408 -1.875,-2.6875 C 6.9035706,7.00385 8.8307774,5.4429 11.96875,5.4375 Z"
           transform="translate(0,1028.3622)"
           id="path3859"
           style="fill:url(#radialGradient3937);fill-opacity:0;stroke:none"
           inkscape:connector-curvature="0" />
      </g>
    </g>
  </g>
</svg>
