<?xml version="1.0" encoding="UTF-8" standalone="no"?>
<svg
   xmlns:dc="http://purl.org/dc/elements/1.1/"
   xmlns:cc="http://creativecommons.org/ns#"
   xmlns:rdf="http://www.w3.org/1999/02/22-rdf-syntax-ns#"
   xmlns:svg="http://www.w3.org/2000/svg"
   xmlns="http://www.w3.org/2000/svg"
   xmlns:sodipodi="http://sodipodi.sourceforge.net/DTD/sodipodi-0.dtd"
   xmlns:inkscape="http://www.inkscape.org/namespaces/inkscape"
   width="22"
   height="22"
   version="1.1"
   id="svg17"
   sodipodi:docname="slc.svg"
   inkscape:version="1.0.2 (e86c870879, 2021-01-15)">
  <metadata
     id="metadata23">
    <rdf:RDF>
      <cc:Work
         rdf:about="">
        <dc:format>image/svg+xml</dc:format>
        <dc:type
           rdf:resource="http://purl.org/dc/dcmitype/StillImage" />
      </cc:Work>
    </rdf:RDF>
  </metadata>
  <defs
     id="defs21" />
  <sodipodi:namedview
     pagecolor="#ffffff"
     bordercolor="#666666"
     borderopacity="1"
     objecttolerance="10"
     gridtolerance="10"
     guidetolerance="10"
     inkscape:pageopacity="0"
     inkscape:pageshadow="2"
     inkscape:window-width="1920"
     inkscape:window-height="1007"
     id="namedview19"
     showgrid="false"
     inkscape:zoom="10.092342"
     inkscape:cx="43.152243"
     inkscape:cy="6.3208638"
     inkscape:window-x="0"
     inkscape:window-y="0"
     inkscape:window-maximized="1"
     inkscape:current-layer="svg17"
     inkscape:document-rotation="0"
     inkscape:lockguides="false">
    <inkscape:grid
       type="xygrid"
       id="grid911"
       originx="0"
       originy="0" />
  </sodipodi:namedview>
  <g
     id="g6"
     transform="matrix(0.28200001,0,0,0.28200001,-3.0831,-3.1266662)" />
  <g
     id="slc-share">
    <rect
       style="opacity:0.00100002"
       width="22"
       height="22"
       x="44"
       y="0"
       id="rect7" />
    <path
       fill="#000000"
       stroke="none"
       d="m 61.63283,5.5546913 q 0,-0.7962675 -0.423017,-1.4266459 -0.1493,-0.1990669 -0.356661,-0.3981338 -0.713323,-0.7299118 -1.766719,-0.7299118 -1.036806,0 -1.816485,0.7299118 -0.729912,0.7713842 -0.729912,1.8247797 0,0.4313115 0.132711,0.8128564 -0.04147,0.00829 -0.06636,0.033178 l -3.939865,2.6210471 q -0.04977,0.033178 -0.09124,0.07465 -0.696734,-0.6469673 -1.658891,-0.6469673 -1.045101,0 -1.816485,0.7465008 Q 48.37,9.9507514 48.37,10.995852 q 0,1.045102 0.729912,1.783308 0.771384,0.779678 1.816485,0.779678 0.953862,0 1.642302,-0.646967 0.04977,0.04147 0.107828,0.08295 l 3.93157,2.612752 q 0.02488,0.01659 0.05806,0.04147 -0.116123,0.381544 -0.116123,0.804562 0,1.028512 0.729912,1.766718 Q 58.049627,19 59.086433,19 q 1.053396,0 1.766719,-0.779679 0.207361,-0.174183 0.356661,-0.364956 0.423017,-0.613789 0.423017,-1.401762 0,-0.796268 -0.423017,-1.418352 -0.1493,-0.207361 -0.356661,-0.389839 -0.713323,-0.738207 -1.766719,-0.738207 -0.945567,0 -1.683774,0.622084 -0.02488,-0.03318 -0.05806,-0.04977 L 53.413027,11.86677 q -0.02488,-0.02488 -0.07465,-0.06636 0.116123,-0.356661 0.116123,-0.804562 0,-0.423017 -0.116123,-0.804561 0.04977,-0.02488 0.07465,-0.03318 l 3.94816,-2.6210474 q 0.03318,-0.033178 0.07465,-0.058061 0.721618,0.6137895 1.650596,0.6137895 1.053396,0 1.766719,-0.7796786 Q 61.060513,7.138926 61.209813,6.956448 61.63283,6.3426585 61.63283,5.5546855 Z"
       id="path884"
       style="fill:#d3dae3;stroke-width:0.165889;fill-opacity:1" />
  </g>
  <g
     id="slc-like">
    <rect
       style="opacity:0.00100002"
       width="22"
       height="22"
       x="22"
       y="0"
       id="rect2" />
    <path
       d="m 33.002507,19.000001 c 4.37434,-3.40888 6.59281,-5.31198 8.00815,-7.83192 1.99122,-3.54647 0.78459,-6.55262 -1.73613,-7.72988 a 4.7152277,4.7152277 0 0 0 -6.27202,2.31355 4.7152277,4.7152277 0 0 0 -6.27048,-2.312 c -2.51995,1.17648 -3.72658,4.18263 -1.73614,7.72988 1.41303,2.52226 3.63305,4.42226 8.00662,7.83037 z"
       fill="#ffffff"
       id="path42"
       style="fill:#d3dae3;fill-opacity:1;stroke-width:0.0772988" />
  </g>
  <g
     id="slc-connect">
    <rect
       style="opacity:0.00100002"
       width="22"
       height="22"
       x="0"
       y="0"
       id="rect12" />
    <path
       d="m 11.049437,18.997783 a 0.70456203,0.70456203 0 0 0 0.55903,-0.403092 l 3.9827,-7.96534 A 5.3086822,5.3086822 0 0 0 15.179362,5.1133378 5.1963883,5.1963883 0 0 0 6.3492085,10.521503 l 4.0564095,8.112457 a 0.65828384,0.65828385 0 0 0 0.643819,0.363823 z M 8.1692556,8.0766229 A 2.8279015,2.8279015 0 1 1 10.997158,10.904524 2.8310766,2.8310766 0 0 1 8.1692556,8.0766229 Z"
       id="path6"
       style="fill:#d3dae3;stroke-width:0.246134;fill-opacity:1" />
  </g>
</svg>
