<?xml version="1.0" encoding="UTF-8" standalone="no"?>
<svg
   xmlns:dc="http://purl.org/dc/elements/1.1/"
   xmlns:cc="http://creativecommons.org/ns#"
   xmlns:rdf="http://www.w3.org/1999/02/22-rdf-syntax-ns#"
   xmlns:svg="http://www.w3.org/2000/svg"
   xmlns="http://www.w3.org/2000/svg"
   xmlns:xlink="http://www.w3.org/1999/xlink"
   xmlns:sodipodi="http://sodipodi.sourceforge.net/DTD/sodipodi-0.dtd"
   xmlns:inkscape="http://www.inkscape.org/namespaces/inkscape"
   id="svg12"
   width="32"
   height="32"
   version="1.1"
   sodipodi:docname="start.svg"
   inkscape:version="1.0.2 (e86c870879, 2021-01-15)">
  <metadata
     id="metadata19">
    <rdf:RDF>
      <cc:Work
         rdf:about="">
        <dc:format>image/svg+xml</dc:format>
        <dc:type
           rdf:resource="http://purl.org/dc/dcmitype/StillImage" />
        <dc:title />
      </cc:Work>
    </rdf:RDF>
  </metadata>
  <defs
     id="g17">
    <linearGradient
       inkscape:collect="always"
       id="linearGradient845">
      <stop
         style="stop-color:#d3dae3;stop-opacity:1"
         offset="0"
         id="stop841" />
      <stop
         style="stop-color:#335c8f;stop-opacity:1"
         offset="1"
         id="stop843" />
    </linearGradient>
    <linearGradient
       id="linearGradient865"
       x1="0"
       x2="0"
       y1="0"
       y2="1">
      <stop
         offset="0%"
         style="stop-color:#096b83;stop-opacity:1"
         id="stop861" />
      <stop
         offset="100%"
         style="stop-color:#11c3ee;stop-opacity:1"
         id="stop863" />
    </linearGradient>
    <linearGradient
       inkscape:collect="always"
       xlink:href="#linearGradient845"
       id="linearGradient847"
       x1="5.9999996"
       y1="16"
       x2="25.092558"
       y2="16"
       gradientUnits="userSpaceOnUse"
       gradientTransform="rotate(90,15.546279,16)" />
    <linearGradient
       inkscape:collect="always"
       xlink:href="#linearGradient845"
       id="linearGradient855"
       x1="3.9000001"
       y1="11"
       x2="18.219418"
       y2="11"
       gradientUnits="userSpaceOnUse"
       gradientTransform="rotate(90,11.059709,11)" />
  </defs>
  <sodipodi:namedview
     pagecolor="#ffffff"
     bordercolor="#666666"
     borderopacity="1"
     objecttolerance="10"
     gridtolerance="10"
     guidetolerance="10"
     inkscape:pageopacity="0"
     inkscape:pageshadow="2"
     inkscape:window-width="1920"
     inkscape:window-height="1007"
     id="namedview15"
     showgrid="false"
     inkscape:zoom="10.092342"
     inkscape:cx="22.699166"
     inkscape:cy="12.824703"
     inkscape:window-x="0"
     inkscape:window-y="0"
     inkscape:window-maximized="1"
     inkscape:current-layer="svg12"
     inkscape:document-rotation="0"
     inkscape:lockguides="false">
    <inkscape:grid
       type="xygrid"
       id="grid1122"
       originx="0"
       originy="0" />
  </sodipodi:namedview>
  <g
     id="g16"
     transform="matrix(0.046875,0,0,0.046875,-59.692605,-9.860676)">
    <g
       id="g857" />
  </g>
  <g
     id="start-here-kde">
    <rect
       id="rect7"
       style="opacity:0.00100002"
       width="32"
       height="32"
       x="0"
       y="0" />
    <path
       d="m 19.755971,21.46868 c 0,2.25064 -1.82451,4.0776 -4.077597,4.0776 -2.250638,0 -4.077597,-1.82451 -4.077597,-4.0776 0,-2.25309 1.82451,-4.0776 4.077597,-4.0776 2.253087,0 4.077597,1.82451 4.077597,4.0776 z m -6.465379,-7.61396 c -0.702865,-1.45961 -2.78697,-1.91513 -4.6506648,-1.01634 -1.863694,0.89878 -2.806562,2.81146 -2.101248,4.27107 0.702865,1.4596 2.78697,1.91512 4.6506648,1.01633 1.863694,-0.89633 2.806562,-2.80901 2.101248,-4.27106 z m 9.786233,-0.23266 c -1.682468,-1.20736 -3.810655,-1.1192 -4.755972,0.19837 -0.945317,1.31757 -0.350208,3.36249 1.33226,4.56985 1.682468,1.20736 3.810655,1.11919 4.755972,-0.19837 0.945317,-1.31512 0.347759,-3.36004 -1.33226,-4.56985 z M 8.4097212,10.22529 c -0.453067,-0.5877705 -1.878389,-0.2498005 -3.18371,0.75674 -1.305321,1.00654 -1.993492,2.29962 -1.540426,2.88983 0.453067,0.58776 1.878389,0.2498 3.18371,-0.75675 1.305321,-1.00899 1.993492,-2.30206 1.540426,-2.88982 z M 13.22202,7.7493395 c -0.193472,-0.57797 -1.462058,-0.67348 -2.831053,-0.21306 -1.3714438,0.45796 -2.3265568,1.29797 -2.1330848,1.87594 0.193472,0.57796 1.462057,0.6734705 2.8310518,0.21306 1.371445,-0.46041 2.326557,-1.30042 2.133086,-1.87594 z m 0.455515,-0.8743 c 0,0.22776 0.84001,0.40654 1.873491,0.40164 1.033481,-0.005 1.868592,-0.19347 1.868592,-0.42123 0,-0.22776 -0.840009,-0.40653 -1.87349,-0.40163 -1.033481,0.007 -1.868593,0.19347 -1.868593,0.42122 z m 3.893922,1.03349 c -0.156737,0.58776 0.849805,1.36654 2.248189,1.73634 1.398383,0.3698005 2.657172,0.19347 2.81146,-0.39429 0.156736,-0.58776 -0.849805,-1.3641 -2.248189,-1.73634 -1.395934,-0.3698 -2.657173,-0.19348 -2.81146,0.39429 z m 6.955181,5.4784205 c 1.165727,1.14369 2.456354,1.71676 2.882481,1.28084 0.426128,-0.43348 -0.173879,-1.71431 -1.339607,-2.85555 -1.165727,-1.14368 -2.456354,-1.71675 -2.882481,-1.28083 -0.426128,0.43348 0.173879,1.71186 1.339607,2.85554 z M 12.38201,10.97468 c -0.04653,1.16083 1.388587,2.16248 3.210649,2.2384 1.819612,0.0735 3.335548,-0.80573 3.382079,-1.96656 0.04653,-1.16083 -1.388587,-2.1624705 -3.210649,-2.2383905 -1.819612,-0.0759 -3.333099,0.80572 -3.382079,1.9665505 z"
       id="path4"
       style="fill:url(#linearGradient847);fill-opacity:1;stroke-width:0.0244901" />
  </g>
  <g
     id="22-22-start-here-kde"
     transform="translate(-22,10)">
    <rect
       id="rect2"
       style="opacity:0.00100002"
       width="22"
       height="22"
       x="0"
       y="0" />
    <path
       d="m 14.216981,15.101509 c 0,1.68798 -1.368387,3.0582 -3.058198,3.0582 -1.6879799,0 -3.0581969,-1.368382 -3.0581969,-3.0582 0,-1.689817 1.368372,-3.0582 3.0581969,-3.0582 1.689811,0 3.058198,1.368383 3.058198,3.0582 z M 9.3679421,9.3910393 C 8.8407941,8.2963317 7.2777101,7.9546917 5.8799391,8.6287851 c -1.397759,0.674084 -2.10492,2.1085939 -1.57593,3.2033019 0.527143,1.0947 2.090227,1.43634 3.488003,0.762247 1.397766,-0.672247 2.104922,-2.106758 1.57593,-3.2032947 z M 16.707617,9.2165445 c -1.261851,-0.9055196 -2.857998,-0.8393994 -3.566978,0.1487777 -0.708994,0.9881768 -0.262661,2.5218668 0.999189,3.4273868 1.261862,0.90552 2.85799,0.839393 3.566989,-0.148777 0.708988,-0.98634 0.260819,-2.52003 -0.9992,-3.4273875 z M 5.7072911,6.668967 c -0.339808,-0.4408276 -1.408792,-0.18735 -2.387789,0.567555 -0.978986,0.7549049 -1.495115,1.724715 -1.155311,2.1673729 0.339799,0.4408202 1.408789,0.1873502 2.387773,-0.567563 0.978999,-0.7567429 1.49513,-1.726545 1.155327,-2.1673649 z m 3.609218,-1.8569621 c -0.145092,-0.433478 -1.09654,-0.5051099 -2.12329,-0.159796 -1.028575,0.3434706 -1.74492,0.973478 -1.599809,1.4069555 0.1451,0.4334706 1.096538,0.5051026 2.123291,0.159795 1.028586,-0.3453075 1.744917,-0.9753144 1.599808,-1.4069545 z m 0.341635,-0.655726 c 0,0.17082 0.6300089,0.304906 1.4051189,0.30123 0.775113,-0.0038 1.401443,-0.1451022 1.401443,-0.3159223 0,-0.17082 -0.630008,-0.3048977 -1.405108,-0.3012217 -0.775109,0.0052 -1.4014539,0.1451023 -1.4014539,0.315914 z M 12.578594,4.931397 c -0.117552,0.44082 0.637357,1.0249053 1.686138,1.302255 1.048788,0.2773495 1.992882,0.1451025 2.108603,-0.2957176 0.11755,-0.4408199 -0.637361,-1.0230749 -1.686151,-1.3022548 -1.04695,-0.2773507 -1.992871,-0.1451107 -2.10859,0.2957174 z m 5.216387,4.108815 c 0.874296,0.8577671 1.84226,1.28757 2.161858,0.96063 0.319596,-0.3251097 -0.13041,-1.2857327 -1.004712,-2.141663 -0.874296,-0.8577596 -1.84226,-1.287562 -2.161849,-0.960622 -0.319606,0.3251101 0.130401,1.2838953 1.004703,2.141655 z M 8.6864991,7.2310094 c -0.03495,0.8706229 1.041448,1.6218597 2.4079949,1.6787998 1.364706,0.05513 2.501663,-0.6042975 2.536559,-1.4749201 C 13.666013,6.564267 12.589618,5.813037 11.223058,5.7560969 9.8583521,5.6991679 8.7232381,6.360387 8.6864991,7.2310094 Z"
       id="path4-6"
       style="fill:url(#linearGradient855);fill-opacity:1;stroke-width:0.0183684" />
  </g>
</svg>
