<?xml version="1.0" encoding="UTF-8" standalone="no"?>
<svg
   xmlns:dc="http://purl.org/dc/elements/1.1/"
   xmlns:cc="http://creativecommons.org/ns#"
   xmlns:rdf="http://www.w3.org/1999/02/22-rdf-syntax-ns#"
   xmlns:svg="http://www.w3.org/2000/svg"
   xmlns="http://www.w3.org/2000/svg"
   xmlns:sodipodi="http://sodipodi.sourceforge.net/DTD/sodipodi-0.dtd"
   xmlns:inkscape="http://www.inkscape.org/namespaces/inkscape"
   width="32"
   height="32"
   version="1.1"
   id="svg12"
   sodipodi:docname="TeamViewer.svg"
   inkscape:version="1.0.2 (e86c870879, 2021-01-15)">
  <metadata
     id="metadata18">
    <rdf:RDF>
      <cc:Work
         rdf:about="">
        <dc:format>image/svg+xml</dc:format>
        <dc:type
           rdf:resource="http://purl.org/dc/dcmitype/StillImage" />
      </cc:Work>
    </rdf:RDF>
  </metadata>
  <defs
     id="defs16" />
  <sodipodi:namedview
     pagecolor="#ffffff"
     bordercolor="#666666"
     borderopacity="1"
     objecttolerance="10"
     gridtolerance="10"
     guidetolerance="10"
     inkscape:pageopacity="0"
     inkscape:pageshadow="2"
     inkscape:window-width="1920"
     inkscape:window-height="1007"
     id="namedview14"
     showgrid="false"
     inkscape:zoom="9.8125003"
     inkscape:cx="34.061009"
     inkscape:cy="14.071634"
     inkscape:window-x="0"
     inkscape:window-y="0"
     inkscape:window-maximized="1"
     inkscape:current-layer="svg12"
     inkscape:document-rotation="0">
    <inkscape:grid
       type="xygrid"
       id="grid864"
       originx="0"
       originy="0" />
  </sodipodi:namedview>
  <g
     id="TeamViewer">
    <rect
       style="opacity:0.00100002"
       width="32"
       height="32"
       x="0"
       y="0"
       id="rect7" />
    <polygon
       points="19.76,27.38 24.17,31.79 28.59,27.38 27.43,26.23 24.95,28.72 24.95,9.22 10.03,9.22 10.03,10.85 23.32,10.85 23.32,28.64 20.91,26.23 "
       id="polygon8"
       transform="matrix(0.50664978,0,0,0.50664978,7.881792,7.8936035)"
       style="fill:#4b8bd4;fill-opacity:1" />
    <polygon
       points="12.31,4.62 7.9,0.21 3.49,4.62 4.64,5.77 7.05,3.36 7.05,22.78 21.97,22.78 21.97,21.15 8.68,21.15 8.68,3.28 11.16,5.77 "
       id="polygon10"
       transform="matrix(0.50664978,0,0,0.50664978,7.881792,7.8936035)"
       style="fill:#d3dae3;fill-opacity:1" />
    <path
       d="M 24.485297,7.514746 C 22.218817,5.248193 19.2051,4 16,4 12.7949,4 9.78117,5.248193 7.5149,7.514746 5.24821,9.781298 4,12.794774 4,16.000001 c 0,3.205227 1.24821,6.218695 3.5149,8.485253 2.26627,2.266409 5.28,3.514747 8.4851,3.514747 3.2053,0 6.218817,-1.248338 8.485297,-3.514747 2.26634,-2.266558 3.5147,-5.280026 3.5147,-8.485253 0,-3.205227 -1.24836,-6.21885 -3.5147,-8.485255 z M 23.115,23.814651 c -2.209523,1.874207 -3.991502,2.760223 -7.115,2.73735 -3.315977,-0.02428 -4.545955,-0.647314 -7.115,-2.738 C 6.79759,21.726746 5.448,18.951957 5.448,16.000001 5.448,13.047904 6.840416,9.9095711 8.885,8.185 11.178791,6.169405 13.090681,5.470038 16,5.448 c 2.951865,-0.02236 4.927587,0.91947 7.115,2.737205 2.08737,2.087403 3.437,4.862699 3.437,7.814796 0,2.951956 -1.34963,5.727395 -3.437,7.81465 z"
       id="path2-36-912-3-5"
       style="fill:#d3dae3;fill-opacity:1;stroke-width:0.0374999"
       sodipodi:nodetypes="cscscscsccscscscsc" />
  </g>
  <g
     id="22-22-TeamViewer">
    <rect
       style="opacity:0.00100002"
       width="22"
       height="22"
       x="32"
       y="10.000001"
       id="rect2" />
    <polygon
       points="10.03,10.85 23.32,10.85 23.32,28.64 20.91,26.23 19.76,27.38 24.17,31.79 28.59,27.38 27.43,26.23 24.95,28.72 24.95,9.22 10.03,9.22 "
       id="polygon8-7"
       transform="matrix(0.33776658,0,0,0.33776658,37.587866,15.595737)"
       style="fill:#4b8bd4;fill-opacity:1" />
    <polygon
       points="21.97,21.15 8.68,21.15 8.68,3.28 11.16,5.77 12.31,4.62 7.9,0.21 3.49,4.62 4.64,5.77 7.05,3.36 7.05,22.78 21.97,22.78 "
       id="polygon10-5"
       transform="matrix(0.33776658,0,0,0.33776658,37.587866,15.595737)"
       style="fill:#d3dae3;fill-opacity:1" />
    <path
       d="M 48.656869,15.34316 C 47.145877,13.832127 45.136727,13.000001 43,13.000001 c -2.136728,0 -4.145884,0.832126 -5.656733,2.343159 C 35.83214,16.854199 35,18.86318 35,21.000001 c 0,2.136821 0.83214,4.145799 2.343267,5.656838 1.510849,1.510933 3.520005,2.343162 5.656733,2.343162 2.136872,0 4.145877,-0.832229 5.656869,-2.343162 1.510891,-1.511039 2.343127,-3.520017 2.343127,-5.656838 0,-2.136821 -0.832236,-4.145896 -2.343127,-5.656841 z M 47.743332,26.209769 C 46.27032,27.459242 45.082325,28.049916 43,28.034664 c -2.210645,-0.0162 -3.03064,-0.431543 -4.743334,-1.825325 -1.391606,-1.391503 -2.291332,-3.241368 -2.291332,-5.209338 0,-1.968069 0.928276,-4.060282 2.291332,-5.21 C 39.785858,14.446273 41.060453,13.980028 43,13.96534 c 1.967917,-0.01495 3.285054,0.612981 4.743332,1.824804 1.391584,1.391592 2.291328,3.241788 2.291328,5.209857 0,1.96797 -0.899744,3.818265 -2.291328,5.209768 z"
       id="path2-36-912-3-5-3"
       style="fill:#d3dae3;fill-opacity:1;stroke-width:0.0249998"
       sodipodi:nodetypes="cscscscsccscscscsc" />
  </g>
</svg>
