<?xml version="1.0" encoding="UTF-8" standalone="no"?>
<!-- Svg Vector Icons : http://www.onlinewebfonts.com/icon -->

<svg
   xmlns:dc="http://purl.org/dc/elements/1.1/"
   xmlns:cc="http://creativecommons.org/ns#"
   xmlns:rdf="http://www.w3.org/1999/02/22-rdf-syntax-ns#"
   xmlns:svg="http://www.w3.org/2000/svg"
   xmlns="http://www.w3.org/2000/svg"
   xmlns:sodipodi="http://sodipodi.sourceforge.net/DTD/sodipodi-0.dtd"
   xmlns:inkscape="http://www.inkscape.org/namespaces/inkscape"
   version="1.1"
   x="0px"
   y="0px"
   viewBox="0 0 1000 1000"
   enable-background="new 0 0 1000 1000"
   xml:space="preserve"
   id="svg10"
   sodipodi:docname="thunderbird.svg"
   inkscape:version="0.92.4 (5da689c313, 2019-01-14)"><defs
   id="defs14" /><sodipodi:namedview
   pagecolor="#ffffff"
   bordercolor="#666666"
   borderopacity="1"
   objecttolerance="10"
   gridtolerance="10"
   guidetolerance="10"
   inkscape:pageopacity="0"
   inkscape:pageshadow="2"
   inkscape:window-width="1920"
   inkscape:window-height="1017"
   id="namedview12"
   showgrid="false"
   inkscape:zoom="0.236"
   inkscape:cx="500"
   inkscape:cy="500"
   inkscape:window-x="0"
   inkscape:window-y="0"
   inkscape:window-maximized="1"
   inkscape:current-layer="svg10" />
<g
   id="thunderbird"
   transform="matrix(0.7902084,0,0,0.7902084,99.770637,110.23613)"><g
     transform="matrix(0.1,0,0,-0.1,0,252)"
     id="g6"><path
       d="m 3818,2318.1 c -293.9,-152.8 -544.7,-348.7 -791.5,-623 -176.3,-192 -325.2,-305.6 -654.4,-485.9 C 1302.3,613.6 742,-25.1 428.5,-1008.6 307,-1384.8 271.8,-2517.2 365.8,-3046.2 608.7,-4449 1443.4,-5636.3 2556.2,-6165.3 c 199.8,-94.1 246.9,-101.9 254.7,-54.9 15.7,74.5 78.4,74.5 266.4,-3.9 168.5,-66.6 156.7,-54.9 -98,141 -215.5,164.6 -372.3,380.1 -466.3,642.6 -164.6,438.8 -152.8,458.4 117.6,235.1 266.4,-227.3 775.8,-446.7 775.8,-337 0,15.7 -43.1,90.1 -98,164.6 -117.6,156.7 -121.5,195.9 -27.4,195.9 82.3,0 2989.8,-975.7 3040.7,-1022.7 90.2,-78.4 -325.2,-458.5 -956.1,-873.8 -254.7,-168.5 -313.5,-223.3 -262.5,-242.9 145,-54.9 1007,101.9 1344,242.9 313.5,133.3 250.8,19.6 -101.9,-180.2 l -215.3,-121.4 176.3,27.4 c 505.4,74.5 999.2,297.8 1363.6,615.2 141.1,121.5 274.3,207.7 305.6,195.9 121.5,-47 889.5,877.7 1132.4,1359.7 211.6,427.1 387.9,1011 517.2,1704.5 74.4,419.3 86.2,1696.7 15.7,2096.4 C 9488,-530.6 8966.8,374.6 8328.1,903.6 7901,1252.4 6968.4,1683.4 6353.2,1808.8 c -540.8,113.6 -1700.6,113.6 -2182.6,0 l -117.6,-27.4 133.2,145 c 192,199.8 121.5,219.4 -133.2,39.2 -325.2,-227.3 -450.6,-301.7 -478.1,-274.3 -31.3,31.4 156.7,274.3 407.5,525.1 172.4,172.4 188.1,203.8 117.5,203.8 C 4053.1,2420 3927.7,2373 3818,2318.1 Z M 2070.3,-342.5 c 62.7,-31.3 133.2,-109.7 156.7,-180.2 86.2,-242.9 35.3,-740.6 -74.4,-740.6 -23.5,0 -156.7,176.3 -297.8,395.8 -231.2,352.7 -254.7,403.6 -215.5,489.8 31.4,74.4 70.6,94 180.3,94 78.3,0 191.9,-27.5 250.7,-58.8 z m 1210.8,-141.1 c 15.7,-184.2 -74.5,-278.2 -242.9,-262.5 -98,7.8 -125.4,31.3 -133.2,113.6 -15.7,145 129.3,317.4 262.5,301.7 86.2,-11.7 101.9,-31.3 113.6,-152.8 z m -1398.9,-673.9 c 129.3,-192 250.8,-427.1 274.3,-521.2 35.3,-129.3 70.5,-188.1 137.1,-211.6 98,-39.2 211.6,-188.1 791.5,-1038.4 290,-423.2 364.4,-509.4 438.9,-497.6 47,3.9 619.1,219.5 1269.6,474.2 1461.6,576 1833.9,713.1 1971,721 l 109.7,7.8 -3.9,-450.6 c 0,-368.3 -15.6,-493.7 -90.1,-685.7 -152.8,-415.3 -152.8,-387.9 19.6,-313.5 199.9,82.3 450.6,278.2 583.9,458.5 62.7,78.4 129.3,137.1 148.9,121.5 101.9,-62.7 -133.2,-1077.6 -431,-1833.8 -74.5,-192 -227.3,-517.2 -337,-713.2 -235.1,-438.9 -199.9,-431 -913,-203.8 -948.2,297.8 -4423.9,1457.7 -4525.8,1508.6 -82.3,39.2 -125.4,117.6 -203.7,376.2 -117.6,368.3 -203.8,818.9 -246.9,1246.1 l -27.4,293.9 219.4,-203.8 c 121.5,-113.6 250.8,-207.7 293.9,-207.7 70.5,0 66.6,15.7 -23.5,286 -168.5,485.9 -121.5,1340.1 98,1763.3 54.8,109.7 58.8,109.7 137.1,39.2 43,-39.3 184,-227.4 309.4,-415.4 z m 2770.4,364.4 c 623,-70.5 1818.2,-321.3 1892.6,-395.8 78.4,-78.4 282.1,-693.6 246.8,-748.4 -11.7,-15.7 -78.4,-62.7 -145,-98 -242.9,-125.4 -3103.4,-1253.9 -3146.5,-1238.2 -43.1,15.7 -869.9,1246.1 -975.7,1453.7 -82.3,168.5 -62.7,211.6 129.3,313.5 86.2,43.1 239,145 344.8,223.4 219.5,168.5 372.3,246.9 740.6,384 431.1,156.7 450.7,160.6 913.1,105.8 z"
       id="path4"
       style="fill:#d3dae3;fill-opacity:1"
       inkscape:connector-curvature="0" /></g></g>
</svg>
