<?xml version="1.0" encoding="UTF-8" standalone="no"?>
<svg
   xmlns:dc="http://purl.org/dc/elements/1.1/"
   xmlns:cc="http://creativecommons.org/ns#"
   xmlns:rdf="http://www.w3.org/1999/02/22-rdf-syntax-ns#"
   xmlns:svg="http://www.w3.org/2000/svg"
   xmlns="http://www.w3.org/2000/svg"
   xmlns:sodipodi="http://sodipodi.sourceforge.net/DTD/sodipodi-0.dtd"
   xmlns:inkscape="http://www.inkscape.org/namespaces/inkscape"
   sodipodi:docname="update.svg"
   inkscape:version="1.0.2 (e86c870879, 2021-01-15)"
   id="svg846"
   version="1.1"
   viewBox="0 0 8.4666665 8.4666699"
   height="32.000011"
   width="32">
  <defs
     id="defs840" />
  <sodipodi:namedview
     inkscape:document-rotation="0"
     inkscape:snap-midpoints="true"
     inkscape:object-paths="true"
     inkscape:snap-intersection-paths="true"
     inkscape:snap-smooth-nodes="true"
     inkscape:window-maximized="1"
     inkscape:window-y="0"
     inkscape:window-x="0"
     inkscape:window-height="1007"
     inkscape:window-width="1920"
     units="px"
     showgrid="false"
     inkscape:current-layer="layer1"
     inkscape:document-units="px"
     inkscape:cy="0.34275345"
     inkscape:cx="70.900614"
     inkscape:zoom="5.6568543"
     inkscape:pageshadow="2"
     inkscape:pageopacity="0.0"
     borderopacity="1.0"
     bordercolor="#666666"
     pagecolor="#ffffff"
     id="base"
     inkscape:lockguides="false">
    <inkscape:grid
       id="grid1394"
       type="xygrid"
       originx="3.1999997e-06"
       originy="-5.8208376" />
  </sodipodi:namedview>
  <metadata
     id="metadata843">
    <rdf:RDF>
      <cc:Work
         rdf:about="">
        <dc:format>image/svg+xml</dc:format>
        <dc:type
           rdf:resource="http://purl.org/dc/dcmitype/StillImage" />
        <dc:title />
      </cc:Work>
    </rdf:RDF>
  </metadata>
  <style
     type="text/css"
     id="current-color-scheme" />
  <g
     transform="translate(0,-297)"
     id="layer1"
     inkscape:groupmode="layer"
     inkscape:label="Layer 1">
    <g
       id="update-none">
      <rect
         style="opacity:0.003;fill:#000000;fill-opacity:1;stroke:none;stroke-width:0.157018;stroke-miterlimit:4;stroke-dasharray:none;stroke-opacity:1"
         id="rect1396-6"
         width="8.4666672"
         height="8.46667"
         x="0"
         y="297"
         ry="1.8892064e-06" />
      <path
         d="m 5.613268,300.96234 -1.3229974,-1.32366 c -0.012435,-0.0124 -0.029229,-0.0193 -0.046816,-0.0193 -0.017587,0 -0.034386,0.007 -0.046816,0.0194 l -1.3190361,1.32353 c -0.018914,0.0189 -0.024468,0.0473 -0.014283,0.0721 0.010315,0.0247 0.034386,0.0407 0.061098,0.0407 h 0.7273578 v 1.65309 c 0,0.0365 0.029625,0.0661 0.066126,0.0661 h 1.0579801 c 0.0365,0 0.066126,-0.0296 0.066126,-0.0661 v -1.65309 H 5.566588 c 0.026712,0 0.050783,-0.0161 0.061098,-0.0409 0.010315,-0.0247 0.00449,-0.053 -0.014419,-0.0719 z"
         id="path2-3"
         style="fill:#d3dae3;fill-opacity:1;stroke-width:0.00619909" />
      <path
         d="m 6.2813473,299.1498 1.286619,0.65436 -0.388757,0.19074 c 0.160235,0.37847 0.250157,0.79441 0.250157,1.23185 0,1.75301 -1.421164,3.17497 -3.17497,3.17497 -0.561839,0 -1.089198,-0.14751 -1.546917,-0.40372 l 0.321147,-0.32107 c 0.369152,0.1852 0.784277,0.29208 1.22577,0.29208 1.514467,0 2.741589,-1.22781 2.741589,-2.74165 0,-0.40625 -0.09398,-0.78904 -0.252861,-1.13579 z m -2.07043,0.67362 z m 0,0 z m 0.04416,-1.33902 c -1.514466,0 -2.741589,1.22791 -2.741589,2.74235 0,0.40626 0.09398,0.78898 0.252862,1.13573 l 0.462453,0.94116 -1.28662205,-0.65445 0.38875805,-0.1907 c -0.160237,-0.37858 -0.250158,-0.79442 -0.250158,-1.23174 -6.76e-4,-1.75325 1.421166,-3.17503 3.174296,-3.17503 0.561839,0 1.089199,0.14734 1.546918,0.40357 l -0.321147,0.32121 c -0.369151,-0.18524 -0.784953,-0.2921 -1.225771,-0.2921 z"
         id="path4-9-3-36"
         sodipodi:nodetypes="cccssccsscccccccccccccccccccccccccccsscccccscc"
         style="fill:#d3dae3;fill-opacity:1;stroke-width:0.00676095" />
    </g>
    <g
       id="update-high">
      <rect
         style="opacity:0.003;fill:#000000;fill-opacity:1;stroke:none;stroke-width:0.157018;stroke-miterlimit:4;stroke-dasharray:none;stroke-opacity:1"
         id="rect1396-6-9"
         width="8.4666672"
         height="8.46667"
         x="8.4666672"
         y="296.99997"
         ry="1.8892064e-06" />
      <ellipse
         ry="1.0583333"
         rx="0.92604166"
         cy="303.08539"
         cx="14.684375"
         id="path844"
         style="opacity:0;fill:#000000;fill-opacity:1;stroke:none;stroke-width:0.10795;stroke-miterlimit:4;stroke-dasharray:none;stroke-opacity:1" />
      <path
         d="m 14.739019,299.14316 1.286619,0.65436 -0.388757,0.19074 c 0.160235,0.37847 0.250157,0.79441 0.250157,1.23185 0,1.75301 -1.421164,3.17497 -3.17497,3.17497 -0.561839,0 -1.089198,-0.14751 -1.546917,-0.40372 l 0.321147,-0.32107 c 0.369152,0.1852 0.784277,0.29208 1.22577,0.29208 1.514467,0 2.741589,-1.22781 2.741589,-2.74165 0,-0.40625 -0.09398,-0.78904 -0.252861,-1.13579 z m -2.07043,0.67362 z m 0,0 z m 0.04416,-1.33902 c -1.514466,0 -2.7415887,1.22791 -2.7415887,2.74235 0,0.40626 0.09398,0.78898 0.2528617,1.13573 l 0.462453,0.94116 -1.2866224,-0.65445 0.3887587,-0.1907 c -0.1602371,-0.37858 -0.2501586,-0.79442 -0.2501586,-1.23174 -6.763e-4,-1.75325 1.4211663,-3.17503 3.1742963,-3.17503 0.561839,0 1.089199,0.14734 1.546918,0.40357 l -0.321147,0.32121 c -0.369151,-0.18524 -0.784953,-0.2921 -1.225771,-0.2921 z"
         id="path4-9-3"
         sodipodi:nodetypes="cccssccsscccccccccccccccccccccccccccsscccccscc"
         style="fill:#d3dae3;fill-opacity:1;stroke-width:0.00676095" />
      <path
         d="m 14.167521,300.96234 -1.322997,-1.32366 c -0.01243,-0.0124 -0.02923,-0.0193 -0.04682,-0.0193 -0.01759,0 -0.03439,0.007 -0.04682,0.0194 l -1.319037,1.32353 c -0.01891,0.0189 -0.02447,0.0473 -0.01428,0.0721 0.01032,0.0247 0.03439,0.0407 0.0611,0.0407 h 0.727358 v 1.65309 c 0,0.0365 0.02962,0.0661 0.06613,0.0661 h 1.05798 c 0.0365,0 0.06613,-0.0296 0.06613,-0.0661 v -1.65309 h 0.724581 c 0.02671,0 0.05078,-0.0161 0.0611,-0.0409 0.01032,-0.0247 0.0045,-0.053 -0.01442,-0.0719 z"
         id="path2-3-7"
         style="fill:#ff557f;fill-opacity:1;stroke-width:0.00619908" />
    </g>
    <g
       id="update-medium">
      <rect
         style="opacity:0.003;fill:#000000;fill-opacity:1;stroke:none;stroke-width:0.157018;stroke-miterlimit:4;stroke-dasharray:none;stroke-opacity:1"
         id="rect1396-6-9-5"
         width="8.4666672"
         height="8.46667"
         x="16.933332"
         y="296.99997"
         ry="1.8892064e-06" />
      <path
         d="m 23.192938,299.14316 1.286619,0.65436 -0.388757,0.19074 c 0.160235,0.37847 0.250157,0.79441 0.250157,1.23185 0,1.75301 -1.421164,3.17497 -3.17497,3.17497 -0.561839,0 -1.089198,-0.14751 -1.546917,-0.40372 l 0.321147,-0.32107 c 0.369152,0.1852 0.784277,0.29208 1.22577,0.29208 1.514467,0 2.741589,-1.22781 2.741589,-2.74165 0,-0.40625 -0.09398,-0.78904 -0.252861,-1.13579 z m -2.07043,0.67362 z m 0,0 z m 0.04416,-1.33902 c -1.514466,0 -2.741589,1.22791 -2.741589,2.74235 0,0.40626 0.09398,0.78898 0.252862,1.13573 l 0.462453,0.94116 -1.286622,-0.65445 0.388758,-0.1907 c -0.160237,-0.37858 -0.250158,-0.79442 -0.250158,-1.23174 -6.77e-4,-1.75325 1.421166,-3.17503 3.174296,-3.17503 0.561839,0 1.089199,0.14734 1.546918,0.40357 l -0.321147,0.32121 c -0.369151,-0.18524 -0.784953,-0.2921 -1.225771,-0.2921 z"
         id="path4-9-3-3"
         sodipodi:nodetypes="cccssccsscccccccccccccccccccccccccccsscccccscc"
         style="fill:#d3dae3;fill-opacity:1;stroke-width:0.00676095" />
      <path
         d="m 22.546081,300.96234 -1.322997,-1.32366 c -0.01243,-0.0124 -0.02923,-0.0193 -0.04682,-0.0193 -0.01759,0 -0.03439,0.007 -0.04682,0.0194 l -1.319037,1.32353 c -0.01891,0.0189 -0.02447,0.0473 -0.01428,0.0721 0.01032,0.0247 0.03439,0.0407 0.0611,0.0407 h 0.727358 v 1.65309 c 0,0.0365 0.02962,0.0661 0.06613,0.0661 h 1.05798 c 0.0365,0 0.06613,-0.0296 0.06613,-0.0661 v -1.65309 h 0.724581 c 0.02671,0 0.05078,-0.0161 0.0611,-0.0409 0.01032,-0.0247 0.0045,-0.053 -0.01442,-0.0719 z"
         id="path2-3-7-5"
         style="fill:#ff9955;fill-opacity:1;stroke-width:0.00619908" />
    </g>
    <g
       id="update-low">
      <rect
         style="opacity:0.003;fill:#000000;fill-opacity:1;stroke:none;stroke-width:0.157018;stroke-miterlimit:4;stroke-dasharray:none;stroke-opacity:1"
         id="rect1396-6-9-1"
         width="8.4666672"
         height="8.46667"
         x="25.4"
         y="296.99997"
         ry="1.8892064e-06" />
      <path
         d="m 31.659651,299.14316 1.286619,0.65436 -0.388757,0.19074 c 0.160235,0.37847 0.250157,0.79441 0.250157,1.23185 0,1.75301 -1.421164,3.17497 -3.17497,3.17497 -0.561839,0 -1.089198,-0.14751 -1.546917,-0.40372 l 0.321147,-0.32107 c 0.369152,0.1852 0.784277,0.29208 1.22577,0.29208 1.514467,0 2.741589,-1.22781 2.741589,-2.74165 0,-0.40625 -0.09398,-0.78904 -0.252861,-1.13579 z m -2.07043,0.67362 z m 0,0 z m 0.04416,-1.33902 c -1.514466,0 -2.741589,1.22791 -2.741589,2.74235 0,0.40626 0.09398,0.78898 0.252862,1.13573 l 0.462453,0.94116 -1.286622,-0.65445 0.388758,-0.1907 c -0.160237,-0.37858 -0.250158,-0.79442 -0.250158,-1.23174 -6.77e-4,-1.75325 1.421166,-3.17503 3.174296,-3.17503 0.561839,0 1.089199,0.14734 1.546918,0.40357 l -0.321147,0.32121 c -0.369151,-0.18524 -0.784953,-0.2921 -1.225771,-0.2921 z"
         id="path4-9-3-3-3"
         sodipodi:nodetypes="cccssccsscccccccccccccccccccccccccccsscccccscc"
         style="fill:#d3dae3;fill-opacity:1;stroke-width:0.00676095" />
      <path
         d="m 31.062225,300.96234 -1.322997,-1.32366 c -0.01243,-0.0124 -0.02923,-0.0193 -0.04682,-0.0193 -0.01759,0 -0.03439,0.007 -0.04682,0.0194 l -1.319037,1.32353 c -0.01891,0.0189 -0.02447,0.0473 -0.01428,0.0721 0.01032,0.0247 0.03439,0.0407 0.0611,0.0407 h 0.727358 v 1.65309 c 0,0.0365 0.02962,0.0661 0.06613,0.0661 h 1.05798 c 0.0365,0 0.06613,-0.0296 0.06613,-0.0661 v -1.65309 h 0.724581 c 0.02671,0 0.05078,-0.0161 0.0611,-0.0409 0.01032,-0.0247 0.0045,-0.053 -0.01442,-0.0719 z"
         id="path2-3-7-5-3"
         style="fill:#4b8bd4;fill-opacity:1;stroke-width:0.00619908" />
    </g>
    <g
       id="22-22-update-none">
      <rect
         style="opacity:0.003;fill:#000000;fill-opacity:1;stroke:none;stroke-width:0.10795;stroke-miterlimit:4;stroke-dasharray:none;stroke-opacity:1"
         id="rect1396"
         width="5.8208332"
         height="5.8208332"
         x="0"
         y="291.17914"
         ry="1.2988289e-06" />
      <path
         d="m 4.3357173,292.61835 0.9113638,0.46358 -0.2753727,0.13505 c 0.1135015,0.26819 0.1771964,0.56272 0.1771964,0.87257 0,1.24182 -1.0066667,2.24896 -2.2489567,2.24896 -0.3979734,0 -0.7715224,-0.1044 -1.0957438,-0.28591 l 0.2274818,-0.22748 c 0.2614843,0.13122 0.5555344,0.20689 0.868262,0.20689 1.0727562,0 1.941976,-0.8697 1.941976,-1.94198 0,-0.28782 -0.066568,-0.55888 -0.179112,-0.80456 z m -1.4665676,0.47724 z m 0,0 z m 0.031277,-0.94849 c -1.0727561,0 -1.94197598,0.8697 -1.94197598,1.94245 0,0.28783 0.0665684,0.55889 0.17911198,0.80457 l 0.3275737,0.66664 -0.91136378,-0.46358 0.27537268,-0.13505 c -0.11350144,-0.26819 -0.17719633,-0.56272 -0.17719633,-0.87258 -4.7891e-4,-1.24181 1.00666673,-2.24895 2.24847773,-2.24895 0.3979734,0 0.7715224,0.1044 1.0957438,0.28591 L 3.768689,292.35399 C 3.5072047,292.22277 3.2126757,292.1471 2.9004267,292.1471 Z"
         id="path4"
         sodipodi:nodetypes="cccssccsscccccccccccccccccccccccccccsscccccscc"
         style="fill:#d3dae3;fill-opacity:1;stroke-width:0.00478909" />
      <path
         d="m 3.9387446,293.93201 -0.9922727,-0.99279 c -0.00935,-0.0104 -0.021922,-0.0138 -0.035117,-0.0138 -0.013189,0 -0.025787,0.007 -0.035115,0.0138 L 1.886938,293.9319 c -0.014182,0.0138 -0.01835,0.0353 -0.010714,0.0541 0.0077,0.0187 0.02579,0.0312 0.045828,0.0312 h 0.545532 v 1.23978 c 0,0.0275 0.022215,0.0498 0.049597,0.0498 h 0.793504 c 0.02738,0 0.049598,-0.0219 0.049598,-0.0498 v -1.23977 h 0.5434483 c 0.020035,0 0.038092,-0.0124 0.045828,-0.0311 0.0077,-0.0187 0.00336,-0.0402 -0.010819,-0.0539 z"
         id="path2-3-5"
         style="fill:#d3dae3;fill-opacity:1;stroke-width:0.00464939" />
    </g>
    <g
       id="22-22-update-high">
      <rect
         style="opacity:0.003;fill:#000000;fill-opacity:1;stroke:none;stroke-width:0.10795;stroke-miterlimit:4;stroke-dasharray:none;stroke-opacity:1"
         id="rect1396-3"
         width="5.8208332"
         height="5.8208332"
         x="5.8208332"
         y="291.17914"
         ry="1.2988288e-06" />
      <path
         d="m 10.16978,292.61835 0.911363,0.46358 -0.275372,0.13505 c 0.113501,0.26819 0.177196,0.56272 0.177196,0.87257 0,1.24182 -1.0066663,2.24896 -2.2489563,2.24896 -0.3979734,0 -0.7715223,-0.1044 -1.0957437,-0.28591 l 0.2274818,-0.22748 c 0.2614842,0.13122 0.5555344,0.20689 0.8682619,0.20689 1.0727562,0 1.9419763,-0.8697 1.9419763,-1.94198 0,-0.28782 -0.06657,-0.55888 -0.179112,-0.80456 z m -1.4665677,0.47724 z m 0,0 z m 0.031277,-0.94849 c -1.072756,0 -1.9419759,0.8697 -1.9419759,1.94245 0,0.28783 0.066568,0.55889 0.179112,0.80457 l 0.3275737,0.66664 -0.9113638,-0.46358 0.2753727,-0.13505 c -0.1135015,-0.26819 -0.1771964,-0.56272 -0.1771964,-0.87258 -4.789e-4,-1.24181 1.0066668,-2.24895 2.2484777,-2.24895 0.3979734,0 0.7715225,0.1044 1.0957437,0.28591 l -0.2274813,0.22748 C 9.3412674,292.22277 9.0467383,292.1471 8.7344893,292.1471 Z"
         id="path4-3"
         sodipodi:nodetypes="cccssccsscccccccccccccccccccccccccccsscccccscc"
         style="fill:#d3dae3;fill-opacity:1;stroke-width:0.00478909" />
      <path
         d="m 9.8124946,293.93201 -0.9922727,-0.99279 c -0.00935,-0.0104 -0.021922,-0.0138 -0.035117,-0.0138 -0.013189,0 -0.025787,0.007 -0.035115,0.0138 L 7.760688,293.9319 c -0.014182,0.0138 -0.01835,0.0353 -0.010714,0.0541 0.0077,0.0187 0.02579,0.0312 0.045828,0.0312 h 0.545532 v 1.23978 c 0,0.0275 0.022215,0.0498 0.049597,0.0498 h 0.793504 c 0.02738,0 0.049598,-0.0219 0.049598,-0.0498 v -1.23977 h 0.5434483 c 0.020035,0 0.038092,-0.0124 0.045827,-0.0311 0.0077,-0.0187 0.0034,-0.0402 -0.010818,-0.0539 z"
         id="path2-3-5-6"
         style="fill:#ff557f;fill-opacity:1;stroke-width:0.00464939" />
    </g>
    <g
       id="22-22-update-medium">
      <rect
         style="opacity:0.003;fill:#000000;fill-opacity:1;stroke:none;stroke-width:0.10795;stroke-miterlimit:4;stroke-dasharray:none;stroke-opacity:1"
         id="rect1396-3-1"
         width="5.8208332"
         height="5.8208332"
         x="11.641666"
         y="291.17914"
         ry="1.2988288e-06" />
      <path
         d="m 16.00384,292.61835 0.911363,0.46358 -0.275372,0.13505 c 0.113501,0.26819 0.177196,0.56272 0.177196,0.87257 0,1.24182 -1.006667,2.24896 -2.248957,2.24896 -0.397973,0 -0.771522,-0.1044 -1.095743,-0.28591 l 0.227481,-0.22748 c 0.261485,0.13122 0.555535,0.20689 0.868262,0.20689 1.072757,0 1.941976,-0.8697 1.941976,-1.94198 0,-0.28782 -0.06657,-0.55888 -0.179111,-0.80456 z m -1.466568,0.47724 z m 0,0 z m 0.03128,-0.94849 c -1.072756,0 -1.941976,0.8697 -1.941976,1.94245 0,0.28783 0.06657,0.55889 0.179112,0.80457 l 0.327574,0.66664 -0.911364,-0.46358 0.275373,-0.13505 c -0.113502,-0.26819 -0.177197,-0.56272 -0.177197,-0.87258 -4.79e-4,-1.24181 1.006667,-2.24895 2.248478,-2.24895 0.397973,0 0.771523,0.1044 1.095744,0.28591 l -0.227482,0.22748 c -0.261484,-0.13122 -0.556013,-0.20689 -0.868262,-0.20689 z"
         id="path4-7"
         sodipodi:nodetypes="cccssccsscccccccccccccccccccccccccccsscccccscc"
         style="fill:#d3dae3;fill-opacity:1;stroke-width:0.00478909" />
      <path
         d="m 15.626445,293.93201 -0.992272,-0.99279 c -0.0094,-0.0104 -0.02192,-0.0138 -0.03512,-0.0138 -0.01319,0 -0.02579,0.007 -0.03511,0.0138 l -0.989302,0.99268 c -0.01418,0.0138 -0.01835,0.0353 -0.01071,0.0541 0.0077,0.0187 0.02579,0.0312 0.04583,0.0312 h 0.545532 v 1.23978 c 0,0.0275 0.02222,0.0498 0.0496,0.0498 h 0.793504 c 0.02738,0 0.0496,-0.0219 0.0496,-0.0498 v -1.23977 h 0.543448 c 0.02004,0 0.03809,-0.0124 0.04583,-0.0311 0.0077,-0.0187 0.0034,-0.0402 -0.01082,-0.0539 z"
         id="path2-3-5-6-2"
         style="fill:#ff9955;fill-opacity:1;stroke-width:0.00464939" />
    </g>
    <g
       id="22-22-update-low">
      <rect
         style="opacity:0.003;fill:#000000;fill-opacity:1;stroke:none;stroke-width:0.10795;stroke-miterlimit:4;stroke-dasharray:none;stroke-opacity:1"
         id="rect1396-3-2"
         width="5.8208332"
         height="5.8208332"
         x="17.4625"
         y="291.17914"
         ry="1.2988288e-06" />
      <path
         d="m 21.824673,292.61835 0.911363,0.46358 -0.275372,0.13505 c 0.113501,0.26819 0.177196,0.56272 0.177196,0.87257 0,1.24182 -1.006667,2.24896 -2.248957,2.24896 -0.397973,0 -0.771522,-0.1044 -1.095743,-0.28591 l 0.227481,-0.22748 c 0.261485,0.13122 0.555535,0.20689 0.868262,0.20689 1.072757,0 1.941976,-0.8697 1.941976,-1.94198 0,-0.28782 -0.06657,-0.55888 -0.179111,-0.80456 z m -1.466568,0.47724 z m 0,0 z m 0.03128,-0.94849 c -1.072756,0 -1.941976,0.8697 -1.941976,1.94245 0,0.28783 0.06657,0.55889 0.179112,0.80457 l 0.327574,0.66664 -0.911364,-0.46358 0.275373,-0.13505 c -0.113502,-0.26819 -0.177197,-0.56272 -0.177197,-0.87258 -4.79e-4,-1.24181 1.006667,-2.24895 2.248478,-2.24895 0.397973,0 0.771523,0.1044 1.095744,0.28591 l -0.227482,0.22748 c -0.261484,-0.13122 -0.556013,-0.20689 -0.868262,-0.20689 z"
         id="path4-35"
         sodipodi:nodetypes="cccssccsscccccccccccccccccccccccccccsscccccscc"
         style="fill:#d3dae3;fill-opacity:1;stroke-width:0.00478909" />
      <path
         d="m 21.42082,293.93201 -0.992272,-0.99279 c -0.0094,-0.0104 -0.02192,-0.0138 -0.03512,-0.0138 -0.01319,0 -0.02579,0.007 -0.03511,0.0138 l -0.989302,0.99268 c -0.01418,0.0138 -0.01835,0.0353 -0.01071,0.0541 0.0077,0.0187 0.02579,0.0312 0.04583,0.0312 h 0.545532 v 1.23978 c 0,0.0275 0.02222,0.0498 0.0496,0.0498 h 0.793504 c 0.02738,0 0.0496,-0.0219 0.0496,-0.0498 v -1.23977 h 0.543448 c 0.02004,0 0.03809,-0.0124 0.04583,-0.0311 0.0077,-0.0187 0.0034,-0.0402 -0.01082,-0.0539 z"
         id="path2-3-5-6-2-9"
         style="fill:#4b8bd4;fill-opacity:1;stroke-width:0.00464939" />
    </g>
  </g>
</svg>
