<?xml version="1.0" encoding="UTF-8" standalone="no"?>
<svg
   xmlns:dc="http://purl.org/dc/elements/1.1/"
   xmlns:cc="http://creativecommons.org/ns#"
   xmlns:rdf="http://www.w3.org/1999/02/22-rdf-syntax-ns#"
   xmlns:svg="http://www.w3.org/2000/svg"
   xmlns="http://www.w3.org/2000/svg"
   xmlns:sodipodi="http://sodipodi.sourceforge.net/DTD/sodipodi-0.dtd"
   xmlns:inkscape="http://www.inkscape.org/namespaces/inkscape"
   id="svg4153"
   version="1.1"
   width="22"
   height="22"
   sodipodi:docname="user.svg"
   inkscape:version="1.0.2 (e86c870879, 2021-01-15)">
  <metadata
     id="metadata48">
    <rdf:RDF>
      <cc:Work
         rdf:about="">
        <dc:format>image/svg+xml</dc:format>
        <dc:type
           rdf:resource="http://purl.org/dc/dcmitype/StillImage" />
        <dc:title />
      </cc:Work>
    </rdf:RDF>
  </metadata>
  <sodipodi:namedview
     pagecolor="#ffffff"
     bordercolor="#000000"
     borderopacity="1"
     objecttolerance="10"
     gridtolerance="10"
     guidetolerance="10"
     inkscape:pageopacity="0"
     inkscape:pageshadow="2"
     inkscape:window-width="1920"
     inkscape:window-height="1007"
     id="namedview46"
     showgrid="false"
     inkscape:lockguides="false"
     inkscape:zoom="5.0461711"
     inkscape:cx="86.331005"
     inkscape:cy="24.89911"
     inkscape:window-x="0"
     inkscape:window-y="0"
     inkscape:window-maximized="1"
     inkscape:current-layer="svg4153"
     inkscape:document-rotation="0" />
  <defs
     id="defs4157">
    <style
       type="text/css"
       id="current-color-scheme">.ColorScheme-Text{color:#dfdfdf}.ColorScheme-Background{color:#eff0f1}</style>
  </defs>
  <g
     id="user-away"
     fill-opacity="1"
     stroke="none"
     transform="translate(88)">
    <path
       id="rect4562"
       opacity="0.97"
       fill="none"
       d="m -44,0 h 22 v 22 h -22 z" />
    <path
       id="path4149"
       d="m -33,3 a 4,4 0 0 0 -4,4 4,4 0 0 0 4,4 4,4 0 0 0 4,-4 4,4 0 0 0 -4,-4 z m 0,1 a 3,3 0 0 1 3,3 3,3 0 0 1 -3,3 3,3 0 0 1 -3,-3 3,3 0 0 1 3,-3 z"
       opacity="1"
       fill="#fdbc4b"
       style="fill:#d4aa00" />
    <path
       id="ellipse4156"
       d="m -33,12 a 8,8 0 0 0 -7.928,7 h 1.008 a 7,7 0 0 1 6.92,-6 7,7 0 0 1 1,0.08 V 12.07 A 8,8 0 0 0 -33,12 Z"
       opacity="1"
       fill="#fdbc4b"
       style="fill:#d4aa00" />
    <path
       id="path4227"
       d="m -25,11 -8,4 2,1 1,3 1,-2 2,1 z"
       fill="#fdbc4b"
       fill-rule="evenodd"
       stroke-width="1"
       stroke-linecap="butt"
       stroke-linejoin="miter"
       stroke-opacity="1"
       style="fill:#d4aa00" />
  </g>
  <g
     id="user-busy"
     transform="translate(88)">
    <path
       id="rect4560"
       opacity="0.97"
       fill="none"
       fill-opacity="1"
       stroke="none"
       d="m -66,0 h 22 v 22 h -22 z" />
    <path
       id="path4149-4"
       d="m -55,3 a 4,4 0 0 0 -4,4 4,4 0 0 0 4,4 4,4 0 0 0 4,-4 4,4 0 0 0 -4,-4 z m 0,1 a 3,3 0 0 1 3,3 3,3 0 0 1 -3,3 3,3 0 0 1 -3,-3 3,3 0 0 1 3,-3 z"
       opacity="1"
       fill="#f47750"
       fill-opacity="1"
       stroke="none"
       style="fill:#ff9955" />
    <path
       id="ellipse4156-7"
       d="m -55,12 a 8,8 0 0 0 -7.928,7 h 1.008 a 7,7 0 0 1 6.92,-6 7,7 0 0 1 1,0.08 V 12.07 A 8,8 0 0 0 -55,12 Z"
       opacity="1"
       fill="#f47750"
       fill-opacity="1"
       stroke="none"
       style="fill:#ff9955" />
    <path
       id="path4169"
       d="M -50.5,12 A 3.5,3.5 0 0 0 -54,15.5 3.5,3.5 0 0 0 -50.5,19 3.5,3.5 0 0 0 -47,15.5 3.5,3.5 0 0 0 -50.5,12 Z"
       opacity="1"
       fill="#f47750"
       fill-opacity="1"
       stroke="none"
       style="fill:#ff9955" />
    <path
       id="rect4146"
       d="m -51,13 v 3 h 2 v -1 h -1 v -2 z"
       class="ColorScheme-Background"
       opacity="1"
       fill="currentColor"
       fill-opacity="1"
       stroke="none"
       style="fill:#d3dae3;fill-opacity:1" />
  </g>
  <g
     id="user-invisible"
     transform="translate(88)">
    <path
       id="rect4556"
       opacity="0.97"
       fill="none"
       fill-opacity="1"
       stroke="none"
       d="M 22,0 H 44 V 22 H 22 Z" />
    <path
       id="path4149-7"
       d="m 33,3 a 4,4 0 0 0 -4,4 4,4 0 0 0 4,4 4,4 0 0 0 4,-4 4,4 0 0 0 -4,-4 z m 0,1 a 3,3 0 0 1 3,3 3,3 0 0 1 -3,3 3,3 0 0 1 -3,-3 3,3 0 0 1 3,-3 z"
       class="ColorScheme-Text"
       opacity="1"
       fill="currentColor"
       fill-opacity="1"
       stroke="none"
       style="fill:#d0dae1;fill-opacity:1" />
    <path
       id="ellipse4156-0"
       d="m 33,12 a 8,8 0 0 0 -7.928,7 H 26.08 A 7,7 0 0 1 33,13 7,7 0 0 1 34,13.08 V 12.07 A 8,8 0 0 0 33,12 Z"
       class="ColorScheme-Text"
       opacity="1"
       fill="currentColor"
       fill-opacity="1"
       stroke="none"
       style="fill:#d0d9e1;fill-opacity:1" />
    <circle
       r="3.5"
       cy="15.5"
       cx="37.5"
       id="path4167"
       opacity="1"
       fill="#666666"
       fill-opacity="1"
       stroke="none"
       style="fill:#59748c;fill-opacity:1" />
    <path
       transform="rotate(45)"
       id="rect4152"
       class="ColorScheme-Background"
       opacity="1"
       fill="currentColor"
       fill-opacity="1"
       stroke="none"
       d="m 36.977,-17.885 h 1 v 4.657 h -1 z"
       style="fill:#d3dae3;fill-opacity:1" />
  </g>
  <g
     id="user-offline"
     transform="translate(88)">
    <path
       id="rect4564"
       opacity="0.97"
       fill="none"
       fill-opacity="1"
       stroke="none"
       d="M -22,0 H 0 v 22 h -22 z" />
    <circle
       cy="15.5"
       cx="-6.5"
       id="path4146"
       class="ColorScheme-Background"
       opacity="1"
       fill="currentColor"
       fill-opacity="1"
       stroke="none"
       r="3.25" />
    <path
       id="path4149-3"
       d="m -11,3 a 4,4 0 0 0 -4,4 4,4 0 0 0 4,4 4,4 0 0 0 4,-4 4,4 0 0 0 -4,-4 z m 0,1 a 3,3 0 0 1 3,3 3,3 0 0 1 -3,3 3,3 0 0 1 -3,-3 3,3 0 0 1 3,-3 z"
       class="ColorScheme-Text"
       opacity="1"
       fill="#bdc3c7"
       fill-opacity="1"
       stroke="none"
       style="fill:#a1b0c3;fill-opacity:1" />
    <path
       id="ellipse4156-75"
       d="m -11,12 a 8,8 0 0 0 -7.928,7 h 1.008 a 7,7 0 0 1 6.92,-6 7,7 0 0 1 1,0.08 V 12.07 A 8,8 0 0 0 -11,12 Z"
       class="ColorScheme-Text"
       opacity="1"
       fill="#bdc3c7"
       fill-opacity="1"
       stroke="none"
       style="fill:#a1b0c3;fill-opacity:1" />
    <path
       id="path4167-8"
       d="M -6.5,12 A 3.5,3.5 0 0 0 -10,15.5 3.5,3.5 0 0 0 -6.5,19 3.5,3.5 0 0 0 -3,15.5 3.5,3.5 0 0 0 -6.5,12 Z m 0,1 A 2.5,2.5 0 0 1 -4,15.5 2.5,2.5 0 0 1 -6.5,18 2.5,2.5 0 0 1 -9,15.5 2.5,2.5 0 0 1 -6.5,13 Z"
       opacity="1"
       fill="#bdc3c7"
       fill-opacity="1"
       stroke="none"
       style="fill:#a1b0c3;fill-opacity:1" />
    <path
       transform="rotate(90)"
       id="rect4152-8"
       opacity="1"
       fill="#bdc3c7"
       fill-opacity="1"
       stroke="none"
       d="m 15,5 h 1 v 3 h -1 z"
       style="fill:#a1b0c3;fill-opacity:1" />
  </g>
  <g
     id="user-online"
     transform="translate(88)">
    <path
       id="rect4554"
       opacity="0.97"
       fill="none"
       fill-opacity="1"
       stroke="none"
       d="M 0,0 H 22 V 22 H 0 Z" />
    <path
       id="path4149-8"
       d="m 10.964,3 a 4,4 0 0 0 -4,4 4,4 0 0 0 4,4 4,4 0 0 0 4,-4 4,4 0 0 0 -4,-4 z m 0,1 a 3,3 0 0 1 3,3 3,3 0 0 1 -3,3 3,3 0 0 1 -3,-3 3,3 0 0 1 3,-3 z"
       opacity="1"
       fill="#43be80"
       fill-opacity="1"
       stroke="none"
       style="fill:#4b8bd4;fill-opacity:1" />
    <path
       id="ellipse4156-8"
       d="m 10.964,12 a 8,8 0 0 0 -7.928,7 h 1.008 a 7,7 0 0 1 6.92,-6 7,7 0 0 1 1,0.08 v -1.01 a 8,8 0 0 0 -1,-0.07 z"
       opacity="1"
       fill="#43be80"
       fill-opacity="1"
       stroke="none"
       style="fill:#4b8bd4;fill-opacity:1" />
    <circle
       r="3.5"
       cy="15.5"
       cx="15.464"
       id="path4144"
       opacity="1"
       fill="#43be80"
       fill-opacity="1"
       stroke="none"
       style="fill:#4b8bd4;fill-opacity:1" />
    <path
       id="path4166"
       d="m 16.964,14 1,1 -3,3 -2,-2 1,-1 1,1 z"
       class="ColorScheme-Background"
       fill="currentColor"
       fill-rule="evenodd"
       stroke="none"
       stroke-width="1"
       stroke-linecap="butt"
       stroke-linejoin="miter"
       stroke-opacity="1"
       style="fill:#d3dae3;fill-opacity:1" />
  </g>
  <g
     id="user-identity"
     transform="translate(88)">
    <path
       id="rect4585"
       opacity="0.97"
       fill="none"
       fill-opacity="1"
       stroke="none"
       d="m -88,0 h 22 v 22 h -22 z" />
    <path
       id="path4149-2"
       d="m -77,3 a 4,4 0 0 0 -4,4 4,4 0 0 0 4,4 4,4 0 0 0 4,-4 4,4 0 0 0 -4,-4 z m 0,1 a 3,3 0 0 1 3,3 3,3 0 0 1 -3,3 3,3 0 0 1 -3,-3 3,3 0 0 1 3,-3 z m 0,8 a 8,8 0 0 0 -7.928,7 h 1.008 a 7,7 0 0 1 6.92,-6 7,7 0 0 1 6.922,6 h 1.008 A 8,8 0 0 0 -77,12 Z"
       class="ColorScheme-Text"
       opacity="1"
       fill="currentColor"
       fill-opacity="1"
       stroke="none"
       style="fill:#d3dae3;fill-opacity:1" />
  </g>
  <g
     id="user-away-extended"
     transform="translate(88)">
    <path
       id="rect4649"
       opacity="0.97"
       fill="none"
       fill-opacity="1"
       stroke="none"
       d="M 44,0 H 66 V 22 H 44 Z" />
    <circle
       id="circle4653"
       cx="59.5"
       cy="15.5"
       r="3.5"
       opacity="1"
       fill="#9b59b6"
       fill-opacity="1"
       stroke="none"
       style="fill:#aa87de" />
    <path
       d="m 55,3 a 4,4 0 0 0 -4,4 4,4 0 0 0 4,4 4,4 0 0 0 4,-4 4,4 0 0 0 -4,-4 z m 0,1 a 3,3 0 0 1 3,3 3,3 0 0 1 -3,3 3,3 0 0 1 -3,-3 3,3 0 0 1 3,-3 z"
       id="path4655"
       opacity="1"
       fill="#9b59b6"
       fill-opacity="1"
       stroke="none"
       style="fill:#aa87de" />
    <path
       d="m 55,12 a 8,8 0 0 0 -7.928,7 H 48.08 A 7,7 0 0 1 55,13 7,7 0 0 1 56,13.08 V 12.07 A 8,8 0 0 0 55,12 Z"
       id="path4657"
       opacity="1"
       fill="#9b59b6"
       fill-opacity="1"
       stroke="none"
       style="fill:#aa87de" />
    <circle
       r="0.5"
       cy="-57.5"
       cx="15.5"
       id="circle4659"
       transform="rotate(90)"
       class="ColorScheme-Background"
       opacity="0.7"
       fill="currentColor"
       fill-opacity="1"
       stroke="none"
       style="opacity:1" />
    <circle
       id="circle4661"
       cx="59.5"
       cy="15.5"
       r="0.5"
       class="ColorScheme-Background"
       opacity="0.4"
       fill="currentColor"
       fill-opacity="1"
       stroke="none"
       style="opacity:0.6" />
    <circle
       id="circle4663"
       cx="61.5"
       cy="15.5"
       r="0.5"
       class="ColorScheme-Background"
       opacity="0.3"
       fill="currentColor"
       fill-opacity="1"
       stroke="none"
       style="opacity:0.4" />
  </g>
</svg>
