<?xml version="1.0" encoding="UTF-8" standalone="no"?>
<svg
   xmlns:dc="http://purl.org/dc/elements/1.1/"
   xmlns:cc="http://creativecommons.org/ns#"
   xmlns:rdf="http://www.w3.org/1999/02/22-rdf-syntax-ns#"
   xmlns:svg="http://www.w3.org/2000/svg"
   xmlns="http://www.w3.org/2000/svg"
   xmlns:sodipodi="http://sodipodi.sourceforge.net/DTD/sodipodi-0.dtd"
   xmlns:inkscape="http://www.inkscape.org/namespaces/inkscape"
   width="32"
   height="32"
   version="1"
   id="svg12"
   sodipodi:docname="utilities.svg"
   inkscape:version="1.0.2 (e86c870879, 2021-01-15)">
  <metadata
     id="metadata18">
    <rdf:RDF>
      <cc:Work
         rdf:about="">
        <dc:format>image/svg+xml</dc:format>
        <dc:type
           rdf:resource="http://purl.org/dc/dcmitype/StillImage" />
      </cc:Work>
    </rdf:RDF>
  </metadata>
  <defs
     id="defs16" />
  <sodipodi:namedview
     pagecolor="#ffffff"
     bordercolor="#666666"
     borderopacity="1"
     objecttolerance="10"
     gridtolerance="10"
     guidetolerance="10"
     inkscape:pageopacity="0"
     inkscape:pageshadow="2"
     inkscape:window-width="1920"
     inkscape:window-height="1007"
     id="namedview14"
     showgrid="false"
     inkscape:zoom="6.9384855"
     inkscape:cx="54.081853"
     inkscape:cy="15.215955"
     inkscape:window-x="0"
     inkscape:window-y="0"
     inkscape:window-maximized="1"
     inkscape:current-layer="svg12"
     inkscape:document-rotation="0"
     inkscape:lockguides="false">
    <inkscape:grid
       type="xygrid"
       id="grid852"
       originx="-1e-06"
       originy="-4.6325683e-08" />
  </sodipodi:namedview>
  <g
     id="utilities-terminal">
    <rect
       style="opacity:0.00100002"
       width="32"
       height="32"
       x="0"
       y="0"
       id="rect7" />
    <path
       d="m 14.830469,19.072128 -4.196874,3.756208 c -0.754342,0.675006 -1.8856,-0.33773 -1.131259,-1.012735 l 3.630997,-3.24984 -3.630997,-3.249839 c -0.754339,-0.675001 0.376911,-1.687734 1.131251,-1.012734 l 4.196882,3.756207 c 0.312501,0.279642 0.312501,0.733091 0,1.012733 z m 6.044267,2.533816 h -5.934891 c -1.066666,0 -1.066666,1.432046 0,1.432046 h 5.934896 c 1.066666,0 1.066666,-1.432046 0,-1.432046 z M 5.193371,5.2 26.796917,5.1947503 c 0.657521,-2.754e-4 1.203082,0.458611 1.203082,1.229975 L 28,26.170328 c 5e-6,0.281865 -0.255292,0.510362 -0.570214,0.51036 H 4.570216 C 4.255293,26.68069 3.999997,26.452193 4,26.170328 V 6.3933715 C 4,5.6773486 4.477349,5.2 5.193371,5.2 Z M 5.333333,25.487316 H 26.666666 V 8.302766 H 5.333333 Z"
       id="path4"
       sodipodi:nodetypes="cccccccccssssccccccccccccccc"
       style="fill:#d3dae3;fill-opacity:1;stroke-width:0.252284" />
  </g>
  <g
     id="22-22-utilities-terminal"
     transform="translate(32,10.000001)">
    <rect
       style="opacity:0.00100002"
       width="22"
       height="22"
       x="0"
       y="0"
       id="rect2" />
    <path
       d="M 10.220312,13.048086 7.4223959,15.552224 C 6.9195013,16.002228 6.1653307,15.32707 6.668224,14.877067 L 9.088888,12.710507 6.668224,10.543945 C 6.1653321,10.093952 6.9194973,9.4188 7.422392,9.86879 l 2.79792,2.504141 c 0.208336,0.186426 0.208336,0.488725 0,0.675155 z m 4.029521,1.68921 H 10.29323 c -0.71111,0 -0.71111,0.954697 0,0.954697 h 3.956608 c 0.711092,0 0.711092,-0.954697 0,-0.954697 z M 3.7955799,3.8 18.196725,3.7979547 c 0.565392,0.010362 0.803274,0.2896039 0.803274,0.7631783 L 19,17.780218 c 5e-6,0.187911 -0.170192,0.340242 -0.380136,0.34024 H 3.380144 C 3.1701961,18.12046 2.999998,17.968129 3,17.780218 V 4.595589 C 3,4.118229 3.318232,3.8 3.7955799,3.8 Z m 0.09331,13.524877 H 18.11112 V 5.868517 H 3.888888 Z"
       id="path4-3"
       sodipodi:nodetypes="cccccccccssssccccccccccccccc"
       style="fill:#d3dae3;fill-opacity:1;stroke-width:0.168195" />
  </g>
</svg>
