<?xml version="1.0" encoding="UTF-8" standalone="no"?>
<svg
   xmlns:dc="http://purl.org/dc/elements/1.1/"
   xmlns:cc="http://creativecommons.org/ns#"
   xmlns:rdf="http://www.w3.org/1999/02/22-rdf-syntax-ns#"
   xmlns:svg="http://www.w3.org/2000/svg"
   xmlns="http://www.w3.org/2000/svg"
   xmlns:sodipodi="http://sodipodi.sourceforge.net/DTD/sodipodi-0.dtd"
   xmlns:inkscape="http://www.inkscape.org/namespaces/inkscape"
   width="32"
   height="32"
   version="1.1"
   id="svg12"
   sodipodi:docname="video.svg"
   inkscape:version="1.0.2 (e86c870879, 2021-01-15)">
  <metadata
     id="metadata18">
    <rdf:RDF>
      <cc:Work
         rdf:about="">
        <dc:format>image/svg+xml</dc:format>
        <dc:type
           rdf:resource="http://purl.org/dc/dcmitype/StillImage" />
      </cc:Work>
    </rdf:RDF>
  </metadata>
  <defs
     id="defs16" />
  <sodipodi:namedview
     pagecolor="#ffffff"
     bordercolor="#666666"
     borderopacity="1"
     objecttolerance="10"
     gridtolerance="10"
     guidetolerance="10"
     inkscape:pageopacity="0"
     inkscape:pageshadow="2"
     inkscape:window-width="1920"
     inkscape:window-height="1007"
     id="namedview14"
     showgrid="false"
     inkscape:zoom="9.8125003"
     inkscape:cx="32.212949"
     inkscape:cy="12.389201"
     inkscape:window-x="0"
     inkscape:window-y="0"
     inkscape:window-maximized="1"
     inkscape:current-layer="svg12"
     inkscape:document-rotation="0"
     inkscape:lockguides="false">
    <inkscape:grid
       type="xygrid"
       id="grid988"
       originx="0"
       originy="-1.3897705e-07" />
  </sodipodi:namedview>
  <g
     id="video-display-brightness"
     transform="translate(32,10.000003)">
    <rect
       style="opacity:0.00100002"
       width="32"
       height="32"
       x="-32"
       y="-10.000003"
       id="rect7" />
    <path
       d="m -12.872827,2.9791297 a 0.76693863,0.76693863 0 0 1 0,-0.9052928 l 0.683208,-0.9292308 a 0.76693863,0.76693863 0 0 0 -0.702011,-1.21617 l -1.144437,0.1247795 a 0.76693863,0.76693863 0 0 1 -0.787418,-0.4560613 l -0.464599,-1.0539001 a 0.76693863,0.76693863 0 0 0 -1.40407,0 l -0.464599,1.0539001 a 0.76693863,0.76693863 0 0 1 -0.784049,0.4526493 l -1.144425,-0.1247951 a 0.76693863,0.76693863 0 0 0 -0.702022,1.2161699 l 0.683256,0.9292207 a 0.76693863,0.76693863 0 0 1 0,0.9052872 l -0.683256,0.9292086 a 0.76693863,0.76693863 0 0 0 0.702022,1.21617 l 1.144425,-0.1246301 a 0.76693863,0.76693863 0 0 1 0.784049,0.4526555 l 0.464599,1.0539 a 0.76693863,0.76693863 0 0 0 1.40407,0 l 0.464599,-1.0539 a 0.76693863,0.76693863 0 0 1 0.784,-0.4526555 l 1.144436,0.1246301 a 0.76693863,0.76693863 0 0 0 0.702011,-1.21617 z m -3.113898,1.5253372 a 1.9779843,1.9779843 0 1 1 1.97288,-1.9780018 1.9779843,1.9779843 0 0 1 -1.97288,1.9780018 z m 2.133441,-5.07821234 -0.536371,-0.30916684 0.635453,-1.10341822 0.536323,0.3091591 z M -19.725771,2.1763241 V 2.7946504 L -21,2.7839733 V 2.1655024 Z m 7.471255,0.7174047 0.0094,-0.6183602 1.274247,0.021246 -0.0094,0.6183354 z m -5.29513,-3.78347815 -0.539751,0.30406743 -0.630277,-1.11028878 0.539741,-0.3040323 z m -0.601228,6.47713465 0.534612,0.3143119 -0.645661,1.0982998 -0.532903,-0.3142866 z m 3.839828,0.2886836 0.529495,-0.321121 0.661046,1.0880373 -0.529543,0.3211291 z"
       id="path4"
       style="fill:#d3dae3;fill-opacity:1;stroke-width:0.170814" />
    <path
       d="m -4.013179,-6.0000029 h -24.076338 c -0.887911,0 -1.610483,0.7225716 -1.610483,1.6104833 V 13.053161 c 0,0.887912 0.722572,1.610483 1.610483,1.610483 h 8.861528 c -0.276505,0.895651 -0.92696,2.350644 -2.238072,2.350644 v 0.985709 h 10.829427 v -0.985709 c -1.311112,0 -1.961567,-1.454993 -2.238072,-2.350644 h 8.861527 c 0.887912,0 1.610483,-0.722571 1.610483,-1.610483 V -4.3898714 c 0,-0.8879117 -0.722571,-1.6101315 -1.610483,-1.6101315 z M -3.72999,13.052809 c 0,0.156194 -0.126995,0.283189 -0.283541,0.283189 h -24.075986 c -0.156193,0 -0.28354,-0.126995 -0.28354,-0.283189 V 10.743676 H -3.72999 Z m 0,-3.6364269 H -28.372706 V -4.3898714 c 0,-0.1561937 0.126996,-0.283189 0.283541,-0.283189 h 24.075986 c 0.156194,0 0.283541,0.1269953 0.283541,0.283189 V 9.4163821 Z"
       id="path2"
       style="fill:#d3dae3;fill-opacity:1;stroke-width:0.351788" />
  </g>
  <g
     id="22-22-video-display-brightness"
     transform="translate(32,10.000003)">
    <g
       id="g893">
      <rect
         style="opacity:0.00100002"
         width="22"
         height="22"
         x="0"
         y="-1.3897704e-07"
         id="rect2" />
      <path
         d="m 12.876301,8.9584745 a 0.46016319,0.46016319 0 0 1 0,-0.5431773 l 0.409932,-0.5575317 a 0.46016319,0.46016319 0 0 0 -0.421211,-0.729702 l -0.686661,0.074833 a 0.46016319,0.46016319 0 0 1 -0.472454,-0.273631 l -0.278761,-0.63234 a 0.46016319,0.46016319 0 0 0 -0.84244,0 l -0.278761,0.63234 A 0.46016319,0.46016319 0 0 1 9.835522,7.2008632 L 9.1488693,7.1260192 A 0.46016319,0.46016319 0 0 0 8.727651,7.8557212 l 0.4099485,0.5575274 a 0.46016319,0.46016319 0 0 1 0,0.5431752 L 8.727651,9.513949 A 0.46016319,0.46016319 0 0 0 9.1488693,10.24365 L 9.835522,10.16888 a 0.46016319,0.46016319 0 0 1 0.470423,0.271591 l 0.278761,0.632341 a 0.46016319,0.46016319 0 0 0 0.84244,0 l 0.278761,-0.632341 a 0.46016319,0.46016319 0 0 1 0.470404,-0.271591 l 0.68666,0.07477 a 0.46016319,0.46016319 0 0 0 0.42121,-0.729699 z M 11.007967,9.873676 A 1.1867907,1.1867907 0 1 1 12.191691,8.6868794 1.1867907,1.1867907 0 0 1 11.007967,9.873676 Z M 12.288028,6.8267543 11.966211,6.6412548 12.347475,5.9791986 12.669273,6.164696 Z M 8.7645438,8.4767904 V 8.8477876 L 8,8.8409026 V 8.4698231 Z m 4.4827482,0.4304414 0.0058,-0.371008 0.764546,0.012833 -0.0058,0.3710032 z M 10.070216,6.6371528 9.746363,6.8195864 9.368193,6.1534198 9.692043,5.970997 Z m -0.360742,3.8862782 0.320772,0.188585 -0.387397,0.658981 -0.319748,-0.188572 z m 2.303894,0.173209 0.317701,-0.192673 0.396626,0.652823 -0.31772,0.192678 z"
         id="path4-5"
         style="fill:#d3dae3;fill-opacity:1;stroke-width:0.102486" />
      <path
         d="M 19.124557,2.999997 H 3.073661 C 2.481714,2.999997 2,3.481711 2,4.073658 v 11.628448 c 0,0.591942 0.481714,1.073656 1.073661,1.073656 h 5.907686 c -0.184343,0.597101 -0.617976,1.567095 -1.492048,1.567095 v 0.65714 h 7.219609 v -0.65714 c -0.874072,0 -1.307708,-0.969994 -1.492038,-1.567095 h 5.907687 c 0.591936,0 1.073642,-0.481714 1.073642,-1.073656 V 4.07341 c 0,-0.591931 -0.481706,-1.073413 -1.073642,-1.073413 z m 0.188789,12.701875 c 0,0.104129 -0.08464,0.188792 -0.189037,0.188792 H 3.073661 c -0.104141,0 -0.189038,-0.08467 -0.189038,-0.188792 V 14.16245 h 16.428723 z m 0,-2.424285 H 2.88487 V 4.07341 c 0,-0.104115 0.08463,-0.188791 0.189014,-0.188791 h 16.050673 c 0.104125,0 0.189012,0.08465 0.189012,0.188791 v 9.204178 z"
         id="path2-3"
         style="fill:#d3dae3;fill-opacity:1;stroke-width:0.234519" />
    </g>
  </g>
</svg>
