<?xml version="1.0" encoding="UTF-8" standalone="no"?>
<svg
   xmlns:dc="http://purl.org/dc/elements/1.1/"
   xmlns:cc="http://creativecommons.org/ns#"
   xmlns:rdf="http://www.w3.org/1999/02/22-rdf-syntax-ns#"
   xmlns:svg="http://www.w3.org/2000/svg"
   xmlns="http://www.w3.org/2000/svg"
   xmlns:sodipodi="http://sodipodi.sourceforge.net/DTD/sodipodi-0.dtd"
   xmlns:inkscape="http://www.inkscape.org/namespaces/inkscape"
   version="1.1"
   id="svg2"
   viewBox="0 0 22 22"
   sodipodi:docname="video-card.svg"
   inkscape:version="1.0.2 (e86c870879, 2021-01-15)">
  <sodipodi:namedview
     pagecolor="#ffffff"
     bordercolor="#000000"
     borderopacity="1"
     objecttolerance="10"
     gridtolerance="10"
     guidetolerance="10"
     inkscape:pageopacity="0"
     inkscape:pageshadow="2"
     inkscape:window-width="1920"
     inkscape:window-height="1007"
     id="namedview10"
     showgrid="false"
     inkscape:zoom="10.092343"
     inkscape:cx="15.965953"
     inkscape:cy="9.9780657"
     inkscape:window-x="0"
     inkscape:window-y="0"
     inkscape:window-maximized="1"
     inkscape:current-layer="svg2"
     inkscape:document-rotation="0">
    <inkscape:grid
       type="xygrid"
       id="grid877" />
  </sodipodi:namedview>
  <metadata
     id="metadata12">
    <rdf:RDF>
      <cc:Work
         rdf:about="">
        <dc:format>image/svg+xml</dc:format>
        <dc:type
           rdf:resource="http://purl.org/dc/dcmitype/StillImage" />
        <dc:title></dc:title>
      </cc:Work>
    </rdf:RDF>
  </metadata>
  <defs
     id="defs3051">
    <style
       type="text/css"
       id="current-color-scheme" />
  </defs>
  <g
     id="22-22-video-card-inactive">
    <path
       id="path7"
       style="fill:none"
       d="M 0,0 V 22 H 22 V 0 Z" />
    <g
       id="g14"
       transform="matrix(0.03749997,0,0,0.03749997,1.35,1.3999888)">
      <path
         d="M 469.333,128 H 64 V 74.667 c 0,-17.646 -14.354,-32 -32,-32 H 10.667 C 4.771,42.667 0,47.438 0,53.333 0,59.229 4.771,64 10.667,64 H 32 c 5.875,0 10.667,4.781 10.667,10.667 v 64 10.667 h -32 C 4.771,149.333 0,154.104 0,160 v 85.333 C 0,251.229 4.771,256 10.667,256 h 32 v 21.333 h -32 C 4.771,277.333 0,282.104 0,288 v 85.333 C 0,379.229 4.771,384 10.667,384 h 32 v 10.667 64 c 0,5.896 4.771,10.667 10.667,10.667 5.896,0 10.667,-4.771 10.667,-10.667 v -53.333 h 42.667 v 32 c 0,5.896 4.771,10.667 10.667,10.667 h 192 c 5.896,0 10.667,-4.771 10.667,-10.667 v -32 h 21.333 v 32 c 0,5.896 4.771,10.667 10.667,10.667 h 106.667 c 5.896,0 10.667,-4.771 10.667,-10.667 v -32 c 23.521,0 42.667,-19.135 42.667,-42.667 v -192 C 512,147.135 492.854,128 469.333,128 Z M 42.667,362.667 H 21.333 v -64 h 21.333 v 64 z m 0,-128 H 21.333 v -64 h 21.333 v 64 z m 256,192 H 128 v -21.333 h 170.667 z m 149.333,0 H 362.667 V 405.334 H 448 Z m 42.667,-64 c 0,11.76 -9.563,21.333 -21.333,21.333 H 64 V 149.333 h 405.333 c 11.771,0 21.333,9.573 21.333,21.333 v 192.001 z"
         id="path2"
         style="fill:#d3dae3;fill-opacity:1" />
      <path
         d="M 437.333,170.667 H 202.667 c -52.938,0 -96,43.063 -96,96 0,52.937 43.063,96 96,96 h 234.667 c 5.896,0 10.667,-4.771 10.667,-10.667 V 181.333 C 448,175.438 443.229,170.667 437.333,170.667 Z m -10.666,170.666 h -224 C 161.5,341.333 128,307.833 128,266.666 128,225.5 161.5,192 202.667,192 h 224 z"
         id="path4"
         style="fill:#ff557f;fill-opacity:1" />
      <path
         d="m 149.333,266.667 c 0,29.406 23.917,53.333 53.333,53.333 29.417,0 53.334,-23.927 53.334,-53.333 0,-29.406 -23.917,-53.333 -53.333,-53.333 -29.417,-0.001 -53.334,23.926 -53.334,53.333 z m 85.334,0 c 0,17.646 -14.354,32 -32,32 -17.646,0 -32,-14.354 -32,-32 0,-17.646 14.354,-32 32,-32 17.646,0 32,14.354 32,32 z"
         id="path6"
         style="fill:#ff557f;fill-opacity:1" />
      <path
         d="m 309.333,234.667 h 85.333 c 5.896,0 10.667,-4.771 10.667,-10.667 0,-5.896 -4.771,-10.667 -10.667,-10.667 h -85.333 c -5.896,0 -10.667,4.771 -10.667,10.667 0,5.896 4.772,10.667 10.667,10.667 z"
         id="path8"
         style="fill:#ff557f;fill-opacity:1" />
      <path
         d="m 309.333,277.333 h 85.333 c 5.896,0 10.667,-4.771 10.667,-10.667 0,-5.896 -4.771,-10.667 -10.667,-10.667 h -85.333 c -5.896,0 -10.667,4.771 -10.667,10.667 10e-4,5.897 4.772,10.667 10.667,10.667 z"
         id="path10-3"
         style="fill:#ff557f;fill-opacity:1" />
      <path
         d="m 309.333,320 h 85.333 c 5.896,0 10.667,-4.771 10.667,-10.667 0,-5.896 -4.771,-10.667 -10.667,-10.667 h -85.333 c -5.896,0 -10.667,4.771 -10.667,10.667 10e-4,5.896 4.772,10.667 10.667,10.667 z"
         id="path12"
         style="fill:#ff557f;fill-opacity:1" />
    </g>
  </g>
</svg>
