<?xml version="1.0" encoding="UTF-8" standalone="no"?>
<svg
   xmlns:dc="http://purl.org/dc/elements/1.1/"
   xmlns:cc="http://creativecommons.org/ns#"
   xmlns:rdf="http://www.w3.org/1999/02/22-rdf-syntax-ns#"
   xmlns:svg="http://www.w3.org/2000/svg"
   xmlns="http://www.w3.org/2000/svg"
   xmlns:sodipodi="http://sodipodi.sourceforge.net/DTD/sodipodi-0.dtd"
   xmlns:inkscape="http://www.inkscape.org/namespaces/inkscape"
   width="16"
   height="16"
   id="svg2"
   version="1.1"
   inkscape:version="1.0.2 (e86c870879, 2021-01-15)"
   sodipodi:docname="zoom.svg">
  <defs
     id="defs4" />
  <sodipodi:namedview
     id="base"
     pagecolor="#ffffff"
     bordercolor="#000000"
     borderopacity="1"
     inkscape:pageopacity="0.91764706"
     inkscape:pageshadow="2"
     inkscape:zoom="5.6"
     inkscape:cx="42.446787"
     inkscape:cy="19.387995"
     inkscape:document-units="px"
     inkscape:current-layer="layer1"
     showgrid="false"
     inkscape:window-width="1920"
     inkscape:window-height="1007"
     inkscape:window-x="0"
     inkscape:window-y="0"
     inkscape:window-maximized="1"
     inkscape:document-rotation="0"
     inkscape:lockguides="false">
    <inkscape:grid
       type="xygrid"
       id="grid2985"
       empspacing="5"
       visible="true"
       enabled="true"
       snapvisiblegridlinesonly="true"
       originx="-0.42956993"
       originy="17.6618" />
  </sodipodi:namedview>
  <metadata
     id="metadata7">
    <rdf:RDF>
      <cc:Work
         rdf:about="">
        <dc:format>image/svg+xml</dc:format>
        <dc:type
           rdf:resource="http://purl.org/dc/dcmitype/StillImage" />
        <dc:title />
        <dc:creator>
          <cc:Agent>
            <dc:title>Malcer</dc:title>
          </cc:Agent>
        </dc:creator>
        <dc:description>Caledonia plasma theme icon</dc:description>
      </cc:Work>
    </rdf:RDF>
  </metadata>
  <g
     inkscape:label="Capa 1"
     inkscape:groupmode="layer"
     id="layer1"
     transform="translate(-0.42956993,-1012.7004)">
    <g
       id="zoom-fit-width">
      <rect
         transform="translate(0,1030.3622)"
         y="0"
         x="0"
         height="22"
         width="22"
         id="rect3006"
         style="opacity:0;fill:#00fffa;fill-opacity:1;fill-rule:evenodd;stroke:none;stroke-width:3;stroke-linecap:butt;stroke-linejoin:round;stroke-miterlimit:4;stroke-dasharray:none;stroke-dashoffset:0;stroke-opacity:1" />
      <path
         style="fill:#d3dae3;fill-opacity:1;fill-rule:evenodd;stroke:none"
         d="M 2,2 V 20 H 4 V 2 Z m 16,0 v 18 h 2 V 2 Z M 9,7 5,11 9,15 V 12.1875 11.09375 10 Z m 4,0 v 8 l 4,-4 z"
         transform="translate(0,1030.3622)"
         id="rect3776"
         sodipodi:nodetypes="ccccccccccccccccccccc" />
    </g>
    <g
       id="zoom-fit-height"
       transform="rotate(90,23.5,1053.8622)">
      <rect
         transform="translate(0,1030.3622)"
         y="0"
         x="0"
         height="22"
         width="22"
         id="rect3006-8"
         style="opacity:0;fill:#00fffa;fill-opacity:1;fill-rule:evenodd;stroke:none" />
      <path
         inkscape:connector-curvature="0"
         style="fill:#d3dae3;fill-opacity:1;fill-rule:evenodd;stroke:none"
         d="M 2,2 V 20 H 4 V 2 Z m 16,0 v 18 h 2 V 2 Z M 9,7 5,11 9,15 V 12.1875 11.09375 10 Z m 4,0 v 8 l 4,-4 z"
         transform="translate(0,1030.3622)"
         id="rect3776-2"
         sodipodi:nodetypes="ccccccccccccccccccccc" />
    </g>
    <g
       id="16-16-zoom-fit-width"
       transform="matrix(0.72727273,0,0,0.72727273,0.42956993,263.34607)">
      <rect
         transform="translate(0,1030.3622)"
         y="0"
         x="0"
         height="22"
         width="22"
         id="rect3006-1"
         style="opacity:0;fill:#00fffa;fill-opacity:1;fill-rule:evenodd;stroke:none" />
      <path
         inkscape:connector-curvature="0"
         style="fill:#d3dae3;fill-opacity:1;fill-rule:evenodd;stroke:none"
         d="M 2,2 V 20 H 4 V 2 Z m 16,0 v 18 h 2 V 2 Z M 9,7.7505999 5,11 9,14.112725 V 12.1875 11.09375 10 Z m 4,0 V 14.112725 L 17,11 Z"
         transform="translate(0,1030.3622)"
         id="rect3776-5"
         sodipodi:nodetypes="ccccccccccccccccccccc" />
    </g>
    <g
       id="16-16-zoom-fit-height"
       transform="matrix(0,0.72727273,-0.72727273,0,792.93043,1012.8267)">
      <rect
         transform="translate(0,1030.3622)"
         y="0"
         x="0"
         height="22"
         width="22"
         id="rect3006-8-3"
         style="opacity:0;fill:#00fffa;fill-opacity:1;fill-rule:evenodd;stroke:none" />
      <path
         inkscape:connector-curvature="0"
         style="fill:#d3dae3;fill-opacity:1;fill-rule:evenodd;stroke:none"
         d="M 2,2 V 20 H 4 V 2 Z m 16,0 v 18 h 2 V 2 Z M 9,7.7496374 5,11 9,14.250637 V 12.1875 11.09375 10 Z m 4,0 V 14.250637 L 17,11 Z"
         transform="translate(0,1030.3622)"
         id="rect3776-2-4"
         sodipodi:nodetypes="ccccccccccccccccccccc" />
    </g>
  </g>
</svg>
