<?xml version="1.0" encoding="UTF-8" standalone="no"?>
<svg
   xmlns:dc="http://purl.org/dc/elements/1.1/"
   xmlns:cc="http://creativecommons.org/ns#"
   xmlns:rdf="http://www.w3.org/1999/02/22-rdf-syntax-ns#"
   xmlns:svg="http://www.w3.org/2000/svg"
   xmlns="http://www.w3.org/2000/svg"
   xmlns:xlink="http://www.w3.org/1999/xlink"
   xmlns:sodipodi="http://sodipodi.sourceforge.net/DTD/sodipodi-0.dtd"
   xmlns:inkscape="http://www.inkscape.org/namespaces/inkscape"
   id="svg2"
   sodipodi:version="0.32"
   inkscape:version="1.0.2 (e86c870879, 2021-01-15)"
   width="200"
   height="200"
   sodipodi:docname="clock.svg"
   inkscape:output_extension="org.inkscape.output.svg.inkscape"
   inkscape:export-xdpi="90"
   inkscape:export-ydpi="90"
   version="1.0">
  <sodipodi:namedview
     inkscape:window-height="1007"
     inkscape:window-width="1920"
     inkscape:pageshadow="2"
     inkscape:pageopacity="1"
     guidetolerance="3"
     gridtolerance="4"
     objecttolerance="6"
     borderopacity="1"
     bordercolor="#000000"
     pagecolor="#ffffff"
     id="base"
     inkscape:zoom="1.4142136"
     inkscape:cx="125.39017"
     inkscape:cy="193.69998"
     inkscape:window-x="0"
     inkscape:window-y="0"
     inkscape:current-layer="svg2"
     showgrid="false"
     showguides="true"
     inkscape:guide-bbox="true"
     inkscape:window-maximized="1"
     inkscape:document-rotation="0"
     inkscape:lockguides="true">
    <inkscape:grid
       empspacing="5"
       enabled="true"
       visible="true"
       id="grid5592"
       type="xygrid"
       snapvisiblegridlinesonly="true"
       color="#0000ff"
       opacity="0.03921569"
       empcolor="#0000ff"
       empopacity="0.07843137" />
    <sodipodi:guide
       id="guide4454"
       position="1296.8644,-784.48024"
       orientation="1,0"
       inkscape:locked="true" />
    <sodipodi:guide
       id="guide7371"
       position="820.86441,-843.48024"
       orientation="0,1"
       inkscape:locked="true" />
  </sodipodi:namedview>
  <metadata
     id="metadata7">
    <rdf:RDF>
      <cc:Work
         rdf:about="">
        <dc:format>image/svg+xml</dc:format>
        <dc:type
           rdf:resource="http://purl.org/dc/dcmitype/StillImage" />
        <dc:title />
      </cc:Work>
    </rdf:RDF>
  </metadata>
  <defs
     id="defs5">
    <linearGradient
       id="linearGradient4011">
      <stop
         style="stop-color:#232629;stop-opacity:1;"
         offset="0"
         id="stop4013" />
      <stop
         id="stop4019"
         offset="0.89999998"
         style="stop-color:#232629;stop-opacity:0.52348995;" />
      <stop
         style="stop-color:#232629;stop-opacity:0.10738255;"
         offset="0.95999998"
         id="stop4021" />
      <stop
         style="stop-color:#232629;stop-opacity:0;"
         offset="1"
         id="stop4015" />
    </linearGradient>
    <linearGradient
       id="linearGradient3264">
      <stop
         style="stop-color:#000000;stop-opacity:1;"
         offset="0"
         id="stop3266" />
      <stop
         id="stop3272"
         offset="0.68343294"
         style="stop-color:#000000;stop-opacity:0.49803922;" />
      <stop
         style="stop-color:#000000;stop-opacity:0.14117648;"
         offset="0.79985917"
         id="stop3274" />
      <stop
         id="stop3276"
         offset="0.89750695"
         style="stop-color:#000000;stop-opacity:0.03137255;" />
      <stop
         style="stop-color:#000000;stop-opacity:0;"
         offset="1"
         id="stop3268" />
    </linearGradient>
    <linearGradient
       id="linearGradient6617">
      <stop
         style="stop-color:#e7e7e7;stop-opacity:0;"
         offset="0"
         id="stop6619" />
      <stop
         id="stop6625"
         offset="0.89623755"
         style="stop-color:#f3f3f3;stop-opacity:1" />
      <stop
         style="stop-color:#e3e3e3;stop-opacity:0.99861372"
         offset="1"
         id="stop6621" />
    </linearGradient>
    <linearGradient
       id="linearGradient5995">
      <stop
         id="stop5997"
         offset="0"
         style="stop-color:#d7d7d7;stop-opacity:1;" />
      <stop
         id="stop5999"
         offset="1"
         style="stop-color:#ffffff;stop-opacity:1" />
    </linearGradient>
    <linearGradient
       id="linearGradient6876"
       inkscape:collect="always">
      <stop
         id="stop6878"
         offset="0"
         style="stop-color:#ffffff;stop-opacity:1;" />
      <stop
         id="stop6880"
         offset="1"
         style="stop-color:#ffffff;stop-opacity:0;" />
    </linearGradient>
    <linearGradient
       id="linearGradient6608">
      <stop
         id="stop6610"
         offset="0"
         style="stop-color:#ffffff;stop-opacity:1;" />
      <stop
         style="stop-color:#f0f0f0;stop-opacity:1;"
         offset="0.79710144"
         id="stop6617" />
      <stop
         id="stop6612"
         offset="1"
         style="stop-color:#e2e2e2;stop-opacity:1;" />
    </linearGradient>
    <linearGradient
       id="linearGradient6195"
       inkscape:collect="always">
      <stop
         id="stop6197"
         offset="0"
         style="stop-color:#ffffff;stop-opacity:1;" />
      <stop
         id="stop6199"
         offset="1"
         style="stop-color:#ffffff;stop-opacity:0;" />
    </linearGradient>
    <linearGradient
       id="linearGradient8518">
      <stop
         id="stop8520"
         offset="0"
         style="stop-color:#bd0000;stop-opacity:1;" />
      <stop
         style="stop-color:#ff4747;stop-opacity:1"
         offset="0.15470119"
         id="stop8522" />
      <stop
         id="stop8524"
         offset="0.94668281"
         style="stop-color:#9c0000;stop-opacity:1;" />
      <stop
         id="stop8526"
         offset="1"
         style="stop-color:#db0000;stop-opacity:1;" />
    </linearGradient>
    <linearGradient
       gradientUnits="userSpaceOnUse"
       y2="117.86208"
       x2="1155.6477"
       y1="283.88474"
       x1="1155.6477"
       id="linearGradient6203"
       xlink:href="#linearGradient6195"
       inkscape:collect="always" />
    <linearGradient
       gradientTransform="translate(-1027.6356,-20.896313)"
       y2="53.696342"
       x2="1133.3816"
       y1="21.651564"
       x1="1133.3816"
       gradientUnits="userSpaceOnUse"
       id="linearGradient6890"
       xlink:href="#linearGradient6876"
       inkscape:collect="always" />
    <filter
       color-interpolation-filters="sRGB"
       inkscape:collect="always"
       id="filter5354-4"
       x="-0.21153671"
       width="1.4230734"
       y="-0.061348539"
       height="1.1226971">
      <feGaussianBlur
         inkscape:collect="always"
         stdDeviation="0.87589417"
         id="feGaussianBlur5356-7" />
    </filter>
    <filter
       color-interpolation-filters="sRGB"
       inkscape:collect="always"
       id="filter5358-1"
       x="-0.10297539"
       width="1.2059509"
       y="-0.058814138"
       height="1.1176283">
      <feGaussianBlur
         inkscape:collect="always"
         stdDeviation="0.87589417"
         id="feGaussianBlur5360-0" />
    </filter>
    <filter
       color-interpolation-filters="sRGB"
       inkscape:collect="always"
       id="filter5590"
       x="-0.061314348"
       width="1.1226287"
       y="-0.4526684"
       height="1.9053369">
      <feGaussianBlur
         inkscape:collect="always"
         stdDeviation="0.51095291"
         id="feGaussianBlur5592" />
    </filter>
    <filter
       color-interpolation-filters="sRGB"
       inkscape:collect="always"
       id="filter5574"
       x="-0.061314348"
       width="1.1226287"
       y="-0.4526684"
       height="1.9053369">
      <feGaussianBlur
         inkscape:collect="always"
         stdDeviation="0.51095291"
         id="feGaussianBlur5576" />
    </filter>
    <filter
       color-interpolation-filters="sRGB"
       inkscape:collect="always"
       id="filter5578"
       x="-0.4526684"
       width="1.9053369"
       y="-0.061314348"
       height="1.1226287">
      <feGaussianBlur
         inkscape:collect="always"
         stdDeviation="0.51095291"
         id="feGaussianBlur5580" />
    </filter>
    <radialGradient
       inkscape:collect="always"
       xlink:href="#linearGradient4011"
       id="radialGradient4471"
       gradientUnits="userSpaceOnUse"
       cx="1255.8716"
       cy="382.72916"
       fx="1255.8716"
       fy="382.72916"
       r="96.605507" />
    <radialGradient
       inkscape:collect="always"
       xlink:href="#linearGradient4011"
       id="radialGradient4671"
       gradientUnits="userSpaceOnUse"
       cx="1255.8716"
       cy="382.72916"
       fx="1255.8716"
       fy="382.72916"
       r="96.605507" />
  </defs>
  <g
     inkscape:groupmode="layer"
     id="layer1"
     style="display:none"
     inkscape:label="layer1"
     transform="translate(-1798.1356,76.7415)" />
  <g
     inkscape:groupmode="layer"
     id="layer2"
     style="display:inline"
     inkscape:label="glow"
     transform="translate(-1798.1356,76.7415)" />
  <g
     transform="translate(-1028.03,408.47464)"
     style="display:inline"
     inkscape:label="box"
     id="layer4" />
  <g
     transform="translate(-1028.03,408.47464)"
     style="display:inline"
     inkscape:label="zip_app"
     id="layer5" />
  <g
     inkscape:label="#g4535"
     id="ClockFace"
     transform="translate(-917.46243,-480.01699)">
    <g
       id="g4323"
       inkscape:label="#g4323">
      <rect
         y="473.017"
         x="910.4624"
         height="214"
         width="214"
         id="rect4069"
         style="opacity:0.00499998;fill:#717171;fill-opacity:1;stroke:none" />
      <circle
         style="fill:url(#radialGradient4671);fill-opacity:1;stroke:none"
         id="path4329"
         transform="matrix(1.0765432,0,0,1.0765432,-334.53758,169.99252)"
         inkscape:export-xdpi="90"
         inkscape:export-ydpi="90"
         cx="1255.8716"
         cy="382.72916"
         r="96.605507" />
      <g
         id="g4245">
        <circle
           inkscape:export-ydpi="90"
           inkscape:export-xdpi="90"
           transform="translate(-238.40858,197.28733)"
           style="opacity:0.85;fill:#1f252f;fill-opacity:1;stroke:none"
           id="path5099"
           cx="1255.8716"
           cy="382.72916"
           r="96.605507" />
        <g
           id="g6149"
           transform="translate(-0.50849973,-0.41219339)">
          <path
             inkscape:connector-curvature="0"
             style="color:#000000;font-style:normal;font-variant:normal;font-weight:normal;font-stretch:normal;font-size:medium;line-height:normal;font-family:Sans;-inkscape-font-specification:Sans;text-indent:0;text-align:start;text-decoration:none;text-decoration-line:none;letter-spacing:normal;word-spacing:normal;text-transform:none;writing-mode:lr-tb;direction:ltr;baseline-shift:baseline;text-anchor:start;display:inline;overflow:visible;visibility:visible;opacity:1;fill:#becfd2;fill-opacity:1;stroke:none;stroke-width:1px;marker:none;enable-background:accumulate"
             d="m 974.36163,503.57953 -0.8437,0.5 2.0937,3.59375 c 0.2777,-0.16344 0.564,-0.30841 0.8437,-0.46875 z m 87.87497,0 -2.0313,3.53125 c 0.2926,0.16682 0.5847,0.3298 0.875,0.5 l 2.0313,-3.53125 z m -95.68747,5.03125 -0.8125,0.5625 2.4687,3.40625 c 0.2689,-0.19888 0.5412,-0.398 0.8126,-0.59375 z m 103.49997,0 -2.375,3.28125 c 0.2668,0.19173 0.5481,0.36775 0.8125,0.5625 l 2.375,-3.28125 z m -110.74997,5.8125 -0.7188,0.65625 2.7813,3.09375 c 0.2398,-0.21947 0.5076,-0.40827 0.75,-0.625 z m 117.99997,0 -2.7188,3 c 0.2483,0.22104 0.5045,0.43234 0.75,0.65625 l 2.7188,-3 z m -124.59377,6.53125 -0.6562,0.75 3.125,2.8125 c 0.2192,-0.24732 0.4342,-0.50529 0.6562,-0.75 z m 131.18757,0 -3,2.6875 c 0.2326,0.25546 0.4579,0.52294 0.6874,0.78125 l 3,-2.71875 z m -137.06257,7.1875 -0.5937,0.78125 3.4375,2.5 c 0.1922,-0.26833 0.3673,-0.54652 0.5625,-0.8125 z m 142.93757,0 -3.25,2.375 c 0.1905,0.25885 0.3748,0.52016 0.5624,0.78125 l 3.2813,-2.375 z m -148.06257,7.75 -0.5,0.875 3.6876,2.125 c 0.1656,-0.2917 0.3309,-0.58548 0.5,-0.875 z m 153.18757,0 -3.5,2.03125 c 0.17,0.29042 0.3333,0.58239 0.5,0.875 l 3.5,-2.03125 z m -157.43757,8.25 -0.4062,0.90625 3.875,1.71875 c 0.1333,-0.30532 0.2695,-0.60282 0.4062,-0.90625 z m 161.68757,0 -3.6876,1.625 c 0.1363,0.3014 0.2735,0.60298 0.4063,0.90625 l 3.6875,-1.625 z m -165.06257,8.65625 -0.3124,0.9375 4.0624,1.3125 c 0.098,-0.30841 0.1804,-0.63063 0.2813,-0.9375 z m 168.43757,0 -3.8438,1.25 c 0.1021,0.30968 0.2139,0.62625 0.3125,0.9375 l 3.8437,-1.25 z m -170.90627,8.96875 -0.1875,0.96875 4.1562,0.875 c 0.066,-0.32409 0.1492,-0.64602 0.2188,-0.96875 z m 173.34367,0 -3.9374,0.84375 c 0.069,0.32066 0.1218,0.64674 0.1874,0.96875 l 3.9688,-0.84375 z m -174.81237,9.15625 -0.125,0.96875 4.2812,0.4375 c 0.031,-0.32197 0.059,-0.64784 0.094,-0.96875 l -4.25,-0.4375 z m 176.34367,0 -4.0625,0.4375 c 0.035,0.32091 0.063,0.64678 0.094,0.96875 l 4.0624,-0.4375 -0.094,-0.96875 z m -172.15627,18.09375 -4.3124,0.4375 0.125,1 4.2812,-0.4375 c -0.037,-0.33266 -0.061,-0.66618 -0.094,-1 z m 168.15627,0 c -0.033,0.33382 -0.057,0.66734 -0.094,1 l 4.0937,0.4375 0.094,-1 z m -166.84367,8.71875 -4.2188,0.90625 0.1875,0.96875 4.25,-0.90625 c -0.071,-0.32234 -0.1519,-0.64505 -0.2187,-0.96875 z m 165.53117,0.0625 c -0.067,0.32362 -0.148,0.6465 -0.2188,0.96875 l 4,0.84375 0.2188,-0.96875 z m -163.28117,8.46875 -4.125,1.34375 0.3124,0.96875 4.125,-1.34375 c -0.1075,-0.32327 -0.2087,-0.64375 -0.3124,-0.96875 z m 160.99997,0.0625 c -0.1041,0.32488 -0.2047,0.64559 -0.3126,0.96875 l 3.9376,1.28125 0.3124,-0.96875 z m -157.87497,8.21875 -3.9688,1.78125 0.4062,0.90625 3.9688,-1.78125 c -0.1376,-0.30308 -0.2721,-0.60127 -0.4062,-0.90625 z m 154.74997,0.0937 c -0.1339,0.30333 -0.269,0.60481 -0.4063,0.90625 l 3.7813,1.6875 0.4062,-0.90625 z m -150.74997,7.78125 -3.8126,2.1875 0.5,0.875 3.8126,-2.1875 c -0.1699,-0.28898 -0.3335,-0.58384 -0.5,-0.875 z m 146.74997,0.0937 c -0.1676,0.29207 -0.3292,0.58514 -0.5,0.875 l 3.625,2.09375 0.5,-0.875 z m -141.99997,7.34375 -3.5313,2.5625 0.5937,0.8125 3.5313,-2.5625 c -0.1995,-0.27029 -0.3974,-0.53977 -0.5937,-0.8125 z m 137.18737,0.0937 c -0.1931,0.26753 -0.3662,0.54733 -0.5624,0.8125 l 3.375,2.46875 0.5937,-0.8125 z m -131.62497,6.78125 -3.2812,2.9375 0.6562,0.75 3.2813,-2.9375 c -0.2242,-0.24569 -0.4349,-0.50167 -0.6563,-0.75 z m 126.09377,0.0937 c -0.2264,0.25327 -0.4581,0.49949 -0.6875,0.75 l 3.1563,2.84375 0.6874,-0.75 z m -119.93747,6.1875 -2.9063,3.25 0.7188,0.6875 2.9375,-3.28125 c -0.2482,-0.22104 -0.5044,-0.43234 -0.75,-0.65625 z m 113.71867,0.0937 c -0.251,0.22809 -0.4961,0.46241 -0.75,0.6875 l 2.8438,3.15625 0.75,-0.6875 z m -106.90617,5.5 -2.5625,3.53125 0.8125,0.59375 2.5625,-3.53125 c -0.2716,-0.19534 -0.5433,-0.39528 -0.8125,-0.59375 z m 100.06247,0.0937 c -0.2696,0.19791 -0.5404,0.39898 -0.8125,0.59375 l 2.5,3.4375 0.8125,-0.59375 z m -92.65627,4.78125 -2.1874,3.78125 0.8437,0.5 2.1875,-3.8125 c -0.28,-0.15998 -0.5658,-0.30567 -0.8438,-0.46875 z m 85.24997,0.0625 c -0.2828,0.16517 -0.5588,0.33803 -0.8437,0.5 l 2.125,3.71875 0.875,-0.5 z m -77.43737,4 -1.75,3.96875 0.9062,0.40625 1.7812,-3.96875 c -0.3132,-0.13766 -0.6262,-0.26491 -0.9374,-0.40625 z m 69.62497,0.0937 c -0.3079,0.13886 -0.6278,0.27098 -0.9376,0.40625 l 1.7188,3.875 0.9375,-0.40625 z m -61.37497,3.125 -1.3438,4.15625 0.9375,0.3125 1.3437,-4.15625 c -0.3141,-0.10014 -0.625,-0.2088 -0.9374,-0.3125 z m 53.09367,0.0625 c -0.3222,0.10608 -0.6448,0.2102 -0.9687,0.3125 l 1.3437,4.09375 0.9687,-0.3125 z m -44.5937,2.25 -0.90627,4.25 0.99997,0.21875 0.9063,-4.25 c -0.3338,-0.0688 -0.6678,-0.14601 -1,-0.21875 z m 36.0624,0.0625 c -0.3265,0.0705 -0.6408,0.15204 -0.9687,0.21875 l 0.9063,4.1875 0.9687,-0.21875 z m -27.3124,1.375 -0.4688,4.34375 1,0.0937 0.4375,-4.3125 c -0.3249,-0.0321 -0.6449,-0.0892 -0.9687,-0.125 z m 18.5937,0.0313 c -0.323,0.035 -0.6447,0.0624 -0.9687,0.0937 l 0.4374,4.3125 0.9688,-0.0937 z"
             id="path5480"
             sodipodi:nodetypes="cccccccccccccccccccccccccccccccccccccccccccccccccccccccccccccccccccccccccccccccccccccccccccccccccccccccccccccccccccccccccccccccccccccccccccccccccccccccccccccccccccccccccccccccccccccccccccccccccccccccccccccccccccccccccccccccccccccccccccccccccccc" />
        </g>
        <g
           inkscape:export-ydpi="90"
           inkscape:export-xdpi="90"
           transform="translate(-283.73228,123.31062)"
           id="g5157">
          <g
             style="font-style:normal;font-variant:normal;font-weight:normal;font-stretch:normal;font-size:40px;line-height:125%;font-family:Oxygen;-inkscape-font-specification:Oxygen;text-align:start;letter-spacing:0px;word-spacing:0px;writing-mode:lr-tb;text-anchor:start;fill:#232629;fill-opacity:0.442708;stroke:none;filter:url(#filter5354-4)"
             id="text4522" />
          <g
             style="font-style:normal;font-variant:normal;font-weight:normal;font-stretch:normal;font-size:40px;line-height:125%;font-family:Oxygen;-inkscape-font-specification:Oxygen;text-align:start;letter-spacing:0px;word-spacing:0px;writing-mode:lr-tb;text-anchor:start;fill:#1abc9c;fill-opacity:1;stroke:none"
             id="text5149" />
          <g
             style="font-style:normal;font-variant:normal;font-weight:normal;font-stretch:normal;font-size:40px;line-height:125%;font-family:Oxygen;-inkscape-font-specification:Oxygen;text-align:start;letter-spacing:0px;word-spacing:0px;writing-mode:lr-tb;text-anchor:start;fill:#232629;fill-opacity:0.442708;stroke:none;filter:url(#filter5358-1)"
             id="text4526">
            <path
               id="path6204"
               d="m 1306.013,368.67137 c 2.3604,2e-5 4.2502,0.62076 5.6701,1.8622 1.4321,1.2304 2.1478,2.91369 2.1478,5.04992 0,1.45403 -0.3746,2.82423 -1.1244,4.11041 -0.7493,1.27502 -1.9014,2.74588 -3.4558,4.41234 l -7.0962,7.56647 h 11.1898 v 2.58366 h -14.1262 v -3.17087 l 8.0701,-9.17707 c 1.0955,-1.25262 1.9181,-2.34318 2.4664,-3.27146 0.5588,-0.93957 0.8382,-1.86785 0.8382,-2.78507 0,-1.43157 -0.4082,-2.52211 -1.2244,-3.27152 -0.8161,-0.74932 -1.9631,-1.12405 -3.4396,-1.12408 -2.1922,3e-5 -3.9868,0.70469 -5.3847,2.11397 l -0.9732,-2.634 c 1.6438,-1.50988 3.7911,-2.26488 6.4421,-2.2649 m -12.7821,1.05698 h 3.0034 v 24.52802 h -3.0034 V 372.5301 c -1.3759,0.91716 -2.7456,1.68335 -4.1102,2.2984 v -2.63393 c 1.0736,-0.46971 2.4434,-1.29178 4.1102,-2.46622"
               inkscape:connector-curvature="0"
               style="stroke-width:0.858987" />
          </g>
          <g
             style="font-style:normal;font-variant:normal;font-weight:normal;font-stretch:normal;font-size:40px;line-height:125%;font-family:Oxygen;-inkscape-font-specification:Oxygen;text-align:start;letter-spacing:0px;word-spacing:0px;writing-mode:lr-tb;text-anchor:start;fill:#16a085;fill-opacity:1;stroke:none"
             id="text5153"
             transform="translate(0,6)">
            <path
               id="path6197"
               d="m 1305.8906,363.0712 c 2.2036,3e-5 3.9681,0.57951 5.2934,1.73848 1.3369,1.14863 2.005,2.72005 2.005,4.71435 0,1.35742 -0.3498,2.63661 -1.0496,3.83731 -0.6997,1.19028 -1.7753,2.56345 -3.2263,4.11915 l -6.6245,7.06371 h 10.4461 v 2.412 h -13.1878 v -2.96021 l 7.5343,-8.56727 c 1.0224,-1.1694 1.7906,-2.18749 2.3026,-3.05407 0.5217,-0.87715 0.7823,-1.74375 0.7823,-2.60005 0,-1.33643 -0.3809,-2.35452 -1.143,-3.05412 -0.7617,-0.69954 -1.833,-1.04939 -3.2112,-1.0494 -2.0463,10e-6 -3.7218,0.65786 -5.0266,1.97352 l -0.9086,-2.459 c 1.5342,-1.40953 3.539,-2.11437 6.0139,-2.1144 m -11.9331,0.98675 h 2.8042 v 22.89825 h -2.8042 v -20.28265 c -1.2841,0.85618 -2.5626,1.57148 -3.8368,2.14566 v -2.4589 c 1.0022,-0.43849 2.281,-1.20596 3.8368,-2.30236"
               inkscape:connector-curvature="0"
               style="fill:#3b6ca7;fill-opacity:1;stroke-width:0.801912" />
          </g>
        </g>
        <rect
           inkscape:export-ydpi="90"
           inkscape:export-xdpi="90"
           y="580.17072"
           x="927.4787"
           height="2.7090182"
           width="20"
           id="rect5549"
           style="fill:#212121;fill-opacity:0.413462;stroke:none;filter:url(#filter5590)"
           transform="matrix(0.74918656,0,0,1,232.62412,0)" />
        <rect
           inkscape:export-ydpi="90"
           inkscape:export-xdpi="90"
           style="fill:#4b8bd4;fill-opacity:1;stroke:none;stroke-width:0.866025"
           id="rect5442"
           width="15"
           height="2.7090182"
           x="927.37054"
           y="578.95905" />
        <rect
           inkscape:export-ydpi="90"
           inkscape:export-xdpi="90"
           style="fill:#1c1c1c;fill-opacity:0.360577;stroke:none;filter:url(#filter5574)"
           id="rect5531"
           width="20"
           height="2.7090182"
           x="1088.5787"
           y="580.17169"
           transform="matrix(0.75581565,0,0,1,270.69759,0)" />
        <rect
           inkscape:export-ydpi="90"
           inkscape:export-xdpi="90"
           y="-1323.934"
           x="349.02609"
           height="2.7090182"
           width="20"
           id="rect5571"
           style="fill:#2a2a2a;fill-opacity:0.524038;stroke:none;filter:url(#filter5578)"
           transform="matrix(0,0.64048563,-1,0,-304.79922,436.47079)" />
        <rect
           inkscape:export-ydpi="90"
           inkscape:export-xdpi="90"
           transform="rotate(90)"
           style="fill:#4b8bd4;fill-opacity:1;stroke:none;stroke-width:0.866025"
           id="rect5448"
           width="15"
           height="2.7090182"
           x="656.61395"
           y="-1019.2259" />
        <circle
           inkscape:export-ydpi="90"
           inkscape:export-xdpi="90"
           id="path5627"
           style="fill:none;stroke:#1f252f;stroke-opacity:1"
           transform="translate(-238.40858,197.28733)"
           cx="1255.8716"
           cy="382.72916"
           r="96.605507" />
        <g
           id="g6073"
           transform="translate(-0.50849973,-0.41219339)">
          <path
             id="path6063"
             style="fill:#4b8bd4;fill-opacity:1;stroke:none"
             d="m 1090.3075,537.57714 4.0274,-2.3252 1.3545,2.34607 -4.0274,2.3252 z m -149.43492,86.2763 4.0273,-2.32515 1.3545,2.34607 -4.0273,2.32515 z"
             inkscape:connector-curvature="0" />
          <path
             inkscape:connector-curvature="0"
             d="m 1059.0835,507.3447 2.3252,-4.02738 2.3461,1.35451 -2.3252,4.02738 z m -86.27632,149.43492 2.3252,-4.02729 2.3461,1.35451 -2.3252,4.02729 z"
             style="fill:#4b8bd4;fill-opacity:1;stroke:none"
             id="path6065" />
          <path
             id="path6067"
             style="fill:#4b8bd4;fill-opacity:1;stroke:none"
             d="m 944.89998,539.92325 -4.0274,-2.32521 1.3545,-2.34608 4.0274,2.3252 z m 149.43492,86.27629 -4.0273,-2.3252 1.3545,-2.34614 4.0273,2.32526 z"
             inkscape:connector-curvature="0" />
          <path
             inkscape:connector-curvature="0"
             d="m 975.13238,508.69925 -2.3252,-4.02739 2.3461,-1.35452 2.3252,4.02738 z m 86.27632,149.43491 -2.3251,-4.02733 2.3461,-1.35457 2.3251,4.02738 z"
             style="fill:#4b8bd4;fill-opacity:1;stroke:none"
             id="path6069" />
        </g>
        <g
           transform="matrix(0.52607717,0,0,0.52607717,844.56775,68.836175)"
           id="g4410"
           style="fill:#f2891e;fill-opacity:1">
          <path
             inkscape:connector-curvature="0"
             id="path4338"
             style="font-style:normal;font-variant:normal;font-weight:normal;font-stretch:normal;font-size:medium;line-height:125%;font-family:Quicksand;-inkscape-font-specification:'Quicksand, Normal';text-align:start;letter-spacing:0px;word-spacing:0px;writing-mode:lr-tb;text-anchor:start;fill:#becfd2;fill-opacity:1;stroke:none;stroke-width:1px;stroke-linecap:butt;stroke-linejoin:miter;stroke-opacity:1"
             d="m 435.76454,916.07074 c 0.12571,0.15714 0.34571,0.22 0.56571,0.22 h 0.12572 12.25714 c 0.40857,0 0.75429,-0.34571 0.75429,-0.75429 0,-0.44 -0.34572,-0.78571 -0.75429,-0.78571 h -10.40286 l 8.8,-7.95143 c 1.57143,-1.44571 2.35715,-3.39428 2.35715,-5.34286 0,-1.69714 -0.59715,-3.42571 -1.88572,-4.80857 -1.41428,-1.60286 -3.36285,-2.35714 -5.28,-2.35714 -1.72857,0 -3.48857,0.62857 -4.87143,1.85428 l -1.06857,1.00572 c -0.31428,0.25143 -0.34571,0.75428 -0.0314,1.06857 0.25143,0.31429 0.75429,0.34571 1.06857,0.0314 l 1.06858,-0.97429 c 1.1,-0.97428 2.45143,-1.44571 3.83428,-1.44571 1.54,0 3.08,0.62857 4.18,1.85428 0.97429,1.06858 1.47715,2.42001 1.47715,3.77143 0,1.57143 -0.66,3.08 -1.88572,4.21143 l -10.27714,9.27143 c -0.31429,0.31429 -0.31429,0.78572 -0.0314,1.13143 z" />
          <path
             inkscape:connector-curvature="0"
             id="path4340"
             style="font-style:normal;font-variant:normal;font-weight:normal;font-stretch:normal;font-size:medium;line-height:125%;font-family:Quicksand;-inkscape-font-specification:'Quicksand, Normal';text-align:start;letter-spacing:0px;word-spacing:0px;writing-mode:lr-tb;text-anchor:start;fill:#3b6ca7;fill-opacity:1;stroke:none;stroke-width:1.55525px;stroke-linecap:butt;stroke-linejoin:miter;stroke-opacity:1"
             d="m 466.99913,956.89971 c 0.0978,-0.14666 0.14666,-0.34215 0.14666,-0.53768 0,-0.68431 -0.53769,-1.22197 -1.222,-1.22197 h -15.98352 c -0.68431,0 -1.22199,0.53766 -1.22199,1.22197 0,0.68431 0.53768,1.22199 1.22199,1.22199 h 13.09964 l -8.505,8.74939 c -0.48878,0.4888 -0.48878,1.27088 0,1.75966 0,0 0.0488,0 0.0488,0 0.24439,0.29327 0.58654,0.4888 0.97758,0.4888 2.34621,0 4.69243,0.87982 6.45207,2.68836 1.80854,1.75966 2.68837,4.10586 2.68837,6.45207 0,2.3462 -0.87983,4.6924 -2.68837,6.50094 -1.80853,1.75966 -4.15473,2.63948 -6.50095,2.63948 -2.3462,0 -4.64353,-0.87982 -6.45207,-2.63948 -0.48878,-0.4888 -1.27085,-0.4888 -1.71077,0 -0.48879,0.4888 -0.48879,1.27086 0,1.71078 2.24845,2.29732 5.23009,3.42155 8.16284,3.42155 0,0 0,0 0,0 2.98165,0 5.96328,-1.17311 8.21172,-3.42155 2.29734,-2.24844 3.42157,-5.23009 3.42157,-8.21172 0,-2.98164 -1.12423,-5.96329 -3.37269,-8.21173 -1.66189,-1.66189 -3.71482,-2.68836 -5.86551,-3.12827 l 8.84716,-9.09155 c 0.0977,-0.0978 0.19551,-0.24441 0.24439,-0.39104 z" />
          <path
             inkscape:connector-curvature="0"
             id="path4342"
             style="font-style:normal;font-variant:normal;font-weight:normal;font-stretch:normal;font-size:medium;line-height:125%;font-family:Quicksand;-inkscape-font-specification:'Quicksand, Normal';text-align:start;letter-spacing:0px;word-spacing:0px;writing-mode:lr-tb;text-anchor:start;fill:#becfd2;fill-opacity:1;stroke:none;stroke-width:1px;stroke-linecap:butt;stroke-linejoin:miter;stroke-opacity:1"
             d="m 446.99155,1046.4905 c 0,0.4085 0.34571,0.7542 0.75429,0.7542 0.44,0 0.78571,-0.3457 0.78571,-0.7542 v -3.7715 h 1.47714 c 0.44,0 0.78572,-0.3457 0.78572,-0.7543 0,-0.4085 -0.34572,-0.7542 -0.78572,-0.7542 h -1.47714 v -15.0858 -0.094 c 0,-0.031 -0.0314,-0.063 -0.0314,-0.1257 -0.0629,-0.1257 -0.12571,-0.2828 -0.25143,-0.3771 -0.34571,-0.2829 -0.78571,-0.2514 -1.06857,0.094 l -0.0314,0.031 -12.72857,15.84 c -0.28286,0.3143 -0.25143,0.8171 0.0943,1.0686 0.12571,0.1257 0.31428,0.1571 0.47142,0.1571 h 0.0629 0.0314 11.91143 v 3.7714 z m -10.40286,-5.28 10.40286,-12.8858 v 12.8858 z" />
          <path
             inkscape:connector-curvature="0"
             id="path4344"
             style="font-style:normal;font-variant:normal;font-weight:normal;font-stretch:normal;font-size:medium;line-height:125%;font-family:Quicksand;-inkscape-font-specification:'Quicksand, Normal';text-align:start;letter-spacing:0px;word-spacing:0px;writing-mode:lr-tb;text-anchor:start;fill:#becfd2;fill-opacity:1;stroke:none;stroke-width:1px;stroke-linecap:butt;stroke-linejoin:miter;stroke-opacity:1"
             d="m 393.5961,1095.2401 c 1.88571,0 3.83429,-0.7543 5.28,-2.1685 1.47714,-1.4458 2.16857,-3.3943 2.16857,-5.28 0,-1.9486 -0.69143,-3.8343 -2.16857,-5.28 -1.44571,-1.4772 -3.33143,-2.1686 -5.24857,-2.1686 -1.32,0 -2.60857,0.3457 -3.74,1.0057 l 0.78571,-6.5371 h 9.58572 c 0.44,0 0.78571,-0.3143 0.78571,-0.7858 0,-0.44 -0.34571,-0.7857 -0.78571,-0.7857 h -10.24572 c -0.18857,0 -0.37714,0.063 -0.50285,0.1886 -0.18858,0.1257 -0.31429,0.3143 -0.31429,0.5657 l -1.06857,8.8629 c 0,0.063 -0.0314,0.1257 -0.0314,0.1571 0,0.094 0,0.1886 0.0314,0.2514 0,0.031 0,0.063 0.0314,0.094 v 0.031 c 0.0314,0.094 0.0943,0.1886 0.18857,0.2515 0.28286,0.3142 0.78571,0.3142 1.1,0 1.16286,-1.1629 2.64,-1.7286 4.18,-1.7286 1.50857,0 3.01714,0.5657 4.14857,1.6971 1.13143,1.1315 1.69714,2.64 1.69714,4.18 0,1.5086 -0.56571,2.9857 -1.72857,4.1486 -1.16286,1.1629 -2.64,1.7286 -4.14857,1.7286 -1.50857,0 -2.98571,-0.5657 -4.14857,-1.6972 -0.31429,-0.3143 -0.81714,-0.3143 -1.13143,0 -0.31429,0.2829 -0.31429,0.7857 0,1.1 1.44571,1.4457 3.36286,2.1686 5.28,2.1686 z" />
          <path
             inkscape:connector-curvature="0"
             id="path4346"
             style="font-style:normal;font-variant:normal;font-weight:normal;font-stretch:normal;font-size:medium;line-height:125%;font-family:Quicksand;-inkscape-font-specification:'Quicksand, Normal';text-align:start;letter-spacing:0px;word-spacing:0px;writing-mode:lr-tb;text-anchor:start;fill:#3b6ca7;fill-opacity:1;stroke:none;stroke-width:1.55733px;stroke-linecap:butt;stroke-linejoin:miter;stroke-opacity:1"
             d="m 318.0467,1096.3097 c 0,0.7829 0,1.5172 0.0978,2.2514 0.19579,6.0691 5.18814,10.9147 11.30622,10.9147 6.31388,0 11.35517,-5.0414 11.35517,-11.3062 0,-6.2161 -5.04129,-11.3062 -11.35517,-11.3062 -3.37718,0 -6.41175,1.5173 -8.46742,3.8665 0.48945,-2.4472 1.27256,-4.8455 2.44724,-6.8523 2.15356,-3.573 5.18814,-6.0202 9.98472,-6.2159 0.63627,-0.049 1.17466,-0.5873 1.17466,-1.2725 -0.0489,-0.6364 -0.58733,-1.1747 -1.22361,-1.1258 -5.6776,0.1957 -9.64211,3.2792 -11.99145,7.4395 -2.34935,4.0624 -3.2793,9.0549 -3.32823,13.6068 z m 2.49617,1.8599 c 0,-4.8946 4.01347,-8.9079 8.90793,-8.9079 4.99237,0 9.00583,4.0133 9.00583,8.9079 0,4.8944 -4.01346,8.9079 -9.00583,8.9079 -4.50291,0 -8.27165,-3.3773 -8.85898,-7.7332 0.0489,-0.099 0.0489,-0.196 0.0489,-0.3427 -0.0489,-0.1958 -0.0979,-0.3916 -0.0979,-0.6362 v -0.1958 z" />
          <path
             inkscape:connector-curvature="0"
             id="path4348"
             style="font-style:normal;font-variant:normal;font-weight:normal;font-stretch:normal;font-size:medium;line-height:125%;font-family:Quicksand;-inkscape-font-specification:'Quicksand, Normal';text-align:start;letter-spacing:0px;word-spacing:0px;writing-mode:lr-tb;text-anchor:start;fill:#becfd2;fill-opacity:1;stroke:none;stroke-width:1px;stroke-linecap:butt;stroke-linejoin:miter;stroke-opacity:1"
             d="m 260.57686,1095.1247 c 0.12571,0.063 0.18857,0.063 0.31428,0.063 0.28286,0 0.56572,-0.1886 0.69143,-0.4715 l 8.51714,-20.24 c 0.0943,-0.1257 0.12572,-0.2514 0.12572,-0.4085 0,-0.094 -0.0314,-0.1572 -0.0629,-0.2515 -0.0629,-0.1885 -0.22,-0.3771 -0.40857,-0.4714 -0.15714,-0.063 -0.31429,-0.063 -0.47143,-0.031 h -11.62857 c -0.40857,0 -0.75429,0.3457 -0.75429,0.7543 0,0.4086 0.34572,0.7543 0.75429,0.7543 h 10.62286 l -8.14,19.2971 c -0.12572,0.3772 0.0628,0.8486 0.44,1.0057 z" />
          <path
             inkscape:connector-curvature="0"
             id="path4350"
             style="font-style:normal;font-variant:normal;font-weight:normal;font-stretch:normal;font-size:medium;line-height:125%;font-family:Quicksand;-inkscape-font-specification:'Quicksand, Normal';text-align:start;letter-spacing:0px;word-spacing:0px;writing-mode:lr-tb;text-anchor:start;fill:#becfd2;fill-opacity:1;stroke:none;stroke-width:1px;stroke-linecap:butt;stroke-linejoin:miter;stroke-opacity:1"
             d="m 211.056,1029.8478 c 0,1.54 0.72285,2.86 1.82285,3.7086 -2.57714,1.0686 -4.4,3.6457 -4.4,6.6 0,3.96 3.20572,7.1343 7.13429,7.1343 3.96,0 7.13429,-3.1743 7.13429,-7.1343 0,-2.9543 -1.82286,-5.5314 -4.43143,-6.6 1.13143,-0.8486 1.88571,-2.1686 1.88571,-3.7086 0,-2.5142 -2.07428,-4.5571 -4.58857,-4.5571 -2.54571,0 -4.55714,2.0429 -4.55714,4.5571 z m -1.06858,10.3086 c 0,-3.08 2.51429,-5.6257 5.62572,-5.6257 3.14286,0 5.62571,2.5457 5.62571,5.6257 0,3.1114 -2.48285,5.6257 -5.62571,5.6257 -3.11143,0 -5.62572,-2.5143 -5.62572,-5.6257 z m 2.57715,-10.3086 c 0,-1.6971 1.35143,-3.0485 3.04857,-3.0485 1.69714,0 3.08,1.3514 3.08,3.0485 0,1.6972 -1.38286,3.08 -3.08,3.1115 -1.69714,-0.031 -3.04857,-1.4143 -3.04857,-3.1115 z" />
          <path
             inkscape:connector-curvature="0"
             id="path4352"
             style="font-style:normal;font-variant:normal;font-weight:normal;font-stretch:normal;font-size:medium;line-height:125%;font-family:Quicksand;-inkscape-font-specification:'Quicksand, Normal';text-align:start;letter-spacing:0px;word-spacing:0px;writing-mode:lr-tb;text-anchor:start;fill:#3b6ca7;fill-opacity:1;stroke:none;stroke-width:1.55525px;stroke-linecap:butt;stroke-linejoin:miter;stroke-opacity:1"
             d="m 190.75548,966.3823 c 0,6.30543 5.08346,11.29111 11.29112,11.29111 3.42155,0 6.45208,-1.4175 8.50501,-3.7637 -0.43992,2.44397 -1.27088,4.79017 -2.44397,6.8431 -2.10181,3.5682 -5.23009,6.01216 -9.97138,6.20767 -0.68431,0.0488 -1.17311,0.58655 -1.17311,1.27086 0,0.63543 0.53768,1.12423 1.22199,1.12423 h 0.0488 c 5.62111,-0.19551 9.62921,-3.37267 11.97543,-7.42965 2.29732,-4.05698 3.2749,-9.09156 3.2749,-13.63732 0,-1.02647 -0.0488,-2.00407 -0.0978,-2.93277 -0.0488,-0.0978 -0.0488,-0.14666 -0.0978,-0.24439 -0.63544,-5.62113 -5.37673,-9.97138 -11.24225,-9.97138 -6.20766,0 -11.29112,5.03456 -11.29112,11.24224 z m 11.29112,8.89603 c -4.88792,0 -8.89604,-3.91034 -8.89604,-8.89603 0,-4.88794 4.00812,-8.84716 8.89604,-8.84716 4.98569,0 8.94491,3.95922 8.94491,8.84716 0,4.98569 -3.95922,8.89603 -8.94491,8.89603 z" />
          <g
             id="g4385"
             transform="translate(-200.10579,212.50001)"
             style="fill:#f2891e;fill-opacity:1">
            <path
               d="m 406.5812,703.03642 c 0,0.40858 0.34572,0.75429 0.75429,0.75429 0.44,0 0.75429,-0.34571 0.75429,-0.75429 v -20.20857 c 0.0314,-0.18857 0,-0.37714 -0.0943,-0.56571 -0.18857,-0.34572 -0.69143,-0.47143 -1.03714,-0.28286 l -4.24286,2.57714 c -0.37714,0.18857 -0.50286,0.62857 -0.28286,1.03715 0.12572,0.22 0.37715,0.37714 0.66,0.37714 0.12572,0 0.28286,-0.0629 0.37715,-0.12572 l 3.11142,-1.82285 v 19.01428 z"
               style="font-style:normal;font-variant:normal;font-weight:normal;font-stretch:normal;font-size:medium;line-height:125%;font-family:Quicksand;-inkscape-font-specification:'Quicksand, Normal';text-align:start;letter-spacing:0px;word-spacing:0px;writing-mode:lr-tb;text-anchor:start;fill:#becfd2;fill-opacity:1;stroke:none;stroke-width:1px;stroke-linecap:butt;stroke-linejoin:miter;stroke-opacity:1"
               id="path4354"
               inkscape:connector-curvature="0" />
            <path
               d="m 415.97638,700.45928 c 1.35142,1.98 3.26857,3.33143 5.5,3.33143 2.23143,0 4.14857,-1.35143 5.5,-3.33143 1.32,-2.01143 2.13714,-4.71428 2.13714,-7.66857 0,-2.95429 -0.81714,-5.65714 -2.13714,-7.7 -1.35143,-1.94857 -3.26857,-3.3 -5.5,-3.3 -2.23143,0 -4.14858,1.35143 -5.5,3.3 -1.35143,2.04286 -2.10572,4.74571 -2.10572,7.7 0,2.95429 0.75429,5.65714 2.10572,7.66857 z m 1.28857,-14.48857 c 1.13143,-1.72857 2.64,-2.64 4.21143,-2.64 0,0 0,0 0,0 1.57143,0 3.04857,0.91143 4.21143,2.64 1.13142,1.69714 1.88571,4.11714 1.88571,6.82 0,2.70286 -0.75429,5.12286 -1.88571,6.82 -1.16286,1.66571 -2.64,2.64 -4.21143,2.64 -1.57143,0 -3.08,-0.97429 -4.21143,-2.64 -1.13143,-1.69714 -1.85429,-4.11714 -1.85429,-6.82 0,-2.70286 0.72286,-5.12286 1.85429,-6.82 z"
               style="font-style:normal;font-variant:normal;font-weight:normal;font-stretch:normal;font-size:medium;line-height:125%;font-family:Quicksand;-inkscape-font-specification:'Quicksand, Normal';text-align:start;letter-spacing:0px;word-spacing:0px;writing-mode:lr-tb;text-anchor:start;fill:#becfd2;fill-opacity:1;stroke:none;stroke-width:1px;stroke-linecap:butt;stroke-linejoin:miter;stroke-opacity:1"
               id="path4356"
               inkscape:connector-curvature="0" />
          </g>
          <g
             id="g4389"
             transform="translate(-190.28436,164.50027)"
             style="fill:#f2891e;fill-opacity:1">
            <path
               d="m 448.93611,703.03642 c 0,0.40858 0.34571,0.75429 0.75428,0.75429 0.44,0 0.75429,-0.34571 0.75429,-0.75429 v -20.20857 c 0.0314,-0.18857 0,-0.37714 -0.0943,-0.56571 -0.18857,-0.34572 -0.69142,-0.47143 -1.03714,-0.28286 l -4.24286,2.57714 c -0.37714,0.18857 -0.50285,0.62857 -0.28285,1.03715 0.12571,0.22 0.37714,0.37714 0.66,0.37714 0.12571,0 0.28285,-0.0629 0.37714,-0.12572 l 3.11143,-1.82285 v 19.01428 z"
               style="font-style:normal;font-variant:normal;font-weight:normal;font-stretch:normal;font-size:medium;line-height:125%;font-family:Quicksand;-inkscape-font-specification:'Quicksand, Normal';text-align:start;letter-spacing:0px;word-spacing:0px;writing-mode:lr-tb;text-anchor:start;fill:#becfd2;fill-opacity:1;stroke:none;stroke-width:1px;stroke-linecap:butt;stroke-linejoin:miter;stroke-opacity:1"
               id="path4358"
               inkscape:connector-curvature="0" />
            <path
               d="m 461.49415,703.03642 c 0,0.40858 0.34572,0.75429 0.75429,0.75429 0.44,0 0.75428,-0.34571 0.75428,-0.75429 v -20.20857 c 0.0314,-0.18857 0,-0.37714 -0.0943,-0.56571 -0.18857,-0.34572 -0.69143,-0.47143 -1.03714,-0.28286 l -4.24286,2.57714 c -0.37714,0.18857 -0.50286,0.62857 -0.28286,1.03715 0.12572,0.22 0.37714,0.37714 0.66,0.37714 0.12572,0 0.28286,-0.0629 0.37714,-0.12572 l 3.11143,-1.82285 v 19.01428 z"
               style="font-style:normal;font-variant:normal;font-weight:normal;font-stretch:normal;font-size:medium;line-height:125%;font-family:Quicksand;-inkscape-font-specification:'Quicksand, Normal';text-align:start;letter-spacing:0px;word-spacing:0px;writing-mode:lr-tb;text-anchor:start;fill:#becfd2;fill-opacity:1;stroke:none;stroke-width:1px;stroke-linecap:butt;stroke-linejoin:miter;stroke-opacity:1"
               id="path4360"
               inkscape:connector-curvature="0" />
          </g>
          <path
             inkscape:connector-curvature="0"
             id="path4336"
             style="font-style:normal;font-variant:normal;font-weight:normal;font-stretch:normal;font-size:medium;line-height:125%;font-family:Quicksand;-inkscape-font-specification:'Quicksand, Normal';text-align:start;letter-spacing:0px;word-spacing:0px;writing-mode:lr-tb;text-anchor:start;fill:#becfd2;fill-opacity:1;stroke:none;stroke-width:1px;stroke-linecap:butt;stroke-linejoin:miter;stroke-opacity:1"
             d="m 395.93074,867.53664 c 0,0.40858 0.34572,0.75429 0.75429,0.75429 0.44,0 0.75428,-0.34571 0.75428,-0.75429 v -20.20857 c 0.0314,-0.18857 0,-0.37714 -0.0943,-0.56571 -0.18857,-0.34572 -0.69143,-0.47143 -1.03715,-0.28286 l -4.24285,2.57714 c -0.37715,0.18857 -0.50286,0.62857 -0.28286,1.03715 0.12571,0.22 0.37714,0.37714 0.66,0.37714 0.12571,0 0.28286,-0.0629 0.37714,-0.12572 l 3.11143,-1.82285 v 19.01428 z" />
        </g>
        <rect
           style="fill:#4b8bd4;fill-opacity:1;stroke:none;stroke-width:0.866025"
           id="rect952"
           width="15"
           height="2.7090182"
           x="1093.5704"
           y="578.95905"
           inkscape:export-xdpi="90"
           inkscape:export-ydpi="90" />
      </g>
    </g>
  </g>
  <g
     inkscape:transform-center-y="23.551467"
     inkscape:transform-center-x="-0.051283455"
     transform="rotate(-126.87095,408.42969,584.9686)"
     id="HourHand"
     inkscape:label="#g4370">
    <rect
       style="opacity:0.01;fill:#232629;fill-opacity:0.603922;stroke:none"
       id="rect4673"
       width="18"
       height="64.000008"
       x="-154.52507"
       y="-1171.6976"
       transform="rotate(126.87095)" />
    <path
       inkscape:export-ydpi="90"
       inkscape:export-xdpi="90"
       sodipodi:nodetypes="cccccccc"
       inkscape:connector-curvature="0"
       id="rect5450"
       d="m 980.52302,549.88656 -5.95481,-0.74154 2.52119,5.5089 0.0361,-0.0506 34.4809,25.90467 3.4218,-4.69848 -34.48069,-25.90464 z"
       style="fill:#becfd2;fill-opacity:1;stroke:none" />
    <path
       sodipodi:type="inkscape:offset"
       inkscape:radius="-1.2015547"
       inkscape:original="M 974.56836 549.14453 L 977.08984 554.6543 L 977.125 554.60352 L 1011.6055 580.50781 L 1015.0273 575.80859 L 980.54688 549.9043 L 980.52344 549.88672 L 974.56836 549.14453 z "
       xlink:href="#rect5450"
       style="opacity:0.7;fill:#1f252f;fill-opacity:1;stroke:none"
       id="path4679"
       inkscape:href="#rect5450"
       d="m 976.55664,550.60156 1.44336,3.15625 33.3535,25.05664 2.0059,-2.75586 -33.30081,-25.01953 h -0.002 z" />
    <circle
       style="fill:#becfd2;fill-opacity:1;stroke:none"
       id="path5455-2"
       inkscape:export-xdpi="90"
       inkscape:export-ydpi="90"
       cx="1017.4624"
       cy="581.21692"
       r="6.4994531" />
    <path
       sodipodi:type="inkscape:offset"
       inkscape:radius="-1.498412"
       inkscape:original="M 1017.4629 574.7168 A 6.4994531 6.4994531 0 0 0 1010.9629 581.2168 A 6.4994531 6.4994531 0 0 0 1017.4629 587.7168 A 6.4994531 6.4994531 0 0 0 1023.9609 581.2168 A 6.4994531 6.4994531 0 0 0 1017.4629 574.7168 z "
       xlink:href="#path5455-2"
       style="fill:#becfd2;fill-opacity:1;stroke:none"
       id="path4681"
       inkscape:href="#path5455-2"
       d="m 1017.4629,576.21484 c -1.3094,-1.1e-4 -2.6112,0.53895 -3.5371,1.46485 -0.9259,0.92589 -1.465,2.2277 -1.4649,3.53711 -1e-4,1.30941 0.539,2.61121 1.4649,3.53711 0.9259,0.92589 2.2277,1.46495 3.5371,1.46484 1.3091,-2.9e-4 2.6096,-0.53899 3.5351,-1.46484 0.9256,-0.92586 1.465,-2.22796 1.4649,-3.53711 10e-5,-1.30916 -0.5393,-2.61126 -1.4649,-3.53711 -0.9255,-0.92586 -2.226,-1.46455 -3.5351,-1.46485 z" />
  </g>
  <g
     inkscape:label="#g6188"
     style="fill:#717171;fill-opacity:1"
     transform="rotate(120.21865,681.04377,67.743704)"
     inkscape:transform-center-y="36.661562"
     inkscape:transform-center-x="-0.046410759"
     id="MinuteHand">
    <rect
       style="opacity:0.01;fill:#1f252f;fill-opacity:1;stroke:none"
       id="rect4675"
       width="12.000004"
       height="85"
       x="-1021.052"
       y="580.65826"
       transform="rotate(-120.21865)" />
    <path
       style="fill:#becfd2;fill-opacity:1;stroke:none"
       d="m 1020.0411,578.7666 65.457,-38.09608 1.5091,2.59282 -65.4571,38.09609 z"
       id="rect5459"
       inkscape:connector-curvature="0"
       sodipodi:nodetypes="ccccc" />
    <circle
       id="path5457"
       style="fill:#becfd2;fill-opacity:1;stroke:none;stroke-width:0.564751"
       inkscape:export-xdpi="90"
       inkscape:export-ydpi="90"
       cx="1017.9764"
       cy="581.67493"
       r="3.6705737" />
  </g>
  <g
     transform="rotate(120.04085,710.50009,83.526851)"
     id="SecondHand"
     inkscape:transform-center-x="-0.014947832"
     inkscape:transform-center-y="37.602839"
     inkscape:label="#g6210">
    <rect
       style="fill:#becfd2;fill-opacity:1;stroke:none"
       id="rect6212"
       width="77.735947"
       height="1.7321701"
       x="589.80487"
       y="1010.8875"
       transform="rotate(-30)"
       inkscape:export-xdpi="90"
       inkscape:export-ydpi="90" />
    <path
       style="fill:#becfd2;fill-opacity:1;stroke:none;stroke-width:0.297835"
       d="m 1017.3521,582.00583 c 0,1.0691 -0.8666,1.93576 -1.9357,1.93576 -1.0691,0 -1.9358,-0.86666 -1.9358,-1.93576 0,-1.06909 0.8667,-1.93576 1.9358,-1.93576 1.0691,0 1.9357,0.86667 1.9357,1.93576 z"
       id="path6214"
       inkscape:connector-curvature="0" />
    <rect
       style="opacity:0.01;fill:#1f252f;fill-opacity:1;stroke:none"
       id="rect4677"
       width="8.0000019"
       height="6.999999"
       x="-1016.1953"
       y="583.71582"
       transform="rotate(-120.04085)" />
  </g>
  <g
     style="opacity:0.1;fill:#232629;fill-opacity:1"
     inkscape:transform-center-y="37.602839"
     inkscape:transform-center-x="-0.014947832"
     id="SecondHandShadow"
     transform="rotate(120.04085,714.50009,85.834352)"
     inkscape:label="#g4412">
    <path
       transform="rotate(-30)"
       style="fill:#232629;stroke:none"
       d="M 591.80505,1011.186 H 667.541 v 1.7321 h -75.73595 z"
       id="rect4414"
       inkscape:connector-curvature="0"
       sodipodi:nodetypes="ccccc" />
    <circle
       inkscape:export-ydpi="90"
       inkscape:export-xdpi="90"
       style="fill:#232629;fill-opacity:0.00392157;stroke:none"
       id="path4416"
       transform="matrix(0.29783451,0,0,0.29783451,489.8134,467.44934)"
       cx="1771.3964"
       cy="382.03223"
       r="6.4994531" />
    <rect
       style="opacity:0.01;fill:#1f252f;fill-opacity:1;stroke:none"
       id="rect4715"
       width="5.999999"
       height="82"
       x="113"
       y="97"
       transform="rotate(-120.04085,705.50009,80.642475)" />
  </g>
  <path
     sodipodi:type="arc"
     style="opacity:0.001;fill:#1f252f;fill-opacity:1;stroke:none"
     id="HandCenterScrew"
     sodipodi:cx="-50"
     sodipodi:cy="100"
     sodipodi:rx="5"
     sodipodi:ry="5"
     d="m -45,100 a 5,5 0 1 1 -10,0 5,5 0 1 1 10,0 z"
     inkscape:label="#path4580" />
  <path
     sodipodi:type="arc"
     style="opacity:0.00100002;fill:#232629;fill-opacity:1;stroke:none"
     id="Glass"
     sodipodi:cx="-195"
     sodipodi:cy="100"
     sodipodi:rx="45"
     sodipodi:ry="45"
     d="m -150,100 a 45,45 0 1 1 -90,0 45,45 0 1 1 90,0 z"
     transform="matrix(1.5739209,0,0,1.5739209,111.91458,-57.39209)"
     inkscape:label="#path4584" />
  <g
     id="MinuteHandShadow"
     inkscape:transform-center-x="-0.046410759"
     inkscape:transform-center-y="36.661562"
     transform="rotate(120.21865,686.04377,70.617749)"
     style="opacity:0.1;fill:#232629;fill-opacity:1"
     inkscape:label="#g4402">
    <path
       style="opacity:0.85;fill:#1f252f;fill-opacity:1;stroke:none;stroke-width:1.02131"
       d="m 1019.7098,578.14936 66.4728,-38.68926 1.509,2.59284 -66.4727,38.68927 z"
       id="rect4404"
       inkscape:connector-curvature="0"
       sodipodi:nodetypes="ccccc" />
    <circle
       id="path4406"
       style="opacity:0.85;fill:#1f252f;fill-opacity:1;stroke:none;stroke-width:0.624964"
       inkscape:export-xdpi="90"
       inkscape:export-ydpi="90"
       cx="1017.6559"
       cy="581.08051"
       r="4.0619221" />
  </g>
  <g
     inkscape:transform-center-y="22.887218"
     inkscape:transform-center-x="-0.051283455"
     transform="rotate(-126.87095,416.28764,581.2625)"
     id="HourHandShadow"
     inkscape:label="#g4370"
     style="opacity:0.1">
    <rect
       style="opacity:0.01;fill:#f9f9f9;fill-opacity:0.603922;stroke:none"
       id="rect4673-7"
       width="18"
       height="64.000008"
       x="33.000023"
       y="91.000023"
       transform="rotate(126.87095,409.42971,584.46862)" />
    <path
       inkscape:export-ydpi="90"
       inkscape:export-xdpi="90"
       sodipodi:nodetypes="cccccccc"
       inkscape:connector-curvature="0"
       id="rect5450-5"
       d="m 980.52302,549.88656 -5.95481,-0.74154 2.52119,5.5089 0.0361,-0.0506 34.4809,25.90467 3.4218,-4.69848 -34.48069,-25.90464 z"
       style="fill:#1f252f;fill-opacity:1;stroke:none" />
    <circle
       r="6.4994531"
       cy="382.03223"
       cx="1771.3964"
       style="fill:#1f252f;fill-opacity:1;stroke:none;opacity:0.85"
       id="path5455-2-3"
       transform="translate(-753.93395,199.18469)"
       inkscape:export-xdpi="90"
       inkscape:export-ydpi="90" />
  </g>
  <rect
     id="hint-hands-shadow-offset-to-south"
     style="opacity:0.01;fill:#008080;fill-opacity:1;stroke:none"
     width="4"
     height="2"
     x="100"
     y="70" />
</svg>
