<?xml version="1.0" encoding="UTF-8" standalone="no"?>
<svg
   xmlns:osb="http://www.openswatchbook.org/uri/2009/osb"
   xmlns:dc="http://purl.org/dc/elements/1.1/"
   xmlns:cc="http://creativecommons.org/ns#"
   xmlns:rdf="http://www.w3.org/1999/02/22-rdf-syntax-ns#"
   xmlns:svg="http://www.w3.org/2000/svg"
   xmlns="http://www.w3.org/2000/svg"
   xmlns:sodipodi="http://sodipodi.sourceforge.net/DTD/sodipodi-0.dtd"
   xmlns:inkscape="http://www.inkscape.org/namespaces/inkscape"
   width="128"
   height="128"
   id="svg2"
   sodipodi:version="0.32"
   inkscape:version="1.0.2 (e86c870879, 2021-01-15)"
   version="1.0"
   sodipodi:docname="containment-controls.svg"
   inkscape:export-xdpi="11.25"
   inkscape:export-ydpi="11.25">
  <sodipodi:namedview
     id="base"
     pagecolor="#ffffff"
     bordercolor="#666666"
     borderopacity="1.0"
     gridtolerance="10000"
     guidetolerance="10"
     objecttolerance="10"
     inkscape:pageopacity="1"
     inkscape:pageshadow="2"
     inkscape:zoom="2.8284271"
     inkscape:cx="80.417061"
     inkscape:cy="84.741978"
     inkscape:document-units="px"
     inkscape:current-layer="layer1"
     width="128px"
     height="128px"
     showgrid="false"
     inkscape:window-width="1920"
     inkscape:window-height="1007"
     inkscape:window-x="0"
     inkscape:window-y="0"
     inkscape:snap-nodes="true"
     inkscape:snap-global="true"
     inkscape:window-maximized="1"
     showguides="false"
     inkscape:guide-bbox="true"
     inkscape:snap-page="true"
     inkscape:snap-bbox="true"
     inkscape:snap-bbox-edge-midpoints="true"
     inkscape:lockguides="false"
     inkscape:document-rotation="0">
    <inkscape:grid
       enabled="true"
       visible="true"
       empspacing="2"
       empopacity="0.03921569"
       opacity="0.01960784"
       empcolor="#0000ff"
       color="#0000ff"
       spacingy="1"
       spacingx="1"
       originy="0"
       originx="0"
       type="xygrid"
       id="GridFromPre046Settings"
       snapvisiblegridlinesonly="true" />
    <sodipodi:guide
       orientation="0,1"
       position="0,0"
       id="guide5546"
       inkscape:locked="false" />
  </sodipodi:namedview>
  <defs
     id="defs4">
    <linearGradient
       id="linearGradient3937">
      <stop
         style="stop-color:#888888;stop-opacity:1;"
         offset="0"
         id="stop3939" />
      <stop
         style="stop-color:#232323;stop-opacity:1;"
         offset="1"
         id="stop3941" />
    </linearGradient>
    <linearGradient
       id="linearGradient3488">
      <stop
         id="stop3490"
         offset="0"
         style="stop-color:#ffffff;stop-opacity:0.78431374;" />
      <stop
         id="stop3492"
         offset="1"
         style="stop-color:#ffffff;stop-opacity:0.19607843;" />
    </linearGradient>
    <linearGradient
       id="linearGradient4157">
      <stop
         style="stop-color:#ffffff;stop-opacity:1;"
         offset="0"
         id="stop4159" />
      <stop
         style="stop-color:#b4b4b4;stop-opacity:1;"
         offset="1"
         id="stop4161" />
    </linearGradient>
    <linearGradient
       osb:paint="solid"
       id="linearGradient6476">
      <stop
         id="stop6478"
         offset="0"
         style="stop-color:#ffffff;stop-opacity:1;" />
    </linearGradient>
    <linearGradient
       osb:paint="solid"
       id="linearGradient6476-1">
      <stop
         id="stop6478-5"
         offset="0"
         style="stop-color:#ffffff;stop-opacity:1;" />
    </linearGradient>
    <linearGradient
       id="linearGradient3852-7">
      <stop
         id="stop3854-7"
         offset="0"
         style="stop-color:#000000;stop-opacity:0.07843138;" />
      <stop
         id="stop3856-1"
         offset="1"
         style="stop-color:#000000;stop-opacity:0.3137255;" />
    </linearGradient>
    <linearGradient
       id="linearGradient3765-0">
      <stop
         id="stop3767-9"
         offset="0"
         style="stop-color:#fafafa;stop-opacity:1;" />
      <stop
         id="stop3769-1"
         offset="1"
         style="stop-color:#e2e2e2;stop-opacity:0.70588237;" />
    </linearGradient>
    <style
       id="current-color-scheme"
       type="text/css">      
      }</style>
  </defs>
  <metadata
     id="metadata7">
    <rdf:RDF>
      <cc:Work
         rdf:about="">
        <dc:format>image/svg+xml</dc:format>
        <dc:type
           rdf:resource="http://purl.org/dc/dcmitype/StillImage" />
        <dc:title />
      </cc:Work>
    </rdf:RDF>
  </metadata>
  <g
     id="layer1"
     inkscape:groupmode="layer"
     inkscape:label="Layer 1">
    <rect
       y="0"
       x="-10"
       height="5.4025974"
       width="5.2207794"
       id="hint-tile-center"
       style="opacity:0.01;fill:#00adcf;fill-opacity:1;fill-rule:nonzero;stroke:none;stroke-width:1;stroke-linecap:round;stroke-linejoin:round;stroke-miterlimit:4;stroke-dasharray:none;stroke-dashoffset:0;stroke-opacity:1" />
    <g
       id="g4025"
       style="fill:#ffffff;fill-opacity:1"
       transform="rotate(-90,85.72097,51.27903)" />
    <g
       id="vertical-centerindicator"
       transform="translate(1,-28)">
      <rect
         style="opacity:1;fill:#4b8bd4;fill-opacity:1;fill-rule:nonzero;stroke:none"
         id="rect4223-8"
         width="42"
         height="1"
         x="11"
         y="32"
         class="ColorScheme-Background" />
    </g>
    <g
       id="horizontal-centerindicator"
       transform="translate(-4,17)">
      <path
         transform="rotate(-90)"
         style="opacity:1;fill:#4b8bd4;fill-opacity:1;fill-rule:nonzero;stroke:none"
         d="M -31,8 H 11 V 9 H -31 Z"
         id="rect4227-2"
         class="ColorScheme-Background"
         inkscape:connector-curvature="0" />
    </g>
    <g
       inkscape:label="#g5481"
       transform="matrix(0.73968509,0,0,0.73968509,161.52649,126.20676)"
       id="south-maxslider">
      <rect
         style="opacity:0.01;fill:#fcfcfc;fill-opacity:0.00392157;stroke:none"
         id="rect3850"
         width="36"
         height="15"
         x="8.000001"
         y="57"
         transform="matrix(1.3519267,0,0,1.3519267,-107.51398,-181.4377)"
         rx="3"
         ry="3" />
      <rect
         class="ColorScheme-Background"
         y="-101.67403"
         x="-73.715813"
         height="14.871195"
         width="2.7038541"
         id="rect5489"
         style="fill:#4b8bd4;fill-opacity:1;stroke:none" />
      <path
         style="fill:#4b8bd4;fill-opacity:1;stroke:none"
         d="m 19.6875,59.15625 -0.75,0.6875 L 23.09375,64 H 11.000001 v 1 H 23.09375 l -4.15625,4.15625 0.6875,0.6875 5,-5 L 25,64.5 24.625,64.15625 Z"
         transform="matrix(1.3519267,0,0,1.3519267,-107.51398,-181.4377)"
         id="path3852"
         class="ColorScheme-Background"
         inkscape:connector-curvature="0"
         sodipodi:nodetypes="cccccccccccc" />
    </g>
    <g
       inkscape:label="#g5494"
       transform="matrix(0.73968509,0,0,0.73968509,129.5296,125.20016)"
       id="south-offsetslider">
      <rect
         style="opacity:0.01;fill:#fcfcfc;fill-opacity:0.00392157;stroke:none"
         id="rect3080"
         width="28"
         height="19"
         x="-40"
         y="56"
         transform="matrix(1.3519267,0,0,1.3519267,-37.218,-180.07685)" />
      <path
         style="fill:#4b8bd4;fill-opacity:1;stroke:none"
         inkscape:transform-center-y="0.9853864"
         d="m -72.265772,-88.18535 9.733014,-13.47975 h -19.466029 z"
         id="path5500"
         inkscape:connector-curvature="0"
         class="ColorScheme-Background" />
    </g>
    <rect
       style="opacity:0.9;fill:#d3dae3;fill-opacity:1;stroke:none"
       id="south-center"
       width="10"
       height="12"
       x="71"
       y="66"
       class="ColorScheme-ButtonText"
       inkscape:label="#rect5507" />
    <rect
       class="ColorScheme-ButtonText"
       y="78"
       x="71"
       height="1"
       width="10"
       id="south-bottom"
       style="opacity:0.9;fill:#d3dae3;fill-opacity:1;stroke:none"
       inkscape:label="#rect5509" />
    <rect
       style="opacity:0.9;fill:#d3dae3;fill-opacity:1;stroke:none"
       id="south-top"
       width="10"
       height="1"
       x="71"
       y="65"
       class="ColorScheme-ButtonText"
       inkscape:label="#rect5511" />
    <rect
       style="opacity:0.9;fill:#d3dae3;fill-opacity:1;stroke:none"
       id="north-center"
       width="10"
       height="12"
       x="70"
       y="29"
       class="ColorScheme-ButtonText"
       inkscape:label="#rect5507" />
    <rect
       class="ColorScheme-ButtonText"
       y="41"
       x="70"
       height="1"
       width="10"
       id="north-bottom"
       style="opacity:0.9;fill:#d3dae3;fill-opacity:1;stroke:none"
       inkscape:label="#rect5509" />
    <rect
       style="opacity:0.9;fill:#d3dae3;fill-opacity:1;stroke:none"
       id="north-top"
       width="10"
       height="1"
       x="70"
       y="28"
       class="ColorScheme-ButtonText"
       inkscape:label="#rect5511" />
    <rect
       style="opacity:0.9;fill:#d3dae3;fill-opacity:1;stroke:none"
       id="west-center"
       width="10"
       height="12"
       x="113"
       y="-18"
       class="ColorScheme-ButtonText"
       inkscape:label="#rect5507"
       transform="rotate(90)" />
    <rect
       class="ColorScheme-ButtonText"
       y="-6"
       x="113"
       height="1"
       width="10"
       id="west-left"
       style="opacity:0.9;fill:#d3dae3;fill-opacity:1;stroke:none"
       inkscape:label="#rect5509"
       transform="rotate(90)" />
    <rect
       style="opacity:0.9;fill:#d3dae3;fill-opacity:1;stroke:none"
       id="west-right"
       width="10"
       height="1"
       x="113"
       y="-19"
       class="ColorScheme-ButtonText"
       inkscape:label="#rect5511"
       transform="rotate(90)" />
    <rect
       style="opacity:0.9;fill:#d3dae3;fill-opacity:1;stroke:none"
       id="east-center"
       width="10"
       height="12"
       x="112"
       y="-90"
       class="ColorScheme-ButtonText"
       inkscape:label="#rect5507"
       transform="rotate(90)" />
    <rect
       class="ColorScheme-ButtonText"
       y="-78"
       x="112"
       height="1"
       width="10"
       id="east-left"
       style="opacity:0.9;fill:#d3dae3;fill-opacity:1;stroke:none"
       inkscape:label="#rect5509"
       transform="rotate(90)" />
    <rect
       style="opacity:0.9;fill:#d3dae3;fill-opacity:1;stroke:none"
       id="east-right"
       width="10"
       height="1"
       x="112"
       y="-91"
       class="ColorScheme-ButtonText"
       inkscape:label="#rect5511"
       transform="rotate(90)" />
    <g
       id="south-minslider"
       transform="matrix(-0.73968509,0,0,0.73968509,54.473514,141.20676)"
       inkscape:label="#g5481">
      <rect
         ry="3"
         rx="3"
         transform="matrix(1.3519267,0,0,1.3519267,-107.51398,-181.4377)"
         y="57"
         x="8.000001"
         height="15"
         width="36"
         id="rect3863"
         style="opacity:0.01;fill:#fcfcfc;fill-opacity:0.00392157;stroke:none" />
      <rect
         style="fill:#4b8bd4;fill-opacity:1;stroke:none"
         id="rect3865"
         width="2.7038541"
         height="14.871195"
         x="-73.715813"
         y="-101.67403"
         class="ColorScheme-Background" />
      <path
         id="path3867"
         transform="matrix(1.3519267,0,0,1.3519267,-107.51398,-181.4377)"
         d="m 19.625001,59.15625 -0.6875,0.6875 L 23.093751,64 H 11.000002 v 1 h 12.093749 l -4.15625,4.15625 0.6875,0.6875 5,-5 0.375,-0.34375 -0.375,-0.34375 z"
         style="fill:#4b8bd4;fill-opacity:1;stroke:none"
         inkscape:connector-curvature="0"
         class="ColorScheme-Background"
         sodipodi:nodetypes="cccccccccccc" />
    </g>
    <g
       id="north-maxslider"
       transform="matrix(0.73968509,0,0,0.73968509,161.52649,84.70676)"
       inkscape:label="#g5481">
      <rect
         ry="3"
         rx="3"
         transform="matrix(1.3519267,0,0,1.3519267,-107.51398,-181.4377)"
         y="57"
         x="8.000001"
         height="15"
         width="36"
         id="rect3845"
         style="opacity:0.01;fill:#fcfcfc;fill-opacity:0.00392157;stroke:none" />
      <rect
         style="fill:#4b8bd4;fill-opacity:1;stroke:none"
         id="rect3847"
         width="2.7038541"
         height="14.871195"
         x="-73.715813"
         y="-101.67403"
         class="ColorScheme-Background" />
      <path
         sodipodi:nodetypes="cccccccccccc"
         inkscape:connector-curvature="0"
         class="ColorScheme-Background"
         id="path3849"
         transform="matrix(1.3519267,0,0,1.3519267,-107.51398,-181.4377)"
         d="m 19.6875,59.15625 -0.75,0.6875 L 23.09375,64 H 11.000001 v 1 H 23.09375 l -4.15625,4.15625 0.6875,0.6875 5,-5 L 25,64.5 24.625,64.15625 Z"
         style="fill:#4b8bd4;fill-opacity:1;stroke:none" />
    </g>
    <g
       id="north-offsetslider"
       transform="matrix(0.73968509,0,0,-0.73968509,127.5296,-57.20016)"
       inkscape:label="#g5494">
      <rect
         transform="matrix(1.3519267,0,0,1.3519267,-37.218,-180.07685)"
         y="56"
         x="-40"
         height="19"
         width="28"
         id="rect3853"
         style="opacity:0.01;fill:#fcfcfc;fill-opacity:0.00392157;stroke:none" />
      <path
         class="ColorScheme-Background"
         inkscape:connector-curvature="0"
         id="path3855"
         d="m -72.265772,-88.18535 9.733014,-13.47975 h -19.466029 z"
         inkscape:transform-center-y="0.9853864"
         style="fill:#4b8bd4;fill-opacity:1;stroke:none" />
    </g>
    <g
       inkscape:label="#g5481"
       transform="matrix(-0.73968509,0,0,0.73968509,54.473511,99.70676)"
       id="north-minslider">
      <rect
         style="opacity:0.01;fill:#fcfcfc;fill-opacity:0.00392157;stroke:none"
         id="rect3859"
         width="36"
         height="15"
         x="8.000001"
         y="57"
         transform="matrix(1.3519267,0,0,1.3519267,-107.51398,-181.4377)"
         rx="3"
         ry="3" />
      <rect
         class="ColorScheme-Background"
         y="-101.67403"
         x="-73.715813"
         height="14.871195"
         width="2.7038541"
         id="rect3861"
         style="fill:#4b8bd4;fill-opacity:1;stroke:none" />
      <path
         sodipodi:nodetypes="cccccccccccc"
         class="ColorScheme-Background"
         inkscape:connector-curvature="0"
         style="fill:#4b8bd4;fill-opacity:1;stroke:none"
         d="m 19.625001,59.15625 -0.6875,0.6875 L 23.093751,64 H 11.000002 v 1 h 12.093749 l -4.15625,4.15625 0.6875,0.6875 5,-5 0.375,-0.34375 -0.375,-0.34375 z"
         transform="matrix(1.3519267,0,0,1.3519267,-107.51398,-181.4377)"
         id="path3863" />
    </g>
    <g
       inkscape:label="#g5481"
       transform="matrix(0,0.73968509,-0.73968509,0,33.79324,153.52649)"
       id="east-maxslider">
      <rect
         style="opacity:0.01;fill:#fcfcfc;fill-opacity:0.00392157;stroke:none"
         id="rect3873"
         width="36"
         height="15"
         x="8.000001"
         y="57"
         transform="matrix(1.3519267,0,0,1.3519267,-107.51398,-181.4377)"
         rx="3"
         ry="3" />
      <rect
         class="ColorScheme-Background"
         y="-101.67403"
         x="-73.715813"
         height="14.871195"
         width="2.7038541"
         id="rect3875"
         style="fill:#4b8bd4;fill-opacity:1;stroke:none" />
      <path
         style="fill:#4b8bd4;fill-opacity:1;stroke:none"
         d="m 19.6875,59.15625 -0.75,0.6875 L 23.09375,64 H 11.000001 v 1 H 23.09375 l -4.15625,4.15625 0.6875,0.6875 5,-5 L 25,64.5 24.625,64.15625 Z"
         transform="matrix(1.3519267,0,0,1.3519267,-107.51398,-181.4377)"
         id="path3877"
         class="ColorScheme-Background"
         inkscape:connector-curvature="0"
         sodipodi:nodetypes="cccccccccccc" />
    </g>
    <g
       inkscape:label="#g5494"
       transform="matrix(0,0.73968509,0.73968509,0,153.20016,149.5296)"
       id="east-offsetslider">
      <rect
         style="opacity:0.01;fill:#fcfcfc;fill-opacity:0.00392157;stroke:none"
         id="rect3881"
         width="28"
         height="19"
         x="-40"
         y="56"
         transform="matrix(1.3519267,0,0,1.3519267,-37.218,-180.07685)" />
      <path
         style="fill:#4b8bd4;fill-opacity:1;stroke:none"
         inkscape:transform-center-y="0.9853864"
         d="m -72.265772,-88.18535 9.733014,-13.47975 h -19.466029 z"
         id="path3883"
         inkscape:connector-curvature="0"
         class="ColorScheme-Background" />
    </g>
    <g
       id="east-minslider"
       transform="matrix(0,-0.73968509,-0.73968509,0,49.79324,46.473514)"
       inkscape:label="#g5481">
      <rect
         ry="3"
         rx="3"
         transform="matrix(1.3519267,0,0,1.3519267,-107.51398,-181.4377)"
         y="57"
         x="8.000001"
         height="15"
         width="36"
         id="rect3887"
         style="opacity:0.01;fill:#fcfcfc;fill-opacity:0.00392157;stroke:none" />
      <rect
         style="fill:#4b8bd4;fill-opacity:1;stroke:none"
         id="rect3889"
         width="2.7038541"
         height="14.871195"
         x="-73.715813"
         y="-101.67403"
         class="ColorScheme-Background" />
      <path
         id="path3891"
         transform="matrix(1.3519267,0,0,1.3519267,-107.51398,-181.4377)"
         d="m 19.625001,59.15625 -0.6875,0.6875 L 23.093751,64 H 11.000002 v 1 h 12.093749 l -4.15625,4.15625 0.6875,0.6875 5,-5 0.375,-0.34375 -0.375,-0.34375 z"
         style="fill:#4b8bd4;fill-opacity:1;stroke:none"
         inkscape:connector-curvature="0"
         class="ColorScheme-Background"
         sodipodi:nodetypes="cccccccccccc" />
    </g>
    <g
       id="west-maxslider"
       transform="matrix(0,0.73968509,-0.73968509,0,-38.20676,153.52649)"
       inkscape:label="#g5481">
      <rect
         ry="3"
         rx="3"
         transform="matrix(1.3519267,0,0,1.3519267,-107.51398,-181.4377)"
         y="57"
         x="8.000001"
         height="15"
         width="36"
         id="rect3901"
         style="opacity:0.01;fill:#fcfcfc;fill-opacity:0.00392157;stroke:none" />
      <rect
         style="fill:#4b8bd4;fill-opacity:1;stroke:none"
         id="rect3903"
         width="2.7038541"
         height="14.871195"
         x="-73.715813"
         y="-101.67403"
         class="ColorScheme-Background" />
      <path
         sodipodi:nodetypes="cccccccccccc"
         inkscape:connector-curvature="0"
         class="ColorScheme-Background"
         id="path3905"
         transform="matrix(1.3519267,0,0,1.3519267,-107.51398,-181.4377)"
         d="m 19.6875,59.15625 -0.75,0.6875 L 23.09375,64 H 11.000001 v 1 H 23.09375 l -4.15625,4.15625 0.6875,0.6875 5,-5 L 25,64.5 24.625,64.15625 Z"
         style="fill:#4b8bd4;fill-opacity:1;stroke:none" />
    </g>
    <g
       id="west-offsetslider"
       transform="matrix(0,0.73968509,-0.73968509,0,-57.20016,149.5296)"
       inkscape:label="#g5494">
      <rect
         transform="matrix(1.3519267,0,0,1.3519267,-37.218,-180.07685)"
         y="56"
         x="-40"
         height="19"
         width="28"
         id="rect3909"
         style="opacity:0.01;fill:#fcfcfc;fill-opacity:0.00392157;stroke:none" />
      <path
         class="ColorScheme-Background"
         inkscape:connector-curvature="0"
         id="path3911"
         d="m -72.265772,-88.18535 9.733014,-13.47975 h -19.466029 z"
         inkscape:transform-center-y="0.9853864"
         style="fill:#4b8bd4;fill-opacity:1;stroke:none" />
    </g>
    <g
       inkscape:label="#g5481"
       transform="matrix(0,-0.73968509,-0.73968509,0,-18.70676,46.473514)"
       id="west-minslider">
      <rect
         style="opacity:0.01;fill:#fcfcfc;fill-opacity:0.00392157;stroke:none"
         id="rect3915"
         width="36"
         height="15"
         x="8.000001"
         y="57"
         transform="matrix(1.3519267,0,0,1.3519267,-107.51398,-181.4377)"
         rx="3"
         ry="3" />
      <rect
         class="ColorScheme-Background"
         y="-101.67403"
         x="-73.715813"
         height="14.871195"
         width="2.7038541"
         id="rect3917"
         style="fill:#4b8bd4;fill-opacity:1;stroke:none" />
      <path
         sodipodi:nodetypes="cccccccccccc"
         class="ColorScheme-Background"
         inkscape:connector-curvature="0"
         style="fill:#4b8bd4;fill-opacity:1;stroke:none"
         d="m 19.625001,59.15625 -0.6875,0.6875 L 23.093751,64 H 11.000002 v 1 h 12.093749 l -4.15625,4.15625 0.6875,0.6875 5,-5 0.375,-0.34375 -0.375,-0.34375 z"
         transform="matrix(1.3519267,0,0,1.3519267,-107.51398,-181.4377)"
         id="path3919" />
    </g>
  </g>
</svg>
