<?xml version="1.0" encoding="UTF-8" standalone="no"?>
<!-- Created with Inkscape (http://www.inkscape.org/) -->

<svg
   id="svg2"
   sodipodi:version="0.32"
   inkscape:version="1.1 (c68e22c387, 2021-05-23)"
   width="136.53334"
   height="320"
   sodipodi:docname="listitem.svg"
   inkscape:output_extension="org.inkscape.output.svg.inkscape"
   inkscape:export-filename="/home/pinheiro/Documents/pics/estilo/plasma/wether.png"
   inkscape:export-xdpi="90"
   inkscape:export-ydpi="90"
   version="1.0"
   viewBox="0 0 128 300"
   xmlns:inkscape="http://www.inkscape.org/namespaces/inkscape"
   xmlns:sodipodi="http://sodipodi.sourceforge.net/DTD/sodipodi-0.dtd"
   xmlns:xlink="http://www.w3.org/1999/xlink"
   xmlns="http://www.w3.org/2000/svg"
   xmlns:svg="http://www.w3.org/2000/svg"
   xmlns:rdf="http://www.w3.org/1999/02/22-rdf-syntax-ns#"
   xmlns:cc="http://creativecommons.org/ns#"
   xmlns:dc="http://purl.org/dc/elements/1.1/">
  <sodipodi:namedview
     inkscape:window-height="1007"
     inkscape:window-width="1920"
     inkscape:pageshadow="2"
     inkscape:pageopacity="1"
     guidetolerance="10.0"
     gridtolerance="10.0"
     objecttolerance="10.0"
     borderopacity="1"
     bordercolor="#000000"
     pagecolor="#ffffff"
     id="base"
     inkscape:zoom="1.6549957"
     inkscape:cx="84.290249"
     inkscape:cy="134.13932"
     inkscape:window-x="0"
     inkscape:window-y="0"
     inkscape:current-layer="svg2"
     showgrid="false"
     showguides="true"
     inkscape:guide-bbox="true"
     inkscape:snap-guide="false"
     inkscape:snap-bbox="true"
     inkscape:object-paths="true"
     inkscape:bbox-nodes="false"
     inkscape:snap-global="true"
     inkscape:object-nodes="true"
     inkscape:window-maximized="1"
     inkscape:pagecheckerboard="0"
     inkscape:lockguides="false"
     inkscape:showpageshadow="false">
    <inkscape:grid
       type="xygrid"
       id="grid5592"
       visible="true"
       enabled="true"
       empspacing="5"
       snapvisiblegridlinesonly="true"
       color="#0000ff"
       opacity="0.01960784"
       empcolor="#0000ff"
       empopacity="0.03921569"
       originx="0"
       originy="0"
       spacingx="1"
       spacingy="1" />
  </sodipodi:namedview>
  <metadata
     id="metadata7">
    <rdf:RDF>
      <cc:Work
         rdf:about="">
        <dc:format>image/svg+xml</dc:format>
        <dc:type
           rdf:resource="http://purl.org/dc/dcmitype/StillImage" />
      </cc:Work>
      <cc:Work
         rdf:about="">
        <dc:format>image/svg+xml</dc:format>
        <dc:type
           rdf:resource="http://purl.org/dc/dcmitype/StillImage" />
      </cc:Work>
    </rdf:RDF>
  </metadata>
  <defs
     id="defs5">
    <linearGradient
       id="linearGradient3830">
      <stop
         id="stop3832"
         offset="0"
         style="stop-color:#ffffff;stop-opacity:0.84313726;" />
      <stop
         id="stop3834"
         offset="1"
         style="stop-color:#ffffff;stop-opacity:0;" />
    </linearGradient>
    <inkscape:perspective
       id="perspective4017"
       inkscape:persp3d-origin="63.999997 : 120 : 1"
       inkscape:vp_z="127.99999 : 170 : 1"
       inkscape:vp_y="0 : 1000 : 0"
       inkscape:vp_x="0 : 170 : 1"
       sodipodi:type="inkscape:persp3d" />
    <linearGradient
       id="linearGradient3948">
      <stop
         id="stop3950"
         offset="0"
         style="stop-color:#a5a5a5;stop-opacity:1;" />
      <stop
         id="stop3952"
         offset="1"
         style="stop-color:#ffffff;stop-opacity:1;" />
    </linearGradient>
    <linearGradient
       id="linearGradient3788">
      <stop
         style="stop-color:#ffffff;stop-opacity:0.43137255;"
         offset="0"
         id="stop3790" />
      <stop
         style="stop-color:#d7d7d7;stop-opacity:0;"
         offset="1"
         id="stop3792" />
    </linearGradient>
    <linearGradient
       id="linearGradient3191">
      <stop
         id="stop3193"
         offset="0"
         style="stop-color:#ffffff;stop-opacity:1;" />
      <stop
         id="stop3195"
         offset="1"
         style="stop-color:#ffffff;stop-opacity:0;" />
    </linearGradient>
    <linearGradient
       id="linearGradient3205">
      <stop
         style="stop-color:#000000;stop-opacity:1;"
         offset="0"
         id="stop3207" />
      <stop
         style="stop-color:#000000;stop-opacity:0;"
         offset="1"
         id="stop3209" />
    </linearGradient>
    <linearGradient
       id="linearGradient3217">
      <stop
         id="stop3219-2"
         offset="0"
         style="stop-color:#000000;stop-opacity:1;" />
      <stop
         style="stop-color:#000000;stop-opacity:0.49803922;"
         offset="0.28070176"
         id="stop3173" />
      <stop
         id="stop3175"
         offset="0.55832565"
         style="stop-color:#000000;stop-opacity:0.24705882;" />
      <stop
         id="stop3221-6"
         offset="1"
         style="stop-color:#000000;stop-opacity:0;" />
    </linearGradient>
    <radialGradient
       inkscape:collect="always"
       xlink:href="#linearGradient3217"
       id="radialGradient3965"
       gradientUnits="userSpaceOnUse"
       gradientTransform="matrix(0.14444763,0,0,0.01872387,-62.31353,11.595444)"
       cx="389.85434"
       cy="181.82994"
       fx="389.85434"
       fy="181.82994"
       r="373.85434" />
    <radialGradient
       inkscape:collect="always"
       xlink:href="#linearGradient3205"
       id="radialGradient3968"
       gradientUnits="userSpaceOnUse"
       gradientTransform="matrix(0.1444413,0,0,0.2257731,-62.31106,-8.996376)"
       cx="389.85434"
       cy="108.5"
       fx="389.85434"
       fy="108.5"
       r="373.85434" />
    <radialGradient
       inkscape:collect="always"
       xlink:href="#linearGradient3191"
       id="radialGradient3971"
       gradientUnits="userSpaceOnUse"
       gradientTransform="matrix(0.1444413,0,0,0.2257731,-62.31106,-7.996376)"
       cx="389.85434"
       cy="108.5"
       fx="389.85434"
       fy="108.5"
       r="373.85434" />
    <radialGradient
       inkscape:collect="always"
       xlink:href="#linearGradient3205"
       id="radialGradient3697"
       gradientUnits="userSpaceOnUse"
       gradientTransform="matrix(0.06419612,0,0,0.2257731,3.972862,-85.996376)"
       cx="389.85434"
       cy="108.5"
       fx="389.85434"
       fy="108.5"
       r="373.85434" />
    <radialGradient
       inkscape:collect="always"
       xlink:href="#linearGradient3191"
       id="radialGradient3700"
       gradientUnits="userSpaceOnUse"
       gradientTransform="matrix(0.06419612,0,0,0.2257731,3.972862,-86.996384)"
       cx="389.85434"
       cy="108.5"
       fx="389.85434"
       fy="108.5"
       r="373.85434" />
    <radialGradient
       r="373.85434"
       fy="108.5"
       fx="389.85434"
       cy="108.5"
       cx="389.85434"
       gradientTransform="matrix(0.06419612,0,0,0.2257731,3.972862,-122.99638)"
       gradientUnits="userSpaceOnUse"
       id="radialGradient3868"
       xlink:href="#linearGradient3205"
       inkscape:collect="always" />
    <radialGradient
       r="373.85434"
       fy="108.5"
       fx="389.85434"
       cy="108.5"
       cx="389.85434"
       gradientTransform="matrix(0.06419612,0,0,0.2257731,3.972862,-109.99638)"
       gradientUnits="userSpaceOnUse"
       id="radialGradient3870"
       xlink:href="#linearGradient3191"
       inkscape:collect="always" />
    <radialGradient
       inkscape:collect="always"
       xlink:href="#linearGradient3191"
       id="radialGradient4081"
       gradientUnits="userSpaceOnUse"
       gradientTransform="matrix(0.1444413,0,0,0.2257731,-62.31106,-7.996376)"
       cx="389.85434"
       cy="108.5"
       fx="389.85434"
       fy="108.5"
       r="373.85434" />
    <radialGradient
       inkscape:collect="always"
       xlink:href="#linearGradient3205"
       id="radialGradient4083"
       gradientUnits="userSpaceOnUse"
       gradientTransform="matrix(0.1444413,0,0,0.2257731,-62.31106,-8.996376)"
       cx="389.85434"
       cy="108.5"
       fx="389.85434"
       fy="108.5"
       r="373.85434" />
    <radialGradient
       inkscape:collect="always"
       xlink:href="#linearGradient3217"
       id="radialGradient4085"
       gradientUnits="userSpaceOnUse"
       gradientTransform="matrix(0.14444763,0,0,0.01872387,-62.31353,11.595444)"
       cx="389.85434"
       cy="181.82994"
       fx="389.85434"
       fy="181.82994"
       r="373.85434" />
    <radialGradient
       inkscape:collect="always"
       xlink:href="#linearGradient3217"
       id="radialGradient4088"
       gradientUnits="userSpaceOnUse"
       gradientTransform="matrix(0.06419893,0,0,0.01872387,3.9717647,-10.404564)"
       cx="389.85434"
       cy="181.82994"
       fx="389.85434"
       fy="181.82994"
       r="373.85434" />
    <radialGradient
       inkscape:collect="always"
       xlink:href="#linearGradient3205"
       id="radialGradient4091"
       gradientUnits="userSpaceOnUse"
       gradientTransform="matrix(0.06419612,0,0,0.2257731,3.9728624,-30.996384)"
       cx="389.85434"
       cy="108.5"
       fx="389.85434"
       fy="108.5"
       r="373.85434" />
    <radialGradient
       inkscape:collect="always"
       xlink:href="#linearGradient3191"
       id="radialGradient4094"
       gradientUnits="userSpaceOnUse"
       gradientTransform="matrix(0.06419612,0,0,0.2257731,3.9728624,-28.996384)"
       cx="389.85434"
       cy="108.5"
       fx="389.85434"
       fy="108.5"
       r="373.85434" />
    <radialGradient
       inkscape:collect="always"
       xlink:href="#linearGradient3205"
       id="radialGradient3824"
       gradientUnits="userSpaceOnUse"
       gradientTransform="matrix(0.06419612,0,0,0.2257731,3.972862,-85.996376)"
       cx="389.85434"
       cy="108.5"
       fx="389.85434"
       fy="108.5"
       r="373.85434" />
    <radialGradient
       inkscape:collect="always"
       xlink:href="#linearGradient3191"
       id="radialGradient3826"
       gradientUnits="userSpaceOnUse"
       gradientTransform="matrix(0.06419612,0,0,0.2257731,3.972862,-86.996384)"
       cx="389.85434"
       cy="108.5"
       fx="389.85434"
       fy="108.5"
       r="373.85434" />
    <radialGradient
       inkscape:collect="always"
       xlink:href="#linearGradient3205"
       id="radialGradient3067"
       gradientUnits="userSpaceOnUse"
       gradientTransform="matrix(0.06419612,0,0,0.2257731,3.9728621,-31.996376)"
       cx="389.85434"
       cy="108.5"
       fx="389.85434"
       fy="108.5"
       r="373.85434" />
    <radialGradient
       inkscape:collect="always"
       xlink:href="#linearGradient3205"
       id="radialGradient3076"
       gradientUnits="userSpaceOnUse"
       gradientTransform="matrix(0.06419612,0,0,0.2257731,3.9728621,-31.996376)"
       cx="389.85434"
       cy="108.5"
       fx="389.85434"
       fy="108.5"
       r="373.85434" />
    <radialGradient
       inkscape:collect="always"
       xlink:href="#linearGradient3191"
       id="radialGradient3095"
       gradientUnits="userSpaceOnUse"
       gradientTransform="matrix(0.06419612,0,0,0.2257731,3.9728622,-72.996384)"
       cx="389.85434"
       cy="108.5"
       fx="389.85434"
       fy="108.5"
       r="373.85434" />
    <radialGradient
       inkscape:collect="always"
       xlink:href="#linearGradient3205"
       id="radialGradient3098"
       gradientUnits="userSpaceOnUse"
       gradientTransform="matrix(0.06419612,0,0,0.2257731,3.972862,-85.996376)"
       cx="389.85434"
       cy="108.5"
       fx="389.85434"
       fy="108.5"
       r="373.85434" />
    <radialGradient
       inkscape:collect="always"
       xlink:href="#linearGradient3191"
       id="radialGradient3101"
       gradientUnits="userSpaceOnUse"
       gradientTransform="matrix(0.06419612,0,0,0.2257731,3.972862,-109.99638)"
       cx="389.85434"
       cy="108.5"
       fx="389.85434"
       fy="108.5"
       r="373.85434" />
    <radialGradient
       inkscape:collect="always"
       xlink:href="#linearGradient3205"
       id="radialGradient3104"
       gradientUnits="userSpaceOnUse"
       gradientTransform="matrix(0.06419612,0,0,0.2257731,3.972862,-122.99638)"
       cx="389.85434"
       cy="108.5"
       fx="389.85434"
       fy="108.5"
       r="373.85434" />
    <radialGradient
       inkscape:collect="always"
       xlink:href="#linearGradient3205"
       id="radialGradient3066"
       gradientUnits="userSpaceOnUse"
       gradientTransform="matrix(0.06419612,0,0,0.2257731,57.97286,-73.996376)"
       cx="389.85434"
       cy="108.5"
       fx="389.85434"
       fy="108.5"
       r="373.85434" />
    <radialGradient
       inkscape:collect="always"
       xlink:href="#linearGradient3191"
       id="radialGradient3068"
       gradientUnits="userSpaceOnUse"
       gradientTransform="matrix(0.06419612,0,0,0.2257731,57.97286,-72.996384)"
       cx="389.85434"
       cy="108.5"
       fx="389.85434"
       fy="108.5"
       r="373.85434" />
    <linearGradient
       id="linearGradient3215">
      <stop
         id="stop3217"
         style="stop-color:#ffffff;stop-opacity:1;"
         offset="0" />
      <stop
         id="stop3221"
         style="stop-color:#ffffff;stop-opacity:0.28158844;"
         offset="0.5" />
      <stop
         id="stop3219"
         style="stop-color:#ffffff;stop-opacity:0;"
         offset="1" />
    </linearGradient>
    <linearGradient
       id="linearGradient4157">
      <stop
         style="stop-color:#ffffff;stop-opacity:0.70588237;"
         offset="0"
         id="stop4159" />
      <stop
         style="stop-color:#b5b5b5;stop-opacity:0.19607843;"
         offset="1"
         id="stop4161" />
    </linearGradient>
    <style
       id="current-color-scheme"
       type="text/css" />
  </defs>
  <rect
     ry="2.077126"
     rx="0"
     y="-10"
     x="-10"
     height="2.077126"
     width="2.0329318"
     id="hint-tile-center"
     style="fill:#008080;fill-opacity:1;fill-rule:nonzero;stroke:none;opacity:0.01" />
  <rect
     style="fill:#008080;fill-opacity:1;fill-rule:nonzero;stroke:none;opacity:0.01"
     id="pressed-hint-top-margin"
     width="2"
     height="6"
     x="28"
     y="2" />
  <rect
     y="25"
     x="29"
     height="6"
     width="2"
     id="pressed-hint-bottom-margin"
     style="fill:#008080;fill-opacity:1;fill-rule:nonzero;stroke:none;opacity:0.01" />
  <rect
     y="16"
     x="10"
     height="2"
     width="6"
     id="pressed-hint-left-margin"
     style="fill:#008080;fill-opacity:1;fill-rule:nonzero;stroke:none;opacity:0.01" />
  <rect
     style="fill:#008080;fill-opacity:1;fill-rule:nonzero;stroke:none;opacity:0.01"
     id="pressed-hint-right-margin"
     width="6"
     height="2"
     x="35"
     y="16" />
  <rect
     style="fill:#008080;fill-opacity:1;fill-rule:nonzero;stroke:none;opacity:0.01"
     id="normal-hint-left-margin"
     width="6"
     height="2"
     x="17"
     y="58" />
  <rect
     y="44"
     x="28"
     height="6"
     width="2"
     id="normal-hint-top-margin"
     style="fill:#008080;fill-opacity:1;fill-rule:nonzero;stroke:none;opacity:0.01" />
  <rect
     style="fill:#008080;fill-opacity:1;fill-rule:nonzero;stroke:none;opacity:0.01"
     id="normal-hint-bottom-margin"
     width="2"
     height="6"
     x="29"
     y="67" />
  <rect
     y="58"
     x="38"
     height="2"
     width="6"
     id="normal-hint-right-margin"
     style="fill:#008080;fill-opacity:1;fill-rule:nonzero;stroke:none;opacity:0.01" />
  <g
     id="separator"
     style="opacity:1"
     transform="translate(11,-4)">
    <rect
       class="ColorScheme-ViewBackground"
       transform="scale(1,-1)"
       y="-49"
       x="63"
       height="1"
       width="40"
       id="rect4052"
       style="opacity:0.2;fill:currentColor;fill-opacity:1;stroke:none" />
    <rect
       style="opacity:1;fill:#000000;fill-opacity:1;stroke:none"
       id="rect4054"
       width="40.000313"
       height="1"
       x="63"
       y="-49"
       transform="scale(1,-1)"
       class="ColorScheme-ViewText" />
  </g>
  <path
     inkscape:connector-curvature="0"
     id="normal-center"
     d="m 24,53.000345 v 11 h 10.999999 v -11 z"
     style="opacity:0.01;fill:currentColor;fill-opacity:1;fill-rule:nonzero;stroke:none"
     class="ColorScheme-ViewBackground" />
  <path
     inkscape:connector-curvature="0"
     id="normal-right"
     d="m 35,53.000345 v 11 h 2 c 6.68e-4,-0.01835 0,-0.03439 0,-0.05288 v -10.89423 c 0,-0.0185 6.68e-4,-0.03453 0,-0.05288 h -2 z"
     style="opacity:0.01;fill:currentColor;fill-opacity:1;fill-rule:nonzero;stroke:none"
     class="ColorScheme-ViewBackground" />
  <path
     sodipodi:nodetypes="ccccsscc"
     inkscape:connector-curvature="0"
     id="normal-top"
     d="m 24,51.000298 v 2.000047 h 10.999999 v -2.000047 c -0.0041,-6.7e-4 0.0042,0 10e-7,0 H 24.01186 c -0.004,0 -0.008,-6.7e-4 -0.0119,0 z"
     style="opacity:0.01;fill:currentColor;fill-opacity:1;fill-rule:nonzero;stroke:none"
     inkscape:label="#plain-top"
     class="ColorScheme-ViewBackground" />
  <path
     inkscape:connector-curvature="0"
     id="normal-left"
     d="m 22.0003,53.000345 c -6.7e-4,0.01835 0,0.03439 0,0.05288 v 10.89423 c 0,0.0185 -6.7e-4,0.03453 0,0.05288 h 2 v -11 h -2 z"
     style="opacity:0.01;fill:currentColor;fill-opacity:1;fill-rule:nonzero;stroke:none"
     class="ColorScheme-ViewBackground" />
  <path
     sodipodi:nodetypes="ccccc"
     inkscape:connector-curvature="0"
     id="normal-bottom"
     d="m 24,64 v 2 h 11 v -1.999655 z"
     style="opacity:0.01;fill:currentColor;fill-opacity:1;fill-rule:nonzero;stroke:none"
     inkscape:label="#plain-bottom"
     class="ColorScheme-ViewBackground" />
  <path
     style="opacity:0.01;fill:currentColor;fill-opacity:1;fill-rule:nonzero;stroke:none"
     d="m 21.999967,51.000298 v 2.000047 h 1.999771 v -2.000047 c -7.46e-4,-6.7e-4 7.63e-4,0 0,0 h -1.997614 c -7.28e-4,0 -0.0015,-6.7e-4 -0.0022,0 z"
     id="normal-topleft"
     inkscape:connector-curvature="0"
     sodipodi:nodetypes="ccccsscc"
     inkscape:label="#path3112"
     class="ColorScheme-ViewBackground" />
  <path
     style="opacity:0.01;fill:currentColor;fill-opacity:1;fill-rule:nonzero;stroke:none"
     d="m 35.000007,51.000643 v 1.999702 h 1.999771 v -1.999702 c -7.46e-4,-6.7e-4 7.63e-4,0 0,0 h -1.997614 c -7.28e-4,0 -0.0015,-6.7e-4 -0.0022,0 z"
     id="normal-topright"
     inkscape:connector-curvature="0"
     sodipodi:nodetypes="ccccsscc"
     inkscape:label="#path3118"
     class="ColorScheme-ViewBackground" />
  <path
     sodipodi:nodetypes="ccccsscc"
     inkscape:connector-curvature="0"
     id="normal-bottomright"
     d="M 35.000007,64.000298 V 66 h 1.999771 v -1.999702 c -7.46e-4,-6.7e-4 7.63e-4,0 0,0 h -1.997614 c -7.28e-4,0 -0.0015,-6.7e-4 -0.0022,0 z"
     style="opacity:0.01;fill:currentColor;fill-opacity:1;fill-rule:nonzero;stroke:none"
     inkscape:label="#path3130"
     class="ColorScheme-ViewBackground" />
  <path
     style="opacity:0.01;fill:currentColor;fill-opacity:1;fill-rule:nonzero;stroke:none"
     d="M 22.000007,64.000298 V 66 h 1.999771 v -1.999702 c -7.46e-4,-6.7e-4 7.63e-4,0 0,0 h -1.997614 c -7.28e-4,0 -0.0015,-6.7e-4 -0.0022,0 z"
     id="normal-bottomleft"
     inkscape:connector-curvature="0"
     sodipodi:nodetypes="ccccsscc"
     inkscape:label="#path3136"
     class="ColorScheme-ViewBackground" />
  <path
     inkscape:connector-curvature="0"
     id="pressed-center"
     d="M 19.9997,10.000015 V 21.00002 H 30.999699 V 10.000015 Z"
     style="opacity:0.05;fill:#2a4c76;fill-opacity:1;fill-rule:nonzero;stroke:none"
     class="ColorScheme-ViewFocus" />
  <path
     inkscape:connector-curvature="0"
     id="pressed-right"
     d="M 30.9997,10.000015 V 21.00002 h 2 c 6.68e-4,-0.01835 0,-0.0344 0,-0.05289 V 10.0529 c 0,-0.0185 6.68e-4,-0.03453 0,-0.05288 h -2 z"
     style="opacity:0.05;fill:#2a4c76;fill-opacity:1;fill-rule:nonzero;stroke:none"
     class="ColorScheme-ViewFocus" />
  <path
     sodipodi:nodetypes="ccccsscc"
     inkscape:connector-curvature="0"
     id="pressed-top"
     d="m 19.9997,7.999968 v 2.000047 H 30.999699 V 7.999968 c -0.0041,-6.7e-4 0.0045,0 3.01e-4,0 H 20.01156 c -0.004,0 -0.008,-6.7e-4 -0.0119,0 z"
     style="opacity:0.05;fill:#2a4c76;fill-opacity:1;fill-rule:nonzero;stroke:none"
     inkscape:label="#path4824"
     class="ColorScheme-ViewFocus" />
  <path
     inkscape:connector-curvature="0"
     id="pressed-left"
     d="m 18,10.000015 c -6.7e-4,0.01835 0,0.03439 0,0.05288 v 10.89423 c 0,0.0185 -6.7e-4,0.03453 0,0.05288 h 2 V 10 h -2 z"
     style="opacity:0.05;fill:#2a4c76;fill-opacity:1;fill-rule:nonzero;stroke:none"
     class="ColorScheme-ViewFocus" />
  <path
     sodipodi:nodetypes="cccccc"
     inkscape:connector-curvature="0"
     id="pressed-bottom"
     d="m 20,21 v 2 h 11 v -2 z"
     style="opacity:0.05;fill:#2a4c76;fill-opacity:1;fill-rule:nonzero"
     inkscape:label="#path4850"
     class="ColorScheme-ViewFocus" />
  <path
     style="opacity:0.05;fill:#2a4c76;fill-opacity:1;fill-rule:nonzero;stroke:none"
     d="m 17.999667,7.999968 v 2.000047 h 1.999722 V 7.999968 c -7.45e-4,-6.7e-4 8.18e-4,0 5.5e-5,0 h -1.997621 c -7.27e-4,0 -0.0015,-6.7e-4 -0.0022,0 z"
     id="pressed-topleft"
     inkscape:connector-curvature="0"
     sodipodi:nodetypes="ccccsscc"
     inkscape:label="#path3154"
     class="ColorScheme-ViewFocus" />
  <path
     sodipodi:nodetypes="ccccsscc"
     inkscape:connector-curvature="0"
     id="pressed-topright"
     d="m 31.000044,7.999968 v 2.000047 h 1.999722 V 7.999968 c -7.45e-4,-6.7e-4 8.18e-4,0 5.5e-5,0 H 31.0022 c -7.27e-4,0 -0.0015,-6.7e-4 -0.0022,0 z"
     style="opacity:0.05;fill:#2a4c76;fill-opacity:1;fill-rule:nonzero;stroke:none"
     inkscape:label="#path3156"
     class="ColorScheme-ViewFocus" />
  <path
     style="opacity:0.05;fill:#2a4c76;fill-opacity:1;fill-rule:nonzero;stroke:none"
     d="M 31.000044,20.999953 V 23 h 1.999722 v -2.000047 c -7.45e-4,-6.7e-4 8.18e-4,0 5.5e-5,0 H 31.0022 c -7.27e-4,0 -0.0015,-6.7e-4 -0.0022,0 z"
     id="pressed-bottomright"
     inkscape:connector-curvature="0"
     sodipodi:nodetypes="ccccsscc"
     inkscape:label="#path3158"
     class="ColorScheme-ViewFocus" />
  <path
     sodipodi:nodetypes="ccccsscc"
     inkscape:connector-curvature="0"
     id="pressed-bottomleft"
     d="M 18.000044,20.999953 V 23 h 1.999722 v -2.000047 c -7.45e-4,-6.7e-4 8.18e-4,0 5.5e-5,0 H 18.0022 c -7.27e-4,0 -0.0015,-6.7e-4 -0.0022,0 z"
     style="opacity:0.05;fill:#2a4c76;fill-opacity:1;fill-rule:nonzero;stroke:none"
     inkscape:label="#path3160"
     class="ColorScheme-ViewFocus" />
  <path
     inkscape:connector-curvature="0"
     id="section-center"
     d="M 21.9997,88 V 99 H 32.999699 V 88 Z"
     style="opacity:0.4;fill:#ffffff;fill-opacity:1;fill-rule:nonzero;stroke:none"
     class="ColorScheme-ViewBackground"
     inkscape:label="#normal-center-8" />
  <path
     inkscape:connector-curvature="0"
     id="section-right"
     d="m 32.9997,88 v 11 h 2 c 6.68e-4,-0.0183 0,-0.0344 0,-0.0529 V 88.05287 c 0,-0.0185 6.68e-4,-0.03453 0,-0.05288 h -2 z"
     style="opacity:0.4;fill:#ffffff;fill-opacity:1;fill-rule:nonzero;stroke:none"
     class="ColorScheme-ViewBackground"
     inkscape:label="#normal-right-4" />
  <path
     sodipodi:nodetypes="ccccsscc"
     inkscape:connector-curvature="0"
     id="section-top"
     d="M 21.9997,85.999953 V 88 h 10.999999 v -2.000047 c -0.0041,-6.7e-4 0.0042,0 10e-7,0 H 22.01156 c -0.004,0 -0.008,-6.7e-4 -0.0119,0 z"
     style="opacity:0.4;fill:#ffffff;fill-opacity:1;fill-rule:nonzero;stroke:none"
     inkscape:label="#plain-top"
     class="ColorScheme-ViewBackground" />
  <path
     inkscape:connector-curvature="0"
     id="section-left"
     d="m 20,88 c -6.7e-4,0.01835 0,0.03439 0,0.05288 v 10.89423 c 0,0.0185 -6.7e-4,0.0345 0,0.0529 h 2 v -11 h -2 z"
     style="opacity:0.4;fill:#ffffff;fill-opacity:1;fill-rule:nonzero;stroke:none"
     class="ColorScheme-ViewBackground"
     inkscape:label="#normal-left-0" />
  <path
     sodipodi:nodetypes="ccccc"
     inkscape:connector-curvature="0"
     id="section-bottom"
     d="m 21.9997,98.99966 v 2 h 11 V 99 Z"
     style="opacity:0.4;fill:#ffffff;fill-opacity:1;fill-rule:nonzero;stroke:none"
     inkscape:label="#plain-bottom"
     class="ColorScheme-ViewBackground" />
  <path
     style="opacity:0.4;fill:#ffffff;fill-opacity:1;fill-rule:nonzero;stroke:none"
     d="M 19.999667,85.999953 V 88 h 1.999771 v -2.000047 c -7.46e-4,-6.7e-4 7.63e-4,0 0,0 h -1.997614 c -7.28e-4,0 -0.0015,-6.7e-4 -0.0022,0 z"
     id="section-topleft"
     inkscape:connector-curvature="0"
     sodipodi:nodetypes="ccccsscc"
     inkscape:label="#path3112"
     class="ColorScheme-ViewBackground" />
  <path
     style="opacity:0.4;fill:#ffffff;fill-opacity:1;fill-rule:nonzero;stroke:none"
     d="M 32.999707,86.000298 V 88 h 1.999771 v -1.999702 c -7.46e-4,-6.7e-4 7.63e-4,0 0,0 h -1.997614 c -7.28e-4,0 -0.0015,-6.7e-4 -0.0022,0 z"
     id="section-topright"
     inkscape:connector-curvature="0"
     sodipodi:nodetypes="ccccsscc"
     inkscape:label="#path3118"
     class="ColorScheme-ViewBackground" />
  <path
     sodipodi:nodetypes="ccccsscc"
     inkscape:connector-curvature="0"
     id="section-bottomright"
     d="m 32.999707,98.99995 v 1.99971 h 1.999771 v -1.99971 c -7.46e-4,-6.7e-4 7.63e-4,0 0,0 h -1.997614 c -7.28e-4,0 -0.0015,-6.7e-4 -0.0022,0 z"
     style="opacity:0.4;fill:#ffffff;fill-opacity:1;fill-rule:nonzero;stroke:none"
     inkscape:label="#path3130"
     class="ColorScheme-ViewBackground" />
  <path
     style="opacity:0.4;fill:#ffffff;fill-opacity:1;fill-rule:nonzero;stroke:none"
     d="m 19.999707,98.99995 v 1.99971 h 1.999771 v -1.99971 c -7.46e-4,-6.7e-4 7.63e-4,0 0,0 h -1.997614 c -7.28e-4,0 -0.0015,-6.7e-4 -0.0022,0 z"
     id="section-bottomleft"
     inkscape:connector-curvature="0"
     sodipodi:nodetypes="ccccsscc"
     inkscape:label="#path3136"
     class="ColorScheme-ViewBackground" />
  <rect
     style="fill:#008080;fill-opacity:1;fill-rule:nonzero;stroke:none;opacity:0.01"
     id="section-hint-top-margin"
     width="2"
     height="6"
     x="28"
     y="81" />
  <rect
     y="95"
     x="10"
     height="2"
     width="6"
     id="section-hint-left-margin"
     style="fill:#008080;fill-opacity:1;fill-rule:nonzero;stroke:none;opacity:0.01" />
  <rect
     style="fill:#008080;fill-opacity:1;fill-rule:nonzero;stroke:none;opacity:0.01"
     id="section-hint-right-margin"
     width="6"
     height="2"
     x="34.965229"
     y="95" />
  <rect
     y="100"
     x="29"
     height="6"
     width="2"
     id="section-hint-bottom-margin"
     style="fill:#008080;fill-opacity:1;fill-rule:nonzero;stroke:none;opacity:0.01" />
  <path
     inkscape:connector-curvature="0"
     id="hover-center"
     d="M 59.9997,7.3841577 V 18.384163 H 70.999699 V 7.3841577 Z"
     style="opacity:0.05;fill:#2a4c76;fill-opacity:1;fill-rule:nonzero;stroke:none"
     class="ColorScheme-ViewFocus"
     inkscape:label="#pressed-center-5" />
  <path
     inkscape:connector-curvature="0"
     id="hover-right"
     d="M 70.9997,7.3841577 V 18.384163 h 2 c 6.68e-4,-0.01835 0,-0.0344 0,-0.05289 V 7.4370427 c 0,-0.0185 6.68e-4,-0.03453 0,-0.05288 h -2 z"
     style="opacity:0.05;fill:#2a4c76;fill-opacity:1;fill-rule:nonzero;stroke:none"
     class="ColorScheme-ViewFocus"
     inkscape:label="#pressed-right-0" />
  <path
     sodipodi:nodetypes="ccccsscc"
     inkscape:connector-curvature="0"
     id="hover-top"
     d="m 59.9997,5.3841107 v 2.000047 h 10.999999 v -2.000047 c -0.0041,-6.7e-4 0.0045,0 3.01e-4,0 H 60.01156 c -0.004,0 -0.008,-6.7e-4 -0.0119,0 z"
     style="opacity:0.05;fill:#2a4c76;fill-opacity:1;fill-rule:nonzero;stroke:none"
     inkscape:label="#path4824"
     class="ColorScheme-ViewFocus" />
  <path
     inkscape:connector-curvature="0"
     id="hover-left"
     d="m 58,7.3841577 c -6.7e-4,0.01835 0,0.03439 0,0.05288 V 18.331268 c 0,0.0185 -6.7e-4,0.03453 0,0.05288 h 2 V 7.3841427 h -2 z"
     style="opacity:0.05;fill:#2a4c76;fill-opacity:1;fill-rule:nonzero;stroke:none"
     class="ColorScheme-ViewFocus"
     inkscape:label="#pressed-left-7" />
  <path
     sodipodi:nodetypes="cccccc"
     inkscape:connector-curvature="0"
     id="hover-bottom"
     d="m 60,18.384143 v 2 h 11 v -2 z"
     style="opacity:0.05;fill:#2a4c76;fill-opacity:1;fill-rule:nonzero"
     inkscape:label="#path4850"
     class="ColorScheme-ViewFocus" />
  <path
     style="opacity:0.05;fill:#2a4c76;fill-opacity:1;fill-rule:nonzero;stroke:none"
     d="m 57.999667,5.3841107 v 2.000047 h 1.999722 v -2.000047 c -7.45e-4,-6.7e-4 8.18e-4,0 5.5e-5,0 h -1.997621 c -7.27e-4,0 -0.0015,-6.7e-4 -0.0022,0 z"
     id="hover-topleft"
     inkscape:connector-curvature="0"
     sodipodi:nodetypes="ccccsscc"
     inkscape:label="#path3154"
     class="ColorScheme-ViewFocus" />
  <path
     sodipodi:nodetypes="ccccsscc"
     inkscape:connector-curvature="0"
     id="hover-topright"
     d="m 71.000044,5.3841107 v 2.000047 h 1.999722 v -2.000047 c -7.45e-4,-6.7e-4 8.18e-4,0 5.5e-5,0 H 71.0022 c -7.27e-4,0 -0.0015,-6.7e-4 -0.0022,0 z"
     style="opacity:0.05;fill:#2a4c76;fill-opacity:1;fill-rule:nonzero;stroke:none"
     inkscape:label="#path3156"
     class="ColorScheme-ViewFocus" />
  <path
     style="opacity:0.05;fill:#2a4c76;fill-opacity:1;fill-rule:nonzero;stroke:none"
     d="m 71.000044,18.384096 v 2.000047 h 1.999722 v -2.000047 c -7.45e-4,-6.7e-4 8.18e-4,0 5.5e-5,0 H 71.0022 c -7.27e-4,0 -0.0015,-6.7e-4 -0.0022,0 z"
     id="hover-bottomright"
     inkscape:connector-curvature="0"
     sodipodi:nodetypes="ccccsscc"
     inkscape:label="#path3158"
     class="ColorScheme-ViewFocus" />
  <path
     sodipodi:nodetypes="ccccsscc"
     inkscape:connector-curvature="0"
     id="hover-bottomleft"
     d="m 58.000044,18.384096 v 2.000047 h 1.999722 v -2.000047 c -7.45e-4,-6.7e-4 8.18e-4,0 5.5e-5,0 H 58.0022 c -7.27e-4,0 -0.0015,-6.7e-4 -0.0022,0 z"
     style="opacity:0.05;fill:#2a4c76;fill-opacity:1;fill-rule:nonzero;stroke:none"
     inkscape:label="#path3160"
     class="ColorScheme-ViewFocus" />
</svg>
