<?xml version="1.0" encoding="UTF-8" standalone="no"?>
<svg
   xmlns:dc="http://purl.org/dc/elements/1.1/"
   xmlns:cc="http://creativecommons.org/ns#"
   xmlns:rdf="http://www.w3.org/1999/02/22-rdf-syntax-ns#"
   xmlns:svg="http://www.w3.org/2000/svg"
   xmlns="http://www.w3.org/2000/svg"
   xmlns:sodipodi="http://sodipodi.sourceforge.net/DTD/sodipodi-0.dtd"
   xmlns:inkscape="http://www.inkscape.org/namespaces/inkscape"
   inkscape:version="1.0.2 (e86c870879, 2021-01-15)"
   sodipodi:docname="plasmoidheading.svg"
   version="1.1"
   viewBox="0 0 173 56.000004"
   id="svg2">
  <metadata
     id="metadata43">
    <rdf:RDF>
      <cc:Work
         rdf:about="">
        <dc:format>image/svg+xml</dc:format>
        <dc:type
           rdf:resource="http://purl.org/dc/dcmitype/StillImage" />
      </cc:Work>
    </rdf:RDF>
  </metadata>
  <defs
     id="defs41" />
  <sodipodi:namedview
     inkscape:document-rotation="0"
     inkscape:lockguides="false"
     inkscape:current-layer="svg2"
     inkscape:window-maximized="1"
     inkscape:window-y="0"
     inkscape:window-x="0"
     inkscape:cy="39.831711"
     inkscape:cx="146.95988"
     inkscape:zoom="2.9606035"
     showgrid="false"
     id="namedview39"
     inkscape:window-height="1007"
     inkscape:window-width="1920"
     inkscape:pageshadow="2"
     inkscape:pageopacity="0"
     guidetolerance="10"
     gridtolerance="10"
     objecttolerance="10"
     borderopacity="1"
     bordercolor="#666666"
     pagecolor="#ffffff" />
  <style
     type="text/css"
     id="current-color-scheme" />
  <path
     style="fill:#030303;fill-opacity:1;opacity:0.01"
     opacity=".6"
     d="m-7-7h5v5h-5z"
     id="hint-stretch-borders" />
  <path
     inkscape:connector-curvature="0"
     style="color:#eff0f1;opacity:0.01;fill:#151928;fill-opacity:1"
     d="M 19,12 H 51 V 44 H 19 Z"
     class="ColorScheme-Background"
     id="header-center" />
  <path
     inkscape:connector-curvature="0"
     style="color:#eff0f1;opacity:0.01;fill:#151928;fill-opacity:1"
     d="m 51,12 h 6 v 32 h -6 z"
     class="ColorScheme-Background"
     id="header-right" />
  <path
     inkscape:connector-curvature="0"
     style="color:#eff0f1;opacity:0.01;fill:#151928;fill-opacity:1"
     d="M 19,12.000004 V 6.0000026 h 32 v 6.0000014 z"
     class="ColorScheme-Background"
     id="header-top" />
  <g
     id="header-bottom">
    <path
       inkscape:connector-curvature="0"
       style="color:#eff0f1;opacity:0.01;fill:#151928;fill-opacity:1"
       d="m 51,44.000004 v 6 H 19 v -6 z"
       class="ColorScheme-Background"
       id="rect3152" />
    <path
       inkscape:connector-curvature="0"
       style="color:#232629;opacity:1;fill:#030303;fill-opacity:1"
       d="m 51,49 v 1 H 19 v -1 z"
       class="ColorScheme-Text"
       id="rect3154" />
  </g>
  <path
     inkscape:connector-curvature="0"
     style="color:#eff0f1;opacity:0.01;fill:#151928;fill-opacity:1"
     d="M 19,44 H 13 V 12 h 6 z"
     class="ColorScheme-Background"
     id="header-left" />
  <g
     id="header-bottomright">
    <path
       inkscape:connector-curvature="0"
       style="color:#eff0f1;opacity:0.01;fill:#151928;fill-opacity:1"
       d="m 57,44.000004 h -6 v 6 h 6 v -5 z"
       class="ColorScheme-Background"
       id="path3176" />
    <path
       inkscape:connector-curvature="0"
       style="color:#232629;opacity:1;fill:#030303;fill-opacity:1;fill-rule:evenodd"
       d="m 57,49 h -6 v 1 h 6 c 0,-1 -2e-5,0 0,-1 z"
       class="ColorScheme-Text"
       id="path3178" />
  </g>
  <g
     id="header-bottomleft">
    <path
       inkscape:connector-curvature="0"
       style="color:#eff0f1;opacity:0.01;fill:#151928;fill-opacity:1"
       d="m 19,49.999986 v -6 h -6 v 6 c 6,4e-5 0,0 4,0 h 1 z"
       class="ColorScheme-Background"
       id="path3182" />
    <path
       inkscape:connector-curvature="0"
       style="color:#232629;opacity:1;fill:#030303;fill-opacity:1;fill-rule:evenodd"
       d="m 19,50 v -1 h -4 l -2,-2e-5 v 1 L 15,50 h 1 z"
       class="ColorScheme-Text"
       id="path3184" />
  </g>
  <path
     inkscape:connector-curvature="0"
     style="color:#eff0f1;opacity:0.01;fill:#151928;fill-opacity:1"
     d="m 16,6 c -2,0 -3,1 -3,3 v 3 h 6 V 6 h -1 1 z"
     class="ColorScheme-Background"
     id="header-topleft" />
  <path
     inkscape:connector-curvature="0"
     style="color:#eff0f1;opacity:0.01;fill:#151928;fill-opacity:1"
     d="m 51,6 v 6 h 6 V 9 C 57,7 56,6 54,6 h -2 z"
     class="ColorScheme-Background"
     id="header-topright" />
  <path
     inkscape:connector-curvature="0"
     style="color:#eff0f1;opacity:0.01;fill:#151928;fill-opacity:1"
     d="M 67,44 H 99 V 12 H 67 Z"
     class="ColorScheme-Background"
     id="footer-center" />
  <path
     inkscape:connector-curvature="0"
     style="color:#eff0f1;opacity:0.01;fill:#151928;fill-opacity:1"
     d="m 99,44 h 6 V 12 h -6 z"
     class="ColorScheme-Background"
     id="footer-right" />
  <path
     inkscape:connector-curvature="0"
     style="color:#eff0f1;opacity:0.01;fill:#151928;fill-opacity:1"
     d="m 67,44.000004 v 6 h 32 v -6 z"
     class="ColorScheme-Background"
     id="footer-bottom" />
  <g
     id="footer-top">
    <path
       inkscape:connector-curvature="0"
       style="color:#eff0f1;opacity:0.01;fill:#151928;fill-opacity:1"
       d="M 99,12.000004 V 6.000003 H 67 v 6.000001 z"
       class="ColorScheme-Background"
       id="rect3152-0" />
    <path
       inkscape:connector-curvature="0"
       style="color:#232629;opacity:1;fill:#030303;fill-opacity:1"
       d="m 99,7.0000038 v -1 H 67 v 1 z"
       class="ColorScheme-Text"
       id="rect3154-9" />
  </g>
  <path
     inkscape:connector-curvature="0"
     style="color:#eff0f1;opacity:0;fill:#151928;fill-opacity:1"
     d="m 67,12 h -6 v 32 h 6 z"
     class="ColorScheme-Background"
     id="footer-left" />
  <g
     id="footer-topright">
    <path
       inkscape:connector-curvature="0"
       style="color:#eff0f1;opacity:0.01;fill:#151928;fill-opacity:1"
       d="M 105,12.000004 H 99 V 6.0000034 h 6 v 5.0000006 z"
       class="ColorScheme-Background"
       id="path3176-6" />
    <path
       inkscape:connector-curvature="0"
       style="color:#232629;opacity:1;fill:#030303;fill-opacity:1;fill-rule:evenodd"
       d="M 105,7 H 99 V 6 h 6 c 0,1 -2e-5,0 0,1 z"
       class="ColorScheme-Text"
       id="path3178-2" />
  </g>
  <g
     id="footer-topleft">
    <path
       inkscape:connector-curvature="0"
       style="color:#eff0f1;opacity:0.01;fill:#151928;fill-opacity:1;stroke-width:1"
       d="m 67,6 v 6 H 61 V 6 c 6,-4e-5 0,0 4,0 h 1 z"
       class="ColorScheme-Background"
       id="path3182-1" />
    <path
       inkscape:connector-curvature="0"
       style="color:#232629;opacity:1;fill:#030303;fill-opacity:1;fill-rule:evenodd"
       d="m 67,5.9999838 v 1 h -4 l -2,2e-5 v -1 l 2,-2e-5 h 1 z"
       class="ColorScheme-Text"
       id="path3184-8" />
  </g>
  <path
     inkscape:connector-curvature="0"
     style="color:#eff0f1;opacity:0.01;fill:#151928;fill-opacity:1"
     d="m 64,50 c -2,0 -3,-1 -3,-3 v -3 h 6 v 6 h -1 1 z"
     class="ColorScheme-Background"
     id="footer-bottomleft" />
  <path
     inkscape:connector-curvature="0"
     style="color:#eff0f1;opacity:0.01;fill:#151928;fill-opacity:1"
     d="m 99,50.000004 v -6 h 6 v 3 c 0,2 -1,3 -3,3 h -2 z"
     class="ColorScheme-Background"
     id="footer-bottomright" />
  <path
     inkscape:connector-curvature="0"
     style="fill:#0055d4;fill-opacity:1;stroke-width:0.99999994;opacity:0.01"
     d="m 33,12 h 4 v 6 h -4 z"
     id="hint-top-margin" />
  <path
     inkscape:connector-curvature="0"
     style="fill:#0055d4;fill-opacity:1;opacity:0.01"
     d="m 33,38 h 4 v 6 h -4 z"
     id="hint-bottom-margin" />
  <path
     inkscape:connector-curvature="0"
     style="fill:#00bcd4;fill-opacity:1;opacity:0.01"
     d="m 51,26 v 4 h -6 v -4 z"
     id="hint-right-margin" />
  <path
     inkscape:connector-curvature="0"
     style="fill:#00bcd4;fill-opacity:1;stroke-width:1;opacity:0.01"
     d="m 25,26 v 4 h -6 v -4 z"
     id="hint-left-margin" />
</svg>
