<?xml version="1.0" encoding="UTF-8" standalone="no"?>
<svg
   xmlns:dc="http://purl.org/dc/elements/1.1/"
   xmlns:cc="http://creativecommons.org/ns#"
   xmlns:rdf="http://www.w3.org/1999/02/22-rdf-syntax-ns#"
   xmlns:svg="http://www.w3.org/2000/svg"
   xmlns="http://www.w3.org/2000/svg"
   xmlns:sodipodi="http://sodipodi.sourceforge.net/DTD/sodipodi-0.dtd"
   xmlns:inkscape="http://www.inkscape.org/namespaces/inkscape"
   version="1.0"
   inkscape:export-ydpi="90"
   inkscape:export-xdpi="90"
   inkscape:output_extension="org.inkscape.output.svg.inkscape"
   sodipodi:docname="toolbar.svg"
   height="57"
   width="17"
   inkscape:version="1.0 (4035a4fb49, 2020-05-01)"
   sodipodi:version="0.32"
   id="svg2">
  <sodipodi:namedview
     inkscape:document-rotation="0"
     inkscape:window-maximized="1"
     inkscape:object-nodes="true"
     inkscape:snap-global="true"
     inkscape:bbox-nodes="false"
     inkscape:object-paths="true"
     inkscape:snap-bbox="true"
     inkscape:snap-guide="false"
     inkscape:guide-bbox="true"
     showguides="false"
     showgrid="false"
     inkscape:current-layer="svg2"
     inkscape:window-y="0"
     inkscape:window-x="0"
     inkscape:cy="29.740338"
     inkscape:cx="34.875467"
     inkscape:zoom="13.153057"
     id="base"
     pagecolor="#ffffff"
     bordercolor="#000000"
     borderopacity="1"
     objecttolerance="10.0"
     gridtolerance="10.0"
     guidetolerance="10.0"
     inkscape:pageopacity="1"
     inkscape:pageshadow="2"
     inkscape:window-width="1920"
     inkscape:window-height="1015">
    <inkscape:grid
       type="xygrid"
       id="grid5592"
       visible="true"
       enabled="true"
       empspacing="5"
       snapvisiblegridlinesonly="true" />
  </sodipodi:namedview>
  <metadata
     id="metadata7">
    <rdf:RDF>
      <cc:Work
         rdf:about="">
        <dc:format>image/svg+xml</dc:format>
        <dc:type
           rdf:resource="http://purl.org/dc/dcmitype/StillImage" />
        <dc:title></dc:title>
      </cc:Work>
      <cc:Work
         rdf:about="">
        <dc:format>image/svg+xml</dc:format>
        <dc:type
           rdf:resource="http://purl.org/dc/dcmitype/StillImage" />
      </cc:Work>
    </rdf:RDF>
  </metadata>
  <defs
     id="defs5">
    <style
       type="text/css"
       id="current-color-scheme">
      </style>
  </defs>
  <rect
     ry="2.077126"
     rx="0"
     y="-1.3405813"
     x="-2.7400386"
     height="2.077126"
     width="2.0329318"
     id="hint-tile-center"
     style="opacity:0.01;fill:#10131a;fill-opacity:1;fill-rule:nonzero;stroke:none;stroke-width:6;stroke-linecap:round;stroke-linejoin:round;stroke-miterlimit:4;stroke-dasharray:none;stroke-dashoffset:0;stroke-opacity:1" />
  <path
     inkscape:label="#normal-center-8"
     class="ColorScheme-ViewBackground"
     style="opacity:0.4;fill:#10131a;fill-opacity:1;fill-rule:nonzero;stroke:none"
     d="m 2.9997,6.0000048 0,11.0000002 10.999999,0 0,-11.0000002 -10.999999,0 z"
     id="center"
     inkscape:connector-curvature="0" />
  <path
     inkscape:label="#normal-right-4"
     class="ColorScheme-ViewBackground"
     style="opacity:0.4;fill:#10131a;fill-opacity:1;fill-rule:nonzero;stroke:none"
     d="m 13.9997,6.0000048 0,11.0000002 2,0 c 6.68e-4,-0.0183 0,-0.0344 0,-0.0529 l 0,-10.8942302 c 0,-0.0185 6.68e-4,-0.03453 0,-0.05288 l -2,0 z"
     id="right"
     inkscape:connector-curvature="0" />
  <path
     class="ColorScheme-ViewBackground"
     inkscape:label="#plain-top"
     style="opacity:0.4;fill:#10131a;fill-opacity:1;fill-rule:nonzero;stroke:none"
     d="m 2.9997,3.9999578 0,2.000047 10.999999,0 0,-2.000047 c -0.0041,-6.7e-4 0.0042,0 1e-6,0 l -10.98814,0 c -0.004,0 -0.008,-6.7e-4 -0.0119,0 z"
     id="top"
     inkscape:connector-curvature="0"
     sodipodi:nodetypes="ccccsscc" />
  <path
     inkscape:label="#normal-left-0"
     class="ColorScheme-ViewBackground"
     style="opacity:0.4;fill:#10131a;fill-opacity:1;fill-rule:nonzero;stroke:none"
     d="m 1,6.0000048 c -6.7e-4,0.01835 0,0.03439 0,0.05288 L 1,16.947115 c 0,0.0185 -6.7e-4,0.0345 0,0.0529 l 2,0 0,-11.0000002 -2,0 z"
     id="left"
     inkscape:connector-curvature="0" />
  <path
     class="ColorScheme-ViewBackground"
     inkscape:label="#plain-bottom"
     style="opacity:0.4;fill:#10131a;fill-opacity:1;fill-rule:nonzero;stroke:none"
     d="m 2.9997,16.999665 0,2 11,0 0,-1.99966 z"
     id="bottom"
     inkscape:connector-curvature="0"
     sodipodi:nodetypes="ccccc" />
  <path
     class="ColorScheme-ViewBackground"
     inkscape:label="#path3112"
     sodipodi:nodetypes="ccccsscc"
     inkscape:connector-curvature="0"
     id="topleft"
     d="m 0.999667,3.9999578 0,2.000047 1.999771,0 0,-2.000047 c -7.46e-4,-6.7e-4 7.63e-4,0 0,0 l -1.997614,0 c -7.28e-4,0 -0.0015,-6.7e-4 -0.0022,0 z"
     style="opacity:0.4;fill:#10131a;fill-opacity:1;fill-rule:nonzero;stroke:none" />
  <path
     class="ColorScheme-ViewBackground"
     inkscape:label="#path3118"
     sodipodi:nodetypes="ccccsscc"
     inkscape:connector-curvature="0"
     id="topright"
     d="m 13.999707,4.0003028 0,1.999702 1.999771,0 0,-1.999702 c -7.46e-4,-6.7e-4 7.63e-4,0 0,0 l -1.997614,0 c -7.28e-4,0 -0.0015,-6.7e-4 -0.0022,0 z"
     style="opacity:0.4;fill:#10131a;fill-opacity:1;fill-rule:nonzero;stroke:none" />
  <path
     class="ColorScheme-ViewBackground"
     inkscape:label="#path3130"
     style="opacity:0.4;fill:#10131a;fill-opacity:1;fill-rule:nonzero;stroke:none"
     d="m 13.999707,16.999955 0,1.99971 1.999771,0 0,-1.99971 c -7.46e-4,-6.7e-4 7.63e-4,0 0,0 l -1.997614,0 c -7.28e-4,0 -0.0015,-6.7e-4 -0.0022,0 z"
     id="bottomright"
     inkscape:connector-curvature="0"
     sodipodi:nodetypes="ccccsscc" />
  <path
     class="ColorScheme-ViewBackground"
     inkscape:label="#path3136"
     sodipodi:nodetypes="ccccsscc"
     inkscape:connector-curvature="0"
     id="bottomleft"
     d="m 0.999707,16.999955 0,1.99971 1.999771,0 0,-1.99971 c -7.46e-4,-6.7e-4 7.63e-4,0 0,0 l -1.997614,0 c -7.28e-4,0 -0.0015,-6.7e-4 -0.0022,0 z"
     style="opacity:0.4;fill:#10131a;fill-opacity:1;fill-rule:nonzero;stroke:none" />
</svg>
